<?xml version="1.0" encoding="utf-8"?>
<!-- Generator: Adobe Illustrator 16.0.0, SVG Export Plug-In . SVG Version: 6.00 Build 0)  -->
<!DOCTYPE svg PUBLIC "-//W3C//DTD SVG 1.1//EN" "http://www.w3.org/Graphics/SVG/1.1/DTD/svg11.dtd">
<svg version="1.1" id="Capa_1" xmlns="http://www.w3.org/2000/svg" xmlns:xlink="http://www.w3.org/1999/xlink" x="0px" y="0px"
	 width="380.881px" height="129.752px" viewBox="0 0 380.881 129.752" enable-background="new 0 0 380.881 129.752"
	 xml:space="preserve">
<g>
	<g>
		<g>
			<path fill="#C75931" d="M66.82,66.821H0V0H66.82V66.821z M4,62.82H62.82V4H4V62.82z"/>
		</g>
		<g>
			<g>
				<path fill="#C75931" d="M51.912,37.498c0,4.685-4.061,8.119-10.694,8.119H16.589v-28.26h23.849c3.201,0,6.206,1.289,8.08,3.356
					c1.249,1.366,1.911,3.045,1.911,4.802c0,2.342-0.896,4.021-2.889,5.426C50.35,32.502,51.912,34.57,51.912,37.498z
					 M43.481,25.516c0-1.6-1.249-2.731-3.085-2.731H23.458v5.582h17.213C42.193,28.365,43.481,27.154,43.481,25.516z M44.924,37.146
					c0-1.99-1.562-3.355-4.137-3.355h-17.33v6.4H40.67C43.442,40.191,44.924,39.061,44.924,37.146z"/>
			</g>
		</g>
	</g>
	<g>
		<g>
			<path fill="#C75931" d="M129.599,66.821h-66.82V0h66.82V66.821z M66.779,62.82h58.82V4h-58.82V62.82L66.779,62.82z"/>
		</g>
		<g>
			<g>
				<path fill="#C75931" d="M95.956,46.438c-10.579,0-17.098-4.371-17.098-10.345V17.357h6.869v17.8
					c0,3.475,3.71,5.814,10.229,5.814c6.52,0,10.228-2.381,10.228-5.814v-17.8h6.868v18.736
					C113.051,42.065,106.535,46.438,95.956,46.438z"/>
			</g>
		</g>
	</g>
	<g>
		<path fill="#C75931" d="M380.88,66.932h-66.82V0.111h66.82V66.932z M318.059,62.932h58.82V4.111h-58.82V62.932z"/>
		<g>
			<path fill="#C75931" d="M357.464,45.729l-6.949-9.992h-12.996v9.992h-6.871V17.47h23.146c6.439,0,10.656,3.746,10.656,9.25
				c0,4.449-2.188,7.339-6.439,8.511l7.184,10.498H357.464z M357.659,26.523c0-2.146-1.719-3.629-4.646-3.629h-15.494v7.416h15.535
				C355.977,30.313,357.659,28.866,357.659,26.523z"/>
		</g>
	</g>
	<g>
		<g>
			<path fill="#C75931" d="M192.419,129.752H125.6V62.931h66.819V129.752z M129.599,125.752h58.819v-58.82h-58.819V125.752z"/>
		</g>
		<g>
			<g>
				<path fill="#C75931" d="M168.338,108.549l-19.164-20.18h-0.116v20.18h-6.869v-28.26h8.001l19.165,20.219h0.155V80.289h6.869
					v28.26H168.338z"/>
			</g>
		</g>
	</g>
	<g>
		<g>
			<path fill="#C75931" d="M318.059,66.932h-66.818V0.111h66.818V66.932z M255.241,62.932h58.818V4.111h-58.818V62.932z"/>
		</g>
		<g>
			<g>
				<g>
					<path fill="#C75931" d="M267.829,47.651V19.391h30.641v5.426h-23.771v5.777h16.512v5.426h-16.512v6.205h24.861v5.428
						L267.829,47.651L267.829,47.651z"/>
				</g>
			</g>
		</g>
	</g>
	<g>
		<g>
			<path fill="#C75931" d="M255.241,66.932H188.42V0.111h66.821V66.932z M192.419,62.932h58.82V4.111h-58.82V62.932z"/>
		</g>
		<g>
			<g>
				<path fill="#C75931" d="M232.329,45.729l-13.23-13.543l-7.221,5.074v8.47h-6.869V17.47h6.869v13.154l18.617-13.154h9.447
					L224.29,28.557l17.057,17.172H232.329z"/>
			</g>
		</g>
	</g>
</g>
</svg>
