<?xml version="1.0" encoding="utf-8"?>
<!-- Generator: Adobe Illustrator 16.0.0, SVG Export Plug-In . SVG Version: 6.00 Build 0)  -->
<!DOCTYPE svg PUBLIC "-//W3C//DTD SVG 1.1//EN" "http://www.w3.org/Graphics/SVG/1.1/DTD/svg11.dtd">
<svg version="1.1" xmlns="http://www.w3.org/2000/svg" xmlns:xlink="http://www.w3.org/1999/xlink" x="0px" y="0px" width="136.9px"
	 height="134.855px" viewBox="0 0 136.9 134.855" enable-background="new 0 0 136.9 134.855" xml:space="preserve">
<g id="Capa_1">
</g>
<g id="Modo_de_aislamiento">
	<path fill="#FFFFFF" d="M128.728,46.995V0H43.369H8.174v46.995H0v87.86h136.9v-87.86H128.728z M16.348,8.173h27.021h77.186v38.822
		h-7.152V30.648h-4.087V14.303H27.584v16.346h-4.086v16.347h-7.15V8.173z M101.143,30.648H35.758v-8.173h65.385V30.648z
		 M31.672,38.821h73.558v8.174H39.969h-8.297V38.821z M128.728,126.683H8.174V55.168h31.795h88.759V126.683z"/>
	<path fill="#FFFFFF" d="M32.693,78.666c0,6.195,5.041,11.237,11.238,11.237H92.97c6.196,0,11.237-5.042,11.237-11.237
		c0-6.196-5.041-11.238-11.237-11.238H43.932C37.734,67.428,32.693,72.47,32.693,78.666 M43.932,75.601H92.97
		c1.69,0,3.065,1.375,3.065,3.065c0,1.689-1.375,3.064-3.065,3.064H43.932c-1.69,0-3.065-1.375-3.065-3.064
		C40.866,76.976,42.241,75.601,43.932,75.601"/>
</g>
</svg>
