<?xml version="1.0" encoding="utf-8"?>
<!-- Generator: Adobe Illustrator 16.0.0, SVG Export Plug-In . SVG Version: 6.00 Build 0)  -->
<!DOCTYPE svg PUBLIC "-//W3C//DTD SVG 1.1//EN" "http://www.w3.org/Graphics/SVG/1.1/DTD/svg11.dtd">
<svg version="1.1" xmlns="http://www.w3.org/2000/svg" xmlns:xlink="http://www.w3.org/1999/xlink" x="0px" y="0px"
	 width="119.688px" height="137.532px" viewBox="0 0 119.688 137.532" enable-background="new 0 0 119.688 137.532"
	 xml:space="preserve">
<g id="Capa_1">
</g>
<g id="Modo_de_aislamiento">
	<path fill="#FFFFFF" d="M111.688,111.688H8V8h103.688V111.688z M119.688,0H0v119.688h119.688V0z"/>
	<path fill="#FFFFFF" d="M71.029,38.269c11.896,0,21.575,9.679,21.575,21.575c0,11.897-9.679,21.576-21.575,21.576
		c-11.897,0-21.576-9.679-21.576-21.576C49.453,47.947,59.132,38.269,71.029,38.269 M71.029,30.269
		c-16.335,0-29.576,13.241-29.576,29.575S54.694,89.42,71.029,89.42c16.334,0,29.575-13.242,29.575-29.576
		S87.363,30.269,71.029,30.269"/>
	<line fill="none" stroke="#FFFFFF" stroke-width="8" stroke-miterlimit="10" x1="25.521" y1="116.411" x2="25.521" y2="137.532"/>
	<line fill="none" stroke="#FFFFFF" stroke-width="8" stroke-miterlimit="10" x1="94.166" y1="116.411" x2="94.166" y2="137.532"/>
	<line fill="none" stroke="#FFFFFF" stroke-width="8" stroke-miterlimit="10" x1="97.328" y1="59.844" x2="118.861" y2="59.844"/>
</g>
</svg>
