<?xml version="1.0" encoding="utf-8"?>
<!-- Generator: Adobe Illustrator 16.0.0, SVG Export Plug-In . SVG Version: 6.00 Build 0)  -->
<!DOCTYPE svg PUBLIC "-//W3C//DTD SVG 1.1//EN" "http://www.w3.org/Graphics/SVG/1.1/DTD/svg11.dtd">
<svg version="1.1" xmlns="http://www.w3.org/2000/svg" xmlns:xlink="http://www.w3.org/1999/xlink" x="0px" y="0px"
	 width="105.867px" height="136.9px" viewBox="0 0 105.867 136.9" enable-background="new 0 0 105.867 136.9" xml:space="preserve">
<g id="Capa_1">
</g>
<g id="Modo_de_aislamiento">
	<path fill="#FFFFFF" d="M105.867,22.477H73.779L70.781,0H45.506H35.084l-2.997,22.477h-1.18H0v28.605h10.28V136.9h85.307V51.082
		h10.28V22.477z M42.239,8.173h3.267h18.121l1.906,14.304h-25.2L42.239,8.173z M87.414,128.727H18.453V51.082h16.732h52.229V128.727
		z M97.693,42.909h-2.106H35.185H10.28H8.173v-12.26h22.734h0.09h43.872h22.824V42.909z"/>
	<rect x="31.479" y="69.471" fill="#FFFFFF" width="8.173" height="42.909"/>
	<rect x="66.214" y="69.472" fill="#FFFFFF" width="8.173" height="42.909"/>
	<rect x="48.846" y="69.472" fill="#FFFFFF" width="8.173" height="42.909"/>
</g>
</svg>
