<?xml version="1.0" standalone="no"?>
<!DOCTYPE svg PUBLIC "-//W3C//DTD SVG 1.1//EN" "http://www.w3.org/Graphics/SVG/1.1/DTD/svg11.dtd" >
<svg xmlns="http://www.w3.org/2000/svg" xmlns:xlink="http://www.w3.org/1999/xlink" version="1.1">
<metadata>
Created by FontForge 20161116 at Mon Oct 21 17:44:24 2013
 By Jimmy Wärting
Copyright (c) 2013 by Nico Inosanto. All rights reserved.
</metadata>
<defs>
<font id="Radikal" horiz-adv-x="575" >
  <font-face 
    font-family="Radikal"
    font-weight="400"
    font-stretch="normal"
    units-per-em="1000"
    panose-1="0 0 0 0 0 0 0 0 0 0"
    ascent="750"
    descent="-250"
    x-height="502"
    cap-height="735"
    bbox="-162 -297 1240 1075"
    underline-thickness="50"
    underline-position="-100"
    unicode-range="U+0020-FB01"
  />
<missing-glyph horiz-adv-x="592" 
d="M63 699h466v-699h-466v699zM458 650h-326l163 -259zM480 595l-158 -249l158 -250v499zM295 300l-160 -250h318zM112 590v-489l154 245z" />
    <glyph glyph-name="fi" unicode="fi" horiz-adv-x="610" 
d="M281 760c37 0 66 -8 88 -21l-28 -82c-13 10 -30 16 -56 16c-49 0 -79 -38 -79 -93v-78h131v-84h-131v-418h-98v418h-90v84h90v75c0 105 67 183 173 183zM532 502v-502h-98v502h98zM484 728c36 0 64 -28 64 -64c0 -37 -28 -64 -64 -64c-37 0 -64 27 -64 64
c0 36 27 64 64 64z" />
    <glyph glyph-name="f_j" unicode="fj" horiz-adv-x="610" 
d="M281 760c37 0 66 -8 88 -21l-28 -82c-13 10 -30 16 -56 16c-49 0 -79 -38 -79 -93v-78h131v-84h-131v-418h-98v418h-90v84h90v75c0 105 67 183 173 183zM532 502v-559c0 -105 -77 -183 -185 -183c-64 0 -114 23 -152 62l64 66c20 -22 48 -41 86 -41c53 0 89 36 89 89v566
h98zM484 728c36 0 64 -28 64 -64c0 -37 -28 -64 -64 -64c-37 0 -64 27 -64 64c0 36 27 64 64 64z" />
    <glyph glyph-name=".notdef" horiz-adv-x="592" 
d="M63 699h466v-699h-466v699zM458 650h-326l163 -259zM480 595l-158 -249l158 -250v499zM295 300l-160 -250h318zM112 590v-489l154 245z" />
    <glyph glyph-name=".null" horiz-adv-x="0" 
 />
    <glyph glyph-name="CR" horiz-adv-x="250" 
 />
    <glyph glyph-name="space" unicode=" " horiz-adv-x="236" 
 />
    <glyph glyph-name="q" unicode="q" horiz-adv-x="593" 
d="M262 512c79 0 132 -33 161 -71l4 61h89v-732h-98v284c-30 -35 -81 -64 -156 -64c-138 0 -232 110 -232 261s94 261 232 261zM280 425c-88 0 -151 -70 -151 -174s63 -174 151 -174c67 0 108 36 138 85v178c-30 49 -71 85 -138 85z" />
    <glyph glyph-name="r" unicode="r" horiz-adv-x="334" 
d="M320 512v-98h-9c-62 0 -102 -35 -136 -84v-330h-98v502h89l5 -68c25 40 75 78 149 78z" />
    <glyph glyph-name="a" unicode="a" horiz-adv-x="593" 
d="M262 512c79 0 132 -33 161 -71l4 61h89v-502h-89l-4 61c-29 -38 -82 -71 -161 -71c-138 0 -232 110 -232 261s94 261 232 261zM280 425c-88 0 -151 -70 -151 -174s63 -174 151 -174c67 0 108 36 138 85v178c-30 49 -71 85 -138 85z" />
    <glyph glyph-name="b" unicode="b" horiz-adv-x="593" 
d="M175 760v-312c30 35 81 64 156 64c138 0 232 -110 232 -261s-94 -261 -232 -261c-79 0 -132 33 -161 71l-4 -61h-89v760h98zM313 425c-67 0 -108 -36 -138 -85v-178c30 -49 71 -85 138 -85c88 0 151 70 151 174s-63 174 -151 174z" />
    <glyph glyph-name="d" unicode="d" horiz-adv-x="593" 
d="M516 760v-760h-89l-4 61c-29 -38 -82 -71 -161 -71c-138 0 -232 110 -232 261s94 261 232 261c75 0 126 -29 156 -64v312h98zM280 425c-88 0 -151 -70 -151 -174s63 -174 151 -174c67 0 108 36 138 85v178c-30 49 -71 85 -138 85z" />
    <glyph glyph-name="c" unicode="c" horiz-adv-x="506" 
d="M283 512c90 0 156 -40 201 -108l-73 -56c-25 41 -66 78 -127 78c-102 0 -155 -75 -155 -175c0 -99 55 -175 156 -175c61 0 104 37 129 78l73 -56c-45 -68 -113 -108 -202 -108c-156 0 -255 110 -255 261s98 261 253 261z" />
    <glyph glyph-name="e" unicode="e" horiz-adv-x="530" 
d="M270 512c150 0 227 -116 227 -257v-39h-368c3 -92 57 -142 152 -142c66 0 111 29 136 64l68 -57c-48 -59 -113 -91 -204 -91c-155 0 -251 109 -251 260s99 262 240 262zM270 428c-81 0 -136 -52 -141 -132h271c-3 79 -49 132 -130 132z" />
    <glyph glyph-name="l" unicode="l" horiz-adv-x="253" 
d="M175 760v-760h-98v760h98z" />
    <glyph glyph-name="f" unicode="f" horiz-adv-x="358" 
d="M281 760c46 0 83 -13 110 -35l-38 -78c-16 16 -38 26 -67 26c-50 0 -80 -38 -80 -93v-78h131v-84h-131v-418h-98v418h-90v84h90v73c0 107 66 185 173 185z" />
    <glyph glyph-name="g" unicode="g" horiz-adv-x="594" 
d="M262 512c79 0 132 -33 161 -71l4 61h89v-489c0 -157 -102 -253 -257 -253c-104 0 -178 42 -231 105l65 64c40 -48 92 -82 165 -82c98 0 160 65 160 164v43c-30 -35 -81 -64 -156 -64c-138 0 -232 110 -232 261s94 261 232 261zM280 425c-88 0 -151 -70 -151 -174
s63 -174 151 -174c67 0 108 36 138 85v178c-30 49 -71 85 -138 85z" />
    <glyph glyph-name="h" unicode="h" horiz-adv-x="583" 
d="M175 760v-313c35 38 78 65 154 65c121 0 190 -86 190 -215v-297h-98v291c0 76 -45 128 -116 128c-59 0 -99 -36 -130 -80v-339h-98v760h98z" />
    <glyph glyph-name="i" unicode="i" horiz-adv-x="253" 
d="M175 502v-502h-98v502h98zM127 728c36 0 64 -28 64 -64c0 -37 -28 -64 -64 -64c-37 0 -64 27 -64 64c0 36 27 64 64 64z" />
    <glyph glyph-name="j" unicode="j" horiz-adv-x="253" 
d="M175 502v-559c0 -105 -77 -183 -185 -183c-64 0 -114 23 -152 62l64 66c20 -22 48 -41 86 -41c53 0 89 36 89 89v566h98zM127 728c36 0 64 -28 64 -64c0 -37 -28 -64 -64 -64c-37 0 -64 27 -64 64c0 36 27 64 64 64z" />
    <glyph glyph-name="k" unicode="k" horiz-adv-x="541" 
d="M175 760v-580l217 322h117l-154 -220l179 -282h-115l-126 201l-137 -201h-79v760h98z" />
    <glyph glyph-name="s" unicode="s" horiz-adv-x="457" 
d="M239 512c67 0 128 -23 167 -55l-42 -76c-31 24 -71 44 -125 44c-56 0 -92 -17 -92 -58s29 -51 105 -69c117 -28 170 -76 170 -152c0 -95 -78 -156 -201 -156c-76 0 -146 24 -191 61l45 78c37 -32 87 -52 147 -52s101 20 101 63c0 41 -30 56 -107 74
c-117 27 -167 68 -167 147c0 95 73 151 190 151z" />
    <glyph glyph-name="u" unicode="u" 
d="M498 502v-502h-89l-4 61c-30 -38 -80 -71 -161 -71c-115 0 -179 85 -179 213v299h98v-294c0 -74 40 -125 106 -125c63 0 100 37 131 80v339h98z" />
    <glyph glyph-name="t" unicode="t" horiz-adv-x="398" 
d="M208 672v-170h158v-84h-158v-249c0 -58 35 -90 86 -90c34 0 57 7 72 16l28 -77c-24 -15 -59 -28 -108 -28c-107 0 -176 62 -176 178v250h-98v84h98v170h98z" />
    <glyph glyph-name="v" unicode="v" horiz-adv-x="542" 
d="M531 502l-258 -512h-4l-259 512h110l151 -306l151 306h109z" />
    <glyph glyph-name="w" unicode="w" horiz-adv-x="764" 
d="M753 502l-223 -512h-4l-144 298l-145 -298h-4l-223 512h110l122 -291l138 291h4l138 -291l122 291h109z" />
    <glyph glyph-name="x" unicode="x" horiz-adv-x="500" 
d="M479 502l-164 -247l171 -255h-116l-122 183l-121 -183h-116l171 255l-164 247h115l115 -177l116 177h115z" />
    <glyph glyph-name="y" unicode="y" horiz-adv-x="552" 
d="M537 502l-367 -732h-112l165 312l-207 420h109l151 -310l151 310h110z" />
    <glyph glyph-name="z" unicode="z" horiz-adv-x="453" 
d="M429 502v-4l-250 -414h249v-84h-405v4l249 414h-234v84h391z" />
    <glyph glyph-name="p" unicode="p" horiz-adv-x="593" 
d="M331 512c138 0 232 -110 232 -261s-94 -261 -232 -261c-75 0 -126 29 -156 64v-284h-98v732h89l4 -61c29 38 82 71 161 71zM313 425c-67 0 -108 -36 -138 -85v-178c30 -49 71 -85 138 -85c88 0 151 70 151 174s-63 174 -151 174z" />
    <glyph glyph-name="L" unicode="L" horiz-adv-x="544" 
d="M184 735v-644h350v-91h-452v735h102z" />
    <glyph glyph-name="N" unicode="N" horiz-adv-x="729" 
d="M647 735v-748h-4l-459 507v-494h-102v748h4l459 -506v493h102z" />
    <glyph glyph-name="O" unicode="O" horiz-adv-x="806" 
d="M403 748c213 0 371 -162 371 -381c0 -220 -158 -380 -371 -380c-214 0 -370 160 -370 380c0 219 156 381 370 381zM403 654c-156 0 -267 -121 -267 -287s111 -286 267 -286s267 120 267 286s-111 287 -267 287z" />
    <glyph glyph-name="E" unicode="E" horiz-adv-x="577" 
d="M537 735v-94h-353v-223h310v-91h-310v-233h361v-94h-463v735h455z" />
    <glyph glyph-name="F" unicode="F" horiz-adv-x="539" 
d="M522 735v-94h-338v-233h286v-92h-286v-316h-102v735h440z" />
    <glyph glyph-name="D" unicode="D" horiz-adv-x="732" 
d="M304 735c248 0 395 -135 395 -367s-145 -368 -395 -368h-222v735h222zM301 640h-117v-546h117c191 0 295 101 295 274c0 172 -106 272 -295 272z" />
    <glyph glyph-name="C" unicode="C" horiz-adv-x="680" 
d="M403 748c110 0 192 -38 260 -107l-65 -74c-47 51 -113 87 -195 87c-159 0 -267 -121 -267 -287c0 -165 108 -286 267 -286c85 0 153 38 200 92l64 -76c-69 -75 -158 -110 -264 -110c-216 0 -370 162 -370 380c0 219 154 381 370 381z" />
    <glyph glyph-name="H" unicode="H" horiz-adv-x="733" 
d="M651 735v-735h-102v329h-365v-329h-102v735h102v-312h365v312h102z" />
    <glyph glyph-name="B" unicode="B" horiz-adv-x="663" 
d="M342 735c150 0 229 -75 229 -194c0 -81 -45 -131 -87 -152c83 -22 148 -75 148 -183c0 -131 -100 -206 -241 -206h-309v735h260zM369 329h-186v-236h197c92 0 149 41 149 118c0 76 -53 118 -160 118zM330 642h-147v-222h156c82 0 130 47 130 111c0 69 -47 111 -139 111z
" />
    <glyph glyph-name="A" unicode="A" horiz-adv-x="698" 
d="M349 523l-127 -284h254zM351 748l338 -748h-109l-66 150h-330l-66 -150h-109l338 748h4z" />
    <glyph glyph-name="G" unicode="G" horiz-adv-x="740" 
d="M403 748c110 0 192 -38 260 -107l-65 -74c-47 51 -113 87 -195 87c-159 0 -267 -121 -267 -287c0 -165 112 -286 277 -286c66 0 122 20 166 52v165h-187v89h289v-304c-68 -63 -160 -96 -268 -96c-222 0 -380 162 -380 380c0 219 154 381 370 381z" />
    <glyph glyph-name="I" unicode="I" horiz-adv-x="266" 
d="M184 735v-735h-102v735h102z" />
    <glyph glyph-name="J" unicode="J" horiz-adv-x="540" 
d="M469 735v-525c0 -136 -91 -223 -223 -223c-121 0 -226 84 -226 239h100c0 -92 48 -145 123 -145c77 0 124 50 124 134v520h102z" />
    <glyph glyph-name="K" unicode="K" horiz-adv-x="667" 
d="M605 735l-211 -354l264 -381h-123l-199 289l-175 -289h-79v735h102v-529l301 529h120z" />
    <glyph glyph-name="M" unicode="M" horiz-adv-x="873" 
d="M790 748v-748h-102v405l-248 -411h-7l-249 411v-405h-102v748h4l350 -571l350 571h4z" />
    <glyph glyph-name="P" unicode="P" horiz-adv-x="618" 
d="M337 735c145 0 256 -82 256 -233c0 -149 -110 -232 -256 -232h-153v-270h-102v735h255zM328 645h-144v-285h144c98 0 161 49 161 142s-64 143 -161 143z" />
    <glyph glyph-name="R" unicode="R" horiz-adv-x="632" 
d="M324 735c146 0 259 -81 259 -228c0 -107 -60 -179 -149 -211l184 -296h-120l-172 279h-144v-279h-102v735h244zM315 645h-133v-276h133c100 0 165 47 165 138c0 90 -66 138 -165 138z" />
    <glyph glyph-name="S" unicode="S" horiz-adv-x="585" 
d="M285 748c99 0 181 -32 239 -78l-54 -84c-47 39 -109 68 -186 68c-80 0 -138 -36 -138 -115c0 -65 42 -90 166 -116c179 -39 245 -100 245 -213c0 -133 -101 -223 -262 -223c-109 0 -200 34 -269 94l57 85c52 -52 135 -85 215 -85c92 0 157 42 157 121
c0 64 -48 96 -172 122c-179 39 -239 101 -239 211c0 129 96 213 241 213z" />
    <glyph glyph-name="T" unicode="T" horiz-adv-x="649" 
d="M633 735v-91h-258v-644h-102v644h-257v91h617z" />
    <glyph glyph-name="U" unicode="U" horiz-adv-x="689" 
d="M616 735v-476c0 -165 -93 -272 -271 -272c-179 0 -272 107 -272 272v476h102v-470c0 -111 57 -184 170 -184c111 0 169 73 169 184v470h102z" />
    <glyph glyph-name="V" unicode="V" horiz-adv-x="715" 
d="M705 735l-345 -747h-4l-346 747h111l237 -522l237 522h110z" />
    <glyph glyph-name="W" unicode="W" horiz-adv-x="978" 
d="M968 735l-288 -747h-4l-187 479l-187 -479h-4l-288 747h113l177 -478l187 478h4l187 -478l177 478h113z" />
    <glyph glyph-name="X" unicode="X" horiz-adv-x="670" 
d="M646 735l-240 -361l250 -374h-118l-203 298l-203 -298h-118l250 374l-240 361h119l192 -285l192 285h119z" />
    <glyph glyph-name="Y" unicode="Y" horiz-adv-x="660" 
d="M653 734l-272 -423v-311h-102v309l-272 425h119l204 -322l203 322h120z" />
    <glyph glyph-name="Z" unicode="Z" horiz-adv-x="580" 
d="M542 735v-4l-355 -638h366v-93h-528v4l358 638h-342v93h501z" />
    <glyph glyph-name="n" unicode="n" horiz-adv-x="583" 
d="M329 512c121 0 190 -86 190 -215v-297h-98v291c0 76 -45 128 -116 128c-59 0 -99 -36 -130 -80v-339h-98v502h89l4 -61c29 37 82 71 159 71z" />
    <glyph glyph-name="o" unicode="o" 
d="M287 512c149 0 258 -111 258 -262s-109 -260 -258 -260s-257 109 -257 260s108 262 257 262zM287 425c-92 0 -158 -74 -158 -175c0 -100 66 -173 158 -173s159 73 159 173c0 101 -67 175 -159 175z" />
    <glyph glyph-name="m" unicode="m" horiz-adv-x="908" 
d="M662 512c115 0 182 -86 182 -215v-297h-99v291c0 76 -42 128 -109 128c-57 0 -97 -37 -129 -83c1 -11 2 -21 2 -31v-305h-98v291c0 76 -42 128 -109 128c-57 0 -95 -36 -127 -79v-340h-98v502h89l4 -61c29 37 81 71 157 71c73 0 126 -34 155 -92c38 53 97 92 180 92z" />
    <glyph glyph-name="Q" unicode="Q" horiz-adv-x="806" 
d="M403 748c213 0 371 -162 371 -381c0 -117 -44 -217 -118 -285l151 -174h-125l-104 120c-51 -26 -111 -41 -175 -41c-214 0 -370 160 -370 380c0 219 156 381 370 381zM403 654c-156 0 -267 -121 -267 -287s111 -286 267 -286c40 0 77 8 110 22l-113 132l72 62l119 -139
c50 51 79 124 79 209c0 166 -111 287 -267 287z" />
    <glyph glyph-name="zero" unicode="0" horiz-adv-x="589" 
d="M295 748c164 0 257 -148 257 -380c0 -233 -93 -381 -257 -381c-165 0 -258 148 -258 381c0 232 93 380 258 380zM295 659c-106 0 -157 -115 -157 -291c0 -177 51 -292 157 -292c105 0 156 115 156 292c0 176 -51 291 -156 291z" />
    <glyph glyph-name="one" unicode="1" horiz-adv-x="374" 
d="M294 748v-748h-99v565l-131 -77l-44 87l270 173h4z" />
    <glyph glyph-name="two" unicode="2" horiz-adv-x="530" 
d="M264 748c133 0 224 -90 224 -219c0 -91 -29 -153 -88 -228l-164 -211h261v-90h-451v6l272 348c53 67 70 110 70 177c0 80 -53 127 -124 127c-74 0 -115 -40 -131 -123l-90 21c25 126 100 192 221 192z" />
    <glyph glyph-name="three" unicode="3" horiz-adv-x="524" 
d="M264 748c128 0 216 -87 216 -209c0 -82 -42 -130 -99 -156c74 -28 122 -88 122 -173c0 -133 -91 -223 -231 -223c-130 0 -202 67 -238 182l90 24c23 -71 64 -116 148 -116c78 0 132 52 132 133c0 74 -59 129 -143 129h-80v87h82c61 0 118 38 118 114
c0 73 -50 118 -118 118c-67 0 -109 -39 -130 -105l-87 37c33 93 102 158 218 158z" />
    <glyph glyph-name="five" unicode="5" horiz-adv-x="538" 
d="M463 735v-90h-285v-212c24 12 56 22 97 22c136 0 234 -88 234 -236c0 -131 -89 -232 -233 -232c-124 0 -197 58 -235 159l85 40c22 -68 65 -109 144 -109c82 0 139 62 139 146c0 85 -56 142 -138 142c-59 0 -100 -21 -130 -45l-63 30v385h385z" />
    <glyph glyph-name="six" unicode="6" horiz-adv-x="547" 
d="M272 471c133 0 242 -102 242 -243s-109 -241 -242 -241c-132 0 -240 100 -240 241c0 60 19 113 52 154l231 353h112l-173 -265c6 1 12 1 18 1zM272 382c-78 0 -139 -63 -139 -154c0 -90 61 -152 139 -152c79 0 142 62 142 152c0 91 -63 154 -142 154z" />
    <glyph glyph-name="nine" unicode="9" horiz-adv-x="547" 
d="M274 748c132 0 240 -100 240 -241c0 -55 -16 -104 -44 -143l-238 -364h-113l173 264h-18c-133 0 -242 102 -242 243s109 241 242 241zM274 659c-79 0 -141 -62 -141 -152c0 -91 62 -154 141 -154c78 0 140 63 140 154c0 90 -62 152 -140 152z" />
    <glyph glyph-name="four" unicode="4" horiz-adv-x="557" 
d="M437 741v-513h99v-90h-99v-138h-99v138h-331v4l425 599h5zM339 457l-163 -230h163v230z" />
    <glyph glyph-name="seven" unicode="7" horiz-adv-x="538" 
d="M524 735v-6l-370 -729h-108l331 644h-350v91h497z" />
    <glyph glyph-name="eight" unicode="8" horiz-adv-x="547" 
d="M270 748c115 0 210 -82 210 -198c0 -71 -37 -129 -91 -160c72 -34 123 -101 123 -182c0 -129 -110 -221 -242 -221s-241 92 -241 221c0 81 49 149 121 181c-54 31 -90 89 -90 161c0 116 95 198 210 198zM270 339c-78 0 -140 -57 -140 -133c0 -75 62 -131 140 -131
s141 56 141 131c0 76 -63 133 -141 133zM270 660c-65 0 -117 -49 -117 -114c0 -69 52 -119 117 -119s117 50 117 119c0 65 -52 114 -117 114z" />
    <glyph glyph-name="ampersand" unicode="&#x26;" horiz-adv-x="686" 
d="M288 748c106 0 175 -65 175 -159c0 -88 -65 -132 -140 -181l16 -18l140 -156l91 111h116l-145 -180l149 -165h-127l-83 93c-58 -59 -127 -103 -224 -103c-123 0 -227 74 -227 203c0 103 57 154 163 222c-44 52 -78 106 -78 172c0 96 68 161 174 161zM272 328
c-9 9 -17 19 -26 29c-74 -50 -117 -86 -117 -158c0 -76 58 -122 132 -122c66 0 116 39 158 85zM207 583c0 -44 26 -81 61 -119c69 43 102 70 102 121s-32 81 -81 81s-82 -30 -82 -83z" />
    <glyph glyph-name="germandbls" unicode="&#xdf;" horiz-adv-x="647" 
d="M314 748c130 0 217 -86 217 -203c0 -74 -40 -121 -91 -144c64 -18 140 -74 140 -192c0 -132 -89 -222 -234 -222c-42 0 -76 8 -105 24l21 88c23 -13 43 -22 81 -22c75 0 133 48 133 133c0 64 -36 109 -99 127c-31 9 -52 12 -85 12v75c30 0 48 6 72 17c35 16 64 47 64 97
c0 76 -55 121 -118 121c-75 0 -125 -42 -125 -133v-526h-100v521c0 143 102 227 229 227z" />
    <glyph glyph-name="section" unicode="&#xa7;" horiz-adv-x="429" 
d="M216 421c-57 0 -96 -39 -96 -94s39 -93 96 -93c56 0 97 38 97 93s-41 94 -97 94zM230 748c62 0 111 -22 146 -58l-55 -61c-22 23 -51 38 -91 38c-57 0 -94 -31 -94 -79c0 -41 23 -65 66 -79c23 -8 47 -9 73 -17c75 -22 125 -87 125 -165c0 -64 -34 -116 -86 -141
c45 -23 71 -59 71 -113c0 -92 -77 -167 -195 -167c-65 0 -123 23 -163 70l59 60c24 -29 58 -49 105 -49c61 0 102 33 102 85c0 36 -20 57 -59 72c-21 8 -41 9 -63 14c-83 18 -139 84 -139 169c0 63 33 115 86 140c-47 24 -74 63 -74 120c0 88 71 161 186 161z" />
    <glyph glyph-name="paragraph" unicode="&#xb6;" horiz-adv-x="701" 
d="M665 735v-78h-89v-767h-84v767h-108v-767h-84v416h-3c-149 0 -272 65 -272 210c0 147 115 219 273 219h367z" />
    <glyph glyph-name="at" unicode="@" horiz-adv-x="859" 
d="M429 637c236 0 399 -160 399 -390c0 -133 -62 -224 -171 -224c-56 0 -88 26 -102 60l-2 5c-27 -34 -74 -65 -145 -65c-112 0 -190 92 -190 217c0 126 78 218 190 218c71 0 113 -25 138 -57l3 49h76v-310c0 -28 13 -44 41 -44c53 0 83 62 83 151c0 183 -128 315 -320 315
c-188 0 -319 -136 -319 -320c0 -186 129 -319 314 -319c47 0 89 8 129 24l23 -71c-45 -18 -98 -28 -152 -28c-231 0 -393 163 -393 394c0 229 164 395 398 395zM427 385c-73 0 -125 -58 -125 -145s52 -144 125 -144c56 0 90 29 115 65v159c-24 33 -59 65 -115 65z" />
    <glyph glyph-name="endash" unicode="&#x2013;" horiz-adv-x="556" 
d="M515 304v-91h-475v91h475z" />
    <glyph glyph-name="emdash" unicode="&#x2014;" horiz-adv-x="800" 
d="M760 304v-91h-720v91h720z" />
    <glyph glyph-name="hyphen" unicode="-" horiz-adv-x="437" 
d="M396 304v-91h-356v91h356z" />
    <glyph glyph-name="period" unicode="." horiz-adv-x="214" 
d="M107 128c40 0 69 -28 69 -69c0 -40 -29 -69 -69 -69s-69 29 -69 69s29 69 69 69z" />
    <glyph glyph-name="quoteright" unicode="&#x2019;" horiz-adv-x="185" 
d="M75 752c40 0 69 -29 69 -69c0 -16 -5 -29 -12 -41l-78 -159h-4v265c8 3 16 4 25 4z" />
    <glyph glyph-name="quoteleft" unicode="&#x2018;" horiz-adv-x="185" 
d="M134 778v-264c-8 -3 -15 -5 -24 -5c-40 0 -70 30 -70 70c0 16 6 29 13 40l77 159h4z" />
    <glyph glyph-name="quotesingle" unicode="'" horiz-adv-x="159" 
d="M50 750l92 -17l-44 -263h-39z" />
    <glyph glyph-name="quotedblright" unicode="&#x201d;" horiz-adv-x="363" 
d="M75 752c40 0 69 -29 69 -69c0 -16 -5 -29 -12 -41l-78 -159h-4v265c8 3 16 4 25 4zM253 752c40 0 69 -29 69 -69c0 -16 -5 -29 -12 -41l-78 -159h-4v265c8 3 16 4 25 4z" />
    <glyph glyph-name="quotedblleft" unicode="&#x201c;" horiz-adv-x="363" 
d="M134 778v-264c-8 -3 -15 -5 -24 -5c-40 0 -70 30 -70 70c0 16 6 29 13 40l77 159h4zM312 778v-264c-8 -3 -15 -5 -24 -5c-40 0 -70 30 -70 70c0 16 6 29 13 40l77 159h4z" />
    <glyph glyph-name="dollar" unicode="$" horiz-adv-x="581" 
d="M340 869v-124c74 -10 137 -38 184 -75l-54 -84c-47 39 -109 68 -186 68c-80 0 -138 -36 -138 -115c0 -65 42 -90 166 -116c179 -39 245 -100 245 -213c0 -120 -83 -205 -217 -220v-119h-83v118c-92 7 -170 39 -231 92l57 85c52 -52 135 -85 215 -85c92 0 157 42 157 121
c0 64 -48 96 -172 122c-179 39 -239 101 -239 211c0 120 83 202 213 212v122h83z" />
    <glyph glyph-name="minus" unicode="&#x2212;" horiz-adv-x="486" 
d="M446 395v-90h-407v90h407z" />
    <glyph glyph-name="plus" unicode="+" horiz-adv-x="486" 
d="M287 553v-158h159v-90h-159v-159h-90v159h-158v90h158v158h90z" />
    <glyph glyph-name="multiply" unicode="&#xd7;" horiz-adv-x="455" 
d="M347 533l64 -63l-120 -120l120 -120l-64 -64l-119 120l-120 -120l-64 64l120 120l-120 119l64 64l120 -119z" />
    <glyph glyph-name="parenleft" unicode="(" horiz-adv-x="291" 
d="M197 697l74 -54c-64 -77 -131 -181 -131 -354s67 -277 131 -354l-74 -54c-70 84 -150 212 -150 408s80 323 150 408z" />
    <glyph glyph-name="parenright" unicode=")" horiz-adv-x="291" 
d="M94 697c71 -85 150 -212 150 -408s-79 -324 -150 -408l-74 54c65 77 131 181 131 354s-66 277 -131 354z" />
    <glyph glyph-name="asterisk" unicode="*" horiz-adv-x="412" 
d="M242 734l-4 -133l125 45l23 -67l-128 -38l81 -105l-58 -41l-74 105l-75 -105l-57 41l81 105l-129 38l22 67l126 -45l-4 133h71z" />
    <glyph glyph-name="slash" unicode="/" horiz-adv-x="474" 
d="M469 734l-363 -734h-101l365 734h99z" />
    <glyph glyph-name="percent" unicode="%" horiz-adv-x="872" 
d="M724 735l-479 -735h-97l479 735h97zM208 748c102 0 178 -79 178 -186c0 -106 -76 -183 -178 -183c-104 0 -179 77 -179 183c0 107 75 186 179 186zM208 675c-60 0 -103 -47 -103 -113c0 -64 43 -111 103 -111c59 0 102 47 102 111c0 66 -43 113 -102 113zM665 356
c103 0 179 -78 179 -185s-76 -183 -179 -183c-104 0 -179 76 -179 183s75 185 179 185zM665 284c-60 0 -103 -48 -103 -113c0 -64 43 -111 103 -111c59 0 103 47 103 111c0 65 -44 113 -103 113z" />
    <glyph glyph-name="Euro" unicode="&#x20ac;" horiz-adv-x="659" 
d="M426 315v-67h-211c28 -108 97 -172 191 -172c79 0 126 35 162 75l61 -71c-53 -56 -121 -94 -223 -94c-151 0 -262 98 -297 262h-74v67h64c-2 17 -2 34 -2 52c0 19 1 37 2 55h-64v67h74c36 162 145 259 295 259c105 0 171 -39 221 -93l-61 -71c-33 39 -79 74 -160 74
c-93 0 -161 -63 -189 -169h211v-67h-223c-1 -18 -2 -36 -2 -55c0 -18 1 -36 2 -52h223z" />
    <glyph glyph-name="question" unicode="?" horiz-adv-x="491" 
d="M238 748c128 0 216 -86 216 -201c0 -172 -166 -173 -166 -293v-49h-99v61c0 149 162 155 162 280c0 72 -50 112 -114 112c-68 0 -107 -37 -120 -104l-97 17c24 111 95 177 218 177zM239 115c37 0 64 -28 64 -64c0 -37 -27 -64 -64 -64s-64 27 -64 64c0 36 27 64 64 64z
" />
    <glyph glyph-name="sterling" unicode="&#xa3;" horiz-adv-x="580" 
d="M290 748c114 0 182 -76 206 -149l-95 -28c-15 52 -54 89 -114 89c-79 0 -118 -56 -118 -139c0 -38 9 -76 18 -112h179v-79h-160c5 -24 8 -43 8 -65c0 -73 -24 -130 -51 -177h179c71 0 105 30 105 111h97c0 -128 -58 -199 -184 -199h-344v4c48 80 122 187 90 326h-84v79
h65c-9 33 -16 66 -16 105c0 146 85 234 219 234z" />
    <glyph glyph-name="braceleft" unicode="{" horiz-adv-x="335" 
d="M310 699v-80c-69 0 -125 -38 -108 -135l9 -65c18 -71 -13 -113 -57 -130c44 -17 75 -59 57 -130l-9 -65c-17 -97 39 -135 108 -135v-80c-145 0 -240 79 -200 233l9 63c16 63 -31 98 -93 112v4c62 14 109 49 93 112l-9 63c-40 154 55 233 200 233z" />
    <glyph glyph-name="braceright" unicode="}" horiz-adv-x="335" 
d="M25 699c145 0 241 -79 201 -233l-10 -63c-16 -63 31 -98 93 -112v-4c-62 -14 -109 -49 -93 -112l10 -63c40 -154 -56 -233 -201 -233v80c69 0 125 38 108 135l-9 65c-18 71 13 113 57 130c-44 17 -75 59 -57 130l9 65c17 97 -39 135 -108 135v80z" />
    <glyph glyph-name="bar" unicode="|" horiz-adv-x="236" 
d="M165 699v-820h-94v820h94z" />
    <glyph glyph-name="bracketleft" unicode="[" horiz-adv-x="308" 
d="M283 699v-80h-134v-660h134v-80h-228v820h228z" />
    <glyph glyph-name="fraction" unicode="&#x2044;" horiz-adv-x="207" 
d="M331 734l-364 -734h-91l364 734h91z" />
    <glyph glyph-name="florin" unicode="&#x192;" horiz-adv-x="378" 
d="M312 754c46 0 83 -14 110 -36l-38 -78c-16 16 -37 27 -67 27c-49 0 -77 -37 -83 -95l-8 -70h112l-9 -84h-112l-54 -491c-11 -97 -76 -167 -176 -167c-46 0 -83 13 -110 35l38 78c16 -16 37 -26 67 -26c49 0 77 36 83 95l52 476h-75l9 84h76l9 84c11 97 75 168 176 168z
" />
    <glyph glyph-name="perthousand" unicode="&#x2030;" horiz-adv-x="1280" 
d="M718 735l-479 -735h-97l479 735h97zM202 748c102 0 178 -79 178 -186c0 -106 -76 -183 -178 -183c-104 0 -179 77 -179 183c0 107 75 186 179 186zM202 675c-60 0 -103 -47 -103 -113c0 -64 43 -111 103 -111c59 0 102 47 102 111c0 66 -43 113 -102 113zM659 356
c103 0 179 -78 179 -185s-76 -183 -179 -183c-104 0 -179 76 -179 183s75 185 179 185zM659 284c-60 0 -103 -48 -103 -113c0 -64 43 -111 103 -111c59 0 103 47 103 111c0 65 -44 113 -103 113zM1062 356c102 0 178 -78 178 -185s-76 -183 -178 -183
c-104 0 -179 76 -179 183s75 185 179 185zM1062 284c-60 0 -103 -48 -103 -113c0 -64 43 -111 103 -111c59 0 102 47 102 111c0 65 -43 113 -102 113z" />
    <glyph glyph-name="germandbls.cap" horiz-adv-x="660" 
d="M331 748c118 0 194 -50 253 -116l-129 -195c81 -25 172 -86 172 -219c0 -134 -99 -231 -247 -231c-65 0 -111 14 -141 32l36 86c30 -17 53 -24 105 -24c73 0 138 55 138 138c0 106 -96 149 -211 149l-2 5l155 238c-29 27 -75 42 -129 42c-95 0 -160 -58 -160 -162v-491
h-100v491c0 157 112 257 260 257z" />
    <glyph glyph-name="bracketright" unicode="]" horiz-adv-x="314" 
d="M259 699v-820h-234v80h139v660h-139v80h234z" />
    <glyph glyph-name="OE" unicode="&#x152;" horiz-adv-x="1161" 
d="M1126 735v-94h-353v-223h310v-91h-310v-233h361v-94h-463v113c-63 -78 -156 -126 -268 -126c-214 0 -370 160 -370 380c0 219 156 381 370 381c112 0 205 -49 268 -127v114h455zM403 654c-156 0 -267 -121 -267 -287s111 -286 267 -286s267 120 267 286
s-111 287 -267 287z" />
    <glyph glyph-name="cent" unicode="&#xa2;" horiz-adv-x="509" 
d="M325 639v-130c69 -11 121 -48 159 -105l-73 -56c-25 41 -66 78 -127 78c-102 0 -155 -75 -155 -175c0 -99 55 -175 156 -175c61 0 104 37 129 78l73 -56c-38 -58 -93 -95 -162 -105v-139h-83v139c-131 18 -212 121 -212 258s81 240 212 258v130h83z" />
    <glyph glyph-name="yen" unicode="&#xa5;" horiz-adv-x="658" 
d="M652 734l-233 -359h126v-74h-165v-84h165v-74h-165v-143h-102v143h-164v74h164v84h-164v74h124l-232 359h119l204 -322l203 322h120z" />
    <glyph glyph-name="backslash" unicode="\" horiz-adv-x="474" 
d="M105 734l364 -734h-100l-364 734h100z" />
    <glyph glyph-name="exclam" unicode="!" horiz-adv-x="262" 
d="M180 735v-530h-98v530h98zM131 115c37 0 65 -28 65 -64c0 -37 -28 -64 -65 -64c-36 0 -63 27 -63 64c0 36 27 64 63 64z" />
    <glyph glyph-name="brokenbar" unicode="&#xa6;" horiz-adv-x="236" 
d="M165 699v-308h-94v308h94zM165 187v-308h-94v308h94z" />
    <glyph glyph-name="quotedbl" unicode="&#x22;" horiz-adv-x="317" 
d="M50 750l92 -17l-44 -263h-39zM208 750l92 -17l-44 -263h-39z" />
    <glyph glyph-name="ae" unicode="&#xe6;" horiz-adv-x="944" 
d="M680 512c148 0 231 -110 231 -260v-36h-377c7 -90 52 -142 156 -142c62 0 111 26 141 64l68 -57c-49 -59 -121 -91 -206 -91c-87 0 -149 30 -179 71l-4 -61h-83l-4 61c-29 -38 -82 -71 -161 -71c-138 0 -232 110 -232 261s94 261 232 261c79 0 132 -33 161 -71l4 61h84
l4 -61c36 39 89 71 165 71zM676 428c-73 0 -135 -40 -143 -132h281c-4 78 -52 132 -138 132zM280 425c-88 0 -151 -70 -151 -174s63 -174 151 -174c67 0 108 36 138 85v178c-30 49 -71 85 -138 85z" />
    <glyph glyph-name="acute" unicode="&#xb4;" horiz-adv-x="295" 
d="M269 707l-155 -131h-99l138 131h116z" />
    <glyph glyph-name="grave" unicode="`" horiz-adv-x="295" 
d="M142 707l138 -131h-99l-155 131h116z" />
    <glyph glyph-name="circumflex" unicode="&#x2c6;" horiz-adv-x="350" 
d="M175 743l154 -167h-89l-65 65l-66 -65h-89z" />
    <glyph glyph-name="caron" unicode="&#x2c7;" horiz-adv-x="350" 
d="M329 737l-154 -167l-155 167h89l66 -65l65 65h89z" />
    <glyph glyph-name="tilde" unicode="&#x2dc;" horiz-adv-x="368" 
d="M122 717c85 0 83 -78 129 -78c22 0 32 29 32 72h64c0 -95 -45 -139 -102 -139c-87 0 -77 78 -126 78c-25 0 -34 -29 -34 -72h-65c0 98 46 139 102 139z" />
    <glyph glyph-name="dieresis" unicode="&#xa8;" horiz-adv-x="320" 
d="M74 695c32 0 55 -23 55 -54s-23 -54 -55 -54c-31 0 -54 23 -54 54s23 54 54 54zM245 695c31 0 55 -23 55 -54s-24 -54 -55 -54s-54 23 -54 54s23 54 54 54z" />
    <glyph glyph-name="thorn" unicode="&#xfe;" horiz-adv-x="592" 
d="M175 760v-312c30 35 81 64 156 64c138 0 232 -110 232 -261s-94 -261 -232 -261c-75 0 -126 29 -156 64v-284h-98v990h98zM313 425c-67 0 -108 -36 -138 -85v-178c30 -49 71 -85 138 -85c88 0 151 70 151 174s-63 174 -151 174z" />
    <glyph glyph-name="partialdiff" unicode="&#x2202;" horiz-adv-x="538" 
d="M251 748c215 0 254 -236 254 -428c0 -76 -4 -145 -34 -203c-41 -83 -114 -125 -201 -125c-135 0 -237 97 -237 236c0 140 99 237 231 237c79 0 123 -45 142 -72c-4 158 -52 262 -162 262c-62 0 -105 -32 -132 -74l-67 62c42 58 108 105 206 105zM271 373
c-79 0 -139 -61 -139 -145c0 -83 59 -143 139 -143c79 0 137 60 137 143c0 84 -58 145 -137 145z" />
    <glyph glyph-name="summation" unicode="&#x2211;" horiz-adv-x="610" 
d="M563 740v-98h-389l183 -259l-190 -285h408v-98h-540v67l208 314l-205 292v67h525z" />
    <glyph glyph-name="product" unicode="&#x220f;" horiz-adv-x="706" 
d="M671 740v-92h-126v-749h-91v749h-202v-749h-92v749h-125v92h636z" />
    <glyph glyph-name="pi" unicode="&#x3c0;" horiz-adv-x="711" 
d="M622 576l75 -45c-26 -71 -64 -119 -170 -119h-14l-33 -253c-6 -50 3 -71 38 -71c27 0 49 10 67 25l35 -69c-39 -30 -77 -49 -139 -49c-89 0 -102 60 -92 141l36 276h-115l-33 -247c-12 -85 -28 -127 -45 -165h-99c31 64 48 120 56 181l32 231h-27c-61 0 -98 -29 -128 -63
l-46 68c54 53 96 84 206 84h253c95 0 117 23 143 75z" />
    <glyph glyph-name="integral" unicode="&#x222b;" horiz-adv-x="434" 
d="M297 750c53 0 92 -13 115 -24l-19 -76c-18 9 -43 18 -74 18c-38 0 -61 -26 -61 -85v-603c0 -123 -44 -170 -131 -170c-54 0 -94 13 -117 24l19 76c18 -10 45 -18 76 -18c41 0 65 27 65 88v603c0 121 43 167 127 167z" />
    <glyph glyph-name="uni03A9" unicode="&#x3a9;" horiz-adv-x="858" 
d="M433 749c198 0 334 -146 334 -343c0 -152 -72 -244 -127 -300h182v-106h-337v101c97 70 172 167 172 301c0 141 -83 241 -224 241c-140 0 -224 -100 -224 -241c0 -134 75 -231 172 -301v-101h-336v106h182c-55 56 -127 148 -127 300c0 197 136 343 333 343z" />
    <glyph glyph-name="lozenge" unicode="&#x25ca;" horiz-adv-x="569" 
d="M321 738l222 -402l-222 -401h-61l-223 401l223 402h61zM291 597l-153 -261l153 -262l152 262z" />
    <glyph glyph-name="uni2206" unicode="&#x2206;" horiz-adv-x="721" 
d="M361 646l325 -646h-651zM361 469l-197 -392h393z" />
    <glyph glyph-name="afii61289" unicode="&#x2113;" horiz-adv-x="584" 
d="M332 750c95 0 156 -58 156 -152c0 -134 -111 -249 -224 -351v-81c0 -56 16 -93 78 -93c72 0 112 80 134 112l57 -45c-32 -54 -104 -151 -212 -151c-112 0 -144 66 -144 141v49c-25 -22 -66 -59 -88 -76l-47 68c37 31 96 82 131 115v290c0 115 47 174 159 174zM332 676
c-51 0 -75 -31 -75 -92v-240c77 72 150 161 150 250c0 48 -23 82 -75 82z" />
    <glyph glyph-name="Omega" unicode="&#x2126;" horiz-adv-x="858" 
d="M433 749c198 0 334 -146 334 -343c0 -152 -72 -244 -127 -300h182v-106h-337v101c97 70 172 167 172 301c0 141 -83 241 -224 241c-140 0 -224 -100 -224 -241c0 -134 75 -231 172 -301v-101h-336v106h182c-55 56 -127 148 -127 300c0 197 136 343 333 343z" />
    <glyph glyph-name="estimated" unicode="&#x212e;" horiz-adv-x="591" 
d="M308 508c-50 0 -100 -16 -127 -39c-24 -14 -32 -37 -32 -57v-106h299v109c0 32 -5 49 -28 62c-29 20 -64 31 -112 31zM308 536c140 0 248 -92 248 -258h-407v-165c0 -24 7 -44 31 -58c30 -22 70 -39 128 -39c92 0 167 44 222 127l23 -14c-54 -86 -138 -141 -245 -141
c-153 0 -273 110 -273 274c0 163 120 274 273 274z" />
    <glyph glyph-name="logicalnot" unicode="&#xac;" horiz-adv-x="582" 
d="M545 434v-278h-70v209h-438v69h508z" />
    <glyph glyph-name="radical" unicode="&#x221a;" horiz-adv-x="697" 
d="M585 695l82 -35l-296 -733l-173 334l-120 -71l-45 72l214 127l121 -247z" />
    <glyph glyph-name="infinity" unicode="&#x221e;" horiz-adv-x="749" 
d="M544 468c104 0 173 -81 173 -181c0 -101 -69 -182 -173 -182c-75 0 -128 53 -166 91l-19 20l-17 -20c-40 -41 -88 -76 -146 -76c-98 0 -157 74 -157 166s59 167 157 167c61 0 103 -36 145 -79l18 -20l13 16c48 52 96 98 172 98zM545 384c-49 0 -83 -38 -119 -80l-15 -19
l18 -20c30 -33 66 -76 116 -76c54 0 89 44 89 98s-35 97 -89 97zM194 372c-48 0 -77 -39 -77 -86s29 -85 77 -85c37 0 71 26 100 63l16 21l-17 20c-31 38 -61 67 -99 67z" />
    <glyph glyph-name="plusminus" unicode="&#xb1;" horiz-adv-x="486" 
d="M287 656v-157h159v-91h-159v-158h-90v158h-158v91h158v157h90zM446 177v-90h-407v90h407z" />
    <glyph glyph-name="divide" unicode="&#xf7;" horiz-adv-x="486" 
d="M242 604c37 0 63 -27 63 -64c0 -35 -26 -62 -63 -62c-36 0 -62 27 -62 62c0 37 26 64 62 64zM242 219c37 0 63 -26 63 -63c0 -36 -26 -63 -63 -63c-36 0 -62 27 -62 63s26 63 62 63zM446 395v-90h-407v90h407z" />
    <glyph glyph-name="currency" unicode="&#xa4;" horiz-adv-x="652" 
d="M552 555l63 -63l-121 -120c20 -31 31 -68 31 -109c0 -42 -11 -79 -31 -109l121 -120l-63 -63l-122 121c-29 -19 -64 -30 -104 -30s-75 11 -105 30l-121 -121l-63 63l121 120c-20 30 -32 67 -32 109c0 41 12 78 32 109l-121 120l63 63l121 -121c29 20 64 31 105 31
c40 0 75 -11 105 -31zM326 390c-68 0 -117 -55 -117 -127s49 -126 117 -126c67 0 116 54 116 126s-49 127 -116 127z" />
    <glyph glyph-name="mu" unicode="&#xb5;" horiz-adv-x="588" 
d="M510 502v-502h-89l-4 61c-30 -38 -80 -71 -151 -71c-44 0 -72 10 -91 23v-243h-98v732h98v-294c0 -74 40 -125 106 -125c63 0 100 37 131 80v339h98z" />
    <glyph glyph-name="equal" unicode="=" horiz-adv-x="486" 
d="M446 275v-90h-407v90h407zM446 514v-91h-407v91h407z" />
    <glyph glyph-name="notequal" unicode="&#x2260;" horiz-adv-x="486" 
d="M446 275v-90h-221l-36 -98h-86l36 98h-100v90h133l54 148h-187v91h221l44 118h86l-44 -118h100v-91h-134l-54 -148h188z" />
    <glyph glyph-name="copyright" unicode="&#xa9;" horiz-adv-x="670" 
d="M346 642c52 0 89 -17 120 -50l-40 -47c-19 21 -45 34 -80 34c-64 0 -105 -44 -105 -110c0 -68 41 -110 105 -110c35 0 63 14 81 35l40 -47c-32 -35 -72 -51 -121 -51c-99 0 -171 72 -171 173c0 99 72 173 171 173zM335 779c174 0 304 -135 304 -313
c0 -181 -130 -312 -304 -312c-176 0 -303 131 -303 312c0 178 127 313 303 313zM335 717c-138 0 -237 -109 -237 -251c0 -144 99 -251 237 -251c137 0 237 107 237 251c0 142 -100 251 -237 251z" />
    <glyph glyph-name="registered" unicode="&#xae;" horiz-adv-x="670" 
d="M335 779c174 0 304 -135 304 -313c0 -181 -130 -312 -304 -312c-176 0 -303 131 -303 312c0 178 127 313 303 313zM335 717c-138 0 -237 -109 -237 -251c0 -144 99 -251 237 -251c137 0 237 107 237 251c0 142 -100 251 -237 251zM215 638h125c66 0 122 -39 122 -109
c0 -48 -26 -83 -63 -100l79 -130h-76l-72 118h-49v-118h-66v339zM334 578h-53v-101h53c38 0 62 16 62 51c0 34 -24 50 -62 50z" />
    <glyph glyph-name="underscore" unicode="_" horiz-adv-x="800" 
d="M760 0v-90h-720v90h720z" />
    <glyph glyph-name="macron" unicode="&#xaf;" horiz-adv-x="300" 
d="M280 665v-68h-260v68h260z" />
    <glyph glyph-name="semicolon" unicode=";" horiz-adv-x="207" 
d="M82 122c40 0 69 -29 69 -69c0 -16 -5 -29 -12 -41l-78 -159h-4v265c8 3 16 4 25 4zM104 512c38 0 66 -28 66 -66s-28 -66 -66 -66s-66 28 -66 66s28 66 66 66z" />
    <glyph glyph-name="colon" unicode=":" horiz-adv-x="207" 
d="M104 122c38 0 66 -27 66 -66c0 -38 -28 -66 -66 -66s-66 28 -66 66s28 66 66 66zM104 512c38 0 66 -28 66 -66s-28 -66 -66 -66s-66 28 -66 66s28 66 66 66z" />
    <glyph glyph-name="ellipsis" unicode="&#x2026;" horiz-adv-x="674" 
d="M107 128c40 0 69 -28 69 -69c0 -40 -29 -69 -69 -69s-69 29 -69 69s29 69 69 69zM337 128c40 0 69 -28 69 -69c0 -40 -29 -69 -69 -69s-69 29 -69 69s29 69 69 69zM567 128c40 0 69 -28 69 -69c0 -40 -29 -69 -69 -69s-69 29 -69 69s29 69 69 69z" />
    <glyph glyph-name="hungarumlaut" unicode="&#x2dd;" horiz-adv-x="389" 
d="M241 715l-107 -144h-87l107 144h87zM409 715l-106 -144h-88l107 144h87z" />
    <glyph glyph-name="dotaccent" unicode="&#x2d9;" horiz-adv-x="168" 
d="M84 722c37 0 64 -27 64 -64s-27 -63 -64 -63s-64 26 -64 63s27 64 64 64z" />
    <glyph glyph-name="breve" unicode="&#x2d8;" horiz-adv-x="345" 
d="M325 724c0 -86 -65 -149 -152 -149s-153 63 -153 149h72c0 -46 33 -81 81 -81c47 0 80 35 80 81h72z" />
    <glyph glyph-name="ring" unicode="&#x2da;" horiz-adv-x="260" 
d="M130 787c62 0 109 -47 109 -109s-47 -107 -109 -107c-63 0 -110 45 -110 107s47 109 110 109zM130 731c-29 0 -52 -23 -52 -53s23 -51 52 -51s52 21 52 51s-23 53 -52 53z" />
    <glyph glyph-name="ogonek" unicode="&#x2db;" horiz-adv-x="230" 
d="M110 49l27 -49c-28 -11 -45 -33 -45 -64c0 -44 31 -67 69 -67c14 0 26 4 34 8l21 -57c-15 -7 -33 -10 -57 -10c-74 0 -133 44 -133 126c0 61 35 93 84 113z" />
    <glyph glyph-name="cedilla" unicode="&#xb8;" horiz-adv-x="245" 
d="M92 16l58 -4l-11 -68c55 -5 90 -38 90 -94c0 -61 -40 -102 -109 -102c-42 0 -77 15 -99 40l39 45c13 -15 33 -28 57 -28c26 0 44 14 44 42c0 25 -13 39 -41 42c-20 2 -34 -1 -48 -7l-3 4z" />
    <glyph glyph-name="ccedilla" unicode="&#xe7;" horiz-adv-x="506" 
d="M283 512c90 0 156 -40 201 -108l-73 -56c-25 41 -66 78 -127 78c-102 0 -155 -75 -155 -175c0 -99 55 -175 156 -175c61 0 104 37 129 78l73 -56c-44 -67 -111 -106 -198 -108l-7 -46c55 -5 90 -38 90 -94c0 -61 -40 -102 -109 -102c-42 0 -77 15 -99 40l39 45
c13 -15 33 -28 57 -28c26 0 44 14 44 42c0 25 -13 39 -41 42c-20 2 -34 -1 -48 -7l-3 4l19 109c-125 22 -201 123 -201 256c0 151 98 261 253 261z" />
    <glyph glyph-name="eng" unicode="&#x14b;" horiz-adv-x="583" 
d="M329 512c121 0 190 -86 190 -215v-354c0 -105 -80 -183 -188 -183v91c53 0 90 32 90 85v355c0 76 -45 128 -116 128c-59 0 -99 -36 -130 -80v-339h-98v502h89l4 -61c29 37 82 71 159 71z" />
    <glyph glyph-name="trademark" unicode="&#x2122;" horiz-adv-x="845" 
d="M354 735v-71h-129v-305h-74v305h-129v71h332zM807 742v-383h-73v170l-123 -173h-4l-122 173v-170h-73v383h2l195 -265l196 265h2z" />
    <glyph glyph-name="numbersign" unicode="#" horiz-adv-x="707" 
d="M593 735l-36 -201h132v-80h-146l-32 -179h131v-81h-144l-34 -194h-98l34 194h-168l-34 -194h-99l35 194h-133v81h147l32 179h-132v80h145l36 201h97l-35 -201h168l36 201h98zM446 454h-169l-31 -179h168z" />
    <glyph glyph-name="periodcentered" unicode="&#xb7;" horiz-adv-x="192" 
d="M96 322c38 0 66 -28 66 -66c0 -37 -28 -65 -66 -65s-66 28 -66 65c0 38 28 66 66 66z" />
    <glyph glyph-name="asciitilde" unicode="~" horiz-adv-x="588" 
d="M190 441c105 0 131 -87 208 -87c54 0 88 35 105 79l59 -45c-30 -75 -88 -125 -164 -125c-108 0 -123 87 -208 87c-54 0 -88 -34 -105 -79l-59 45c30 76 87 125 164 125z" />
    <glyph glyph-name="approxequal" unicode="&#x2248;" horiz-adv-x="588" 
d="M190 326c105 0 131 -87 208 -87c54 0 88 35 105 79l59 -45c-30 -75 -88 -125 -164 -125c-108 0 -123 88 -208 88c-54 0 -88 -35 -105 -79l-59 45c30 75 87 124 164 124zM190 548c105 0 131 -87 208 -87c54 0 88 35 105 79l59 -45c-30 -75 -88 -125 -164 -125
c-108 0 -123 87 -208 87c-54 0 -88 -34 -105 -79l-59 45c30 76 87 125 164 125z" />
    <glyph glyph-name="asciicircum" unicode="^" horiz-adv-x="533" 
d="M266 760l247 -298h-90l-157 189l-155 -189h-91z" />
    <glyph glyph-name="less" unicode="&#x3c;" horiz-adv-x="354" 
d="M334 538l-193 -192l193 -192h-124l-190 190v4l190 190h124z" />
    <glyph glyph-name="greater" unicode="&#x3e;" horiz-adv-x="354" 
d="M144 538l190 -190v-4l-190 -190h-124l192 192l-192 192h124z" />
    <glyph glyph-name="lessequal" unicode="&#x2264;" horiz-adv-x="354" 
d="M334 599l-189 -168l189 -167h-128l-186 165v4l186 166h128zM334 209v-90h-314v90h314z" />
    <glyph glyph-name="greaterequal" unicode="&#x2265;" horiz-adv-x="354" 
d="M148 599l186 -166v-4l-186 -165h-128l189 167l-189 168h128zM334 209v-90h-314v90h314z" />
    <glyph glyph-name="degree" unicode="&#xb0;" horiz-adv-x="343" 
d="M173 747c80 0 140 -60 140 -140c0 -81 -60 -139 -140 -139c-83 0 -143 58 -143 139c0 80 60 140 143 140zM173 683c-44 0 -75 -32 -75 -76c0 -43 31 -75 75 -75c41 0 73 32 73 75c0 44 -32 76 -73 76z" />
    <glyph glyph-name="endash_guilsinglright" horiz-adv-x="662" 
d="M332 539l289 -262l-289 -262l-47 57l184 164h-429v81h430l-185 165z" />
    <glyph glyph-name="emdash_guilsinglright" horiz-adv-x="987" 
d="M657 539l290 -262l-290 -262l-47 57l184 164h-754v81h755l-185 165z" />
    <glyph glyph-name="guilsinglleft_endash" horiz-adv-x="662" 
d="M331 539l46 -57l-185 -165h429v-81h-428l184 -164l-46 -57l-291 262z" />
    <glyph glyph-name="guilsinglleft_emdash" horiz-adv-x="987" 
d="M331 539l46 -57l-185 -165h755v-81h-754l184 -164l-46 -57l-291 262z" />
    <glyph glyph-name="guilsinglleft" unicode="&#x2039;" horiz-adv-x="348" 
d="M333 458l-202 -202l202 -202h-119l-199 200v4l199 200h119z" />
    <glyph glyph-name="guilsinglright" unicode="&#x203a;" horiz-adv-x="348" 
d="M134 458l199 -200v-4l-199 -200h-119l202 202l-202 202h119z" />
    <glyph glyph-name="dagger" unicode="&#x2020;" horiz-adv-x="492" 
d="M294 735v-178h169v-89h-169v-468h-97v468h-168v89h168v178h97z" />
    <glyph glyph-name="daggerdbl" unicode="&#x2021;" horiz-adv-x="492" 
d="M295 735v-178h169v-89h-169v-201h168v-89h-168v-178h-97v178h-169v89h169v201h-169v89h169v178h97z" />
    <glyph glyph-name="quotesinglbase" unicode="&#x201a;" horiz-adv-x="185" 
d="M75 120c40 0 69 -30 69 -70c0 -16 -5 -28 -12 -40l-78 -159h-4v264c8 3 16 5 25 5z" />
    <glyph glyph-name="quotedblbase" unicode="&#x201e;" horiz-adv-x="375" 
d="M75 120c40 0 69 -30 69 -70c0 -16 -5 -28 -12 -40l-78 -159h-4v264c8 3 16 5 25 5zM265 120c40 0 69 -30 69 -70c0 -16 -5 -28 -12 -40l-78 -159h-4v264c8 3 16 5 25 5z" />
    <glyph glyph-name="comma" unicode="," horiz-adv-x="185" 
d="M75 127c40 0 69 -30 69 -70c0 -16 -5 -29 -12 -40l-78 -159h-4v264c8 3 16 5 25 5z" />
    <glyph glyph-name="bullet" unicode="&#x2022;" horiz-adv-x="295" 
d="M147 370c65 0 112 -47 112 -112c0 -64 -47 -111 -112 -111c-64 0 -111 47 -111 111c0 65 47 112 111 112z" />
    <glyph glyph-name="guillemotleft" unicode="&#xab;" horiz-adv-x="489" 
d="M245 458l-135 -202l135 -202h-92l-138 200v4l138 200h92zM474 458l-136 -202l136 -202h-92l-138 200v4l138 200h92z" />
    <glyph glyph-name="guillemotright" unicode="&#xbb;" horiz-adv-x="489" 
d="M107 458l138 -200v-4l-138 -200h-92l136 202l-136 202h92zM336 458l138 -200v-4l-138 -200h-92l135 202l-135 202h92z" />
    <glyph glyph-name="at.cap" horiz-adv-x="859" 
d="M429 762c236 0 399 -160 399 -390c0 -133 -62 -224 -171 -224c-56 0 -88 26 -102 60l-2 5c-27 -34 -74 -65 -145 -65c-112 0 -190 92 -190 217c0 126 78 218 190 218c71 0 113 -25 138 -57l3 49h76v-310c0 -28 13 -44 41 -44c53 0 83 62 83 151c0 183 -128 315 -320 315
c-188 0 -319 -136 -319 -320c0 -186 129 -319 314 -319c47 0 89 8 129 24l23 -71c-45 -18 -98 -28 -152 -28c-231 0 -393 163 -393 394c0 229 164 395 398 395zM427 510c-73 0 -125 -58 -125 -145s52 -144 125 -144c56 0 90 29 115 65v159c-24 33 -59 65 -115 65z" />
    <glyph glyph-name="commaaccent" unicode="&#xf6c3;" horiz-adv-x="158" 
d="M59 -51c40 0 69 -29 69 -69c0 -16 -4 -29 -12 -40l-78 -137h-4v242c8 3 16 4 25 4z" />
    <glyph glyph-name="Thorn" unicode="&#xde;" horiz-adv-x="566" 
d="M184 735v-132h124c121 0 230 -75 230 -207c0 -133 -109 -207 -230 -207h-124v-189h-102v735h102zM299 513h-115v-235h115c74 0 136 42 136 118c0 75 -62 117 -136 117z" />
    <glyph glyph-name="grave.cap" horiz-adv-x="295" 
d="M147 887l133 -115h-108l-146 115h121z" />
    <glyph glyph-name="acute.cap" horiz-adv-x="295" 
d="M269 887l-146 -115h-108l133 115h121z" />
    <glyph glyph-name="circumflex.cap" horiz-adv-x="359" 
d="M179 916l159 -145h-91l-68 61l-68 -61h-91z" />
    <glyph glyph-name="caron.cap" horiz-adv-x="359" 
d="M338 907l-159 -144l-159 144h91l68 -60l68 60h91z" />
    <glyph glyph-name="tilde.cap" horiz-adv-x="368" 
d="M122 915c85 0 83 -78 129 -78c22 0 32 29 32 72h64c0 -95 -45 -139 -102 -139c-87 0 -77 78 -126 78c-25 0 -34 -29 -34 -72h-65c0 98 46 139 102 139z" />
    <glyph glyph-name="dieresis.cap" horiz-adv-x="320" 
d="M74 883c32 0 55 -23 55 -54s-23 -54 -55 -54c-31 0 -54 23 -54 54s23 54 54 54zM245 883c31 0 55 -23 55 -54s-24 -54 -55 -54s-54 23 -54 54s23 54 54 54z" />
    <glyph glyph-name="macron.cap" horiz-adv-x="300" 
d="M280 857v-69h-260v69h260z" />
    <glyph glyph-name="breve.cap" horiz-adv-x="345" 
d="M325 917c0 -84 -65 -145 -152 -145s-153 61 -153 145h71c0 -42 33 -78 82 -78s81 36 81 78h71z" />
    <glyph glyph-name="ring.cap" horiz-adv-x="260" 
d="M130 986c62 0 109 -46 109 -108c0 -63 -47 -108 -109 -108c-63 0 -110 45 -110 108c0 62 47 108 110 108zM130 931c-29 0 -52 -23 -52 -53c0 -31 23 -52 52 -52s52 21 52 52c0 30 -23 53 -52 53z" />
    <glyph glyph-name="hungarumlaut.cap" horiz-adv-x="389" 
d="M242 893l-98 -119h-85l96 119h87zM404 893l-98 -119h-85l96 119h87z" />
    <glyph glyph-name="dotaccent.cap" horiz-adv-x="160" 
d="M79 890c35 0 60 -25 60 -60c0 -34 -25 -59 -60 -59c-34 0 -59 25 -59 59c0 35 25 60 59 60z" />
    <glyph glyph-name="uogonek" unicode="&#x173;" 
d="M498 502v-502h-13c-28 -11 -45 -33 -45 -64c0 -44 31 -67 69 -67c14 0 26 4 34 8l21 -57c-15 -7 -33 -10 -57 -10c-74 0 -133 44 -133 126c0 37 13 63 34 82l-3 43c-30 -38 -80 -71 -161 -71c-115 0 -179 85 -179 213v299h98v-294c0 -74 40 -125 106 -125
c63 0 100 37 131 80v339h98z" />
    <glyph glyph-name="AE" unicode="&#xc6;" horiz-adv-x="870" 
d="M831 735v-94h-410l93 -225h274v-87h-238l98 -235h191v-94h-264l-64 155h-325l-63 -155h-114l319 735h503zM349 553l-130 -318h260z" />
    <glyph glyph-name="exclamdown" unicode="&#xa1;" horiz-adv-x="262" 
d="M83 -237v530h98v-530h-98zM132 383c-37 0 -65 28 -65 64c0 37 28 64 65 64c36 0 63 -27 63 -64c0 -36 -27 -64 -63 -64z" />
    <glyph glyph-name="questiondown" unicode="&#xbf;" horiz-adv-x="491" 
d="M253 -250c-128 0 -216 86 -216 201c0 172 166 173 166 293v49h99v-61c0 -149 -162 -155 -162 -280c0 -72 50 -112 114 -112c68 0 107 37 120 104l97 -17c-24 -111 -95 -177 -218 -177zM252 383c-37 0 -64 28 -64 64c0 37 27 64 64 64s64 -27 64 -64
c0 -36 -27 -64 -64 -64z" />
    <glyph glyph-name="parenleft.cap" horiz-adv-x="291" 
d="M197 775l74 -54c-64 -77 -131 -181 -131 -354s67 -277 131 -354l-74 -54c-70 84 -150 212 -150 408s80 323 150 408z" />
    <glyph glyph-name="parenright.cap" horiz-adv-x="291" 
d="M94 775c71 -85 150 -212 150 -408s-79 -324 -150 -408l-74 54c65 77 131 181 131 354s-66 277 -131 354z" />
    <glyph glyph-name="bracketleft.cap" horiz-adv-x="308" 
d="M283 777v-80h-134v-660h134v-80h-228v820h228z" />
    <glyph glyph-name="bracketright.cap" horiz-adv-x="314" 
d="M259 777v-820h-234v80h139v660h-139v80h234z" />
    <glyph glyph-name="braceleft.cap" horiz-adv-x="335" 
d="M310 777v-80c-69 0 -125 -38 -108 -135l9 -65c18 -71 -13 -113 -57 -130c44 -17 75 -59 57 -130l-9 -65c-17 -97 39 -135 108 -135v-80c-145 0 -240 79 -200 233l9 63c16 63 -31 98 -93 112v4c62 14 109 49 93 112l-9 63c-40 154 55 233 200 233z" />
    <glyph glyph-name="braceright.cap" horiz-adv-x="335" 
d="M25 777c145 0 241 -79 201 -233l-10 -63c-16 -63 31 -98 93 -112v-4c-62 -14 -109 -49 -93 -112l10 -63c40 -154 -56 -233 -201 -233v80c69 0 125 38 108 135l-9 65c-18 71 13 113 57 130c-44 17 -75 59 -57 130l9 65c17 97 -39 135 -108 135v80z" />
    <glyph glyph-name="guilsinglleft.cap" horiz-adv-x="348" 
d="M333 576l-202 -222l202 -222h-119l-199 220v4l199 220h119z" />
    <glyph glyph-name="guilsinglright.cap" horiz-adv-x="348" 
d="M134 576l199 -220v-4l-199 -220h-119l202 222l-202 222h119z" />
    <glyph glyph-name="guillemotleft.cap" horiz-adv-x="498" 
d="M255 576l-145 -222l145 -222h-93l-147 220v4l147 220h93zM483 576l-145 -222l145 -222h-92l-147 220v4l147 220h92z" />
    <glyph glyph-name="guillemotright.cap" horiz-adv-x="498" 
d="M107 576l148 -220v-4l-148 -220h-92l145 222l-145 222h92zM336 576l147 -220v-4l-147 -220h-92l144 222l-144 222h92z" />
    <glyph glyph-name="exclamdown.cap" horiz-adv-x="262" 
d="M83 0v530h98v-530h-98zM132 620c-37 0 -65 28 -65 64c0 37 28 64 65 64c36 0 63 -27 63 -64c0 -36 -27 -64 -63 -64z" />
    <glyph glyph-name="questiondown.cap" horiz-adv-x="491" 
d="M253 -13c-128 0 -216 86 -216 201c0 172 166 173 166 293v49h99v-61c0 -149 -162 -155 -162 -280c0 -72 50 -112 114 -112c68 0 107 37 120 104l97 -17c-24 -111 -95 -177 -218 -177zM252 620c-37 0 -64 28 -64 64c0 37 27 64 64 64s64 -27 64 -64c0 -36 -27 -64 -64 -64
z" />
    <glyph glyph-name="endash.cap" horiz-adv-x="556" 
d="M515 402v-91h-475v91h475z" />
    <glyph glyph-name="periodcentered.cap" horiz-adv-x="192" 
d="M96 420c38 0 66 -28 66 -66c0 -37 -28 -65 -66 -65s-66 28 -66 65c0 38 28 66 66 66z" />
    <glyph glyph-name="emdash.cap" horiz-adv-x="800" 
d="M760 402v-91h-720v91h720z" />
    <glyph glyph-name="hyphen.cap" horiz-adv-x="437" 
d="M396 402v-91h-356v91h356z" />
    <glyph glyph-name="oe" unicode="&#x153;" horiz-adv-x="950" 
d="M690 512c150 0 227 -116 227 -257v-39h-368c3 -92 57 -142 152 -142c66 0 111 29 136 64l68 -57c-48 -59 -113 -91 -204 -91c-92 0 -164 38 -206 101c-46 -63 -120 -101 -208 -101c-149 0 -257 109 -257 260s108 262 257 262c88 0 162 -40 208 -103
c42 63 111 103 195 103zM287 425c-92 0 -158 -74 -158 -175c0 -100 66 -173 158 -173s158 73 158 173c0 101 -66 175 -158 175zM690 428c-81 0 -136 -52 -141 -132h271c-3 79 -49 132 -130 132z" />
    <glyph glyph-name="dotlessi" unicode="&#x131;" horiz-adv-x="253" 
d="M175 502v-502h-98v502h98z" />
    <glyph glyph-name="zero.dnom" horiz-adv-x="390" 
d="M196 427c98 0 156 -85 156 -217s-58 -218 -156 -218c-100 0 -158 86 -158 218s58 217 158 217zM196 361c-57 0 -83 -59 -83 -151s26 -152 83 -152c55 0 81 60 81 152s-26 151 -81 151z" />
    <glyph glyph-name="one.dnom" horiz-adv-x="266" 
d="M203 427v-427h-74v308l-71 -45l-32 67l175 97h2z" />
    <glyph glyph-name="two.dnom" horiz-adv-x="354" 
d="M174 427c84 0 140 -54 140 -130c0 -49 -20 -83 -53 -124l-89 -107h146v-66h-273v4l154 207c29 35 40 56 40 87c0 39 -27 63 -65 63c-40 0 -62 -22 -70 -65l-67 15c15 77 62 116 137 116z" />
    <glyph glyph-name="three.dnom" horiz-adv-x="350" 
d="M175 427c80 0 134 -54 134 -125c0 -44 -23 -71 -55 -86c40 -16 67 -48 67 -95c0 -75 -56 -129 -143 -129c-78 0 -125 36 -145 109l66 16c12 -36 34 -58 79 -58c41 0 69 26 69 66c0 36 -30 64 -74 64h-47v57h49c32 1 61 19 61 57c0 35 -27 58 -63 58
c-34 0 -57 -19 -68 -53l-64 28c19 57 63 91 134 91z" />
    <glyph glyph-name="four.dnom" horiz-adv-x="375" 
d="M295 428v-304h55v-60h-55v-64h-72v65h-216v2l286 361h2zM224 245l-94 -122h94v122z" />
    <glyph glyph-name="five.dnom" horiz-adv-x="360" 
d="M300 419v-66h-165v-102c12 6 28 11 48 11c82 0 145 -46 145 -136c0 -77 -56 -134 -144 -134c-74 0 -122 32 -145 93l63 31c10 -37 36 -57 77 -57c43 0 74 29 74 71c0 40 -30 70 -77 70c-29 0 -52 -11 -66 -22l-49 21v220h239z" />
    <glyph glyph-name="six.dnom" horiz-adv-x="367" 
d="M285 419l-99 -147c79 -2 146 -60 146 -140c0 -82 -68 -140 -149 -140s-148 58 -148 140c0 33 11 62 30 86l136 201h84zM183 210c-42 0 -75 -32 -75 -78s33 -77 75 -77c43 0 76 31 76 77s-33 78 -76 78z" />
    <glyph glyph-name="seven.dnom" horiz-adv-x="361" 
d="M338 419v-4l-217 -415h-81l189 351h-196v68h305z" />
    <glyph glyph-name="eight.dnom" horiz-adv-x="367" 
d="M181 427c72 0 132 -49 132 -118c0 -38 -21 -69 -51 -87c41 -22 68 -58 68 -101c0 -75 -67 -129 -149 -129c-80 0 -147 54 -147 129c0 43 27 80 67 100c-30 19 -50 50 -50 88c0 69 59 118 130 118zM181 186c-42 0 -75 -28 -75 -67s33 -66 75 -66c44 0 77 27 77 66
s-33 67 -77 67zM181 366c-36 0 -64 -26 -64 -60c0 -36 28 -60 64 -60c37 0 65 24 65 60c0 34 -28 60 -65 60z" />
    <glyph glyph-name="nine.dnom" horiz-adv-x="367" 
d="M184 426c81 0 148 -57 148 -139c0 -33 -11 -63 -30 -86l-136 -201h-84l99 147c-80 1 -146 60 -146 140c0 82 68 139 149 139zM184 364c-43 0 -76 -31 -76 -77c0 -47 33 -78 76 -78c42 0 75 31 75 78c0 46 -33 77 -75 77z" />
    <glyph glyph-name="zero.numr" horiz-adv-x="381" 
d="M196 741c98 0 156 -85 156 -217s-58 -218 -156 -218c-100 0 -158 86 -158 218s58 217 158 217zM196 675c-57 0 -83 -59 -83 -151s26 -152 83 -152c55 0 81 60 81 152s-26 151 -81 151z" />
    <glyph glyph-name="one.numr" horiz-adv-x="257" 
d="M203 741v-427h-74v308l-71 -45l-32 67l175 97h2z" />
    <glyph glyph-name="two.numr" horiz-adv-x="345" 
d="M174 741c84 0 140 -54 140 -130c0 -49 -20 -83 -53 -124l-89 -107h146v-66h-273v4l154 207c29 35 40 56 40 87c0 39 -27 63 -65 63c-40 0 -62 -22 -70 -65l-67 15c15 77 62 116 137 116z" />
    <glyph glyph-name="three.numr" horiz-adv-x="340" 
d="M175 741c80 0 134 -54 134 -125c0 -44 -23 -71 -55 -86c40 -16 67 -48 67 -95c0 -75 -56 -129 -143 -129c-78 0 -125 36 -145 109l66 16c12 -36 34 -58 79 -58c41 0 69 26 69 66c0 36 -30 64 -74 64h-47v57h49c32 1 61 19 61 57c0 35 -27 58 -63 58
c-34 0 -57 -19 -68 -53l-64 28c19 57 63 91 134 91z" />
    <glyph glyph-name="four.numr" horiz-adv-x="366" 
d="M295 742v-304h55v-60h-55v-64h-72v65h-216v2l286 361h2zM224 559l-94 -122h94v122z" />
    <glyph glyph-name="five.numr" horiz-adv-x="351" 
d="M300 733v-66h-165v-102c12 6 28 11 48 11c82 0 145 -46 145 -136c0 -77 -56 -134 -144 -134c-74 0 -122 32 -145 93l63 31c10 -37 36 -57 77 -57c43 0 74 29 74 71c0 40 -30 70 -77 70c-29 0 -52 -11 -66 -22l-49 21v220h239z" />
    <glyph glyph-name="six.numr" horiz-adv-x="358" 
d="M285 733l-99 -147c79 -2 146 -60 146 -140c0 -82 -68 -140 -149 -140s-148 58 -148 140c0 33 11 62 30 86l136 201h84zM183 524c-42 0 -75 -32 -75 -78s33 -77 75 -77c43 0 76 31 76 77s-33 78 -76 78z" />
    <glyph glyph-name="seven.numr" horiz-adv-x="352" 
d="M338 733v-4l-217 -415h-81l189 351h-196v68h305z" />
    <glyph glyph-name="eight.numr" horiz-adv-x="358" 
d="M181 741c72 0 132 -49 132 -118c0 -38 -21 -69 -51 -87c41 -22 68 -58 68 -101c0 -75 -67 -129 -149 -129c-80 0 -147 54 -147 129c0 43 27 80 67 100c-30 19 -50 50 -50 88c0 69 59 118 130 118zM181 500c-42 0 -75 -28 -75 -67s33 -66 75 -66c44 0 77 27 77 66
s-33 67 -77 67zM181 680c-36 0 -64 -26 -64 -60c0 -36 28 -60 64 -60c37 0 65 24 65 60c0 34 -28 60 -65 60z" />
    <glyph glyph-name="nine.numr" horiz-adv-x="358" 
d="M184 740c81 0 148 -57 148 -139c0 -33 -11 -63 -30 -86l-136 -201h-84l99 147c-80 1 -146 60 -146 140c0 82 68 139 149 139zM184 678c-43 0 -76 -31 -76 -77c0 -47 33 -78 76 -78c42 0 75 31 75 78c0 46 -33 77 -75 77z" />
    <glyph glyph-name="zero.sups" unicode="&#x2070;" horiz-adv-x="381" 
d="M196 821c98 0 156 -85 156 -217s-58 -218 -156 -218c-100 0 -158 86 -158 218s58 217 158 217zM196 755c-57 0 -83 -59 -83 -151s26 -152 83 -152c55 0 81 60 81 152s-26 151 -81 151z" />
    <glyph glyph-name="one.sups" unicode="&#xb9;" horiz-adv-x="257" 
d="M203 821v-427h-74v308l-71 -45l-32 67l175 97h2z" />
    <glyph glyph-name="two.sups" unicode="&#xb2;" horiz-adv-x="345" 
d="M174 821c84 0 140 -54 140 -130c0 -49 -20 -83 -53 -124l-89 -107h146v-66h-273v4l154 207c29 35 40 56 40 87c0 39 -27 63 -65 63c-40 0 -62 -22 -70 -65l-67 15c15 77 62 116 137 116z" />
    <glyph glyph-name="three.sups" unicode="&#xb3;" horiz-adv-x="340" 
d="M175 821c80 0 134 -54 134 -125c0 -44 -23 -71 -55 -86c40 -16 67 -48 67 -95c0 -75 -56 -129 -143 -129c-78 0 -125 36 -145 109l66 16c12 -36 34 -58 79 -58c41 0 69 26 69 66c0 36 -30 64 -74 64h-47v57h49c32 1 61 19 61 57c0 35 -27 58 -63 58
c-34 0 -57 -19 -68 -53l-64 28c19 57 63 91 134 91z" />
    <glyph glyph-name="four.sups" unicode="&#x2074;" horiz-adv-x="366" 
d="M295 822v-304h55v-60h-55v-64h-72v65h-216v2l286 361h2zM224 639l-94 -122h94v122z" />
    <glyph glyph-name="five.sups" unicode="&#x2075;" horiz-adv-x="351" 
d="M300 813v-66h-165v-102c12 6 28 11 48 11c82 0 145 -46 145 -136c0 -77 -56 -134 -144 -134c-74 0 -122 32 -145 93l63 31c10 -37 36 -57 77 -57c43 0 74 29 74 71c0 40 -30 70 -77 70c-29 0 -52 -11 -66 -22l-49 21v220h239z" />
    <glyph glyph-name="six.sups" unicode="&#x2076;" horiz-adv-x="358" 
d="M285 813l-99 -147c79 -2 146 -60 146 -140c0 -82 -68 -140 -149 -140s-148 58 -148 140c0 33 11 62 30 86l136 201h84zM183 604c-42 0 -75 -32 -75 -78s33 -77 75 -77c43 0 76 31 76 77s-33 78 -76 78z" />
    <glyph glyph-name="seven.sups" unicode="&#x2077;" horiz-adv-x="352" 
d="M338 813v-4l-217 -415h-81l189 351h-196v68h305z" />
    <glyph glyph-name="eight.sups" unicode="&#x2078;" horiz-adv-x="358" 
d="M181 821c72 0 132 -49 132 -118c0 -38 -21 -69 -51 -87c41 -22 68 -58 68 -101c0 -75 -67 -129 -149 -129c-80 0 -147 54 -147 129c0 43 27 80 67 100c-30 19 -50 50 -50 88c0 69 59 118 130 118zM181 580c-42 0 -75 -28 -75 -67s33 -66 75 -66c44 0 77 27 77 66
s-33 67 -77 67zM181 760c-36 0 -64 -26 -64 -60c0 -36 28 -60 64 -60c37 0 65 24 65 60c0 34 -28 60 -65 60z" />
    <glyph glyph-name="nine.sups" unicode="&#x2079;" horiz-adv-x="358" 
d="M184 820c81 0 148 -57 148 -139c0 -33 -11 -63 -30 -86l-136 -201h-84l99 147c-80 1 -146 60 -146 140c0 82 68 139 149 139zM184 758c-43 0 -76 -31 -76 -77c0 -47 33 -78 76 -78c42 0 75 31 75 78c0 46 -33 77 -75 77z" />
    <glyph glyph-name="zero.subs" horiz-adv-x="381" 
d="M196 327c98 0 156 -85 156 -217s-58 -218 -156 -218c-100 0 -158 86 -158 218s58 217 158 217zM196 261c-57 0 -83 -59 -83 -151s26 -152 83 -152c55 0 81 60 81 152s-26 151 -81 151z" />
    <glyph glyph-name="one.subs" horiz-adv-x="257" 
d="M203 327v-427h-74v308l-71 -45l-32 67l175 97h2z" />
    <glyph glyph-name="two.subs" horiz-adv-x="345" 
d="M174 327c84 0 140 -54 140 -130c0 -49 -20 -83 -53 -124l-89 -107h146v-66h-273v4l154 207c29 35 40 56 40 87c0 39 -27 63 -65 63c-40 0 -62 -22 -70 -65l-67 15c15 77 62 116 137 116z" />
    <glyph glyph-name="three.subs" horiz-adv-x="340" 
d="M175 327c80 0 134 -54 134 -125c0 -44 -23 -71 -55 -86c40 -16 67 -48 67 -95c0 -75 -56 -129 -143 -129c-78 0 -125 36 -145 109l66 16c12 -36 34 -58 79 -58c41 0 69 26 69 66c0 36 -30 64 -74 64h-47v57h49c32 1 61 19 61 57c0 35 -27 58 -63 58
c-34 0 -57 -19 -68 -53l-64 28c19 57 63 91 134 91z" />
    <glyph glyph-name="four.subs" horiz-adv-x="366" 
d="M295 328v-304h55v-60h-55v-64h-72v65h-216v2l286 361h2zM224 145l-94 -122h94v122z" />
    <glyph glyph-name="five.subs" horiz-adv-x="351" 
d="M300 319v-66h-165v-102c12 6 28 11 48 11c82 0 145 -46 145 -136c0 -77 -56 -134 -144 -134c-74 0 -122 32 -145 93l63 31c10 -37 36 -57 77 -57c43 0 74 29 74 71c0 40 -30 70 -77 70c-29 0 -52 -11 -66 -22l-49 21v220h239z" />
    <glyph glyph-name="six.subs" horiz-adv-x="358" 
d="M285 319l-99 -147c79 -2 146 -60 146 -140c0 -82 -68 -140 -149 -140s-148 58 -148 140c0 33 11 62 30 86l136 201h84zM183 110c-42 0 -75 -32 -75 -78s33 -77 75 -77c43 0 76 31 76 77s-33 78 -76 78z" />
    <glyph glyph-name="seven.subs" horiz-adv-x="352" 
d="M338 319v-4l-217 -415h-81l189 351h-196v68h305z" />
    <glyph glyph-name="eight.subs" horiz-adv-x="358" 
d="M181 327c72 0 132 -49 132 -118c0 -38 -21 -69 -51 -87c41 -22 68 -58 68 -101c0 -75 -67 -129 -149 -129c-80 0 -147 54 -147 129c0 43 27 80 67 100c-30 19 -50 50 -50 88c0 69 59 118 130 118zM181 86c-42 0 -75 -28 -75 -67s33 -66 75 -66c44 0 77 27 77 66
s-33 67 -77 67zM181 266c-36 0 -64 -26 -64 -60c0 -36 28 -60 64 -60c37 0 65 24 65 60c0 34 -28 60 -65 60z" />
    <glyph glyph-name="nine.subs" horiz-adv-x="358" 
d="M184 326c81 0 148 -57 148 -139c0 -33 -11 -63 -30 -86l-136 -201h-84l99 147c-80 1 -146 60 -146 140c0 82 68 139 149 139zM184 264c-43 0 -76 -31 -76 -77c0 -47 33 -78 76 -78c42 0 75 31 75 78c0 46 -33 77 -75 77z" />
    <glyph glyph-name="onehalf" unicode="&#xbd;" horiz-adv-x="791" 
d="M583 734l-364 -734h-91l364 734h91zM203 721v-427h-74v308l-71 -45l-32 67l175 97h2zM620 427c84 0 140 -54 140 -130c0 -49 -20 -83 -53 -124l-89 -107h146v-66h-273v4l154 207c29 35 40 56 40 87c0 39 -27 63 -65 63c-40 0 -62 -22 -70 -65l-67 15
c15 77 62 116 137 116z" />
    <glyph glyph-name="onequarter" unicode="&#xbc;" horiz-adv-x="731" 
d="M583 734l-364 -734h-91l364 734h91zM203 721v-427h-74v308l-71 -45l-32 67l175 97h2zM660 428v-304h55v-60h-55v-64h-72v65h-216v2l286 361h2zM589 245l-94 -122h94v122z" />
    <glyph glyph-name="threequarters" unicode="&#xbe;" horiz-adv-x="815" 
d="M666 734l-364 -734h-91l364 734h91zM743 428v-304h55v-60h-55v-64h-72v65h-216v2l286 361h2zM672 245l-94 -122h94v122zM175 721c80 0 134 -54 134 -125c0 -44 -23 -71 -55 -86c40 -16 67 -48 67 -95c0 -75 -56 -129 -143 -129c-78 0 -125 36 -145 109l66 16
c12 -36 34 -58 79 -58c41 0 69 26 69 66c0 36 -30 64 -74 64h-47v57h49c32 1 61 19 61 57c0 35 -27 58 -63 58c-34 0 -57 -19 -68 -53l-64 28c19 57 63 91 134 91z" />
    <glyph glyph-name="zero.lnum" horiz-adv-x="600" 
d="M300 748c164 0 257 -148 257 -380c0 -233 -93 -381 -257 -381s-257 148 -257 381c0 232 93 380 257 380zM300 659c-106 0 -157 -115 -157 -291c0 -177 51 -292 157 -292s157 115 157 292c0 176 -51 291 -157 291z" />
    <glyph glyph-name="one.lnum" horiz-adv-x="600" 
d="M383 748v-657h138v-91h-382v91h145v478l-167 -96l-47 85l309 190h4z" />
    <glyph glyph-name="two.lnum" horiz-adv-x="600" 
d="M291 748c133 0 224 -90 224 -219c0 -91 -33 -153 -92 -228l-168 -211h269v-90h-441v6l262 348c51 68 70 110 70 177c0 80 -53 127 -124 127c-74 0 -115 -40 -131 -123l-90 21c25 126 100 192 221 192z" />
    <glyph glyph-name="three.lnum" horiz-adv-x="600" 
d="M294 748c128 0 215 -87 215 -209c0 -82 -41 -130 -98 -156c73 -28 122 -88 122 -173c0 -133 -92 -223 -231 -223c-131 0 -203 67 -239 182l90 24c24 -71 64 -116 148 -116c78 0 132 53 132 135c0 75 -58 131 -142 131h-81v79h82c61 1 118 38 118 116
c0 74 -50 120 -117 120s-109 -39 -131 -105l-86 37c33 93 101 158 218 158z" />
    <glyph glyph-name="four.lnum" horiz-adv-x="600" 
d="M462 741v-513h99v-90h-99v-138h-99v138h-331v4l425 599h5zM364 457l-163 -230h163v230z" />
    <glyph glyph-name="five.lnum" horiz-adv-x="600" 
d="M495 735v-90h-286v-217c24 13 57 24 98 24c136 0 234 -85 234 -233c0 -131 -90 -232 -233 -232c-124 0 -198 58 -236 159l86 40c21 -68 65 -109 144 -109c82 0 139 62 139 146c0 85 -56 145 -144 145c-53 0 -95 -21 -124 -45l-63 27v385h385z" />
    <glyph glyph-name="six.lnum" horiz-adv-x="600" 
d="M299 471c132 0 241 -102 241 -243s-109 -241 -241 -241c-133 0 -241 100 -241 241c0 60 19 113 52 154l231 353h117l-173 -265c5 0 9 1 14 1zM299 382c-79 0 -140 -63 -140 -154c0 -90 61 -152 140 -152c78 0 141 62 141 152c0 91 -63 154 -141 154z" />
    <glyph glyph-name="seven.lnum" horiz-adv-x="600" 
d="M564 735v-6l-370 -729h-108l332 644h-351v91h497z" />
    <glyph glyph-name="eight.lnum" horiz-adv-x="600" 
d="M300 748c115 0 210 -82 210 -198c0 -71 -37 -129 -91 -160c72 -34 123 -101 123 -182c0 -129 -110 -221 -242 -221s-241 92 -241 221c0 81 49 149 121 181c-54 31 -90 89 -90 161c0 116 95 198 210 198zM300 339c-78 0 -140 -57 -140 -133c0 -75 62 -131 140 -131
s141 56 141 131c0 76 -63 133 -141 133zM300 660c-65 0 -117 -49 -117 -114c0 -69 52 -119 117 -119s117 50 117 119c0 65 -52 114 -117 114z" />
    <glyph glyph-name="nine.lnum" horiz-adv-x="600" 
d="M300 748c133 0 241 -100 241 -241c0 -60 -20 -114 -53 -155l-230 -352h-117l172 264h-13c-132 0 -241 102 -241 243s109 241 241 241zM300 659c-78 0 -141 -62 -141 -152c0 -91 63 -154 141 -154c79 0 140 63 140 154c0 90 -61 152 -140 152z" />
    <glyph glyph-name="zero.tnum" horiz-adv-x="590" 
d="M295 570c149 0 257 -124 257 -291s-109 -289 -257 -289c-150 0 -258 122 -258 289s109 291 258 291zM295 483c-92 0 -159 -85 -159 -204s67 -202 159 -202c91 0 158 83 158 202s-66 204 -158 204z" />
    <glyph glyph-name="one.tnum" horiz-adv-x="374" 
d="M294 570v-570h-99v389l-131 -81l-44 89l270 173h4z" />
    <glyph glyph-name="two.tnum" horiz-adv-x="530" 
d="M266 570c125 0 211 -85 211 -196c0 -99 -49 -154 -110 -207l-89 -77h217v-90h-443v6l221 204c61 56 103 91 103 160c0 73 -48 110 -115 110c-53 0 -87 -25 -110 -75l-82 41c37 81 103 124 197 124z" />
    <glyph glyph-name="three.tnum" horiz-adv-x="524" 
d="M264 570c128 0 216 -84 216 -203c0 -79 -42 -126 -99 -151c74 -27 122 -86 122 -169c0 -128 -91 -216 -231 -216c-130 0 -202 65 -238 177l90 23c23 -68 64 -112 148 -112c78 0 132 51 132 130c0 74 -59 127 -143 127h-80v78h82c61 0 118 36 118 112
c0 71 -50 116 -118 116c-67 0 -109 -38 -130 -102l-87 36c33 91 102 154 218 154z" />
    <glyph glyph-name="four.tnum" horiz-adv-x="557" 
d="M437 570v-498h99v-87h-99v-134h-99v134h-331v4l425 581h5zM339 294l-163 -223h163v223z" />
    <glyph glyph-name="five.tnum" horiz-adv-x="538" 
d="M463 559v-87h-285v-210c24 12 56 23 97 23c136 0 234 -83 234 -227c0 -126 -89 -225 -233 -225c-124 0 -197 57 -235 155l85 39c22 -66 65 -106 144 -106c82 0 139 60 139 142c0 81 -56 140 -143 140c-54 0 -95 -20 -125 -43l-63 26v373h385z" />
    <glyph glyph-name="six.tnum" horiz-adv-x="547" 
d="M272 457c133 0 242 -100 242 -236c0 -137 -109 -234 -242 -234c-132 0 -240 97 -240 234c0 57 18 108 50 147l233 345h117l-173 -256h13zM272 370c-78 0 -139 -61 -139 -149s61 -148 139 -148c79 0 142 60 142 148s-63 149 -142 149z" />
    <glyph glyph-name="seven.tnum" horiz-adv-x="538" 
d="M524 560v-6l-370 -707h-108l330 624h-349v89h497z" />
    <glyph glyph-name="eight.tnum" horiz-adv-x="547" 
d="M270 726c115 0 210 -80 210 -192c0 -69 -37 -126 -91 -156c72 -33 123 -98 123 -176c0 -125 -110 -215 -242 -215s-241 90 -241 215c0 78 49 144 121 175c-54 30 -90 87 -90 157c0 112 95 192 210 192zM270 329c-78 0 -140 -55 -140 -129c0 -73 62 -127 140 -127
s141 54 141 127c0 74 -63 129 -141 129zM270 640c-65 0 -117 -47 -117 -110c0 -67 52 -116 117 -116s117 49 117 116c0 63 -52 110 -117 110z" />
    <glyph glyph-name="nine.tnum" horiz-adv-x="547" 
d="M274 570c132 0 240 -97 240 -234c0 -49 -14 -94 -39 -130h1l-244 -362h-118l174 257h-14c-133 0 -242 99 -242 235c0 137 109 234 242 234zM274 484c-79 0 -141 -60 -141 -148s62 -149 141 -149c78 0 140 61 140 149s-62 148 -140 148z" />
    <glyph glyph-name="a.sups" horiz-adv-x="430" 
d="M184 748c58 0 93 -24 113 -48l3 41h73v-353h-73l-3 41c-20 -24 -55 -48 -113 -48c-93 0 -158 77 -158 183s65 184 158 184zM204 677c-57 0 -97 -45 -97 -113s40 -113 97 -113c43 0 69 24 88 52v123c-19 28 -45 51 -88 51z" />
    <glyph glyph-name="b.sups" horiz-adv-x="430" 
d="M138 920v-214c20 22 54 42 108 42c93 0 158 -78 158 -184s-65 -183 -158 -183c-58 0 -93 24 -113 48l-3 -41h-72v532h80zM226 677c-43 0 -69 -23 -88 -51v-123c19 -28 45 -52 88 -52c57 0 97 45 97 113s-40 113 -97 113z" />
    <glyph glyph-name="c.sups" horiz-adv-x="370" 
d="M206 748c66 0 115 -30 148 -79l-59 -44c-18 28 -47 53 -89 53c-65 0 -99 -49 -99 -114c0 -64 35 -113 100 -113c43 0 72 24 90 53l59 -44c-33 -49 -83 -79 -149 -79c-109 0 -181 77 -181 183s71 184 180 184z" />
    <glyph glyph-name="d.sups" horiz-adv-x="430" 
d="M373 920v-532h-73l-3 41c-20 -24 -55 -48 -113 -48c-93 0 -158 77 -158 183s65 184 158 184c54 0 88 -20 108 -42v214h81zM204 677c-57 0 -97 -45 -97 -113s40 -113 97 -113c43 0 69 24 88 52v123c-19 28 -45 51 -88 51z" />
    <glyph glyph-name="e.sups" horiz-adv-x="392" 
d="M201 748c108 0 163 -82 163 -181v-28h-257c4 -57 37 -90 101 -90c42 0 74 20 92 43l55 -47c-36 -42 -84 -64 -148 -64c-112 0 -181 77 -181 183s70 184 175 184zM198 682c-52 0 -87 -35 -91 -82h178c-4 47 -35 82 -87 82z" />
    <glyph glyph-name="f.sups" horiz-adv-x="271" 
d="M210 920c34 0 60 -9 79 -24l-30 -64c-10 10 -24 18 -44 18c-33 0 -52 -25 -52 -61v-48h89v-69h-89v-284h-80v284h-64v69h64v44c0 78 49 135 127 135z" />
    <glyph glyph-name="g.sups" horiz-adv-x="431" 
d="M184 748c58 0 93 -23 113 -47l4 40h72v-342c0 -111 -73 -179 -185 -179c-75 0 -127 30 -165 75l53 52c26 -33 62 -57 112 -57c64 0 104 44 104 107v33c-20 -21 -54 -41 -108 -41c-93 0 -158 76 -158 180s65 179 158 179zM204 680c-57 0 -97 -44 -97 -111s40 -111 97 -111
c43 0 69 23 88 50v121c-19 27 -45 51 -88 51z" />
    <glyph glyph-name="h.sups" horiz-adv-x="423" 
d="M138 920v-218c19 23 54 46 103 46c86 0 133 -61 133 -154v-206h-81v202c0 49 -27 82 -72 82c-39 0 -63 -21 -83 -49v-235h-80v532h80z" />
    <glyph glyph-name="i.sups" horiz-adv-x="195" 
d="M137 741v-353h-79v353h79zM98 904c28 0 49 -22 49 -51s-21 -50 -49 -50c-30 0 -50 21 -50 50s20 51 50 51z" />
    <glyph glyph-name="j.sups" horiz-adv-x="205" 
d="M148 741v-386c0 -87 -66 -135 -158 -135v70c47 0 78 24 78 59v392h80zM108 904c29 0 50 -22 50 -51s-21 -50 -50 -50s-50 21 -50 50s21 51 50 51z" />
    <glyph glyph-name="k.sups" horiz-adv-x="399" 
d="M138 920v-384l139 205h98l-108 -151l122 -202h-93l-79 134l-96 -134h-63v532h80z" />
    <glyph glyph-name="l.sups" horiz-adv-x="195" 
d="M138 920v-532h-80v532h80z" />
    <glyph glyph-name="m.sups" horiz-adv-x="647" 
d="M241 748c49 0 86 -23 107 -61c26 36 66 61 122 61c82 0 128 -61 128 -154v-206h-80v202c0 49 -26 82 -69 82c-37 0 -62 -20 -82 -49c1 -7 1 -14 1 -21v-214h-80v202c0 49 -26 82 -69 82c-37 0 -62 -20 -81 -48v-236h-80v353h72l3 -40c20 25 55 47 108 47z" />
    <glyph glyph-name="n.sups" unicode="&#x207f;" horiz-adv-x="423" 
d="M241 748c86 0 133 -61 133 -154v-206h-81v202c0 49 -27 82 -72 82c-39 0 -63 -21 -83 -49v-235h-80v353h72l3 -40c19 22 56 47 108 47z" />
    <glyph glyph-name="o.sups" horiz-adv-x="417" 
d="M209 748c104 0 182 -79 182 -184c0 -106 -78 -183 -182 -183c-107 0 -183 77 -183 183c0 105 76 184 183 184zM209 677c-60 0 -102 -48 -102 -113s42 -113 102 -113c58 0 101 48 101 113s-43 113 -101 113z" />
    <glyph glyph-name="p.sups" horiz-adv-x="430" 
d="M246 748c93 0 158 -77 158 -183s-65 -184 -158 -184c-54 0 -88 20 -108 42v-196h-80v514h72l3 -41c20 24 55 48 113 48zM226 678c-43 0 -69 -24 -88 -52v-123c19 -28 45 -51 88 -51c57 0 97 45 97 113s-40 113 -97 113z" />
    <glyph glyph-name="q.sups" horiz-adv-x="430" 
d="M184 748c58 0 93 -24 113 -48l3 41h73v-514h-81v196c-20 -22 -54 -42 -108 -42c-93 0 -158 78 -158 184s65 183 158 183zM204 678c-57 0 -97 -45 -97 -113s40 -113 97 -113c43 0 69 23 88 51v123c-19 28 -45 52 -88 52z" />
    <glyph glyph-name="r.sups" horiz-adv-x="253" 
d="M238 748v-80h-8c-43 0 -70 -20 -92 -52v-228h-80v353h71l5 -49c18 29 52 56 104 56z" />
    <glyph glyph-name="s.sups" horiz-adv-x="335" 
d="M177 748c48 0 94 -17 122 -39l-35 -63c-21 18 -50 31 -87 31c-36 0 -58 -12 -58 -39c0 -23 19 -28 76 -41c77 -18 110 -50 110 -103c0 -67 -56 -113 -145 -113c-53 0 -104 18 -135 43l35 63c25 -21 59 -36 101 -36c38 0 64 11 64 42c0 25 -18 30 -73 43
c-78 18 -113 48 -113 101c0 68 53 111 138 111z" />
    <glyph glyph-name="t.sups" horiz-adv-x="293" 
d="M158 859v-118h107v-69h-107v-161c0 -37 23 -58 57 -58c22 0 38 5 48 11l21 -63c-16 -11 -42 -20 -76 -20c-80 0 -130 46 -130 130v161h-67v69h67v118h80z" />
    <glyph glyph-name="u.sups" horiz-adv-x="418" 
d="M361 741v-353h-73l-3 38c-21 -24 -55 -45 -109 -45c-82 0 -127 60 -127 151v209h80v-204c0 -48 25 -80 68 -80c41 0 64 19 83 47v237h81z" />
    <glyph glyph-name="v.sups" horiz-adv-x="397" 
d="M386 741l-186 -360h-3l-185 360h89l98 -198l97 198h90z" />
    <glyph glyph-name="w.sups" horiz-adv-x="548" 
d="M536 741l-161 -360h-3l-98 196l-99 -196h-2l-161 360h89l79 -190l93 190h2l92 -190l79 190h90z" />
    <glyph glyph-name="x.sups" horiz-adv-x="368" 
d="M350 741l-112 -175l118 -178h-95l-78 120l-78 -120h-94l117 178l-111 175h93l73 -117l74 117h93z" />
    <glyph glyph-name="y.sups" horiz-adv-x="405" 
d="M389 741l-263 -514h-91l125 231l-145 283h90l97 -198l98 198h89z" />
    <glyph glyph-name="z.sups" horiz-adv-x="334" 
d="M312 741v-3l-165 -282h164v-68h-290v3l164 281h-154v69h281z" />
    <glyph glyph-name="ordfeminine" unicode="&#xaa;" horiz-adv-x="430" 
d="M184 748c58 0 93 -24 113 -48l3 41h73v-353h-73l-3 41c-20 -24 -55 -48 -113 -48c-93 0 -158 77 -158 183s65 184 158 184zM204 677c-57 0 -97 -45 -97 -113s40 -113 97 -113c43 0 69 24 88 52v123c-19 28 -45 51 -88 51z" />
    <glyph glyph-name="ordmasculine" unicode="&#xba;" horiz-adv-x="417" 
d="M209 748c104 0 182 -79 182 -184c0 -106 -78 -183 -182 -183c-107 0 -183 77 -183 183c0 105 76 184 183 184zM209 677c-60 0 -102 -48 -102 -113s42 -113 102 -113c58 0 101 48 101 113s-43 113 -101 113z" />
    <glyph glyph-name="Aogonek" unicode="&#x104;" horiz-adv-x="698" 
d="M351 748l338 -748h-21c-28 -11 -45 -33 -45 -64c0 -44 31 -67 69 -67c14 0 26 4 34 8l21 -57c-15 -7 -33 -10 -57 -10c-74 0 -133 44 -133 126c0 29 8 51 21 68l-64 146h-330l-66 -150h-109l338 748h4zM349 523l-127 -284h254z" />
    <glyph glyph-name="Ccedilla" unicode="&#xc7;" horiz-adv-x="680" 
d="M403 748c110 0 192 -38 260 -107l-65 -74c-47 51 -113 87 -195 87c-159 0 -267 -121 -267 -287c0 -165 108 -286 267 -286c85 0 153 38 200 92l64 -76c-69 -75 -157 -109 -261 -110l-7 -43c55 -5 90 -38 90 -94c0 -61 -40 -102 -109 -102c-42 0 -77 15 -99 40l39 45
c13 -15 33 -28 57 -28c26 0 44 14 44 42c0 25 -13 39 -41 42c-20 2 -34 -1 -48 -7l-3 4l18 105c-186 25 -314 177 -314 376c0 219 154 381 370 381z" />
    <glyph glyph-name="Dcroat" unicode="&#x110;" horiz-adv-x="750" 
d="M322 735c248 0 395 -135 395 -367s-145 -368 -395 -368h-222v343h-87v69h87v323h222zM319 640h-117v-228h114v-69h-114v-249h117c191 0 295 101 295 274c0 172 -106 272 -295 272z" />
    <glyph glyph-name="Eth" unicode="&#xd0;" horiz-adv-x="750" 
d="M322 735c248 0 395 -135 395 -367s-145 -368 -395 -368h-222v343h-87v69h87v323h222zM319 640h-117v-228h114v-69h-114v-249h117c191 0 295 101 295 274c0 172 -106 272 -295 272z" />
    <glyph glyph-name="Eng" unicode="&#x14a;" horiz-adv-x="729" 
d="M647 735v-752c0 -136 -90 -223 -225 -223v101c76 0 123 45 123 129v105l-361 399v-494h-102v748h4l459 -506v493h102z" />
    <glyph glyph-name="Aringacute" unicode="&#x1fa;" horiz-adv-x="698" 
d="M351 748l338 -748h-109l-66 150h-330l-66 -150h-109l338 748h4zM516 1075l-121 -102c38 -17 63 -54 63 -99c0 -62 -47 -107 -109 -107c-63 0 -110 45 -110 107c0 27 9 51 24 70h-1l138 131h116zM349 523l-127 -284h254zM349 927c-29 0 -52 -23 -52 -53s23 -51 52 -51
s52 21 52 51s-23 53 -52 53z" />
    <glyph glyph-name="Eogonek" unicode="&#x118;" horiz-adv-x="577" 
d="M537 735v-94h-353v-223h310v-91h-310v-233h361v-94h-55c-28 -11 -45 -33 -45 -64c0 -44 31 -67 69 -67c14 0 26 4 34 8l21 -57c-15 -7 -33 -10 -57 -10c-74 0 -133 44 -133 126c0 26 6 47 18 64h-315v735h455z" />
    <glyph glyph-name="Gcommaaccent" unicode="&#x122;" horiz-adv-x="740" 
d="M403 748c110 0 192 -38 260 -107l-65 -74c-47 51 -113 87 -195 87c-159 0 -267 -121 -267 -287c0 -165 112 -286 277 -286c66 0 122 20 166 52v165h-187v89h289v-304c-68 -63 -160 -96 -268 -96c-222 0 -380 162 -380 380c0 219 154 381 370 381zM382 -51
c40 0 69 -29 69 -69c0 -16 -4 -29 -12 -40l-78 -137h-4v242c8 3 16 4 25 4z" />
    <glyph glyph-name="Scedilla" unicode="&#x15e;" horiz-adv-x="585" 
d="M285 748c99 0 181 -32 239 -78l-54 -84c-47 39 -109 68 -186 68c-80 0 -138 -36 -138 -115c0 -65 42 -90 166 -116c179 -39 245 -100 245 -213c0 -125 -90 -212 -234 -222l-7 -44c55 -5 90 -38 90 -94c0 -61 -40 -102 -109 -102c-42 0 -77 15 -99 40l39 45
c13 -15 33 -28 57 -28c26 0 44 14 44 42c0 25 -13 39 -41 42c-20 2 -34 -1 -48 -7l-3 4l18 102c-96 6 -176 39 -238 93l57 85c52 -52 135 -85 215 -85c92 0 157 42 157 121c0 64 -48 96 -172 122c-179 39 -239 101 -239 211c0 129 96 213 241 213z" />
    <glyph glyph-name="Rcommaaccent" unicode="&#x156;" horiz-adv-x="632" 
d="M324 735c146 0 259 -81 259 -228c0 -107 -60 -179 -149 -211l184 -296h-120l-172 279h-144v-279h-102v735h244zM315 645h-133v-276h133c100 0 165 47 165 138c0 90 -66 138 -165 138zM300 -51c40 0 69 -29 69 -69c0 -16 -4 -29 -12 -40l-78 -137h-4v242c8 3 16 4 25 4z
" />
    <glyph glyph-name="Scommaaccent" unicode="&#x218;" horiz-adv-x="585" 
d="M285 748c99 0 181 -32 239 -78l-54 -84c-47 39 -109 68 -186 68c-80 0 -138 -36 -138 -115c0 -65 42 -90 166 -116c179 -39 245 -100 245 -213c0 -133 -101 -223 -262 -223c-109 0 -200 34 -269 94l57 85c52 -52 135 -85 215 -85c92 0 157 42 157 121
c0 64 -48 96 -172 122c-179 39 -239 101 -239 211c0 129 96 213 241 213zM287 -51c40 0 69 -29 69 -69c0 -16 -4 -29 -12 -40l-78 -137h-4v242c8 3 16 4 25 4z" />
    <glyph glyph-name="Tcommaaccent" unicode="&#x162;" horiz-adv-x="649" 
d="M633 735v-91h-258v-644h-102v644h-257v91h617zM304 -51c40 0 69 -29 69 -69c0 -16 -4 -29 -12 -40l-78 -137h-4v242c8 3 16 4 25 4z" />
    <glyph glyph-name="Oslash" unicode="&#xd8;" horiz-adv-x="806" 
d="M403 748c53 0 103 -10 148 -29l53 96h89l-73 -134c95 -68 154 -180 154 -314c0 -220 -158 -380 -371 -380c-54 0 -104 10 -148 28l-52 -95h-90l73 133c-95 67 -153 179 -153 314c0 219 156 381 370 381zM403 654c-156 0 -267 -121 -267 -287c0 -96 36 -176 97 -227
l272 494c-31 13 -65 20 -102 20zM670 367c0 95 -37 176 -98 227l-271 -494c31 -13 65 -19 102 -19c156 0 267 120 267 286z" />
    <glyph glyph-name="Oslashacute" unicode="&#x1fe;" horiz-adv-x="806" 
d="M403 748c53 0 103 -10 148 -29l53 96h89l-73 -134c95 -68 154 -180 154 -314c0 -220 -158 -380 -371 -380c-54 0 -104 10 -148 28l-52 -95h-90l73 133c-95 67 -153 179 -153 314c0 219 156 381 370 381zM403 654c-156 0 -267 -121 -267 -287c0 -96 36 -176 97 -227
l272 494c-31 13 -65 20 -102 20zM670 367c0 95 -37 176 -98 227l-271 -494c31 -13 65 -19 102 -19c156 0 267 120 267 286zM592 897l-146 -115h-108l133 115h121z" />
    <glyph glyph-name="Kcommaaccent" unicode="&#x136;" horiz-adv-x="667" 
d="M605 735l-211 -354l264 -381h-123l-199 289l-175 -289h-79v735h102v-529l301 529h120zM322 -51c40 0 69 -29 69 -69c0 -16 -4 -29 -12 -40l-78 -137h-4v242c8 3 16 4 25 4z" />
    <glyph glyph-name="Lcommaaccent" unicode="&#x13b;" horiz-adv-x="544" 
d="M184 735v-644h350v-91h-452v735h102zM285 -51c40 0 69 -29 69 -69c0 -16 -4 -29 -12 -40l-78 -137h-4v242c8 3 16 4 25 4z" />
    <glyph glyph-name="Ldot" unicode="&#x13f;" horiz-adv-x="544" 
d="M184 735v-644h350v-91h-452v735h102zM402 401c38 0 66 -28 66 -66c0 -37 -28 -65 -66 -65s-66 28 -66 65c0 38 28 66 66 66z" />
    <glyph glyph-name="Tbar" unicode="&#x166;" horiz-adv-x="649" 
d="M633 735v-91h-258v-256h150v-69h-150v-319h-102v319h-149v69h149v256h-257v91h617z" />
    <glyph glyph-name="Iogonek" unicode="&#x12e;" horiz-adv-x="266" 
d="M184 735v-735h-43c-28 -11 -45 -33 -45 -64c0 -44 31 -67 69 -67c14 0 26 4 34 8l21 -57c-15 -7 -33 -10 -57 -10c-74 0 -133 44 -133 126c0 47 20 76 52 97v702h102z" />
    <glyph glyph-name="Ncommaaccent" unicode="&#x145;" horiz-adv-x="729" 
d="M647 735v-748h-4l-459 507v-494h-102v748h4l459 -506v493h102zM363 -51c40 0 69 -29 69 -69c0 -16 -4 -29 -12 -40l-78 -137h-4v242c8 3 16 4 25 4z" />
    <glyph glyph-name="Lslash" unicode="&#x141;" horiz-adv-x="571" 
d="M210 735v-351l103 51l29 -72l-132 -66v-206h350v-91h-452v246l-81 -40l-29 73l110 54v402h102z" />
    <glyph glyph-name="Hbar" unicode="&#x126;" horiz-adv-x="758" 
d="M663 735v-132h83v-69h-83v-534h-102v324h-365v-324h-102v534h-82v69h82v132h102v-132h365v132h102zM196 414h365v120h-365v-120z" />
    <glyph glyph-name="hbar" unicode="&#x127;" horiz-adv-x="599" 
d="M190 760v-107h114v-69h-114v-137c35 38 78 65 154 65c121 0 190 -86 190 -215v-297h-98v291c0 76 -45 128 -116 128c-59 0 -99 -36 -130 -80v-339h-98v584h-92v69h92v107h98z" />
    <glyph glyph-name="lcommaaccent" unicode="&#x13c;" horiz-adv-x="253" 
d="M175 760v-760h-98v760h98zM105 -51c40 0 69 -29 69 -69c0 -16 -4 -29 -12 -40l-78 -137h-4v242c8 3 16 4 25 4z" />
    <glyph glyph-name="tbar" unicode="&#x167;" horiz-adv-x="398" 
d="M208 672v-170h158v-69h-158v-107h158v-68h-158v-89c0 -58 37 -90 93 -90c32 0 55 6 69 14l21 -79c-19 -12 -54 -24 -100 -24c-110 0 -181 62 -181 178v90h-98v68h98v107h-98v69h98v170h98z" />
    <glyph glyph-name="tcommaaccent" unicode="&#x163;" horiz-adv-x="398" 
d="M208 672v-170h158v-84h-158v-249c0 -58 35 -90 86 -90c34 0 57 7 72 16l28 -77c-24 -15 -59 -28 -108 -28c-107 0 -176 62 -176 178v250h-98v84h98v170h98zM181 -51c40 0 69 -29 69 -69c0 -16 -4 -29 -12 -40l-78 -137h-4v242c8 3 16 4 25 4z" />
    <glyph glyph-name="tcaron" unicode="&#x165;" horiz-adv-x="557" 
d="M208 672v-170h158v-84h-158v-249c0 -58 35 -90 86 -90c34 0 57 7 72 16l28 -77c-24 -15 -59 -28 -108 -28c-107 0 -176 62 -176 178v250h-98v84h98v170h98zM447 752c40 0 69 -29 69 -69c0 -16 -5 -29 -12 -41l-78 -159h-4v265c8 3 16 4 25 4z" />
    <glyph glyph-name="scommaaccent" unicode="&#x219;" horiz-adv-x="457" 
d="M239 512c67 0 128 -23 167 -55l-42 -76c-31 24 -71 44 -125 44c-56 0 -92 -17 -92 -58s29 -51 105 -69c117 -28 170 -76 170 -152c0 -95 -78 -156 -201 -156c-76 0 -146 24 -191 61l45 78c37 -32 87 -52 147 -52s101 20 101 63c0 41 -30 56 -107 74
c-117 27 -167 68 -167 147c0 95 73 151 190 151zM205 -51c40 0 69 -29 69 -69c0 -16 -4 -29 -12 -40l-78 -137h-4v242c8 3 16 4 25 4z" />
    <glyph glyph-name="scedilla" unicode="&#x15f;" horiz-adv-x="457" 
d="M239 512c67 0 128 -23 167 -55l-42 -76c-31 24 -71 44 -125 44c-56 0 -92 -17 -92 -58s29 -51 105 -69c117 -28 170 -76 170 -152c0 -87 -65 -145 -171 -154l-7 -48c55 -5 90 -38 90 -94c0 -61 -40 -102 -109 -102c-42 0 -77 15 -99 40l39 45c13 -15 33 -28 57 -28
c26 0 44 14 44 42c0 25 -13 39 -41 42c-20 2 -34 -1 -48 -7l-3 4l18 105c-64 5 -123 27 -162 60l45 78c37 -32 87 -52 147 -52s101 20 101 63c0 41 -30 56 -107 74c-117 27 -167 68 -167 147c0 95 73 151 190 151z" />
    <glyph glyph-name="rcommaaccent" unicode="&#x157;" horiz-adv-x="334" 
d="M320 512v-98h-9c-62 0 -102 -35 -136 -84v-330h-98v502h89l5 -68c25 40 75 78 149 78zM126 -51c40 0 69 -29 69 -69c0 -16 -4 -29 -12 -40l-78 -137h-4v242c8 3 16 4 25 4z" />
    <glyph glyph-name="oslash" unicode="&#xf8;" 
d="M287 512c36 0 69 -6 99 -18l43 78h66l-57 -106c66 -46 107 -124 107 -216c0 -151 -109 -260 -258 -260c-35 0 -68 7 -97 17l-42 -77h-67l56 104c-66 45 -107 123 -107 216c0 151 108 262 257 262zM287 430c-95 0 -163 -77 -163 -180c0 -57 21 -106 56 -138l166 307
c-18 7 -38 11 -59 11zM450 250c0 56 -21 105 -55 137l-165 -305c17 -7 36 -10 57 -10c94 0 163 75 163 178z" />
    <glyph glyph-name="oslashacute" unicode="&#x1ff;" 
d="M287 512c36 0 69 -6 99 -18l43 78h66l-57 -106c66 -46 107 -124 107 -216c0 -151 -109 -260 -258 -260c-35 0 -68 7 -97 17l-42 -77h-67l56 104c-66 45 -107 123 -107 216c0 151 108 262 257 262zM287 430c-95 0 -163 -77 -163 -180c0 -57 21 -106 56 -138l166 307
c-18 7 -38 11 -59 11zM450 250c0 56 -21 105 -55 137l-165 -305c17 -7 36 -10 57 -10c94 0 163 75 163 178zM469 707l-155 -131h-99l138 131h116z" />
    <glyph glyph-name="aeacute" unicode="&#x1fd;" horiz-adv-x="944" 
d="M680 512c148 0 231 -110 231 -260v-36h-377c7 -90 52 -142 156 -142c62 0 111 26 141 64l68 -57c-49 -59 -121 -91 -206 -91c-87 0 -149 30 -179 71l-4 -61h-83l-4 61c-29 -38 -82 -71 -161 -71c-138 0 -232 110 -232 261s94 261 232 261c79 0 132 -33 161 -71l4 61h84
l4 -61c36 39 89 71 165 71zM676 428c-73 0 -135 -40 -143 -132h281c-4 78 -52 132 -138 132zM280 425c-88 0 -151 -70 -151 -174s63 -174 151 -174c67 0 108 36 138 85v178c-30 49 -71 85 -138 85zM666 707l-155 -131h-99l138 131h116z" />
    <glyph glyph-name="aogonek" unicode="&#x105;" horiz-adv-x="593" 
d="M262 512c79 0 132 -33 161 -71l4 61h89v-502h-11c-28 -11 -45 -33 -45 -64c0 -44 31 -67 69 -67c14 0 26 4 34 8l21 -57c-15 -7 -33 -10 -57 -10c-74 0 -133 44 -133 126c0 36 12 62 32 81l-3 44c-29 -38 -82 -71 -161 -71c-138 0 -232 110 -232 261s94 261 232 261z
M280 425c-88 0 -151 -70 -151 -174s63 -174 151 -174c67 0 108 36 138 85v178c-30 49 -71 85 -138 85z" />
    <glyph glyph-name="aringacute" unicode="&#x1fb;" horiz-adv-x="593" 
d="M262 512c79 0 132 -33 161 -71l4 61h89v-502h-89l-4 61c-29 -38 -82 -71 -161 -71c-138 0 -232 110 -232 261s94 261 232 261zM280 425c-88 0 -151 -70 -151 -174s63 -174 151 -174c67 0 108 36 138 85v178c-30 49 -71 85 -138 85zM459 858l-121 -96
c35 -17 59 -53 59 -97c0 -62 -47 -107 -109 -107c-63 0 -110 45 -110 107c0 31 12 58 31 78h-4l133 115h121zM288 718c-29 0 -52 -23 -52 -53s23 -51 52 -51s52 21 52 51s-23 53 -52 53z" />
    <glyph glyph-name="eogonek" unicode="&#x119;" horiz-adv-x="530" 
d="M270 512c150 0 227 -116 227 -257v-39h-368c3 -92 57 -142 152 -142c66 0 111 29 136 64l68 -57c-27 -34 -60 -58 -99 -73c-16 -12 -25 -30 -25 -53c0 -44 31 -67 69 -67c14 0 26 4 34 8l21 -57c-15 -7 -33 -10 -57 -10c-74 0 -133 44 -133 126c0 13 1 25 4 36
c-6 -1 -12 -1 -18 -1c-155 0 -251 109 -251 260s99 262 240 262zM270 428c-81 0 -136 -52 -141 -132h271c-3 79 -49 132 -130 132z" />
    <glyph glyph-name="Uogonek" unicode="&#x172;" horiz-adv-x="689" 
d="M616 735v-476c0 -129 -57 -222 -166 -257c-20 -12 -32 -32 -32 -58c0 -44 31 -67 69 -67c14 0 26 4 34 8l21 -57c-15 -7 -33 -10 -57 -10c-74 0 -133 44 -133 126c0 17 2 31 7 43h-14c-179 0 -272 107 -272 272v476h102v-470c0 -111 57 -184 170 -184
c111 0 169 73 169 184v470h102z" />
    <glyph glyph-name="ncommaaccent" unicode="&#x146;" horiz-adv-x="583" 
d="M329 512c121 0 190 -86 190 -215v-297h-98v291c0 76 -45 128 -116 128c-59 0 -99 -36 -130 -80v-339h-98v502h89l4 -61c29 37 82 71 159 71zM277 -51c40 0 69 -29 69 -69c0 -16 -4 -29 -12 -40l-78 -137h-4v242c8 3 16 4 25 4z" />
    <glyph glyph-name="ldot" unicode="&#x140;" horiz-adv-x="438" 
d="M175 760v-760h-98v760h98zM341 322c38 0 66 -28 66 -66c0 -37 -28 -65 -66 -65s-66 28 -66 65c0 38 28 66 66 66z" />
    <glyph glyph-name="agrave" unicode="&#xe0;" horiz-adv-x="593" 
d="M262 512c79 0 132 -33 161 -71l4 61h89v-502h-89l-4 61c-29 -38 -82 -71 -161 -71c-138 0 -232 110 -232 261s94 261 232 261zM280 425c-88 0 -151 -70 -151 -174s63 -174 151 -174c67 0 108 36 138 85v178c-30 49 -71 85 -138 85zM209 707l138 -131h-99l-155 131h116z
" />
    <glyph glyph-name="aacute" unicode="&#xe1;" horiz-adv-x="593" 
d="M262 512c79 0 132 -33 161 -71l4 61h89v-502h-89l-4 61c-29 -38 -82 -71 -161 -71c-138 0 -232 110 -232 261s94 261 232 261zM280 425c-88 0 -151 -70 -151 -174s63 -174 151 -174c67 0 108 36 138 85v178c-30 49 -71 85 -138 85zM489 707l-155 -131h-99l138 131h116z
" />
    <glyph glyph-name="acircumflex" unicode="&#xe2;" horiz-adv-x="593" 
d="M262 512c79 0 132 -33 161 -71l4 61h89v-502h-89l-4 61c-29 -38 -82 -71 -161 -71c-138 0 -232 110 -232 261s94 261 232 261zM280 425c-88 0 -151 -70 -151 -174s63 -174 151 -174c67 0 108 36 138 85v178c-30 49 -71 85 -138 85zM293 743l154 -167h-89l-65 65l-66 -65
h-89z" />
    <glyph glyph-name="atilde" unicode="&#xe3;" horiz-adv-x="593" 
d="M262 512c79 0 132 -33 161 -71l4 61h89v-502h-89l-4 61c-29 -38 -82 -71 -161 -71c-138 0 -232 110 -232 261s94 261 232 261zM280 425c-88 0 -151 -70 -151 -174s63 -174 151 -174c67 0 108 36 138 85v178c-30 49 -71 85 -138 85zM232 717c85 0 83 -78 129 -78
c22 0 32 29 32 72h64c0 -95 -45 -139 -102 -139c-87 0 -77 78 -126 78c-25 0 -34 -29 -34 -72h-65c0 98 46 139 102 139z" />
    <glyph glyph-name="adieresis" unicode="&#xe4;" horiz-adv-x="593" 
d="M262 512c79 0 132 -33 161 -71l4 61h89v-502h-89l-4 61c-29 -38 -82 -71 -161 -71c-138 0 -232 110 -232 261s94 261 232 261zM280 425c-88 0 -151 -70 -151 -174s63 -174 151 -174c67 0 108 36 138 85v178c-30 49 -71 85 -138 85zM208 695c32 0 55 -23 55 -54
s-23 -54 -55 -54c-31 0 -54 23 -54 54s23 54 54 54zM379 695c31 0 55 -23 55 -54s-24 -54 -55 -54s-54 23 -54 54s23 54 54 54z" />
    <glyph glyph-name="amacron" unicode="&#x101;" horiz-adv-x="593" 
d="M262 512c79 0 132 -33 161 -71l4 61h89v-502h-89l-4 61c-29 -38 -82 -71 -161 -71c-138 0 -232 110 -232 261s94 261 232 261zM280 425c-88 0 -151 -70 -151 -174s63 -174 151 -174c67 0 108 36 138 85v178c-30 49 -71 85 -138 85zM423 665v-68h-260v68h260z" />
    <glyph glyph-name="abreve" unicode="&#x103;" horiz-adv-x="593" 
d="M262 512c79 0 132 -33 161 -71l4 61h89v-502h-89l-4 61c-29 -38 -82 -71 -161 -71c-138 0 -232 110 -232 261s94 261 232 261zM280 425c-88 0 -151 -70 -151 -174s63 -174 151 -174c67 0 108 36 138 85v178c-30 49 -71 85 -138 85zM445 724c0 -86 -65 -149 -152 -149
s-153 63 -153 149h72c0 -46 33 -81 81 -81c47 0 80 35 80 81h72z" />
    <glyph glyph-name="aring" unicode="&#xe5;" horiz-adv-x="593" 
d="M262 512c79 0 132 -33 161 -71l4 61h89v-502h-89l-4 61c-29 -38 -82 -71 -161 -71c-138 0 -232 110 -232 261s94 261 232 261zM280 425c-88 0 -151 -70 -151 -174s63 -174 151 -174c67 0 108 36 138 85v178c-30 49 -71 85 -138 85zM294 787c62 0 109 -47 109 -109
s-47 -107 -109 -107c-63 0 -110 45 -110 107s47 109 110 109zM294 731c-29 0 -52 -23 -52 -53s23 -51 52 -51s52 21 52 51s-23 53 -52 53z" />
    <glyph glyph-name="cacute" unicode="&#x107;" horiz-adv-x="506" 
d="M283 512c90 0 156 -40 201 -108l-73 -56c-25 41 -66 78 -127 78c-102 0 -155 -75 -155 -175c0 -99 55 -175 156 -175c61 0 104 37 129 78l73 -56c-45 -68 -113 -108 -202 -108c-156 0 -255 110 -255 261s98 261 253 261zM475 707l-155 -131h-99l138 131h116z" />
    <glyph glyph-name="ccircumflex" unicode="&#x109;" horiz-adv-x="506" 
d="M283 512c90 0 156 -40 201 -108l-73 -56c-25 41 -66 78 -127 78c-102 0 -155 -75 -155 -175c0 -99 55 -175 156 -175c61 0 104 37 129 78l73 -56c-45 -68 -113 -108 -202 -108c-156 0 -255 110 -255 261s98 261 253 261zM279 743l154 -167h-89l-65 65l-66 -65h-89z" />
    <glyph glyph-name="ccaron" unicode="&#x10d;" horiz-adv-x="506" 
d="M283 512c90 0 156 -40 201 -108l-73 -56c-25 41 -66 78 -127 78c-102 0 -155 -75 -155 -175c0 -99 55 -175 156 -175c61 0 104 37 129 78l73 -56c-45 -68 -113 -108 -202 -108c-156 0 -255 110 -255 261s98 261 253 261zM433 737l-154 -167l-155 167h89l66 -65l65 65h89z
" />
    <glyph glyph-name="cdotaccent" unicode="&#x10b;" horiz-adv-x="506" 
d="M283 512c90 0 156 -40 201 -108l-73 -56c-25 41 -66 78 -127 78c-102 0 -155 -75 -155 -175c0 -99 55 -175 156 -175c61 0 104 37 129 78l73 -56c-45 -68 -113 -108 -202 -108c-156 0 -255 110 -255 261s98 261 253 261zM279 722c37 0 64 -27 64 -64s-27 -63 -64 -63
s-64 26 -64 63s27 64 64 64z" />
    <glyph glyph-name="dcaron" unicode="&#x10f;" horiz-adv-x="752" 
d="M516 760v-760h-89l-4 61c-29 -38 -82 -71 -161 -71c-138 0 -232 110 -232 261s94 261 232 261c75 0 126 -29 156 -64v312h98zM280 425c-88 0 -151 -70 -151 -174s63 -174 151 -174c67 0 108 36 138 85v178c-30 49 -71 85 -138 85zM642 752c40 0 69 -29 69 -69
c0 -16 -5 -29 -12 -41l-78 -159h-4v265c8 3 16 4 25 4z" />
    <glyph glyph-name="dcroat" unicode="&#x111;" horiz-adv-x="607" 
d="M516 760v-107h90v-69h-90v-584h-89l-4 61c-29 -38 -82 -71 -161 -71c-138 0 -232 110 -232 261s94 261 232 261c75 0 126 -29 156 -64v136h-116v69h116v107h98zM280 425c-88 0 -151 -70 -151 -174s63 -174 151 -174c67 0 108 36 138 85v178c-30 49 -71 85 -138 85z" />
    <glyph glyph-name="egrave" unicode="&#xe8;" horiz-adv-x="530" 
d="M270 512c150 0 227 -116 227 -257v-39h-368c3 -92 57 -142 152 -142c66 0 111 29 136 64l68 -57c-48 -59 -113 -91 -204 -91c-155 0 -251 109 -251 260s99 262 240 262zM270 428c-81 0 -136 -52 -141 -132h271c-3 79 -49 132 -130 132zM184 707l138 -131h-99l-155 131
h116z" />
    <glyph glyph-name="eacute" unicode="&#xe9;" horiz-adv-x="530" 
d="M270 512c150 0 227 -116 227 -257v-39h-368c3 -92 57 -142 152 -142c66 0 111 29 136 64l68 -57c-48 -59 -113 -91 -204 -91c-155 0 -251 109 -251 260s99 262 240 262zM270 428c-81 0 -136 -52 -141 -132h271c-3 79 -49 132 -130 132zM465 707l-155 -131h-99l138 131
h116z" />
    <glyph glyph-name="ecircumflex" unicode="&#xea;" horiz-adv-x="530" 
d="M270 512c150 0 227 -116 227 -257v-39h-368c3 -92 57 -142 152 -142c66 0 111 29 136 64l68 -57c-48 -59 -113 -91 -204 -91c-155 0 -251 109 -251 260s99 262 240 262zM270 428c-81 0 -136 -52 -141 -132h271c-3 79 -49 132 -130 132zM269 743l154 -167h-89l-65 65
l-66 -65h-89z" />
    <glyph glyph-name="ecaron" unicode="&#x11b;" horiz-adv-x="530" 
d="M270 512c150 0 227 -116 227 -257v-39h-368c3 -92 57 -142 152 -142c66 0 111 29 136 64l68 -57c-48 -59 -113 -91 -204 -91c-155 0 -251 109 -251 260s99 262 240 262zM270 428c-81 0 -136 -52 -141 -132h271c-3 79 -49 132 -130 132zM423 737l-154 -167l-155 167h89
l66 -65l65 65h89z" />
    <glyph glyph-name="edieresis" unicode="&#xeb;" horiz-adv-x="530" 
d="M270 512c150 0 227 -116 227 -257v-39h-368c3 -92 57 -142 152 -142c66 0 111 29 136 64l68 -57c-48 -59 -113 -91 -204 -91c-155 0 -251 109 -251 260s99 262 240 262zM270 428c-81 0 -136 -52 -141 -132h271c-3 79 -49 132 -130 132zM183 695c32 0 55 -23 55 -54
s-23 -54 -55 -54c-31 0 -54 23 -54 54s23 54 54 54zM354 695c31 0 55 -23 55 -54s-24 -54 -55 -54s-54 23 -54 54s23 54 54 54z" />
    <glyph glyph-name="emacron" unicode="&#x113;" horiz-adv-x="530" 
d="M270 512c150 0 227 -116 227 -257v-39h-368c3 -92 57 -142 152 -142c66 0 111 29 136 64l68 -57c-48 -59 -113 -91 -204 -91c-155 0 -251 109 -251 260s99 262 240 262zM270 428c-81 0 -136 -52 -141 -132h271c-3 79 -49 132 -130 132zM399 665v-68h-260v68h260z" />
    <glyph glyph-name="ebreve" unicode="&#x115;" horiz-adv-x="530" 
d="M270 512c150 0 227 -116 227 -257v-39h-368c3 -92 57 -142 152 -142c66 0 111 29 136 64l68 -57c-48 -59 -113 -91 -204 -91c-155 0 -251 109 -251 260s99 262 240 262zM270 428c-81 0 -136 -52 -141 -132h271c-3 79 -49 132 -130 132zM421 724c0 -86 -65 -149 -152 -149
s-153 63 -153 149h72c0 -46 33 -81 81 -81c47 0 80 35 80 81h72z" />
    <glyph glyph-name="edotaccent" unicode="&#x117;" horiz-adv-x="530" 
d="M270 512c150 0 227 -116 227 -257v-39h-368c3 -92 57 -142 152 -142c66 0 111 29 136 64l68 -57c-48 -59 -113 -91 -204 -91c-155 0 -251 109 -251 260s99 262 240 262zM270 428c-81 0 -136 -52 -141 -132h271c-3 79 -49 132 -130 132zM269 722c37 0 64 -27 64 -64
s-27 -63 -64 -63s-64 26 -64 63s27 64 64 64z" />
    <glyph glyph-name="gcircumflex" unicode="&#x11d;" horiz-adv-x="594" 
d="M262 512c79 0 132 -33 161 -71l4 61h89v-489c0 -157 -102 -253 -257 -253c-104 0 -178 42 -231 105l65 64c40 -48 92 -82 165 -82c98 0 160 65 160 164v43c-30 -35 -81 -64 -156 -64c-138 0 -232 110 -232 261s94 261 232 261zM280 425c-88 0 -151 -70 -151 -174
s63 -174 151 -174c67 0 108 36 138 85v178c-30 49 -71 85 -138 85zM281 743l154 -167h-89l-65 65l-66 -65h-89z" />
    <glyph glyph-name="gbreve" unicode="&#x11f;" horiz-adv-x="594" 
d="M262 512c79 0 132 -33 161 -71l4 61h89v-489c0 -157 -102 -253 -257 -253c-104 0 -178 42 -231 105l65 64c40 -48 92 -82 165 -82c98 0 160 65 160 164v43c-30 -35 -81 -64 -156 -64c-138 0 -232 110 -232 261s94 261 232 261zM280 425c-88 0 -151 -70 -151 -174
s63 -174 151 -174c67 0 108 36 138 85v178c-30 49 -71 85 -138 85zM433 724c0 -86 -65 -149 -152 -149s-153 63 -153 149h72c0 -46 33 -81 81 -81c47 0 80 35 80 81h72z" />
    <glyph glyph-name="gdotaccent" unicode="&#x121;" horiz-adv-x="594" 
d="M262 512c79 0 132 -33 161 -71l4 61h89v-489c0 -157 -102 -253 -257 -253c-104 0 -178 42 -231 105l65 64c40 -48 92 -82 165 -82c98 0 160 65 160 164v43c-30 -35 -81 -64 -156 -64c-138 0 -232 110 -232 261s94 261 232 261zM280 425c-88 0 -151 -70 -151 -174
s63 -174 151 -174c67 0 108 36 138 85v178c-30 49 -71 85 -138 85zM280 722c37 0 64 -27 64 -64s-27 -63 -64 -63s-64 26 -64 63s27 64 64 64z" />
    <glyph glyph-name="gcommaaccent" unicode="&#x123;" horiz-adv-x="594" 
d="M262 512c79 0 132 -33 161 -71l4 61h89v-489c0 -157 -102 -253 -257 -253c-104 0 -178 42 -231 105l65 64c40 -48 92 -82 165 -82c98 0 160 65 160 164v43c-30 -35 -81 -64 -156 -64c-138 0 -232 110 -232 261s94 261 232 261zM280 425c-88 0 -151 -70 -151 -174
s63 -174 151 -174c67 0 108 36 138 85v178c-30 49 -71 85 -138 85zM336 832v-264c-8 -3 -15 -5 -24 -5c-40 0 -70 30 -70 70c0 16 6 29 13 40l77 159h4z" />
    <glyph glyph-name="hcircumflex" unicode="&#x125;" horiz-adv-x="583" 
d="M175 760v-313c35 38 78 65 154 65c121 0 190 -86 190 -215v-297h-98v291c0 76 -45 128 -116 128c-59 0 -99 -36 -130 -80v-339h-98v760h98zM132 926l159 -145h-91l-68 61l-68 -61h-91z" />
    <glyph glyph-name="igrave" unicode="&#xec;" horiz-adv-x="253" 
d="M42 707l138 -131h-99l-155 131h116zM175 502v-502h-98v502h98z" />
    <glyph glyph-name="iacute" unicode="&#xed;" horiz-adv-x="253" 
d="M322 707l-155 -131h-99l138 131h116zM175 502v-502h-98v502h98z" />
    <glyph glyph-name="icircumflex" unicode="&#xee;" horiz-adv-x="253" 
d="M175 502v-502h-98v502h98zM127 743l154 -167h-89l-65 65l-66 -65h-89z" />
    <glyph glyph-name="itilde" unicode="&#x129;" horiz-adv-x="253" 
d="M65 717c85 0 83 -78 129 -78c22 0 32 29 32 72h64c0 -95 -45 -139 -102 -139c-87 0 -77 78 -126 78c-25 0 -34 -29 -34 -72h-65c0 98 46 139 102 139zM175 502v-502h-98v502h98z" />
    <glyph glyph-name="idieresis" unicode="&#xef;" horiz-adv-x="253" 
d="M41 695c32 0 55 -23 55 -54s-23 -54 -55 -54c-31 0 -54 23 -54 54s23 54 54 54zM212 695c31 0 55 -23 55 -54s-24 -54 -55 -54s-54 23 -54 54s23 54 54 54zM175 502v-502h-98v502h98z" />
    <glyph glyph-name="imacron" unicode="&#x12b;" horiz-adv-x="253" 
d="M257 665v-68h-260v68h260zM175 502v-502h-98v502h98z" />
    <glyph glyph-name="ibreve" unicode="&#x12d;" horiz-adv-x="253" 
d="M279 724c0 -86 -65 -149 -152 -149s-153 63 -153 149h72c0 -46 33 -81 81 -81c47 0 80 35 80 81h72zM175 502v-502h-98v502h98z" />
    <glyph glyph-name="iogonek" unicode="&#x12f;" horiz-adv-x="253" 
d="M175 502v-502h-20c-28 -11 -45 -33 -45 -64c0 -44 31 -67 69 -67c14 0 26 4 34 8l21 -57c-15 -7 -33 -10 -57 -10c-74 0 -133 44 -133 126c0 37 12 63 33 82v484h98zM127 728c36 0 64 -28 64 -64c0 -37 -28 -64 -64 -64c-37 0 -64 27 -64 64c0 36 27 64 64 64z" />
    <glyph glyph-name="jcircumflex" unicode="&#x135;" horiz-adv-x="253" 
d="M175 502v-559c0 -105 -77 -183 -185 -183c-64 0 -114 23 -152 62l64 66c20 -22 48 -41 86 -41c53 0 89 36 89 89v566h98zM127 743l154 -167h-89l-65 65l-66 -65h-89z" />
    <glyph glyph-name="kcommaaccent" unicode="&#x137;" horiz-adv-x="541" 
d="M175 760v-580l217 322h117l-154 -220l179 -282h-115l-126 201l-137 -201h-79v760h98zM268 -51c40 0 69 -29 69 -69c0 -16 -4 -29 -12 -40l-78 -137h-4v242c8 3 16 4 25 4z" />
    <glyph glyph-name="lacute" unicode="&#x13a;" horiz-adv-x="253" 
d="M175 760v-760h-98v760h98zM325 907l-146 -115h-108l133 115h121z" />
    <glyph glyph-name="lcaron" unicode="&#x13e;" horiz-adv-x="412" 
d="M175 760v-760h-98v760h98zM302 752c40 0 69 -29 69 -69c0 -16 -5 -29 -12 -41l-78 -159h-4v265c8 3 16 4 25 4z" />
    <glyph glyph-name="nacute" unicode="&#x144;" horiz-adv-x="583" 
d="M329 512c121 0 190 -86 190 -215v-297h-98v291c0 76 -45 128 -116 128c-59 0 -99 -36 -130 -80v-339h-98v502h89l4 -61c29 37 82 71 159 71zM493 707l-155 -131h-99l138 131h116z" />
    <glyph glyph-name="ncaron" unicode="&#x148;" horiz-adv-x="583" 
d="M329 512c121 0 190 -86 190 -215v-297h-98v291c0 76 -45 128 -116 128c-59 0 -99 -36 -130 -80v-339h-98v502h89l4 -61c29 37 82 71 159 71zM451 737l-154 -167l-155 167h89l66 -65l65 65h89z" />
    <glyph glyph-name="ntilde" unicode="&#xf1;" horiz-adv-x="583" 
d="M329 512c121 0 190 -86 190 -215v-297h-98v291c0 76 -45 128 -116 128c-59 0 -99 -36 -130 -80v-339h-98v502h89l4 -61c29 37 82 71 159 71zM236 717c85 0 83 -78 129 -78c22 0 32 29 32 72h64c0 -95 -45 -139 -102 -139c-87 0 -77 78 -126 78c-25 0 -34 -29 -34 -72h-65
c0 98 46 139 102 139z" />
    <glyph glyph-name="ograve" unicode="&#xf2;" 
d="M287 512c149 0 258 -111 258 -262s-109 -260 -258 -260s-257 109 -257 260s108 262 257 262zM287 425c-92 0 -158 -74 -158 -175c0 -100 66 -173 158 -173s159 73 159 173c0 101 -67 175 -159 175zM202 707l138 -131h-99l-155 131h116z" />
    <glyph glyph-name="oacute" unicode="&#xf3;" 
d="M287 512c149 0 258 -111 258 -262s-109 -260 -258 -260s-257 109 -257 260s108 262 257 262zM287 425c-92 0 -158 -74 -158 -175c0 -100 66 -173 158 -173s159 73 159 173c0 101 -67 175 -159 175zM483 707l-155 -131h-99l138 131h116z" />
    <glyph glyph-name="ocircumflex" unicode="&#xf4;" 
d="M287 512c149 0 258 -111 258 -262s-109 -260 -258 -260s-257 109 -257 260s108 262 257 262zM287 425c-92 0 -158 -74 -158 -175c0 -100 66 -173 158 -173s159 73 159 173c0 101 -67 175 -159 175zM287 743l154 -167h-89l-65 65l-66 -65h-89z" />
    <glyph glyph-name="otilde" unicode="&#xf5;" 
d="M287 512c149 0 258 -111 258 -262s-109 -260 -258 -260s-257 109 -257 260s108 262 257 262zM287 425c-92 0 -158 -74 -158 -175c0 -100 66 -173 158 -173s159 73 159 173c0 101 -67 175 -159 175zM225 717c85 0 83 -78 129 -78c22 0 32 29 32 72h64
c0 -95 -45 -139 -102 -139c-87 0 -77 78 -126 78c-25 0 -34 -29 -34 -72h-65c0 98 46 139 102 139z" />
    <glyph glyph-name="odieresis" unicode="&#xf6;" 
d="M287 512c149 0 258 -111 258 -262s-109 -260 -258 -260s-257 109 -257 260s108 262 257 262zM287 425c-92 0 -158 -74 -158 -175c0 -100 66 -173 158 -173s159 73 159 173c0 101 -67 175 -159 175zM201 695c32 0 55 -23 55 -54s-23 -54 -55 -54c-31 0 -54 23 -54 54
s23 54 54 54zM372 695c31 0 55 -23 55 -54s-24 -54 -55 -54s-54 23 -54 54s23 54 54 54z" />
    <glyph glyph-name="omacron" unicode="&#x14d;" 
d="M287 512c149 0 258 -111 258 -262s-109 -260 -258 -260s-257 109 -257 260s108 262 257 262zM287 425c-92 0 -158 -74 -158 -175c0 -100 66 -173 158 -173s159 73 159 173c0 101 -67 175 -159 175zM417 665v-68h-260v68h260z" />
    <glyph glyph-name="obreve" unicode="&#x14f;" 
d="M287 512c149 0 258 -111 258 -262s-109 -260 -258 -260s-257 109 -257 260s108 262 257 262zM287 425c-92 0 -158 -74 -158 -175c0 -100 66 -173 158 -173s159 73 159 173c0 101 -67 175 -159 175zM439 724c0 -86 -65 -149 -152 -149s-153 63 -153 149h72
c0 -46 33 -81 81 -81c47 0 80 35 80 81h72z" />
    <glyph glyph-name="ohungarumlaut" unicode="&#x151;" 
d="M287 512c149 0 258 -111 258 -262s-109 -260 -258 -260s-257 109 -257 260s108 262 257 262zM287 425c-92 0 -158 -74 -158 -175c0 -100 66 -173 158 -173s159 73 159 173c0 101 -67 175 -159 175zM342 715l-107 -144h-87l107 144h87zM510 715l-106 -144h-88l107 144h87z
" />
    <glyph glyph-name="racute" unicode="&#x155;" horiz-adv-x="334" 
d="M320 512v-98h-9c-62 0 -102 -35 -136 -84v-330h-98v502h89l5 -68c25 40 75 78 149 78zM407 707l-155 -131h-99l138 131h116z" />
    <glyph glyph-name="rcaron" unicode="&#x159;" horiz-adv-x="334" 
d="M320 512v-98h-9c-62 0 -102 -35 -136 -84v-330h-98v502h89l5 -68c25 40 75 78 149 78zM365 737l-154 -167l-155 167h89l66 -65l65 65h89z" />
    <glyph glyph-name="sacute" unicode="&#x15b;" horiz-adv-x="457" 
d="M239 512c67 0 128 -23 167 -55l-42 -76c-31 24 -71 44 -125 44c-56 0 -92 -17 -92 -58s29 -51 105 -69c117 -28 170 -76 170 -152c0 -95 -78 -156 -201 -156c-76 0 -146 24 -191 61l45 78c37 -32 87 -52 147 -52s101 20 101 63c0 41 -30 56 -107 74
c-117 27 -167 68 -167 147c0 95 73 151 190 151zM428 707l-155 -131h-99l138 131h116z" />
    <glyph glyph-name="scircumflex" unicode="&#x15d;" horiz-adv-x="457" 
d="M239 512c67 0 128 -23 167 -55l-42 -76c-31 24 -71 44 -125 44c-56 0 -92 -17 -92 -58s29 -51 105 -69c117 -28 170 -76 170 -152c0 -95 -78 -156 -201 -156c-76 0 -146 24 -191 61l45 78c37 -32 87 -52 147 -52s101 20 101 63c0 41 -30 56 -107 74
c-117 27 -167 68 -167 147c0 95 73 151 190 151zM232 743l154 -167h-89l-65 65l-66 -65h-89z" />
    <glyph glyph-name="scaron" unicode="&#x161;" horiz-adv-x="457" 
d="M239 512c67 0 128 -23 167 -55l-42 -76c-31 24 -71 44 -125 44c-56 0 -92 -17 -92 -58s29 -51 105 -69c117 -28 170 -76 170 -152c0 -95 -78 -156 -201 -156c-76 0 -146 24 -191 61l45 78c37 -32 87 -52 147 -52s101 20 101 63c0 41 -30 56 -107 74
c-117 27 -167 68 -167 147c0 95 73 151 190 151zM386 737l-154 -167l-155 167h89l66 -65l65 65h89z" />
    <glyph glyph-name="ugrave" unicode="&#xf9;" 
d="M498 502v-502h-89l-4 61c-30 -38 -80 -71 -161 -71c-115 0 -179 85 -179 213v299h98v-294c0 -74 40 -125 106 -125c63 0 100 37 131 80v339h98zM196 707l138 -131h-99l-155 131h116z" />
    <glyph glyph-name="uacute" unicode="&#xfa;" 
d="M498 502v-502h-89l-4 61c-30 -38 -80 -71 -161 -71c-115 0 -179 85 -179 213v299h98v-294c0 -74 40 -125 106 -125c63 0 100 37 131 80v339h98zM476 707l-155 -131h-99l138 131h116z" />
    <glyph glyph-name="ucircumflex" unicode="&#xfb;" 
d="M498 502v-502h-89l-4 61c-30 -38 -80 -71 -161 -71c-115 0 -179 85 -179 213v299h98v-294c0 -74 40 -125 106 -125c63 0 100 37 131 80v339h98zM281 743l154 -167h-89l-65 65l-66 -65h-89z" />
    <glyph glyph-name="utilde" unicode="&#x169;" 
d="M498 502v-502h-89l-4 61c-30 -38 -80 -71 -161 -71c-115 0 -179 85 -179 213v299h98v-294c0 -74 40 -125 106 -125c63 0 100 37 131 80v339h98zM219 717c85 0 83 -78 129 -78c22 0 32 29 32 72h64c0 -95 -45 -139 -102 -139c-87 0 -77 78 -126 78c-25 0 -34 -29 -34 -72
h-65c0 98 46 139 102 139z" />
    <glyph glyph-name="udieresis" unicode="&#xfc;" 
d="M498 502v-502h-89l-4 61c-30 -38 -80 -71 -161 -71c-115 0 -179 85 -179 213v299h98v-294c0 -74 40 -125 106 -125c63 0 100 37 131 80v339h98zM195 695c32 0 55 -23 55 -54s-23 -54 -55 -54c-31 0 -54 23 -54 54s23 54 54 54zM366 695c31 0 55 -23 55 -54
s-24 -54 -55 -54s-54 23 -54 54s23 54 54 54z" />
    <glyph glyph-name="umacron" unicode="&#x16b;" 
d="M498 502v-502h-89l-4 61c-30 -38 -80 -71 -161 -71c-115 0 -179 85 -179 213v299h98v-294c0 -74 40 -125 106 -125c63 0 100 37 131 80v339h98zM410 665v-68h-260v68h260z" />
    <glyph glyph-name="ubreve" unicode="&#x16d;" 
d="M498 502v-502h-89l-4 61c-30 -38 -80 -71 -161 -71c-115 0 -179 85 -179 213v299h98v-294c0 -74 40 -125 106 -125c63 0 100 37 131 80v339h98zM433 724c0 -86 -65 -149 -152 -149s-153 63 -153 149h72c0 -46 33 -81 81 -81c47 0 80 35 80 81h72z" />
    <glyph glyph-name="uring" unicode="&#x16f;" 
d="M498 502v-502h-89l-4 61c-30 -38 -80 -71 -161 -71c-115 0 -179 85 -179 213v299h98v-294c0 -74 40 -125 106 -125c63 0 100 37 131 80v339h98zM281 787c62 0 109 -47 109 -109s-47 -107 -109 -107c-63 0 -110 45 -110 107s47 109 110 109zM281 731
c-29 0 -52 -23 -52 -53s23 -51 52 -51s52 21 52 51s-23 53 -52 53z" />
    <glyph glyph-name="uhungarumlaut" unicode="&#x171;" 
d="M498 502v-502h-89l-4 61c-30 -38 -80 -71 -161 -71c-115 0 -179 85 -179 213v299h98v-294c0 -74 40 -125 106 -125c63 0 100 37 131 80v339h98zM336 715l-107 -144h-87l107 144h87zM504 715l-106 -144h-88l107 144h87z" />
    <glyph glyph-name="wgrave" unicode="&#x1e81;" horiz-adv-x="764" 
d="M753 502l-223 -512h-4l-144 298l-145 -298h-4l-223 512h110l122 -291l138 291h4l138 -291l122 291h109zM297 707l138 -131h-99l-155 131h116z" />
    <glyph glyph-name="wacute" unicode="&#x1e83;" horiz-adv-x="764" 
d="M753 502l-223 -512h-4l-144 298l-145 -298h-4l-223 512h110l122 -291l138 291h4l138 -291l122 291h109zM577 707l-155 -131h-99l138 131h116z" />
    <glyph glyph-name="wcircumflex" unicode="&#x175;" horiz-adv-x="764" 
d="M753 502l-223 -512h-4l-144 298l-145 -298h-4l-223 512h110l122 -291l138 291h4l138 -291l122 291h109zM382 743l154 -167h-89l-65 65l-66 -65h-89z" />
    <glyph glyph-name="wdieresis" unicode="&#x1e85;" horiz-adv-x="764" 
d="M753 502l-223 -512h-4l-144 298l-145 -298h-4l-223 512h110l122 -291l138 291h4l138 -291l122 291h109zM296 695c32 0 55 -23 55 -54s-23 -54 -55 -54c-31 0 -54 23 -54 54s23 54 54 54zM467 695c31 0 55 -23 55 -54s-24 -54 -55 -54s-54 23 -54 54s23 54 54 54z" />
    <glyph glyph-name="ygrave" unicode="&#x1ef3;" horiz-adv-x="552" 
d="M537 502l-367 -732h-112l165 312l-207 420h109l151 -310l151 310h110zM184 707l138 -131h-99l-155 131h116z" />
    <glyph glyph-name="yacute" unicode="&#xfd;" horiz-adv-x="552" 
d="M537 502l-367 -732h-112l165 312l-207 420h109l151 -310l151 310h110zM464 707l-155 -131h-99l138 131h116z" />
    <glyph glyph-name="ycircumflex" unicode="&#x177;" horiz-adv-x="552" 
d="M537 502l-367 -732h-112l165 312l-207 420h109l151 -310l151 310h110zM268 743l154 -167h-89l-65 65l-66 -65h-89z" />
    <glyph glyph-name="ydieresis" unicode="&#xff;" horiz-adv-x="552" 
d="M537 502l-367 -732h-112l165 312l-207 420h109l151 -310l151 310h110zM182 695c32 0 55 -23 55 -54s-23 -54 -55 -54c-31 0 -54 23 -54 54s23 54 54 54zM353 695c31 0 55 -23 55 -54s-24 -54 -55 -54s-54 23 -54 54s23 54 54 54z" />
    <glyph glyph-name="zacute" unicode="&#x17a;" horiz-adv-x="453" 
d="M429 502v-4l-250 -414h249v-84h-405v4l249 414h-234v84h391zM422 707l-155 -131h-99l138 131h116z" />
    <glyph glyph-name="zcaron" unicode="&#x17e;" horiz-adv-x="453" 
d="M429 502v-4l-250 -414h249v-84h-405v4l249 414h-234v84h391zM380 737l-154 -167l-155 167h89l66 -65l65 65h89z" />
    <glyph glyph-name="zdotaccent" unicode="&#x17c;" horiz-adv-x="453" 
d="M429 502v-4l-250 -414h249v-84h-405v4l249 414h-234v84h391zM225 722c37 0 64 -27 64 -64s-27 -63 -64 -63s-64 26 -64 63s27 64 64 64z" />
    <glyph glyph-name="eth" unicode="&#xf0;" horiz-adv-x="567" 
d="M285 485c6 0 12 0 17 -1l-59 88h-172v74h122l-76 114h119l76 -114h175v-74h-125l117 -174c36 -43 57 -99 57 -161c0 -143 -106 -247 -251 -247s-250 104 -250 247c0 142 105 248 250 248zM285 403c-88 0 -152 -71 -152 -166s64 -165 152 -165s153 70 153 165
s-65 166 -153 166z" />
    <glyph glyph-name="lslash" unicode="&#x142;" horiz-adv-x="275" 
d="M186 760v-354l77 38l26 -62l-103 -51v-331h-98v282l-75 -37l-27 63l102 50v402h98z" />
    <glyph glyph-name="AEacute" unicode="&#x1fc;" horiz-adv-x="870" 
d="M831 735v-94h-410l93 -225h274v-87h-238l98 -235h191v-94h-264l-64 155h-325l-63 -155h-114l319 735h503zM349 553l-130 -318h260zM693 887l-146 -115h-108l133 115h121z" />
    <glyph glyph-name="Aacute" unicode="&#xc1;" horiz-adv-x="698" 
d="M349 523l-127 -284h254zM351 748l338 -748h-109l-66 150h-330l-66 -150h-109l338 748h4zM538 887l-146 -115h-108l133 115h121z" />
    <glyph glyph-name="Abreve" unicode="&#x102;" horiz-adv-x="698" 
d="M349 523l-127 -284h254zM351 748l338 -748h-109l-66 150h-330l-66 -150h-109l338 748h4zM501 917c0 -84 -65 -145 -152 -145s-153 61 -153 145h71c0 -42 33 -78 82 -78s81 36 81 78h71z" />
    <glyph glyph-name="Acircumflex" unicode="&#xc2;" horiz-adv-x="698" 
d="M349 523l-127 -284h254zM351 748l338 -748h-109l-66 150h-330l-66 -150h-109l338 748h4zM348 916l159 -145h-91l-68 61l-68 -61h-91z" />
    <glyph glyph-name="Adieresis" unicode="&#xc4;" horiz-adv-x="698" 
d="M349 523l-127 -284h254zM351 748l338 -748h-109l-66 150h-330l-66 -150h-109l338 748h4zM263 883c32 0 55 -23 55 -54s-23 -54 -55 -54c-31 0 -54 23 -54 54s23 54 54 54zM434 883c31 0 55 -23 55 -54s-24 -54 -55 -54s-54 23 -54 54s23 54 54 54z" />
    <glyph glyph-name="Agrave" unicode="&#xc0;" horiz-adv-x="698" 
d="M349 523l-127 -284h254zM351 748l338 -748h-109l-66 150h-330l-66 -150h-109l338 748h4zM270 887l133 -115h-108l-146 115h121z" />
    <glyph glyph-name="Amacron" unicode="&#x100;" horiz-adv-x="698" 
d="M349 523l-127 -284h254zM351 748l338 -748h-109l-66 150h-330l-66 -150h-109l338 748h4zM478 857v-69h-260v69h260z" />
    <glyph glyph-name="Aring" unicode="&#xc5;" horiz-adv-x="698" 
d="M349 523l-127 -284h254zM351 748l338 -748h-109l-66 150h-330l-66 -150h-109l338 748h4zM349 986c62 0 109 -46 109 -108c0 -63 -47 -108 -109 -108c-63 0 -110 45 -110 108c0 62 47 108 110 108zM349 931c-29 0 -52 -23 -52 -53c0 -31 23 -52 52 -52s52 21 52 52
c0 30 -23 53 -52 53z" />
    <glyph glyph-name="Atilde" unicode="&#xc3;" horiz-adv-x="698" 
d="M349 523l-127 -284h254zM351 748l338 -748h-109l-66 150h-330l-66 -150h-109l338 748h4zM287 915c85 0 83 -78 129 -78c22 0 32 29 32 72h64c0 -95 -45 -139 -102 -139c-87 0 -77 78 -126 78c-25 0 -34 -29 -34 -72h-65c0 98 46 139 102 139z" />
    <glyph glyph-name="Cacute" unicode="&#x106;" horiz-adv-x="680" 
d="M403 748c110 0 192 -38 260 -107l-65 -74c-47 51 -113 87 -195 87c-159 0 -267 -121 -267 -287c0 -165 108 -286 267 -286c85 0 153 38 200 92l64 -76c-69 -75 -158 -110 -264 -110c-216 0 -370 162 -370 380c0 219 154 381 370 381zM586 897l-146 -115h-108l133 115h121
z" />
    <glyph glyph-name="Ccaron" unicode="&#x10c;" horiz-adv-x="680" 
d="M403 748c110 0 192 -38 260 -107l-65 -74c-47 51 -113 87 -195 87c-159 0 -267 -121 -267 -287c0 -165 108 -286 267 -286c85 0 153 38 200 92l64 -76c-69 -75 -158 -110 -264 -110c-216 0 -370 162 -370 380c0 219 154 381 370 381zM555 917l-159 -144l-159 144h91
l68 -60l68 60h91z" />
    <glyph glyph-name="Ccircumflex" unicode="&#x108;" horiz-adv-x="680" 
d="M403 748c110 0 192 -38 260 -107l-65 -74c-47 51 -113 87 -195 87c-159 0 -267 -121 -267 -287c0 -165 108 -286 267 -286c85 0 153 38 200 92l64 -76c-69 -75 -158 -110 -264 -110c-216 0 -370 162 -370 380c0 219 154 381 370 381zM396 926l159 -145h-91l-68 61
l-68 -61h-91z" />
    <glyph glyph-name="Cdotaccent" unicode="&#x10a;" horiz-adv-x="680" 
d="M403 748c110 0 192 -38 260 -107l-65 -74c-47 51 -113 87 -195 87c-159 0 -267 -121 -267 -287c0 -165 108 -286 267 -286c85 0 153 38 200 92l64 -76c-69 -75 -158 -110 -264 -110c-216 0 -370 162 -370 380c0 219 154 381 370 381zM396 900c35 0 60 -25 60 -60
c0 -34 -25 -59 -60 -59c-34 0 -59 25 -59 59c0 35 25 60 59 60z" />
    <glyph glyph-name="Dcaron" unicode="&#x10e;" horiz-adv-x="732" 
d="M304 735c248 0 395 -135 395 -367s-145 -368 -395 -368h-222v735h222zM301 640h-117v-546h117c191 0 295 101 295 274c0 172 -106 272 -295 272zM495 907l-159 -144l-159 144h91l68 -60l68 60h91z" />
    <glyph glyph-name="Eacute" unicode="&#xc9;" horiz-adv-x="577" 
d="M537 735v-94h-353v-223h310v-91h-310v-233h361v-94h-463v735h455zM508 887l-146 -115h-108l133 115h121z" />
    <glyph glyph-name="Ebreve" unicode="&#x114;" horiz-adv-x="577" 
d="M537 735v-94h-353v-223h310v-91h-310v-233h361v-94h-463v735h455zM470 917c0 -84 -65 -145 -152 -145s-153 61 -153 145h71c0 -42 33 -78 82 -78s81 36 81 78h71z" />
    <glyph glyph-name="Ecaron" unicode="&#x11a;" horiz-adv-x="577" 
d="M537 735v-94h-353v-223h310v-91h-310v-233h361v-94h-463v735h455zM476 907l-159 -144l-159 144h91l68 -60l68 60h91z" />
    <glyph glyph-name="Ecircumflex" unicode="&#xca;" horiz-adv-x="577" 
d="M537 735v-94h-353v-223h310v-91h-310v-233h361v-94h-463v735h455zM317 916l159 -145h-91l-68 61l-68 -61h-91z" />
    <glyph glyph-name="Edieresis" unicode="&#xcb;" horiz-adv-x="577" 
d="M537 735v-94h-353v-223h310v-91h-310v-233h361v-94h-463v735h455zM232 883c32 0 55 -23 55 -54s-23 -54 -55 -54c-31 0 -54 23 -54 54s23 54 54 54zM403 883c31 0 55 -23 55 -54s-24 -54 -55 -54s-54 23 -54 54s23 54 54 54z" />
    <glyph glyph-name="Edotaccent" unicode="&#x116;" horiz-adv-x="577" 
d="M537 735v-94h-353v-223h310v-91h-310v-233h361v-94h-463v735h455zM317 890c35 0 60 -25 60 -60c0 -34 -25 -59 -60 -59c-34 0 -59 25 -59 59c0 35 25 60 59 60z" />
    <glyph glyph-name="Egrave" unicode="&#xc8;" horiz-adv-x="577" 
d="M537 735v-94h-353v-223h310v-91h-310v-233h361v-94h-463v735h455zM239 887l133 -115h-108l-146 115h121z" />
    <glyph glyph-name="Emacron" unicode="&#x112;" horiz-adv-x="577" 
d="M537 735v-94h-353v-223h310v-91h-310v-233h361v-94h-463v735h455zM448 857v-69h-260v69h260z" />
    <glyph glyph-name="Gbreve" unicode="&#x11e;" horiz-adv-x="740" 
d="M403 748c110 0 192 -38 260 -107l-65 -74c-47 51 -113 87 -195 87c-159 0 -267 -121 -267 -287c0 -165 112 -286 277 -286c66 0 122 20 166 52v165h-187v89h289v-304c-68 -63 -160 -96 -268 -96c-222 0 -380 162 -380 380c0 219 154 381 370 381zM549 927
c0 -84 -65 -145 -152 -145s-153 61 -153 145h71c0 -42 33 -78 82 -78s81 36 81 78h71z" />
    <glyph glyph-name="Gcircumflex" unicode="&#x11c;" horiz-adv-x="740" 
d="M403 748c110 0 192 -38 260 -107l-65 -74c-47 51 -113 87 -195 87c-159 0 -267 -121 -267 -287c0 -165 112 -286 277 -286c66 0 122 20 166 52v165h-187v89h289v-304c-68 -63 -160 -96 -268 -96c-222 0 -380 162 -380 380c0 219 154 381 370 381zM397 926l159 -145h-91
l-68 61l-68 -61h-91z" />
    <glyph glyph-name="Gdotaccent" unicode="&#x120;" horiz-adv-x="740" 
d="M403 748c110 0 192 -38 260 -107l-65 -74c-47 51 -113 87 -195 87c-159 0 -267 -121 -267 -287c0 -165 112 -286 277 -286c66 0 122 20 166 52v165h-187v89h289v-304c-68 -63 -160 -96 -268 -96c-222 0 -380 162 -380 380c0 219 154 381 370 381zM397 900
c35 0 60 -25 60 -60c0 -34 -25 -59 -60 -59c-34 0 -59 25 -59 59c0 35 25 60 59 60z" />
    <glyph glyph-name="Hcircumflex" unicode="&#x124;" horiz-adv-x="733" 
d="M651 735v-735h-102v329h-365v-329h-102v735h102v-312h365v312h102zM366 916l159 -145h-91l-68 61l-68 -61h-91z" />
    <glyph glyph-name="Iacute" unicode="&#xcd;" horiz-adv-x="266" 
d="M184 735v-735h-102v735h102zM322 887l-146 -115h-108l133 115h121z" />
    <glyph glyph-name="Ibreve" unicode="&#x12c;" horiz-adv-x="266" 
d="M184 735v-735h-102v735h102zM286 917c0 -84 -65 -145 -152 -145s-153 61 -153 145h71c0 -42 33 -78 82 -78s81 36 81 78h71z" />
    <glyph glyph-name="Idotaccent" unicode="&#x130;" horiz-adv-x="266" 
d="M184 735v-735h-102v735h102zM132 890c35 0 60 -25 60 -60c0 -34 -25 -59 -60 -59c-34 0 -59 25 -59 59c0 35 25 60 59 60z" />
    <glyph glyph-name="Icircumflex" unicode="&#xce;" horiz-adv-x="266" 
d="M184 735v-735h-102v735h102zM133 916l159 -145h-91l-68 61l-68 -61h-91z" />
    <glyph glyph-name="Idieresis" unicode="&#xcf;" horiz-adv-x="266" 
d="M184 735v-735h-102v735h102zM48 883c32 0 55 -23 55 -54s-23 -54 -55 -54c-31 0 -54 23 -54 54s23 54 54 54zM219 883c31 0 55 -23 55 -54s-24 -54 -55 -54s-54 23 -54 54s23 54 54 54z" />
    <glyph glyph-name="Igrave" unicode="&#xcc;" horiz-adv-x="266" 
d="M184 735v-735h-102v735h102zM55 887l133 -115h-108l-146 115h121z" />
    <glyph glyph-name="Imacron" unicode="&#x12a;" horiz-adv-x="266" 
d="M184 735v-735h-102v735h102zM263 857v-69h-260v69h260z" />
    <glyph glyph-name="Itilde" unicode="&#x128;" horiz-adv-x="266" 
d="M184 735v-735h-102v735h102zM72 915c85 0 83 -78 129 -78c22 0 32 29 32 72h64c0 -95 -45 -139 -102 -139c-87 0 -77 78 -126 78c-25 0 -34 -29 -34 -72h-65c0 98 46 139 102 139z" />
    <glyph glyph-name="Jcircumflex" unicode="&#x134;" horiz-adv-x="540" 
d="M469 735v-525c0 -136 -91 -223 -223 -223c-121 0 -226 84 -226 239h100c0 -92 48 -145 123 -145c77 0 124 50 124 134v520h102zM414 916l159 -145h-91l-68 61l-68 -61h-91z" />
    <glyph glyph-name="Lacute" unicode="&#x139;" horiz-adv-x="544" 
d="M184 735v-644h350v-91h-452v735h102zM325 887l-146 -115h-108l133 115h121z" />
    <glyph glyph-name="Nacute" unicode="&#x143;" horiz-adv-x="729" 
d="M647 735v-748h-4l-459 507v-494h-102v748h4l459 -506v493h102zM554 887l-146 -115h-108l133 115h121z" />
    <glyph glyph-name="Ncaron" unicode="&#x147;" horiz-adv-x="729" 
d="M647 735v-748h-4l-459 507v-494h-102v748h4l459 -506v493h102zM523 907l-159 -144l-159 144h91l68 -60l68 60h91z" />
    <glyph glyph-name="Ntilde" unicode="&#xd1;" horiz-adv-x="729" 
d="M647 735v-748h-4l-459 507v-494h-102v748h4l459 -506v493h102zM303 915c85 0 83 -78 129 -78c22 0 32 29 32 72h64c0 -95 -45 -139 -102 -139c-87 0 -77 78 -126 78c-25 0 -34 -29 -34 -72h-65c0 98 46 139 102 139z" />
    <glyph glyph-name="Oacute" unicode="&#xd3;" horiz-adv-x="806" 
d="M403 748c213 0 371 -162 371 -381c0 -220 -158 -380 -371 -380c-214 0 -370 160 -370 380c0 219 156 381 370 381zM403 654c-156 0 -267 -121 -267 -287s111 -286 267 -286s267 120 267 286s-111 287 -267 287zM593 897l-146 -115h-108l133 115h121z" />
    <glyph glyph-name="Obreve" unicode="&#x14e;" horiz-adv-x="806" 
d="M403 748c213 0 371 -162 371 -381c0 -220 -158 -380 -371 -380c-214 0 -370 160 -370 380c0 219 156 381 370 381zM403 654c-156 0 -267 -121 -267 -287s111 -286 267 -286s267 120 267 286s-111 287 -267 287zM555 927c0 -84 -65 -145 -152 -145s-153 61 -153 145h71
c0 -42 33 -78 82 -78s81 36 81 78h71z" />
    <glyph glyph-name="Ocircumflex" unicode="&#xd4;" horiz-adv-x="806" 
d="M403 748c213 0 371 -162 371 -381c0 -220 -158 -380 -371 -380c-214 0 -370 160 -370 380c0 219 156 381 370 381zM403 654c-156 0 -267 -121 -267 -287s111 -286 267 -286s267 120 267 286s-111 287 -267 287zM402 926l159 -145h-91l-68 61l-68 -61h-91z" />
    <glyph glyph-name="Odieresis" unicode="&#xd6;" horiz-adv-x="806" 
d="M403 748c213 0 371 -162 371 -381c0 -220 -158 -380 -371 -380c-214 0 -370 160 -370 380c0 219 156 381 370 381zM403 654c-156 0 -267 -121 -267 -287s111 -286 267 -286s267 120 267 286s-111 287 -267 287zM317 893c32 0 55 -23 55 -54s-23 -54 -55 -54
c-31 0 -54 23 -54 54s23 54 54 54zM488 893c31 0 55 -23 55 -54s-24 -54 -55 -54s-54 23 -54 54s23 54 54 54z" />
    <glyph glyph-name="Ograve" unicode="&#xd2;" horiz-adv-x="806" 
d="M403 748c213 0 371 -162 371 -381c0 -220 -158 -380 -371 -380c-214 0 -370 160 -370 380c0 219 156 381 370 381zM403 654c-156 0 -267 -121 -267 -287s111 -286 267 -286s267 120 267 286s-111 287 -267 287zM324 897l133 -115h-108l-146 115h121z" />
    <glyph glyph-name="Ohungarumlaut" unicode="&#x150;" horiz-adv-x="806" 
d="M403 748c213 0 371 -162 371 -381c0 -220 -158 -380 -371 -380c-214 0 -370 160 -370 380c0 219 156 381 370 381zM403 654c-156 0 -267 -121 -267 -287s111 -286 267 -286s267 120 267 286s-111 287 -267 287zM457 903l-98 -119h-85l96 119h87zM619 903l-98 -119h-85
l96 119h87z" />
    <glyph glyph-name="Omacron" unicode="&#x14c;" horiz-adv-x="806" 
d="M403 748c213 0 371 -162 371 -381c0 -220 -158 -380 -371 -380c-214 0 -370 160 -370 380c0 219 156 381 370 381zM403 654c-156 0 -267 -121 -267 -287s111 -286 267 -286s267 120 267 286s-111 287 -267 287zM533 867v-69h-260v69h260z" />
    <glyph glyph-name="Otilde" unicode="&#xd5;" horiz-adv-x="806" 
d="M403 748c213 0 371 -162 371 -381c0 -220 -158 -380 -371 -380c-214 0 -370 160 -370 380c0 219 156 381 370 381zM403 654c-156 0 -267 -121 -267 -287s111 -286 267 -286s267 120 267 286s-111 287 -267 287zM341 925c85 0 83 -78 129 -78c22 0 32 29 32 72h64
c0 -95 -45 -139 -102 -139c-87 0 -77 78 -126 78c-25 0 -34 -29 -34 -72h-65c0 98 46 139 102 139z" />
    <glyph glyph-name="Racute" unicode="&#x154;" horiz-adv-x="632" 
d="M324 735c146 0 259 -81 259 -228c0 -107 -60 -179 -149 -211l184 -296h-120l-172 279h-144v-279h-102v735h244zM315 645h-133v-276h133c100 0 165 47 165 138c0 90 -66 138 -165 138zM496 887l-146 -115h-108l133 115h121z" />
    <glyph glyph-name="Rcaron" unicode="&#x158;" horiz-adv-x="632" 
d="M324 735c146 0 259 -81 259 -228c0 -107 -60 -179 -149 -211l184 -296h-120l-172 279h-144v-279h-102v735h244zM315 645h-133v-276h133c100 0 165 47 165 138c0 90 -66 138 -165 138zM464 907l-159 -144l-159 144h91l68 -60l68 60h91z" />
    <glyph glyph-name="Sacute" unicode="&#x15a;" horiz-adv-x="585" 
d="M285 748c99 0 181 -32 239 -78l-54 -84c-47 39 -109 68 -186 68c-80 0 -138 -36 -138 -115c0 -65 42 -90 166 -116c179 -39 245 -100 245 -213c0 -133 -101 -223 -262 -223c-109 0 -200 34 -269 94l57 85c52 -52 135 -85 215 -85c92 0 157 42 157 121
c0 64 -48 96 -172 122c-179 39 -239 101 -239 211c0 129 96 213 241 213zM479 891l-146 -115h-108l133 115h121z" />
    <glyph glyph-name="Scaron" unicode="&#x160;" horiz-adv-x="585" 
d="M285 748c99 0 181 -32 239 -78l-54 -84c-47 39 -109 68 -186 68c-80 0 -138 -36 -138 -115c0 -65 42 -90 166 -116c179 -39 245 -100 245 -213c0 -133 -101 -223 -262 -223c-109 0 -200 34 -269 94l57 85c52 -52 135 -85 215 -85c92 0 157 42 157 121
c0 64 -48 96 -172 122c-179 39 -239 101 -239 211c0 129 96 213 241 213zM447 911l-159 -144l-159 144h91l68 -60l68 60h91z" />
    <glyph glyph-name="Scircumflex" unicode="&#x15c;" horiz-adv-x="585" 
d="M285 748c99 0 181 -32 239 -78l-54 -84c-47 39 -109 68 -186 68c-80 0 -138 -36 -138 -115c0 -65 42 -90 166 -116c179 -39 245 -100 245 -213c0 -133 -101 -223 -262 -223c-109 0 -200 34 -269 94l57 85c52 -52 135 -85 215 -85c92 0 157 42 157 121
c0 64 -48 96 -172 122c-179 39 -239 101 -239 211c0 129 96 213 241 213zM288 920l159 -145h-91l-68 61l-68 -61h-91z" />
    <glyph glyph-name="Tcaron" unicode="&#x164;" horiz-adv-x="649" 
d="M633 735v-91h-258v-644h-102v644h-257v91h617zM482 907l-159 -144l-159 144h91l68 -60l68 60h91z" />
    <glyph glyph-name="Uacute" unicode="&#xda;" horiz-adv-x="689" 
d="M616 735v-476c0 -165 -93 -272 -271 -272c-179 0 -272 107 -272 272v476h102v-470c0 -111 57 -184 170 -184c111 0 169 73 169 184v470h102zM534 887l-146 -115h-108l133 115h121z" />
    <glyph glyph-name="Ubreve" unicode="&#x16c;" horiz-adv-x="689" 
d="M616 735v-476c0 -165 -93 -272 -271 -272c-179 0 -272 107 -272 272v476h102v-470c0 -111 57 -184 170 -184c111 0 169 73 169 184v470h102zM496 917c0 -84 -65 -145 -152 -145s-153 61 -153 145h71c0 -42 33 -78 82 -78s81 36 81 78h71z" />
    <glyph glyph-name="Ucircumflex" unicode="&#xdb;" horiz-adv-x="689" 
d="M616 735v-476c0 -165 -93 -272 -271 -272c-179 0 -272 107 -272 272v476h102v-470c0 -111 57 -184 170 -184c111 0 169 73 169 184v470h102zM344 916l159 -145h-91l-68 61l-68 -61h-91z" />
    <glyph glyph-name="Udieresis" unicode="&#xdc;" horiz-adv-x="689" 
d="M616 735v-476c0 -165 -93 -272 -271 -272c-179 0 -272 107 -272 272v476h102v-470c0 -111 57 -184 170 -184c111 0 169 73 169 184v470h102zM259 883c32 0 55 -23 55 -54s-23 -54 -55 -54c-31 0 -54 23 -54 54s23 54 54 54zM430 883c31 0 55 -23 55 -54s-24 -54 -55 -54
s-54 23 -54 54s23 54 54 54z" />
    <glyph glyph-name="Ugrave" unicode="&#xd9;" horiz-adv-x="689" 
d="M616 735v-476c0 -165 -93 -272 -271 -272c-179 0 -272 107 -272 272v476h102v-470c0 -111 57 -184 170 -184c111 0 169 73 169 184v470h102zM266 887l133 -115h-108l-146 115h121z" />
    <glyph glyph-name="Uhungarumlaut" unicode="&#x170;" horiz-adv-x="689" 
d="M616 735v-476c0 -165 -93 -272 -271 -272c-179 0 -272 107 -272 272v476h102v-470c0 -111 57 -184 170 -184c111 0 169 73 169 184v470h102zM399 893l-98 -119h-85l96 119h87zM561 893l-98 -119h-85l96 119h87z" />
    <glyph glyph-name="Umacron" unicode="&#x16a;" horiz-adv-x="689" 
d="M616 735v-476c0 -165 -93 -272 -271 -272c-179 0 -272 107 -272 272v476h102v-470c0 -111 57 -184 170 -184c111 0 169 73 169 184v470h102zM474 857v-69h-260v69h260z" />
    <glyph glyph-name="Uring" unicode="&#x16e;" horiz-adv-x="689" 
d="M616 735v-476c0 -165 -93 -272 -271 -272c-179 0 -272 107 -272 272v476h102v-470c0 -111 57 -184 170 -184c111 0 169 73 169 184v470h102zM345 986c62 0 109 -46 109 -108c0 -63 -47 -108 -109 -108c-63 0 -110 45 -110 108c0 62 47 108 110 108zM345 931
c-29 0 -52 -23 -52 -53c0 -31 23 -52 52 -52s52 21 52 52c0 30 -23 53 -52 53z" />
    <glyph glyph-name="Utilde" unicode="&#x168;" horiz-adv-x="689" 
d="M616 735v-476c0 -165 -93 -272 -271 -272c-179 0 -272 107 -272 272v476h102v-470c0 -111 57 -184 170 -184c111 0 169 73 169 184v470h102zM283 915c85 0 83 -78 129 -78c22 0 32 29 32 72h64c0 -95 -45 -139 -102 -139c-87 0 -77 78 -126 78c-25 0 -34 -29 -34 -72h-65
c0 98 46 139 102 139z" />
    <glyph glyph-name="Wacute" unicode="&#x1e82;" horiz-adv-x="978" 
d="M968 735l-288 -747h-4l-187 479l-187 -479h-4l-288 747h113l177 -478l187 478h4l187 -478l177 478h113zM679 887l-146 -115h-108l133 115h121z" />
    <glyph glyph-name="Wcircumflex" unicode="&#x174;" horiz-adv-x="978" 
d="M968 735l-288 -747h-4l-187 479l-187 -479h-4l-288 747h113l177 -478l187 478h4l187 -478l177 478h113zM488 916l159 -145h-91l-68 61l-68 -61h-91z" />
    <glyph glyph-name="Wdieresis" unicode="&#x1e84;" horiz-adv-x="978" 
d="M968 735l-288 -747h-4l-187 479l-187 -479h-4l-288 747h113l177 -478l187 478h4l187 -478l177 478h113zM403 883c32 0 55 -23 55 -54s-23 -54 -55 -54c-31 0 -54 23 -54 54s23 54 54 54zM574 883c31 0 55 -23 55 -54s-24 -54 -55 -54s-54 23 -54 54s23 54 54 54z" />
    <glyph glyph-name="Wgrave" unicode="&#x1e80;" horiz-adv-x="978" 
d="M968 735l-288 -747h-4l-187 479l-187 -479h-4l-288 747h113l177 -478l187 478h4l187 -478l177 478h113zM410 887l133 -115h-108l-146 115h121z" />
    <glyph glyph-name="Yacute" unicode="&#xdd;" horiz-adv-x="660" 
d="M653 734l-272 -423v-311h-102v309l-272 425h119l204 -322l203 322h120zM519 887l-146 -115h-108l133 115h121z" />
    <glyph glyph-name="Ycircumflex" unicode="&#x176;" horiz-adv-x="660" 
d="M653 734l-272 -423v-311h-102v309l-272 425h119l204 -322l203 322h120zM329 916l159 -145h-91l-68 61l-68 -61h-91z" />
    <glyph glyph-name="Ydieresis" unicode="&#x178;" horiz-adv-x="660" 
d="M653 734l-272 -423v-311h-102v309l-272 425h119l204 -322l203 322h120zM244 883c32 0 55 -23 55 -54s-23 -54 -55 -54c-31 0 -54 23 -54 54s23 54 54 54zM415 883c31 0 55 -23 55 -54s-24 -54 -55 -54s-54 23 -54 54s23 54 54 54z" />
    <glyph glyph-name="Ygrave" unicode="&#x1ef2;" horiz-adv-x="660" 
d="M653 734l-272 -423v-311h-102v309l-272 425h119l204 -322l203 322h120zM251 887l133 -115h-108l-146 115h121z" />
    <glyph glyph-name="Zacute" unicode="&#x179;" horiz-adv-x="580" 
d="M542 735v-4l-355 -638h366v-93h-528v4l358 638h-342v93h501zM479 887l-146 -115h-108l133 115h121z" />
    <glyph glyph-name="Zcaron" unicode="&#x17d;" horiz-adv-x="580" 
d="M542 735v-4l-355 -638h366v-93h-528v4l358 638h-342v93h501zM447 907l-159 -144l-159 144h91l68 -60l68 60h91z" />
    <glyph glyph-name="Zdotaccent" unicode="&#x17b;" horiz-adv-x="580" 
d="M542 735v-4l-355 -638h366v-93h-528v4l358 638h-342v93h501zM288 890c35 0 60 -25 60 -60c0 -34 -25 -59 -60 -59c-34 0 -59 25 -59 59c0 35 25 60 59 60z" />
    <glyph glyph-name="Lcaron" unicode="&#x13d;" horiz-adv-x="544" 
d="M184 735v-644h350v-91h-452v735h102zM454 752c40 0 69 -29 69 -69c0 -16 -5 -29 -12 -41l-78 -159h-4v265c8 3 16 4 25 4z" />
    <glyph glyph-name="G.smcp_I.smcp" horiz-adv-x="670" 
d="M335 779c174 0 304 -135 304 -313c0 -181 -130 -312 -304 -312c-176 0 -303 131 -303 312c0 178 127 313 303 313zM335 717c-138 0 -237 -109 -237 -251c0 -144 99 -251 237 -251c137 0 237 107 237 251c0 142 -100 251 -237 251z" />
    <glyph glyph-name="zero.slash" horiz-adv-x="589" 
d="M295 748c164 0 257 -148 257 -380c0 -233 -93 -381 -257 -381c-165 0 -258 148 -258 381c0 232 93 380 258 380zM295 663c-106 0 -157 -116 -157 -295c0 -66 6 -123 20 -170l230 421c-24 28 -55 44 -93 44zM451 368c0 65 -7 121 -21 167l-229 -421c24 -28 55 -43 94 -43
c105 0 156 117 156 297z" />
    </font>
</defs>
</svg>
