<?xml version="1.0" standalone="no"?>
<!DOCTYPE svg PUBLIC "-//W3C//DTD SVG 1.1//EN" "http://www.w3.org/Graphics/SVG/1.1/DTD/svg11.dtd" >
<svg xmlns="http://www.w3.org/2000/svg" xmlns:xlink="http://www.w3.org/1999/xlink" version="1.1">
<metadata>
Created by FontForge 20161116 at Mon Oct 21 17:44:21 2013
 By Jimmy Wärting
Copyright (c) 2013 by Nico Inosanto. All rights reserved.
</metadata>
<defs>
<font id="Radikal-LightItalic" horiz-adv-x="585" >
  <font-face 
    font-family="Radikal Light"
    font-weight="300"
    font-style="italic"
    font-stretch="normal"
    units-per-em="1000"
    panose-1="0 0 0 0 0 0 0 0 0 0"
    ascent="750"
    descent="-250"
    x-height="500"
    cap-height="735"
    bbox="-229 -282 1218 1057"
    underline-thickness="50"
    underline-position="-100"
    unicode-range="U+0020-FB01"
  />
<missing-glyph horiz-adv-x="594" 
d="M142 699h463l-123 -699h-462zM536 658h-345l125 -274zM549 609l-214 -267l120 -268zM305 306l-212 -264h332zM168 610l-92 -526l211 264z" />
    <glyph glyph-name="fi" unicode="fi" horiz-adv-x="584" 
d="M362 760c35 0 62 -8 81 -23l-34 -60c-12 11 -29 18 -56 18c-55 0 -96 -44 -107 -104l-16 -91h140l-11 -64h-140l-77 -436h-73l77 436h-91l12 64h91l15 89c18 98 92 171 189 171zM542 500l-88 -500h-72l87 500h73zM543 715c27 0 45 -19 45 -46c0 -33 -29 -59 -62 -59
c-27 0 -44 19 -44 45c0 33 27 60 61 60z" />
    <glyph glyph-name="f_j" unicode="fj" horiz-adv-x="584" 
d="M362 760c35 0 62 -8 81 -23l-34 -60c-12 11 -29 18 -56 18c-55 0 -96 -44 -107 -104l-16 -91h140l-11 -64h-140l-77 -436h-73l77 436h-91l12 64h91l15 89c18 98 92 171 189 171zM542 500l-103 -582c-16 -90 -90 -158 -188 -158c-63 0 -105 23 -134 59l52 46
c18 -22 45 -40 84 -40c58 0 104 41 114 99l102 576h73zM543 715c27 0 45 -19 45 -46c0 -33 -29 -59 -62 -59c-27 0 -44 19 -44 45c0 33 27 60 61 60z" />
    <glyph glyph-name=".notdef" horiz-adv-x="594" 
d="M142 699h463l-123 -699h-462zM536 658h-345l125 -274zM549 609l-214 -267l120 -268zM305 306l-212 -264h332zM168 610l-92 -526l211 264z" />
    <glyph glyph-name=".null" horiz-adv-x="0" 
 />
    <glyph glyph-name="CR" horiz-adv-x="250" 
 />
    <glyph glyph-name="space" unicode=" " horiz-adv-x="241" 
 />
    <glyph glyph-name="q" unicode="q" 
d="M309 510c83 0 132 -38 156 -76l15 66h67l-129 -730h-72l50 288c-36 -36 -92 -68 -173 -68c-127 0 -196 93 -196 221c0 149 113 299 282 299zM308 444c-120 0 -208 -117 -208 -231c0 -95 51 -158 132 -158c89 0 140 50 180 96l38 212c-23 48 -65 81 -142 81z" />
    <glyph glyph-name="r" unicode="r" horiz-adv-x="316" 
d="M346 510l-14 -73h-7c-63 0 -110 -33 -155 -88l-62 -349h-72l87 500h67l-8 -65c33 38 87 75 164 75z" />
    <glyph glyph-name="a" unicode="a" 
d="M309 510c87 0 136 -42 156 -76l14 66h67l-88 -500h-67l11 64c-37 -38 -93 -74 -179 -74c-127 0 -196 93 -196 221c0 149 113 299 282 299zM308 444c-120 0 -208 -117 -208 -231c0 -95 51 -158 132 -158c89 0 140 50 180 96l38 212c-23 48 -65 81 -142 81z" />
    <glyph glyph-name="b" unicode="b" 
d="M245 760l-56 -319c36 36 92 69 173 69c127 0 196 -94 196 -221c0 -150 -112 -299 -282 -299c-83 0 -132 37 -156 76l-15 -66h-66l133 760h73zM353 444c-89 0 -140 -49 -180 -95l-38 -212c23 -49 65 -82 142 -82c120 0 208 117 208 231c0 96 -51 158 -132 158z" />
    <glyph glyph-name="d" unicode="d" 
d="M592 760l-134 -760h-67l11 64c-36 -38 -93 -74 -179 -74c-127 0 -196 93 -196 221c0 149 113 299 282 299c83 0 132 -39 154 -72l57 322h72zM308 444c-120 0 -208 -117 -208 -231c0 -95 51 -158 132 -158c89 0 140 50 180 96l38 212c-23 48 -65 81 -142 81z" />
    <glyph glyph-name="c" unicode="c" horiz-adv-x="499" 
d="M321 510c95 0 150 -53 177 -110l-57 -37c-19 43 -57 82 -126 82c-125 0 -215 -107 -215 -237c0 -92 46 -153 148 -153c69 0 123 40 157 83l51 -44c-50 -60 -122 -104 -215 -104c-142 0 -214 91 -214 214c0 173 129 306 294 306z" />
    <glyph glyph-name="e" unicode="e" horiz-adv-x="524" 
d="M307 510c146 0 211 -112 184 -256l-5 -30h-385c-11 -101 36 -172 142 -172c71 0 123 29 164 70l46 -44c-58 -58 -130 -88 -217 -88c-138 0 -209 87 -209 207c0 155 105 313 280 313zM302 446c-98 0 -168 -72 -190 -163h313c14 93 -23 163 -123 163z" />
    <glyph glyph-name="l" unicode="l" horiz-adv-x="238" 
d="M243 760l-135 -760h-72l134 760h73z" />
    <glyph glyph-name="f" unicode="f" horiz-adv-x="343" 
d="M359 760c45 0 78 -16 99 -41l-38 -53c-14 18 -34 29 -64 29c-58 0 -99 -44 -110 -104l-16 -91h140l-11 -63h-140l-77 -437h-73l77 437h-91l12 63h91l16 90c19 105 86 170 185 170z" />
    <glyph glyph-name="g" unicode="g" horiz-adv-x="586" 
d="M309 510c83 0 132 -39 154 -72l17 62h67l-88 -498c-27 -151 -135 -242 -279 -242c-107 0 -171 42 -212 105l54 44c32 -50 82 -84 157 -84c111 0 188 69 208 181l11 62c-32 -37 -89 -72 -175 -72c-127 0 -196 87 -196 215c0 149 113 299 282 299zM308 444
c-120 0 -208 -117 -208 -231c0 -95 51 -152 132 -152c89 0 140 50 180 95l38 207c-23 48 -65 81 -142 81z" />
    <glyph glyph-name="h" unicode="h" horiz-adv-x="576" 
d="M242 760l-57 -324c33 34 92 74 171 74c124 0 177 -98 155 -221l-51 -289h-72l52 295c15 86 -19 145 -96 145c-79 0 -127 -40 -175 -92l-61 -348h-72l134 760h72z" />
    <glyph glyph-name="i" unicode="i" horiz-adv-x="238" 
d="M196 500l-88 -500h-72l87 500h73zM197 715c27 0 45 -19 45 -46c0 -33 -29 -59 -62 -59c-27 0 -44 19 -44 45c0 33 27 60 61 60z" />
    <glyph glyph-name="j" unicode="j" horiz-adv-x="238" 
d="M196 500l-103 -582c-16 -90 -90 -158 -188 -158c-63 0 -105 23 -134 59l52 46c18 -22 45 -40 84 -40c58 0 104 41 114 99l102 576h73zM197 715c27 0 45 -19 45 -46c0 -33 -29 -59 -62 -59c-27 0 -44 19 -44 45c0 33 27 60 61 60z" />
    <glyph glyph-name="k" unicode="k" horiz-adv-x="522" 
d="M243 760l-109 -617l298 357h92l-194 -227l136 -273h-78l-108 213l-179 -213h-65l134 760h73z" />
    <glyph glyph-name="s" unicode="s" horiz-adv-x="449" 
d="M265 510c67 0 119 -23 153 -54l-41 -56c-28 27 -65 44 -120 44c-66 0 -118 -28 -118 -87c0 -41 30 -55 99 -72c112 -27 151 -62 151 -126c0 -107 -103 -169 -213 -169c-78 0 -137 24 -176 61l43 58c37 -34 79 -54 143 -54c59 0 130 30 130 97c0 38 -33 57 -104 73
c-101 25 -147 57 -147 125c0 97 90 160 200 160z" />
    <glyph glyph-name="u" unicode="u" horiz-adv-x="566" 
d="M527 500l-88 -500h-67l9 66c-34 -35 -87 -76 -171 -76c-118 0 -171 95 -149 219l51 291h72l-52 -297c-15 -86 16 -144 90 -144c78 0 124 40 171 91l61 350h73z" />
    <glyph glyph-name="t" unicode="t" horiz-adv-x="385" 
d="M250 670l-30 -170h165l-13 -63h-164l-48 -278c-12 -67 18 -102 76 -102c31 0 59 6 78 16l13 -60c-22 -14 -60 -23 -104 -23c-95 0 -154 63 -135 173l47 274h-101l12 63h101l30 170h73z" />
    <glyph glyph-name="v" unicode="v" horiz-adv-x="524" 
d="M550 500l-338 -510h-4l-158 510h77l106 -357l232 357h85z" />
    <glyph glyph-name="w" unicode="w" horiz-adv-x="758" 
d="M784 500l-303 -510h-4l-87 351l-213 -351h-4l-123 510h76l76 -343l209 343h4l86 -343l198 343h85z" />
    <glyph glyph-name="x" unicode="x" horiz-adv-x="483" 
d="M496 500l-212 -252l130 -248h-84l-102 200l-172 -200h-88l220 261l-125 239h83l98 -194l165 194h87z" />
    <glyph glyph-name="y" unicode="y" horiz-adv-x="538" 
d="M561 500l-481 -730h-83l200 293l-136 437h77l106 -357l232 357h85z" />
    <glyph glyph-name="z" unicode="z" horiz-adv-x="440" 
d="M461 500l-1 -4l-348 -433h272l-11 -63h-390l1 4l346 433h-255l10 63h376z" />
    <glyph glyph-name="p" unicode="p" 
d="M362 510c127 0 196 -94 196 -221c0 -150 -112 -299 -282 -299c-83 0 -132 38 -154 72l-51 -292h-72l128 730h66l-9 -64c36 38 93 74 178 74zM353 444c-89 0 -140 -50 -180 -95l-38 -213c23 -48 65 -81 142 -81c120 0 208 117 208 231c0 96 -51 158 -132 158z" />
    <glyph glyph-name="L" unicode="L" horiz-adv-x="543" 
d="M242 735l-118 -667h369l-12 -68h-444l129 735h76z" />
    <glyph glyph-name="N" unicode="N" horiz-adv-x="725" 
d="M718 735l-132 -748h-4l-370 577l-99 -564h-76l132 748h4l371 -577l98 564h76z" />
    <glyph glyph-name="O" unicode="O" horiz-adv-x="802" 
d="M484 748c189 0 306 -134 306 -318c0 -228 -191 -443 -438 -443c-190 0 -306 134 -306 318c0 228 191 443 438 443zM474 678c-193 0 -352 -177 -352 -371c0 -148 92 -250 240 -250c192 0 352 176 352 370c0 149 -92 251 -240 251z" />
    <glyph glyph-name="E" unicode="E" horiz-adv-x="569" 
d="M611 735l-12 -70h-369l-45 -258h326l-14 -68h-326l-46 -269h377l-12 -70h-453l129 735h445z" />
    <glyph glyph-name="F" unicode="F" horiz-adv-x="531" 
d="M595 735l-11 -70h-354l-47 -268h302l-14 -69h-302l-56 -328h-76l129 735h429z" />
    <glyph glyph-name="D" unicode="D" horiz-adv-x="729" 
d="M373 735c215 0 342 -116 342 -303c0 -253 -186 -432 -462 -432h-216l129 735h207zM368 665h-138l-105 -595h138c217 -5 376 146 376 362c0 148 -93 233 -271 233z" />
    <glyph glyph-name="C" unicode="C" horiz-adv-x="679" 
d="M478 748c110 0 187 -41 242 -108l-52 -51c-42 55 -107 89 -193 89c-186 0 -353 -156 -353 -372c-2 -159 102 -249 238 -249c89 0 170 35 234 94l42 -60c-79 -68 -174 -104 -280 -104c-178 0 -311 119 -310 316c0 248 197 445 432 445z" />
    <glyph glyph-name="H" unicode="H" horiz-adv-x="724" 
d="M717 735l-129 -735h-76l60 341h-399l-60 -341h-76l129 735h76l-57 -324h399l57 324h76z" />
    <glyph glyph-name="B" unicode="B" horiz-adv-x="656" 
d="M412 735c135 0 199 -70 199 -166c0 -85 -49 -155 -121 -187c70 -18 121 -61 121 -147c0 -157 -129 -235 -277 -235h-297l129 735h246zM372 342h-202l-47 -272h215c100 0 198 50 198 165c0 72 -52 107 -164 107zM394 665h-165l-46 -255h177c87 0 173 56 173 151
c0 69 -42 104 -139 104z" />
    <glyph glyph-name="A" unicode="A" horiz-adv-x="684" 
d="M430 748l197 -748h-77l-46 173h-345l-105 -173h-87l459 748h4zM401 574l-200 -334h285z" />
    <glyph glyph-name="G" unicode="G" horiz-adv-x="735" 
d="M480 748c109 0 187 -39 242 -106l-55 -53c-42 54 -108 89 -194 89c-180 0 -321 -135 -346 -326c-25 -173 75 -295 242 -295c77 0 147 22 203 60l34 189h-202l12 67h278l-52 -293c-77 -60 -171 -93 -280 -93c-214 0 -338 150 -312 362c27 225 209 399 430 399z" />
    <glyph glyph-name="I" unicode="I" horiz-adv-x="249" 
d="M242 735l-129 -735h-76l129 735h76z" />
    <glyph glyph-name="J" unicode="J" horiz-adv-x="526" 
d="M523 735l-94 -534c-24 -136 -116 -214 -244 -214c-113 0 -206 81 -180 228h72c-17 -99 32 -158 113 -158c85 0 147 54 164 151l93 527h76z" />
    <glyph glyph-name="K" unicode="K" horiz-adv-x="646" 
d="M661 735l-269 -355l194 -380h-89l-158 312l-238 -312h-64l129 735h76l-99 -562l423 562h95z" />
    <glyph glyph-name="M" unicode="M" horiz-adv-x="865" 
d="M859 748l-131 -748h-75l82 478l-350 -482h-7l-179 499l-86 -495h-76l131 748h4l230 -612l453 612h4z" />
    <glyph glyph-name="P" unicode="P" horiz-adv-x="601" 
d="M397 735c130 0 221 -72 222 -189c0 -164 -130 -264 -298 -264h-159l-49 -282h-76l129 735h231zM384 668h-153l-57 -319h152c117 0 216 64 216 192c0 82 -60 127 -158 127z" />
    <glyph glyph-name="R" unicode="R" horiz-adv-x="615" 
d="M379 735c135 0 230 -70 230 -189c0 -127 -83 -212 -196 -244l137 -302h-82l-131 290c-9 -1 -18 -1 -27 -1h-147l-50 -289h-76l129 735h213zM370 667h-139l-56 -310h140c111 0 217 60 217 185c-1 83 -62 125 -162 125z" />
    <glyph glyph-name="S" unicode="S" horiz-adv-x="576" 
d="M344 748c100 0 172 -35 220 -81l-47 -56c-41 40 -102 67 -176 67c-99 0 -184 -58 -184 -150c0 -67 47 -94 159 -119c145 -33 208 -87 208 -185c0 -147 -131 -237 -289 -237c-109 0 -189 38 -244 96l49 57c46 -50 117 -83 199 -83c118 0 209 66 209 157
c0 67 -52 101 -158 125c-153 35 -209 87 -209 179c0 134 113 230 263 230z" />
    <glyph glyph-name="T" unicode="T" horiz-adv-x="642" 
d="M701 735l-11 -68h-268l-117 -667h-76l117 667h-267l11 68h611z" />
    <glyph glyph-name="U" unicode="U" horiz-adv-x="687" 
d="M688 735l-84 -479c-29 -167 -134 -269 -306 -269c-171 0 -255 105 -225 275l83 473h76l-83 -475c-22 -125 24 -203 154 -203c125 0 204 80 225 203l84 475h76z" />
    <glyph glyph-name="V" unicode="V" horiz-adv-x="713" 
d="M771 735l-474 -747h-4l-211 747h79l158 -579l365 579h87z" />
    <glyph glyph-name="W" unicode="W" horiz-adv-x="986" 
d="M1045 735l-413 -747h-4l-99 549l-292 -549h-4l-151 747h76l107 -550l292 550h4l99 -547l297 547h88z" />
    <glyph glyph-name="X" unicode="X" horiz-adv-x="656" 
d="M701 735l-314 -363l192 -372h-86l-167 317l-278 -317h-90l325 376l-183 359h87l158 -304l264 304h92z" />
    <glyph glyph-name="Y" unicode="Y" horiz-adv-x="641" 
d="M697 735l-348 -419l-56 -316h-75l55 315l-201 420h84l163 -343l284 343h94z" />
    <glyph glyph-name="Z" unicode="Z" horiz-adv-x="573" 
d="M613 735v-4l-497 -661h392l-13 -70h-515v4l497 661h-365l12 70h489z" />
    <glyph glyph-name="n" unicode="n" horiz-adv-x="576" 
d="M356 510c124 0 177 -98 155 -221l-51 -289h-72l52 295c15 86 -19 145 -96 145c-79 0 -127 -40 -175 -92l-61 -348h-72l87 500h67l-9 -67c33 34 92 77 175 77z" />
    <glyph glyph-name="o" unicode="o" horiz-adv-x="567" 
d="M318 444c-119 0 -218 -111 -218 -235c0 -91 59 -154 150 -154c118 0 217 112 217 236c0 91 -58 153 -149 153zM327 510c132 0 214 -91 214 -216c0 -159 -131 -304 -300 -304c-132 0 -214 91 -214 215c0 159 130 305 300 305z" />
    <glyph glyph-name="m" unicode="m" horiz-adv-x="909" 
d="M693 510c124 0 173 -98 151 -221l-51 -289h-73l52 295c15 86 -14 145 -90 145s-129 -40 -176 -98c0 -17 -2 -35 -5 -53l-51 -289h-72l52 295c15 86 -15 145 -91 145s-123 -39 -169 -90l-62 -350h-72l87 500h67l-9 -67c32 34 90 77 170 77c79 0 127 -40 146 -102
c41 48 110 102 196 102z" />
    <glyph glyph-name="Q" unicode="Q" horiz-adv-x="802" 
d="M480 748c189 0 306 -134 306 -318c0 -127 -59 -249 -154 -333l135 -198h-89l-105 153c-65 -41 -142 -65 -225 -65c-190 0 -306 134 -306 318c0 228 191 443 438 443zM470 678c-193 0 -352 -177 -352 -371c0 -148 92 -250 240 -250c64 0 124 19 176 53l-82 121l59 44
l81 -120c72 70 118 168 118 272c0 149 -92 251 -240 251z" />
    <glyph glyph-name="zero" unicode="0" horiz-adv-x="586" 
d="M364 681c-148 0 -244 -213 -244 -433c0 -121 44 -194 137 -194c148 0 244 213 244 432c0 122 -44 195 -137 195zM372 748c136 0 201 -102 201 -263c0 -278 -132 -498 -324 -498c-136 0 -202 102 -202 263c0 278 133 498 325 498z" />
    <glyph glyph-name="one" unicode="1" horiz-adv-x="362" 
d="M361 748l-131 -748h-74l109 614l-161 -103l-31 60l284 177h4z" />
    <glyph glyph-name="two" unicode="2" horiz-adv-x="528" 
d="M348 748c113 0 183 -72 183 -177s-56 -186 -134 -264l-235 -240h294l-11 -67h-428l1 6l322 339c60 62 117 132 117 222c0 73 -47 113 -115 113c-84 0 -138 -43 -172 -130l-66 17c45 118 127 181 244 181z" />
    <glyph glyph-name="three" unicode="3" horiz-adv-x="524" 
d="M347 748c111 0 177 -72 177 -171c0 -89 -50 -156 -138 -193c65 -24 104 -83 104 -156c0 -134 -113 -241 -254 -241c-138 0 -191 66 -214 170l68 19c17 -72 53 -122 147 -122c93 0 180 77 180 178c0 74 -53 124 -140 124h-83l12 60h83c84 0 161 65 161 155
c0 70 -44 110 -112 110c-76 0 -129 -44 -168 -114l-62 30c48 88 126 151 239 151z" />
    <glyph glyph-name="five" unicode="5" horiz-adv-x="533" 
d="M538 735l-12 -67h-297l-45 -252c32 16 74 30 121 30c120 0 192 -80 192 -188c0 -144 -109 -271 -265 -271c-127 0 -182 63 -207 155l64 28c16 -68 55 -116 145 -116c102 0 190 92 190 198c0 78 -43 131 -128 131c-66 0 -116 -23 -157 -50l-39 18l67 384h371z" />
    <glyph glyph-name="six" unicode="6" horiz-adv-x="539" 
d="M302 465c119 0 200 -86 200 -202c0 -144 -123 -276 -279 -276c-119 0 -200 85 -200 201c0 73 31 143 82 194l302 353h88l-234 -273c13 2 27 3 41 3zM293 398c-104 0 -195 -97 -195 -206c0 -81 56 -139 134 -139c103 0 194 98 194 207c0 81 -55 138 -133 138z" />
    <glyph glyph-name="nine" unicode="9" horiz-adv-x="539" 
d="M349 748c120 0 200 -85 200 -202c0 -72 -31 -142 -82 -193l-301 -353h-89l234 273c-13 -2 -27 -3 -40 -3c-120 0 -200 85 -200 202c0 144 123 276 278 276zM341 682c-104 0 -195 -98 -195 -207c0 -81 56 -138 133 -138c104 0 195 97 195 206c0 81 -55 139 -133 139z" />
    <glyph glyph-name="four" unicode="4" horiz-adv-x="545" 
d="M502 739l-92 -517h110l-12 -68h-109l-27 -154h-74l27 154h-330l1 4l501 581h5zM392 518l-257 -297h202z" />
    <glyph glyph-name="seven" unicode="7" horiz-adv-x="533" 
d="M595 735l-1 -6l-503 -729h-85l466 667h-373l11 68h485z" />
    <glyph glyph-name="eight" unicode="8" horiz-adv-x="539" 
d="M347 748c101 0 174 -68 173 -162c0 -93 -62 -160 -128 -195c42 -22 99 -74 100 -159c0 -140 -125 -245 -274 -245c-114 0 -201 73 -201 187c0 117 92 188 166 221c-42 24 -69 72 -69 133c0 119 108 220 233 220zM280 357c-90 0 -189 -76 -189 -174
c0 -79 56 -134 134 -134c95 0 192 76 192 181c0 74 -57 127 -137 127zM340 686c-81 0 -157 -68 -157 -155c-1 -66 43 -112 109 -112c79 0 157 71 157 157c0 64 -42 110 -109 110z" />
    <glyph glyph-name="ampersand" unicode="&#x26;" horiz-adv-x="674" 
d="M355 748c89 0 141 -53 142 -130c0 -106 -89 -157 -179 -207c9 -13 19 -26 29 -39l114 -158l125 120h94l-179 -175l116 -159h-90l-78 109c-66 -60 -149 -119 -252 -119c-108 0 -190 65 -190 173c0 131 95 197 215 263c-29 45 -50 91 -50 143c0 99 74 175 183 179zM294 326
l-37 50c-82 -45 -176 -99 -176 -206c-1 -72 53 -114 122 -114c85 0 150 56 206 108zM242 574c0 -42 17 -78 42 -115c60 33 143 74 143 154c0 48 -29 73 -76 73c-65 0 -109 -49 -109 -112z" />
    <glyph glyph-name="germandbls" unicode="&#xdf;" horiz-adv-x="642" 
d="M373 748c112 0 178 -73 178 -168c0 -87 -47 -148 -131 -184c57 -16 122 -71 122 -162c0 -145 -117 -247 -258 -247c-51 0 -85 10 -113 28l29 64c22 -14 42 -24 84 -24c96 0 181 74 181 175c0 61 -32 101 -89 119c-33 11 -54 14 -89 14l9 56c34 0 54 6 82 17
c54 22 96 69 97 132c2 72 -46 113 -111 113c-82 0 -146 -46 -164 -147l-94 -534h-73l94 535c25 142 123 213 246 213z" />
    <glyph glyph-name="section" unicode="&#xa7;" horiz-adv-x="414" 
d="M235 436c-71 0 -131 -57 -131 -132c0 -52 35 -83 92 -83c67 0 131 54 131 129c0 53 -36 86 -92 86zM291 748c63 0 108 -23 137 -54l-45 -44c-21 22 -52 37 -94 37c-61 0 -123 -43 -123 -108c0 -38 21 -59 62 -74c25 -8 51 -9 77 -20c54 -21 88 -73 88 -133
c0 -75 -47 -134 -121 -168c38 -20 59 -55 59 -99c0 -103 -102 -177 -207 -177c-69 0 -117 24 -148 66l48 43c23 -29 54 -48 105 -48c62 0 134 41 134 112c0 37 -19 55 -58 70c-20 7 -41 8 -62 14c-66 15 -105 71 -105 137c0 77 49 141 121 170c-40 21 -62 58 -62 104
c0 98 93 172 194 172z" />
    <glyph glyph-name="paragraph" unicode="&#xb6;" horiz-adv-x="672" 
d="M721 735l-11 -60h-92l-138 -785h-64l139 785h-113l-138 -785h-64l74 417h-3c-146 0 -254 65 -236 202c18 152 150 226 311 226h335z" />
    <glyph glyph-name="at" unicode="@" horiz-adv-x="833" 
d="M473 627c202 0 328 -136 328 -316c0 -112 -53 -288 -197 -288c-51 0 -74 23 -78 61l-1 7c-31 -35 -79 -68 -150 -68c-106 0 -175 75 -175 177c0 127 91 258 233 258c78 0 117 -37 134 -66l13 57h57l-57 -328c-6 -30 6 -44 34 -44c93 0 130 135 130 233
c0 158 -103 263 -273 263c-207 0 -393 -175 -393 -392c-2 -162 101 -269 265 -269c53 0 99 8 142 24l9 -50c-49 -17 -101 -27 -151 -27c-199 0 -321 132 -321 321c0 239 202 447 451 447zM438 402c-103 0 -175 -92 -175 -196c0 -77 45 -127 118 -127c63 0 106 31 142 74
l31 181c-21 38 -54 68 -116 68z" />
    <glyph glyph-name="endash" unicode="&#x2013;" horiz-adv-x="559" 
d="M518 292l-13 -67h-475l13 67h475z" />
    <glyph glyph-name="emdash" unicode="&#x2014;" horiz-adv-x="803" 
d="M763 292l-12 -67h-719l12 67h719z" />
    <glyph glyph-name="hyphen" unicode="-" horiz-adv-x="440" 
d="M403 292l-12 -67h-356l12 67h356z" />
    <glyph glyph-name="period" unicode="." horiz-adv-x="193" 
d="M70 106c32 0 52 -21 49 -53c-2 -35 -34 -63 -67 -63s-52 21 -49 53c2 35 33 63 67 63z" />
    <glyph glyph-name="quoteright" unicode="&#x2019;" horiz-adv-x="171" 
d="M157 748c31 0 51 -21 49 -51c-1 -16 -8 -28 -16 -39l-90 -150h-4l42 238c6 2 12 2 19 2z" />
    <glyph glyph-name="quoteleft" unicode="&#x2018;" horiz-adv-x="171" 
d="M202 765l-42 -237c-7 -2 -13 -3 -20 -3c-31 0 -51 21 -49 52c2 15 8 28 16 38l91 150h4z" />
    <glyph glyph-name="quotesingle" unicode="'" horiz-adv-x="144" 
d="M123 748l67 -14l-78 -256h-31z" />
    <glyph glyph-name="quotedblright" unicode="&#x201d;" horiz-adv-x="338" 
d="M155 748c31 0 51 -21 49 -51c-1 -16 -8 -28 -16 -39l-90 -150h-4l42 238c6 2 12 2 19 2zM320 748c31 0 51 -21 49 -51c-1 -16 -8 -28 -16 -39l-90 -150h-4l42 238c6 2 12 2 19 2z" />
    <glyph glyph-name="quotedblleft" unicode="&#x201c;" horiz-adv-x="338" 
d="M203 765l-42 -237c-7 -2 -13 -3 -20 -3c-31 0 -51 21 -49 52c2 15 8 28 16 38l91 150h4zM371 765l-42 -237c-7 -2 -13 -3 -20 -3c-31 0 -51 21 -49 52c2 15 8 28 16 38l91 150h4z" />
    <glyph glyph-name="dollar" unicode="$" horiz-adv-x="573" 
d="M416 869l-22 -124c75 -10 130 -40 170 -78l-47 -56c-41 40 -102 67 -176 67c-99 0 -184 -58 -184 -150c0 -67 47 -94 159 -119c145 -33 208 -87 208 -185c0 -139 -117 -226 -263 -236l-20 -117h-62l19 118c-90 7 -159 42 -207 94l49 57c46 -50 117 -83 199 -83
c118 0 209 66 209 157c0 67 -52 101 -158 125c-153 35 -209 87 -209 179c0 130 107 225 251 230l22 121h62z" />
    <glyph glyph-name="minus" unicode="&#x2212;" horiz-adv-x="472" 
d="M451 384l-12 -67h-388l12 67h388z" />
    <glyph glyph-name="plus" unicode="+" horiz-adv-x="472" 
d="M316 544l-29 -160h162l-12 -67h-162l-28 -162h-67l28 162h-160l12 67h160l29 160h67z" />
    <glyph glyph-name="multiply" unicode="&#xd7;" horiz-adv-x="436" 
d="M384 520l43 -53l-145 -120l99 -119l-56 -48l-99 122l-144 -122l-44 51l145 122l-98 120l56 47l100 -120z" />
    <glyph glyph-name="parenleft" unicode="(" horiz-adv-x="275" 
d="M265 692l50 -44c-90 -88 -179 -204 -201 -387c-22 -159 24 -263 71 -333l-57 -39c-53 78 -107 196 -83 370c23 201 123 337 220 433z" />
    <glyph glyph-name="parenright" unicode=")" horiz-adv-x="275" 
d="M141 690c54 -78 108 -196 84 -369c-23 -202 -123 -337 -220 -433l-49 44c88 88 178 203 200 387c22 158 -25 262 -72 333z" />
    <glyph glyph-name="asterisk" unicode="*" horiz-adv-x="402" 
d="M306 734l-27 -139l138 46l9 -52l-140 -41l64 -110l-50 -32l-59 110l-99 -110l-39 32l103 110l-127 41l27 52l123 -46l22 139h55z" />
    <glyph glyph-name="slash" unicode="/" horiz-adv-x="449" 
d="M525 734l-488 -734h-79l490 734h77z" />
    <glyph glyph-name="percent" unicode="%" horiz-adv-x="858" 
d="M788 735l-611 -735h-76l612 735h75zM279 693c-78 0 -141 -73 -141 -153c0 -60 36 -103 96 -103c79 0 142 71 142 153c0 59 -37 103 -97 103zM286 748c92 0 149 -67 149 -154c0 -109 -85 -212 -207 -212c-92 0 -149 65 -149 153c0 109 86 213 207 213zM655 299
c-78 0 -141 -74 -141 -154c0 -60 37 -102 96 -102c79 0 142 71 142 153c0 59 -37 103 -97 103zM662 354c93 0 150 -66 150 -154c0 -109 -86 -212 -208 -212c-92 0 -149 65 -149 154c0 108 86 212 207 212z" />
    <glyph glyph-name="Euro" unicode="&#x20ac;" horiz-adv-x="655" 
d="M419 309l-9 -53h-237c5 -127 70 -202 179 -202c85 0 141 35 187 74l39 -56c-60 -50 -135 -86 -239 -86c-149 0 -239 103 -243 270h-73l10 53h65c1 20 4 42 8 64c3 18 7 36 12 54h-64l9 53h71c61 169 185 268 338 268c107 0 163 -41 201 -89l-55 -51
c-28 37 -70 72 -158 72c-107 0 -197 -75 -247 -200h237l-10 -53h-245c-5 -19 -10 -39 -13 -60c-4 -20 -6 -40 -8 -58h245z" />
    <glyph glyph-name="question" unicode="?" horiz-adv-x="473" 
d="M306 748c110 0 179 -70 179 -168c0 -183 -200 -208 -221 -324l-11 -62h-75l14 69c26 150 216 166 216 316c1 65 -44 102 -108 102c-77 0 -126 -42 -155 -117l-72 15c41 105 120 169 233 169zM198 92c28 0 46 -21 45 -48c-3 -32 -32 -57 -62 -57c-29 0 -46 19 -44 47
c2 31 29 58 61 58z" />
    <glyph glyph-name="sterling" unicode="&#xa3;" horiz-adv-x="569" 
d="M371 748c107 0 165 -68 180 -140l-73 -22c-10 56 -48 95 -114 95c-94 0 -147 -71 -162 -170c-5 -37 -6 -74 -4 -112h192l-11 -61h-178c2 -22 1 -48 -1 -68c-12 -82 -52 -147 -90 -203h205c79 0 122 34 138 122h72c-21 -122 -88 -189 -210 -189h-331v4
c60 81 149 188 144 328v6h-79l11 61h65c-2 39 -2 72 3 109c19 147 112 240 243 240z" />
    <glyph glyph-name="braceleft" unicode="{" horiz-adv-x="332" 
d="M383 699l-11 -61c-71 0 -143 -39 -146 -148l-4 -79c0 -69 -33 -106 -80 -125c42 -18 62 -55 35 -125l-22 -78c-36 -109 23 -143 94 -143l-11 -61c-126 0 -208 70 -149 223l23 77c24 64 -15 96 -80 111l1 4c71 16 122 47 119 112l3 77c-4 152 102 216 228 216z" />
    <glyph glyph-name="braceright" unicode="}" horiz-adv-x="332" 
d="M101 699c126 0 208 -70 150 -223l-24 -77c-24 -64 15 -96 79 -111l-1 -4c-70 -16 -120 -48 -118 -112l-3 -77c4 -153 -102 -216 -227 -216l11 61c70 0 142 39 145 148l4 78c-1 70 33 107 81 126c-43 18 -63 55 -37 125l24 78c35 109 -23 143 -95 143z" />
    <glyph glyph-name="bar" unicode="|" horiz-adv-x="228" 
d="M224 699l-145 -820h-71l145 820h71z" />
    <glyph glyph-name="bracketleft" unicode="[" horiz-adv-x="295" 
d="M341 699l-11 -61h-144l-123 -698h144l-11 -61h-214l144 820h215z" />
    <glyph glyph-name="fraction" unicode="&#x2044;" horiz-adv-x="191" 
d="M391 734l-491 -734h-70l493 734h68z" />
    <glyph glyph-name="florin" unicode="&#x192;" horiz-adv-x="356" 
d="M372 752c45 0 81 -18 107 -46l-41 -53c-15 20 -36 32 -68 32c-53 0 -92 -41 -110 -105l-22 -80h111l-18 -64h-112l-149 -519c-25 -89 -89 -157 -181 -157c-45 0 -81 18 -107 45l41 53c15 -19 36 -32 68 -32c53 0 93 41 110 105l144 505h-76l18 64h76l27 94
c26 90 91 158 182 158z" />
    <glyph glyph-name="perthousand" unicode="&#x2030;" horiz-adv-x="1263" 
d="M788 735l-611 -735h-76l612 735h75zM279 693c-78 0 -141 -73 -141 -153c0 -60 36 -103 96 -103c79 0 142 71 142 153c0 59 -37 103 -97 103zM286 748c92 0 149 -67 149 -154c0 -109 -85 -212 -207 -212c-92 0 -149 65 -149 153c0 109 86 213 207 213zM655 299
c-78 0 -141 -74 -141 -154c0 -60 37 -102 96 -102c79 0 142 71 142 153c0 59 -37 103 -97 103zM662 354c93 0 150 -66 150 -154c0 -109 -86 -212 -208 -212c-92 0 -149 65 -149 154c0 108 86 212 207 212zM1053 299c-78 0 -141 -74 -141 -154c0 -60 37 -102 97 -102
c77 0 141 71 141 153c0 59 -37 103 -97 103zM1061 354c91 0 149 -66 149 -154c0 -109 -86 -212 -208 -212c-92 0 -149 65 -149 154c0 108 86 212 208 212z" />
    <glyph glyph-name="germandbls.cap" horiz-adv-x="653" 
d="M401 748c108 0 183 -48 232 -116l-177 -205c81 -16 156 -68 156 -183c0 -143 -121 -257 -276 -257c-60 0 -106 14 -139 35l30 66c30 -20 62 -30 108 -30c111 0 196 80 196 186c0 99 -83 138 -194 138l-2 5l204 241c-29 29 -73 49 -140 49c-99 0 -184 -64 -205 -180
l-87 -497h-74l89 506c28 156 144 242 279 242z" />
    <glyph glyph-name="bracketright" unicode="]" horiz-adv-x="302" 
d="M319 699l-145 -820h-222l11 61h151l123 698h-152l11 61h223z" />
    <glyph glyph-name="OE" unicode="&#x152;" horiz-adv-x="1167" 
d="M1218 735l-12 -70h-369l-45 -258h326l-14 -68h-326l-46 -269h377l-12 -70h-453l24 138c-77 -91 -189 -151 -316 -151c-190 0 -306 134 -306 318c0 228 191 443 438 443c125 0 217 -63 263 -161l26 148h445zM474 678c-193 0 -352 -177 -352 -371c0 -148 92 -250 240 -250
c166 0 308 131 343 292l6 33c2 15 3 30 3 45c0 149 -92 251 -240 251z" />
    <glyph glyph-name="cent" unicode="&#xa2;" horiz-adv-x="505" 
d="M380 637l-23 -130c73 -12 117 -58 141 -107l-57 -37c-19 43 -57 82 -126 82c-125 0 -215 -107 -215 -237c0 -92 46 -153 148 -153c69 0 123 40 157 83l51 -44c-46 -55 -110 -96 -191 -103l-23 -135h-63l24 136c-117 15 -176 100 -176 212c0 164 115 292 268 305l23 128
h62z" />
    <glyph glyph-name="yen" unicode="&#xa5;" horiz-adv-x="639" 
d="M697 735l-311 -371h135l-9 -57h-165l-16 -89h165l-10 -57h-164l-29 -161h-75l28 161h-163l9 57h164l15 89h-163l10 57h133l-179 371h84l163 -343l284 343h94z" />
    <glyph glyph-name="backslash" unicode="\" horiz-adv-x="449" 
d="M152 734l239 -734h-72l-238 734h71z" />
    <glyph glyph-name="exclam" unicode="!" horiz-adv-x="246" 
d="M239 735l-94 -541h-73l95 541h72zM89 92c29 0 47 -21 45 -48c-2 -32 -30 -57 -60 -57s-47 19 -45 47c2 31 29 58 60 58z" />
    <glyph glyph-name="brokenbar" unicode="&#xa6;" horiz-adv-x="228" 
d="M224 699l-55 -308h-71l55 308h71zM134 187l-55 -308h-71l55 308h71z" />
    <glyph glyph-name="quotedbl" unicode="&#x22;" horiz-adv-x="287" 
d="M123 748l67 -14l-78 -256h-31zM265 748l67 -14l-78 -256h-31z" />
    <glyph glyph-name="ae" unicode="&#xe6;" horiz-adv-x="942" 
d="M719 510c146 0 216 -112 189 -256l-5 -30h-400c-11 -101 42 -172 153 -172c70 0 127 29 168 70l46 -44c-58 -58 -134 -88 -221 -88s-147 38 -178 98l-16 -88h-64l11 64c-37 -38 -93 -74 -179 -74c-127 0 -196 93 -196 221c0 149 113 299 282 299c87 0 136 -42 156 -76
l14 66h64l-12 -80c34 44 96 90 188 90zM308 444c-120 0 -208 -117 -208 -231c0 -95 51 -158 132 -158c89 0 140 50 180 96l38 212c-23 48 -65 81 -142 81zM715 446c-102 0 -179 -72 -201 -163h328c13 91 -27 163 -127 163z" />
    <glyph glyph-name="acute" unicode="&#xb4;" horiz-adv-x="275" 
d="M321 701l-172 -123h-83l157 123h98z" />
    <glyph glyph-name="grave" unicode="`" horiz-adv-x="275" 
d="M169 701l126 -123h-75l-136 123h85z" />
    <glyph glyph-name="circumflex" unicode="&#x2c6;" horiz-adv-x="340" 
d="M243 731l120 -154h-63l-64 76l-92 -76h-76z" />
    <glyph glyph-name="caron" unicode="&#x2c7;" horiz-adv-x="340" 
d="M391 727l-174 -154l-121 154h63l65 -76l91 76h76z" />
    <glyph glyph-name="tilde" unicode="&#x2dc;" horiz-adv-x="358" 
d="M181 709c75 0 77 -85 122 -85c33 0 50 34 57 78h50c-9 -83 -55 -130 -110 -130c-79 0 -76 85 -123 85c-34 0 -51 -34 -57 -78h-51c6 79 56 130 112 130z" />
    <glyph glyph-name="dieresis" unicode="&#xa8;" horiz-adv-x="296" 
d="M132 683c23 0 39 -16 39 -40c0 -29 -25 -52 -54 -52c-24 0 -39 16 -39 40c0 29 24 52 54 52zM292 683c23 0 39 -16 39 -40c0 -29 -25 -52 -54 -52c-24 0 -39 16 -39 40c0 29 24 52 54 52z" />
    <glyph glyph-name="thorn" unicode="&#xfe;" 
d="M246 760l-58 -326c36 36 95 76 180 76c122 0 190 -89 190 -216c0 -150 -112 -304 -279 -304c-87 0 -133 37 -156 75l-52 -295h-72l174 990h73zM345 444c-81 0 -130 -43 -170 -89l-39 -218c19 -48 64 -82 138 -82c124 0 211 117 211 231c0 96 -51 158 -140 158z" />
    <glyph glyph-name="partialdiff" unicode="&#x2202;" horiz-adv-x="545" 
d="M278 397c-104 0 -190 -94 -190 -202c0 -80 53 -136 135 -136c101 0 188 97 188 208c0 76 -49 130 -133 130zM319 748c151 0 196 -117 196 -258c0 -88 -11 -207 -51 -306c-40 -101 -127 -191 -251 -191c-120 0 -196 80 -196 195c0 153 127 275 268 275
c96 0 133 -53 152 -90c6 40 7 80 7 114c1 118 -40 192 -133 192c-70 0 -122 -35 -158 -79l-45 49c47 55 120 99 211 99z" />
    <glyph glyph-name="summation" unicode="&#x2211;" horiz-adv-x="610" 
d="M641 740l-13 -72h-428l151 -291l-255 -305h438l-12 -72h-539l8 50l277 336l-161 304l9 50h525z" />
    <glyph glyph-name="product" unicode="&#x220f;" horiz-adv-x="706" 
d="M755 740l-12 -68h-137l-138 -773h-66l137 773h-227l-137 -773h-67l136 773h-137l12 68h636z" />
    <glyph glyph-name="pi" unicode="&#x3c0;" horiz-adv-x="690" 
d="M666 575l51 -32c-41 -69 -82 -107 -185 -107h-17l-88 -289c-19 -61 -2 -83 32 -83c28 0 53 11 77 28l19 -55c-33 -24 -69 -40 -117 -40c-75 0 -105 58 -78 143l90 296h-132l-82 -263c-28 -91 -52 -133 -76 -173h-73c42 64 68 124 87 185l78 251h-28
c-66 0 -106 -25 -153 -67l-30 51c45 43 106 81 207 81h267c92 0 115 21 151 74z" />
    <glyph glyph-name="integral" unicode="&#x222b;" horiz-adv-x="434" 
d="M387 750c51 0 86 -13 104 -24l-25 -56c-15 9 -39 20 -73 20c-46 0 -78 -32 -91 -103l-107 -609c-21 -121 -73 -168 -156 -168c-51 0 -88 13 -105 25l24 55c15 -10 41 -20 76 -20c49 0 83 33 95 108l108 609c21 117 71 163 150 163z" />
    <glyph glyph-name="uni03A9" unicode="&#x3a9;" horiz-adv-x="858" 
d="M508 749c181 0 281 -119 280 -278c0 -171 -98 -292 -231 -394h223l-13 -77h-333l13 74c137 80 260 215 260 386c0 126 -72 211 -208 211c-171 0 -305 -146 -305 -328c-1 -116 59 -206 144 -269l-13 -74h-331l13 77h231c-58 55 -124 140 -123 270c0 216 168 402 393 402z
" />
    <glyph glyph-name="lozenge" unicode="&#x25ca;" horiz-adv-x="569" 
d="M385 738l157 -402l-298 -401h-46l-159 401l300 402h46zM349 634l-237 -306l122 -292l235 308z" />
    <glyph glyph-name="uni2206" unicode="&#x2206;" horiz-adv-x="721" 
d="M420 646l212 -646h-650zM399 516l-313 -459h462z" />
    <glyph glyph-name="afii61289" unicode="&#x2113;" horiz-adv-x="584" 
d="M397 750c78 0 131 -52 124 -133c-8 -148 -177 -277 -293 -368l-16 -87c-10 -65 4 -111 63 -111c78 0 132 62 178 124l39 -33c-57 -77 -133 -152 -239 -152c-96 0 -123 70 -109 149l11 63c-35 -28 -84 -64 -112 -83l-27 51c41 29 106 77 151 112l54 303
c18 107 73 165 176 165zM387 695c-56 0 -91 -33 -105 -106l-46 -264c77 63 221 172 224 290c2 51 -29 80 -73 80z" />
    <glyph glyph-name="Omega" unicode="&#x2126;" horiz-adv-x="858" 
d="M508 749c181 0 281 -119 280 -278c0 -171 -98 -292 -231 -394h223l-13 -77h-333l13 74c137 80 260 215 260 386c0 126 -72 211 -208 211c-171 0 -305 -146 -305 -328c-1 -116 59 -206 144 -269l-13 -74h-331l13 77h231c-58 55 -124 140 -123 270c0 216 168 402 393 402z
" />
    <glyph glyph-name="estimated" unicode="&#x212e;" horiz-adv-x="591" 
d="M308 511c-55 0 -110 -19 -140 -46c-22 -15 -31 -36 -31 -55v-105h321v109c0 31 -5 47 -26 60c-33 24 -71 37 -124 37zM308 537c140 0 248 -93 248 -257h-419v-162c0 -24 8 -43 29 -56c34 -27 77 -48 142 -48c93 0 168 44 224 129l22 -13c-54 -86 -138 -141 -246 -141
c-152 0 -273 110 -273 274c0 162 121 274 273 274z" />
    <glyph glyph-name="logicalnot" unicode="&#xac;" horiz-adv-x="564" 
d="M550 424l-46 -263h-54l37 211h-437l10 52h490z" />
    <glyph glyph-name="radical" unicode="&#x221a;" horiz-adv-x="697" 
d="M671 694l55 -26l-422 -740l-113 341l-140 -73l-24 53l209 114l87 -276z" />
    <glyph glyph-name="infinity" unicode="&#x221e;" horiz-adv-x="739" 
d="M570 455c93 0 145 -69 140 -154c-6 -103 -89 -192 -195 -192c-77 0 -121 58 -152 98l-17 23l-24 -25c-48 -44 -99 -81 -160 -81c-86 0 -131 63 -125 142c6 91 76 173 175 173c63 0 100 -38 134 -85l16 -24l19 20c56 54 115 105 189 105zM563 393c-56 0 -102 -44 -149 -92
l-21 -22l16 -24c27 -38 58 -85 115 -85c65 0 122 60 123 131c2 52 -30 92 -84 92zM203 380c-58 0 -105 -55 -106 -115c-2 -45 23 -81 73 -81c43 0 84 30 123 72l24 25l-16 24c-26 41 -55 75 -98 75z" />
    <glyph glyph-name="plusminus" unicode="&#xb1;" horiz-adv-x="472" 
d="M333 640l-29 -160h162l-12 -67h-161l-28 -162h-68l29 162h-161l12 67h160l28 160h68zM412 170l-12 -67h-388l11 67h389z" />
    <glyph glyph-name="divide" unicode="&#xf7;" horiz-adv-x="472" 
d="M290 584c29 0 48 -22 43 -52c-6 -29 -32 -51 -61 -51s-47 22 -42 51c5 30 31 52 60 52zM225 219c29 0 47 -21 42 -51s-31 -52 -60 -52c-30 0 -48 22 -43 52c6 29 32 51 61 51zM449 384l-12 -67h-388l12 67h388z" />
    <glyph glyph-name="currency" unicode="&#xa4;" horiz-adv-x="645" 
d="M600 548l43 -51l-142 -123c12 -22 19 -49 19 -79c0 -59 -23 -113 -59 -152l97 -123l-52 -41l-98 123c-34 -22 -74 -35 -115 -35c-44 0 -80 13 -106 36l-145 -124l-42 51l146 126c-12 21 -18 46 -18 75c0 59 23 113 59 153l-96 122l51 42l97 -123c34 23 74 37 117 37
c42 0 76 -14 102 -37zM350 404c-85 0 -157 -76 -157 -170c0 -65 40 -110 106 -110c83 0 158 75 158 168c0 66 -42 112 -107 112z" />
    <glyph glyph-name="mu" unicode="&#xb5;" horiz-adv-x="581" 
d="M542 500l-89 -500h-66l9 67c-38 -37 -92 -77 -173 -77c-51 0 -87 24 -103 64l-49 -284h-72l127 730h73l-53 -300c-15 -85 21 -141 97 -141c71 0 116 35 163 85l63 356h73z" />
    <glyph glyph-name="equal" unicode="=" horiz-adv-x="472" 
d="M427 271l-12 -67h-388l11 67h389zM467 496l-12 -68h-389l12 68h389z" />
    <glyph glyph-name="notequal" unicode="&#x2260;" horiz-adv-x="472" 
d="M427 271l-12 -67h-216l-55 -100h-66l55 100h-106l11 67h132l86 157h-190l12 68h216l63 114h66l-63 -114h107l-12 -68h-133l-86 -157h191z" />
    <glyph glyph-name="copyright" unicode="&#xa9;" horiz-adv-x="651" 
d="M384 642c53 0 89 -20 113 -51l-35 -33c-17 22 -44 35 -81 35c-78 0 -141 -70 -141 -151c-1 -60 37 -97 93 -97c41 0 74 15 98 38l28 -40c-35 -31 -80 -47 -129 -47c-87 0 -143 62 -142 146c0 107 84 200 196 200zM402 772c152 0 246 -106 246 -252
c0 -185 -149 -357 -350 -357c-152 0 -245 107 -245 252c0 184 149 357 349 357zM395 724c-159 0 -292 -146 -292 -304c0 -127 77 -209 202 -209c160 0 292 145 292 304c0 127 -76 209 -202 209z" />
    <glyph glyph-name="registered" unicode="&#xae;" horiz-adv-x="651" 
d="M402 772c152 0 246 -106 246 -252c0 -185 -149 -357 -350 -357c-152 0 -245 107 -245 252c0 184 149 357 349 357zM395 724c-159 0 -292 -146 -292 -304c0 -127 77 -209 202 -209c160 0 292 145 292 304c0 127 -76 209 -202 209zM268 638h110c63 0 113 -35 108 -97
c-4 -55 -42 -92 -88 -108l61 -134h-56l-56 125h-65l-21 -125h-52zM368 591h-57l-20 -120h57c40 0 85 19 86 70c2 33 -24 50 -66 50z" />
    <glyph glyph-name="underscore" unicode="_" horiz-adv-x="803" 
d="M721 0l-12 -67h-720l12 67h720z" />
    <glyph glyph-name="macron" unicode="&#xaf;" horiz-adv-x="296" 
d="M333 652l-10 -53h-252l10 53h252z" />
    <glyph glyph-name="semicolon" unicode=";" horiz-adv-x="188" 
d="M49 102c32 0 52 -22 49 -53c0 -15 -7 -27 -14 -38l-92 -150h-3l41 238c7 2 13 3 19 3zM140 510c31 0 49 -21 47 -50c-2 -36 -32 -62 -66 -62c-30 0 -49 21 -47 50c3 34 33 62 66 62z" />
    <glyph glyph-name="colon" unicode=":" horiz-adv-x="188" 
d="M68 102c31 0 50 -21 48 -52c-3 -34 -33 -60 -66 -60c-31 0 -49 21 -47 51c2 34 32 61 65 61zM140 510c32 0 50 -21 47 -52c-2 -34 -32 -60 -65 -60c-31 0 -49 20 -48 50c3 34 33 62 66 62z" />
    <glyph glyph-name="ellipsis" unicode="&#x2026;" horiz-adv-x="621" 
d="M70 106c32 0 52 -21 49 -53c-2 -35 -34 -63 -67 -63s-52 21 -49 53c2 35 33 63 67 63zM284 106c32 0 52 -21 49 -53c-2 -35 -34 -63 -67 -63s-52 21 -49 53c2 35 33 63 67 63zM498 106c32 0 52 -21 49 -53c-2 -35 -34 -63 -67 -63s-52 21 -49 53c2 35 32 63 67 63z" />
    <glyph glyph-name="hungarumlaut" unicode="&#x2dd;" horiz-adv-x="369" 
d="M280 712l-133 -141h-67l126 141h74zM437 712l-133 -141h-67l126 141h74z" />
    <glyph glyph-name="dotaccent" unicode="&#x2d9;" horiz-adv-x="148" 
d="M143 707c27 0 44 -17 44 -44c0 -33 -29 -60 -61 -60c-27 0 -45 17 -45 43c0 33 29 61 62 61z" />
    <glyph glyph-name="breve" unicode="&#x2d8;" horiz-adv-x="335" 
d="M393 718c-12 -84 -76 -140 -159 -140c-87 0 -144 61 -132 140h55c-9 -50 23 -86 76 -86c56 0 96 36 105 86h55z" />
    <glyph glyph-name="ring" unicode="&#x2da;" horiz-adv-x="250" 
d="M204 775c54 0 91 -39 91 -89c0 -64 -55 -114 -119 -114c-54 0 -91 40 -91 89c0 65 55 114 119 114zM199 731c-32 0 -67 -27 -67 -66c0 -28 19 -48 48 -48c33 0 68 27 68 66c0 28 -19 48 -49 48z" />
    <glyph glyph-name="ogonek" unicode="&#x2db;" horiz-adv-x="221" 
d="M89 41l12 -41c-35 -14 -61 -42 -61 -83c0 -40 26 -59 61 -59c16 0 29 3 38 8l9 -46c-12 -5 -30 -9 -50 -9c-67 0 -109 41 -109 105c0 62 36 102 100 125z" />
    <glyph glyph-name="cedilla" unicode="&#xb8;" horiz-adv-x="243" 
d="M53 11l44 -3l-23 -69c45 -6 80 -34 79 -81c0 -67 -56 -108 -120 -108c-41 0 -74 18 -91 42l35 31c11 -16 31 -27 58 -27c34 0 65 21 65 58c0 22 -12 35 -37 40c-18 3 -32 1 -48 -3l-3 4z" />
    <glyph glyph-name="eng" unicode="&#x14b;" horiz-adv-x="576" 
d="M360 510c123 0 174 -93 153 -218l-65 -364c-18 -96 -102 -168 -200 -168l11 65c58 0 105 41 116 98l66 372c15 86 -22 145 -104 145c-71 0 -118 -36 -166 -86l-62 -354h-73l88 500h67l-9 -71c34 34 95 81 178 81z" />
    <glyph glyph-name="trademark" unicode="&#x2122;" horiz-adv-x="823" 
d="M408 735l-9 -55h-134l-56 -321h-57l57 321h-133l9 55h323zM849 742l-67 -383h-57l38 211l-171 -213h-3l-96 218l-37 -216h-57l68 383h2l134 -296l244 296h2z" />
    <glyph glyph-name="numbersign" unicode="#" horiz-adv-x="707" 
d="M664 735l-74 -212h147l-11 -60h-157l-70 -199h145l-11 -61h-155l-71 -203h-73l71 203h-193l-71 -203h-73l71 203h-146l11 61h157l70 199h-146l11 60h156l75 212h71l-74 -212h194l74 212h72zM497 463h-194l-69 -199h193z" />
    <glyph glyph-name="periodcentered" unicode="&#xb7;" horiz-adv-x="171" 
d="M93 310c31 0 50 -23 45 -54c-6 -30 -33 -53 -63 -53c-31 0 -50 23 -44 53c5 31 32 54 62 54z" />
    <glyph glyph-name="asciitilde" unicode="~" horiz-adv-x="580" 
d="M208 432c108 0 111 -91 197 -91c56 0 96 38 122 85l45 -36c-39 -70 -101 -116 -177 -116c-110 0 -111 90 -197 90c-56 0 -95 -38 -121 -85l-45 36c39 70 101 117 176 117z" />
    <glyph glyph-name="approxequal" unicode="&#x2248;" horiz-adv-x="580" 
d="M201 325c109 0 111 -90 199 -90c55 0 94 38 121 85l45 -36c-40 -70 -102 -116 -177 -116c-110 0 -111 90 -197 90c-56 0 -96 -38 -122 -85l-45 36c40 69 102 116 176 116zM238 533c108 0 111 -91 197 -91c56 0 96 38 122 85l45 -36c-39 -70 -101 -116 -177 -116
c-110 0 -111 90 -197 90c-56 0 -95 -38 -121 -85l-45 36c39 70 101 117 176 117z" />
    <glyph glyph-name="asciicircum" unicode="^" horiz-adv-x="536" 
d="M355 760l194 -298h-65l-139 214l-214 -214h-74z" />
    <glyph glyph-name="less" unicode="&#x3c;" horiz-adv-x="338" 
d="M365 538l-238 -195l167 -189h-91l-169 193l1 4l230 187h100z" />
    <glyph glyph-name="greater" unicode="&#x3e;" horiz-adv-x="338" 
d="M160 538l169 -193l-1 -4l-230 -187h-99l238 195l-168 189h91z" />
    <glyph glyph-name="lessequal" unicode="&#x2264;" horiz-adv-x="338" 
d="M301 192l-11 -67h-292l11 67h292zM374 587l-232 -171l167 -167h-93l-169 169v4l223 165h104z" />
    <glyph glyph-name="greaterequal" unicode="&#x2265;" horiz-adv-x="338" 
d="M171 587l170 -170l-1 -4l-222 -164h-104l231 171l-166 167h92zM301 192l-11 -67h-292l11 67h292z" />
    <glyph glyph-name="degree" unicode="&#xb0;" horiz-adv-x="332" 
d="M246 747c73 0 118 -50 113 -118c-5 -81 -72 -147 -157 -147c-74 0 -119 50 -114 117c5 82 72 148 158 148zM239 697c-51 0 -96 -41 -98 -97c-2 -40 25 -68 67 -68c51 0 97 41 98 96c2 41 -26 69 -67 69z" />
    <glyph glyph-name="endash_guilsinglright" horiz-adv-x="659" 
d="M385 535l238 -257l-329 -257l-32 47l232 179h-449l12 61h462l-175 187z" />
    <glyph glyph-name="emdash_guilsinglright" horiz-adv-x="987" 
d="M712 535l239 -257l-329 -257l-32 47l233 179h-778l12 61h790l-174 187z" />
    <glyph glyph-name="guilsinglleft_endash" horiz-adv-x="659" 
d="M368 534l32 -46l-232 -180h449l-12 -61h-462l175 -187l-40 -39l-238 256z" />
    <glyph glyph-name="guilsinglleft_emdash" horiz-adv-x="987" 
d="M369 534l31 -46l-232 -180h777l-11 -61h-790l174 -187l-39 -39l-239 256z" />
    <glyph glyph-name="guilsinglleft" unicode="&#x2039;" horiz-adv-x="324" 
d="M348 458l-244 -204l171 -200h-87l-172 203l1 4l237 197h94z" />
    <glyph glyph-name="guilsinglright" unicode="&#x203a;" horiz-adv-x="324" 
d="M138 458l173 -203l-1 -4l-237 -197h-93l243 204l-171 200h86z" />
    <glyph glyph-name="dagger" unicode="&#x2020;" horiz-adv-x="490" 
d="M359 735l-32 -184h178l-12 -67h-178l-85 -484h-72l85 484h-178l12 67h178l32 184h72z" />
    <glyph glyph-name="daggerdbl" unicode="&#x2021;" horiz-adv-x="490" 
d="M360 735l-32 -184h178l-12 -67h-179l-40 -233h177l-12 -67h-177l-32 -184h-73l33 184h-179l13 67h178l40 233h-177l12 67h177l32 184h73z" />
    <glyph glyph-name="quotesinglbase" unicode="&#x201a;" horiz-adv-x="171" 
d="M51 100c31 0 51 -21 49 -52c-1 -15 -8 -27 -16 -38l-91 -150h-4l43 237c6 2 12 3 19 3z" />
    <glyph glyph-name="quotedblbase" unicode="&#x201e;" horiz-adv-x="346" 
d="M51 100c31 0 51 -21 49 -52c-1 -15 -8 -27 -16 -38l-91 -150h-4l43 237c6 2 12 3 19 3zM225 100c31 0 51 -21 49 -52c-1 -15 -8 -27 -16 -38l-91 -150h-4l43 237c6 2 12 3 19 3z" />
    <glyph glyph-name="comma" unicode="," horiz-adv-x="171" 
d="M48 105c31 0 51 -22 48 -52c-1 -16 -7 -28 -15 -38l-91 -151h-4l42 237c7 3 13 4 20 4z" />
    <glyph glyph-name="bullet" unicode="&#x2022;" horiz-adv-x="295" 
d="M166 367c58 0 94 -42 91 -98c-4 -71 -62 -119 -130 -119c-57 0 -94 42 -91 97c4 71 64 120 130 120z" />
    <glyph glyph-name="guillemotleft" unicode="&#xab;" horiz-adv-x="463" 
d="M267 458l-182 -203l109 -201h-69l-112 203l1 4l178 197h75zM483 458l-181 -203l108 -201h-69l-111 203l1 4l178 197h74z" />
    <glyph glyph-name="guillemotright" unicode="&#xbb;" horiz-adv-x="463" 
d="M336 458l111 -203l-1 -4l-178 -197h-74l182 203l-109 201h69zM119 458l111 -203v-4l-179 -197h-74l182 203l-109 201h69z" />
    <glyph glyph-name="at.cap" horiz-adv-x="833" 
d="M491 751c202 0 328 -136 328 -316c0 -112 -53 -288 -197 -288c-51 0 -74 23 -78 61l-1 7c-31 -35 -79 -68 -150 -68c-106 0 -175 75 -175 177c0 127 91 258 233 258c78 0 117 -37 134 -66l13 57h57l-57 -328c-6 -30 6 -44 34 -44c93 0 130 135 130 233
c0 158 -103 263 -273 263c-207 0 -393 -175 -393 -392c-2 -162 101 -269 265 -269c53 0 99 8 142 24l9 -50c-49 -17 -101 -27 -151 -27c-199 0 -321 132 -321 321c0 239 202 447 451 447zM456 526c-103 0 -175 -92 -175 -196c0 -77 45 -127 118 -127c63 0 106 31 142 74
l31 181c-21 38 -54 68 -116 68z" />
    <glyph glyph-name="commaaccent" unicode="&#xf6c3;" horiz-adv-x="136" 
d="M3 -54c32 0 51 -21 49 -51c-1 -16 -7 -29 -15 -39l-89 -136h-4l40 223c6 2 12 3 19 3z" />
    <glyph glyph-name="Thorn" unicode="&#xde;" horiz-adv-x="546" 
d="M242 735l-24 -137h128c106 0 195 -65 195 -174c0 -133 -126 -225 -263 -225h-131l-34 -199h-76l129 735h76zM331 531h-125l-46 -265h125c85 0 178 57 178 154c0 72 -58 111 -132 111z" />
    <glyph glyph-name="grave.cap" horiz-adv-x="275" 
d="M204 885l121 -113h-77l-132 113h88z" />
    <glyph glyph-name="acute.cap" horiz-adv-x="275" 
d="M373 885l-167 -113h-90l154 113h103z" />
    <glyph glyph-name="circumflex.cap" horiz-adv-x="346" 
d="M281 911l126 -140h-64l-69 73l-92 -73h-77z" />
    <glyph glyph-name="caron.cap" horiz-adv-x="346" 
d="M432 904l-176 -140l-126 140h64l68 -73l93 73h77z" />
    <glyph glyph-name="tilde.cap" horiz-adv-x="358" 
d="M217 903c72 0 75 -85 120 -85c38 0 52 35 59 79h49c-12 -73 -53 -127 -111 -127c-73 0 -72 85 -120 85c-38 0 -52 -34 -59 -78h-50c12 74 54 126 112 126z" />
    <glyph glyph-name="dieresis.cap" horiz-adv-x="296" 
d="M170 871c24 0 40 -16 40 -39c0 -29 -25 -52 -54 -52c-24 0 -39 16 -39 39c0 29 24 52 53 52zM331 871c23 0 39 -16 39 -39c0 -29 -25 -52 -54 -52c-24 0 -39 16 -39 39c0 29 24 52 54 52z" />
    <glyph glyph-name="macron.cap" horiz-adv-x="296" 
d="M369 843l-9 -53h-253l11 53h251z" />
    <glyph glyph-name="breve.cap" horiz-adv-x="335" 
d="M413 910c-12 -86 -82 -137 -163 -137c-86 0 -139 60 -128 137h54c-8 -51 22 -89 76 -89c53 0 97 38 106 89h55z" />
    <glyph glyph-name="ring.cap" horiz-adv-x="250" 
d="M232 974c53 0 90 -39 90 -89c0 -65 -55 -114 -119 -114c-54 0 -90 39 -90 89c0 64 54 114 119 114zM226 930c-32 0 -67 -28 -67 -67c0 -27 19 -48 49 -48c32 0 67 27 67 66c0 28 -19 49 -49 49z" />
    <glyph glyph-name="hungarumlaut.cap" horiz-adv-x="369" 
d="M350 892l-131 -117h-69l122 117h78zM507 892l-131 -117h-69l122 117h78z" />
    <glyph glyph-name="dotaccent.cap" horiz-adv-x="143" 
d="M165 871c25 0 41 -17 41 -42c0 -31 -27 -57 -58 -57c-26 0 -42 17 -42 41c0 32 28 58 59 58z" />
    <glyph glyph-name="AE" unicode="&#xc6;" horiz-adv-x="860" 
d="M902 735l-12 -70h-428l62 -260h277l-12 -66h-250l65 -269h189l-12 -70h-242l-42 177h-346l-104 -177h-85l443 735h497zM398 597l-211 -360h296z" />
    <glyph glyph-name="exclamdown" unicode="&#xa1;" horiz-adv-x="246" 
d="M-5 -240l94 541h73l-95 -541h-72zM145 403c-29 0 -47 21 -45 48c2 32 30 57 60 57s47 -19 45 -47c-2 -31 -29 -58 -60 -58z" />
    <glyph glyph-name="questiondown" unicode="&#xbf;" horiz-adv-x="473" 
d="M164 -253c-110 0 -179 70 -179 168c0 183 200 208 221 324l11 62h75l-14 -69c-26 -150 -216 -166 -216 -316c-1 -65 44 -102 108 -102c77 0 126 42 155 117l72 -15c-41 -105 -120 -169 -233 -169zM272 403c-28 0 -46 21 -45 48c3 32 32 57 62 57c29 0 46 -19 44 -47
c-2 -31 -29 -58 -61 -58z" />
    <glyph glyph-name="parenleft.cap" horiz-adv-x="275" 
d="M278 768l50 -44c-90 -88 -179 -203 -201 -387c-22 -159 24 -262 72 -333l-58 -38c-54 78 -106 196 -83 369c23 202 123 337 220 433z" />
    <glyph glyph-name="parenright.cap" horiz-adv-x="275" 
d="M158 768c54 -78 107 -196 84 -369c-24 -202 -123 -337 -220 -433l-50 44c89 88 178 203 201 387c21 158 -24 262 -72 333z" />
    <glyph glyph-name="bracketleft.cap" horiz-adv-x="295" 
d="M352 777l-11 -61h-144l-124 -698h145l-11 -61h-214l144 820h215z" />
    <glyph glyph-name="bracketright.cap" horiz-adv-x="302" 
d="M329 777l-145 -820h-221l11 61h151l122 698h-151l11 61h222z" />
    <glyph glyph-name="braceleft.cap" horiz-adv-x="332" 
d="M393 777l-11 -61c-72 0 -143 -39 -147 -148l-4 -79c1 -69 -32 -106 -80 -125c42 -18 63 -55 36 -125l-23 -78c-35 -109 23 -143 94 -143l-10 -61c-127 0 -208 70 -150 223l23 77c25 64 -14 96 -79 111l1 4c70 16 121 47 118 112l4 77c-5 152 101 216 228 216z" />
    <glyph glyph-name="braceright.cap" horiz-adv-x="332" 
d="M111 777c126 0 208 -70 149 -223l-24 -77c-24 -64 15 -96 80 -111l-1 -4c-70 -16 -121 -48 -119 -112l-3 -77c4 -153 -101 -216 -227 -216l11 61c71 0 142 39 145 148l5 78c-1 70 32 107 81 126c-43 18 -64 55 -37 125l23 78c35 109 -23 143 -95 143z" />
    <glyph glyph-name="guilsinglleft.cap" horiz-adv-x="324" 
d="M370 576l-249 -225l166 -219h-85l-168 223l1 4l240 217h95z" />
    <glyph glyph-name="guilsinglright.cap" horiz-adv-x="324" 
d="M161 576l167 -223l-1 -4l-240 -217h-94l249 225l-166 219h85z" />
    <glyph glyph-name="guillemotleft.cap" horiz-adv-x="469" 
d="M288 576l-190 -223l112 -221h-70l-113 223l1 4l186 217h74zM506 576l-190 -223l112 -221h-70l-113 223l1 4l186 217h74z" />
    <glyph glyph-name="guillemotright.cap" horiz-adv-x="469" 
d="M355 576l112 -223l-1 -4l-185 -217h-75l191 223l-112 221h70zM137 576l112 -223l-1 -4l-185 -217h-75l191 223l-112 221h70z" />
    <glyph glyph-name="exclamdown.cap" horiz-adv-x="246" 
d="M36 0l94 541h73l-95 -541h-72zM186 643c-29 0 -47 21 -45 48c2 32 30 57 60 57s47 -19 45 -47c-2 -31 -29 -58 -60 -58z" />
    <glyph glyph-name="questiondown.cap" horiz-adv-x="473" 
d="M201 -13c-110 0 -179 70 -179 168c0 183 200 208 221 324l11 62h75l-14 -69c-26 -150 -216 -166 -216 -316c-1 -65 44 -102 108 -102c77 0 126 42 155 117l72 -15c-41 -105 -120 -169 -233 -169zM309 643c-28 0 -46 21 -45 48c3 32 32 57 62 57c29 0 46 -19 44 -47
c-2 -31 -29 -58 -61 -58z" />
    <glyph glyph-name="endash.cap" horiz-adv-x="559" 
d="M533 390l-13 -67h-475l13 67h475z" />
    <glyph glyph-name="periodcentered.cap" horiz-adv-x="171" 
d="M111 408c31 0 50 -23 45 -54c-6 -30 -33 -53 -63 -53c-31 0 -50 23 -44 53c5 31 32 54 62 54z" />
    <glyph glyph-name="emdash.cap" horiz-adv-x="803" 
d="M778 390l-12 -67h-719l12 67h719z" />
    <glyph glyph-name="hyphen.cap" horiz-adv-x="440" 
d="M414 390l-13 -67h-356l13 67h356z" />
    <glyph glyph-name="oe" unicode="&#x153;" horiz-adv-x="960" 
d="M742 510c146 0 211 -112 184 -256l-5 -30h-385c-11 -101 36 -172 142 -172c71 0 123 29 164 70l46 -44c-58 -58 -130 -88 -217 -88c-101 0 -167 46 -194 119c-55 -71 -139 -119 -236 -119c-132 0 -214 91 -214 215c0 159 130 305 300 305c94 0 163 -46 194 -118
c48 69 124 118 221 118zM318 444c-119 0 -218 -111 -218 -235c0 -91 59 -154 150 -154c118 0 217 112 217 236c0 91 -58 153 -149 153zM737 446c-98 0 -168 -72 -190 -163h313c14 93 -23 163 -123 163z" />
    <glyph glyph-name="zero.dnom" horiz-adv-x="386" 
d="M220 427c81 0 123 -62 123 -154c0 -142 -73 -281 -197 -281c-80 0 -124 62 -124 154c0 139 69 281 198 281zM213 375c-82 0 -133 -114 -133 -228c0 -64 23 -103 73 -103c84 0 133 119 133 227c0 65 -23 104 -73 104z" />
    <glyph glyph-name="one.dnom" horiz-adv-x="257" 
d="M229 427l-79 -427h-57l62 330l-88 -52l-20 49l180 100h2z" />
    <glyph glyph-name="two.dnom" horiz-adv-x="351" 
d="M210 427c73 0 115 -43 115 -105c0 -56 -35 -103 -79 -148l-125 -122h161l-9 -52h-263l1 4l191 200c34 32 66 68 66 113c0 36 -26 58 -61 58c-47 0 -77 -24 -95 -71l-52 14c26 69 76 109 150 109z" />
    <glyph glyph-name="three.dnom" horiz-adv-x="348" 
d="M212 427c69 0 109 -43 109 -102c0 -49 -30 -89 -75 -108c34 -13 55 -40 55 -80c0 -79 -73 -145 -160 -145c-81 0 -117 36 -126 102l51 14c8 -39 29 -63 78 -63c54 0 100 39 100 92c0 34 -26 59 -76 59h-48l8 45h50c45 0 86 34 86 80c0 35 -24 53 -60 53
c-42 0 -72 -22 -91 -59l-49 23c29 52 77 89 148 89z" />
    <glyph glyph-name="four.dnom" horiz-adv-x="366" 
d="M317 423l-55 -301h60l-8 -46h-60l-14 -76h-58l14 76h-204v3l322 344h3zM233 267l-134 -145h107z" />
    <glyph glyph-name="five.dnom" horiz-adv-x="355" 
d="M322 419l-10 -52h-172l-23 -122c15 8 33 12 59 12c75 0 121 -43 121 -109c0 -82 -70 -156 -162 -156c-78 0 -115 35 -128 92l50 22c8 -38 31 -63 82 -63c54 0 101 48 101 100c0 39 -27 66 -73 66c-34 0 -62 -12 -82 -25l-33 15l40 220h230z" />
    <glyph glyph-name="six.dnom" horiz-adv-x="360" 
d="M182 266c73 0 123 -48 123 -115c0 -82 -76 -156 -171 -156c-73 0 -122 48 -122 116c0 42 20 82 52 110l174 198h69l-136 -154c4 0 7 1 11 1zM176 218c-60 0 -108 -49 -108 -104c0 -42 29 -70 72 -70c61 0 108 49 108 104c0 42 -29 70 -72 70z" />
    <glyph glyph-name="seven.dnom" horiz-adv-x="356" 
d="M370 419v-4l-296 -415h-66l261 363h-207l10 56h298z" />
    <glyph glyph-name="eight.dnom" horiz-adv-x="360" 
d="M218 427c62 0 108 -39 108 -94c0 -53 -39 -90 -80 -111c32 -12 62 -43 62 -90c0 -81 -74 -140 -165 -140c-74 0 -128 42 -128 108c0 69 53 108 100 124c-26 15 -42 40 -42 76c0 69 68 127 145 127zM175 198c-58 0 -106 -41 -106 -92c0 -38 29 -67 77 -67
c63 0 107 40 107 92c0 39 -33 67 -78 67zM213 380c-48 0 -88 -35 -88 -79c0 -32 22 -59 61 -59c49 0 87 41 87 84c0 33 -25 54 -60 54z" />
    <glyph glyph-name="nine.dnom" horiz-adv-x="360" 
d="M222 424c73 0 123 -48 123 -116c0 -44 -22 -86 -56 -115l-171 -193h-70l134 152h-8c-73 0 -122 49 -122 116c0 82 75 156 170 156zM216 375c-60 0 -108 -49 -108 -104c0 -42 30 -70 72 -70c61 0 108 49 108 104c0 42 -29 70 -72 70z" />
    <glyph glyph-name="zero.numr" horiz-adv-x="380" 
d="M272 741c81 0 123 -62 123 -154c0 -142 -73 -281 -197 -281c-80 0 -124 62 -124 154c0 139 69 281 198 281zM265 689c-82 0 -133 -114 -133 -228c0 -64 23 -103 73 -103c84 0 133 119 133 227c0 65 -23 104 -73 104z" />
    <glyph glyph-name="one.numr" horiz-adv-x="251" 
d="M276 741l-79 -427h-57l62 330l-88 -52l-20 49l180 100h2z" />
    <glyph glyph-name="two.numr" horiz-adv-x="345" 
d="M258 741c73 0 115 -43 115 -105c0 -56 -35 -103 -79 -148l-125 -122h161l-9 -52h-263l1 4l191 200c34 32 66 68 66 113c0 36 -26 58 -61 58c-47 0 -77 -24 -95 -71l-52 14c26 69 76 109 150 109z" />
    <glyph glyph-name="three.numr" horiz-adv-x="342" 
d="M262 741c69 0 109 -43 109 -102c0 -49 -30 -89 -75 -108c34 -13 55 -40 55 -80c0 -79 -73 -145 -160 -145c-81 0 -117 36 -126 102l51 14c8 -39 29 -63 78 -63c54 0 100 39 100 92c0 34 -26 59 -76 59h-48l8 45h50c45 0 86 34 86 80c0 35 -24 53 -60 53
c-42 0 -72 -22 -91 -59l-49 23c29 52 77 89 148 89z" />
    <glyph glyph-name="four.numr" horiz-adv-x="360" 
d="M360 737l-55 -301h60l-8 -46h-60l-14 -76h-58l14 76h-204v3l322 344h3zM276 581l-134 -145h107z" />
    <glyph glyph-name="five.numr" horiz-adv-x="350" 
d="M376 733l-10 -52h-172l-23 -122c15 8 33 12 59 12c75 0 121 -43 121 -109c0 -82 -70 -156 -162 -156c-78 0 -115 35 -128 92l50 22c8 -38 31 -63 82 -63c54 0 101 48 101 100c0 39 -27 66 -73 66c-34 0 -62 -12 -82 -25l-33 15l40 220h230z" />
    <glyph glyph-name="six.numr" horiz-adv-x="354" 
d="M230 580c73 0 123 -48 123 -115c0 -82 -76 -156 -171 -156c-73 0 -122 48 -122 116c0 42 20 82 52 110l174 198h69l-136 -154c4 0 7 1 11 1zM224 532c-60 0 -108 -49 -108 -104c0 -42 29 -70 72 -70c61 0 108 49 108 104c0 42 -29 70 -72 70z" />
    <glyph glyph-name="seven.numr" horiz-adv-x="350" 
d="M415 733v-4l-296 -415h-66l261 363h-207l10 56h298z" />
    <glyph glyph-name="eight.numr" horiz-adv-x="354" 
d="M264 741c62 0 108 -39 108 -94c0 -53 -39 -90 -80 -111c32 -12 62 -43 62 -90c0 -81 -74 -140 -165 -140c-74 0 -128 42 -128 108c0 69 53 108 100 124c-26 15 -42 40 -42 76c0 69 68 127 145 127zM221 512c-58 0 -106 -41 -106 -92c0 -38 29 -67 77 -67
c63 0 107 40 107 92c0 39 -33 67 -78 67zM259 694c-48 0 -88 -35 -88 -79c0 -32 22 -59 61 -59c49 0 87 41 87 84c0 33 -25 54 -60 54z" />
    <glyph glyph-name="nine.numr" horiz-adv-x="354" 
d="M265 738c73 0 123 -48 123 -116c0 -44 -22 -86 -56 -115l-171 -193h-70l134 152h-8c-73 0 -122 49 -122 116c0 82 75 156 170 156zM259 689c-60 0 -108 -49 -108 -104c0 -42 30 -70 72 -70c61 0 108 49 108 104c0 42 -29 70 -72 70z" />
    <glyph glyph-name="zero.sups" unicode="&#x2070;" horiz-adv-x="380" 
d="M286 821c81 0 123 -62 123 -154c0 -142 -73 -281 -197 -281c-80 0 -124 62 -124 154c0 139 69 281 198 281zM279 769c-82 0 -133 -114 -133 -228c0 -64 23 -103 73 -103c84 0 133 119 133 227c0 65 -23 104 -73 104z" />
    <glyph glyph-name="one.sups" unicode="&#xb9;" horiz-adv-x="251" 
d="M294 821l-79 -427h-57l62 330l-88 -52l-20 49l180 100h2z" />
    <glyph glyph-name="two.sups" unicode="&#xb2;" horiz-adv-x="345" 
d="M275 821c73 0 115 -43 115 -105c0 -56 -35 -103 -79 -148l-125 -122h161l-9 -52h-263l1 4l191 200c34 32 66 68 66 113c0 36 -26 58 -61 58c-47 0 -77 -24 -95 -71l-52 14c26 69 76 109 150 109z" />
    <glyph glyph-name="three.sups" unicode="&#xb3;" horiz-adv-x="342" 
d="M275 821c69 0 109 -43 109 -102c0 -49 -30 -89 -75 -108c34 -13 55 -40 55 -80c0 -79 -73 -145 -160 -145c-81 0 -117 36 -126 102l51 14c8 -39 29 -63 78 -63c54 0 100 39 100 92c0 34 -26 59 -76 59h-48l8 45h50c45 0 86 34 86 80c0 35 -24 53 -60 53
c-42 0 -72 -22 -91 -59l-49 23c29 52 77 89 148 89z" />
    <glyph glyph-name="four.sups" unicode="&#x2074;" horiz-adv-x="360" 
d="M381 817l-55 -301h60l-8 -46h-60l-14 -76h-58l14 76h-204v3l322 344h3zM297 661l-134 -145h107z" />
    <glyph glyph-name="five.sups" unicode="&#x2075;" horiz-adv-x="350" 
d="M391 813l-10 -52h-172l-23 -122c15 8 33 12 59 12c75 0 121 -43 121 -109c0 -82 -70 -156 -162 -156c-78 0 -115 35 -128 92l50 22c8 -38 31 -63 82 -63c54 0 101 48 101 100c0 39 -27 66 -73 66c-34 0 -62 -12 -82 -25l-33 15l40 220h230z" />
    <glyph glyph-name="six.sups" unicode="&#x2076;" horiz-adv-x="354" 
d="M248 660c73 0 123 -48 123 -115c0 -82 -76 -156 -171 -156c-73 0 -122 48 -122 116c0 42 20 82 52 110l174 198h69l-136 -154c4 0 7 1 11 1zM242 612c-60 0 -108 -49 -108 -104c0 -42 29 -70 72 -70c61 0 108 49 108 104c0 42 -29 70 -72 70z" />
    <glyph glyph-name="seven.sups" unicode="&#x2077;" horiz-adv-x="350" 
d="M435 813v-4l-296 -415h-66l261 363h-207l10 56h298z" />
    <glyph glyph-name="eight.sups" unicode="&#x2078;" horiz-adv-x="354" 
d="M280 821c62 0 108 -39 108 -94c0 -53 -39 -90 -80 -111c32 -12 62 -43 62 -90c0 -81 -74 -140 -165 -140c-74 0 -128 42 -128 108c0 69 53 108 100 124c-26 15 -42 40 -42 76c0 69 68 127 145 127zM237 592c-58 0 -106 -41 -106 -92c0 -38 29 -67 77 -67
c63 0 107 40 107 92c0 39 -33 67 -78 67zM275 774c-48 0 -88 -35 -88 -79c0 -32 22 -59 61 -59c49 0 87 41 87 84c0 33 -25 54 -60 54z" />
    <glyph glyph-name="nine.sups" unicode="&#x2079;" horiz-adv-x="354" 
d="M283 818c73 0 123 -48 123 -116c0 -44 -22 -86 -56 -115l-171 -193h-70l134 152h-8c-73 0 -122 49 -122 116c0 82 75 156 170 156zM277 769c-60 0 -108 -49 -108 -104c0 -42 30 -70 72 -70c61 0 108 49 108 104c0 42 -29 70 -72 70z" />
    <glyph glyph-name="zero.subs" horiz-adv-x="380" 
d="M208 327c81 0 123 -62 123 -154c0 -142 -73 -281 -197 -281c-80 0 -124 62 -124 154c0 139 69 281 198 281zM201 275c-82 0 -133 -114 -133 -228c0 -64 23 -103 73 -103c84 0 133 119 133 227c0 65 -23 104 -73 104z" />
    <glyph glyph-name="one.subs" horiz-adv-x="251" 
d="M225 327l-79 -427h-57l62 330l-88 -52l-20 49l180 100h2z" />
    <glyph glyph-name="two.subs" horiz-adv-x="345" 
d="M201 327c73 0 115 -43 115 -105c0 -56 -35 -103 -79 -148l-125 -122h161l-9 -52h-263l1 4l191 200c34 32 66 68 66 113c0 36 -26 58 -61 58c-47 0 -77 -24 -95 -71l-52 14c26 69 76 109 150 109z" />
    <glyph glyph-name="three.subs" horiz-adv-x="342" 
d="M201 327c69 0 109 -43 109 -102c0 -49 -30 -89 -75 -108c34 -13 55 -40 55 -80c0 -79 -73 -145 -160 -145c-81 0 -117 36 -126 102l51 14c8 -39 29 -63 78 -63c54 0 100 39 100 92c0 34 -26 59 -76 59h-48l8 45h50c45 0 86 34 86 80c0 35 -24 53 -60 53
c-42 0 -72 -22 -91 -59l-49 23c29 52 77 89 148 89z" />
    <glyph glyph-name="four.subs" horiz-adv-x="360" 
d="M302 323l-55 -301h60l-8 -46h-60l-14 -76h-58l14 76h-204v3l322 344h3zM218 167l-134 -145h107z" />
    <glyph glyph-name="five.subs" horiz-adv-x="350" 
d="M316 319l-10 -52h-172l-23 -122c15 8 33 12 59 12c75 0 121 -43 121 -109c0 -82 -70 -156 -162 -156c-78 0 -115 35 -128 92l50 22c8 -38 31 -63 82 -63c54 0 101 48 101 100c0 39 -27 66 -73 66c-34 0 -62 -12 -82 -25l-33 15l40 220h230z" />
    <glyph glyph-name="six.subs" horiz-adv-x="354" 
d="M169 166c73 0 123 -48 123 -115c0 -82 -76 -156 -171 -156c-73 0 -122 48 -122 116c0 42 20 82 52 110l174 198h69l-136 -154c4 0 7 1 11 1zM163 118c-60 0 -108 -49 -108 -104c0 -42 29 -70 72 -70c61 0 108 49 108 104c0 42 -29 70 -72 70z" />
    <glyph glyph-name="seven.subs" horiz-adv-x="350" 
d="M360 319v-4l-296 -415h-66l261 363h-207l10 56h298z" />
    <glyph glyph-name="eight.subs" horiz-adv-x="354" 
d="M206 327c62 0 108 -39 108 -94c0 -53 -39 -90 -80 -111c32 -12 62 -43 62 -90c0 -81 -74 -140 -165 -140c-74 0 -128 42 -128 108c0 69 53 108 100 124c-26 15 -42 40 -42 76c0 69 68 127 145 127zM163 98c-58 0 -106 -41 -106 -92c0 -38 29 -67 77 -67
c63 0 107 40 107 92c0 39 -33 67 -78 67zM201 280c-48 0 -88 -35 -88 -79c0 -32 22 -59 61 -59c49 0 87 41 87 84c0 33 -25 54 -60 54z" />
    <glyph glyph-name="nine.subs" horiz-adv-x="354" 
d="M204 324c73 0 123 -48 123 -116c0 -44 -22 -86 -56 -115l-171 -193h-70l134 152h-8c-73 0 -122 49 -122 116c0 82 75 156 170 156zM198 275c-60 0 -108 -49 -108 -104c0 -42 30 -70 72 -70c61 0 108 49 108 104c0 42 -29 70 -72 70z" />
    <glyph glyph-name="onehalf" unicode="&#xbd;" horiz-adv-x="783" 
d="M644 734l-491 -734h-70l493 734h68zM251 721l-79 -427h-57l62 330l-88 -52l-20 49l180 100h2zM658 427c73 0 115 -43 115 -105c0 -56 -35 -103 -79 -148l-125 -122h161l-9 -52h-263l1 4l191 200c34 32 66 68 66 113c0 36 -26 58 -61 58c-47 0 -77 -24 -95 -71l-52 14
c26 69 76 109 150 109z" />
    <glyph glyph-name="onequarter" unicode="&#xbc;" horiz-adv-x="714" 
d="M646 734l-491 -734h-70l493 734h68zM253 721l-79 -427h-57l62 330l-88 -52l-20 49l180 100h2zM682 423l-55 -301h60l-8 -46h-60l-14 -76h-58l14 76h-204v3l322 344h3zM598 267l-134 -145h107z" />
    <glyph glyph-name="threequarters" unicode="&#xbe;" horiz-adv-x="806" 
d="M739 734l-491 -734h-70l493 734h68zM774 423l-55 -301h60l-8 -46h-60l-14 -76h-58l14 76h-204v3l322 344h3zM690 267l-134 -145h107zM238 721c69 0 109 -43 109 -102c0 -49 -30 -89 -75 -108c34 -13 55 -40 55 -80c0 -79 -73 -145 -160 -145c-81 0 -117 36 -126 102
l51 14c8 -39 29 -63 78 -63c54 0 100 39 100 92c0 34 -26 59 -76 59h-48l8 45h50c45 0 86 34 86 80c0 35 -24 53 -60 53c-42 0 -72 -22 -91 -59l-49 23c29 52 77 89 148 89z" />
    <glyph glyph-name="zero.lnum" horiz-adv-x="600" 
d="M367 681c-148 0 -243 -213 -243 -433c0 -121 43 -194 136 -194c148 0 244 213 244 432c0 122 -43 195 -137 195zM375 748c136 0 202 -102 202 -263c0 -278 -133 -498 -325 -498c-136 0 -201 102 -201 263c0 278 133 498 324 498z" />
    <glyph glyph-name="one.lnum" horiz-adv-x="600" 
d="M483 748l-120 -679h145l-11 -69h-369l11 69h150l98 546l-198 -125l-33 60l323 198h4z" />
    <glyph glyph-name="two.lnum" horiz-adv-x="600" 
d="M370 748c125 0 200 -86 177 -212c-16 -97 -62 -158 -139 -237l-227 -231h294l-11 -68h-427l1 6l317 335c70 74 104 120 117 196c17 90 -34 143 -113 143c-82 0 -136 -42 -171 -130l-64 15c46 118 128 183 246 183z" />
    <glyph glyph-name="three.lnum" horiz-adv-x="600" 
d="M382 748c110 0 177 -72 177 -171c0 -89 -50 -156 -138 -193c65 -24 103 -83 103 -156c0 -134 -112 -241 -253 -241c-139 0 -191 66 -214 170l68 19c17 -72 53 -122 147 -122c93 0 180 77 180 178c0 74 -53 124 -141 124h-81l11 60h83c84 0 162 65 162 155
c0 70 -45 110 -113 110c-77 0 -129 -44 -168 -114l-63 30c50 88 127 151 240 151z" />
    <glyph glyph-name="four.lnum" horiz-adv-x="600" 
d="M526 739l-92 -517h110l-13 -68h-108l-27 -154h-74l27 154h-330l1 4l501 581h5zM416 518l-258 -297h202z" />
    <glyph glyph-name="five.lnum" horiz-adv-x="600" 
d="M554 735l-11 -67h-298l-44 -252c31 16 73 30 120 30c120 0 192 -80 192 -188c0 -144 -109 -271 -265 -271c-127 0 -182 63 -207 155l64 28c16 -68 56 -116 145 -116c103 0 190 92 190 198c0 78 -43 131 -128 131c-66 0 -116 -23 -156 -50l-40 18l67 384h371z" />
    <glyph glyph-name="six.lnum" horiz-adv-x="600" 
d="M329 465c121 0 206 -89 198 -212c-7 -139 -128 -266 -277 -266c-121 0 -206 88 -198 211c3 66 33 131 79 179l303 358h86l-233 -273c14 2 28 3 42 3zM320 398c-101 0 -191 -93 -194 -200c-3 -86 53 -145 132 -145c102 0 192 93 195 200c4 86 -53 145 -133 145z" />
    <glyph glyph-name="seven.lnum" horiz-adv-x="600" 
d="M631 735l-1 -6l-503 -729h-85l465 667h-373l12 68h485z" />
    <glyph glyph-name="eight.lnum" horiz-adv-x="600" 
d="M381 748c102 0 174 -69 174 -163c0 -93 -63 -160 -129 -195c43 -21 100 -73 100 -158c0 -140 -130 -245 -273 -245c-114 0 -202 73 -202 187c0 117 92 188 167 220c-42 25 -70 73 -70 134c0 119 109 220 233 220zM314 355c-90 0 -188 -76 -188 -174
c0 -75 56 -130 133 -130c96 0 192 76 192 177c0 74 -56 127 -137 127zM375 684c-81 0 -158 -68 -158 -155c0 -65 44 -112 109 -112c79 0 158 71 158 157c0 64 -42 110 -109 110z" />
    <glyph glyph-name="nine.lnum" horiz-adv-x="600" 
d="M380 748c121 0 206 -88 198 -211c-4 -67 -34 -132 -81 -181l-301 -356h-86l232 273c-13 -2 -27 -3 -41 -3c-121 0 -206 89 -198 211c8 140 128 267 277 267zM372 682c-102 0 -192 -93 -195 -201c-3 -86 53 -144 133 -144c102 0 191 93 194 200c3 86 -53 145 -132 145z
" />
    <glyph glyph-name="zero.tnum" horiz-adv-x="587" 
d="M346 570c132 0 218 -101 209 -245c-9 -184 -141 -335 -308 -335c-132 0 -218 101 -209 245c9 184 141 335 308 335zM337 505c-121 0 -221 -121 -225 -270c-4 -107 53 -180 144 -180c121 0 221 121 226 270c3 107 -54 180 -145 180z" />
    <glyph glyph-name="one.tnum" horiz-adv-x="362" 
d="M332 570l-101 -570h-74l79 443l-167 -114l-23 66l282 175h4z" />
    <glyph glyph-name="two.tnum" horiz-adv-x="528" 
d="M313 570c107 0 177 -68 177 -162c0 -106 -62 -161 -144 -225l-149 -116h255l-12 -67h-418l1 6l256 207c79 63 135 106 135 188c0 66 -44 102 -110 102c-62 0 -104 -29 -140 -83l-57 33c47 69 112 117 206 117z" />
    <glyph glyph-name="three.tnum" horiz-adv-x="524" 
d="M320 570c111 0 177 -70 177 -167c0 -86 -49 -151 -138 -187c65 -23 104 -80 104 -151c0 -130 -112 -234 -253 -234c-139 0 -191 64 -214 165l67 19c18 -70 53 -117 148 -117c92 0 179 73 179 171c0 72 -53 120 -141 120h-81l11 59h84c83 0 161 63 161 150
c0 67 -45 105 -113 105c-76 0 -129 -42 -167 -109l-63 29c49 85 127 147 239 147z" />
    <glyph glyph-name="four.tnum" horiz-adv-x="545" 
d="M480 570l-91 -502h109l-12 -66h-108l-27 -149h-74l27 149h-330l1 4l500 564h5zM370 356l-257 -289h202z" />
    <glyph glyph-name="five.tnum" horiz-adv-x="533" 
d="M506 560l-11 -66h-297l-45 -243c31 15 69 29 117 29c120 0 195 -75 195 -183c0 -140 -109 -264 -265 -264c-126 0 -181 62 -207 152l64 26c16 -65 55 -112 146 -112c102 0 189 90 189 192c0 78 -44 128 -130 128c-64 0 -114 -23 -155 -50l-39 18l67 373h371z" />
    <glyph glyph-name="six.tnum" horiz-adv-x="539" 
d="M301 451c119 0 199 -83 199 -196c0 -140 -123 -268 -278 -268c-119 0 -200 83 -200 195c0 69 30 136 80 186l304 345h85l-234 -266c14 2 29 4 44 4zM292 386c-103 0 -195 -94 -195 -200c0 -80 56 -134 134 -134c103 0 194 94 194 200c0 79 -55 134 -133 134z" />
    <glyph glyph-name="seven.tnum" horiz-adv-x="533" 
d="M573 560l-1 -6l-502 -707h-82l461 646h-372l11 67h485z" />
    <glyph glyph-name="eight.tnum" horiz-adv-x="539" 
d="M355 726c101 0 173 -66 173 -157c0 -92 -62 -157 -128 -190c42 -21 100 -72 100 -154c0 -136 -131 -238 -274 -238c-113 0 -201 71 -201 182c0 113 92 183 166 214c-42 23 -69 70 -69 130c0 115 108 213 233 213zM288 345c-91 0 -188 -74 -188 -169
c0 -73 55 -125 133 -125c95 0 192 71 192 170c0 73 -58 124 -137 124zM348 663c-81 0 -157 -65 -157 -150c0 -63 42 -109 109 -109c78 0 157 69 157 153c0 63 -42 106 -109 106z" />
    <glyph glyph-name="nine.tnum" horiz-adv-x="539" 
d="M327 570c119 0 200 -83 200 -195c0 -72 -32 -140 -84 -190l-300 -341h-85l233 265c-14 -2 -28 -3 -43 -3c-119 0 -200 82 -200 196c0 140 124 268 279 268zM319 505c-104 0 -196 -95 -196 -200c0 -79 56 -134 134 -134c103 0 195 94 195 200c0 80 -56 134 -133 134z" />
    <glyph glyph-name="a.sups" horiz-adv-x="425" 
d="M281 692c-76 0 -137 -71 -137 -156c0 -62 35 -101 90 -101c52 0 89 30 115 61l25 147c-17 27 -43 49 -93 49zM276 746c63 0 94 -25 110 -51l10 44h56l-61 -351h-56l6 43c-25 -23 -65 -50 -121 -50c-84 0 -138 67 -137 149c0 116 84 216 193 216z" />
    <glyph glyph-name="b.sups" horiz-adv-x="425" 
d="M242 920l-40 -221c25 22 64 47 117 47c84 0 137 -67 137 -149c0 -116 -84 -216 -193 -216c-63 0 -94 25 -110 51l-11 -44h-55l94 532h61zM305 692c-53 0 -89 -30 -115 -62l-25 -146c17 -27 43 -49 93 -49c76 0 137 71 137 156c0 61 -36 101 -90 101z" />
    <glyph glyph-name="c.sups" horiz-adv-x="368" 
d="M289 746c68 0 111 -30 135 -77l-49 -31c-14 30 -43 54 -92 54c-82 0 -139 -74 -139 -159c0 -58 31 -98 97 -98c50 0 86 27 110 56l42 -38c-39 -47 -95 -72 -154 -72c-101 0 -157 63 -157 150c0 115 88 215 207 215z" />
    <glyph glyph-name="d.sups" horiz-adv-x="425" 
d="M484 920l-94 -532h-56l6 43c-24 -23 -65 -50 -120 -50c-85 0 -138 67 -138 149c0 116 85 216 193 216c61 0 91 -23 108 -48l39 222h62zM280 692c-75 0 -136 -71 -136 -156c0 -62 35 -101 90 -101c52 0 88 30 115 61l25 147c-18 27 -43 49 -94 49z" />
    <glyph glyph-name="e.sups" horiz-adv-x="388" 
d="M284 746c108 0 150 -83 133 -178l-3 -23h-271c-7 -67 23 -113 98 -113c48 0 87 23 111 47l38 -37c-39 -39 -94 -61 -153 -61c-101 0 -155 63 -155 147c0 115 79 218 202 218zM279 700c-65 0 -115 -44 -128 -109h212c9 65 -21 109 -84 109z" />
    <glyph glyph-name="f.sups" horiz-adv-x="261" 
d="M314 920c33 0 58 -11 75 -27l-31 -47c-10 11 -24 20 -45 20c-37 0 -63 -26 -70 -69l-11 -58h97l-10 -52h-96l-52 -299h-62l53 299h-65l9 52h65l11 61c12 71 58 120 132 120z" />
    <glyph glyph-name="g.sups" horiz-adv-x="426" 
d="M277 746c63 0 94 -25 110 -51l10 44h55l-61 -350c-18 -107 -99 -169 -199 -169c-75 0 -123 30 -152 74l45 38c21 -35 56 -58 108 -58c71 0 123 48 138 121l7 36c-25 -24 -67 -45 -120 -45c-84 0 -134 63 -134 146c0 116 85 214 193 214zM282 692
c-76 0 -137 -69 -137 -154c0 -62 35 -98 90 -98c52 0 89 28 115 60l25 143c-17 27 -43 49 -93 49z" />
    <glyph glyph-name="h.sups" horiz-adv-x="419" 
d="M240 920l-39 -222c23 23 65 48 113 48c86 0 128 -63 113 -150l-37 -208h-61l37 206c11 61 -17 94 -65 94c-49 0 -81 -27 -112 -60l-42 -240h-60l93 532h60z" />
    <glyph glyph-name="i.sups" horiz-adv-x="184" 
d="M208 739l-61 -351h-60l61 351h60zM205 894c22 0 36 -16 35 -38c-1 -25 -24 -45 -48 -45c-23 0 -36 15 -35 37c2 25 23 46 48 46z" />
    <glyph glyph-name="j.sups" horiz-adv-x="188" 
d="M212 739l-71 -398c-14 -82 -72 -121 -158 -121l9 54c45 0 80 24 89 65l70 400h61zM208 894c23 0 37 -16 36 -38c-3 -25 -25 -45 -49 -45c-23 0 -37 15 -34 37c1 25 22 46 47 46z" />
    <glyph glyph-name="k.sups" horiz-adv-x="385" 
d="M240 920l-71 -410l193 229h78l-134 -155l91 -196h-68l-71 144l-122 -144h-49l92 532h61z" />
    <glyph glyph-name="l.sups" horiz-adv-x="184" 
d="M240 920l-93 -532h-60l92 532h61z" />
    <glyph glyph-name="m.sups" horiz-adv-x="648" 
d="M547 746c87 0 125 -67 110 -153l-37 -205h-60l36 206c11 61 -16 94 -64 94c-45 0 -79 -25 -109 -59c0 -10 0 -20 -2 -29l-37 -212h-61l37 206c11 61 -15 94 -63 94c-47 0 -78 -27 -107 -59l-42 -241h-61l62 351h53l-4 -45c20 24 63 52 114 52c54 0 88 -28 102 -66
c29 36 79 66 133 66z" />
    <glyph glyph-name="n.sups" unicode="&#x207f;" horiz-adv-x="419" 
d="M314 746c89 0 127 -67 113 -150l-36 -208h-62l37 206c11 61 -18 94 -63 94c-51 0 -81 -26 -113 -59l-42 -241h-61l62 351h55l-5 -44c21 24 65 51 115 51z" />
    <glyph glyph-name="o.sups" horiz-adv-x="413" 
d="M287 691c-79 0 -143 -72 -143 -155c0 -60 38 -101 95 -101c79 0 143 73 143 156c0 59 -38 100 -95 100zM294 746c91 0 150 -64 150 -151c0 -111 -90 -214 -212 -214c-91 0 -150 64 -150 150c0 112 90 215 212 215z" />
    <glyph glyph-name="p.sups" horiz-adv-x="425" 
d="M319 746c84 0 137 -67 137 -149c0 -116 -84 -216 -193 -216c-60 0 -91 23 -108 48l-36 -202h-60l90 512h55l-6 -43c24 23 65 50 121 50zM305 692c-53 0 -89 -30 -115 -62l-25 -146c17 -27 43 -49 93 -49c76 0 137 71 137 156c0 61 -36 101 -90 101z" />
    <glyph glyph-name="q.sups" horiz-adv-x="425" 
d="M275 746c63 0 94 -25 110 -51l12 44h55l-90 -512h-61l35 201c-25 -22 -64 -47 -117 -47c-84 0 -137 67 -137 149c0 116 84 216 193 216zM280 692c-76 0 -137 -71 -137 -156c0 -62 35 -101 90 -101c52 0 89 30 115 61l25 147c-17 27 -43 49 -93 49z" />
    <glyph glyph-name="r.sups" horiz-adv-x="241" 
d="M314 746l-12 -61h-6c-44 0 -77 -29 -107 -64l-41 -233h-61l62 351h55l-7 -50c22 28 63 57 117 57z" />
    <glyph glyph-name="s.sups" horiz-adv-x="330" 
d="M251 746c52 0 90 -17 115 -40l-33 -45c-19 18 -45 31 -85 31c-43 0 -77 -19 -77 -54c0 -27 21 -36 72 -49c69 -17 99 -48 99 -91c0 -72 -70 -117 -151 -117c-57 0 -99 19 -126 45l33 45c23 -22 57 -36 97 -36c47 0 86 17 86 57c0 27 -24 39 -73 51c-66 17 -98 44 -98 90
c0 72 66 113 141 113z" />
    <glyph glyph-name="t.sups" horiz-adv-x="282" 
d="M241 858l-20 -119h112l-9 -52h-113l-32 -183c-8 -44 11 -68 48 -68c27 0 46 5 56 12l9 -50c-16 -9 -39 -17 -74 -17c-68 0 -114 45 -99 126l32 180h-70l9 52h70l21 119h60z" />
    <glyph glyph-name="u.sups" horiz-adv-x="412" 
d="M439 739l-62 -351h-55l6 43c-23 -25 -65 -50 -121 -50c-77 0 -118 61 -102 149l37 209h60l-36 -209c-10 -59 15 -91 59 -91c50 0 79 26 111 58l42 242h61z" />
    <glyph glyph-name="v.sups" horiz-adv-x="385" 
d="M453 739l-241 -358h-3l-114 358h63l72 -238l154 238h69z" />
    <glyph glyph-name="w.sups" horiz-adv-x="545" 
d="M612 739l-217 -358h-2l-60 235l-146 -235h-3l-89 358h62l50 -227l142 227h3l59 -227l132 227h69z" />
    <glyph glyph-name="x.sups" horiz-adv-x="356" 
d="M422 739l-149 -175l91 -176h-68l-70 133l-111 -133h-75l154 183l-86 168h69l64 -128l107 128h74z" />
    <glyph glyph-name="y.sups" horiz-adv-x="395" 
d="M467 739l-343 -512h-69l147 214l-94 298h64l71 -239l154 239h70z" />
    <glyph glyph-name="z.sups" horiz-adv-x="325" 
d="M392 739v-3l-236 -296h183l-9 -52h-278v3l236 295h-173l9 53h268z" />
    <glyph glyph-name="ordfeminine" unicode="&#xaa;" horiz-adv-x="425" 
d="M277 692c-71 0 -130 -61 -136 -145c-6 -67 31 -112 89 -112c52 0 88 28 115 60l25 148c-17 27 -43 49 -93 49zM272 746c63 0 94 -25 110 -51l10 44h56l-62 -351h-55l5 45c-24 -25 -64 -52 -122 -52c-87 0 -141 71 -135 160c7 118 93 205 193 205z" />
    <glyph glyph-name="ordmasculine" unicode="&#xba;" horiz-adv-x="413" 
d="M288 746c103 0 165 -78 146 -183c-18 -105 -107 -182 -210 -182c-104 0 -166 77 -147 182s107 183 211 183zM279 692c-69 0 -127 -55 -141 -129c-13 -74 27 -128 95 -128s126 54 140 128c13 74 -27 129 -94 129z" />
    <glyph glyph-name="Dcroat" unicode="&#x110;" horiz-adv-x="748" 
d="M391 735c215 0 342 -116 342 -303c0 -253 -186 -432 -462 -432h-216l61 350h-90l10 54h90l58 331h207zM386 665h-138l-46 -261h119l-10 -54h-119l-49 -280h138c217 -5 376 146 376 362c0 148 -93 233 -271 233z" />
    <glyph glyph-name="Eth" unicode="&#xd0;" horiz-adv-x="748" 
d="M391 735c215 0 342 -116 342 -303c0 -253 -186 -432 -462 -432h-216l61 350h-90l10 54h90l58 331h207zM386 665h-138l-46 -261h119l-10 -54h-119l-49 -280h138c217 -5 376 146 376 362c0 148 -93 233 -271 233z" />
    <glyph glyph-name="Eng" unicode="&#x14a;" horiz-adv-x="725" 
d="M718 735l-40 -227l-93 -530c-24 -135 -124 -218 -253 -218l12 72c86 0 149 55 165 151l16 92l-313 489l-99 -564h-76l132 748h4l370 -576l44 248l55 315h76z" />
    <glyph glyph-name="Aringacute" unicode="&#x1fa;" horiz-adv-x="684" 
d="M430 748l197 -748h-77l-46 173h-345l-105 -173h-87l459 748h4zM401 574l-200 -334h285zM645 1057l-137 -93c30 -15 49 -45 49 -79c0 -65 -56 -115 -120 -115c-54 0 -90 40 -90 90c0 44 26 80 63 99l132 98h103zM461 929c-33 0 -68 -27 -68 -66c0 -28 19 -48 49 -48
c32 0 67 27 67 66c0 27 -19 48 -48 48z" />
    <glyph glyph-name="Oslash" unicode="&#xd8;" horiz-adv-x="802" 
d="M484 748c51 0 97 -10 137 -28l69 95h74l-91 -126c75 -57 117 -149 117 -259c0 -228 -191 -443 -438 -443c-60 0 -112 13 -156 37l-75 -104h-75l100 139c-65 57 -100 144 -100 246c0 228 191 443 438 443zM714 427c0 86 -31 156 -85 200l-389 -542c34 -18 75 -28 122 -28
c192 0 352 176 352 370zM474 678c-193 0 -352 -177 -352 -371c0 -77 24 -141 69 -185l386 536c-30 12 -65 20 -103 20z" />
    <glyph glyph-name="Oslashacute" unicode="&#x1fe;" horiz-adv-x="802" 
d="M484 748c51 0 97 -10 137 -28l69 95h74l-91 -126c75 -57 117 -149 117 -259c0 -228 -191 -443 -438 -443c-60 0 -112 13 -156 37l-75 -104h-75l100 139c-65 57 -100 144 -100 246c0 228 191 443 438 443zM714 427c0 86 -31 156 -85 200l-389 -542c34 -18 75 -28 122 -28
c192 0 352 176 352 370zM474 678c-193 0 -352 -177 -352 -371c0 -77 24 -141 69 -185l386 536c-30 12 -65 20 -103 20zM687 895l-167 -113h-90l154 113h103z" />
    <glyph glyph-name="Ldot" unicode="&#x13f;" horiz-adv-x="543" 
d="M242 735l-118 -667h369l-12 -68h-444l129 735h76zM431 376c31 0 50 -23 45 -54c-6 -30 -33 -53 -63 -53c-31 0 -50 23 -44 53c5 31 32 54 62 54z" />
    <glyph glyph-name="Tbar" unicode="&#x166;" horiz-adv-x="642" 
d="M701 735l-11 -68h-268l-50 -283h154l-9 -53h-154l-58 -331h-76l58 331h-155l9 53h155l50 283h-267l11 68h611z" />
    <glyph glyph-name="Lslash" unicode="&#x141;" horiz-adv-x="567" 
d="M265 735l-67 -380l132 68l15 -54l-159 -82l-39 -219h369l-12 -68h-444l43 244l-83 -42l-15 55l110 56l74 422h76z" />
    <glyph glyph-name="Hbar" unicode="&#x126;" horiz-adv-x="748" 
d="M731 735l-26 -144h86l-9 -54h-86l-94 -537h-76l59 337h-399l-60 -337h-75l94 537h-86l10 54h85l26 144h75l-25 -144h399l26 144h76zM198 405h399l23 132h-399z" />
    <glyph glyph-name="hbar" unicode="&#x127;" horiz-adv-x="595" 
d="M260 760l-21 -119h120l-9 -54h-121l-26 -151c33 34 92 74 171 74c124 0 177 -98 155 -221l-51 -289h-72l52 295c15 86 -19 145 -96 145c-79 0 -127 -40 -175 -92l-61 -348h-72l103 587h-93l9 54h94l21 119h72z" />
    <glyph glyph-name="tbar" unicode="&#x167;" horiz-adv-x="385" 
d="M251 670l-30 -170h165l-10 -53h-165l-22 -123h166l-10 -53h-165l-19 -112c-12 -69 20 -102 79 -102c31 0 58 6 78 17l9 -61c-23 -14 -58 -23 -103 -23c-95 0 -154 63 -135 173l19 108h-101l9 53h101l22 123h-102l10 53h102l30 170h72z" />
    <glyph glyph-name="tcommaaccent" unicode="&#x163;" horiz-adv-x="385" 
d="M250 670l-30 -170h165l-13 -63h-164l-48 -278c-12 -67 18 -102 76 -102c31 0 59 6 78 16l13 -60c-22 -14 -60 -23 -104 -23c-95 0 -154 63 -135 173l47 274h-101l12 63h101l30 170h73zM141 -55c32 0 51 -21 49 -51c-1 -16 -7 -29 -15 -39l-89 -136h-4l40 223
c6 2 12 3 19 3z" />
    <glyph glyph-name="tcaron" unicode="&#x165;" horiz-adv-x="524" 
d="M250 670l-30 -170h165l-13 -63h-164l-48 -278c-12 -67 18 -102 76 -102c31 0 59 6 78 16l13 -60c-22 -14 -60 -23 -104 -23c-95 0 -154 63 -135 173l47 274h-101l12 63h101l30 170h73zM514 748c31 0 51 -21 49 -51c-1 -16 -8 -28 -16 -39l-90 -150h-4l42 238
c6 2 12 2 19 2z" />
    <glyph glyph-name="oslash" unicode="&#xf8;" horiz-adv-x="568" 
d="M327 510c38 0 72 -8 101 -22l58 82h55l-75 -105c48 -39 75 -99 75 -171c0 -159 -131 -304 -300 -304c-38 0 -71 8 -100 21l-58 -81h-56l75 105c-48 38 -75 98 -75 170c0 159 130 305 300 305zM318 447c-120 0 -221 -112 -221 -239c0 -49 16 -90 46 -117l244 341
c-20 10 -43 15 -69 15zM471 291c0 49 -17 89 -46 117l-245 -342c20 -9 43 -14 69 -14c121 0 222 113 222 239z" />
    <glyph glyph-name="oslashacute" unicode="&#x1ff;" horiz-adv-x="568" 
d="M327 510c38 0 72 -8 101 -22l58 82h55l-75 -105c48 -39 75 -99 75 -171c0 -159 -131 -304 -300 -304c-38 0 -71 8 -100 21l-58 -81h-56l75 105c-48 38 -75 98 -75 170c0 159 130 305 300 305zM318 447c-120 0 -221 -112 -221 -239c0 -49 16 -90 46 -117l244 341
c-20 10 -43 15 -69 15zM471 291c0 49 -17 89 -46 117l-245 -342c20 -9 43 -14 69 -14c121 0 222 113 222 239zM544 701l-172 -123h-83l157 123h98z" />
    <glyph glyph-name="aringacute" unicode="&#x1fb;" 
d="M309 510c87 0 136 -42 156 -76l14 66h67l-88 -500h-67l11 64c-37 -38 -93 -74 -179 -74c-127 0 -196 93 -196 221c0 149 113 299 282 299zM308 444c-120 0 -208 -117 -208 -231c0 -95 51 -158 132 -158c89 0 140 50 180 96l38 212c-23 48 -65 81 -142 81zM550 849
l-136 -92c31 -14 50 -44 50 -80c0 -64 -55 -114 -119 -114c-54 0 -91 40 -91 89c0 42 23 78 58 98l135 99h103zM368 722c-32 0 -67 -27 -67 -66c0 -28 19 -48 48 -48c33 0 68 27 68 66c0 28 -19 48 -49 48z" />
    <glyph glyph-name="ldot" unicode="&#x140;" horiz-adv-x="404" 
d="M243 760l-135 -760h-72l134 760h73zM340 310c31 0 50 -23 45 -54c-6 -30 -33 -53 -63 -53c-31 0 -50 23 -44 53c5 31 32 54 62 54z" />
    <glyph glyph-name="dcaron" unicode="&#x10f;" horiz-adv-x="729" 
d="M592 760l-134 -760h-67l11 64c-36 -38 -93 -74 -179 -74c-127 0 -196 93 -196 221c0 149 113 299 282 299c83 0 132 -39 154 -72l57 322h72zM308 444c-120 0 -208 -117 -208 -231c0 -95 51 -158 132 -158c89 0 140 50 180 96l38 212c-23 48 -65 81 -142 81zM681 748
c31 0 51 -21 49 -51c-1 -16 -8 -28 -16 -39l-90 -150h-4l42 238c6 2 12 2 19 2z" />
    <glyph glyph-name="dcroat" unicode="&#x111;" horiz-adv-x="601" 
d="M592 760l-21 -119h70l-10 -54h-70l-103 -587h-67l11 64c-36 -38 -93 -74 -179 -74c-127 0 -196 93 -196 221c0 149 113 299 282 299c83 0 132 -39 154 -72l26 149h-144l10 54h144l21 119h72zM308 444c-120 0 -208 -117 -208 -231c0 -95 51 -158 132 -158
c89 0 140 50 180 96l38 212c-23 48 -65 81 -142 81z" />
    <glyph glyph-name="hcircumflex" unicode="&#x125;" horiz-adv-x="576" 
d="M242 760l-57 -324c33 34 92 74 171 74c124 0 177 -98 155 -221l-51 -289h-72l52 295c15 86 -19 145 -96 145c-79 0 -127 -40 -175 -92l-61 -348h-72l134 760h72zM236 918l126 -140h-64l-69 73l-92 -73h-77z" />
    <glyph glyph-name="lcaron" unicode="&#x13e;" horiz-adv-x="382" 
d="M243 760l-135 -760h-72l134 760h73zM369 748c31 0 51 -21 49 -51c-1 -16 -8 -28 -16 -39l-90 -150h-4l42 238c6 2 12 2 19 2z" />
    <glyph glyph-name="eth" unicode="&#xf0;" horiz-adv-x="560" 
d="M319 484c17 0 34 -2 50 -5l-58 105h-174l10 56h133l-66 120h80l66 -120h177l-9 -56h-137l102 -186c22 -33 34 -74 34 -119c0 -151 -127 -289 -292 -289c-127 0 -207 86 -207 205c0 151 126 289 291 289zM311 422c-120 0 -210 -110 -210 -224c0 -85 54 -146 143 -146
c120 0 210 110 210 223c0 86 -54 147 -143 147z" />
    <glyph glyph-name="lslash" unicode="&#x142;" horiz-adv-x="256" 
d="M233 760l-66 -368l94 46l13 -48l-117 -58l-59 -332h-72l51 292l-81 -40l-14 48l106 52l72 408h73z" />
    <glyph glyph-name="Lcaron" unicode="&#x13d;" horiz-adv-x="543" 
d="M242 735l-118 -667h369l-12 -68h-444l129 735h76zM506 748c31 0 51 -21 49 -51c-1 -16 -8 -28 -16 -39l-90 -150h-4l42 238c6 2 12 2 19 2z" />
    <glyph glyph-name="G.smcp_I.smcp" horiz-adv-x="651" 
d="M377 772c152 0 246 -106 246 -252c0 -185 -149 -357 -350 -357c-152 0 -245 107 -245 252c0 184 149 357 349 357zM370 724c-159 0 -292 -146 -292 -304c0 -127 77 -209 202 -209c160 0 292 145 292 304c0 127 -76 209 -202 209z" />
    <glyph glyph-name="zero.slash" horiz-adv-x="586" 
d="M373 748c136 0 202 -102 202 -263c0 -223 -103 -498 -325 -498c-136 0 -201 102 -201 263c0 223 102 498 324 498zM501 486c0 31 -3 60 -9 84l-337 -467c22 -34 56 -52 101 -52c176 0 245 269 245 435zM367 684c-176 0 -245 -270 -245 -436c0 -31 2 -59 8 -83l337 466
c-22 34 -55 53 -100 53z" />
    <glyph glyph-name="Eogonek" unicode="&#x118;" horiz-adv-x="569" 
d="M611 735l-12 -70h-369l-45 -258h326l-14 -68h-326l-46 -269h377l-12 -70h-51c-35 -14 -61 -42 -61 -83c0 -40 26 -59 61 -59c16 0 29 3 38 8l9 -46c-12 -5 -30 -9 -50 -9c-67 0 -109 41 -109 105c0 35 11 62 32 84h-322l129 735h445z" />
    <glyph glyph-name="Iogonek" unicode="&#x12e;" horiz-adv-x="249" 
d="M244 735l-129 -735h-31c-35 -14 -61 -42 -61 -83c0 -40 26 -59 61 -59c16 0 29 3 38 8l9 -46c-12 -5 -30 -9 -50 -9c-67 0 -109 41 -109 105c0 53 26 89 72 113l124 706h76z" />
    <glyph glyph-name="eogonek" unicode="&#x119;" horiz-adv-x="524" 
d="M307 510c146 0 211 -112 184 -256l-5 -30h-385c-11 -101 36 -172 142 -172c71 0 123 29 164 70l46 -44c-31 -31 -65 -54 -103 -68c-23 -15 -38 -39 -38 -71c0 -40 26 -59 61 -59c16 0 29 3 38 8l9 -46c-12 -5 -30 -9 -50 -9c-67 0 -109 41 -109 105c0 21 3 38 11 54
c-12 -1 -24 -2 -36 -2c-138 0 -209 87 -209 207c0 155 105 313 280 313zM302 446c-98 0 -168 -72 -190 -163h313c14 93 -23 163 -123 163z" />
    <glyph glyph-name="dotlessi" unicode="&#x131;" horiz-adv-x="238" 
d="M196 500l-88 -500h-72l87 500h73z" />
    <glyph glyph-name="jcircumflex" unicode="&#x135;" horiz-adv-x="238" 
d="M196 500l-103 -582c-16 -90 -90 -158 -188 -158c-63 0 -105 23 -134 59l52 46c18 -22 45 -40 84 -40c58 0 104 41 114 99l102 576h73zM199 731l120 -154h-63l-64 76l-92 -76h-76z" />
    <glyph glyph-name="kcommaaccent" unicode="&#x137;" horiz-adv-x="522" 
d="M243 760l-109 -617l298 357h92l-194 -227l136 -273h-78l-108 213l-179 -213h-65l134 760h73zM209 -54c32 0 51 -21 49 -51c-1 -16 -7 -29 -15 -39l-89 -136h-4l40 223c6 2 12 3 19 3z" />
    <glyph glyph-name="lcommaaccent" unicode="&#x13c;" horiz-adv-x="238" 
d="M243 760l-135 -760h-72l134 760h73zM41 -54c32 0 51 -21 49 -51c-1 -16 -7 -29 -15 -39l-89 -136h-4l40 223c6 2 12 3 19 3z" />
    <glyph glyph-name="uogonek" unicode="&#x173;" horiz-adv-x="566" 
d="M527 500l-88 -500h-9c-35 -14 -61 -42 -61 -83c0 -40 26 -59 61 -59c16 0 29 3 38 8l9 -46c-12 -5 -30 -9 -50 -9c-67 0 -109 41 -109 105c0 47 20 80 57 104l6 46c-34 -35 -87 -76 -171 -76c-118 0 -171 95 -149 219l51 291h72l-52 -297c-15 -86 16 -144 90 -144
c78 0 124 40 171 91l61 350h73z" />
    <glyph glyph-name="aogonek" unicode="&#x105;" 
d="M309 510c87 0 136 -42 156 -76l14 66h67l-85 -483l5 -17c-35 -14 -61 -42 -61 -83c0 -40 26 -59 61 -59c16 0 29 3 38 8l9 -46c-12 -5 -30 -9 -50 -9c-67 0 -109 41 -109 105c0 38 13 68 38 90l10 58c-37 -38 -93 -74 -179 -74c-127 0 -196 93 -196 221
c0 149 113 299 282 299zM308 444c-120 0 -208 -117 -208 -231c0 -95 51 -158 132 -158c89 0 140 50 180 96l38 212c-23 48 -65 81 -142 81z" />
    <glyph glyph-name="Aogonek" unicode="&#x104;" horiz-adv-x="684" 
d="M427 748l197 -748h-4c-35 -14 -61 -42 -61 -83c0 -40 26 -59 61 -59c16 0 29 3 38 8l9 -46c-12 -5 -30 -9 -50 -9c-67 0 -109 41 -109 105c0 38 13 67 37 89l-44 168h-345l-105 -173h-87l459 748h4zM398 574l-200 -334h285z" />
    <glyph glyph-name="Ccedilla" unicode="&#xc7;" horiz-adv-x="679" 
d="M478 748c110 0 187 -41 242 -108l-52 -51c-42 55 -107 89 -193 89c-186 0 -353 -156 -353 -372c-2 -159 102 -249 238 -249c89 0 170 35 234 94l42 -60c-79 -68 -174 -104 -280 -104c-8 0 -16 0 -23 1l-16 -49c45 -6 80 -34 79 -81c0 -67 -56 -108 -120 -108
c-41 0 -74 18 -91 42l35 31c11 -16 31 -27 58 -27c34 0 65 21 65 58c0 22 -12 35 -37 40c-18 3 -32 1 -48 -3l-3 4l34 98c-143 26 -244 138 -243 310c0 248 197 445 432 445z" />
    <glyph glyph-name="Gcommaaccent" unicode="&#x122;" horiz-adv-x="735" 
d="M480 748c109 0 187 -39 242 -106l-55 -53c-42 54 -108 89 -194 89c-180 0 -321 -135 -346 -326c-25 -173 75 -295 242 -295c77 0 147 22 203 60l34 189h-202l12 67h278l-52 -293c-77 -60 -171 -93 -280 -93c-214 0 -338 150 -312 362c27 225 209 399 430 399zM317 -56
c32 0 51 -21 49 -51c-1 -16 -7 -29 -15 -39l-89 -136h-4l40 223c6 2 12 3 19 3z" />
    <glyph glyph-name="Kcommaaccent" unicode="&#x136;" horiz-adv-x="646" 
d="M661 735l-269 -355l194 -380h-89l-158 312l-238 -312h-64l129 735h76l-99 -562l423 562h95zM271 -54c32 0 51 -21 49 -51c-1 -16 -7 -29 -15 -39l-89 -136h-4l40 223c6 2 12 3 19 3z" />
    <glyph glyph-name="Lcommaaccent" unicode="&#x13b;" horiz-adv-x="543" 
d="M242 735l-118 -667h369l-12 -68h-444l129 735h76zM228 -54c32 0 51 -21 49 -51c-1 -16 -7 -29 -15 -39l-89 -136h-4l40 223c6 2 12 3 19 3z" />
    <glyph glyph-name="Ncommaaccent" unicode="&#x145;" horiz-adv-x="725" 
d="M718 735l-132 -748h-4l-370 577l-99 -564h-76l132 748h4l371 -577l98 564h76zM294 -54c32 0 51 -21 49 -51c-1 -16 -7 -29 -15 -39l-89 -136h-4l40 223c6 2 12 3 19 3z" />
    <glyph glyph-name="Rcommaaccent" unicode="&#x156;" horiz-adv-x="615" 
d="M379 735c135 0 230 -70 230 -189c0 -127 -83 -212 -196 -244l137 -302h-82l-131 290c-9 -1 -18 -1 -27 -1h-147l-50 -289h-76l129 735h213zM370 667h-139l-56 -310h140c111 0 217 60 217 185c-1 83 -62 125 -162 125zM252 -54c32 0 51 -21 49 -51c-1 -16 -7 -29 -15 -39
l-89 -136h-4l40 223c6 2 12 3 19 3z" />
    <glyph glyph-name="Scedilla" unicode="&#x15e;" horiz-adv-x="576" 
d="M344 748c100 0 172 -35 220 -81l-47 -56c-41 40 -102 67 -176 67c-99 0 -184 -58 -184 -150c0 -67 47 -94 159 -119c145 -33 208 -87 208 -185c0 -144 -125 -233 -278 -237l-16 -48c45 -6 80 -34 79 -81c0 -67 -56 -108 -120 -108c-41 0 -74 18 -91 42l35 31
c11 -16 31 -27 58 -27c34 0 65 21 65 58c0 22 -12 35 -37 40c-18 3 -32 1 -48 -3l-3 4l33 93c-92 7 -161 43 -210 95l49 57c46 -50 117 -83 199 -83c118 0 209 66 209 157c0 67 -52 101 -158 125c-153 35 -209 87 -209 179c0 134 113 230 263 230z" />
    <glyph glyph-name="Scommaaccent" unicode="&#x218;" horiz-adv-x="576" 
d="M344 748c100 0 172 -35 220 -81l-47 -56c-41 40 -102 67 -176 67c-99 0 -184 -58 -184 -150c0 -67 47 -94 159 -119c145 -33 208 -87 208 -185c0 -147 -131 -237 -289 -237c-109 0 -189 38 -244 96l49 57c46 -50 117 -83 199 -83c118 0 209 66 209 157
c0 67 -52 101 -158 125c-153 35 -209 87 -209 179c0 134 113 230 263 230zM206 -56c32 0 51 -21 49 -51c-1 -16 -7 -29 -15 -39l-89 -136h-4l40 223c6 2 12 3 19 3z" />
    <glyph glyph-name="Tcommaaccent" unicode="&#x162;" horiz-adv-x="642" 
d="M701 735l-11 -68h-268l-117 -667h-76l117 667h-267l11 68h611zM233 -54c32 0 51 -21 49 -51c-1 -16 -7 -29 -15 -39l-89 -136h-4l40 223c6 2 12 3 19 3z" />
    <glyph glyph-name="Uogonek" unicode="&#x172;" horiz-adv-x="687" 
d="M688 735l-84 -479c-22 -123 -84 -211 -185 -249c-26 -15 -43 -40 -43 -74c0 -40 26 -59 61 -59c16 0 29 3 38 8l9 -46c-12 -5 -30 -9 -50 -9c-67 0 -109 41 -109 105c0 22 4 41 13 57c-13 -1 -26 -2 -40 -2c-171 0 -255 105 -225 275l83 473h76l-83 -475
c-22 -125 24 -203 154 -203c125 0 204 80 225 203l84 475h76z" />
    <glyph glyph-name="ccedilla" unicode="&#xe7;" horiz-adv-x="499" 
d="M321 510c95 0 150 -53 177 -110l-57 -37c-19 43 -57 82 -126 82c-125 0 -215 -107 -215 -237c0 -92 46 -153 148 -153c69 0 123 40 157 83l51 -44c-50 -60 -121 -103 -212 -104l-15 -45c45 -6 80 -34 79 -81c0 -67 -56 -108 -120 -108c-41 0 -74 18 -91 42l35 31
c11 -16 31 -27 58 -27c34 0 65 21 65 58c0 22 -12 35 -37 40c-18 3 -32 1 -48 -3l-3 4l32 92c-114 15 -172 100 -172 211c0 173 129 306 294 306z" />
    <glyph glyph-name="iogonek" unicode="&#x12f;" horiz-adv-x="238" 
d="M196 500l-88 -500h-21c-35 -14 -61 -42 -61 -83c0 -40 26 -59 61 -59c16 0 29 3 38 8l9 -46c-12 -5 -30 -9 -50 -9c-67 0 -109 41 -109 105c0 50 23 85 65 109l83 475h73zM197 715c27 0 45 -19 45 -46c0 -33 -29 -59 -62 -59c-27 0 -44 19 -44 45c0 33 27 60 61 60z" />
    <glyph glyph-name="ncommaaccent" unicode="&#x146;" horiz-adv-x="576" 
d="M356 510c124 0 177 -98 155 -221l-51 -289h-72l52 295c15 86 -19 145 -96 145c-79 0 -127 -40 -175 -92l-61 -348h-72l87 500h67l-9 -67c33 34 92 77 175 77zM222 -54c32 0 51 -21 49 -51c-1 -16 -7 -29 -15 -39l-89 -136h-4l40 223c6 2 12 3 19 3z" />
    <glyph glyph-name="rcommaaccent" unicode="&#x157;" horiz-adv-x="316" 
d="M346 510l-14 -73h-7c-63 0 -110 -33 -155 -88l-62 -349h-72l87 500h67l-8 -65c33 38 87 75 164 75zM39 -54c32 0 51 -21 49 -51c-1 -16 -7 -29 -15 -39l-89 -136h-4l40 223c6 2 12 3 19 3z" />
    <glyph glyph-name="scedilla" unicode="&#x15f;" horiz-adv-x="449" 
d="M265 510c67 0 119 -23 153 -54l-41 -56c-28 27 -65 44 -120 44c-66 0 -118 -28 -118 -87c0 -41 30 -55 99 -72c112 -27 151 -62 151 -126c0 -102 -93 -163 -197 -168l-15 -46c45 -6 80 -34 79 -81c0 -67 -56 -108 -120 -108c-41 0 -74 18 -91 42l35 31
c11 -16 31 -27 58 -27c34 0 65 21 65 58c0 22 -12 35 -37 40c-18 3 -32 1 -48 -3l-3 4l32 90c-64 5 -113 27 -147 60l43 58c37 -34 79 -54 143 -54c59 0 130 30 130 97c0 38 -33 57 -104 73c-101 25 -147 57 -147 125c0 97 90 160 200 160z" />
    <glyph glyph-name="scommaaccent" unicode="&#x219;" horiz-adv-x="449" 
d="M265 510c67 0 119 -23 153 -54l-41 -56c-28 27 -65 44 -120 44c-66 0 -118 -28 -118 -87c0 -41 30 -55 99 -72c112 -27 151 -62 151 -126c0 -107 -103 -169 -213 -169c-78 0 -137 24 -176 61l43 58c37 -34 79 -54 143 -54c59 0 130 30 130 97c0 38 -33 57 -104 73
c-101 25 -147 57 -147 125c0 97 90 160 200 160zM146 -56c32 0 51 -21 49 -51c-1 -16 -7 -29 -15 -39l-89 -136h-4l40 223c6 2 12 3 19 3z" />
    <glyph glyph-name="lacute" unicode="&#x13a;" horiz-adv-x="238" 
d="M243 760l-135 -760h-72l134 760h73zM426 906l-167 -113h-90l154 113h103z" />
    <glyph glyph-name="gcommaaccent" unicode="&#x123;" horiz-adv-x="586" 
d="M309 510c83 0 132 -39 154 -72l17 62h67l-88 -498c-27 -151 -135 -242 -279 -242c-107 0 -171 42 -212 105l54 44c32 -50 82 -84 157 -84c111 0 188 69 208 181l11 62c-32 -37 -89 -72 -175 -72c-127 0 -196 87 -196 215c0 149 113 299 282 299zM308 444
c-120 0 -208 -117 -208 -231c0 -95 51 -152 132 -152c89 0 140 50 180 95l38 207c-23 48 -65 81 -142 81zM413 802l-42 -237c-7 -2 -13 -3 -20 -3c-31 0 -51 21 -49 52c2 15 8 28 16 38l91 150h4z" />
    <glyph glyph-name="aacute" unicode="&#xe1;" 
d="M309 510c87 0 136 -42 156 -76l14 66h67l-88 -500h-67l11 64c-37 -38 -93 -74 -179 -74c-127 0 -196 93 -196 221c0 149 113 299 282 299zM308 444c-120 0 -208 -117 -208 -231c0 -95 51 -158 132 -158c89 0 140 50 180 96l38 212c-23 48 -65 81 -142 81zM546 701
l-172 -123h-83l157 123h98z" />
    <glyph glyph-name="abreve" unicode="&#x103;" 
d="M309 510c87 0 136 -42 156 -76l14 66h67l-88 -500h-67l11 64c-37 -38 -93 -74 -179 -74c-127 0 -196 93 -196 221c0 149 113 299 282 299zM308 444c-120 0 -208 -117 -208 -231c0 -95 51 -158 132 -158c89 0 140 50 180 96l38 212c-23 48 -65 81 -142 81zM508 718
c-12 -84 -76 -140 -159 -140c-87 0 -144 61 -132 140h55c-9 -50 23 -86 76 -86c56 0 96 36 105 86h55z" />
    <glyph glyph-name="acircumflex" unicode="&#xe2;" 
d="M309 510c87 0 136 -42 156 -76l14 66h67l-88 -500h-67l11 64c-37 -38 -93 -74 -179 -74c-127 0 -196 93 -196 221c0 149 113 299 282 299zM308 444c-120 0 -208 -117 -208 -231c0 -95 51 -158 132 -158c89 0 140 50 180 96l38 212c-23 48 -65 81 -142 81zM365 731
l120 -154h-63l-64 76l-92 -76h-76z" />
    <glyph glyph-name="adieresis" unicode="&#xe4;" 
d="M309 510c87 0 136 -42 156 -76l14 66h67l-88 -500h-67l11 64c-37 -38 -93 -74 -179 -74c-127 0 -196 93 -196 221c0 149 113 299 282 299zM308 444c-120 0 -208 -117 -208 -231c0 -95 51 -158 132 -158c89 0 140 50 180 96l38 212c-23 48 -65 81 -142 81zM277 683
c23 0 39 -16 39 -40c0 -29 -25 -52 -54 -52c-24 0 -39 16 -39 40c0 29 24 52 54 52zM437 683c23 0 39 -16 39 -40c0 -29 -25 -52 -54 -52c-24 0 -39 16 -39 40c0 29 24 52 54 52z" />
    <glyph glyph-name="aeacute" unicode="&#x1fd;" horiz-adv-x="942" 
d="M719 510c146 0 216 -112 189 -256l-5 -30h-400c-11 -101 42 -172 153 -172c70 0 127 29 168 70l46 -44c-58 -58 -134 -88 -221 -88s-147 38 -178 98l-16 -88h-64l11 64c-37 -38 -93 -74 -179 -74c-127 0 -196 93 -196 221c0 149 113 299 282 299c87 0 136 -42 156 -76
l14 66h64l-12 -80c34 44 96 90 188 90zM308 444c-120 0 -208 -117 -208 -231c0 -95 51 -158 132 -158c89 0 140 50 180 96l38 212c-23 48 -65 81 -142 81zM715 446c-102 0 -179 -72 -201 -163h328c13 91 -27 163 -127 163zM732 701l-172 -123h-83l157 123h98z" />
    <glyph glyph-name="agrave" unicode="&#xe0;" 
d="M309 510c87 0 136 -42 156 -76l14 66h67l-88 -500h-67l11 64c-37 -38 -93 -74 -179 -74c-127 0 -196 93 -196 221c0 149 113 299 282 299zM308 444c-120 0 -208 -117 -208 -231c0 -95 51 -158 132 -158c89 0 140 50 180 96l38 212c-23 48 -65 81 -142 81zM258 701
l126 -123h-75l-136 123h85z" />
    <glyph glyph-name="amacron" unicode="&#x101;" 
d="M309 510c87 0 136 -42 156 -76l14 66h67l-88 -500h-67l11 64c-37 -38 -93 -74 -179 -74c-127 0 -196 93 -196 221c0 149 113 299 282 299zM308 444c-120 0 -208 -117 -208 -231c0 -95 51 -158 132 -158c89 0 140 50 180 96l38 212c-23 48 -65 81 -142 81zM474 652
l-10 -53h-252l10 53h252z" />
    <glyph glyph-name="aring" unicode="&#xe5;" 
d="M309 510c87 0 136 -42 156 -76l14 66h67l-88 -500h-67l11 64c-37 -38 -93 -74 -179 -74c-127 0 -196 93 -196 221c0 149 113 299 282 299zM308 444c-120 0 -208 -117 -208 -231c0 -95 51 -158 132 -158c89 0 140 50 180 96l38 212c-23 48 -65 81 -142 81zM370 775
c54 0 91 -39 91 -89c0 -64 -55 -114 -119 -114c-54 0 -91 40 -91 89c0 65 55 114 119 114zM365 731c-32 0 -67 -27 -67 -66c0 -28 19 -48 48 -48c33 0 68 27 68 66c0 28 -19 48 -49 48z" />
    <glyph glyph-name="atilde" unicode="&#xe3;" 
d="M309 510c87 0 136 -42 156 -76l14 66h67l-88 -500h-67l11 64c-37 -38 -93 -74 -179 -74c-127 0 -196 93 -196 221c0 149 113 299 282 299zM308 444c-120 0 -208 -117 -208 -231c0 -95 51 -158 132 -158c89 0 140 50 180 96l38 212c-23 48 -65 81 -142 81zM296 709
c75 0 77 -85 122 -85c33 0 50 34 57 78h50c-9 -83 -55 -130 -110 -130c-79 0 -76 85 -123 85c-34 0 -51 -34 -57 -78h-51c6 79 56 130 112 130z" />
    <glyph glyph-name="cacute" unicode="&#x107;" horiz-adv-x="499" 
d="M321 510c95 0 150 -53 177 -110l-57 -37c-19 43 -57 82 -126 82c-125 0 -215 -107 -215 -237c0 -92 46 -153 148 -153c69 0 123 40 157 83l51 -44c-50 -60 -122 -104 -215 -104c-142 0 -214 91 -214 214c0 173 129 306 294 306zM549 701l-172 -123h-83l157 123h98z" />
    <glyph glyph-name="ccaron" unicode="&#x10d;" horiz-adv-x="499" 
d="M321 510c95 0 150 -53 177 -110l-57 -37c-19 43 -57 82 -126 82c-125 0 -215 -107 -215 -237c0 -92 46 -153 148 -153c69 0 123 40 157 83l51 -44c-50 -60 -122 -104 -215 -104c-142 0 -214 91 -214 214c0 173 129 306 294 306zM519 727l-174 -154l-121 154h63l65 -76
l91 76h76z" />
    <glyph glyph-name="ccircumflex" unicode="&#x109;" horiz-adv-x="499" 
d="M321 510c95 0 150 -53 177 -110l-57 -37c-19 43 -57 82 -126 82c-125 0 -215 -107 -215 -237c0 -92 46 -153 148 -153c69 0 123 40 157 83l51 -44c-50 -60 -122 -104 -215 -104c-142 0 -214 91 -214 214c0 173 129 306 294 306zM368 731l120 -154h-63l-64 76l-92 -76h-76
z" />
    <glyph glyph-name="cdotaccent" unicode="&#x10b;" horiz-adv-x="499" 
d="M321 510c95 0 150 -53 177 -110l-57 -37c-19 43 -57 82 -126 82c-125 0 -215 -107 -215 -237c0 -92 46 -153 148 -153c69 0 123 40 157 83l51 -44c-50 -60 -122 -104 -215 -104c-142 0 -214 91 -214 214c0 173 129 306 294 306zM366 707c27 0 44 -17 44 -44
c0 -33 -29 -60 -61 -60c-27 0 -45 17 -45 43c0 33 29 61 62 61z" />
    <glyph glyph-name="eacute" unicode="&#xe9;" horiz-adv-x="524" 
d="M307 510c146 0 211 -112 184 -256l-5 -30h-385c-11 -101 36 -172 142 -172c71 0 123 29 164 70l46 -44c-58 -58 -130 -88 -217 -88c-138 0 -209 87 -209 207c0 155 105 313 280 313zM302 446c-98 0 -168 -72 -190 -163h313c14 93 -23 163 -123 163zM542 701l-172 -123
h-83l157 123h98z" />
    <glyph glyph-name="ebreve" unicode="&#x115;" horiz-adv-x="524" 
d="M307 510c146 0 211 -112 184 -256l-5 -30h-385c-11 -101 36 -172 142 -172c71 0 123 29 164 70l46 -44c-58 -58 -130 -88 -217 -88c-138 0 -209 87 -209 207c0 155 105 313 280 313zM302 446c-98 0 -168 -72 -190 -163h313c14 93 -23 163 -123 163zM504 718
c-12 -84 -76 -140 -159 -140c-87 0 -144 61 -132 140h55c-9 -50 23 -86 76 -86c56 0 96 36 105 86h55z" />
    <glyph glyph-name="ecaron" unicode="&#x11b;" horiz-adv-x="524" 
d="M307 510c146 0 211 -112 184 -256l-5 -30h-385c-11 -101 36 -172 142 -172c71 0 123 29 164 70l46 -44c-58 -58 -130 -88 -217 -88c-138 0 -209 87 -209 207c0 155 105 313 280 313zM302 446c-98 0 -168 -72 -190 -163h313c14 93 -23 163 -123 163zM513 727l-174 -154
l-121 154h63l65 -76l91 76h76z" />
    <glyph glyph-name="ecircumflex" unicode="&#xea;" horiz-adv-x="524" 
d="M307 510c146 0 211 -112 184 -256l-5 -30h-385c-11 -101 36 -172 142 -172c71 0 123 29 164 70l46 -44c-58 -58 -130 -88 -217 -88c-138 0 -209 87 -209 207c0 155 105 313 280 313zM302 446c-98 0 -168 -72 -190 -163h313c14 93 -23 163 -123 163zM361 731l120 -154h-63
l-64 76l-92 -76h-76z" />
    <glyph glyph-name="edieresis" unicode="&#xeb;" horiz-adv-x="524" 
d="M307 510c146 0 211 -112 184 -256l-5 -30h-385c-11 -101 36 -172 142 -172c71 0 123 29 164 70l46 -44c-58 -58 -130 -88 -217 -88c-138 0 -209 87 -209 207c0 155 105 313 280 313zM302 446c-98 0 -168 -72 -190 -163h313c14 93 -23 163 -123 163zM273 683
c23 0 39 -16 39 -40c0 -29 -25 -52 -54 -52c-24 0 -39 16 -39 40c0 29 24 52 54 52zM433 683c23 0 39 -16 39 -40c0 -29 -25 -52 -54 -52c-24 0 -39 16 -39 40c0 29 24 52 54 52z" />
    <glyph glyph-name="edotaccent" unicode="&#x117;" horiz-adv-x="524" 
d="M307 510c146 0 211 -112 184 -256l-5 -30h-385c-11 -101 36 -172 142 -172c71 0 123 29 164 70l46 -44c-58 -58 -130 -88 -217 -88c-138 0 -209 87 -209 207c0 155 105 313 280 313zM302 446c-98 0 -168 -72 -190 -163h313c14 93 -23 163 -123 163zM359 707
c27 0 44 -17 44 -44c0 -33 -29 -60 -61 -60c-27 0 -45 17 -45 43c0 33 29 61 62 61z" />
    <glyph glyph-name="egrave" unicode="&#xe8;" horiz-adv-x="524" 
d="M307 510c146 0 211 -112 184 -256l-5 -30h-385c-11 -101 36 -172 142 -172c71 0 123 29 164 70l46 -44c-58 -58 -130 -88 -217 -88c-138 0 -209 87 -209 207c0 155 105 313 280 313zM302 446c-98 0 -168 -72 -190 -163h313c14 93 -23 163 -123 163zM254 701l126 -123h-75
l-136 123h85z" />
    <glyph glyph-name="emacron" unicode="&#x113;" horiz-adv-x="524" 
d="M307 510c146 0 211 -112 184 -256l-5 -30h-385c-11 -101 36 -172 142 -172c71 0 123 29 164 70l46 -44c-58 -58 -130 -88 -217 -88c-138 0 -209 87 -209 207c0 155 105 313 280 313zM302 446c-98 0 -168 -72 -190 -163h313c14 93 -23 163 -123 163zM470 652l-10 -53h-252
l10 53h252z" />
    <glyph glyph-name="gbreve" unicode="&#x11f;" horiz-adv-x="586" 
d="M309 510c83 0 132 -39 154 -72l17 62h67l-88 -498c-27 -151 -135 -242 -279 -242c-107 0 -171 42 -212 105l54 44c32 -50 82 -84 157 -84c111 0 188 69 208 181l11 62c-32 -37 -89 -72 -175 -72c-127 0 -196 87 -196 215c0 149 113 299 282 299zM308 444
c-120 0 -208 -117 -208 -231c0 -95 51 -152 132 -152c89 0 140 50 180 95l38 207c-23 48 -65 81 -142 81zM511 718c-12 -84 -76 -140 -159 -140c-87 0 -144 61 -132 140h55c-9 -50 23 -86 76 -86c56 0 96 36 105 86h55z" />
    <glyph glyph-name="gcircumflex" unicode="&#x11d;" horiz-adv-x="586" 
d="M309 510c83 0 132 -39 154 -72l17 62h67l-88 -498c-27 -151 -135 -242 -279 -242c-107 0 -171 42 -212 105l54 44c32 -50 82 -84 157 -84c111 0 188 69 208 181l11 62c-32 -37 -89 -72 -175 -72c-127 0 -196 87 -196 215c0 149 113 299 282 299zM308 444
c-120 0 -208 -117 -208 -231c0 -95 51 -152 132 -152c89 0 140 50 180 95l38 207c-23 48 -65 81 -142 81zM368 731l120 -154h-63l-64 76l-92 -76h-76z" />
    <glyph glyph-name="gdotaccent" unicode="&#x121;" horiz-adv-x="586" 
d="M309 510c83 0 132 -39 154 -72l17 62h67l-88 -498c-27 -151 -135 -242 -279 -242c-107 0 -171 42 -212 105l54 44c32 -50 82 -84 157 -84c111 0 188 69 208 181l11 62c-32 -37 -89 -72 -175 -72c-127 0 -196 87 -196 215c0 149 113 299 282 299zM308 444
c-120 0 -208 -117 -208 -231c0 -95 51 -152 132 -152c89 0 140 50 180 95l38 207c-23 48 -65 81 -142 81zM366 707c27 0 44 -17 44 -44c0 -33 -29 -60 -61 -60c-27 0 -45 17 -45 43c0 33 29 61 62 61z" />
    <glyph glyph-name="iacute" unicode="&#xed;" horiz-adv-x="238" 
d="M380 701l-172 -123h-83l157 123h98zM196 500l-88 -500h-72l87 500h73z" />
    <glyph glyph-name="ibreve" unicode="&#x12d;" horiz-adv-x="238" 
d="M343 718c-12 -84 -76 -140 -159 -140c-87 0 -144 61 -132 140h55c-9 -50 23 -86 76 -86c56 0 96 36 105 86h55zM196 500l-88 -500h-72l87 500h73z" />
    <glyph glyph-name="icircumflex" unicode="&#xee;" horiz-adv-x="238" 
d="M196 500l-88 -500h-72l87 500h73zM200 731l120 -154h-63l-64 76l-92 -76h-76z" />
    <glyph glyph-name="idieresis" unicode="&#xef;" horiz-adv-x="238" 
d="M112 683c23 0 39 -16 39 -40c0 -29 -25 -52 -54 -52c-24 0 -39 16 -39 40c0 29 24 52 54 52zM272 683c23 0 39 -16 39 -40c0 -29 -25 -52 -54 -52c-24 0 -39 16 -39 40c0 29 24 52 54 52zM196 500l-88 -500h-72l87 500h73z" />
    <glyph glyph-name="igrave" unicode="&#xec;" horiz-adv-x="238" 
d="M93 701l126 -123h-75l-136 123h85zM196 500l-88 -500h-72l87 500h73z" />
    <glyph glyph-name="imacron" unicode="&#x12b;" horiz-adv-x="238" 
d="M310 652l-10 -53h-252l10 53h252zM196 500l-88 -500h-72l87 500h73z" />
    <glyph glyph-name="itilde" unicode="&#x129;" horiz-adv-x="238" 
d="M131 709c75 0 77 -85 122 -85c33 0 50 34 57 78h50c-9 -83 -55 -130 -110 -130c-79 0 -76 85 -123 85c-34 0 -51 -34 -57 -78h-51c6 79 56 130 112 130zM196 500l-88 -500h-72l87 500h73z" />
    <glyph glyph-name="nacute" unicode="&#x144;" horiz-adv-x="576" 
d="M356 510c124 0 177 -98 155 -221l-51 -289h-72l52 295c15 86 -19 145 -96 145c-79 0 -127 -40 -175 -92l-61 -348h-72l87 500h67l-9 -67c33 34 92 77 175 77zM561 701l-172 -123h-83l157 123h98z" />
    <glyph glyph-name="ncaron" unicode="&#x148;" horiz-adv-x="576" 
d="M356 510c124 0 177 -98 155 -221l-51 -289h-72l52 295c15 86 -19 145 -96 145c-79 0 -127 -40 -175 -92l-61 -348h-72l87 500h67l-9 -67c33 34 92 77 175 77zM531 727l-174 -154l-121 154h63l65 -76l91 76h76z" />
    <glyph glyph-name="ntilde" unicode="&#xf1;" horiz-adv-x="576" 
d="M356 510c124 0 177 -98 155 -221l-51 -289h-72l52 295c15 86 -19 145 -96 145c-79 0 -127 -40 -175 -92l-61 -348h-72l87 500h67l-9 -67c33 34 92 77 175 77zM301 709c75 0 77 -85 122 -85c33 0 50 34 57 78h50c-9 -83 -55 -130 -110 -130c-79 0 -76 85 -123 85
c-34 0 -51 -34 -57 -78h-51c6 79 56 130 112 130z" />
    <glyph glyph-name="oacute" unicode="&#xf3;" horiz-adv-x="567" 
d="M318 444c-119 0 -218 -111 -218 -235c0 -91 59 -154 150 -154c118 0 217 112 217 236c0 91 -58 153 -149 153zM327 510c132 0 214 -91 214 -216c0 -159 -131 -304 -300 -304c-132 0 -214 91 -214 215c0 159 130 305 300 305zM557 701l-172 -123h-83l157 123h98z" />
    <glyph glyph-name="obreve" unicode="&#x14f;" horiz-adv-x="567" 
d="M318 444c-119 0 -218 -111 -218 -235c0 -91 59 -154 150 -154c118 0 217 112 217 236c0 91 -58 153 -149 153zM327 510c132 0 214 -91 214 -216c0 -159 -131 -304 -300 -304c-132 0 -214 91 -214 215c0 159 130 305 300 305zM519 718c-12 -84 -76 -140 -159 -140
c-87 0 -144 61 -132 140h55c-9 -50 23 -86 76 -86c56 0 96 36 105 86h55z" />
    <glyph glyph-name="ocircumflex" unicode="&#xf4;" horiz-adv-x="567" 
d="M318 444c-119 0 -218 -111 -218 -235c0 -91 59 -154 150 -154c118 0 217 112 217 236c0 91 -58 153 -149 153zM327 510c132 0 214 -91 214 -216c0 -159 -131 -304 -300 -304c-132 0 -214 91 -214 215c0 159 130 305 300 305zM376 731l120 -154h-63l-64 76l-92 -76h-76z
" />
    <glyph glyph-name="odieresis" unicode="&#xf6;" horiz-adv-x="567" 
d="M318 444c-119 0 -218 -111 -218 -235c0 -91 59 -154 150 -154c118 0 217 112 217 236c0 91 -58 153 -149 153zM327 510c132 0 214 -91 214 -216c0 -159 -131 -304 -300 -304c-132 0 -214 91 -214 215c0 159 130 305 300 305zM288 683c23 0 39 -16 39 -40
c0 -29 -25 -52 -54 -52c-24 0 -39 16 -39 40c0 29 24 52 54 52zM448 683c23 0 39 -16 39 -40c0 -29 -25 -52 -54 -52c-24 0 -39 16 -39 40c0 29 24 52 54 52z" />
    <glyph glyph-name="ograve" unicode="&#xf2;" horiz-adv-x="567" 
d="M318 444c-119 0 -218 -111 -218 -235c0 -91 59 -154 150 -154c118 0 217 112 217 236c0 91 -58 153 -149 153zM327 510c132 0 214 -91 214 -216c0 -159 -131 -304 -300 -304c-132 0 -214 91 -214 215c0 159 130 305 300 305zM269 701l126 -123h-75l-136 123h85z" />
    <glyph glyph-name="ohungarumlaut" unicode="&#x151;" horiz-adv-x="567" 
d="M318 444c-119 0 -218 -111 -218 -235c0 -91 59 -154 150 -154c118 0 217 112 217 236c0 91 -58 153 -149 153zM327 510c132 0 214 -91 214 -216c0 -159 -131 -304 -300 -304c-132 0 -214 91 -214 215c0 159 130 305 300 305zM428 712l-133 -141h-67l126 141h74zM585 712
l-133 -141h-67l126 141h74z" />
    <glyph glyph-name="omacron" unicode="&#x14d;" horiz-adv-x="567" 
d="M318 444c-119 0 -218 -111 -218 -235c0 -91 59 -154 150 -154c118 0 217 112 217 236c0 91 -58 153 -149 153zM327 510c132 0 214 -91 214 -216c0 -159 -131 -304 -300 -304c-132 0 -214 91 -214 215c0 159 130 305 300 305zM485 652l-10 -53h-252l10 53h252z" />
    <glyph glyph-name="otilde" unicode="&#xf5;" horiz-adv-x="567" 
d="M318 444c-119 0 -218 -111 -218 -235c0 -91 59 -154 150 -154c118 0 217 112 217 236c0 91 -58 153 -149 153zM327 510c132 0 214 -91 214 -216c0 -159 -131 -304 -300 -304c-132 0 -214 91 -214 215c0 159 130 305 300 305zM306 709c75 0 77 -85 122 -85
c33 0 50 34 57 78h50c-9 -83 -55 -130 -110 -130c-79 0 -76 85 -123 85c-34 0 -51 -34 -57 -78h-51c6 79 56 130 112 130z" />
    <glyph glyph-name="racute" unicode="&#x155;" horiz-adv-x="316" 
d="M346 510l-14 -73h-7c-63 0 -110 -33 -155 -88l-62 -349h-72l87 500h67l-8 -65c33 38 87 75 164 75zM455 701l-172 -123h-83l157 123h98z" />
    <glyph glyph-name="rcaron" unicode="&#x159;" horiz-adv-x="316" 
d="M346 510l-14 -73h-7c-63 0 -110 -33 -155 -88l-62 -349h-72l87 500h67l-8 -65c33 38 87 75 164 75zM414 727l-174 -154l-121 154h63l65 -76l91 76h76z" />
    <glyph glyph-name="sacute" unicode="&#x15b;" horiz-adv-x="449" 
d="M265 510c67 0 119 -23 153 -54l-41 -56c-28 27 -65 44 -120 44c-66 0 -118 -28 -118 -87c0 -41 30 -55 99 -72c112 -27 151 -62 151 -126c0 -107 -103 -169 -213 -169c-78 0 -137 24 -176 61l43 58c37 -34 79 -54 143 -54c59 0 130 30 130 97c0 38 -33 57 -104 73
c-101 25 -147 57 -147 125c0 97 90 160 200 160zM488 701l-172 -123h-83l157 123h98z" />
    <glyph glyph-name="scaron" unicode="&#x161;" horiz-adv-x="449" 
d="M265 510c67 0 119 -23 153 -54l-41 -56c-28 27 -65 44 -120 44c-66 0 -118 -28 -118 -87c0 -41 30 -55 99 -72c112 -27 151 -62 151 -126c0 -107 -103 -169 -213 -169c-78 0 -137 24 -176 61l43 58c37 -34 79 -54 143 -54c59 0 130 30 130 97c0 38 -33 57 -104 73
c-101 25 -147 57 -147 125c0 97 90 160 200 160zM458 727l-174 -154l-121 154h63l65 -76l91 76h76z" />
    <glyph glyph-name="scircumflex" unicode="&#x15d;" horiz-adv-x="449" 
d="M265 510c67 0 119 -23 153 -54l-41 -56c-28 27 -65 44 -120 44c-66 0 -118 -28 -118 -87c0 -41 30 -55 99 -72c112 -27 151 -62 151 -126c0 -107 -103 -169 -213 -169c-78 0 -137 24 -176 61l43 58c37 -34 79 -54 143 -54c59 0 130 30 130 97c0 38 -33 57 -104 73
c-101 25 -147 57 -147 125c0 97 90 160 200 160zM307 731l120 -154h-63l-64 76l-92 -76h-76z" />
    <glyph glyph-name="uacute" unicode="&#xfa;" horiz-adv-x="566" 
d="M527 500l-88 -500h-67l9 66c-34 -35 -87 -76 -171 -76c-118 0 -171 95 -149 219l51 291h72l-52 -297c-15 -86 16 -144 90 -144c78 0 124 40 171 91l61 350h73zM540 701l-172 -123h-83l157 123h98z" />
    <glyph glyph-name="ubreve" unicode="&#x16d;" horiz-adv-x="566" 
d="M527 500l-88 -500h-67l9 66c-34 -35 -87 -76 -171 -76c-118 0 -171 95 -149 219l51 291h72l-52 -297c-15 -86 16 -144 90 -144c78 0 124 40 171 91l61 350h73zM502 718c-12 -84 -76 -140 -159 -140c-87 0 -144 61 -132 140h55c-9 -50 23 -86 76 -86c56 0 96 36 105 86h55
z" />
    <glyph glyph-name="ucircumflex" unicode="&#xfb;" horiz-adv-x="566" 
d="M527 500l-88 -500h-67l9 66c-34 -35 -87 -76 -171 -76c-118 0 -171 95 -149 219l51 291h72l-52 -297c-15 -86 16 -144 90 -144c78 0 124 40 171 91l61 350h73zM359 731l120 -154h-63l-64 76l-92 -76h-76z" />
    <glyph glyph-name="udieresis" unicode="&#xfc;" horiz-adv-x="566" 
d="M527 500l-88 -500h-67l9 66c-34 -35 -87 -76 -171 -76c-118 0 -171 95 -149 219l51 291h72l-52 -297c-15 -86 16 -144 90 -144c78 0 124 40 171 91l61 350h73zM271 683c23 0 39 -16 39 -40c0 -29 -25 -52 -54 -52c-24 0 -39 16 -39 40c0 29 24 52 54 52zM431 683
c23 0 39 -16 39 -40c0 -29 -25 -52 -54 -52c-24 0 -39 16 -39 40c0 29 24 52 54 52z" />
    <glyph glyph-name="ugrave" unicode="&#xf9;" horiz-adv-x="566" 
d="M527 500l-88 -500h-67l9 66c-34 -35 -87 -76 -171 -76c-118 0 -171 95 -149 219l51 291h72l-52 -297c-15 -86 16 -144 90 -144c78 0 124 40 171 91l61 350h73zM253 701l126 -123h-75l-136 123h85z" />
    <glyph glyph-name="uhungarumlaut" unicode="&#x171;" horiz-adv-x="566" 
d="M527 500l-88 -500h-67l9 66c-34 -35 -87 -76 -171 -76c-118 0 -171 95 -149 219l51 291h72l-52 -297c-15 -86 16 -144 90 -144c78 0 124 40 171 91l61 350h73zM411 712l-133 -141h-67l126 141h74zM568 712l-133 -141h-67l126 141h74z" />
    <glyph glyph-name="umacron" unicode="&#x16b;" horiz-adv-x="566" 
d="M527 500l-88 -500h-67l9 66c-34 -35 -87 -76 -171 -76c-118 0 -171 95 -149 219l51 291h72l-52 -297c-15 -86 16 -144 90 -144c78 0 124 40 171 91l61 350h73zM468 652l-10 -53h-252l10 53h252z" />
    <glyph glyph-name="uring" unicode="&#x16f;" horiz-adv-x="566" 
d="M527 500l-88 -500h-67l9 66c-34 -35 -87 -76 -171 -76c-118 0 -171 95 -149 219l51 291h72l-52 -297c-15 -86 16 -144 90 -144c78 0 124 40 171 91l61 350h73zM365 775c54 0 91 -39 91 -89c0 -64 -55 -114 -119 -114c-54 0 -91 40 -91 89c0 65 55 114 119 114zM360 731
c-32 0 -67 -27 -67 -66c0 -28 19 -48 48 -48c33 0 68 27 68 66c0 28 -19 48 -49 48z" />
    <glyph glyph-name="utilde" unicode="&#x169;" horiz-adv-x="566" 
d="M527 500l-88 -500h-67l9 66c-34 -35 -87 -76 -171 -76c-118 0 -171 95 -149 219l51 291h72l-52 -297c-15 -86 16 -144 90 -144c78 0 124 40 171 91l61 350h73zM290 709c75 0 77 -85 122 -85c33 0 50 34 57 78h50c-9 -83 -55 -130 -110 -130c-79 0 -76 85 -123 85
c-34 0 -51 -34 -57 -78h-51c6 79 56 130 112 130z" />
    <glyph glyph-name="wacute" unicode="&#x1e83;" horiz-adv-x="758" 
d="M784 500l-303 -510h-4l-87 351l-213 -351h-4l-123 510h76l76 -343l209 343h4l86 -343l198 343h85zM633 701l-172 -123h-83l157 123h98z" />
    <glyph glyph-name="wcircumflex" unicode="&#x175;" horiz-adv-x="758" 
d="M784 500l-303 -510h-4l-87 351l-213 -351h-4l-123 510h76l76 -343l209 343h4l86 -343l198 343h85zM452 731l120 -154h-63l-64 76l-92 -76h-76z" />
    <glyph glyph-name="wdieresis" unicode="&#x1e85;" horiz-adv-x="758" 
d="M784 500l-303 -510h-4l-87 351l-213 -351h-4l-123 510h76l76 -343l209 343h4l86 -343l198 343h85zM363 683c23 0 39 -16 39 -40c0 -29 -25 -52 -54 -52c-24 0 -39 16 -39 40c0 29 24 52 54 52zM523 683c23 0 39 -16 39 -40c0 -29 -25 -52 -54 -52c-24 0 -39 16 -39 40
c0 29 24 52 54 52z" />
    <glyph glyph-name="wgrave" unicode="&#x1e81;" horiz-adv-x="758" 
d="M784 500l-303 -510h-4l-87 351l-213 -351h-4l-123 510h76l76 -343l209 343h4l86 -343l198 343h85zM345 701l126 -123h-75l-136 123h85z" />
    <glyph glyph-name="yacute" unicode="&#xfd;" horiz-adv-x="538" 
d="M561 500l-481 -730h-83l200 293l-136 437h77l106 -357l232 357h85zM526 701l-172 -123h-83l157 123h98z" />
    <glyph glyph-name="ycircumflex" unicode="&#x177;" horiz-adv-x="538" 
d="M561 500l-481 -730h-83l200 293l-136 437h77l106 -357l232 357h85zM345 731l120 -154h-63l-64 76l-92 -76h-76z" />
    <glyph glyph-name="ydieresis" unicode="&#xff;" horiz-adv-x="538" 
d="M561 500l-481 -730h-83l200 293l-136 437h77l106 -357l232 357h85zM257 683c23 0 39 -16 39 -40c0 -29 -25 -52 -54 -52c-24 0 -39 16 -39 40c0 29 24 52 54 52zM417 683c23 0 39 -16 39 -40c0 -29 -25 -52 -54 -52c-24 0 -39 16 -39 40c0 29 24 52 54 52z" />
    <glyph glyph-name="ygrave" unicode="&#x1ef3;" horiz-adv-x="538" 
d="M561 500l-481 -730h-83l200 293l-136 437h77l106 -357l232 357h85zM238 701l126 -123h-75l-136 123h85z" />
    <glyph glyph-name="zacute" unicode="&#x17a;" horiz-adv-x="440" 
d="M461 500l-1 -4l-348 -433h272l-11 -63h-390l1 4l346 433h-255l10 63h376zM494 701l-172 -123h-83l157 123h98z" />
    <glyph glyph-name="zcaron" unicode="&#x17e;" horiz-adv-x="440" 
d="M461 500l-1 -4l-348 -433h272l-11 -63h-390l1 4l346 433h-255l10 63h376zM463 727l-174 -154l-121 154h63l65 -76l91 76h76z" />
    <glyph glyph-name="zdotaccent" unicode="&#x17c;" horiz-adv-x="440" 
d="M461 500l-1 -4l-348 -433h272l-11 -63h-390l1 4l346 433h-255l10 63h376zM311 707c27 0 44 -17 44 -44c0 -33 -29 -60 -61 -60c-27 0 -45 17 -45 43c0 33 29 61 62 61z" />
    <glyph glyph-name="Aacute" unicode="&#xc1;" horiz-adv-x="684" 
d="M430 748l197 -748h-77l-46 173h-345l-105 -173h-87l459 748h4zM401 574l-200 -334h285zM641 885l-167 -113h-90l154 113h103z" />
    <glyph glyph-name="Abreve" unicode="&#x102;" horiz-adv-x="684" 
d="M430 748l197 -748h-77l-46 173h-345l-105 -173h-87l459 748h4zM401 574l-200 -334h285zM598 910c-12 -86 -82 -137 -163 -137c-86 0 -139 60 -128 137h54c-8 -51 22 -89 76 -89c53 0 97 38 106 89h55z" />
    <glyph glyph-name="Acircumflex" unicode="&#xc2;" horiz-adv-x="684" 
d="M430 748l197 -748h-77l-46 173h-345l-105 -173h-87l459 748h4zM401 574l-200 -334h285zM455 911l126 -140h-64l-69 73l-92 -73h-77z" />
    <glyph glyph-name="Adieresis" unicode="&#xc4;" horiz-adv-x="684" 
d="M430 748l197 -748h-77l-46 173h-345l-105 -173h-87l459 748h4zM401 574l-200 -334h285zM364 871c24 0 40 -16 40 -39c0 -29 -25 -52 -54 -52c-24 0 -39 16 -39 39c0 29 24 52 53 52zM525 871c23 0 39 -16 39 -39c0 -29 -25 -52 -54 -52c-24 0 -39 16 -39 39
c0 29 24 52 54 52z" />
    <glyph glyph-name="AEacute" unicode="&#x1fc;" horiz-adv-x="860" 
d="M902 735l-12 -70h-428l62 -260h277l-12 -66h-250l65 -269h189l-12 -70h-242l-42 177h-346l-104 -177h-85l443 735h497zM398 597l-211 -360h296zM797 885l-167 -113h-90l154 113h103z" />
    <glyph glyph-name="Agrave" unicode="&#xc0;" horiz-adv-x="684" 
d="M430 748l197 -748h-77l-46 173h-345l-105 -173h-87l459 748h4zM401 574l-200 -334h285zM355 885l121 -113h-77l-132 113h88z" />
    <glyph glyph-name="Amacron" unicode="&#x100;" horiz-adv-x="684" 
d="M430 748l197 -748h-77l-46 173h-345l-105 -173h-87l459 748h4zM401 574l-200 -334h285zM568 843l-9 -53h-253l11 53h251z" />
    <glyph glyph-name="Aring" unicode="&#xc5;" horiz-adv-x="684" 
d="M430 748l197 -748h-77l-46 173h-345l-105 -173h-87l459 748h4zM401 574l-200 -334h285zM463 974c53 0 90 -39 90 -89c0 -65 -55 -114 -119 -114c-54 0 -90 39 -90 89c0 64 54 114 119 114zM457 930c-32 0 -67 -28 -67 -67c0 -27 19 -48 49 -48c32 0 67 27 67 66
c0 28 -19 49 -49 49z" />
    <glyph glyph-name="Atilde" unicode="&#xc3;" horiz-adv-x="684" 
d="M430 748l197 -748h-77l-46 173h-345l-105 -173h-87l459 748h4zM401 574l-200 -334h285zM383 903c72 0 75 -85 120 -85c38 0 52 35 59 79h49c-12 -73 -53 -127 -111 -127c-73 0 -72 85 -120 85c-38 0 -52 -34 -59 -78h-50c12 74 54 126 112 126z" />
    <glyph glyph-name="Cacute" unicode="&#x106;" horiz-adv-x="679" 
d="M478 748c110 0 187 -41 242 -108l-52 -51c-42 55 -107 89 -193 89c-186 0 -353 -156 -353 -372c-2 -159 102 -249 238 -249c89 0 170 35 234 94l42 -60c-79 -68 -174 -104 -280 -104c-178 0 -311 119 -310 316c0 248 197 445 432 445zM693 895l-167 -113h-90l154 113h103
z" />
    <glyph glyph-name="Ccaron" unicode="&#x10c;" horiz-adv-x="679" 
d="M478 748c110 0 187 -41 242 -108l-52 -51c-42 55 -107 89 -193 89c-186 0 -353 -156 -353 -372c-2 -159 102 -249 238 -249c89 0 170 35 234 94l42 -60c-79 -68 -174 -104 -280 -104c-178 0 -311 119 -310 316c0 248 197 445 432 445zM660 914l-176 -140l-126 140h64
l68 -73l93 73h77z" />
    <glyph glyph-name="Ccircumflex" unicode="&#x108;" horiz-adv-x="679" 
d="M478 748c110 0 187 -41 242 -108l-52 -51c-42 55 -107 89 -193 89c-186 0 -353 -156 -353 -372c-2 -159 102 -249 238 -249c89 0 170 35 234 94l42 -60c-79 -68 -174 -104 -280 -104c-178 0 -311 119 -310 316c0 248 197 445 432 445zM508 921l126 -140h-64l-69 73
l-92 -73h-77z" />
    <glyph glyph-name="Cdotaccent" unicode="&#x10a;" horiz-adv-x="679" 
d="M478 748c110 0 187 -41 242 -108l-52 -51c-42 55 -107 89 -193 89c-186 0 -353 -156 -353 -372c-2 -159 102 -249 238 -249c89 0 170 35 234 94l42 -60c-79 -68 -174 -104 -280 -104c-178 0 -311 119 -310 316c0 248 197 445 432 445zM500 881c25 0 41 -17 41 -42
c0 -31 -27 -57 -58 -57c-26 0 -42 17 -42 41c0 32 28 58 59 58z" />
    <glyph glyph-name="Dcaron" unicode="&#x10e;" horiz-adv-x="729" 
d="M373 735c215 0 342 -116 342 -303c0 -253 -186 -432 -462 -432h-216l129 735h207zM368 665h-138l-105 -595h138c217 -5 376 146 376 362c0 148 -93 233 -271 233zM570 904l-176 -140l-126 140h64l68 -73l93 73h77z" />
    <glyph glyph-name="Eacute" unicode="&#xc9;" horiz-adv-x="569" 
d="M611 735l-12 -70h-369l-45 -258h326l-14 -68h-326l-46 -269h377l-12 -70h-453l129 735h445zM609 885l-167 -113h-90l154 113h103z" />
    <glyph glyph-name="Ebreve" unicode="&#x114;" horiz-adv-x="569" 
d="M611 735l-12 -70h-369l-45 -258h326l-14 -68h-326l-46 -269h377l-12 -70h-453l129 735h445zM565 910c-12 -86 -82 -137 -163 -137c-86 0 -139 60 -128 137h54c-8 -51 22 -89 76 -89c53 0 97 38 106 89h55z" />
    <glyph glyph-name="Ecaron" unicode="&#x11a;" horiz-adv-x="569" 
d="M611 735l-12 -70h-369l-45 -258h326l-14 -68h-326l-46 -269h377l-12 -70h-453l129 735h445zM576 904l-176 -140l-126 140h64l68 -73l93 73h77z" />
    <glyph glyph-name="Ecircumflex" unicode="&#xca;" horiz-adv-x="569" 
d="M611 735l-12 -70h-369l-45 -258h326l-14 -68h-326l-46 -269h377l-12 -70h-453l129 735h445zM423 911l126 -140h-64l-69 73l-92 -73h-77z" />
    <glyph glyph-name="Edieresis" unicode="&#xcb;" horiz-adv-x="569" 
d="M611 735l-12 -70h-369l-45 -258h326l-14 -68h-326l-46 -269h377l-12 -70h-453l129 735h445zM332 873c24 0 40 -16 40 -39c0 -29 -25 -52 -54 -52c-24 0 -39 16 -39 39c0 29 24 52 53 52zM493 873c23 0 39 -16 39 -39c0 -29 -25 -52 -54 -52c-24 0 -39 16 -39 39
c0 29 24 52 54 52z" />
    <glyph glyph-name="Edotaccent" unicode="&#x116;" horiz-adv-x="569" 
d="M611 735l-12 -70h-369l-45 -258h326l-14 -68h-326l-46 -269h377l-12 -70h-453l129 735h445zM416 871c25 0 41 -17 41 -42c0 -31 -27 -57 -58 -57c-26 0 -42 17 -42 41c0 32 28 58 59 58z" />
    <glyph glyph-name="Egrave" unicode="&#xc8;" horiz-adv-x="569" 
d="M611 735l-12 -70h-369l-45 -258h326l-14 -68h-326l-46 -269h377l-12 -70h-453l129 735h445zM322 885l121 -113h-77l-132 113h88z" />
    <glyph glyph-name="Emacron" unicode="&#x112;" horiz-adv-x="569" 
d="M611 735l-12 -70h-369l-45 -258h326l-14 -68h-326l-46 -269h377l-12 -70h-453l129 735h445zM537 843l-9 -53h-253l11 53h251z" />
    <glyph glyph-name="Gbreve" unicode="&#x11e;" horiz-adv-x="735" 
d="M480 748c109 0 187 -39 242 -106l-55 -53c-42 54 -108 89 -194 89c-180 0 -321 -135 -346 -326c-25 -173 75 -295 242 -295c77 0 147 22 203 60l34 189h-202l12 67h278l-52 -293c-77 -60 -171 -93 -280 -93c-214 0 -338 150 -312 362c27 225 209 399 430 399zM652 920
c-12 -86 -82 -137 -163 -137c-86 0 -139 60 -128 137h54c-8 -51 22 -89 76 -89c53 0 97 38 106 89h55z" />
    <glyph glyph-name="Gcircumflex" unicode="&#x11c;" horiz-adv-x="735" 
d="M480 748c109 0 187 -39 242 -106l-55 -53c-42 54 -108 89 -194 89c-180 0 -321 -135 -346 -326c-25 -173 75 -295 242 -295c77 0 147 22 203 60l34 189h-202l12 67h278l-52 -293c-77 -60 -171 -93 -280 -93c-214 0 -338 150 -312 362c27 225 209 399 430 399zM510 921
l126 -140h-64l-69 73l-92 -73h-77z" />
    <glyph glyph-name="Gdotaccent" unicode="&#x120;" horiz-adv-x="735" 
d="M480 748c109 0 187 -39 242 -106l-55 -53c-42 54 -108 89 -194 89c-180 0 -321 -135 -346 -326c-25 -173 75 -295 242 -295c77 0 147 22 203 60l34 189h-202l12 67h278l-52 -293c-77 -60 -171 -93 -280 -93c-214 0 -338 150 -312 362c27 225 209 399 430 399zM502 881
c25 0 41 -17 41 -42c0 -31 -27 -57 -58 -57c-26 0 -42 17 -42 41c0 32 28 58 59 58z" />
    <glyph glyph-name="Hcircumflex" unicode="&#x124;" horiz-adv-x="724" 
d="M717 735l-129 -735h-76l60 341h-399l-60 -341h-76l129 735h76l-57 -324h399l57 324h76zM470 911l126 -140h-64l-69 73l-92 -73h-77z" />
    <glyph glyph-name="Iacute" unicode="&#xcd;" horiz-adv-x="249" 
d="M242 735l-129 -735h-76l129 735h76zM420 885l-167 -113h-90l154 113h103z" />
    <glyph glyph-name="Ibreve" unicode="&#x12c;" horiz-adv-x="249" 
d="M242 735l-129 -735h-76l129 735h76zM379 910c-12 -86 -82 -137 -163 -137c-86 0 -139 60 -128 137h54c-8 -51 22 -89 76 -89c53 0 97 38 106 89h55z" />
    <glyph glyph-name="Idotaccent" unicode="&#x130;" horiz-adv-x="249" 
d="M242 735l-129 -735h-76l129 735h76zM227 871c25 0 41 -17 41 -42c0 -31 -27 -57 -58 -57c-26 0 -42 17 -42 41c0 32 28 58 59 58z" />
    <glyph glyph-name="Icircumflex" unicode="&#xce;" horiz-adv-x="249" 
d="M242 735l-129 -735h-76l129 735h76zM236 911l126 -140h-64l-69 73l-92 -73h-77z" />
    <glyph glyph-name="Idieresis" unicode="&#xcf;" horiz-adv-x="249" 
d="M242 735l-129 -735h-76l129 735h76zM144 871c24 0 40 -16 40 -39c0 -29 -25 -52 -54 -52c-24 0 -39 16 -39 39c0 29 24 52 53 52zM305 871c23 0 39 -16 39 -39c0 -29 -25 -52 -54 -52c-24 0 -39 16 -39 39c0 29 24 52 54 52z" />
    <glyph glyph-name="Igrave" unicode="&#xcc;" horiz-adv-x="249" 
d="M242 735l-129 -735h-76l129 735h76zM135 885l121 -113h-77l-132 113h88z" />
    <glyph glyph-name="Imacron" unicode="&#x12a;" horiz-adv-x="249" 
d="M242 735l-129 -735h-76l129 735h76zM349 843l-9 -53h-253l11 53h251z" />
    <glyph glyph-name="Itilde" unicode="&#x128;" horiz-adv-x="249" 
d="M242 735l-129 -735h-76l129 735h76zM164 903c72 0 75 -85 120 -85c38 0 52 35 59 79h49c-12 -73 -53 -127 -111 -127c-73 0 -72 85 -120 85c-38 0 -52 -34 -59 -78h-50c12 74 54 126 112 126z" />
    <glyph glyph-name="Jcircumflex" unicode="&#x134;" horiz-adv-x="526" 
d="M523 735l-94 -534c-24 -136 -116 -214 -244 -214c-113 0 -206 81 -180 228h72c-17 -99 32 -158 113 -158c85 0 147 54 164 151l93 527h76zM516 911l126 -140h-64l-69 73l-92 -73h-77z" />
    <glyph glyph-name="Lacute" unicode="&#x139;" horiz-adv-x="543" 
d="M242 735l-118 -667h369l-12 -68h-444l129 735h76zM420 885l-167 -113h-90l154 113h103z" />
    <glyph glyph-name="Nacute" unicode="&#x143;" horiz-adv-x="725" 
d="M718 735l-132 -748h-4l-370 577l-99 -564h-76l132 748h4l371 -577l98 564h76zM661 885l-167 -113h-90l154 113h103z" />
    <glyph glyph-name="Ncaron" unicode="&#x147;" horiz-adv-x="725" 
d="M718 735l-132 -748h-4l-370 577l-99 -564h-76l132 748h4l371 -577l98 564h76zM627 904l-176 -140l-126 140h64l68 -73l93 73h77z" />
    <glyph glyph-name="Ntilde" unicode="&#xd1;" horiz-adv-x="725" 
d="M718 735l-132 -748h-4l-370 577l-99 -564h-76l132 748h4l371 -577l98 564h76zM403 903c72 0 75 -85 120 -85c38 0 52 35 59 79h49c-12 -73 -53 -127 -111 -127c-73 0 -72 85 -120 85c-38 0 -52 -34 -59 -78h-50c12 74 54 126 112 126z" />
    <glyph glyph-name="Oacute" unicode="&#xd3;" horiz-adv-x="802" 
d="M484 748c189 0 306 -134 306 -318c0 -228 -191 -443 -438 -443c-190 0 -306 134 -306 318c0 228 191 443 438 443zM474 678c-193 0 -352 -177 -352 -371c0 -148 92 -250 240 -250c192 0 352 176 352 370c0 149 -92 251 -240 251zM699 895l-167 -113h-90l154 113h103z" />
    <glyph glyph-name="Obreve" unicode="&#x14e;" horiz-adv-x="802" 
d="M484 748c189 0 306 -134 306 -318c0 -228 -191 -443 -438 -443c-190 0 -306 134 -306 318c0 228 191 443 438 443zM474 678c-193 0 -352 -177 -352 -371c0 -148 92 -250 240 -250c192 0 352 176 352 370c0 149 -92 251 -240 251zM656 920c-12 -86 -82 -137 -163 -137
c-86 0 -139 60 -128 137h54c-8 -51 22 -89 76 -89c53 0 97 38 106 89h55z" />
    <glyph glyph-name="Ocircumflex" unicode="&#xd4;" horiz-adv-x="802" 
d="M484 748c189 0 306 -134 306 -318c0 -228 -191 -443 -438 -443c-190 0 -306 134 -306 318c0 228 191 443 438 443zM474 678c-193 0 -352 -177 -352 -371c0 -148 92 -250 240 -250c192 0 352 176 352 370c0 149 -92 251 -240 251zM514 921l126 -140h-64l-69 73l-92 -73
h-77z" />
    <glyph glyph-name="Odieresis" unicode="&#xd6;" horiz-adv-x="802" 
d="M484 748c189 0 306 -134 306 -318c0 -228 -191 -443 -438 -443c-190 0 -306 134 -306 318c0 228 191 443 438 443zM474 678c-193 0 -352 -177 -352 -371c0 -148 92 -250 240 -250c192 0 352 176 352 370c0 149 -92 251 -240 251zM422 881c24 0 40 -16 40 -39
c0 -29 -25 -52 -54 -52c-24 0 -39 16 -39 39c0 29 24 52 53 52zM583 881c23 0 39 -16 39 -39c0 -29 -25 -52 -54 -52c-24 0 -39 16 -39 39c0 29 24 52 54 52z" />
    <glyph glyph-name="Ograve" unicode="&#xd2;" horiz-adv-x="802" 
d="M484 748c189 0 306 -134 306 -318c0 -228 -191 -443 -438 -443c-190 0 -306 134 -306 318c0 228 191 443 438 443zM474 678c-193 0 -352 -177 -352 -371c0 -148 92 -250 240 -250c192 0 352 176 352 370c0 149 -92 251 -240 251zM413 895l121 -113h-77l-132 113h88z" />
    <glyph glyph-name="Ohungarumlaut" unicode="&#x150;" horiz-adv-x="802" 
d="M484 748c189 0 306 -134 306 -318c0 -228 -191 -443 -438 -443c-190 0 -306 134 -306 318c0 228 191 443 438 443zM474 678c-193 0 -352 -177 -352 -371c0 -148 92 -250 240 -250c192 0 352 176 352 370c0 149 -92 251 -240 251zM574 902l-131 -117h-69l122 117h78z
M731 902l-131 -117h-69l122 117h78z" />
    <glyph glyph-name="Omacron" unicode="&#x14c;" horiz-adv-x="802" 
d="M484 748c189 0 306 -134 306 -318c0 -228 -191 -443 -438 -443c-190 0 -306 134 -306 318c0 228 191 443 438 443zM474 678c-193 0 -352 -177 -352 -371c0 -148 92 -250 240 -250c192 0 352 176 352 370c0 149 -92 251 -240 251zM627 853l-9 -53h-253l11 53h251z" />
    <glyph glyph-name="Otilde" unicode="&#xd5;" horiz-adv-x="802" 
d="M484 748c189 0 306 -134 306 -318c0 -228 -191 -443 -438 -443c-190 0 -306 134 -306 318c0 228 191 443 438 443zM474 678c-193 0 -352 -177 -352 -371c0 -148 92 -250 240 -250c192 0 352 176 352 370c0 149 -92 251 -240 251zM442 913c72 0 75 -85 120 -85
c38 0 52 35 59 79h49c-12 -73 -53 -127 -111 -127c-73 0 -72 85 -120 85c-38 0 -52 -34 -59 -78h-50c12 74 54 126 112 126z" />
    <glyph glyph-name="Racute" unicode="&#x154;" horiz-adv-x="615" 
d="M379 735c135 0 230 -70 230 -189c0 -127 -83 -212 -196 -244l137 -302h-82l-131 290c-9 -1 -18 -1 -27 -1h-147l-50 -289h-76l129 735h213zM370 667h-139l-56 -310h140c111 0 217 60 217 185c-1 83 -62 125 -162 125zM590 885l-167 -113h-90l154 113h103z" />
    <glyph glyph-name="Rcaron" unicode="&#x158;" horiz-adv-x="615" 
d="M379 735c135 0 230 -70 230 -189c0 -127 -83 -212 -196 -244l137 -302h-82l-131 290c-9 -1 -18 -1 -27 -1h-147l-50 -289h-76l129 735h213zM370 667h-139l-56 -310h140c111 0 217 60 217 185c-1 83 -62 125 -162 125zM557 904l-176 -140l-126 140h64l68 -73l93 73h77z
" />
    <glyph glyph-name="Sacute" unicode="&#x15a;" horiz-adv-x="576" 
d="M344 748c100 0 172 -35 220 -81l-47 -56c-41 40 -102 67 -176 67c-99 0 -184 -58 -184 -150c0 -67 47 -94 159 -119c145 -33 208 -87 208 -185c0 -147 -131 -237 -289 -237c-109 0 -189 38 -244 96l49 57c46 -50 117 -83 199 -83c118 0 209 66 209 157
c0 67 -52 101 -158 125c-153 35 -209 87 -209 179c0 134 113 230 263 230zM571 895l-167 -113h-90l154 113h103z" />
    <glyph glyph-name="Scaron" unicode="&#x160;" horiz-adv-x="576" 
d="M344 748c100 0 172 -35 220 -81l-47 -56c-41 40 -102 67 -176 67c-99 0 -184 -58 -184 -150c0 -67 47 -94 159 -119c145 -33 208 -87 208 -185c0 -147 -131 -237 -289 -237c-109 0 -189 38 -244 96l49 57c46 -50 117 -83 199 -83c118 0 209 66 209 157
c0 67 -52 101 -158 125c-153 35 -209 87 -209 179c0 134 113 230 263 230zM537 914l-176 -140l-126 140h64l68 -73l93 73h77z" />
    <glyph glyph-name="Scircumflex" unicode="&#x15c;" horiz-adv-x="576" 
d="M344 748c100 0 172 -35 220 -81l-47 -56c-41 40 -102 67 -176 67c-99 0 -184 -58 -184 -150c0 -67 47 -94 159 -119c145 -33 208 -87 208 -185c0 -147 -131 -237 -289 -237c-109 0 -189 38 -244 96l49 57c46 -50 117 -83 199 -83c118 0 209 66 209 157
c0 67 -52 101 -158 125c-153 35 -209 87 -209 179c0 134 113 230 263 230zM385 921l126 -140h-64l-69 73l-92 -73h-77z" />
    <glyph glyph-name="Tcaron" unicode="&#x164;" horiz-adv-x="642" 
d="M701 735l-11 -68h-268l-117 -667h-76l117 667h-267l11 68h611zM577 904l-176 -140l-126 140h64l68 -73l93 73h77z" />
    <glyph glyph-name="Uacute" unicode="&#xda;" horiz-adv-x="687" 
d="M688 735l-84 -479c-29 -167 -134 -269 -306 -269c-171 0 -255 105 -225 275l83 473h76l-83 -475c-22 -125 24 -203 154 -203c125 0 204 80 225 203l84 475h76zM636 885l-167 -113h-90l154 113h103z" />
    <glyph glyph-name="Ubreve" unicode="&#x16c;" horiz-adv-x="687" 
d="M688 735l-84 -479c-29 -167 -134 -269 -306 -269c-171 0 -255 105 -225 275l83 473h76l-83 -475c-22 -125 24 -203 154 -203c125 0 204 80 225 203l84 475h76zM592 910c-12 -86 -82 -137 -163 -137c-86 0 -139 60 -128 137h54c-8 -51 22 -89 76 -89c53 0 97 38 106 89h55
z" />
    <glyph glyph-name="Ucircumflex" unicode="&#xdb;" horiz-adv-x="687" 
d="M688 735l-84 -479c-29 -167 -134 -269 -306 -269c-171 0 -255 105 -225 275l83 473h76l-83 -475c-22 -125 24 -203 154 -203c125 0 204 80 225 203l84 475h76zM450 911l126 -140h-64l-69 73l-92 -73h-77z" />
    <glyph glyph-name="Udieresis" unicode="&#xdc;" horiz-adv-x="687" 
d="M688 735l-84 -479c-29 -167 -134 -269 -306 -269c-171 0 -255 105 -225 275l83 473h76l-83 -475c-22 -125 24 -203 154 -203c125 0 204 80 225 203l84 475h76zM358 871c24 0 40 -16 40 -39c0 -29 -25 -52 -54 -52c-24 0 -39 16 -39 39c0 29 24 52 53 52zM519 871
c23 0 39 -16 39 -39c0 -29 -25 -52 -54 -52c-24 0 -39 16 -39 39c0 29 24 52 54 52z" />
    <glyph glyph-name="Ugrave" unicode="&#xd9;" horiz-adv-x="687" 
d="M688 735l-84 -479c-29 -167 -134 -269 -306 -269c-171 0 -255 105 -225 275l83 473h76l-83 -475c-22 -125 24 -203 154 -203c125 0 204 80 225 203l84 475h76zM349 885l121 -113h-77l-132 113h88z" />
    <glyph glyph-name="Uhungarumlaut" unicode="&#x170;" horiz-adv-x="687" 
d="M688 735l-84 -479c-29 -167 -134 -269 -306 -269c-171 0 -255 105 -225 275l83 473h76l-83 -475c-22 -125 24 -203 154 -203c125 0 204 80 225 203l84 475h76zM510 892l-131 -117h-69l122 117h78zM667 892l-131 -117h-69l122 117h78z" />
    <glyph glyph-name="Umacron" unicode="&#x16a;" horiz-adv-x="687" 
d="M688 735l-84 -479c-29 -167 -134 -269 -306 -269c-171 0 -255 105 -225 275l83 473h76l-83 -475c-22 -125 24 -203 154 -203c125 0 204 80 225 203l84 475h76zM563 843l-9 -53h-253l11 53h251z" />
    <glyph glyph-name="Uring" unicode="&#x16e;" horiz-adv-x="687" 
d="M688 735l-84 -479c-29 -167 -134 -269 -306 -269c-171 0 -255 105 -225 275l83 473h76l-83 -475c-22 -125 24 -203 154 -203c125 0 204 80 225 203l84 475h76zM457 974c53 0 90 -39 90 -89c0 -65 -55 -114 -119 -114c-54 0 -90 39 -90 89c0 64 54 114 119 114zM451 930
c-32 0 -67 -28 -67 -67c0 -27 19 -48 49 -48c32 0 67 27 67 66c0 28 -19 49 -49 49z" />
    <glyph glyph-name="Utilde" unicode="&#x168;" horiz-adv-x="687" 
d="M688 735l-84 -479c-29 -167 -134 -269 -306 -269c-171 0 -255 105 -225 275l83 473h76l-83 -475c-22 -125 24 -203 154 -203c125 0 204 80 225 203l84 475h76zM378 903c72 0 75 -85 120 -85c38 0 52 35 59 79h49c-12 -73 -53 -127 -111 -127c-73 0 -72 85 -120 85
c-38 0 -52 -34 -59 -78h-50c12 74 54 126 112 126z" />
    <glyph glyph-name="Wacute" unicode="&#x1e82;" horiz-adv-x="986" 
d="M1045 735l-413 -747h-4l-99 549l-292 -549h-4l-151 747h76l107 -550l292 550h4l99 -547l297 547h88zM778 885l-167 -113h-90l154 113h103z" />
    <glyph glyph-name="Wcircumflex" unicode="&#x174;" horiz-adv-x="986" 
d="M1045 735l-413 -747h-4l-99 549l-292 -549h-4l-151 747h76l107 -550l292 550h4l99 -547l297 547h88zM593 911l126 -140h-64l-69 73l-92 -73h-77z" />
    <glyph glyph-name="Wdieresis" unicode="&#x1e84;" horiz-adv-x="986" 
d="M1045 735l-413 -747h-4l-99 549l-292 -549h-4l-151 747h76l107 -550l292 550h4l99 -547l297 547h88zM501 871c24 0 40 -16 40 -39c0 -29 -25 -52 -54 -52c-24 0 -39 16 -39 39c0 29 24 52 53 52zM662 871c23 0 39 -16 39 -39c0 -29 -25 -52 -54 -52c-24 0 -39 16 -39 39
c0 29 24 52 54 52z" />
    <glyph glyph-name="Wgrave" unicode="&#x1e80;" horiz-adv-x="986" 
d="M1045 735l-413 -747h-4l-99 549l-292 -549h-4l-151 747h76l107 -550l292 550h4l99 -547l297 547h88zM492 885l121 -113h-77l-132 113h88z" />
    <glyph glyph-name="Yacute" unicode="&#xdd;" horiz-adv-x="641" 
d="M697 735l-348 -419l-56 -316h-75l55 315l-201 420h84l163 -343l284 343h94zM599 885l-167 -113h-90l154 113h103z" />
    <glyph glyph-name="Ycircumflex" unicode="&#x176;" horiz-adv-x="641" 
d="M697 735l-348 -419l-56 -316h-75l55 315l-201 420h84l163 -343l284 343h94zM413 911l126 -140h-64l-69 73l-92 -73h-77z" />
    <glyph glyph-name="Ydieresis" unicode="&#x178;" horiz-adv-x="641" 
d="M697 735l-348 -419l-56 -316h-75l55 315l-201 420h84l163 -343l284 343h94zM321 871c24 0 40 -16 40 -39c0 -29 -25 -52 -54 -52c-24 0 -39 16 -39 39c0 29 24 52 53 52zM482 871c23 0 39 -16 39 -39c0 -29 -25 -52 -54 -52c-24 0 -39 16 -39 39c0 29 24 52 54 52z" />
    <glyph glyph-name="Ygrave" unicode="&#x1ef2;" horiz-adv-x="641" 
d="M697 735l-348 -419l-56 -316h-75l55 315l-201 420h84l163 -343l284 343h94zM313 885l121 -113h-77l-132 113h88z" />
    <glyph glyph-name="Zacute" unicode="&#x179;" horiz-adv-x="573" 
d="M613 735v-4l-497 -661h392l-13 -70h-515v4l497 661h-365l12 70h489zM581 885l-167 -113h-90l154 113h103z" />
    <glyph glyph-name="Zcaron" unicode="&#x17d;" horiz-adv-x="573" 
d="M613 735v-4l-497 -661h392l-13 -70h-515v4l497 661h-365l12 70h489zM547 904l-176 -140l-126 140h64l68 -73l93 73h77z" />
    <glyph glyph-name="Zdotaccent" unicode="&#x17b;" horiz-adv-x="573" 
d="M613 735v-4l-497 -661h392l-13 -70h-515v4l497 661h-365l12 70h489zM388 871c25 0 41 -17 41 -42c0 -31 -27 -57 -58 -57c-26 0 -42 17 -42 41c0 32 28 58 59 58z" />
    </font>
</defs>
</svg>
