<?xml version="1.0" standalone="no"?>
<!DOCTYPE svg PUBLIC "-//W3C//DTD SVG 1.1//EN" "http://www.w3.org/Graphics/SVG/1.1/DTD/svg11.dtd" >
<svg xmlns="http://www.w3.org/2000/svg" xmlns:xlink="http://www.w3.org/1999/xlink" version="1.1">
<metadata>
Created by FontForge 20161116 at Mon Oct 21 17:44:23 2013
 By Jimmy Wärting
Copyright (c) 2013 by Nico Inosanto. All rights reserved.
</metadata>
<defs>
<font id="Radikal-MediumItalic" horiz-adv-x="600" >
  <font-face 
    font-family="Radikal Medium"
    font-weight="500"
    font-style="italic"
    font-stretch="normal"
    units-per-em="1000"
    panose-1="0 0 0 0 0 0 0 0 0 0"
    ascent="750"
    descent="-250"
    x-height="504"
    cap-height="735"
    bbox="-244 -317 1251 1074"
    underline-thickness="50"
    underline-position="-100"
    unicode-range="U+0020-FB01"
  />
<missing-glyph horiz-adv-x="590" 
d="M138 699h469l-123 -699h-468zM514 643h-309l111 -244zM530 575l-187 -233l105 -236zM303 293l-189 -236h296zM174 579l-81 -460l185 231z" />
    <glyph glyph-name="fi" unicode="fi" horiz-adv-x="640" 
d="M382 760c39 0 67 -8 87 -20l-51 -100c-10 9 -25 14 -49 14c-45 0 -77 -33 -86 -84l-12 -66h123l-18 -102h-123l-71 -402h-121l71 402h-88l18 102h89l11 63c20 111 106 193 220 193zM606 504l-89 -504h-120l88 504h121zM586 739c40 0 64 -25 64 -63c0 -47 -42 -85 -87 -85
c-40 0 -64 25 -64 62c0 48 40 86 87 86z" />
    <glyph glyph-name="f_j" unicode="fj" horiz-adv-x="640" 
d="M382 760c39 0 67 -8 87 -20l-51 -100c-10 9 -25 14 -49 14c-45 0 -77 -33 -86 -84l-12 -66h123l-18 -102h-123l-71 -402h-121l71 402h-88l18 102h89l11 63c20 111 106 193 220 193zM606 504l-100 -564c-19 -103 -103 -180 -218 -180c-75 0 -124 27 -160 72l86 74
c16 -22 41 -40 78 -40c49 0 86 32 95 82l98 556h121zM586 739c40 0 64 -25 64 -63c0 -47 -42 -85 -87 -85c-40 0 -64 25 -64 62c0 48 40 86 87 86z" />
    <glyph glyph-name=".notdef" horiz-adv-x="590" 
d="M138 699h469l-123 -699h-468zM514 643h-309l111 -244zM530 575l-187 -233l105 -236zM303 293l-189 -236h296zM174 579l-81 -460l185 231z" />
    <glyph glyph-name=".null" horiz-adv-x="0" 
 />
    <glyph glyph-name="CR" horiz-adv-x="250" 
 />
    <glyph glyph-name="space" unicode=" " horiz-adv-x="232" 
 />
    <glyph glyph-name="q" unicode="q" 
d="M304 514c70 0 119 -31 143 -69l16 59h109l-130 -734h-120l49 276c-35 -32 -85 -56 -155 -56c-124 0 -191 96 -191 221c0 154 106 303 279 303zM309 408c-95 0 -162 -92 -162 -188c0 -76 39 -124 100 -124c72 0 114 41 146 78l31 172c-21 36 -53 62 -115 62z" />
    <glyph glyph-name="r" unicode="r" horiz-adv-x="349" 
d="M378 514l-22 -120h-10c-61 0 -105 -29 -144 -73l-57 -321h-120l89 504h108l-4 -62c32 38 87 72 160 72z" />
    <glyph glyph-name="a" unicode="a" 
d="M304 514c77 0 125 -37 143 -69l15 59h109l-89 -504h-108l6 56c-33 -37 -87 -66 -164 -66c-124 0 -191 96 -191 221c0 154 106 303 279 303zM309 408c-95 0 -162 -92 -162 -188c0 -76 39 -124 100 -124c72 0 114 41 146 78l31 172c-21 36 -53 62 -115 62z" />
    <glyph glyph-name="b" unicode="b" 
d="M282 760l-53 -302c34 32 84 56 154 56c125 0 192 -96 192 -221c0 -154 -107 -303 -280 -303c-70 0 -119 31 -143 69l-16 -59h-108l133 760h121zM353 408c-72 0 -115 -41 -147 -78l-30 -172c20 -36 52 -62 115 -62c95 0 162 93 162 188c0 76 -40 124 -100 124z" />
    <glyph glyph-name="d" unicode="d" 
d="M616 760l-134 -760h-108l7 56c-34 -37 -88 -66 -165 -66c-124 0 -191 96 -191 221c0 154 106 303 279 303c70 0 117 -31 138 -61l54 307h120zM309 408c-95 0 -162 -92 -162 -188c0 -76 39 -124 100 -124c72 0 114 41 146 78l31 172c-21 36 -53 62 -115 62z" />
    <glyph glyph-name="c" unicode="c" horiz-adv-x="507" 
d="M325 514c98 0 156 -51 186 -115l-92 -60c-18 40 -51 70 -105 70c-100 0 -168 -90 -168 -193c0 -72 36 -121 114 -121c57 0 100 33 129 73l81 -69c-54 -66 -128 -109 -223 -109c-144 0 -222 94 -222 218c0 173 133 306 300 306z" />
    <glyph glyph-name="e" unicode="e" horiz-adv-x="536" 
d="M311 514c154 0 220 -114 194 -258l-8 -41h-352c-5 -74 31 -126 111 -126c56 0 99 25 133 59l76 -71c-62 -59 -133 -87 -224 -87c-141 0 -217 90 -216 214c0 157 112 310 286 310zM304 418c-77 0 -128 -55 -144 -119h234c11 70 -14 119 -90 119z" />
    <glyph glyph-name="l" unicode="l" horiz-adv-x="266" 
d="M280 760l-135 -760h-120l134 760h121z" />
    <glyph glyph-name="f" unicode="f" horiz-adv-x="371" 
d="M376 760c51 0 86 -18 108 -41l-57 -90c-11 14 -29 25 -56 25c-47 0 -79 -33 -88 -84l-12 -66h123l-18 -102h-123l-71 -402h-121l71 402h-88l18 102h89l12 65c22 124 95 191 213 191z" />
    <glyph glyph-name="g" unicode="g" horiz-adv-x="601" 
d="M304 514c73 0 120 -33 140 -64l19 54h108l-88 -498c-27 -155 -140 -246 -293 -246c-119 0 -183 46 -230 112l86 72c31 -45 75 -78 146 -78c94 0 156 58 172 147l9 48c-27 -30 -79 -59 -156 -59c-125 0 -192 88 -192 213c0 151 107 299 279 299zM309 408
c-94 0 -162 -90 -162 -184c0 -75 40 -116 100 -116c73 0 115 41 147 78l29 159c-20 37 -52 63 -114 63z" />
    <glyph glyph-name="h" unicode="h" horiz-adv-x="589" 
d="M279 760l-54 -307c30 30 80 61 149 61c127 0 180 -101 156 -230l-50 -284h-120l50 288c12 67 -11 113 -69 113c-65 0 -106 -35 -138 -75l-58 -326h-120l134 760h120z" />
    <glyph glyph-name="i" unicode="i" horiz-adv-x="266" 
d="M234 504l-89 -504h-120l88 504h121zM214 739c40 0 64 -25 64 -63c0 -47 -42 -85 -87 -85c-40 0 -64 25 -64 62c0 48 40 86 87 86z" />
    <glyph glyph-name="j" unicode="j" horiz-adv-x="266" 
d="M234 504l-100 -564c-19 -103 -103 -180 -218 -180c-75 0 -124 27 -160 72l86 74c16 -22 41 -40 78 -40c49 0 86 32 95 82l98 556h121zM214 739c40 0 64 -25 64 -63c0 -47 -42 -85 -87 -85c-40 0 -64 25 -64 62c0 48 40 86 87 86z" />
    <glyph glyph-name="k" unicode="k" horiz-adv-x="558" 
d="M280 760l-96 -542l240 286h149l-195 -220l126 -284h-127l-85 188l-161 -188h-106l134 760h121z" />
    <glyph glyph-name="s" unicode="s" horiz-adv-x="463" 
d="M280 514c71 0 130 -23 163 -54l-60 -87c-26 24 -64 41 -116 41s-87 -18 -87 -58c0 -30 22 -41 82 -56c108 -27 146 -64 146 -131c0 -111 -107 -179 -232 -179c-82 0 -144 26 -182 63l62 89c33 -31 75 -52 135 -52c42 0 95 18 95 66c0 26 -23 41 -82 56
c-101 25 -147 59 -147 129c0 103 96 173 223 173z" />
    <glyph glyph-name="u" unicode="u" horiz-adv-x="583" 
d="M554 504l-89 -504h-108l4 58c-27 -30 -77 -68 -153 -68c-126 0 -176 101 -153 230l50 284h120l-51 -288c-11 -67 11 -112 67 -112c65 0 102 34 135 74l57 326h121z" />
    <glyph glyph-name="t" unicode="t" horiz-adv-x="410" 
d="M291 673l-30 -169h152l-19 -102h-152l-37 -221c-10 -53 14 -83 63 -83c29 0 53 7 71 16l16 -99c-24 -14 -67 -25 -115 -25c-105 0 -177 74 -156 195l38 217h-95l19 102h95l29 169h121z" />
    <glyph glyph-name="v" unicode="v" horiz-adv-x="557" 
d="M584 504l-357 -514h-4l-177 514h128l85 -278l184 278h141z" />
    <glyph glyph-name="w" unicode="w" horiz-adv-x="769" 
d="M796 504l-323 -514h-4l-89 278l-189 -278h-4l-141 514h128l61 -266l178 266h4l82 -266l157 266h140z" />
    <glyph glyph-name="x" unicode="x" horiz-adv-x="515" 
d="M538 504l-205 -258l123 -246h-139l-78 168l-135 -168h-144l213 268l-118 236h138l73 -164l130 164h142z" />
    <glyph glyph-name="y" unicode="y" horiz-adv-x="564" 
d="M593 504l-510 -734h-137l245 338l-137 396h128l85 -277l184 277h142z" />
    <glyph glyph-name="z" unicode="z" horiz-adv-x="465" 
d="M486 504v-4l-300 -398h228l-17 -102h-416v4l298 398h-215l17 102h405z" />
    <glyph glyph-name="p" unicode="p" 
d="M383 514c125 0 192 -96 192 -221c0 -154 -106 -303 -279 -303c-71 0 -117 31 -138 61l-50 -281h-120l129 734h108l-5 -56c34 37 87 66 163 66zM353 408c-72 0 -115 -41 -146 -78l-31 -172c20 -36 52 -62 115 -62c95 0 162 93 162 188c0 76 -40 124 -100 124z" />
    <glyph glyph-name="L" unicode="L" horiz-adv-x="545" 
d="M283 735l-110 -624h333l-19 -111h-458l129 735h125z" />
    <glyph glyph-name="N" unicode="N" horiz-adv-x="733" 
d="M735 735l-132 -748h-4l-363 479l-82 -466h-125l132 748h4l364 -481l81 468h125z" />
    <glyph glyph-name="O" unicode="O" horiz-adv-x="810" 
d="M488 748c192 0 312 -136 312 -322c0 -233 -199 -439 -446 -439c-192 0 -312 136 -312 322c0 233 199 439 446 439zM469 633c-166 0 -300 -151 -300 -319c0 -129 79 -212 204 -212c166 0 300 151 300 319c0 129 -78 212 -204 212z" />
    <glyph glyph-name="E" unicode="E" horiz-adv-x="584" 
d="M622 735l-20 -115h-339l-34 -193h296l-20 -109h-296l-35 -203h347l-20 -115h-472l129 735h464z" />
    <glyph glyph-name="F" unicode="F" horiz-adv-x="546" 
d="M606 735l-18 -115h-325l-36 -203h272l-20 -110h-272l-53 -307h-125l129 735h448z" />
    <glyph glyph-name="D" unicode="D" horiz-adv-x="735" 
d="M369 735c220 0 355 -120 355 -314c0 -253 -193 -421 -468 -421h-227l129 735h211zM362 620h-99l-89 -505h98c184 -3 325 118 325 306c0 127 -79 199 -235 199z" />
    <glyph glyph-name="C" unicode="C" horiz-adv-x="681" 
d="M476 748c118 0 192 -42 251 -112l-87 -84c-34 49 -92 81 -171 81c-169 0 -300 -130 -300 -322c-2 -134 85 -209 200 -209c80 0 150 29 207 84l68 -99c-81 -70 -175 -100 -281 -100c-191 0 -322 123 -321 318c0 243 195 443 434 443z" />
    <glyph glyph-name="H" unicode="H" horiz-adv-x="741" 
d="M742 735l-129 -735h-125l56 319h-334l-56 -319h-125l129 735h125l-53 -302h334l53 302h125z" />
    <glyph glyph-name="B" unicode="B" horiz-adv-x="669" 
d="M425 735c132 0 203 -77 203 -177c0 -83 -42 -143 -102 -175c59 -19 104 -63 104 -141c0 -164 -137 -242 -281 -242h-320l129 735h267zM382 323h-174l-36 -208h181c78 0 152 39 152 127c0 55 -42 81 -123 81zM394 620h-131l-35 -193h137c68 0 134 41 134 115
c0 51 -34 78 -105 78z" />
    <glyph glyph-name="A" unicode="A" horiz-adv-x="710" 
d="M439 748l214 -748h-130l-36 133h-301l-83 -133h-143l475 748h4zM398 486l-150 -250h214z" />
    <glyph glyph-name="G" unicode="G" horiz-adv-x="744" 
d="M476 748c119 0 193 -41 252 -112l-88 -84c-34 48 -94 81 -172 81c-166 0 -282 -118 -296 -296c-15 -141 69 -235 203 -235c61 0 116 15 161 43l27 146h-174l19 108h299l-56 -314c-80 -63 -172 -98 -285 -98c-211 0 -336 140 -322 345c16 229 202 416 432 416z" />
    <glyph glyph-name="I" unicode="I" horiz-adv-x="281" 
d="M283 735l-129 -735h-125l129 735h125z" />
    <glyph glyph-name="J" unicode="J" horiz-adv-x="553" 
d="M559 735l-92 -523c-26 -145 -125 -225 -262 -225c-117 0 -228 85 -200 249h120c-15 -86 24 -134 89 -134c69 0 116 42 129 119l91 514h125z" />
    <glyph glyph-name="K" unicode="K" horiz-adv-x="685" 
d="M704 735l-274 -353l197 -382h-149l-137 269l-209 -269h-103l129 735h125l-83 -466l352 466h152z" />
    <glyph glyph-name="M" unicode="M" horiz-adv-x="880" 
d="M883 748l-131 -748h-125l60 353l-295 -361h-7l-168 378l-63 -370h-125l131 748h4l254 -545l461 545h4z" />
    <glyph glyph-name="P" unicode="P" horiz-adv-x="633" 
d="M421 735c127 0 227 -78 228 -201c0 -165 -134 -273 -302 -273h-148l-45 -261h-125l129 735h263zM401 627h-136l-46 -258h135c93 0 168 55 168 155c0 65 -47 103 -121 103z" />
    <glyph glyph-name="R" unicode="R" horiz-adv-x="647" 
d="M409 735c135 0 235 -77 235 -200c0 -122 -76 -208 -181 -245l125 -290h-135l-115 270h-137l-47 -270h-125l129 735h251zM393 626h-128l-45 -247h129c86 0 168 49 168 148c-1 65 -48 99 -124 99z" />
    <glyph glyph-name="S" unicode="S" horiz-adv-x="593" 
d="M353 748c110 0 189 -37 241 -83l-79 -93c-38 37 -95 61 -167 61c-80 0 -147 -39 -147 -109c0 -50 36 -73 137 -95c153 -33 212 -94 212 -193c0 -165 -144 -249 -303 -249c-119 0 -205 40 -263 101l79 95c42 -51 117 -81 193 -81c97 0 166 45 166 114c0 50 -39 77 -133 98
c-163 35 -214 99 -214 190c0 141 117 244 278 244z" />
    <glyph glyph-name="T" unicode="T" horiz-adv-x="655" 
d="M714 735l-18 -111h-250l-109 -624h-125l110 624h-249l19 111h622z" />
    <glyph glyph-name="U" unicode="U" horiz-adv-x="691" 
d="M703 735l-84 -474c-29 -172 -134 -274 -314 -274c-171 0 -269 105 -237 285l81 463h125l-82 -466c-17 -102 20 -167 122 -167c101 0 164 67 182 167l82 466h125z" />
    <glyph glyph-name="V" unicode="V" horiz-adv-x="717" 
d="M781 735l-480 -746h-4l-217 746h131l126 -479l299 479h145z" />
    <glyph glyph-name="W" unicode="W" horiz-adv-x="971" 
d="M1034 735l-423 -746h-4l-100 451l-260 -451h-4l-163 746h128l88 -446l252 446h4l97 -443l240 443h145z" />
    <glyph glyph-name="X" unicode="X" horiz-adv-x="682" 
d="M733 735l-295 -363l174 -372h-143l-134 282l-233 -282h-144l306 374l-166 361h144l125 -270l219 270h147z" />
    <glyph glyph-name="Y" unicode="Y" horiz-adv-x="677" 
d="M738 735l-345 -429l-54 -306h-125l54 304l-196 431h138l135 -305l240 305h153z" />
    <glyph glyph-name="Z" unicode="Z" horiz-adv-x="586" 
d="M632 735v-4l-440 -620h341l-19 -111h-538v4l440 620h-316l20 111h512z" />
    <glyph glyph-name="n" unicode="n" horiz-adv-x="589" 
d="M374 514c127 0 180 -101 156 -230l-50 -284h-120l50 288c12 67 -11 113 -69 113c-65 0 -106 -35 -138 -75l-58 -326h-120l89 504h108l-4 -58c27 30 80 68 156 68z" />
    <glyph glyph-name="o" unicode="o" horiz-adv-x="580" 
d="M318 408c-93 0 -171 -88 -171 -189c0 -73 45 -123 116 -123c92 0 170 88 170 189c0 73 -45 123 -115 123zM335 514c135 0 221 -95 221 -222c0 -165 -139 -302 -311 -302c-135 0 -221 95 -221 222c0 165 139 302 311 302z" />
    <glyph glyph-name="m" unicode="m" horiz-adv-x="907" 
d="M370 514c77 0 125 -38 146 -96c35 42 99 96 180 96c128 0 176 -101 153 -230l-50 -284h-121l51 288c11 67 -8 113 -66 113c-63 0 -105 -36 -136 -78c-1 -13 -3 -26 -5 -39l-50 -284h-120l50 288c12 67 -7 113 -65 113c-64 0 -102 -35 -134 -75l-58 -326h-120l89 504h108
l-4 -58c27 30 77 68 152 68z" />
    <glyph glyph-name="Q" unicode="Q" horiz-adv-x="810" 
d="M479 748c192 0 312 -136 312 -322c0 -118 -51 -229 -134 -310l138 -200h-147l-88 127c-64 -36 -137 -56 -215 -56c-192 0 -312 136 -312 322c0 233 199 439 446 439zM460 633c-166 0 -300 -151 -300 -319c0 -129 79 -212 204 -212c47 0 92 12 131 33l-73 107l98 74
l70 -102c46 57 74 130 74 207c0 129 -78 212 -204 212z" />
    <glyph glyph-name="zero" unicode="0" horiz-adv-x="592" 
d="M356 640c-119 0 -195 -198 -195 -386c0 -99 33 -159 106 -159c119 0 195 198 195 385c0 100 -33 160 -106 160zM371 748c139 0 211 -106 211 -270c0 -290 -143 -491 -331 -491c-139 0 -210 106 -210 270c0 289 143 491 330 491z" />
    <glyph glyph-name="one" unicode="1" horiz-adv-x="385" 
d="M389 748l-131 -748h-121l96 541l-130 -71l-45 104l327 174h4z" />
    <glyph glyph-name="two" unicode="2" horiz-adv-x="532" 
d="M335 748c128 0 203 -78 203 -188c0 -100 -46 -171 -113 -242l-198 -210h242l-18 -108h-453l1 6l328 369c48 54 88 106 88 177c0 56 -36 87 -90 87c-69 0 -112 -39 -140 -117l-109 27c49 133 138 199 259 199z" />
    <glyph glyph-name="three" unicode="3" horiz-adv-x="524" 
d="M341 748c121 0 191 -81 191 -186c0 -83 -43 -148 -123 -189c53 -23 85 -78 85 -145c0 -143 -121 -241 -262 -241c-143 0 -206 68 -224 193l112 27c9 -69 39 -112 113 -112s141 60 141 141c0 59 -40 97 -106 97h-80l18 94h79c66 0 126 54 126 125c0 55 -35 88 -88 88
c-59 0 -102 -37 -131 -99l-103 47c50 97 137 160 252 160z" />
    <glyph glyph-name="five" unicode="5" horiz-adv-x="542" 
d="M551 735l-18 -108h-276l-34 -189c23 11 52 19 86 19c120 0 201 -75 201 -193c0 -154 -112 -277 -276 -277c-127 0 -193 61 -218 162l103 46c12 -59 49 -100 119 -100c81 0 151 73 151 157c0 63 -33 105 -100 105c-58 0 -100 -21 -128 -42l-74 34l67 386h397z" />
    <glyph glyph-name="six" unicode="6" horiz-adv-x="554" 
d="M531 735l-217 -259c124 -2 207 -91 207 -210c0 -152 -133 -279 -294 -279c-125 0 -208 89 -208 209c0 74 31 142 82 193l287 346h143zM293 368c-80 0 -150 -76 -150 -165c0 -64 41 -109 102 -109c79 0 151 77 151 166c0 64 -42 108 -103 108z" />
    <glyph glyph-name="nine" unicode="9" horiz-adv-x="554" 
d="M356 748c126 0 210 -89 210 -209c0 -75 -32 -144 -84 -195l-286 -344h-143l216 259c-124 1 -205 91 -205 210c0 152 132 279 292 279zM339 641c-80 0 -151 -77 -151 -166c0 -64 42 -108 102 -108c80 0 152 76 152 165c0 64 -42 109 -103 109z" />
    <glyph glyph-name="four" unicode="4" horiz-adv-x="567" 
d="M536 743l-92 -519h93l-17 -100h-93l-21 -124h-121l21 124h-331v4l556 615h5zM367 426l-187 -204h147z" />
    <glyph glyph-name="seven" unicode="7" horiz-adv-x="542" 
d="M613 735l-1 -6l-485 -729h-136l423 624h-328l20 111h507z" />
    <glyph glyph-name="eight" unicode="8" horiz-adv-x="554" 
d="M353 748c110 0 189 -70 189 -170c0 -83 -50 -149 -113 -189c40 -26 84 -76 84 -153c0 -140 -124 -249 -286 -249c-116 0 -214 68 -214 191c0 107 74 178 148 217c-35 26 -58 68 -58 126c0 128 120 227 250 227zM282 336c-72 0 -148 -60 -148 -140c0 -65 43 -110 105 -110
c76 0 150 60 150 146c0 60 -43 104 -107 104zM339 649c-65 0 -124 -53 -124 -123c0 -54 33 -92 87 -92c63 0 125 56 125 125c0 53 -34 90 -88 90z" />
    <glyph glyph-name="ampersand" unicode="&#x26;" horiz-adv-x="697" 
d="M368 748c106 0 167 -64 168 -147c0 -108 -84 -154 -173 -204l106 -147l102 104h150l-186 -195l116 -159h-146l-56 78c-62 -49 -137 -88 -226 -88c-118 0 -209 65 -209 182c0 124 84 184 194 244c-29 42 -51 87 -51 140c0 110 87 190 211 192zM272 329c-3 3 -6 7 -8 11
c-63 -35 -127 -76 -127 -155c-1 -57 41 -90 98 -90c61 0 110 33 152 72zM270 566c0 -35 15 -64 38 -96c48 26 115 57 115 120c0 39 -25 59 -65 59c-53 0 -88 -36 -88 -83z" />
    <glyph glyph-name="germandbls" unicode="&#xdf;" horiz-adv-x="652" 
d="M386 748c129 0 201 -79 201 -181c0 -78 -41 -136 -112 -173c51 -19 105 -75 105 -156c0 -158 -123 -251 -270 -251c-49 0 -83 10 -111 26l40 103c19 -12 37 -20 72 -20c77 0 141 57 141 134c0 50 -25 82 -72 96c-26 8 -47 11 -78 11l16 91c27 0 47 6 69 17
c39 17 70 53 73 99c4 61 -37 96 -92 96c-65 0 -118 -38 -133 -121l-91 -519h-120l90 518c27 151 138 230 272 230z" />
    <glyph glyph-name="section" unicode="&#xa7;" horiz-adv-x="442" 
d="M244 411c-54 0 -102 -44 -102 -103c0 -43 27 -66 71 -66c53 0 103 42 103 102c0 42 -29 67 -72 67zM306 748c72 0 121 -29 152 -65l-73 -69c-18 21 -45 36 -83 36c-51 0 -99 -33 -99 -85c0 -30 16 -45 46 -56c21 -8 43 -9 65 -16c66 -21 109 -79 109 -145
c0 -71 -42 -123 -106 -160c29 -18 46 -50 46 -94c0 -108 -108 -190 -226 -190c-73 0 -128 27 -163 78l78 69c21 -29 49 -49 95 -49c49 0 105 30 105 88c0 26 -13 39 -40 52c-18 8 -37 9 -58 14c-75 16 -119 76 -119 148c0 71 43 126 105 159c-30 19 -49 54 -49 98
c0 105 101 187 215 187z" />
    <glyph glyph-name="paragraph" unicode="&#xb6;" horiz-adv-x="726" 
d="M775 735l-17 -94h-86l-132 -751h-102l132 751h-104l-132 -751h-101l73 415h-2c-141 0 -247 65 -236 196c10 158 146 234 312 234h395z" />
    <glyph glyph-name="at" unicode="@" horiz-adv-x="859" 
d="M488 641c213 0 343 -141 343 -326c0 -124 -57 -293 -210 -293c-61 0 -88 26 -98 60l-2 6c-31 -35 -75 -66 -145 -66c-104 0 -173 76 -173 178c0 129 88 259 230 259c69 0 109 -33 123 -60l14 52h91l-54 -306c-5 -27 4 -44 32 -44c78 0 109 111 109 211
c0 154 -97 251 -264 251c-206 0 -383 -171 -383 -384c0 -156 96 -259 251 -259c55 0 99 8 142 24l9 -72c-49 -19 -102 -29 -151 -29c-208 0 -334 142 -334 335c0 256 214 463 470 463zM444 370c-84 0 -138 -72 -138 -158c0 -62 35 -101 92 -101c50 0 85 25 112 59l27 147
c-17 29 -44 53 -93 53z" />
    <glyph glyph-name="endash" unicode="&#x2013;" horiz-adv-x="553" 
d="M520 314l-19 -111h-475l19 111h475z" />
    <glyph glyph-name="emdash" unicode="&#x2014;" horiz-adv-x="797" 
d="M765 314l-19 -111h-720l20 111h719z" />
    <glyph glyph-name="hyphen" unicode="-" horiz-adv-x="434" 
d="M401 314l-19 -111h-356l19 111h356z" />
    <glyph glyph-name="period" unicode="." horiz-adv-x="232" 
d="M98 148c43 0 69 -27 68 -69c-2 -50 -46 -89 -92 -89c-44 0 -70 27 -68 68c1 50 43 90 92 90z" />
    <glyph glyph-name="quoteright" unicode="&#x2019;" horiz-adv-x="197" 
d="M168 755c42 0 68 -28 68 -67c-1 -25 -14 -44 -26 -60l-119 -167h-4l51 289c10 4 20 5 30 5z" />
    <glyph glyph-name="quoteleft" unicode="&#x2018;" horiz-adv-x="197" 
d="M235 789l-51 -288c-10 -3 -20 -6 -31 -6c-41 0 -68 28 -66 67c1 26 12 45 24 60l120 167h4z" />
    <glyph glyph-name="quotesingle" unicode="'" horiz-adv-x="172" 
d="M119 752l108 -20l-100 -269h-46z" />
    <glyph glyph-name="quotedblright" unicode="&#x201d;" horiz-adv-x="385" 
d="M163 755c42 0 68 -28 68 -67c-1 -25 -14 -44 -26 -60l-119 -167h-4l51 289c10 4 20 5 30 5zM351 755c42 0 68 -28 68 -67c-1 -25 -14 -44 -26 -60l-119 -167h-4l51 289c10 4 20 5 30 5z" />
    <glyph glyph-name="quotedblleft" unicode="&#x201c;" horiz-adv-x="385" 
d="M237 789l-51 -288c-10 -3 -20 -6 -31 -6c-41 0 -68 28 -66 67c1 26 12 45 24 60l120 167h4zM426 789l-51 -288c-10 -3 -20 -6 -31 -6c-41 0 -68 28 -66 67c1 26 12 45 24 60l120 167h4z" />
    <glyph glyph-name="dollar" unicode="$" horiz-adv-x="588" 
d="M449 869l-23 -127c73 -12 128 -42 168 -77l-79 -93c-38 37 -95 61 -167 61c-80 0 -147 -39 -147 -109c0 -50 36 -73 137 -95c153 -33 212 -94 212 -193c0 -149 -117 -232 -256 -246l-20 -119h-101l20 119c-92 10 -160 46 -209 98l79 95c42 -51 117 -81 193 -81
c97 0 166 45 166 114c0 50 -39 77 -133 98c-163 35 -214 99 -214 190c0 133 104 232 251 243l22 122h101z" />
    <glyph glyph-name="minus" unicode="&#x2212;" horiz-adv-x="498" 
d="M483 405l-20 -110h-421l19 110h422z" />
    <glyph glyph-name="plus" unicode="+" horiz-adv-x="498" 
d="M350 561l-28 -156h157l-19 -110h-157l-28 -157h-110l28 157h-156l20 110h155l28 156h110z" />
    <glyph glyph-name="multiply" unicode="&#xd7;" horiz-adv-x="472" 
d="M399 545l71 -84l-140 -115l94 -114l-92 -78l-95 118l-136 -118l-71 83l138 116l-92 114l91 77l96 -114z" />
    <glyph glyph-name="parenleft" unicode="(" horiz-adv-x="305" 
d="M262 707l86 -70c-102 -103 -184 -219 -196 -404c-13 -137 24 -228 68 -294l-94 -61c-53 80 -101 194 -88 351c13 212 111 361 224 478z" />
    <glyph glyph-name="parenright" unicode=")" horiz-adv-x="305" 
d="M176 703c53 -80 101 -194 88 -350c-13 -213 -111 -362 -224 -478l-86 70c101 103 184 218 196 404c13 136 -25 228 -69 294z" />
    <glyph glyph-name="asterisk" unicode="*" horiz-adv-x="421" 
d="M332 734l-29 -128l129 45l13 -81l-131 -35l62 -101l-78 -49l-53 101l-88 -101l-60 49l96 101l-118 35l41 81l113 -45l18 128h85z" />
    <glyph glyph-name="slash" unicode="/" horiz-adv-x="496" 
d="M573 734l-485 -734h-130l486 734h129z" />
    <glyph glyph-name="percent" unicode="%" horiz-adv-x="885" 
d="M822 735l-606 -735h-117l605 735h118zM277 661c-59 0 -108 -54 -108 -117c0 -47 28 -81 76 -81c59 0 108 53 108 118c0 45 -29 80 -76 80zM290 748c97 0 156 -69 156 -159c0 -113 -86 -213 -213 -213c-97 0 -157 68 -157 159c0 112 87 213 214 213zM675 273
c-59 0 -108 -55 -108 -119c0 -46 29 -80 76 -80c59 0 109 53 109 118c0 46 -29 81 -77 81zM688 358c97 0 158 -68 158 -158c0 -113 -88 -212 -214 -212c-98 0 -158 67 -158 158c0 112 88 212 214 212z" />
    <glyph glyph-name="Euro" unicode="&#x20ac;" horiz-adv-x="662" 
d="M424 321l-14 -80h-189c11 -93 63 -146 146 -146c72 0 124 32 165 72l65 -93c-68 -58 -149 -88 -249 -88c-148 0 -241 98 -254 255h-80l14 80h66c2 19 4 38 8 59c2 12 4 25 7 37h-64l14 80h75c64 162 193 251 347 251c102 0 166 -37 208 -95l-88 -84
c-26 39 -65 70 -139 70c-82 0 -151 -52 -195 -142h189l-14 -80h-204c-5 -16 -8 -33 -11 -50c-3 -16 -5 -31 -7 -46h204z" />
    <glyph glyph-name="question" unicode="?" horiz-adv-x="507" 
d="M321 748c121 0 200 -79 200 -185c0 -181 -199 -193 -220 -309l-7 -39h-122l11 54c28 161 210 164 210 293c1 50 -33 78 -84 78c-62 0 -103 -38 -123 -97l-119 21c43 116 132 184 254 184zM219 135c40 0 64 -26 63 -65c-1 -46 -43 -83 -86 -83c-41 0 -65 25 -63 64
c0 46 40 84 86 84z" />
    <glyph glyph-name="sterling" unicode="&#xa3;" horiz-adv-x="590" 
d="M380 748c121 0 184 -78 197 -157l-118 -32c-8 49 -36 83 -91 83c-76 0 -117 -60 -126 -140c-2 -29 -1 -57 0 -84h171l-17 -95h-145c1 -18 1 -37 1 -51c-7 -69 -37 -121 -69 -166h143c65 0 100 27 112 101h119c-23 -133 -95 -207 -225 -207h-355v4c62 79 158 183 152 319
h-91l18 95h65c-2 27 -4 51 -2 81c11 143 114 249 261 249z" />
    <glyph glyph-name="braceleft" unicode="{" horiz-adv-x="338" 
d="M388 699l-17 -96c-68 0 -125 -46 -122 -132l-1 -53c7 -72 -33 -119 -78 -134c40 -16 66 -62 31 -135l-18 -53c-34 -86 10 -121 77 -121l-17 -96c-161 0 -240 96 -165 251l17 51c30 62 -13 100 -69 113l1 4c62 13 117 50 108 112l1 51c-20 155 91 238 252 238z" />
    <glyph glyph-name="braceright" unicode="}" horiz-adv-x="338" 
d="M100 699c162 0 241 -96 166 -251l-18 -51c-29 -62 13 -100 69 -113l-1 -4c-61 -13 -116 -50 -108 -112v-51c19 -155 -91 -238 -253 -238l17 96c68 0 125 45 122 132l1 53c-7 72 33 119 79 134c-41 16 -67 62 -32 135l19 53c33 86 -10 121 -78 121z" />
    <glyph glyph-name="bar" unicode="|" horiz-adv-x="243" 
d="M252 699l-145 -820h-114l145 820h114z" />
    <glyph glyph-name="bracketleft" unicode="[" horiz-adv-x="319" 
d="M367 699l-17 -96h-125l-110 -628h124l-17 -96h-238l144 820h239z" />
    <glyph glyph-name="fraction" unicode="&#x2044;" horiz-adv-x="221" 
d="M427 734l-491 -734h-112l493 734h110z" />
    <glyph glyph-name="florin" unicode="&#x192;" horiz-adv-x="397" 
d="M389 756c50 0 92 -20 124 -50l-62 -89c-13 18 -35 31 -62 31c-42 0 -72 -34 -86 -84l-16 -60h112l-30 -102h-112l-137 -476c-26 -95 -94 -166 -198 -166c-50 0 -93 20 -125 49l62 88c13 -17 35 -30 62 -30c42 0 72 33 86 84l128 451h-75l30 102h75l24 86
c27 94 96 166 200 166z" />
    <glyph glyph-name="perthousand" unicode="&#x2030;" horiz-adv-x="1295" 
d="M822 735l-606 -735h-117l605 735h118zM277 661c-59 0 -108 -54 -108 -117c0 -47 28 -81 76 -81c59 0 108 53 108 118c0 45 -29 80 -76 80zM290 748c97 0 156 -69 156 -159c0 -113 -86 -213 -213 -213c-97 0 -157 68 -157 159c0 112 87 213 214 213zM675 273
c-59 0 -108 -55 -108 -119c0 -46 29 -80 76 -80c59 0 109 53 109 118c0 46 -29 81 -77 81zM688 358c97 0 158 -68 158 -158c0 -113 -88 -212 -214 -212c-98 0 -158 67 -158 158c0 112 88 212 214 212zM1081 273c-58 0 -107 -55 -107 -119c0 -46 28 -80 76 -80
c58 0 108 53 108 118c0 46 -28 81 -77 81zM1095 358c96 0 156 -68 156 -158c0 -113 -86 -212 -213 -212c-98 0 -157 67 -157 158c0 112 87 212 214 212z" />
    <glyph glyph-name="germandbls.cap" horiz-adv-x="675" 
d="M403 748c122 0 202 -58 260 -135l-151 -186c65 -21 126 -69 126 -173c0 -153 -128 -267 -289 -267c-58 0 -105 13 -133 31l43 108c24 -15 49 -24 87 -24c90 0 159 61 159 149c0 83 -80 115 -178 115l-2 5l178 226c-24 20 -56 35 -109 35c-81 0 -146 -53 -163 -146
l-85 -486h-121l88 500c28 162 147 248 290 248z" />
    <glyph glyph-name="bracketright" unicode="]" horiz-adv-x="324" 
d="M342 699l-145 -820h-243l17 96h128l111 628h-129l17 96h244z" />
    <glyph glyph-name="OE" unicode="&#x152;" horiz-adv-x="1155" 
d="M1198 735l-20 -115h-339l-34 -193h296l-20 -109h-296l-35 -203h347l-20 -115h-472l15 89c-72 -63 -165 -102 -266 -102c-192 0 -312 136 -312 322c0 233 199 439 446 439c100 0 179 -41 229 -110l17 97h464zM469 633c-166 0 -300 -151 -300 -319c0 -129 79 -212 204 -212
c166 0 300 151 300 319c0 129 -78 212 -204 212z" />
    <glyph glyph-name="cent" unicode="&#xa2;" horiz-adv-x="512" 
d="M406 640l-24 -133c64 -16 105 -58 129 -108l-92 -60c-18 40 -51 70 -105 70c-100 0 -168 -90 -168 -193c0 -72 36 -121 114 -121c57 0 100 33 129 73l81 -69c-46 -56 -105 -95 -180 -105l-24 -141h-101l26 142c-108 21 -166 106 -166 213c0 158 110 282 257 303l23 129
h101z" />
    <glyph glyph-name="yen" unicode="&#xa5;" horiz-adv-x="674" 
d="M738 735l-285 -350h118l-14 -89h-166l-14 -80h166l-16 -88h-165l-23 -128h-125l23 128h-165l16 88h164l14 80h-164l15 89h116l-161 350h138l135 -305l240 305h153z" />
    <glyph glyph-name="backslash" unicode="\" horiz-adv-x="496" 
d="M197 734l241 -734h-117l-240 734h116z" />
    <glyph glyph-name="exclam" unicode="!" horiz-adv-x="277" 
d="M276 735l-91 -520h-121l92 520h120zM109 135c41 0 65 -26 64 -65c-2 -46 -43 -83 -86 -83c-41 0 -65 25 -64 64c1 46 41 84 86 84z" />
    <glyph glyph-name="brokenbar" unicode="&#xa6;" horiz-adv-x="243" 
d="M252 699l-55 -308h-114l55 308h114zM162 187l-55 -308h-114l55 308h114z" />
    <glyph glyph-name="quotedbl" unicode="&#x22;" horiz-adv-x="344" 
d="M119 752l108 -20l-100 -269h-46zM290 752l108 -20l-100 -269h-46z" />
    <glyph glyph-name="ae" unicode="&#xe6;" horiz-adv-x="946" 
d="M707 418c-80 0 -141 -54 -159 -119h255c9 67 -19 119 -96 119zM723 514c150 0 217 -117 191 -258l-8 -41h-373c-5 -74 39 -126 127 -126c56 0 104 25 138 59l75 -71c-61 -59 -137 -87 -224 -87c-75 0 -128 29 -159 74l-14 -64h-102l6 56c-33 -37 -87 -66 -164 -66
c-124 0 -191 96 -191 221c0 154 106 303 279 303c77 0 125 -37 143 -69l15 59h103l-5 -58c32 36 85 68 163 68zM309 408c-95 0 -162 -92 -162 -188c0 -76 39 -124 100 -124c72 0 114 41 146 78l31 172c-21 36 -53 62 -115 62z" />
    <glyph glyph-name="acute" unicode="&#xb4;" horiz-adv-x="313" 
d="M364 712l-185 -137h-116l153 137h148z" />
    <glyph glyph-name="grave" unicode="`" horiz-adv-x="313" 
d="M214 712l121 -137h-107l-146 137h132z" />
    <glyph glyph-name="circumflex" unicode="&#x2c6;" horiz-adv-x="358" 
d="M259 754l128 -179h-91l-50 62l-71 -62h-107z" />
    <glyph glyph-name="caron" unicode="&#x2c7;" horiz-adv-x="358" 
d="M415 746l-191 -179l-129 179h92l49 -62l72 62h107z" />
    <glyph glyph-name="tilde" unicode="&#x2dc;" horiz-adv-x="377" 
d="M197 725c75 0 81 -75 120 -75c26 0 41 27 47 69h71c-11 -100 -72 -148 -129 -148c-80 0 -76 75 -120 75c-29 0 -43 -27 -49 -69h-71c8 97 72 148 131 148z" />
    <glyph glyph-name="dieresis" unicode="&#xa8;" horiz-adv-x="341" 
d="M151 706c32 0 52 -20 52 -52c0 -40 -34 -71 -72 -71c-33 0 -53 20 -53 52c0 40 33 71 73 71zM331 706c32 0 52 -20 52 -52c0 -40 -34 -71 -71 -71c-33 0 -53 20 -53 52c0 40 33 71 72 71z" />
    <glyph glyph-name="thorn" unicode="&#xfe;" horiz-adv-x="598" 
d="M283 760l-55 -311c34 34 88 65 162 65c119 0 185 -91 185 -216c0 -154 -106 -308 -276 -308c-75 0 -119 30 -141 64l-50 -284h-120l174 990h121zM343 408c-62 0 -102 -33 -134 -70l-32 -179c16 -36 51 -63 110 -63c100 0 166 93 166 188c0 76 -40 124 -110 124z" />
    <glyph glyph-name="partialdiff" unicode="&#x2202;" horiz-adv-x="553" 
d="M276 360c-80 0 -141 -70 -141 -152c0 -65 40 -109 105 -109c77 0 139 70 139 155c0 63 -39 106 -103 106zM321 748c169 0 213 -123 213 -259c0 -106 -15 -225 -64 -327c-49 -101 -139 -171 -250 -171c-124 0 -203 84 -203 201c0 156 125 275 272 275
c73 0 107 -35 124 -60c4 27 5 54 5 78c1 94 -36 149 -111 149c-60 0 -105 -33 -137 -73l-73 81c52 62 127 106 224 106z" />
    <glyph glyph-name="summation" unicode="&#x2211;" horiz-adv-x="610" 
d="M641 740l-22 -121h-362l129 -247l-212 -251h369l-21 -121h-539l14 82l249 305l-145 271l15 82h525z" />
    <glyph glyph-name="product" unicode="&#x220f;" horiz-adv-x="706" 
d="M754 740l-20 -113h-115l-129 -728h-112l129 728h-182l-128 -728h-113l128 728h-114l20 113h636z" />
    <glyph glyph-name="pi" unicode="&#x3c0;" horiz-adv-x="730" 
d="M675 575l85 -54c-38 -73 -90 -130 -198 -130h-10l-67 -221c-14 -45 -3 -61 23 -61c22 0 42 9 61 22l29 -93c-35 -27 -77 -44 -132 -44c-83 0 -126 63 -97 157l73 240h-99l-72 -233c-25 -80 -49 -122 -72 -158h-121c42 64 70 117 89 177l66 214h-19
c-56 0 -92 -25 -130 -62l-47 89c47 46 114 83 213 83h274c91 0 117 24 151 74z" />
    <glyph glyph-name="integral" unicode="&#x222b;" horiz-adv-x="434" 
d="M372 750c55 0 95 -12 117 -23l-38 -94c-19 8 -41 16 -69 16c-31 0 -54 -21 -63 -69l-105 -598c-23 -126 -75 -172 -165 -172c-56 0 -96 11 -119 23l39 94c18 -9 41 -16 69 -16c34 0 58 22 67 71l106 598c21 124 73 170 161 170z" />
    <glyph glyph-name="uni03A9" unicode="&#x3a9;" horiz-adv-x="858" 
d="M508 749c187 0 289 -121 288 -282c0 -143 -71 -242 -174 -336h173l-22 -131h-341l22 125c109 72 204 180 204 320c0 107 -58 173 -168 173c-138 0 -243 -115 -243 -271c0 -96 45 -167 108 -222l-22 -125h-339l22 131h186c-41 45 -90 118 -89 224c0 218 172 394 395 394z
" />
    <glyph glyph-name="lozenge" unicode="&#x25ca;" horiz-adv-x="569" 
d="M396 738l146 -402l-287 -401h-74l-148 401l289 402h74zM336 561l-181 -237l86 -215l179 239z" />
    <glyph glyph-name="uni2206" unicode="&#x2206;" horiz-adv-x="721" 
d="M423 646l212 -646h-650zM386 428l-227 -333h335z" />
    <glyph glyph-name="afii61289" unicode="&#x2113;" horiz-adv-x="584" 
d="M417 750c86 0 150 -54 138 -152c-16 -146 -174 -271 -284 -357l-13 -72c-7 -48 5 -79 47 -79c61 0 100 47 146 104l61 -56c-64 -84 -146 -150 -250 -150c-99 0 -132 63 -120 134l7 37c-22 -17 -71 -55 -93 -70l-44 85c45 32 118 86 156 117l49 279c22 122 87 180 200 180
zM400 659c-39 0 -68 -25 -79 -79l-38 -218c56 47 165 139 171 233c4 41 -21 64 -54 64z" />
    <glyph glyph-name="Omega" unicode="&#x2126;" horiz-adv-x="858" 
d="M508 749c187 0 289 -121 288 -282c0 -143 -71 -242 -174 -336h173l-22 -131h-341l22 125c109 72 204 180 204 320c0 107 -58 173 -168 173c-138 0 -243 -115 -243 -271c0 -96 45 -167 108 -222l-22 -125h-339l22 131h186c-41 45 -90 118 -89 224c0 218 172 394 395 394z
" />
    <glyph glyph-name="estimated" unicode="&#x212e;" horiz-adv-x="591" 
d="M308 505c-46 0 -91 -13 -116 -32c-25 -14 -32 -38 -32 -59v-107h279v109c0 33 -4 51 -29 63c-26 17 -59 26 -102 26zM308 535c140 0 248 -90 248 -258h-396v-168c0 -24 6 -45 32 -60c27 -18 64 -32 116 -32c91 0 166 45 220 127l24 -16c-54 -86 -138 -141 -244 -141
c-154 0 -273 110 -273 274s119 274 273 274z" />
    <glyph glyph-name="logicalnot" unicode="&#xac;" horiz-adv-x="597" 
d="M587 443l-52 -292h-85l37 208h-441l16 84h525z" />
    <glyph glyph-name="radical" unicode="&#x221a;" horiz-adv-x="697" 
d="M641 696l92 -43l-428 -727l-113 328l-128 -69l-41 90l250 136l69 -221z" />
    <glyph glyph-name="infinity" unicode="&#x221e;" horiz-adv-x="758" 
d="M575 479c105 0 162 -80 151 -177c-13 -108 -101 -200 -213 -200c-75 0 -120 48 -152 86l-13 18l-18 -18c-47 -40 -98 -71 -157 -71c-99 0 -149 72 -138 164c12 99 89 184 196 184c62 0 99 -34 132 -75l13 -17l14 14c54 50 110 92 185 92zM561 378c-44 0 -80 -33 -119 -71
l-17 -18l12 -19c25 -32 50 -67 94 -67c49 0 91 45 94 99c3 42 -21 76 -64 76zM214 367c-45 0 -79 -40 -82 -86c-3 -37 16 -67 55 -67c33 0 67 22 98 57l17 19l-11 17c-22 35 -45 60 -77 60z" />
    <glyph glyph-name="plusminus" unicode="&#xb1;" horiz-adv-x="498" 
d="M371 671l-28 -155h157l-20 -110h-155l-28 -157h-111l29 157h-156l19 110h155l28 155h110zM442 183l-20 -110h-421l18 110h423z" />
    <glyph glyph-name="divide" unicode="&#xf7;" horiz-adv-x="498" 
d="M310 623c42 0 67 -31 60 -73c-7 -41 -44 -73 -86 -73c-41 0 -67 32 -60 73c7 42 44 73 86 73zM238 222c42 0 68 -30 61 -73c-7 -42 -44 -73 -86 -73s-67 31 -60 73c8 42 44 73 85 73zM483 405l-20 -110h-421l19 110h422z" />
    <glyph glyph-name="currency" unicode="&#xa4;" horiz-adv-x="658" 
d="M596 561l69 -83l-137 -117c9 -20 14 -43 14 -68c0 -55 -19 -104 -51 -143l95 -119l-84 -67l-98 121c-32 -18 -68 -27 -105 -27c-39 0 -71 9 -95 28l-145 -122l-68 83l145 124c-8 18 -12 39 -12 62c0 55 19 104 50 143l-94 119l85 66l95 -119c32 17 68 28 107 28
c35 0 65 -11 89 -27zM354 378c-68 0 -127 -62 -127 -140c0 -53 32 -90 85 -90c68 0 129 62 129 140c0 53 -34 90 -87 90z" />
    <glyph glyph-name="mu" unicode="&#xb5;" horiz-adv-x="596" 
d="M566 504l-89 -504h-108l5 60c-34 -35 -85 -70 -155 -70c-32 0 -55 13 -66 37l-45 -257h-120l129 734h120l-52 -293c-11 -65 16 -107 75 -107c56 0 93 29 127 66l59 334h120z" />
    <glyph glyph-name="equal" unicode="=" horiz-adv-x="498" 
d="M457 279l-20 -110h-421l18 110h423zM501 529l-20 -110h-422l19 110h423z" />
    <glyph glyph-name="notequal" unicode="&#x2260;" horiz-adv-x="498" 
d="M457 279l-20 -110h-224l-52 -97h-104l52 97h-93l18 110h135l75 140h-185l19 110h226l66 122h103l-66 -122h94l-20 -110h-133l-76 -140h185z" />
    <glyph glyph-name="copyright" unicode="&#xa9;" horiz-adv-x="679" 
d="M400 642c56 0 91 -23 116 -54l-48 -47c-15 20 -39 32 -73 32c-67 0 -120 -57 -120 -128c0 -52 31 -80 78 -80c39 0 67 15 88 35l38 -57c-35 -31 -80 -47 -132 -47c-88 0 -146 63 -146 148c0 108 85 198 199 198zM419 782c159 0 258 -113 258 -265
c0 -195 -159 -367 -368 -367c-159 0 -257 112 -257 264c0 195 159 368 367 368zM408 714c-155 0 -285 -139 -285 -292c0 -127 74 -205 198 -205c154 0 283 138 283 292c0 127 -73 205 -196 205z" />
    <glyph glyph-name="registered" unicode="&#xae;" horiz-adv-x="679" 
d="M419 782c159 0 258 -113 258 -265c0 -195 -159 -367 -368 -367c-159 0 -257 112 -257 264c0 195 159 368 367 368zM408 714c-155 0 -285 -139 -285 -292c0 -127 74 -205 198 -205c154 0 283 138 283 292c0 127 -73 205 -196 205zM270 638h130c63 0 114 -39 105 -106
c-6 -50 -40 -87 -82 -105l56 -128h-78l-49 115h-49l-19 -115h-73zM382 572h-51l-15 -92h51c31 0 62 14 64 51c3 28 -17 41 -49 41z" />
    <glyph glyph-name="underscore" unicode="_" horiz-adv-x="797" 
d="M717 0l-19 -110h-720l19 110h720z" />
    <glyph glyph-name="macron" unicode="&#xaf;" horiz-adv-x="304" 
d="M348 676l-14 -81h-267l16 81h265z" />
    <glyph glyph-name="semicolon" unicode=";" horiz-adv-x="223" 
d="M69 140c42 0 69 -28 67 -68c0 -25 -12 -43 -24 -59l-120 -167h-3l50 289c11 3 20 5 30 5zM160 514c40 0 64 -26 63 -63c-1 -49 -42 -87 -89 -87c-39 0 -64 27 -63 63c2 49 43 87 89 87z" />
    <glyph glyph-name="colon" unicode=":" horiz-adv-x="223" 
d="M94 140c41 0 65 -26 64 -66c-2 -47 -43 -84 -88 -84c-41 0 -65 25 -64 64c1 48 42 86 88 86zM160 514c42 0 66 -26 64 -65c-1 -48 -43 -85 -87 -85c-42 0 -66 26 -65 65c1 47 42 85 88 85z" />
    <glyph glyph-name="ellipsis" unicode="&#x2026;" horiz-adv-x="720" 
d="M98 148c43 0 69 -27 68 -69c-2 -50 -46 -89 -92 -89c-44 0 -70 27 -68 68c1 50 43 90 92 90zM342 148c43 0 69 -27 68 -69c-2 -50 -46 -89 -92 -89c-44 0 -70 27 -68 68c1 50 44 90 92 90zM586 148c43 0 69 -27 68 -69c-2 -50 -46 -89 -92 -89c-44 0 -70 27 -68 68
c1 50 44 90 92 90z" />
    <glyph glyph-name="hungarumlaut" unicode="&#x2dd;" horiz-adv-x="406" 
d="M300 718l-127 -147h-97l115 147h109zM478 718l-127 -147h-97l115 147h109z" />
    <glyph glyph-name="dotaccent" unicode="&#x2d9;" horiz-adv-x="186" 
d="M166 735c39 0 64 -24 64 -63c0 -46 -42 -85 -87 -85c-40 0 -64 24 -64 61c0 48 40 87 87 87z" />
    <glyph glyph-name="breve" unicode="&#x2d8;" horiz-adv-x="354" 
d="M418 730c-12 -94 -81 -158 -173 -158c-97 0 -159 71 -145 158h86c-8 -44 17 -76 61 -76c47 0 78 32 85 76h86z" />
    <glyph glyph-name="ring" unicode="&#x2da;" horiz-adv-x="269" 
d="M219 797c61 0 101 -44 101 -100c0 -75 -63 -127 -133 -127c-61 0 -102 44 -102 99c0 76 64 128 134 128zM210 732c-28 0 -56 -23 -56 -56c0 -24 16 -41 41 -41c27 0 55 22 55 56c0 24 -15 41 -40 41z" />
    <glyph glyph-name="ogonek" unicode="&#x2db;" horiz-adv-x="238" 
d="M102 58l25 -58c-33 -13 -56 -35 -56 -72c0 -33 21 -49 51 -49c16 0 29 4 38 10l14 -69c-12 -6 -32 -11 -59 -11c-73 0 -122 41 -122 114c0 66 42 110 109 135z" />
    <glyph glyph-name="cedilla" unicode="&#xb8;" horiz-adv-x="247" 
d="M52 21l61 -5l-24 -68c44 -7 79 -37 79 -87c0 -71 -57 -115 -127 -115c-45 0 -79 19 -97 45l48 44c10 -14 28 -25 52 -25c26 0 48 16 48 45c0 21 -12 32 -37 34c-19 2 -35 -1 -49 -6l-3 4z" />
    <glyph glyph-name="eng" unicode="&#x14b;" horiz-adv-x="589" 
d="M378 514c126 0 176 -95 154 -226l-59 -332c-21 -112 -121 -196 -237 -196l19 106c49 0 87 32 96 81l60 341c12 67 -16 113 -78 113c-56 0 -95 -31 -129 -69l-58 -332h-121l89 504h109l-5 -62c28 30 83 72 160 72z" />
    <glyph glyph-name="trademark" unicode="&#x2122;" horiz-adv-x="864" 
d="M427 735l-15 -85h-125l-52 -291h-87l51 291h-125l15 85h338zM894 742l-68 -383h-88l27 149l-140 -153h-4l-87 159l-26 -155h-89l68 383h2l149 -263l254 263h2z" />
    <glyph glyph-name="numbersign" unicode="#" horiz-adv-x="707" 
d="M688 735l-68 -192h120l-17 -97h-136l-58 -162h119l-18 -98h-135l-65 -186h-120l65 186h-146l-64 -186h-121l65 186h-119l18 98h136l57 162h-119l17 97h136l68 192h119l-68 -192h147l67 192h120zM467 446h-147l-56 -162h146z" />
    <glyph glyph-name="periodcentered" unicode="&#xb7;" horiz-adv-x="211" 
d="M115 333c44 0 71 -33 64 -77c-8 -43 -46 -76 -91 -76c-44 0 -70 33 -62 76c7 44 45 77 89 77z" />
    <glyph glyph-name="asciitilde" unicode="~" horiz-adv-x="595" 
d="M221 449c106 0 117 -84 193 -84c51 0 87 36 111 78l67 -61c-46 -79 -119 -128 -197 -128c-110 0 -116 84 -193 84c-50 0 -86 -36 -110 -78l-67 61c46 79 119 128 196 128z" />
    <glyph glyph-name="approxequal" unicode="&#x2248;" horiz-adv-x="595" 
d="M209 327c105 0 116 -85 193 -85c50 0 86 37 110 78l67 -60c-46 -80 -119 -129 -197 -129c-109 0 -115 85 -192 85c-50 0 -87 -37 -111 -78l-67 60c46 80 119 129 197 129zM249 561c106 0 117 -84 193 -84c51 0 87 36 111 78l67 -61c-46 -79 -119 -128 -197 -128
c-110 0 -116 84 -193 84c-50 0 -86 -36 -110 -78l-67 61c46 79 119 128 196 128z" />
    <glyph glyph-name="asciicircum" unicode="^" horiz-adv-x="530" 
d="M351 760l194 -298h-101l-108 167l-168 -167h-115z" />
    <glyph glyph-name="less" unicode="&#x3c;" horiz-adv-x="368" 
d="M397 538l-219 -197l148 -187h-146l-150 195l1 4l208 185h158z" />
    <glyph glyph-name="greater" unicode="&#x3e;" horiz-adv-x="368" 
d="M211 538l150 -195l-1 -4l-208 -185h-157l218 197l-148 187h146z" />
    <glyph glyph-name="lessequal" unicode="&#x2264;" horiz-adv-x="368" 
d="M340 224l-18 -110h-330l19 110h329zM412 609l-214 -170l147 -162h-146l-152 167v4l201 161h164z" />
    <glyph glyph-name="greaterequal" unicode="&#x2265;" horiz-adv-x="368" 
d="M227 609l152 -168l-1 -4l-200 -160h-164l214 170l-147 162h146zM340 224l-18 -110h-330l19 110h329z" />
    <glyph glyph-name="degree" unicode="&#xb0;" horiz-adv-x="353" 
d="M257 747c82 0 133 -59 123 -137c-10 -88 -84 -154 -172 -154c-84 0 -134 57 -124 136c9 87 83 155 173 155zM245 671c-42 0 -78 -33 -81 -78c-3 -35 19 -61 55 -61c40 0 77 33 80 77c4 36 -19 62 -54 62z" />
    <glyph glyph-name="endash_guilsinglright" horiz-adv-x="665" 
d="M389 543l249 -267l-343 -267l-48 74l187 143h-395l18 99h415l-147 153z" />
    <glyph glyph-name="emdash_guilsinglright" horiz-adv-x="988" 
d="M712 543l249 -267l-343 -267l-49 74l189 143h-719l18 99h738l-146 153z" />
    <glyph glyph-name="guilsinglleft_endash" horiz-adv-x="665" 
d="M374 541l48 -74l-188 -142h396l-18 -99h-416l147 -155l-63 -63l-249 267z" />
    <glyph glyph-name="guilsinglleft_emdash" horiz-adv-x="988" 
d="M375 541l48 -74l-188 -142h718l-17 -99h-739l147 -155l-63 -63l-249 267z" />
    <glyph glyph-name="guilsinglleft" unicode="&#x2039;" horiz-adv-x="369" 
d="M389 458l-237 -206l163 -198h-138l-165 205l1 4l225 195h151z" />
    <glyph glyph-name="guilsinglright" unicode="&#x203a;" horiz-adv-x="369" 
d="M185 458l165 -205l-1 -4l-225 -195h-151l237 206l-163 198h138z" />
    <glyph glyph-name="dagger" unicode="&#x2020;" horiz-adv-x="494" 
d="M385 735l-30 -173h161l-19 -108h-161l-80 -454h-118l79 454h-160l20 108h160l30 173h118z" />
    <glyph glyph-name="daggerdbl" unicode="&#x2021;" horiz-adv-x="494" 
d="M386 735l-29 -173h161l-20 -108h-161l-30 -173h160l-20 -108h-160l-30 -173h-118l30 173h-161l19 108h161l31 173h-160l19 108h160l30 173h118z" />
    <glyph glyph-name="quotesinglbase" unicode="&#x201a;" horiz-adv-x="197" 
d="M66 137c42 0 68 -28 67 -67c0 -26 -13 -45 -25 -60l-119 -167h-4l51 288c10 4 19 6 30 6z" />
    <glyph glyph-name="quotedblbase" unicode="&#x201e;" horiz-adv-x="400" 
d="M66 137c42 0 68 -28 67 -67c0 -26 -13 -45 -25 -60l-119 -167h-4l51 288c10 4 19 6 30 6zM269 137c42 0 68 -28 67 -67c0 -26 -13 -45 -25 -60l-119 -167h-4l51 288c10 4 19 6 30 6z" />
    <glyph glyph-name="comma" unicode="," horiz-adv-x="197" 
d="M65 146c41 0 68 -28 66 -67c-1 -25 -12 -45 -24 -60l-120 -167h-4l51 288c10 4 20 6 31 6z" />
    <glyph glyph-name="bullet" unicode="&#x2022;" horiz-adv-x="295" 
d="M166 373c64 0 103 -46 95 -108c-7 -71 -66 -121 -136 -121c-62 0 -102 46 -95 107c8 71 68 122 136 122z" />
    <glyph glyph-name="guillemotleft" unicode="&#xab;" horiz-adv-x="512" 
d="M291 458l-168 -205l95 -199h-108l-101 207l1 4l163 193h118zM530 458l-168 -205l95 -199h-108l-100 207l1 4l163 193h117z" />
    <glyph glyph-name="guillemotright" unicode="&#xbb;" horiz-adv-x="512" 
d="M393 458l101 -207l-1 -4l-163 -193h-118l168 205l-94 199h107zM154 458l100 -207v-4l-164 -193h-117l169 205l-96 199h108z" />
    <glyph glyph-name="at.cap" horiz-adv-x="859" 
d="M505 766c213 0 343 -141 343 -326c0 -124 -57 -293 -210 -293c-61 0 -88 26 -98 60l-2 6c-31 -35 -75 -66 -145 -66c-104 0 -173 76 -173 178c0 129 88 259 230 259c69 0 109 -33 123 -60l14 52h91l-54 -306c-5 -27 4 -44 32 -44c78 0 109 111 109 211
c0 154 -97 251 -264 251c-206 0 -383 -171 -383 -384c0 -156 96 -259 251 -259c55 0 99 8 142 24l9 -72c-49 -19 -102 -29 -151 -29c-208 0 -334 142 -334 335c0 256 214 463 470 463zM461 495c-84 0 -138 -72 -138 -158c0 -62 35 -101 92 -101c50 0 85 25 112 59l27 147
c-17 29 -44 53 -93 53z" />
    <glyph glyph-name="commaaccent" unicode="&#xf6c3;" horiz-adv-x="177" 
d="M27 -48c42 0 68 -27 66 -66c-1 -24 -10 -46 -24 -60l-114 -138h-4l46 259c10 3 19 5 30 5z" />
    <glyph glyph-name="Thorn" unicode="&#xde;" horiz-adv-x="584" 
d="M283 735l-22 -128h112c112 0 207 -72 207 -187c0 -142 -132 -239 -276 -239h-119l-31 -181h-125l129 735h125zM348 499h-107l-36 -210h106c68 0 141 43 141 122c0 57 -45 88 -104 88z" />
    <glyph glyph-name="grave.cap" horiz-adv-x="313" 
d="M252 889l118 -117h-116l-139 117h137z" />
    <glyph glyph-name="acute.cap" horiz-adv-x="313" 
d="M412 889l-171 -117h-130l144 117h157z" />
    <glyph glyph-name="circumflex.cap" horiz-adv-x="370" 
d="M294 921l140 -150h-94l-56 56l-73 -56h-109z" />
    <glyph glyph-name="caron.cap" horiz-adv-x="370" 
d="M466 911l-193 -149l-139 149h93l56 -55l74 55h109z" />
    <glyph glyph-name="tilde.cap" horiz-adv-x="377" 
d="M232 916c70 0 78 -75 117 -75c31 0 43 28 50 69h70c-16 -88 -70 -142 -130 -142c-74 0 -73 76 -117 76c-34 0 -44 -27 -51 -69h-70c15 91 70 141 131 141z" />
    <glyph glyph-name="dieresis.cap" horiz-adv-x="341" 
d="M187 894c33 0 53 -21 53 -52c0 -39 -34 -71 -72 -71c-33 0 -53 21 -53 52c0 39 33 71 72 71zM368 894c32 0 52 -21 52 -52c0 -39 -34 -71 -71 -71c-33 0 -53 21 -53 52c0 39 33 71 72 71z" />
    <glyph glyph-name="macron.cap" horiz-adv-x="304" 
d="M382 869l-14 -83h-267l15 83h266z" />
    <glyph glyph-name="breve.cap" horiz-adv-x="354" 
d="M442 923c-13 -98 -90 -152 -177 -152c-95 0 -150 66 -139 152h84c-8 -47 15 -82 61 -82c44 0 78 35 87 82h84z" />
    <glyph glyph-name="ring.cap" horiz-adv-x="269" 
d="M247 997c60 0 101 -43 101 -99c0 -76 -64 -129 -134 -129c-61 0 -101 45 -101 100c0 75 63 128 134 128zM237 932c-27 0 -56 -23 -56 -56c0 -24 16 -41 42 -41s55 22 55 55c0 25 -16 42 -41 42z" />
    <glyph glyph-name="hungarumlaut.cap" horiz-adv-x="406" 
d="M363 894l-122 -121h-99l109 121h112zM542 894l-122 -121h-99l109 121h112z" />
    <glyph glyph-name="dotaccent.cap" horiz-adv-x="175" 
d="M189 907c36 0 58 -23 58 -58c0 -44 -38 -79 -79 -79c-37 0 -59 23 -59 56c0 45 38 81 80 81z" />
    <glyph glyph-name="AE" unicode="&#xc6;" horiz-adv-x="879" 
d="M917 735l-19 -115h-395l45 -195h272l-18 -105h-229l50 -205h193l-20 -115h-283l-31 138h-303l-81 -138h-140l451 735h508zM396 512l-162 -279h226z" />
    <glyph glyph-name="exclamdown" unicode="&#xa1;" horiz-adv-x="277" 
d="M-13 -235l91 520h121l-92 -520h-120zM154 365c-41 0 -65 26 -64 65c2 46 43 83 86 83c41 0 65 -25 64 -64c-1 -46 -41 -84 -86 -84z" />
    <glyph glyph-name="questiondown" unicode="&#xbf;" horiz-adv-x="507" 
d="M182 -248c-121 0 -200 79 -200 185c0 181 199 193 220 309l7 39h122l-11 -54c-28 -161 -210 -164 -210 -293c-1 -50 33 -78 84 -78c62 0 103 38 123 97l119 -21c-43 -116 -132 -184 -254 -184zM284 365c-40 0 -64 26 -63 65c1 46 43 83 86 83c41 0 65 -25 63 -64
c0 -46 -40 -84 -86 -84z" />
    <glyph glyph-name="parenleft.cap" horiz-adv-x="305" 
d="M274 781l86 -70c-102 -103 -183 -218 -196 -404c-12 -136 24 -228 69 -294l-96 -60c-52 80 -100 194 -87 350c14 213 112 362 224 478z" />
    <glyph glyph-name="parenright.cap" horiz-adv-x="305" 
d="M191 781c53 -80 100 -194 88 -350c-14 -213 -111 -362 -224 -478l-87 70c102 103 184 218 197 404c12 136 -25 228 -69 294z" />
    <glyph glyph-name="bracketleft.cap" horiz-adv-x="319" 
d="M376 777l-16 -96h-125l-112 -628h125l-17 -96h-238l144 820h239z" />
    <glyph glyph-name="bracketright.cap" horiz-adv-x="324" 
d="M351 777l-145 -820h-243l17 96h128l111 628h-129l17 96h244z" />
    <glyph glyph-name="braceleft.cap" horiz-adv-x="338" 
d="M397 777l-17 -96c-68 0 -125 -46 -122 -132l-1 -53c7 -72 -33 -119 -78 -134c40 -16 66 -62 31 -135l-18 -53c-34 -86 9 -121 77 -121l-17 -96c-162 0 -240 96 -166 251l18 51c29 62 -12 100 -69 113l1 4c61 13 117 50 108 112v51c-20 155 91 238 253 238z" />
    <glyph glyph-name="braceright.cap" horiz-adv-x="338" 
d="M109 777c162 0 240 -96 166 -251l-18 -51c-30 -62 13 -100 69 -113l-1 -4c-61 -13 -117 -50 -109 -112l1 -51c19 -155 -91 -238 -253 -238l17 96c68 0 125 45 122 132l1 53c-8 72 33 119 78 134c-40 16 -66 62 -31 135l18 53c34 86 -9 121 -77 121z" />
    <glyph glyph-name="guilsinglleft.cap" horiz-adv-x="369" 
d="M413 576l-244 -227l156 -217h-134l-161 226l1 4l229 214h153z" />
    <glyph glyph-name="guilsinglright.cap" horiz-adv-x="369" 
d="M208 576l161 -226l-1 -4l-229 -214h-153l245 227l-157 217h134z" />
    <glyph glyph-name="guillemotleft.cap" horiz-adv-x="524" 
d="M321 576l-182 -224l103 -220h-109l-106 227l1 4l175 213h118zM562 576l-183 -224l103 -220h-108l-106 227l1 4l174 213h119z" />
    <glyph glyph-name="guillemotright.cap" horiz-adv-x="524" 
d="M417 576l105 -227l-1 -4l-174 -213h-119l184 224l-104 220h109zM176 576l105 -227l-1 -4l-174 -213h-118l183 224l-104 220h109z" />
    <glyph glyph-name="exclamdown.cap" horiz-adv-x="277" 
d="M30 0l91 520h121l-92 -520h-120zM197 600c-41 0 -65 26 -64 65c2 46 43 83 86 83c41 0 65 -25 64 -64c-1 -46 -41 -84 -86 -84z" />
    <glyph glyph-name="questiondown.cap" horiz-adv-x="507" 
d="M218 -13c-121 0 -200 79 -200 185c0 181 199 193 220 309l7 39h122l-11 -54c-28 -161 -210 -164 -210 -293c-1 -50 33 -78 84 -78c62 0 103 38 123 97l119 -21c-43 -116 -132 -184 -254 -184zM320 600c-40 0 -64 26 -63 65c1 46 43 83 86 83c41 0 65 -25 63 -64
c0 -46 -40 -84 -86 -84z" />
    <glyph glyph-name="endash.cap" horiz-adv-x="553" 
d="M533 412l-19 -111h-475l19 111h475z" />
    <glyph glyph-name="periodcentered.cap" horiz-adv-x="211" 
d="M133 431c44 0 71 -33 64 -77c-8 -43 -46 -76 -91 -76c-44 0 -70 33 -62 76c7 44 45 77 89 77z" />
    <glyph glyph-name="emdash.cap" horiz-adv-x="797" 
d="M780 412l-19 -111h-720l20 111h719z" />
    <glyph glyph-name="hyphen.cap" horiz-adv-x="434" 
d="M414 412l-19 -111h-356l19 111h356z" />
    <glyph glyph-name="oe" unicode="&#x153;" horiz-adv-x="943" 
d="M717 514c154 0 220 -114 194 -258l-8 -41h-352c-5 -74 31 -126 111 -126c56 0 99 25 133 59l76 -71c-62 -59 -133 -87 -224 -87c-86 0 -148 33 -183 88c-56 -55 -134 -88 -219 -88c-135 0 -221 95 -221 222c0 165 139 302 311 302c80 0 143 -34 181 -88
c49 53 118 88 201 88zM318 408c-93 0 -171 -88 -171 -189c0 -73 45 -123 116 -123c92 0 170 88 170 189c0 73 -45 123 -115 123zM710 418c-77 0 -128 -55 -144 -119h234c11 70 -14 119 -90 119z" />
    <glyph glyph-name="zero.dnom" horiz-adv-x="393" 
d="M221 427c84 0 131 -65 131 -158c0 -155 -84 -277 -199 -277c-85 0 -133 64 -133 158c0 152 80 277 201 277zM210 349c-58 0 -100 -92 -100 -196c0 -51 16 -83 54 -83c58 0 100 94 100 195c0 52 -17 84 -54 84z" />
    <glyph glyph-name="one.dnom" horiz-adv-x="274" 
d="M250 427l-79 -427h-89l54 287l-69 -35l-27 77l208 98h2z" />
    <glyph glyph-name="two.dnom" horiz-adv-x="356" 
d="M204 427c81 0 128 -46 128 -111c0 -52 -29 -92 -69 -135l-97 -103h127l-14 -78h-280l1 4l192 217c27 28 50 53 50 85c0 25 -19 42 -46 42c-36 0 -59 -20 -73 -61l-80 18c26 78 80 122 161 122z" />
    <glyph glyph-name="three.dnom" horiz-adv-x="351" 
d="M209 427c76 0 119 -47 119 -109c0 -48 -26 -86 -67 -107c27 -13 44 -36 44 -72c0 -83 -78 -147 -167 -147c-83 0 -127 36 -131 115l80 18c2 -35 19 -54 56 -54c40 0 73 30 73 68c0 25 -19 44 -52 44h-46l12 67h47c33 0 63 25 63 58c0 26 -19 40 -45 40
c-30 0 -54 -17 -67 -48l-75 34c27 56 82 93 156 93z" />
    <glyph glyph-name="four.dnom" horiz-adv-x="383" 
d="M345 425l-56 -302h50l-12 -66h-49l-12 -57h-88l11 57h-208v2l361 366h3zM226 220l-99 -99h80z" />
    <glyph glyph-name="five.dnom" horiz-adv-x="364" 
d="M335 419l-14 -78h-158l-16 -83c9 4 21 7 38 7c73 0 125 -42 125 -114c0 -89 -74 -159 -173 -159c-76 0 -120 33 -131 96l77 35c4 -34 25 -52 63 -52c41 0 75 33 75 72c0 30 -21 49 -56 49c-28 0 -49 -10 -61 -20l-56 25l40 222h247z" />
    <glyph glyph-name="six.dnom" horiz-adv-x="373" 
d="M333 419l-126 -146c67 -8 111 -57 111 -120c0 -88 -81 -160 -180 -160c-77 0 -128 52 -128 122c0 43 20 82 52 111l165 193h106zM178 201c-45 0 -80 -37 -80 -80c0 -32 21 -53 53 -53c44 0 80 37 80 80c0 31 -21 53 -53 53z" />
    <glyph glyph-name="seven.dnom" horiz-adv-x="365" 
d="M383 419v-4l-285 -415h-99l234 337h-177l14 82h313z" />
    <glyph glyph-name="eight.dnom" horiz-adv-x="373" 
d="M222 427c67 0 117 -41 117 -99c0 -46 -31 -83 -69 -106c28 -16 51 -45 51 -88c0 -83 -82 -142 -174 -142c-74 0 -134 39 -134 110c0 63 44 102 87 122c-20 15 -34 38 -34 72c0 73 75 131 156 131zM177 187c-43 0 -80 -32 -80 -72c0 -31 21 -54 58 -54c47 0 81 31 81 72
c0 31 -25 54 -59 54zM213 358c-37 0 -69 -27 -69 -61c0 -26 18 -46 48 -46c37 0 68 30 68 64c0 25 -19 43 -47 43z" />
    <glyph glyph-name="nine.dnom" horiz-adv-x="373" 
d="M226 426c77 0 128 -52 128 -122c0 -46 -22 -88 -58 -117l-159 -187h-106l125 146c-67 7 -110 56 -110 120c0 88 81 160 180 160zM214 351c-45 0 -80 -37 -80 -80c0 -31 21 -53 53 -53c45 0 80 37 80 80c0 32 -21 53 -53 53z" />
    <glyph glyph-name="zero.numr" horiz-adv-x="382" 
d="M273 741c84 0 131 -65 131 -158c0 -155 -84 -277 -199 -277c-85 0 -133 64 -133 158c0 152 80 277 201 277zM262 663c-58 0 -100 -92 -100 -196c0 -51 16 -83 54 -83c58 0 100 94 100 195c0 52 -17 84 -54 84z" />
    <glyph glyph-name="one.numr" horiz-adv-x="262" 
d="M295 741l-79 -427h-89l54 287l-69 -35l-27 77l208 98h2z" />
    <glyph glyph-name="two.numr" horiz-adv-x="344" 
d="M252 741c81 0 128 -46 128 -111c0 -52 -29 -92 -69 -135l-97 -103h127l-14 -78h-280l1 4l192 217c27 28 50 53 50 85c0 25 -19 42 -46 42c-36 0 -59 -20 -73 -61l-80 18c26 78 80 122 161 122z" />
    <glyph glyph-name="three.numr" horiz-adv-x="339" 
d="M259 741c76 0 119 -47 119 -109c0 -48 -26 -86 -67 -107c27 -13 44 -36 44 -72c0 -83 -78 -147 -167 -147c-83 0 -127 36 -131 115l80 18c2 -35 19 -54 56 -54c40 0 73 30 73 68c0 25 -19 44 -52 44h-46l12 67h47c33 0 63 25 63 58c0 26 -19 40 -45 40
c-30 0 -54 -17 -67 -48l-75 34c27 56 82 93 156 93z" />
    <glyph glyph-name="four.numr" horiz-adv-x="371" 
d="M386 739l-56 -302h50l-12 -66h-49l-12 -57h-88l11 57h-208v2l361 366h3zM267 534l-99 -99h80z" />
    <glyph glyph-name="five.numr" horiz-adv-x="352" 
d="M386 733l-14 -78h-158l-16 -83c9 4 21 7 38 7c73 0 125 -42 125 -114c0 -89 -74 -159 -173 -159c-76 0 -120 33 -131 96l77 35c4 -34 25 -52 63 -52c41 0 75 33 75 72c0 30 -21 49 -56 49c-28 0 -49 -10 -61 -20l-56 25l40 222h247z" />
    <glyph glyph-name="six.numr" horiz-adv-x="361" 
d="M380 733l-126 -146c67 -8 111 -57 111 -120c0 -88 -81 -160 -180 -160c-77 0 -128 52 -128 122c0 43 20 82 52 111l165 193h106zM225 515c-45 0 -80 -37 -80 -80c0 -32 21 -53 53 -53c44 0 80 37 80 80c0 31 -21 53 -53 53z" />
    <glyph glyph-name="seven.numr" horiz-adv-x="354" 
d="M428 733v-4l-285 -415h-99l234 337h-177l14 82h313z" />
    <glyph glyph-name="eight.numr" horiz-adv-x="361" 
d="M268 741c67 0 117 -41 117 -99c0 -46 -31 -83 -69 -106c28 -16 51 -45 51 -88c0 -83 -82 -142 -174 -142c-74 0 -134 39 -134 110c0 63 44 102 87 122c-20 15 -34 38 -34 72c0 73 75 131 156 131zM223 501c-43 0 -80 -32 -80 -72c0 -31 21 -54 58 -54c47 0 81 31 81 72
c0 31 -25 54 -59 54zM259 672c-37 0 -69 -27 -69 -61c0 -26 18 -46 48 -46c37 0 68 30 68 64c0 25 -19 43 -47 43z" />
    <glyph glyph-name="nine.numr" horiz-adv-x="361" 
d="M269 740c77 0 128 -52 128 -122c0 -46 -22 -88 -58 -117l-159 -187h-106l125 146c-67 7 -110 56 -110 120c0 88 81 160 180 160zM257 665c-45 0 -80 -37 -80 -80c0 -31 21 -53 53 -53c45 0 80 37 80 80c0 32 -21 53 -53 53z" />
    <glyph glyph-name="zero.sups" unicode="&#x2070;" horiz-adv-x="382" 
d="M287 821c84 0 131 -65 131 -158c0 -155 -84 -277 -199 -277c-85 0 -133 64 -133 158c0 152 80 277 201 277zM276 743c-58 0 -100 -92 -100 -196c0 -51 16 -83 54 -83c58 0 100 94 100 195c0 52 -17 84 -54 84z" />
    <glyph glyph-name="one.sups" unicode="&#xb9;" horiz-adv-x="262" 
d="M314 821l-79 -427h-89l54 287l-69 -35l-27 77l208 98h2z" />
    <glyph glyph-name="two.sups" unicode="&#xb2;" horiz-adv-x="344" 
d="M268 821c81 0 128 -46 128 -111c0 -52 -29 -92 -69 -135l-97 -103h127l-14 -78h-280l1 4l192 217c27 28 50 53 50 85c0 25 -19 42 -46 42c-36 0 -59 -20 -73 -61l-80 18c26 78 80 122 161 122z" />
    <glyph glyph-name="three.sups" unicode="&#xb3;" horiz-adv-x="339" 
d="M272 821c76 0 119 -47 119 -109c0 -48 -26 -86 -67 -107c27 -13 44 -36 44 -72c0 -83 -78 -147 -167 -147c-83 0 -127 36 -131 115l80 18c2 -35 19 -54 56 -54c40 0 73 30 73 68c0 25 -19 44 -52 44h-46l12 67h47c33 0 63 25 63 58c0 26 -19 40 -45 40
c-30 0 -54 -17 -67 -48l-75 34c27 56 82 93 156 93z" />
    <glyph glyph-name="four.sups" unicode="&#x2074;" horiz-adv-x="371" 
d="M407 819l-56 -302h50l-12 -66h-49l-12 -57h-88l11 57h-208v2l361 366h3zM288 614l-99 -99h80z" />
    <glyph glyph-name="five.sups" unicode="&#x2075;" horiz-adv-x="352" 
d="M401 813l-14 -78h-158l-16 -83c9 4 21 7 38 7c73 0 125 -42 125 -114c0 -89 -74 -159 -173 -159c-76 0 -120 33 -131 96l77 35c4 -34 25 -52 63 -52c41 0 75 33 75 72c0 30 -21 49 -56 49c-28 0 -49 -10 -61 -20l-56 25l40 222h247z" />
    <glyph glyph-name="six.sups" unicode="&#x2076;" horiz-adv-x="361" 
d="M399 813l-126 -146c67 -8 111 -57 111 -120c0 -88 -81 -160 -180 -160c-77 0 -128 52 -128 122c0 43 20 82 52 111l165 193h106zM244 595c-45 0 -80 -37 -80 -80c0 -32 21 -53 53 -53c44 0 80 37 80 80c0 31 -21 53 -53 53z" />
    <glyph glyph-name="seven.sups" unicode="&#x2077;" horiz-adv-x="354" 
d="M448 813v-4l-285 -415h-99l234 337h-177l14 82h313z" />
    <glyph glyph-name="eight.sups" unicode="&#x2078;" horiz-adv-x="361" 
d="M284 821c67 0 117 -41 117 -99c0 -46 -31 -83 -69 -106c28 -16 51 -45 51 -88c0 -83 -82 -142 -174 -142c-74 0 -134 39 -134 110c0 63 44 102 87 122c-20 15 -34 38 -34 72c0 73 75 131 156 131zM239 581c-43 0 -80 -32 -80 -72c0 -31 21 -54 58 -54c47 0 81 31 81 72
c0 31 -25 54 -59 54zM275 752c-37 0 -69 -27 -69 -61c0 -26 18 -46 48 -46c37 0 68 30 68 64c0 25 -19 43 -47 43z" />
    <glyph glyph-name="nine.sups" unicode="&#x2079;" horiz-adv-x="361" 
d="M290 820c77 0 128 -52 128 -122c0 -46 -22 -88 -58 -117l-159 -187h-106l125 146c-67 7 -110 56 -110 120c0 88 81 160 180 160zM278 745c-45 0 -80 -37 -80 -80c0 -31 21 -53 53 -53c45 0 80 37 80 80c0 32 -21 53 -53 53z" />
    <glyph glyph-name="zero.subs" horiz-adv-x="382" 
d="M208 327c84 0 131 -65 131 -158c0 -155 -84 -277 -199 -277c-85 0 -133 64 -133 158c0 152 80 277 201 277zM197 249c-58 0 -100 -92 -100 -196c0 -51 16 -83 54 -83c58 0 100 94 100 195c0 52 -17 84 -54 84z" />
    <glyph glyph-name="one.subs" horiz-adv-x="262" 
d="M243 327l-79 -427h-89l54 287l-69 -35l-27 77l208 98h2z" />
    <glyph glyph-name="two.subs" horiz-adv-x="344" 
d="M190 327c81 0 128 -46 128 -111c0 -52 -29 -92 -69 -135l-97 -103h127l-14 -78h-280l1 4l192 217c27 28 50 53 50 85c0 25 -19 42 -46 42c-36 0 -59 -20 -73 -61l-80 18c26 78 80 122 161 122z" />
    <glyph glyph-name="three.subs" horiz-adv-x="339" 
d="M195 327c76 0 119 -47 119 -109c0 -48 -26 -86 -67 -107c27 -13 44 -36 44 -72c0 -83 -78 -147 -167 -147c-83 0 -127 36 -131 115l80 18c2 -35 19 -54 56 -54c40 0 73 30 73 68c0 25 -19 44 -52 44h-46l12 67h47c33 0 63 25 63 58c0 26 -19 40 -45 40
c-30 0 -54 -17 -67 -48l-75 34c27 56 82 93 156 93z" />
    <glyph glyph-name="four.subs" horiz-adv-x="371" 
d="M327 325l-56 -302h50l-12 -66h-49l-12 -57h-88l11 57h-208v2l361 366h3zM208 120l-99 -99h80z" />
    <glyph glyph-name="five.subs" horiz-adv-x="352" 
d="M324 319l-14 -78h-158l-16 -83c9 4 21 7 38 7c73 0 125 -42 125 -114c0 -89 -74 -159 -173 -159c-76 0 -120 33 -131 96l77 35c4 -34 25 -52 63 -52c41 0 75 33 75 72c0 30 -21 49 -56 49c-28 0 -49 -10 -61 -20l-56 25l40 222h247z" />
    <glyph glyph-name="six.subs" horiz-adv-x="361" 
d="M320 319l-126 -146c67 -8 111 -57 111 -120c0 -88 -81 -160 -180 -160c-77 0 -128 52 -128 122c0 43 20 82 52 111l165 193h106zM165 101c-45 0 -80 -37 -80 -80c0 -32 21 -53 53 -53c44 0 80 37 80 80c0 31 -21 53 -53 53z" />
    <glyph glyph-name="seven.subs" horiz-adv-x="354" 
d="M368 319v-4l-285 -415h-99l234 337h-177l14 82h313z" />
    <glyph glyph-name="eight.subs" horiz-adv-x="361" 
d="M207 327c67 0 117 -41 117 -99c0 -46 -31 -83 -69 -106c28 -16 51 -45 51 -88c0 -83 -82 -142 -174 -142c-74 0 -134 39 -134 110c0 63 44 102 87 122c-20 15 -34 38 -34 72c0 73 75 131 156 131zM162 87c-43 0 -80 -32 -80 -72c0 -31 21 -54 58 -54c47 0 81 31 81 72
c0 31 -25 54 -59 54zM198 258c-37 0 -69 -27 -69 -61c0 -26 18 -46 48 -46c37 0 68 30 68 64c0 25 -19 43 -47 43z" />
    <glyph glyph-name="nine.subs" horiz-adv-x="361" 
d="M207 326c77 0 128 -52 128 -122c0 -46 -22 -88 -58 -117l-159 -187h-106l125 146c-67 7 -110 56 -110 120c0 88 81 160 180 160zM195 251c-45 0 -80 -37 -80 -80c0 -31 21 -53 53 -53c45 0 80 37 80 80c0 32 -21 53 -53 53z" />
    <glyph glyph-name="onehalf" unicode="&#xbd;" horiz-adv-x="835" 
d="M696 734l-491 -734h-112l493 734h110zM281 721l-79 -427h-89l54 287l-69 -35l-27 77l208 98h2zM700 427c81 0 128 -46 128 -111c0 -52 -29 -92 -69 -135l-97 -103h127l-14 -78h-280l1 4l192 217c27 28 50 53 50 85c0 25 -19 42 -46 42c-36 0 -59 -20 -73 -61l-80 18
c26 78 80 122 161 122z" />
    <glyph glyph-name="onequarter" unicode="&#xbc;" horiz-adv-x="759" 
d="M698 734l-491 -734h-112l493 734h110zM282 721l-79 -427h-89l54 287l-69 -35l-27 77l208 98h2zM738 425l-56 -302h50l-12 -66h-49l-12 -57h-88l11 57h-208v2l361 366h3zM619 220l-99 -99h80z" />
    <glyph glyph-name="threequarters" unicode="&#xbe;" horiz-adv-x="836" 
d="M776 734l-491 -734h-112l493 734h110zM816 425l-56 -302h50l-12 -66h-49l-12 -57h-88l11 57h-208v2l361 366h3zM697 220l-99 -99h80zM245 721c76 0 119 -47 119 -109c0 -48 -26 -86 -67 -107c27 -13 44 -36 44 -72c0 -83 -78 -147 -167 -147c-83 0 -127 36 -131 115
l80 18c2 -35 19 -54 56 -54c40 0 73 30 73 68c0 25 -19 44 -52 44h-46l12 67h47c33 0 63 25 63 58c0 26 -19 40 -45 40c-30 0 -54 -17 -67 -48l-75 34c27 56 82 93 156 93z" />
    <glyph glyph-name="zero.lnum" 
d="M358 640c-119 0 -195 -198 -195 -386c0 -99 32 -159 106 -159c118 0 194 198 194 385c0 100 -32 160 -105 160zM373 748c140 0 211 -106 211 -270c0 -290 -144 -491 -330 -491c-140 0 -211 106 -211 270c0 289 143 491 330 491z" />
    <glyph glyph-name="one.lnum" 
d="M498 748l-112 -637h131l-18 -111h-393l18 111h141l77 431l-165 -91l-47 103l364 194h4z" />
    <glyph glyph-name="two.lnum" 
d="M368 748c138 0 217 -93 193 -225c-15 -88 -59 -147 -127 -220l-182 -194h243l-18 -109h-453l1 6l319 361c58 66 84 100 94 159c14 71 -26 113 -88 113c-67 0 -112 -38 -140 -117l-105 26c50 133 138 200 263 200z" />
    <glyph glyph-name="three.lnum" 
d="M380 748c121 0 192 -81 192 -186c0 -83 -44 -148 -123 -189c52 -23 84 -78 84 -145c0 -143 -120 -241 -262 -241c-143 0 -206 68 -223 193l111 27c10 -69 40 -112 115 -112c72 0 139 60 139 141c0 59 -40 97 -106 97h-79l17 94h81c65 0 125 54 125 125
c0 55 -36 88 -89 88c-59 0 -101 -37 -131 -99l-102 47c50 97 137 160 251 160z" />
    <glyph glyph-name="four.lnum" 
d="M555 743l-92 -519h93l-18 -100h-92l-22 -124h-121l22 124h-332l1 4l556 615h5zM386 426l-187 -204h146z" />
    <glyph glyph-name="five.lnum" 
d="M573 735l-19 -108h-276l-34 -189c23 11 52 19 86 19c120 0 201 -75 201 -193c0 -154 -112 -277 -276 -277c-127 0 -193 61 -218 162l103 46c12 -59 49 -100 119 -100c81 0 151 73 151 157c0 63 -33 105 -100 105c-58 0 -100 -21 -128 -42l-74 34l67 386h398z" />
    <glyph glyph-name="six.lnum" 
d="M546 735l-214 -259c129 -1 222 -97 206 -229c-16 -143 -143 -260 -290 -260c-130 0 -221 95 -207 228c7 64 36 123 80 169l287 351h138zM314 368c-76 0 -144 -67 -150 -153c-6 -73 37 -121 101 -121c76 0 144 67 150 153c7 73 -37 121 -101 121z" />
    <glyph glyph-name="seven.lnum" 
d="M646 735l-1 -6l-484 -729h-137l423 624h-328l20 111h507z" />
    <glyph glyph-name="eight.lnum" 
d="M377 748c112 0 191 -71 189 -172c0 -82 -50 -148 -112 -187c41 -27 83 -76 83 -153c0 -140 -130 -249 -284 -249c-117 0 -215 68 -215 191c0 107 73 177 148 216c-34 26 -58 69 -58 127c0 128 120 227 249 227zM307 334c-73 0 -147 -60 -147 -140c0 -61 42 -106 104 -106
c75 0 150 60 150 142c0 60 -43 104 -107 104zM364 647c-64 0 -125 -54 -125 -124c0 -53 35 -91 87 -91c64 0 126 56 126 125c0 53 -34 90 -88 90z" />
    <glyph glyph-name="nine.lnum" 
d="M380 748c130 0 221 -95 206 -228c-7 -61 -33 -117 -73 -161l-294 -359h-137l213 259c-131 0 -221 96 -205 229c15 143 143 260 290 260zM363 641c-77 0 -145 -67 -151 -153c-6 -73 37 -121 102 -121c76 0 143 67 149 153c6 73 -36 121 -100 121z" />
    <glyph glyph-name="zero.tnum" horiz-adv-x="593" 
d="M354 570c143 0 232 -110 214 -264c-18 -178 -152 -316 -315 -316c-143 0 -231 110 -213 264c17 178 151 316 314 316zM337 464c-91 0 -167 -91 -176 -210c-8 -95 36 -158 109 -158c91 0 168 91 177 210c8 95 -36 158 -110 158z" />
    <glyph glyph-name="one.tnum" horiz-adv-x="385" 
d="M366 570l-101 -570h-121l66 372l-137 -84l-31 111l320 171h4z" />
    <glyph glyph-name="two.tnum" horiz-adv-x="532" 
d="M304 570c120 0 192 -79 192 -173c0 -97 -51 -149 -126 -211l-93 -78h186l-19 -108h-435l1 6l248 218c66 58 113 95 113 160c0 49 -33 78 -84 78c-49 0 -83 -25 -111 -72l-93 50c46 75 116 130 221 130z" />
    <glyph glyph-name="three.tnum" horiz-adv-x="524" 
d="M316 570c122 0 192 -79 192 -181c0 -81 -43 -144 -123 -183c52 -22 84 -76 84 -141c0 -138 -120 -234 -261 -234c-144 0 -206 66 -223 188l110 26c10 -66 40 -108 114 -108c73 0 140 57 140 136c0 57 -40 94 -106 94h-79l17 92h80c66 0 126 52 126 121
c0 53 -36 84 -89 84c-59 0 -101 -35 -130 -96l-103 46c50 94 137 156 251 156z" />
    <glyph glyph-name="four.tnum" horiz-adv-x="567" 
d="M515 570l-91 -503h93l-18 -97h-92l-22 -121h-121l22 121h-332l1 4l555 596h5zM348 264l-188 -199h147z" />
    <glyph glyph-name="five.tnum" horiz-adv-x="542" 
d="M520 560l-18 -105h-276l-34 -183c22 10 49 19 84 19c120 0 202 -71 202 -188c0 -150 -111 -270 -276 -270c-126 0 -192 60 -218 158l104 44c11 -57 48 -96 119 -96c81 0 150 71 150 152c0 64 -33 102 -102 102c-55 0 -97 -21 -126 -41l-74 33l68 375h397z" />
    <glyph glyph-name="six.tnum" horiz-adv-x="554" 
d="M308 462c125 0 209 -87 209 -204c0 -148 -132 -271 -292 -271c-126 0 -209 87 -209 202c0 71 31 138 81 187l287 337h137l-216 -251h3zM290 357c-79 0 -150 -74 -150 -160c0 -63 42 -106 102 -106c79 0 151 75 151 161c0 62 -42 105 -103 105z" />
    <glyph glyph-name="seven.tnum" horiz-adv-x="542" 
d="M591 560l-1 -6l-486 -707h-131l419 605h-327l19 108h507z" />
    <glyph glyph-name="eight.tnum" horiz-adv-x="554" 
d="M359 726c110 0 189 -68 188 -166c0 -81 -49 -144 -112 -183c40 -25 84 -74 84 -148c0 -135 -130 -242 -286 -242c-116 0 -214 67 -214 186c0 103 74 173 148 210c-35 25 -58 66 -58 123c0 124 119 220 250 220zM288 324c-73 0 -148 -58 -148 -135c0 -60 42 -103 105 -103
c76 0 150 57 150 137c0 59 -44 101 -107 101zM345 627c-65 0 -124 -51 -124 -120c0 -51 33 -88 87 -88c63 0 125 54 125 121c0 52 -34 87 -88 87z" />
    <glyph glyph-name="nine.tnum" horiz-adv-x="554" 
d="M334 570c126 0 210 -87 210 -202c0 -72 -31 -138 -82 -188l-287 -336h-137l214 251c-127 0 -210 87 -210 204c0 148 132 271 292 271zM317 466c-79 0 -151 -75 -151 -161c0 -62 43 -105 104 -105c79 0 150 74 150 160c0 63 -43 106 -103 106z" />
    <glyph glyph-name="a.sups" horiz-adv-x="434" 
d="M278 664c-56 0 -104 -49 -104 -121c0 -49 27 -78 67 -78c41 0 69 24 89 49l19 116c-13 18 -33 34 -71 34zM267 750c55 0 85 -21 100 -46l12 39h87l-62 -355h-87l2 38c-22 -23 -60 -45 -110 -45c-81 0 -133 68 -133 150c0 120 83 219 191 219z" />
    <glyph glyph-name="b.sups" horiz-adv-x="434" 
d="M266 920l-38 -209c23 20 59 39 104 39c81 0 133 -68 133 -150c0 -120 -83 -219 -191 -219c-55 0 -85 20 -100 45l-12 -38h-86l93 532h97zM300 665c-41 0 -69 -24 -89 -48l-19 -116c13 -19 33 -35 71 -35c56 0 104 50 104 121c0 49 -27 78 -67 78z" />
    <glyph glyph-name="c.sups" horiz-adv-x="372" 
d="M291 750c70 0 113 -32 137 -83l-75 -48c-13 27 -38 46 -74 46c-62 0 -105 -58 -105 -123c0 -45 24 -77 73 -77c40 0 68 23 87 49l68 -59c-40 -51 -97 -74 -159 -74c-104 0 -167 66 -167 157c0 114 92 212 215 212z" />
    <glyph glyph-name="d.sups" horiz-adv-x="434" 
d="M497 920l-94 -532h-87l3 38c-22 -23 -60 -45 -110 -45c-81 0 -133 68 -133 150c0 120 83 219 191 219c51 0 79 -18 95 -40l38 210h97zM278 664c-56 0 -104 -49 -104 -121c0 -49 27 -78 67 -78c41 0 69 24 89 49l19 116c-13 18 -33 34 -71 34z" />
    <glyph glyph-name="e.sups" horiz-adv-x="396" 
d="M284 750c116 0 155 -89 140 -180l-5 -31h-250c-3 -47 21 -79 76 -79c37 0 70 18 90 39l61 -58c-41 -38 -96 -60 -158 -60c-104 0 -162 68 -162 154c0 117 85 215 208 215zM275 681c-48 0 -85 -30 -94 -79h156c5 46 -14 79 -62 79z" />
    <glyph glyph-name="f.sups" horiz-adv-x="280" 
d="M327 920c37 0 65 -11 82 -26l-46 -74c-8 7 -20 16 -39 16c-29 0 -48 -20 -55 -54l-7 -39h84l-16 -82h-82l-47 -273h-98l48 273h-63l15 82h62l8 40c13 82 64 137 154 137z" />
    <glyph glyph-name="g.sups" horiz-adv-x="435" 
d="M279 664c-56 0 -102 -46 -102 -117c0 -47 25 -72 66 -72c40 0 70 22 89 47l19 108c-13 18 -34 34 -72 34zM269 750c55 0 85 -21 100 -46l11 39h87l-63 -354c-18 -109 -101 -169 -208 -169c-82 0 -135 33 -167 78l69 60c21 -31 51 -54 100 -54c58 0 100 41 111 95l5 29
c-22 -21 -59 -38 -106 -38c-82 0 -130 65 -130 146c0 120 84 214 191 214z" />
    <glyph glyph-name="h.sups" horiz-adv-x="427" 
d="M264 920l-36 -208c22 21 58 38 98 38c87 0 128 -66 112 -157l-37 -205h-97l36 200c7 45 -11 70 -46 70c-37 0 -63 -22 -83 -46l-40 -224h-95l92 532h96z" />
    <glyph glyph-name="i.sups" horiz-adv-x="204" 
d="M234 743l-63 -355h-95l61 355h97zM214 913c32 0 51 -21 50 -51c-1 -36 -33 -66 -68 -66c-31 0 -49 20 -49 50c1 36 31 67 67 67z" />
    <glyph glyph-name="j.sups" horiz-adv-x="211" 
d="M240 743l-67 -379c-17 -99 -81 -144 -188 -144l13 84c39 0 70 20 77 54l68 385h97zM221 913c31 0 50 -21 49 -51c-1 -36 -33 -66 -67 -66c-33 0 -51 20 -49 50c0 36 31 67 67 67z" />
    <glyph glyph-name="k.sups" horiz-adv-x="411" 
d="M264 920l-61 -354l149 177h122l-134 -148l83 -207h-109l-53 123l-110 -123h-75l92 532h96z" />
    <glyph glyph-name="l.sups" horiz-adv-x="204" 
d="M264 920l-93 -532h-95l92 532h96z" />
    <glyph glyph-name="m.sups" horiz-adv-x="646" 
d="M548 750c89 0 125 -73 110 -160l-36 -202h-97l35 200c8 45 -10 70 -45 70c-32 0 -59 -19 -79 -41c0 -5 -1 -10 -2 -15l-37 -214h-97l36 200c7 45 -8 70 -44 70c-35 0 -60 -22 -80 -44l-40 -226h-96l62 355h84v-40c20 24 56 47 103 47c53 0 84 -29 98 -60
c27 30 73 60 125 60z" />
    <glyph glyph-name="n.sups" unicode="&#x207f;" horiz-adv-x="427" 
d="M325 750c91 0 128 -73 113 -157l-36 -205h-97l35 200c8 45 -11 70 -43 70c-39 0 -63 -21 -85 -44l-40 -226h-96l62 355h87l-2 -38c20 23 58 45 102 45z" />
    <glyph glyph-name="o.sups" horiz-adv-x="421" 
d="M282 664c-59 0 -108 -56 -108 -120c0 -46 29 -79 72 -79c58 0 107 56 107 122c0 46 -28 77 -71 77zM296 750c95 0 156 -67 156 -157c0 -115 -97 -212 -220 -212c-95 0 -157 66 -157 156c0 115 97 213 221 213z" />
    <glyph glyph-name="p.sups" horiz-adv-x="434" 
d="M332 750c81 0 133 -68 133 -150c0 -120 -83 -219 -191 -219c-51 0 -79 17 -95 39l-36 -193h-95l90 516h87l-3 -39c22 23 60 46 110 46zM300 665c-41 0 -69 -24 -89 -48l-19 -116c13 -19 33 -35 71 -35c56 0 104 50 104 121c0 49 -27 78 -67 78z" />
    <glyph glyph-name="q.sups" horiz-adv-x="434" 
d="M266 750c56 0 86 -21 101 -46l13 39h87l-92 -516h-96l33 193c-23 -20 -59 -39 -103 -39c-82 0 -134 68 -134 150c0 120 83 219 191 219zM277 664c-56 0 -104 -49 -104 -121c0 -49 27 -78 67 -78c41 0 69 24 89 49l19 116c-13 18 -33 34 -71 34z" />
    <glyph glyph-name="r.sups" horiz-adv-x="264" 
d="M335 750l-18 -97h-9c-42 0 -73 -26 -98 -53l-38 -212h-96l62 355h87l-4 -48c22 29 63 55 114 55z" />
    <glyph glyph-name="s.sups" horiz-adv-x="339" 
d="M256 750c56 0 101 -18 126 -42l-48 -68c-17 17 -43 30 -82 30c-34 0 -53 -13 -53 -33c0 -19 15 -26 57 -38c69 -18 97 -50 97 -96c0 -73 -70 -122 -163 -122c-60 0 -107 21 -134 47l48 67c21 -20 52 -35 91 -35s60 10 60 34c0 20 -17 29 -58 40c-64 17 -96 47 -96 95
c0 80 73 121 155 121z" />
    <glyph glyph-name="t.sups" horiz-adv-x="302" 
d="M271 860l-20 -117h103l-15 -82h-102l-25 -140c-6 -34 10 -53 39 -53c24 0 41 5 51 11l10 -79c-17 -11 -40 -19 -79 -19c-77 0 -134 51 -118 143l25 137h-65l15 82h64l21 117h96z" />
    <glyph glyph-name="u.sups" horiz-adv-x="423" 
d="M454 743l-62 -355h-87l3 37c-22 -25 -59 -44 -110 -44c-81 0 -120 62 -104 156l37 206h97l-36 -204c-7 -42 10 -66 44 -66c37 0 61 20 82 43l39 227h97z" />
    <glyph glyph-name="v.sups" horiz-adv-x="408" 
d="M479 743l-256 -362h-3l-128 362h103l55 -180l118 180h111z" />
    <glyph glyph-name="w.sups" horiz-adv-x="551" 
d="M621 743l-232 -362h-2l-62 181l-127 -181h-3l-103 362h102l38 -170l119 170h3l55 -170l100 170h112z" />
    <glyph glyph-name="x.sups" horiz-adv-x="379" 
d="M448 743l-143 -179l85 -176h-109l-52 109l-81 -109h-119l150 185l-82 170h110l45 -106l79 106h117z" />
    <glyph glyph-name="y.sups" horiz-adv-x="413" 
d="M493 743l-363 -516h-111l180 248l-95 268h104l55 -181l118 181h112z" />
    <glyph glyph-name="z.sups" horiz-adv-x="342" 
d="M407 743v-3l-202 -270h153l-15 -82h-297v3l200 269h-144l15 83h290z" />
    <glyph glyph-name="ordfeminine" unicode="&#xaa;" horiz-adv-x="434" 
d="M270 750c55 0 85 -21 100 -46l12 39h87l-62 -355h-88l3 38c-23 -23 -60 -45 -110 -45c-85 0 -138 72 -133 159c5 120 90 210 191 210zM280 664c-55 0 -101 -48 -103 -117c-2 -51 25 -82 67 -82c40 0 69 24 88 49l19 114c-12 20 -32 36 -71 36z" />
    <glyph glyph-name="ordmasculine" unicode="&#xba;" horiz-adv-x="421" 
d="M292 750c107 0 172 -80 153 -185c-18 -107 -111 -184 -217 -184c-108 0 -174 77 -155 184c19 105 111 185 219 185zM277 664c-51 0 -95 -42 -105 -99s19 -100 70 -100s95 43 105 100c11 57 -20 99 -70 99z" />
    <glyph glyph-name="Dcroat" unicode="&#x110;" horiz-adv-x="752" 
d="M386 735c220 0 355 -120 355 -314c0 -253 -193 -421 -468 -421h-227l59 337h-86l14 82h86l56 316h211zM379 620h-99l-36 -201h107l-14 -82h-107l-39 -222h98c184 -3 325 118 325 306c0 127 -79 199 -235 199z" />
    <glyph glyph-name="Eth" unicode="&#xd0;" horiz-adv-x="752" 
d="M386 735c220 0 355 -120 355 -314c0 -253 -193 -421 -468 -421h-227l59 337h-86l14 82h86l56 316h211zM379 620h-99l-36 -201h107l-14 -82h-107l-39 -222h98c184 -3 325 118 325 306c0 127 -79 199 -235 199z" />
    <glyph glyph-name="Eng" unicode="&#x14a;" horiz-adv-x="733" 
d="M735 735l-132 -748h-1c-24 -137 -134 -227 -274 -227l20 117c69 0 118 45 131 119l21 120l-264 350l-82 -466h-125l132 748h4l363 -480l35 195l47 272h125z" />
    <glyph glyph-name="Aringacute" unicode="&#x1fa;" horiz-adv-x="710" 
d="M439 748l214 -748h-130l-36 133h-301l-83 -133h-143l475 748h4zM679 1074l-142 -97c24 -18 38 -47 38 -79c0 -76 -64 -129 -134 -129c-61 0 -101 45 -101 100c0 49 27 89 66 111l116 94h157zM398 486l-150 -250h214zM464 932c-27 0 -56 -23 -56 -56c0 -24 16 -41 42 -41
s55 22 55 55c0 25 -16 42 -41 42z" />
    <glyph glyph-name="Oslash" unicode="&#xd8;" horiz-adv-x="810" 
d="M488 748c47 0 90 -8 127 -23l66 90h116l-101 -140c66 -57 104 -145 104 -249c0 -233 -199 -439 -446 -439c-51 0 -97 10 -137 27l-68 -94h-117l106 146c-62 58 -96 143 -96 243c0 233 199 439 446 439zM673 421c0 62 -18 115 -52 151l-330 -456c24 -9 52 -14 82 -14
c166 0 300 151 300 319zM469 633c-166 0 -300 -151 -300 -319c0 -58 16 -107 45 -143l327 451c-22 7 -46 11 -72 11z" />
    <glyph glyph-name="Oslashacute" unicode="&#x1fe;" horiz-adv-x="810" 
d="M488 748c47 0 90 -8 127 -23l66 90h116l-101 -140c66 -57 104 -145 104 -249c0 -233 -199 -439 -446 -439c-51 0 -97 10 -137 27l-68 -94h-117l106 146c-62 58 -96 143 -96 243c0 233 199 439 446 439zM673 421c0 62 -18 115 -52 151l-330 -456c24 -9 52 -14 82 -14
c166 0 300 151 300 319zM469 633c-166 0 -300 -151 -300 -319c0 -58 16 -107 45 -143l327 451c-22 7 -46 11 -72 11zM710 899l-171 -117h-130l144 117h157z" />
    <glyph glyph-name="Ldot" unicode="&#x13f;" horiz-adv-x="545" 
d="M283 735l-110 -624h333l-19 -111h-458l129 735h125zM452 423c44 0 71 -33 64 -77c-8 -43 -46 -76 -91 -76c-44 0 -70 33 -62 76c7 44 45 77 89 77z" />
    <glyph glyph-name="Tbar" unicode="&#x166;" horiz-adv-x="655" 
d="M714 735l-18 -111h-250l-41 -233h145l-14 -82h-145l-54 -309h-125l54 309h-145l14 82h146l41 233h-249l19 111h622z" />
    <glyph glyph-name="Lslash" unicode="&#x141;" horiz-adv-x="574" 
d="M311 735l-59 -335l110 46l18 -88l-146 -61l-33 -186h333l-19 -111h-458l42 240l-75 -31l-17 89l110 46l69 391h125z" />
    <glyph glyph-name="Hbar" unicode="&#x126;" horiz-adv-x="766" 
d="M755 735l-22 -122h80l-14 -82h-80l-93 -531h-124l54 313h-334l-55 -313h-125l93 531h-78l14 82h78l22 122h125l-22 -122h335l22 122h124zM241 422h334l19 109h-334z" />
    <glyph glyph-name="hbar" unicode="&#x127;" horiz-adv-x="602" 
d="M291 760l-17 -96h115l-15 -83h-115l-22 -128c30 30 80 61 149 61c127 0 180 -101 156 -230l-50 -284h-120l50 288c12 67 -11 113 -69 113c-65 0 -106 -35 -138 -75l-58 -326h-120l102 581h-84l14 83h85l17 96h120z" />
    <glyph glyph-name="tbar" unicode="&#x167;" horiz-adv-x="410" 
d="M294 673l-30 -169h152l-15 -81h-152l-17 -95h153l-14 -81h-153l-11 -66c-10 -56 19 -83 68 -83c30 0 53 7 72 17l7 -100c-26 -15 -61 -25 -111 -25c-105 0 -177 74 -156 195l10 62h-93l14 81h93l17 95h-95l16 81h95l29 169h121z" />
    <glyph glyph-name="tcommaaccent" unicode="&#x163;" horiz-adv-x="410" 
d="M291 673l-30 -169h152l-19 -102h-152l-37 -221c-10 -53 14 -83 63 -83c29 0 53 7 71 16l16 -99c-24 -14 -67 -25 -115 -25c-105 0 -177 74 -156 195l38 217h-95l19 102h95l29 169h121zM159 -51c42 0 68 -27 66 -66c-1 -24 -10 -46 -24 -60l-114 -138h-4l46 259
c10 3 19 5 30 5z" />
    <glyph glyph-name="tcaron" unicode="&#x165;" horiz-adv-x="582" 
d="M291 673l-30 -169h152l-19 -102h-152l-37 -221c-10 -53 14 -83 63 -83c29 0 53 7 71 16l16 -99c-24 -14 -67 -25 -115 -25c-105 0 -177 74 -156 195l38 217h-95l19 102h95l29 169h121zM551 755c42 0 68 -28 68 -67c-1 -25 -14 -44 -26 -60l-119 -167h-4l51 289
c10 4 20 5 30 5z" />
    <glyph glyph-name="oslash" unicode="&#xf8;" horiz-adv-x="581" 
d="M335 514c33 0 63 -6 90 -16l55 76h83l-80 -111c46 -40 73 -101 73 -171c0 -165 -139 -302 -311 -302c-33 0 -64 6 -90 16l-55 -76h-82l79 111c-46 40 -73 100 -73 171c0 165 139 302 311 302zM318 415c-96 0 -180 -91 -180 -198c0 -33 9 -62 26 -84l197 275
c-13 5 -28 7 -43 7zM441 287c0 32 -9 60 -26 82l-196 -274c13 -4 27 -6 42 -6c96 0 180 92 180 198z" />
    <glyph glyph-name="oslashacute" unicode="&#x1ff;" horiz-adv-x="581" 
d="M335 514c33 0 63 -6 90 -16l55 76h83l-80 -111c46 -40 73 -101 73 -171c0 -165 -139 -302 -311 -302c-33 0 -64 6 -90 16l-55 -76h-82l79 111c-46 40 -73 100 -73 171c0 165 139 302 311 302zM318 415c-96 0 -180 -91 -180 -198c0 -33 9 -62 26 -84l197 275
c-13 5 -28 7 -43 7zM441 287c0 32 -9 60 -26 82l-196 -274c13 -4 27 -6 42 -6c96 0 180 92 180 198zM569 712l-185 -137h-116l153 137h148z" />
    <glyph glyph-name="aringacute" unicode="&#x1fb;" 
d="M304 514c77 0 125 -37 143 -69l15 59h109l-89 -504h-108l6 56c-33 -37 -87 -66 -164 -66c-124 0 -191 96 -191 221c0 154 106 303 279 303zM309 408c-95 0 -162 -92 -162 -188c0 -76 39 -124 100 -124c72 0 114 41 146 78l31 172c-21 36 -53 62 -115 62zM586 873
l-145 -100c25 -18 40 -47 40 -81c0 -75 -63 -127 -133 -127c-61 0 -102 44 -102 99c0 37 15 69 40 92h-1l144 117h157zM371 727c-28 0 -56 -23 -56 -56c0 -24 16 -41 41 -41c27 0 55 22 55 56c0 24 -15 41 -40 41z" />
    <glyph glyph-name="ldot" unicode="&#x140;" horiz-adv-x="468" 
d="M280 760l-135 -760h-120l134 760h121zM382 333c44 0 71 -33 64 -77c-8 -43 -46 -76 -91 -76c-44 0 -70 33 -62 76c7 44 45 77 89 77z" />
    <glyph glyph-name="dcaron" unicode="&#x10f;" horiz-adv-x="772" 
d="M616 760l-134 -760h-108l7 56c-34 -37 -88 -66 -165 -66c-124 0 -191 96 -191 221c0 154 106 303 279 303c70 0 117 -31 138 -61l54 307h120zM309 408c-95 0 -162 -92 -162 -188c0 -76 39 -124 100 -124c72 0 114 41 146 78l31 172c-21 36 -53 62 -115 62zM720 755
c42 0 68 -28 68 -67c-1 -25 -14 -44 -26 -60l-119 -167h-4l51 289c10 4 20 5 30 5z" />
    <glyph glyph-name="dcroat" unicode="&#x111;" horiz-adv-x="612" 
d="M616 760l-17 -96h73l-15 -83h-73l-102 -581h-108l7 56c-34 -37 -88 -66 -165 -66c-124 0 -191 96 -191 221c0 154 106 303 279 303c70 0 117 -31 138 -61l22 128h-127l15 83h127l17 96h120zM309 408c-95 0 -162 -92 -162 -188c0 -76 39 -124 100 -124c72 0 114 41 146 78
l31 172c-21 36 -53 62 -115 62z" />
    <glyph glyph-name="hcircumflex" unicode="&#x125;" horiz-adv-x="589" 
d="M279 760l-54 -307c30 30 80 61 149 61c127 0 180 -101 156 -230l-50 -284h-120l50 288c12 67 -11 113 -69 113c-65 0 -106 -35 -138 -75l-58 -326h-120l134 760h120zM251 933l140 -150h-94l-56 56l-73 -56h-109z" />
    <glyph glyph-name="lcaron" unicode="&#x13e;" horiz-adv-x="439" 
d="M280 760l-135 -760h-120l134 760h121zM404 755c42 0 68 -28 68 -67c-1 -25 -14 -44 -26 -60l-119 -167h-4l51 289c10 4 20 5 30 5z" />
    <glyph glyph-name="eth" unicode="&#xf0;" horiz-adv-x="580" 
d="M328 486h8l-38 76h-182l16 89h122l-55 109h130l54 -109h187l-16 -89h-126l88 -177c18 -32 28 -69 28 -109c0 -156 -135 -286 -303 -286c-133 0 -217 90 -217 210c0 156 136 286 304 286zM311 386c-92 0 -165 -85 -165 -179c0 -68 42 -117 111 -117c92 0 166 85 166 179
c0 69 -42 117 -112 117z" />
    <glyph glyph-name="lslash" unicode="&#x142;" horiz-adv-x="292" 
d="M275 760l-61 -345l82 35l17 -75l-115 -50l-58 -325h-120l47 269l-71 -30l-18 75l105 45l71 401h121z" />
    <glyph glyph-name="Lcaron" unicode="&#x13d;" horiz-adv-x="545" 
d="M283 735l-110 -624h333l-19 -111h-458l129 735h125zM505 755c42 0 68 -28 68 -67c-1 -25 -14 -44 -26 -60l-119 -167h-4l51 289c10 4 20 5 30 5z" />
    <glyph glyph-name="G.smcp_I.smcp" horiz-adv-x="679" 
d="M394 782c159 0 258 -113 258 -265c0 -195 -159 -367 -368 -367c-159 0 -257 112 -257 264c0 195 159 368 367 368zM383 714c-155 0 -285 -139 -285 -292c0 -127 74 -205 198 -205c154 0 283 138 283 292c0 127 -73 205 -196 205z" />
    <glyph glyph-name="zero.slash" horiz-adv-x="592" 
d="M373 748c140 0 211 -106 211 -270c0 -258 -126 -491 -330 -491c-140 0 -211 106 -211 270c0 257 126 491 330 491zM362 647c-137 0 -199 -233 -199 -393c0 -9 0 -18 1 -26l273 377c-17 27 -41 42 -75 42zM464 480c0 9 -1 17 -1 26l-274 -377c17 -27 42 -41 76 -41
c137 0 199 232 199 392z" />
    <glyph glyph-name="Eogonek" unicode="&#x118;" horiz-adv-x="584" 
d="M622 735l-20 -115h-339l-34 -193h296l-20 -109h-296l-35 -203h347l-20 -115h-44c-33 -13 -56 -35 -56 -72c0 -33 21 -49 51 -49c16 0 29 4 38 10l14 -69c-12 -6 -32 -11 -59 -11c-73 0 -122 41 -122 114c0 30 8 56 24 77h-318l129 735h464z" />
    <glyph glyph-name="Iogonek" unicode="&#x12e;" horiz-adv-x="281" 
d="M284 735l-129 -735h-41c-33 -13 -56 -35 -56 -72c0 -33 21 -49 51 -49c16 0 29 4 38 10l14 -69c-12 -6 -32 -11 -59 -11c-73 0 -122 41 -122 114c0 46 20 81 55 107l124 705h125z" />
    <glyph glyph-name="eogonek" unicode="&#x119;" horiz-adv-x="536" 
d="M311 514c154 0 220 -114 194 -258l-8 -41h-352c-5 -74 31 -126 111 -126c56 0 99 25 133 59l76 -71c-32 -31 -67 -53 -105 -67c-21 -13 -34 -33 -34 -61c0 -33 21 -49 51 -49c16 0 29 4 38 10l14 -69c-12 -6 -32 -11 -59 -11c-73 0 -122 41 -122 114c0 17 2 32 7 46h-14
c-141 0 -217 90 -216 214c0 157 112 310 286 310zM304 418c-77 0 -128 -55 -144 -119h234c11 70 -14 119 -90 119z" />
    <glyph glyph-name="dotlessi" unicode="&#x131;" horiz-adv-x="266" 
d="M234 504l-89 -504h-120l88 504h121z" />
    <glyph glyph-name="jcircumflex" unicode="&#x135;" horiz-adv-x="266" 
d="M234 504l-100 -564c-19 -103 -103 -180 -218 -180c-75 0 -124 27 -160 72l86 74c16 -22 41 -40 78 -40c49 0 86 32 95 82l98 556h121zM217 754l128 -179h-91l-50 62l-71 -62h-107z" />
    <glyph glyph-name="kcommaaccent" unicode="&#x137;" horiz-adv-x="558" 
d="M280 760l-96 -542l240 286h149l-195 -220l126 -284h-127l-85 188l-161 -188h-106l134 760h121zM218 -48c42 0 68 -27 66 -66c-1 -24 -10 -46 -24 -60l-114 -138h-4l46 259c10 3 19 5 30 5z" />
    <glyph glyph-name="lcommaaccent" unicode="&#x13c;" horiz-adv-x="266" 
d="M280 760l-135 -760h-120l134 760h121zM52 -48c42 0 68 -27 66 -66c-1 -24 -10 -46 -24 -60l-114 -138h-4l46 259c10 3 19 5 30 5z" />
    <glyph glyph-name="uogonek" unicode="&#x173;" horiz-adv-x="583" 
d="M554 504l-89 -504h-17c-33 -13 -56 -35 -56 -72c0 -33 21 -49 51 -49c16 0 29 4 38 10l14 -69c-12 -6 -32 -11 -59 -11c-73 0 -122 41 -122 114c0 41 16 74 44 98l3 37c-27 -30 -77 -68 -153 -68c-126 0 -176 101 -153 230l50 284h120l-51 -288c-11 -67 11 -112 67 -112
c65 0 102 34 135 74l57 326h121z" />
    <glyph glyph-name="aogonek" unicode="&#x105;" 
d="M304 514c77 0 125 -37 143 -69l15 59h109l-84 -473l14 -31c-33 -13 -56 -35 -56 -72c0 -33 21 -49 51 -49c16 0 29 4 38 10l14 -69c-12 -6 -32 -11 -59 -11c-73 0 -122 41 -122 114c0 30 8 56 24 77h-17l6 56c-33 -37 -87 -66 -164 -66c-124 0 -191 96 -191 221
c0 154 106 303 279 303zM309 408c-95 0 -162 -92 -162 -188c0 -76 39 -124 100 -124c72 0 114 41 146 78l31 172c-21 36 -53 62 -115 62z" />
    <glyph glyph-name="Aogonek" unicode="&#x104;" horiz-adv-x="710" 
d="M637 58l25 -58c-33 -13 -56 -35 -56 -72c0 -33 21 -49 51 -49c16 0 29 4 38 10l14 -69c-12 -6 -32 -11 -59 -11c-73 0 -122 41 -122 114c0 30 8 56 24 77h-36l-36 133h-301l-83 -133h-143l475 748h4l198 -693zM391 486l-150 -250h214z" />
    <glyph glyph-name="Ccedilla" unicode="&#xc7;" horiz-adv-x="681" 
d="M476 748c118 0 192 -42 251 -112l-87 -84c-34 49 -92 81 -171 81c-169 0 -300 -130 -300 -322c-2 -134 85 -209 200 -209c80 0 150 29 207 84l68 -99c-81 -70 -175 -100 -281 -100h-13l-14 -39c44 -7 79 -37 79 -87c0 -71 -57 -115 -127 -115c-45 0 -79 19 -97 45l48 44
c10 -14 28 -25 52 -25c26 0 48 16 48 45c0 21 -12 32 -37 34c-19 2 -35 -1 -49 -6l-3 4l39 107c-150 27 -248 142 -247 311c0 243 195 443 434 443z" />
    <glyph glyph-name="Gcommaaccent" unicode="&#x122;" horiz-adv-x="744" 
d="M476 748c119 0 193 -41 252 -112l-88 -84c-34 48 -94 81 -172 81c-166 0 -282 -118 -296 -296c-15 -141 69 -235 203 -235c61 0 116 15 161 43l27 146h-174l19 108h299l-56 -314c-80 -63 -172 -98 -285 -98c-211 0 -336 140 -322 345c16 229 202 416 432 416zM316 -53
c42 0 68 -27 66 -66c-1 -24 -10 -46 -24 -60l-114 -138h-4l46 259c10 3 19 5 30 5z" />
    <glyph glyph-name="Kcommaaccent" unicode="&#x136;" horiz-adv-x="685" 
d="M704 735l-274 -353l197 -382h-149l-137 269l-209 -269h-103l129 735h125l-83 -466l352 466h152zM275 -48c42 0 68 -27 66 -66c-1 -24 -10 -46 -24 -60l-114 -138h-4l46 259c10 3 19 5 30 5z" />
    <glyph glyph-name="Lcommaaccent" unicode="&#x13b;" horiz-adv-x="545" 
d="M283 735l-110 -624h333l-19 -111h-458l129 735h125zM231 -48c42 0 68 -27 66 -66c-1 -24 -10 -46 -24 -60l-114 -138h-4l46 259c10 3 19 5 30 5z" />
    <glyph glyph-name="Ncommaaccent" unicode="&#x145;" horiz-adv-x="733" 
d="M735 735l-132 -748h-4l-363 479l-82 -466h-125l132 748h4l364 -481l81 468h125zM304 -48c42 0 68 -27 66 -66c-1 -24 -10 -46 -24 -60l-114 -138h-4l46 259c10 3 19 5 30 5z" />
    <glyph glyph-name="Rcommaaccent" unicode="&#x156;" horiz-adv-x="647" 
d="M409 735c135 0 235 -77 235 -200c0 -122 -76 -208 -181 -245l125 -290h-135l-115 270h-137l-47 -270h-125l129 735h251zM393 626h-128l-45 -247h129c86 0 168 49 168 148c-1 65 -48 99 -124 99zM268 -48c42 0 68 -27 66 -66c-1 -24 -10 -46 -24 -60l-114 -138h-4l46 259
c10 3 19 5 30 5z" />
    <glyph glyph-name="Scedilla" unicode="&#x15e;" horiz-adv-x="593" 
d="M353 748c110 0 189 -37 241 -83l-79 -93c-38 37 -95 61 -167 61c-80 0 -147 -39 -147 -109c0 -50 36 -73 137 -95c153 -33 212 -94 212 -193c0 -159 -134 -242 -285 -248l-14 -40c44 -7 79 -37 79 -87c0 -71 -57 -115 -127 -115c-45 0 -79 19 -97 45l48 44
c10 -14 28 -25 52 -25c26 0 48 16 48 45c0 21 -12 32 -37 34c-19 2 -35 -1 -49 -6l-3 4l37 102c-96 9 -168 46 -218 99l79 95c42 -51 117 -81 193 -81c97 0 166 45 166 114c0 50 -39 77 -133 98c-163 35 -214 99 -214 190c0 141 117 244 278 244z" />
    <glyph glyph-name="Scommaaccent" unicode="&#x218;" horiz-adv-x="593" 
d="M353 748c110 0 189 -37 241 -83l-79 -93c-38 37 -95 61 -167 61c-80 0 -147 -39 -147 -109c0 -50 36 -73 137 -95c153 -33 212 -94 212 -193c0 -165 -144 -249 -303 -249c-119 0 -205 40 -263 101l79 95c42 -51 117 -81 193 -81c97 0 166 45 166 114c0 50 -39 77 -133 98
c-163 35 -214 99 -214 190c0 141 117 244 278 244zM211 -53c42 0 68 -27 66 -66c-1 -24 -10 -46 -24 -60l-114 -138h-4l46 259c10 3 19 5 30 5z" />
    <glyph glyph-name="Tcommaaccent" unicode="&#x162;" horiz-adv-x="655" 
d="M714 735l-18 -111h-250l-109 -624h-125l110 624h-249l19 111h622zM238 -48c42 0 68 -27 66 -66c-1 -24 -10 -46 -24 -60l-114 -138h-4l46 259c10 3 19 5 30 5z" />
    <glyph glyph-name="Uogonek" unicode="&#x172;" horiz-adv-x="691" 
d="M438 10h-1c-22 -13 -35 -33 -35 -62c0 -33 21 -49 51 -49c16 0 29 4 38 10l14 -69c-12 -6 -32 -11 -59 -11c-73 0 -122 41 -122 114c0 17 2 32 7 45c-9 0 -17 -1 -26 -1c-171 0 -269 105 -237 285l81 463h125l-82 -466c-17 -102 20 -167 122 -167c101 0 164 67 182 167
l82 466h125l-84 -474c-21 -124 -82 -212 -181 -251z" />
    <glyph glyph-name="ccedilla" unicode="&#xe7;" horiz-adv-x="507" 
d="M325 514c98 0 156 -51 186 -115l-92 -60c-18 40 -51 70 -105 70c-100 0 -168 -90 -168 -193c0 -72 36 -121 114 -121c57 0 100 33 129 73l81 -69c-52 -64 -123 -106 -212 -109l-14 -39c44 -7 79 -37 79 -87c0 -71 -57 -115 -127 -115c-45 0 -79 19 -97 45l48 44
c10 -14 28 -25 52 -25c26 0 48 16 48 45c0 21 -12 32 -37 34c-19 2 -35 -1 -49 -6l-3 4l38 105c-112 19 -171 104 -171 213c0 173 133 306 300 306z" />
    <glyph glyph-name="iogonek" unicode="&#x12f;" horiz-adv-x="266" 
d="M234 504l-89 -504h-36c-33 -13 -56 -35 -56 -72c0 -33 21 -49 51 -49c16 0 29 4 38 10l14 -69c-12 -6 -32 -11 -59 -11c-73 0 -122 41 -122 114c0 46 20 81 55 107l83 474h121zM214 739c40 0 64 -25 64 -63c0 -47 -42 -85 -87 -85c-40 0 -64 25 -64 62c0 48 40 86 87 86z
" />
    <glyph glyph-name="ncommaaccent" unicode="&#x146;" horiz-adv-x="589" 
d="M374 514c127 0 180 -101 156 -230l-50 -284h-120l50 288c12 67 -11 113 -69 113c-65 0 -106 -35 -138 -75l-58 -326h-120l89 504h108l-4 -58c27 30 80 68 156 68zM222 -48c42 0 68 -27 66 -66c-1 -24 -10 -46 -24 -60l-114 -138h-4l46 259c10 3 19 5 30 5z" />
    <glyph glyph-name="rcommaaccent" unicode="&#x157;" horiz-adv-x="349" 
d="M378 514l-22 -120h-10c-61 0 -105 -29 -144 -73l-57 -321h-120l89 504h108l-4 -62c32 38 87 72 160 72zM47 -48c42 0 68 -27 66 -66c-1 -24 -10 -46 -24 -60l-114 -138h-4l46 259c10 3 19 5 30 5z" />
    <glyph glyph-name="scedilla" unicode="&#x15f;" horiz-adv-x="463" 
d="M280 514c71 0 130 -23 163 -54l-60 -87c-26 24 -64 41 -116 41s-87 -18 -87 -58c0 -30 22 -41 82 -56c108 -27 146 -64 146 -131c0 -104 -93 -169 -206 -178l-14 -40c44 -7 79 -37 79 -87c0 -71 -57 -115 -127 -115c-45 0 -79 19 -97 45l48 44c10 -14 28 -25 52 -25
c26 0 48 16 48 45c0 21 -12 32 -37 34c-19 2 -35 -1 -49 -6l-3 4l37 102c-64 6 -113 30 -145 61l62 89c33 -31 75 -52 135 -52c42 0 95 18 95 66c0 26 -23 41 -82 56c-101 25 -147 59 -147 129c0 103 96 173 223 173z" />
    <glyph glyph-name="scommaaccent" unicode="&#x219;" horiz-adv-x="463" 
d="M280 514c71 0 130 -23 163 -54l-60 -87c-26 24 -64 41 -116 41s-87 -18 -87 -58c0 -30 22 -41 82 -56c108 -27 146 -64 146 -131c0 -111 -107 -179 -232 -179c-82 0 -144 26 -182 63l62 89c33 -31 75 -52 135 -52c42 0 95 18 95 66c0 26 -23 41 -82 56
c-101 25 -147 59 -147 129c0 103 96 173 223 173zM150 -53c42 0 68 -27 66 -66c-1 -24 -10 -46 -24 -60l-114 -138h-4l46 259c10 3 19 5 30 5z" />
    <glyph glyph-name="lacute" unicode="&#x13a;" horiz-adv-x="266" 
d="M280 760l-135 -760h-120l134 760h121zM466 913l-171 -117h-130l144 117h157z" />
    <glyph glyph-name="gcommaaccent" unicode="&#x123;" horiz-adv-x="601" 
d="M304 514c73 0 120 -33 140 -64l19 54h108l-88 -498c-27 -155 -140 -246 -293 -246c-119 0 -183 46 -230 112l86 72c31 -45 75 -78 146 -78c94 0 156 58 172 147l9 48c-27 -30 -79 -59 -156 -59c-125 0 -192 88 -192 213c0 151 107 299 279 299zM309 408
c-94 0 -162 -90 -162 -184c0 -75 40 -116 100 -116c73 0 115 41 147 78l29 159c-20 37 -52 63 -114 63zM438 857l-51 -288c-10 -3 -20 -6 -31 -6c-41 0 -68 28 -66 67c1 26 12 45 24 60l120 167h4z" />
    <glyph glyph-name="aacute" unicode="&#xe1;" 
d="M304 514c77 0 125 -37 143 -69l15 59h109l-89 -504h-108l6 56c-33 -37 -87 -66 -164 -66c-124 0 -191 96 -191 221c0 154 106 303 279 303zM309 408c-95 0 -162 -92 -162 -188c0 -76 39 -124 100 -124c72 0 114 41 146 78l31 172c-21 36 -53 62 -115 62zM581 712
l-185 -137h-116l153 137h148z" />
    <glyph glyph-name="abreve" unicode="&#x103;" 
d="M304 514c77 0 125 -37 143 -69l15 59h109l-89 -504h-108l6 56c-33 -37 -87 -66 -164 -66c-124 0 -191 96 -191 221c0 154 106 303 279 303zM309 408c-95 0 -162 -92 -162 -188c0 -76 39 -124 100 -124c72 0 114 41 146 78l31 172c-21 36 -53 62 -115 62zM532 730
c-12 -94 -81 -158 -173 -158c-97 0 -159 71 -145 158h86c-8 -44 17 -76 61 -76c47 0 78 32 85 76h86z" />
    <glyph glyph-name="acircumflex" unicode="&#xe2;" 
d="M304 514c77 0 125 -37 143 -69l15 59h109l-89 -504h-108l6 56c-33 -37 -87 -66 -164 -66c-124 0 -191 96 -191 221c0 154 106 303 279 303zM309 408c-95 0 -162 -92 -162 -188c0 -76 39 -124 100 -124c72 0 114 41 146 78l31 172c-21 36 -53 62 -115 62zM376 754
l128 -179h-91l-50 62l-71 -62h-107z" />
    <glyph glyph-name="adieresis" unicode="&#xe4;" 
d="M304 514c77 0 125 -37 143 -69l15 59h109l-89 -504h-108l6 56c-33 -37 -87 -66 -164 -66c-124 0 -191 96 -191 221c0 154 106 303 279 303zM309 408c-95 0 -162 -92 -162 -188c0 -76 39 -124 100 -124c72 0 114 41 146 78l31 172c-21 36 -53 62 -115 62zM278 706
c32 0 52 -20 52 -52c0 -40 -34 -71 -72 -71c-33 0 -53 20 -53 52c0 40 33 71 73 71zM458 706c32 0 52 -20 52 -52c0 -40 -34 -71 -71 -71c-33 0 -53 20 -53 52c0 40 33 71 72 71z" />
    <glyph glyph-name="aeacute" unicode="&#x1fd;" horiz-adv-x="946" 
d="M707 418c-80 0 -141 -54 -159 -119h255c9 67 -19 119 -96 119zM723 514c150 0 217 -117 191 -258l-8 -41h-373c-5 -74 39 -126 127 -126c56 0 104 25 138 59l75 -71c-61 -59 -137 -87 -224 -87c-75 0 -128 29 -159 74l-14 -64h-102l6 56c-33 -37 -87 -66 -164 -66
c-124 0 -191 96 -191 221c0 154 106 303 279 303c77 0 125 -37 143 -69l15 59h103l-5 -58c32 36 85 68 163 68zM309 408c-95 0 -162 -92 -162 -188c0 -76 39 -124 100 -124c72 0 114 41 146 78l31 172c-21 36 -53 62 -115 62zM765 712l-185 -137h-116l153 137h148z" />
    <glyph glyph-name="agrave" unicode="&#xe0;" 
d="M304 514c77 0 125 -37 143 -69l15 59h109l-89 -504h-108l6 56c-33 -37 -87 -66 -164 -66c-124 0 -191 96 -191 221c0 154 106 303 279 303zM309 408c-95 0 -162 -92 -162 -188c0 -76 39 -124 100 -124c72 0 114 41 146 78l31 172c-21 36 -53 62 -115 62zM290 712
l121 -137h-107l-146 137h132z" />
    <glyph glyph-name="amacron" unicode="&#x101;" 
d="M304 514c77 0 125 -37 143 -69l15 59h109l-89 -504h-108l6 56c-33 -37 -87 -66 -164 -66c-124 0 -191 96 -191 221c0 154 106 303 279 303zM309 408c-95 0 -162 -92 -162 -188c0 -76 39 -124 100 -124c72 0 114 41 146 78l31 172c-21 36 -53 62 -115 62zM492 676l-14 -81
h-267l16 81h265z" />
    <glyph glyph-name="aring" unicode="&#xe5;" 
d="M304 514c77 0 125 -37 143 -69l15 59h109l-89 -504h-108l6 56c-33 -37 -87 -66 -164 -66c-124 0 -191 96 -191 221c0 154 106 303 279 303zM309 408c-95 0 -162 -92 -162 -188c0 -76 39 -124 100 -124c72 0 114 41 146 78l31 172c-21 36 -53 62 -115 62zM381 797
c61 0 101 -44 101 -100c0 -75 -63 -127 -133 -127c-61 0 -102 44 -102 99c0 76 64 128 134 128zM372 732c-28 0 -56 -23 -56 -56c0 -24 16 -41 41 -41c27 0 55 22 55 56c0 24 -15 41 -40 41z" />
    <glyph glyph-name="atilde" unicode="&#xe3;" 
d="M304 514c77 0 125 -37 143 -69l15 59h109l-89 -504h-108l6 56c-33 -37 -87 -66 -164 -66c-124 0 -191 96 -191 221c0 154 106 303 279 303zM309 408c-95 0 -162 -92 -162 -188c0 -76 39 -124 100 -124c72 0 114 41 146 78l31 172c-21 36 -53 62 -115 62zM308 725
c75 0 81 -75 120 -75c26 0 41 27 47 69h71c-11 -100 -72 -148 -129 -148c-80 0 -76 75 -120 75c-29 0 -43 -27 -49 -69h-71c8 97 72 148 131 148z" />
    <glyph glyph-name="cacute" unicode="&#x107;" horiz-adv-x="507" 
d="M325 514c98 0 156 -51 186 -115l-92 -60c-18 40 -51 70 -105 70c-100 0 -168 -90 -168 -193c0 -72 36 -121 114 -121c57 0 100 33 129 73l81 -69c-54 -66 -128 -109 -223 -109c-144 0 -222 94 -222 218c0 173 133 306 300 306zM582 712l-185 -137h-116l153 137h148z" />
    <glyph glyph-name="ccaron" unicode="&#x10d;" horiz-adv-x="507" 
d="M325 514c98 0 156 -51 186 -115l-92 -60c-18 40 -51 70 -105 70c-100 0 -168 -90 -168 -193c0 -72 36 -121 114 -121c57 0 100 33 129 73l81 -69c-54 -66 -128 -109 -223 -109c-144 0 -222 94 -222 218c0 173 133 306 300 306zM539 746l-191 -179l-129 179h92l49 -62
l72 62h107z" />
    <glyph glyph-name="ccircumflex" unicode="&#x109;" horiz-adv-x="507" 
d="M325 514c98 0 156 -51 186 -115l-92 -60c-18 40 -51 70 -105 70c-100 0 -168 -90 -168 -193c0 -72 36 -121 114 -121c57 0 100 33 129 73l81 -69c-54 -66 -128 -109 -223 -109c-144 0 -222 94 -222 218c0 173 133 306 300 306zM376 754l128 -179h-91l-50 62l-71 -62h-107
z" />
    <glyph glyph-name="cdotaccent" unicode="&#x10b;" horiz-adv-x="507" 
d="M325 514c98 0 156 -51 186 -115l-92 -60c-18 40 -51 70 -105 70c-100 0 -168 -90 -168 -193c0 -72 36 -121 114 -121c57 0 100 33 129 73l81 -69c-54 -66 -128 -109 -223 -109c-144 0 -222 94 -222 218c0 173 133 306 300 306zM373 735c39 0 64 -24 64 -63
c0 -46 -42 -85 -87 -85c-40 0 -64 24 -64 61c0 48 40 87 87 87z" />
    <glyph glyph-name="eacute" unicode="&#xe9;" horiz-adv-x="536" 
d="M311 514c154 0 220 -114 194 -258l-8 -41h-352c-5 -74 31 -126 111 -126c56 0 99 25 133 59l76 -71c-62 -59 -133 -87 -224 -87c-141 0 -217 90 -216 214c0 157 112 310 286 310zM304 418c-77 0 -128 -55 -144 -119h234c11 70 -14 119 -90 119zM573 712l-185 -137h-116
l153 137h148z" />
    <glyph glyph-name="ebreve" unicode="&#x115;" horiz-adv-x="536" 
d="M311 514c154 0 220 -114 194 -258l-8 -41h-352c-5 -74 31 -126 111 -126c56 0 99 25 133 59l76 -71c-62 -59 -133 -87 -224 -87c-141 0 -217 90 -216 214c0 157 112 310 286 310zM304 418c-77 0 -128 -55 -144 -119h234c11 70 -14 119 -90 119zM523 730
c-12 -94 -81 -158 -173 -158c-97 0 -159 71 -145 158h86c-8 -44 17 -76 61 -76c47 0 78 32 85 76h86z" />
    <glyph glyph-name="ecaron" unicode="&#x11b;" horiz-adv-x="536" 
d="M311 514c154 0 220 -114 194 -258l-8 -41h-352c-5 -74 31 -126 111 -126c56 0 99 25 133 59l76 -71c-62 -59 -133 -87 -224 -87c-141 0 -217 90 -216 214c0 157 112 310 286 310zM304 418c-77 0 -128 -55 -144 -119h234c11 70 -14 119 -90 119zM531 746l-191 -179
l-129 179h92l49 -62l72 62h107z" />
    <glyph glyph-name="ecircumflex" unicode="&#xea;" horiz-adv-x="536" 
d="M311 514c154 0 220 -114 194 -258l-8 -41h-352c-5 -74 31 -126 111 -126c56 0 99 25 133 59l76 -71c-62 -59 -133 -87 -224 -87c-141 0 -217 90 -216 214c0 157 112 310 286 310zM304 418c-77 0 -128 -55 -144 -119h234c11 70 -14 119 -90 119zM367 754l128 -179h-91
l-50 62l-71 -62h-107z" />
    <glyph glyph-name="edieresis" unicode="&#xeb;" horiz-adv-x="536" 
d="M311 514c154 0 220 -114 194 -258l-8 -41h-352c-5 -74 31 -126 111 -126c56 0 99 25 133 59l76 -71c-62 -59 -133 -87 -224 -87c-141 0 -217 90 -216 214c0 157 112 310 286 310zM304 418c-77 0 -128 -55 -144 -119h234c11 70 -14 119 -90 119zM269 706
c32 0 52 -20 52 -52c0 -40 -34 -71 -72 -71c-33 0 -53 20 -53 52c0 40 33 71 73 71zM449 706c32 0 52 -20 52 -52c0 -40 -34 -71 -71 -71c-33 0 -53 20 -53 52c0 40 33 71 72 71z" />
    <glyph glyph-name="edotaccent" unicode="&#x117;" horiz-adv-x="536" 
d="M311 514c154 0 220 -114 194 -258l-8 -41h-352c-5 -74 31 -126 111 -126c56 0 99 25 133 59l76 -71c-62 -59 -133 -87 -224 -87c-141 0 -217 90 -216 214c0 157 112 310 286 310zM304 418c-77 0 -128 -55 -144 -119h234c11 70 -14 119 -90 119zM365 735
c39 0 64 -24 64 -63c0 -46 -42 -85 -87 -85c-40 0 -64 24 -64 61c0 48 40 87 87 87z" />
    <glyph glyph-name="egrave" unicode="&#xe8;" horiz-adv-x="536" 
d="M311 514c154 0 220 -114 194 -258l-8 -41h-352c-5 -74 31 -126 111 -126c56 0 99 25 133 59l76 -71c-62 -59 -133 -87 -224 -87c-141 0 -217 90 -216 214c0 157 112 310 286 310zM304 418c-77 0 -128 -55 -144 -119h234c11 70 -14 119 -90 119zM281 712l121 -137h-107
l-146 137h132z" />
    <glyph glyph-name="emacron" unicode="&#x113;" horiz-adv-x="536" 
d="M311 514c154 0 220 -114 194 -258l-8 -41h-352c-5 -74 31 -126 111 -126c56 0 99 25 133 59l76 -71c-62 -59 -133 -87 -224 -87c-141 0 -217 90 -216 214c0 157 112 310 286 310zM304 418c-77 0 -128 -55 -144 -119h234c11 70 -14 119 -90 119zM483 676l-14 -81h-267
l16 81h265z" />
    <glyph glyph-name="gbreve" unicode="&#x11f;" horiz-adv-x="601" 
d="M304 514c73 0 120 -33 140 -64l19 54h108l-88 -498c-27 -155 -140 -246 -293 -246c-119 0 -183 46 -230 112l86 72c31 -45 75 -78 146 -78c94 0 156 58 172 147l9 48c-27 -30 -79 -59 -156 -59c-125 0 -192 88 -192 213c0 151 107 299 279 299zM309 408
c-94 0 -162 -90 -162 -184c0 -75 40 -116 100 -116c73 0 115 41 147 78l29 159c-20 37 -52 63 -114 63zM535 730c-12 -94 -81 -158 -173 -158c-97 0 -159 71 -145 158h86c-8 -44 17 -76 61 -76c47 0 78 32 85 76h86z" />
    <glyph glyph-name="gcircumflex" unicode="&#x11d;" horiz-adv-x="601" 
d="M304 514c73 0 120 -33 140 -64l19 54h108l-88 -498c-27 -155 -140 -246 -293 -246c-119 0 -183 46 -230 112l86 72c31 -45 75 -78 146 -78c94 0 156 58 172 147l9 48c-27 -30 -79 -59 -156 -59c-125 0 -192 88 -192 213c0 151 107 299 279 299zM309 408
c-94 0 -162 -90 -162 -184c0 -75 40 -116 100 -116c73 0 115 41 147 78l29 159c-20 37 -52 63 -114 63zM379 754l128 -179h-91l-50 62l-71 -62h-107z" />
    <glyph glyph-name="gdotaccent" unicode="&#x121;" horiz-adv-x="601" 
d="M304 514c73 0 120 -33 140 -64l19 54h108l-88 -498c-27 -155 -140 -246 -293 -246c-119 0 -183 46 -230 112l86 72c31 -45 75 -78 146 -78c94 0 156 58 172 147l9 48c-27 -30 -79 -59 -156 -59c-125 0 -192 88 -192 213c0 151 107 299 279 299zM309 408
c-94 0 -162 -90 -162 -184c0 -75 40 -116 100 -116c73 0 115 41 147 78l29 159c-20 37 -52 63 -114 63zM377 735c39 0 64 -24 64 -63c0 -46 -42 -85 -87 -85c-40 0 -64 24 -64 61c0 48 40 87 87 87z" />
    <glyph glyph-name="iacute" unicode="&#xed;" horiz-adv-x="266" 
d="M422 712l-185 -137h-116l153 137h148zM234 504l-89 -504h-120l88 504h121z" />
    <glyph glyph-name="ibreve" unicode="&#x12d;" horiz-adv-x="266" 
d="M374 730c-12 -94 -81 -158 -173 -158c-97 0 -159 71 -145 158h86c-8 -44 17 -76 61 -76c47 0 78 32 85 76h86zM234 504l-89 -504h-120l88 504h121z" />
    <glyph glyph-name="icircumflex" unicode="&#xee;" horiz-adv-x="266" 
d="M234 504l-89 -504h-120l88 504h121zM218 754l128 -179h-91l-50 62l-71 -62h-107z" />
    <glyph glyph-name="idieresis" unicode="&#xef;" horiz-adv-x="266" 
d="M120 706c32 0 52 -20 52 -52c0 -40 -34 -71 -72 -71c-33 0 -53 20 -53 52c0 40 33 71 73 71zM300 706c32 0 52 -20 52 -52c0 -40 -34 -71 -71 -71c-33 0 -53 20 -53 52c0 40 33 71 72 71zM234 504l-89 -504h-120l88 504h121z" />
    <glyph glyph-name="igrave" unicode="&#xec;" horiz-adv-x="266" 
d="M131 712l121 -137h-107l-146 137h132zM234 504l-89 -504h-120l88 504h121z" />
    <glyph glyph-name="imacron" unicode="&#x12b;" horiz-adv-x="266" 
d="M333 676l-14 -81h-267l16 81h265zM234 504l-89 -504h-120l88 504h121z" />
    <glyph glyph-name="itilde" unicode="&#x129;" horiz-adv-x="266" 
d="M150 725c75 0 81 -75 120 -75c26 0 41 27 47 69h71c-11 -100 -72 -148 -129 -148c-80 0 -76 75 -120 75c-29 0 -43 -27 -49 -69h-71c8 97 72 148 131 148zM234 504l-89 -504h-120l88 504h121z" />
    <glyph glyph-name="nacute" unicode="&#x144;" horiz-adv-x="589" 
d="M374 514c127 0 180 -101 156 -230l-50 -284h-120l50 288c12 67 -11 113 -69 113c-65 0 -106 -35 -138 -75l-58 -326h-120l89 504h108l-4 -58c27 30 80 68 156 68zM592 712l-185 -137h-116l153 137h148z" />
    <glyph glyph-name="ncaron" unicode="&#x148;" horiz-adv-x="589" 
d="M374 514c127 0 180 -101 156 -230l-50 -284h-120l50 288c12 67 -11 113 -69 113c-65 0 -106 -35 -138 -75l-58 -326h-120l89 504h108l-4 -58c27 30 80 68 156 68zM549 746l-191 -179l-129 179h92l49 -62l72 62h107z" />
    <glyph glyph-name="ntilde" unicode="&#xf1;" horiz-adv-x="589" 
d="M374 514c127 0 180 -101 156 -230l-50 -284h-120l50 288c12 67 -11 113 -69 113c-65 0 -106 -35 -138 -75l-58 -326h-120l89 504h108l-4 -58c27 30 80 68 156 68zM312 725c75 0 81 -75 120 -75c26 0 41 27 47 69h71c-11 -100 -72 -148 -129 -148c-80 0 -76 75 -120 75
c-29 0 -43 -27 -49 -69h-71c8 97 72 148 131 148z" />
    <glyph glyph-name="oacute" unicode="&#xf3;" horiz-adv-x="580" 
d="M318 408c-93 0 -171 -88 -171 -189c0 -73 45 -123 116 -123c92 0 170 88 170 189c0 73 -45 123 -115 123zM335 514c135 0 221 -95 221 -222c0 -165 -139 -302 -311 -302c-135 0 -221 95 -221 222c0 165 139 302 311 302zM592 712l-185 -137h-116l153 137h148z" />
    <glyph glyph-name="obreve" unicode="&#x14f;" horiz-adv-x="580" 
d="M318 408c-93 0 -171 -88 -171 -189c0 -73 45 -123 116 -123c92 0 170 88 170 189c0 73 -45 123 -115 123zM335 514c135 0 221 -95 221 -222c0 -165 -139 -302 -311 -302c-135 0 -221 95 -221 222c0 165 139 302 311 302zM541 730c-12 -94 -81 -158 -173 -158
c-97 0 -159 71 -145 158h86c-8 -44 17 -76 61 -76c47 0 78 32 85 76h86z" />
    <glyph glyph-name="ocircumflex" unicode="&#xf4;" horiz-adv-x="580" 
d="M318 408c-93 0 -171 -88 -171 -189c0 -73 45 -123 116 -123c92 0 170 88 170 189c0 73 -45 123 -115 123zM335 514c135 0 221 -95 221 -222c0 -165 -139 -302 -311 -302c-135 0 -221 95 -221 222c0 165 139 302 311 302zM386 754l128 -179h-91l-50 62l-71 -62h-107z" />
    <glyph glyph-name="odieresis" unicode="&#xf6;" horiz-adv-x="580" 
d="M318 408c-93 0 -171 -88 -171 -189c0 -73 45 -123 116 -123c92 0 170 88 170 189c0 73 -45 123 -115 123zM335 514c135 0 221 -95 221 -222c0 -165 -139 -302 -311 -302c-135 0 -221 95 -221 222c0 165 139 302 311 302zM288 706c32 0 52 -20 52 -52
c0 -40 -34 -71 -72 -71c-33 0 -53 20 -53 52c0 40 33 71 73 71zM468 706c32 0 52 -20 52 -52c0 -40 -34 -71 -71 -71c-33 0 -53 20 -53 52c0 40 33 71 72 71z" />
    <glyph glyph-name="ograve" unicode="&#xf2;" horiz-adv-x="580" 
d="M318 408c-93 0 -171 -88 -171 -189c0 -73 45 -123 116 -123c92 0 170 88 170 189c0 73 -45 123 -115 123zM335 514c135 0 221 -95 221 -222c0 -165 -139 -302 -311 -302c-135 0 -221 95 -221 222c0 165 139 302 311 302zM299 712l121 -137h-107l-146 137h132z" />
    <glyph glyph-name="ohungarumlaut" unicode="&#x151;" horiz-adv-x="580" 
d="M318 408c-93 0 -171 -88 -171 -189c0 -73 45 -123 116 -123c92 0 170 88 170 189c0 73 -45 123 -115 123zM335 514c135 0 221 -95 221 -222c0 -165 -139 -302 -311 -302c-135 0 -221 95 -221 222c0 165 139 302 311 302zM432 718l-127 -147h-97l115 147h109zM610 718
l-127 -147h-97l115 147h109z" />
    <glyph glyph-name="omacron" unicode="&#x14d;" horiz-adv-x="580" 
d="M318 408c-93 0 -171 -88 -171 -189c0 -73 45 -123 116 -123c92 0 170 88 170 189c0 73 -45 123 -115 123zM335 514c135 0 221 -95 221 -222c0 -165 -139 -302 -311 -302c-135 0 -221 95 -221 222c0 165 139 302 311 302zM501 676l-14 -81h-267l16 81h265z" />
    <glyph glyph-name="otilde" unicode="&#xf5;" horiz-adv-x="580" 
d="M318 408c-93 0 -171 -88 -171 -189c0 -73 45 -123 116 -123c92 0 170 88 170 189c0 73 -45 123 -115 123zM335 514c135 0 221 -95 221 -222c0 -165 -139 -302 -311 -302c-135 0 -221 95 -221 222c0 165 139 302 311 302zM317 725c75 0 81 -75 120 -75c26 0 41 27 47 69
h71c-11 -100 -72 -148 -129 -148c-80 0 -76 75 -120 75c-29 0 -43 -27 -49 -69h-71c8 97 72 148 131 148z" />
    <glyph glyph-name="racute" unicode="&#x155;" horiz-adv-x="349" 
d="M378 514l-22 -120h-10c-61 0 -105 -29 -144 -73l-57 -321h-120l89 504h108l-4 -62c32 38 87 72 160 72zM508 712l-185 -137h-116l153 137h148z" />
    <glyph glyph-name="rcaron" unicode="&#x159;" horiz-adv-x="349" 
d="M378 514l-22 -120h-10c-61 0 -105 -29 -144 -73l-57 -321h-120l89 504h108l-4 -62c32 38 87 72 160 72zM456 746l-191 -179l-129 179h92l49 -62l72 62h107z" />
    <glyph glyph-name="sacute" unicode="&#x15b;" horiz-adv-x="463" 
d="M280 514c71 0 130 -23 163 -54l-60 -87c-26 24 -64 41 -116 41s-87 -18 -87 -58c0 -30 22 -41 82 -56c108 -27 146 -64 146 -131c0 -111 -107 -179 -232 -179c-82 0 -144 26 -182 63l62 89c33 -31 75 -52 135 -52c42 0 95 18 95 66c0 26 -23 41 -82 56
c-101 25 -147 59 -147 129c0 103 96 173 223 173zM526 712l-185 -137h-116l153 137h148z" />
    <glyph glyph-name="scaron" unicode="&#x161;" horiz-adv-x="463" 
d="M280 514c71 0 130 -23 163 -54l-60 -87c-26 24 -64 41 -116 41s-87 -18 -87 -58c0 -30 22 -41 82 -56c108 -27 146 -64 146 -131c0 -111 -107 -179 -232 -179c-82 0 -144 26 -182 63l62 89c33 -31 75 -52 135 -52c42 0 95 18 95 66c0 26 -23 41 -82 56
c-101 25 -147 59 -147 129c0 103 96 173 223 173zM483 746l-191 -179l-129 179h92l49 -62l72 62h107z" />
    <glyph glyph-name="scircumflex" unicode="&#x15d;" horiz-adv-x="463" 
d="M280 514c71 0 130 -23 163 -54l-60 -87c-26 24 -64 41 -116 41s-87 -18 -87 -58c0 -30 22 -41 82 -56c108 -27 146 -64 146 -131c0 -111 -107 -179 -232 -179c-82 0 -144 26 -182 63l62 89c33 -31 75 -52 135 -52c42 0 95 18 95 66c0 26 -23 41 -82 56
c-101 25 -147 59 -147 129c0 103 96 173 223 173zM320 754l128 -179h-91l-50 62l-71 -62h-107z" />
    <glyph glyph-name="uacute" unicode="&#xfa;" horiz-adv-x="583" 
d="M554 504l-89 -504h-108l4 58c-27 -30 -77 -68 -153 -68c-126 0 -176 101 -153 230l50 284h120l-51 -288c-11 -67 11 -112 67 -112c65 0 102 34 135 74l57 326h121zM576 712l-185 -137h-116l153 137h148z" />
    <glyph glyph-name="ubreve" unicode="&#x16d;" horiz-adv-x="583" 
d="M554 504l-89 -504h-108l4 58c-27 -30 -77 -68 -153 -68c-126 0 -176 101 -153 230l50 284h120l-51 -288c-11 -67 11 -112 67 -112c65 0 102 34 135 74l57 326h121zM526 730c-12 -94 -81 -158 -173 -158c-97 0 -159 71 -145 158h86c-8 -44 17 -76 61 -76c47 0 78 32 85 76
h86z" />
    <glyph glyph-name="ucircumflex" unicode="&#xfb;" horiz-adv-x="583" 
d="M554 504l-89 -504h-108l4 58c-27 -30 -77 -68 -153 -68c-126 0 -176 101 -153 230l50 284h120l-51 -288c-11 -67 11 -112 67 -112c65 0 102 34 135 74l57 326h121zM370 754l128 -179h-91l-50 62l-71 -62h-107z" />
    <glyph glyph-name="udieresis" unicode="&#xfc;" horiz-adv-x="583" 
d="M554 504l-89 -504h-108l4 58c-27 -30 -77 -68 -153 -68c-126 0 -176 101 -153 230l50 284h120l-51 -288c-11 -67 11 -112 67 -112c65 0 102 34 135 74l57 326h121zM273 706c32 0 52 -20 52 -52c0 -40 -34 -71 -72 -71c-33 0 -53 20 -53 52c0 40 33 71 73 71zM453 706
c32 0 52 -20 52 -52c0 -40 -34 -71 -71 -71c-33 0 -53 20 -53 52c0 40 33 71 72 71z" />
    <glyph glyph-name="ugrave" unicode="&#xf9;" horiz-adv-x="583" 
d="M554 504l-89 -504h-108l4 58c-27 -30 -77 -68 -153 -68c-126 0 -176 101 -153 230l50 284h120l-51 -288c-11 -67 11 -112 67 -112c65 0 102 34 135 74l57 326h121zM285 712l121 -137h-107l-146 137h132z" />
    <glyph glyph-name="uhungarumlaut" unicode="&#x171;" horiz-adv-x="583" 
d="M554 504l-89 -504h-108l4 58c-27 -30 -77 -68 -153 -68c-126 0 -176 101 -153 230l50 284h120l-51 -288c-11 -67 11 -112 67 -112c65 0 102 34 135 74l57 326h121zM417 718l-127 -147h-97l115 147h109zM595 718l-127 -147h-97l115 147h109z" />
    <glyph glyph-name="umacron" unicode="&#x16b;" horiz-adv-x="583" 
d="M554 504l-89 -504h-108l4 58c-27 -30 -77 -68 -153 -68c-126 0 -176 101 -153 230l50 284h120l-51 -288c-11 -67 11 -112 67 -112c65 0 102 34 135 74l57 326h121zM486 676l-14 -81h-267l16 81h265z" />
    <glyph glyph-name="uring" unicode="&#x16f;" horiz-adv-x="583" 
d="M554 504l-89 -504h-108l4 58c-27 -30 -77 -68 -153 -68c-126 0 -176 101 -153 230l50 284h120l-51 -288c-11 -67 11 -112 67 -112c65 0 102 34 135 74l57 326h121zM376 797c61 0 101 -44 101 -100c0 -75 -63 -127 -133 -127c-61 0 -102 44 -102 99c0 76 64 128 134 128z
M367 732c-28 0 -56 -23 -56 -56c0 -24 16 -41 41 -41c27 0 55 22 55 56c0 24 -15 41 -40 41z" />
    <glyph glyph-name="utilde" unicode="&#x169;" horiz-adv-x="583" 
d="M554 504l-89 -504h-108l4 58c-27 -30 -77 -68 -153 -68c-126 0 -176 101 -153 230l50 284h120l-51 -288c-11 -67 11 -112 67 -112c65 0 102 34 135 74l57 326h121zM302 725c75 0 81 -75 120 -75c26 0 41 27 47 69h71c-11 -100 -72 -148 -129 -148c-80 0 -76 75 -120 75
c-29 0 -43 -27 -49 -69h-71c8 97 72 148 131 148z" />
    <glyph glyph-name="wacute" unicode="&#x1e83;" horiz-adv-x="769" 
d="M796 504l-323 -514h-4l-89 278l-189 -278h-4l-141 514h128l61 -266l178 266h4l82 -266l157 266h140zM662 712l-185 -137h-116l153 137h148z" />
    <glyph glyph-name="wcircumflex" unicode="&#x175;" horiz-adv-x="769" 
d="M796 504l-323 -514h-4l-89 278l-189 -278h-4l-141 514h128l61 -266l178 266h4l82 -266l157 266h140zM456 754l128 -179h-91l-50 62l-71 -62h-107z" />
    <glyph glyph-name="wdieresis" unicode="&#x1e85;" horiz-adv-x="769" 
d="M796 504l-323 -514h-4l-89 278l-189 -278h-4l-141 514h128l61 -266l178 266h4l82 -266l157 266h140zM359 706c32 0 52 -20 52 -52c0 -40 -34 -71 -72 -71c-33 0 -53 20 -53 52c0 40 33 71 73 71zM539 706c32 0 52 -20 52 -52c0 -40 -34 -71 -71 -71c-33 0 -53 20 -53 52
c0 40 33 71 72 71z" />
    <glyph glyph-name="wgrave" unicode="&#x1e81;" horiz-adv-x="769" 
d="M796 504l-323 -514h-4l-89 278l-189 -278h-4l-141 514h128l61 -266l178 266h4l82 -266l157 266h140zM370 712l121 -137h-107l-146 137h132z" />
    <glyph glyph-name="yacute" unicode="&#xfd;" horiz-adv-x="564" 
d="M593 504l-510 -734h-137l245 338l-137 396h128l85 -277l184 277h142zM563 712l-185 -137h-116l153 137h148z" />
    <glyph glyph-name="ycircumflex" unicode="&#x177;" horiz-adv-x="564" 
d="M593 504l-510 -734h-137l245 338l-137 396h128l85 -277l184 277h142zM357 754l128 -179h-91l-50 62l-71 -62h-107z" />
    <glyph glyph-name="ydieresis" unicode="&#xff;" horiz-adv-x="564" 
d="M593 504l-510 -734h-137l245 338l-137 396h128l85 -277l184 277h142zM259 706c32 0 52 -20 52 -52c0 -40 -34 -71 -72 -71c-33 0 -53 20 -53 52c0 40 33 71 73 71zM439 706c32 0 52 -20 52 -52c0 -40 -34 -71 -71 -71c-33 0 -53 20 -53 52c0 40 33 71 72 71z" />
    <glyph glyph-name="ygrave" unicode="&#x1ef3;" horiz-adv-x="564" 
d="M593 504l-510 -734h-137l245 338l-137 396h128l85 -277l184 277h142zM271 712l121 -137h-107l-146 137h132z" />
    <glyph glyph-name="zacute" unicode="&#x17a;" horiz-adv-x="465" 
d="M486 504v-4l-300 -398h228l-17 -102h-416v4l298 398h-215l17 102h405zM533 712l-185 -137h-116l153 137h148z" />
    <glyph glyph-name="zcaron" unicode="&#x17e;" horiz-adv-x="465" 
d="M486 504v-4l-300 -398h228l-17 -102h-416v4l298 398h-215l17 102h405zM490 746l-191 -179l-129 179h92l49 -62l72 62h107z" />
    <glyph glyph-name="zdotaccent" unicode="&#x17c;" horiz-adv-x="465" 
d="M486 504v-4l-300 -398h228l-17 -102h-416v4l298 398h-215l17 102h405zM324 735c39 0 64 -24 64 -63c0 -46 -42 -85 -87 -85c-40 0 -64 24 -64 61c0 48 40 87 87 87z" />
    <glyph glyph-name="Aacute" unicode="&#xc1;" horiz-adv-x="710" 
d="M439 748l214 -748h-130l-36 133h-301l-83 -133h-143l475 748h4zM398 486l-150 -250h214zM679 889l-171 -117h-130l144 117h157z" />
    <glyph glyph-name="Abreve" unicode="&#x102;" horiz-adv-x="710" 
d="M439 748l214 -748h-130l-36 133h-301l-83 -133h-143l475 748h4zM398 486l-150 -250h214zM623 923c-13 -98 -90 -152 -177 -152c-95 0 -150 66 -139 152h84c-8 -47 15 -82 61 -82c44 0 78 35 87 82h84z" />
    <glyph glyph-name="Acircumflex" unicode="&#xc2;" horiz-adv-x="710" 
d="M439 748l214 -748h-130l-36 133h-301l-83 -133h-143l475 748h4zM398 486l-150 -250h214zM465 921l140 -150h-94l-56 56l-73 -56h-109z" />
    <glyph glyph-name="Adieresis" unicode="&#xc4;" horiz-adv-x="710" 
d="M439 748l214 -748h-130l-36 133h-301l-83 -133h-143l475 748h4zM398 486l-150 -250h214zM369 894c33 0 53 -21 53 -52c0 -39 -34 -71 -72 -71c-33 0 -53 21 -53 52c0 39 33 71 72 71zM550 894c32 0 52 -21 52 -52c0 -39 -34 -71 -71 -71c-33 0 -53 21 -53 52
c0 39 33 71 72 71z" />
    <glyph glyph-name="AEacute" unicode="&#x1fc;" horiz-adv-x="879" 
d="M917 735l-19 -115h-395l45 -195h272l-18 -105h-229l50 -205h193l-20 -115h-283l-31 138h-303l-81 -138h-140l451 735h508zM396 512l-162 -279h226zM835 889l-171 -117h-130l144 117h157z" />
    <glyph glyph-name="Agrave" unicode="&#xc0;" horiz-adv-x="710" 
d="M439 748l214 -748h-130l-36 133h-301l-83 -133h-143l475 748h4zM398 486l-150 -250h214zM389 889l118 -117h-116l-139 117h137z" />
    <glyph glyph-name="Amacron" unicode="&#x100;" horiz-adv-x="710" 
d="M439 748l214 -748h-130l-36 133h-301l-83 -133h-143l475 748h4zM398 486l-150 -250h214zM588 869l-14 -83h-267l15 83h266z" />
    <glyph glyph-name="Aring" unicode="&#xc5;" horiz-adv-x="710" 
d="M439 748l214 -748h-130l-36 133h-301l-83 -133h-143l475 748h4zM398 486l-150 -250h214zM475 997c60 0 101 -43 101 -99c0 -76 -64 -129 -134 -129c-61 0 -101 45 -101 100c0 75 63 128 134 128zM465 932c-27 0 -56 -23 -56 -56c0 -24 16 -41 42 -41s55 22 55 55
c0 25 -16 42 -41 42z" />
    <glyph glyph-name="Atilde" unicode="&#xc3;" horiz-adv-x="710" 
d="M439 748l214 -748h-130l-36 133h-301l-83 -133h-143l475 748h4zM398 486l-150 -250h214zM401 916c70 0 78 -75 117 -75c31 0 43 28 50 69h70c-16 -88 -70 -142 -130 -142c-74 0 -73 76 -117 76c-34 0 -44 -27 -51 -69h-70c15 91 70 141 131 141z" />
    <glyph glyph-name="Cacute" unicode="&#x106;" horiz-adv-x="681" 
d="M476 748c118 0 192 -42 251 -112l-87 -84c-34 49 -92 81 -171 81c-169 0 -300 -130 -300 -322c-2 -134 85 -209 200 -209c80 0 150 29 207 84l68 -99c-81 -70 -175 -100 -281 -100c-191 0 -322 123 -321 318c0 243 195 443 434 443zM722 899l-171 -117h-130l144 117h157z
" />
    <glyph glyph-name="Ccaron" unicode="&#x10c;" horiz-adv-x="681" 
d="M476 748c118 0 192 -42 251 -112l-87 -84c-34 49 -92 81 -171 81c-169 0 -300 -130 -300 -322c-2 -134 85 -209 200 -209c80 0 150 29 207 84l68 -99c-81 -70 -175 -100 -281 -100c-191 0 -322 123 -321 318c0 243 195 443 434 443zM675 921l-193 -149l-139 149h93
l56 -55l74 55h109z" />
    <glyph glyph-name="Ccircumflex" unicode="&#x108;" horiz-adv-x="681" 
d="M476 748c118 0 192 -42 251 -112l-87 -84c-34 49 -92 81 -171 81c-169 0 -300 -130 -300 -322c-2 -134 85 -209 200 -209c80 0 150 29 207 84l68 -99c-81 -70 -175 -100 -281 -100c-191 0 -322 123 -321 318c0 243 195 443 434 443zM508 931l140 -150h-94l-56 56l-73 -56
h-109z" />
    <glyph glyph-name="Cdotaccent" unicode="&#x10a;" horiz-adv-x="681" 
d="M476 748c118 0 192 -42 251 -112l-87 -84c-34 49 -92 81 -171 81c-169 0 -300 -130 -300 -322c-2 -134 85 -209 200 -209c80 0 150 29 207 84l68 -99c-81 -70 -175 -100 -281 -100c-191 0 -322 123 -321 318c0 243 195 443 434 443zM504 917c36 0 58 -23 58 -58
c0 -44 -38 -79 -79 -79c-37 0 -59 23 -59 56c0 45 38 81 80 81z" />
    <glyph glyph-name="Dcaron" unicode="&#x10e;" horiz-adv-x="735" 
d="M369 735c220 0 355 -120 355 -314c0 -253 -193 -421 -468 -421h-227l129 735h211zM362 620h-99l-89 -505h98c184 -3 325 118 325 306c0 127 -79 199 -235 199zM584 911l-193 -149l-139 149h93l56 -55l74 55h109z" />
    <glyph glyph-name="Eacute" unicode="&#xc9;" horiz-adv-x="584" 
d="M622 735l-20 -115h-339l-34 -193h296l-20 -109h-296l-35 -203h347l-20 -115h-472l129 735h464zM640 889l-171 -117h-130l144 117h157z" />
    <glyph glyph-name="Ebreve" unicode="&#x114;" horiz-adv-x="584" 
d="M622 735l-20 -115h-339l-34 -193h296l-20 -109h-296l-35 -203h347l-20 -115h-472l129 735h464zM584 923c-13 -98 -90 -152 -177 -152c-95 0 -150 66 -139 152h84c-8 -47 15 -82 61 -82c44 0 78 35 87 82h84z" />
    <glyph glyph-name="Ecaron" unicode="&#x11a;" horiz-adv-x="584" 
d="M622 735l-20 -115h-339l-34 -193h296l-20 -109h-296l-35 -203h347l-20 -115h-472l129 735h464zM595 911l-193 -149l-139 149h93l56 -55l74 55h109z" />
    <glyph glyph-name="Ecircumflex" unicode="&#xca;" horiz-adv-x="584" 
d="M622 735l-20 -115h-339l-34 -193h296l-20 -109h-296l-35 -203h347l-20 -115h-472l129 735h464zM427 921l140 -150h-94l-56 56l-73 -56h-109z" />
    <glyph glyph-name="Edieresis" unicode="&#xcb;" horiz-adv-x="584" 
d="M622 735l-20 -115h-339l-34 -193h296l-20 -109h-296l-35 -203h347l-20 -115h-472l129 735h464zM332 899c33 0 53 -21 53 -52c0 -39 -34 -71 -72 -71c-33 0 -53 21 -53 52c0 39 33 71 72 71zM513 899c32 0 52 -21 52 -52c0 -39 -34 -71 -71 -71c-33 0 -53 21 -53 52
c0 39 33 71 72 71z" />
    <glyph glyph-name="Edotaccent" unicode="&#x116;" horiz-adv-x="584" 
d="M622 735l-20 -115h-339l-34 -193h296l-20 -109h-296l-35 -203h347l-20 -115h-472l129 735h464zM424 907c36 0 58 -23 58 -58c0 -44 -38 -79 -79 -79c-37 0 -59 23 -59 56c0 45 38 81 80 81z" />
    <glyph glyph-name="Egrave" unicode="&#xc8;" horiz-adv-x="584" 
d="M622 735l-20 -115h-339l-34 -193h296l-20 -109h-296l-35 -203h347l-20 -115h-472l129 735h464zM350 889l118 -117h-116l-139 117h137z" />
    <glyph glyph-name="Emacron" unicode="&#x112;" horiz-adv-x="584" 
d="M622 735l-20 -115h-339l-34 -193h296l-20 -109h-296l-35 -203h347l-20 -115h-472l129 735h464zM550 869l-14 -83h-267l15 83h266z" />
    <glyph glyph-name="Gbreve" unicode="&#x11e;" horiz-adv-x="744" 
d="M476 748c119 0 193 -41 252 -112l-88 -84c-34 48 -94 81 -172 81c-166 0 -282 -118 -296 -296c-15 -141 69 -235 203 -235c61 0 116 15 161 43l27 146h-174l19 108h299l-56 -314c-80 -63 -172 -98 -285 -98c-211 0 -336 140 -322 345c16 229 202 416 432 416zM665 933
c-13 -98 -90 -152 -177 -152c-95 0 -150 66 -139 152h84c-8 -47 15 -82 61 -82c44 0 78 35 87 82h84z" />
    <glyph glyph-name="Gcircumflex" unicode="&#x11c;" horiz-adv-x="744" 
d="M476 748c119 0 193 -41 252 -112l-88 -84c-34 48 -94 81 -172 81c-166 0 -282 -118 -296 -296c-15 -141 69 -235 203 -235c61 0 116 15 161 43l27 146h-174l19 108h299l-56 -314c-80 -63 -172 -98 -285 -98c-211 0 -336 140 -322 345c16 229 202 416 432 416zM508 931
l140 -150h-94l-56 56l-73 -56h-109z" />
    <glyph glyph-name="Gdotaccent" unicode="&#x120;" horiz-adv-x="744" 
d="M476 748c119 0 193 -41 252 -112l-88 -84c-34 48 -94 81 -172 81c-166 0 -282 -118 -296 -296c-15 -141 69 -235 203 -235c61 0 116 15 161 43l27 146h-174l19 108h299l-56 -314c-80 -63 -172 -98 -285 -98c-211 0 -336 140 -322 345c16 229 202 416 432 416zM505 917
c36 0 58 -23 58 -58c0 -44 -38 -79 -79 -79c-37 0 -59 23 -59 56c0 45 38 81 80 81z" />
    <glyph glyph-name="Hcircumflex" unicode="&#x124;" horiz-adv-x="741" 
d="M742 735l-129 -735h-125l56 319h-334l-56 -319h-125l129 735h125l-53 -302h334l53 302h125zM481 921l140 -150h-94l-56 56l-73 -56h-109z" />
    <glyph glyph-name="Iacute" unicode="&#xcd;" horiz-adv-x="281" 
d="M283 735l-129 -735h-125l129 735h125zM465 889l-171 -117h-130l144 117h157z" />
    <glyph glyph-name="Ibreve" unicode="&#x12c;" horiz-adv-x="281" 
d="M283 735l-129 -735h-125l129 735h125zM411 923c-13 -98 -90 -152 -177 -152c-95 0 -150 66 -139 152h84c-8 -47 15 -82 61 -82c44 0 78 35 87 82h84z" />
    <glyph glyph-name="Idotaccent" unicode="&#x130;" horiz-adv-x="281" 
d="M283 735l-129 -735h-125l129 735h125zM248 907c36 0 58 -23 58 -58c0 -44 -38 -79 -79 -79c-37 0 -59 23 -59 56c0 45 38 81 80 81z" />
    <glyph glyph-name="Icircumflex" unicode="&#xce;" horiz-adv-x="281" 
d="M283 735l-129 -735h-125l129 735h125zM253 921l140 -150h-94l-56 56l-73 -56h-109z" />
    <glyph glyph-name="Idieresis" unicode="&#xcf;" horiz-adv-x="281" 
d="M283 735l-129 -735h-125l129 735h125zM156 894c33 0 53 -21 53 -52c0 -39 -34 -71 -72 -71c-33 0 -53 21 -53 52c0 39 33 71 72 71zM337 894c32 0 52 -21 52 -52c0 -39 -34 -71 -71 -71c-33 0 -53 21 -53 52c0 39 33 71 72 71z" />
    <glyph glyph-name="Igrave" unicode="&#xcc;" horiz-adv-x="281" 
d="M283 735l-129 -735h-125l129 735h125zM176 889l118 -117h-116l-139 117h137z" />
    <glyph glyph-name="Imacron" unicode="&#x12a;" horiz-adv-x="281" 
d="M283 735l-129 -735h-125l129 735h125zM375 869l-14 -83h-267l15 83h266z" />
    <glyph glyph-name="Itilde" unicode="&#x128;" horiz-adv-x="281" 
d="M283 735l-129 -735h-125l129 735h125zM189 916c70 0 78 -75 117 -75c31 0 43 28 50 69h70c-16 -88 -70 -142 -130 -142c-74 0 -73 76 -117 76c-34 0 -44 -27 -51 -69h-70c15 91 70 141 131 141z" />
    <glyph glyph-name="Jcircumflex" unicode="&#x134;" horiz-adv-x="553" 
d="M559 735l-92 -523c-26 -145 -125 -225 -262 -225c-117 0 -228 85 -200 249h120c-15 -86 24 -134 89 -134c69 0 116 42 129 119l91 514h125zM529 921l140 -150h-94l-56 56l-73 -56h-109z" />
    <glyph glyph-name="Lacute" unicode="&#x139;" horiz-adv-x="545" 
d="M283 735l-110 -624h333l-19 -111h-458l129 735h125zM465 889l-171 -117h-130l144 117h157z" />
    <glyph glyph-name="Nacute" unicode="&#x143;" horiz-adv-x="733" 
d="M735 735l-132 -748h-4l-363 479l-82 -466h-125l132 748h4l364 -481l81 468h125zM687 889l-171 -117h-130l144 117h157z" />
    <glyph glyph-name="Ncaron" unicode="&#x147;" horiz-adv-x="733" 
d="M735 735l-132 -748h-4l-363 479l-82 -466h-125l132 748h4l364 -481l81 468h125zM640 911l-193 -149l-139 149h93l56 -55l74 55h109z" />
    <glyph glyph-name="Ntilde" unicode="&#xd1;" horiz-adv-x="733" 
d="M735 735l-132 -748h-4l-363 479l-82 -466h-125l132 748h4l364 -481l81 468h125zM408 916c70 0 78 -75 117 -75c31 0 43 28 50 69h70c-16 -88 -70 -142 -130 -142c-74 0 -73 76 -117 76c-34 0 -44 -27 -51 -69h-70c15 91 70 141 131 141z" />
    <glyph glyph-name="Oacute" unicode="&#xd3;" horiz-adv-x="810" 
d="M488 748c192 0 312 -136 312 -322c0 -233 -199 -439 -446 -439c-192 0 -312 136 -312 322c0 233 199 439 446 439zM469 633c-166 0 -300 -151 -300 -319c0 -129 79 -212 204 -212c166 0 300 151 300 319c0 129 -78 212 -204 212zM732 899l-171 -117h-130l144 117h157z
" />
    <glyph glyph-name="Obreve" unicode="&#x14e;" horiz-adv-x="810" 
d="M488 748c192 0 312 -136 312 -322c0 -233 -199 -439 -446 -439c-192 0 -312 136 -312 322c0 233 199 439 446 439zM469 633c-166 0 -300 -151 -300 -319c0 -129 79 -212 204 -212c166 0 300 151 300 319c0 129 -78 212 -204 212zM675 933c-13 -98 -90 -152 -177 -152
c-95 0 -150 66 -139 152h84c-8 -47 15 -82 61 -82c44 0 78 35 87 82h84z" />
    <glyph glyph-name="Ocircumflex" unicode="&#xd4;" horiz-adv-x="810" 
d="M488 748c192 0 312 -136 312 -322c0 -233 -199 -439 -446 -439c-192 0 -312 136 -312 322c0 233 199 439 446 439zM469 633c-166 0 -300 -151 -300 -319c0 -129 79 -212 204 -212c166 0 300 151 300 319c0 129 -78 212 -204 212zM519 931l140 -150h-94l-56 56l-73 -56
h-109z" />
    <glyph glyph-name="Odieresis" unicode="&#xd6;" horiz-adv-x="810" 
d="M488 748c192 0 312 -136 312 -322c0 -233 -199 -439 -446 -439c-192 0 -312 136 -312 322c0 233 199 439 446 439zM469 633c-166 0 -300 -151 -300 -319c0 -129 79 -212 204 -212c166 0 300 151 300 319c0 129 -78 212 -204 212zM421 904c33 0 53 -21 53 -52
c0 -39 -34 -71 -72 -71c-33 0 -53 21 -53 52c0 39 33 71 72 71zM602 904c32 0 52 -21 52 -52c0 -39 -34 -71 -71 -71c-33 0 -53 21 -53 52c0 39 33 71 72 71z" />
    <glyph glyph-name="Ograve" unicode="&#xd2;" horiz-adv-x="810" 
d="M488 748c192 0 312 -136 312 -322c0 -233 -199 -439 -446 -439c-192 0 -312 136 -312 322c0 233 199 439 446 439zM469 633c-166 0 -300 -151 -300 -319c0 -129 79 -212 204 -212c166 0 300 151 300 319c0 129 -78 212 -204 212zM442 899l118 -117h-116l-139 117h137z
" />
    <glyph glyph-name="Ohungarumlaut" unicode="&#x150;" horiz-adv-x="810" 
d="M488 748c192 0 312 -136 312 -322c0 -233 -199 -439 -446 -439c-192 0 -312 136 -312 322c0 233 199 439 446 439zM469 633c-166 0 -300 -151 -300 -319c0 -129 79 -212 204 -212c166 0 300 151 300 319c0 129 -78 212 -204 212zM570 904l-122 -121h-99l109 121h112z
M749 904l-122 -121h-99l109 121h112z" />
    <glyph glyph-name="Omacron" unicode="&#x14c;" horiz-adv-x="810" 
d="M488 748c192 0 312 -136 312 -322c0 -233 -199 -439 -446 -439c-192 0 -312 136 -312 322c0 233 199 439 446 439zM469 633c-166 0 -300 -151 -300 -319c0 -129 79 -212 204 -212c166 0 300 151 300 319c0 129 -78 212 -204 212zM640 879l-14 -83h-267l15 83h266z" />
    <glyph glyph-name="Otilde" unicode="&#xd5;" horiz-adv-x="810" 
d="M488 748c192 0 312 -136 312 -322c0 -233 -199 -439 -446 -439c-192 0 -312 136 -312 322c0 233 199 439 446 439zM469 633c-166 0 -300 -151 -300 -319c0 -129 79 -212 204 -212c166 0 300 151 300 319c0 129 -78 212 -204 212zM453 926c70 0 78 -75 117 -75
c31 0 43 28 50 69h70c-16 -88 -70 -142 -130 -142c-74 0 -73 76 -117 76c-34 0 -44 -27 -51 -69h-70c15 91 70 141 131 141z" />
    <glyph glyph-name="Racute" unicode="&#x154;" horiz-adv-x="647" 
d="M409 735c135 0 235 -77 235 -200c0 -122 -76 -208 -181 -245l125 -290h-135l-115 270h-137l-47 -270h-125l129 735h251zM393 626h-128l-45 -247h129c86 0 168 49 168 148c-1 65 -48 99 -124 99zM630 889l-171 -117h-130l144 117h157z" />
    <glyph glyph-name="Rcaron" unicode="&#x158;" horiz-adv-x="647" 
d="M409 735c135 0 235 -77 235 -200c0 -122 -76 -208 -181 -245l125 -290h-135l-115 270h-137l-47 -270h-125l129 735h251zM393 626h-128l-45 -247h129c86 0 168 49 168 148c-1 65 -48 99 -124 99zM585 911l-193 -149l-139 149h93l56 -55l74 55h109z" />
    <glyph glyph-name="Sacute" unicode="&#x15a;" horiz-adv-x="593" 
d="M353 748c110 0 189 -37 241 -83l-79 -93c-38 37 -95 61 -167 61c-80 0 -147 -39 -147 -109c0 -50 36 -73 137 -95c153 -33 212 -94 212 -193c0 -165 -144 -249 -303 -249c-119 0 -205 40 -263 101l79 95c42 -51 117 -81 193 -81c97 0 166 45 166 114c0 50 -39 77 -133 98
c-163 35 -214 99 -214 190c0 141 117 244 278 244zM610 899l-171 -117h-130l144 117h157z" />
    <glyph glyph-name="Scaron" unicode="&#x160;" horiz-adv-x="593" 
d="M353 748c110 0 189 -37 241 -83l-79 -93c-38 37 -95 61 -167 61c-80 0 -147 -39 -147 -109c0 -50 36 -73 137 -95c153 -33 212 -94 212 -193c0 -165 -144 -249 -303 -249c-119 0 -205 40 -263 101l79 95c42 -51 117 -81 193 -81c97 0 166 45 166 114c0 50 -39 77 -133 98
c-163 35 -214 99 -214 190c0 141 117 244 278 244zM564 921l-193 -149l-139 149h93l56 -55l74 55h109z" />
    <glyph glyph-name="Scircumflex" unicode="&#x15c;" horiz-adv-x="593" 
d="M353 748c110 0 189 -37 241 -83l-79 -93c-38 37 -95 61 -167 61c-80 0 -147 -39 -147 -109c0 -50 36 -73 137 -95c153 -33 212 -94 212 -193c0 -165 -144 -249 -303 -249c-119 0 -205 40 -263 101l79 95c42 -51 117 -81 193 -81c97 0 166 45 166 114c0 50 -39 77 -133 98
c-163 35 -214 99 -214 190c0 141 117 244 278 244zM397 931l140 -150h-94l-56 56l-73 -56h-109z" />
    <glyph glyph-name="Tcaron" unicode="&#x164;" horiz-adv-x="655" 
d="M714 735l-18 -111h-250l-109 -624h-125l110 624h-249l19 111h622zM601 911l-193 -149l-139 149h93l56 -55l74 55h109z" />
    <glyph glyph-name="Uacute" unicode="&#xda;" horiz-adv-x="691" 
d="M703 735l-84 -474c-29 -172 -134 -274 -314 -274c-171 0 -269 105 -237 285l81 463h125l-82 -466c-17 -102 20 -167 122 -167c101 0 164 67 182 167l82 466h125zM667 889l-171 -117h-130l144 117h157z" />
    <glyph glyph-name="Ubreve" unicode="&#x16c;" horiz-adv-x="691" 
d="M703 735l-84 -474c-29 -172 -134 -274 -314 -274c-171 0 -269 105 -237 285l81 463h125l-82 -466c-17 -102 20 -167 122 -167c101 0 164 67 182 167l82 466h125zM611 923c-13 -98 -90 -152 -177 -152c-95 0 -150 66 -139 152h84c-8 -47 15 -82 61 -82c44 0 78 35 87 82
h84z" />
    <glyph glyph-name="Ucircumflex" unicode="&#xdb;" horiz-adv-x="691" 
d="M703 735l-84 -474c-29 -172 -134 -274 -314 -274c-171 0 -269 105 -237 285l81 463h125l-82 -466c-17 -102 20 -167 122 -167c101 0 164 67 182 167l82 466h125zM453 921l140 -150h-94l-56 56l-73 -56h-109z" />
    <glyph glyph-name="Udieresis" unicode="&#xdc;" horiz-adv-x="691" 
d="M703 735l-84 -474c-29 -172 -134 -274 -314 -274c-171 0 -269 105 -237 285l81 463h125l-82 -466c-17 -102 20 -167 122 -167c101 0 164 67 182 167l82 466h125zM356 894c33 0 53 -21 53 -52c0 -39 -34 -71 -72 -71c-33 0 -53 21 -53 52c0 39 33 71 72 71zM537 894
c32 0 52 -21 52 -52c0 -39 -34 -71 -71 -71c-33 0 -53 21 -53 52c0 39 33 71 72 71z" />
    <glyph glyph-name="Ugrave" unicode="&#xd9;" horiz-adv-x="691" 
d="M703 735l-84 -474c-29 -172 -134 -274 -314 -274c-171 0 -269 105 -237 285l81 463h125l-82 -466c-17 -102 20 -167 122 -167c101 0 164 67 182 167l82 466h125zM377 889l118 -117h-116l-139 117h137z" />
    <glyph glyph-name="Uhungarumlaut" unicode="&#x170;" horiz-adv-x="691" 
d="M703 735l-84 -474c-29 -172 -134 -274 -314 -274c-171 0 -269 105 -237 285l81 463h125l-82 -466c-17 -102 20 -167 122 -167c101 0 164 67 182 167l82 466h125zM505 894l-122 -121h-99l109 121h112zM684 894l-122 -121h-99l109 121h112z" />
    <glyph glyph-name="Umacron" unicode="&#x16a;" horiz-adv-x="691" 
d="M703 735l-84 -474c-29 -172 -134 -274 -314 -274c-171 0 -269 105 -237 285l81 463h125l-82 -466c-17 -102 20 -167 122 -167c101 0 164 67 182 167l82 466h125zM576 869l-14 -83h-267l15 83h266z" />
    <glyph glyph-name="Uring" unicode="&#x16e;" horiz-adv-x="691" 
d="M703 735l-84 -474c-29 -172 -134 -274 -314 -274c-171 0 -269 105 -237 285l81 463h125l-82 -466c-17 -102 20 -167 122 -167c101 0 164 67 182 167l82 466h125zM463 997c60 0 101 -43 101 -99c0 -76 -64 -129 -134 -129c-61 0 -101 45 -101 100c0 75 63 128 134 128z
M453 932c-27 0 -56 -23 -56 -56c0 -24 16 -41 42 -41s55 22 55 55c0 25 -16 42 -41 42z" />
    <glyph glyph-name="Utilde" unicode="&#x168;" horiz-adv-x="691" 
d="M703 735l-84 -474c-29 -172 -134 -274 -314 -274c-171 0 -269 105 -237 285l81 463h125l-82 -466c-17 -102 20 -167 122 -167c101 0 164 67 182 167l82 466h125zM389 916c70 0 78 -75 117 -75c31 0 43 28 50 69h70c-16 -88 -70 -142 -130 -142c-74 0 -73 76 -117 76
c-34 0 -44 -27 -51 -69h-70c15 91 70 141 131 141z" />
    <glyph glyph-name="Wacute" unicode="&#x1e82;" horiz-adv-x="971" 
d="M1034 735l-423 -746h-4l-100 451l-260 -451h-4l-163 746h128l88 -446l252 446h4l97 -443l240 443h145zM800 889l-171 -117h-130l144 117h157z" />
    <glyph glyph-name="Wcircumflex" unicode="&#x174;" horiz-adv-x="971" 
d="M1034 735l-423 -746h-4l-100 451l-260 -451h-4l-163 746h128l88 -446l252 446h4l97 -443l240 443h145zM587 921l140 -150h-94l-56 56l-73 -56h-109z" />
    <glyph glyph-name="Wdieresis" unicode="&#x1e84;" horiz-adv-x="971" 
d="M1034 735l-423 -746h-4l-100 451l-260 -451h-4l-163 746h128l88 -446l252 446h4l97 -443l240 443h145zM490 894c33 0 53 -21 53 -52c0 -39 -34 -71 -72 -71c-33 0 -53 21 -53 52c0 39 33 71 72 71zM671 894c32 0 52 -21 52 -52c0 -39 -34 -71 -71 -71
c-33 0 -53 21 -53 52c0 39 33 71 72 71z" />
    <glyph glyph-name="Wgrave" unicode="&#x1e80;" horiz-adv-x="971" 
d="M1034 735l-423 -746h-4l-100 451l-260 -451h-4l-163 746h128l88 -446l252 446h4l97 -443l240 443h145zM510 889l118 -117h-116l-139 117h137z" />
    <glyph glyph-name="Yacute" unicode="&#xdd;" horiz-adv-x="677" 
d="M738 735l-345 -429l-54 -306h-125l54 304l-196 431h138l135 -305l240 305h153zM646 889l-171 -117h-130l144 117h157z" />
    <glyph glyph-name="Ycircumflex" unicode="&#x176;" horiz-adv-x="677" 
d="M738 735l-345 -429l-54 -306h-125l54 304l-196 431h138l135 -305l240 305h153zM433 921l140 -150h-94l-56 56l-73 -56h-109z" />
    <glyph glyph-name="Ydieresis" unicode="&#x178;" horiz-adv-x="677" 
d="M738 735l-345 -429l-54 -306h-125l54 304l-196 431h138l135 -305l240 305h153zM335 894c33 0 53 -21 53 -52c0 -39 -34 -71 -72 -71c-33 0 -53 21 -53 52c0 39 33 71 72 71zM516 894c32 0 52 -21 52 -52c0 -39 -34 -71 -71 -71c-33 0 -53 21 -53 52c0 39 33 71 72 71z
" />
    <glyph glyph-name="Ygrave" unicode="&#x1ef2;" horiz-adv-x="677" 
d="M738 735l-345 -429l-54 -306h-125l54 304l-196 431h138l135 -305l240 305h153zM356 889l118 -117h-116l-139 117h137z" />
    <glyph glyph-name="Zacute" unicode="&#x179;" horiz-adv-x="586" 
d="M632 735v-4l-440 -620h341l-19 -111h-538v4l440 620h-316l20 111h512zM621 889l-171 -117h-130l144 117h157z" />
    <glyph glyph-name="Zcaron" unicode="&#x17d;" horiz-adv-x="586" 
d="M632 735v-4l-440 -620h341l-19 -111h-538v4l440 620h-316l20 111h512zM575 911l-193 -149l-139 149h93l56 -55l74 55h109z" />
    <glyph glyph-name="Zdotaccent" unicode="&#x17b;" horiz-adv-x="586" 
d="M632 735v-4l-440 -620h341l-19 -111h-538v4l440 620h-316l20 111h512zM404 907c36 0 58 -23 58 -58c0 -44 -38 -79 -79 -79c-37 0 -59 23 -59 56c0 45 38 81 80 81z" />
    </font>
</defs>
</svg>
