<?xml version="1.0" standalone="no"?>
<!DOCTYPE svg PUBLIC "-//W3C//DTD SVG 1.1//EN" "http://www.w3.org/Graphics/SVG/1.1/DTD/svg11.dtd" >
<svg xmlns="http://www.w3.org/2000/svg" xmlns:xlink="http://www.w3.org/1999/xlink" version="1.1">
<metadata>
Created by FontForge 20161116 at Mon Oct 21 17:44:14 2013
 By Jimmy Wärting
Copyright (c) 2013 by Nico Inosanto. All rights reserved.
</metadata>
<defs>
<font id="Radikal-Black" horiz-adv-x="600" >
  <font-face 
    font-family="Radikal Black"
    font-weight="900"
    font-stretch="normal"
    units-per-em="1000"
    panose-1="0 0 0 0 0 0 0 0 0 0"
    ascent="750"
    descent="-250"
    x-height="510"
    cap-height="735"
    bbox="-192 -354 1317 1114"
    underline-thickness="50"
    underline-position="-100"
    unicode-range="U+0020-FB01"
  />
<missing-glyph horiz-adv-x="586" 
d="M55 700h476v-700h-476v700zM422 624h-260l130 -207zM456 535l-121 -189l121 -189v378zM292 275l-127 -199h253zM131 530v-368l116 184z" />
    <glyph glyph-name="fi" unicode="fi" horiz-adv-x="713" 
d="M324 760c44 0 75 -7 97 -16l-45 -153c-9 5 -21 10 -42 10c-32 0 -49 -21 -49 -58v-33h101v-154h-101v-356h-184v356h-86v154h86v27c0 129 86 223 223 223zM653 510v-510h-184v510h184zM561 772c60 0 103 -43 103 -103s-43 -103 -103 -103s-103 43 -103 103
s43 103 103 103z" />
    <glyph glyph-name="f_j" unicode="fj" horiz-adv-x="713" 
d="M324 760c44 0 75 -7 97 -16l-45 -153c-9 5 -21 10 -42 10c-32 0 -49 -21 -49 -58v-33h101v-154h-101v-356h-184v356h-86v154h86v27c0 129 86 223 223 223zM653 510v-516c0 -134 -100 -234 -240 -234c-79 0 -146 27 -196 80l118 122c16 -19 42 -43 74 -43
c37 0 60 22 60 61v530h184zM561 772c60 0 103 -43 103 -103s-43 -103 -103 -103s-103 43 -103 103s43 103 103 103z" />
    <glyph glyph-name=".notdef" horiz-adv-x="586" 
d="M55 700h476v-700h-476v700zM422 624h-260l130 -207zM456 535l-121 -189l121 -189v378zM292 275l-127 -199h253zM131 530v-368l116 184z" />
    <glyph glyph-name=".null" horiz-adv-x="0" 
 />
    <glyph glyph-name="CR" horiz-adv-x="250" 
 />
    <glyph glyph-name="space" unicode=" " horiz-adv-x="220" 
 />
    <glyph glyph-name="q" unicode="q" horiz-adv-x="619" 
d="M246 520c68 0 115 -27 139 -63l10 53h164v-740h-184v270c-20 -23 -59 -50 -129 -50c-132 0 -222 112 -222 265s90 265 222 265zM295 361c-51 0 -85 -38 -85 -106s34 -106 85 -106c39 0 64 21 80 48v117c-16 26 -41 47 -80 47z" />
    <glyph glyph-name="r" unicode="r" horiz-adv-x="393" 
d="M378 520v-182h-15c-57 0 -94 -25 -119 -54v-284h-184v510h163l11 -65c25 42 76 75 144 75z" />
    <glyph glyph-name="a" unicode="a" horiz-adv-x="619" 
d="M246 520c68 0 115 -27 139 -63l10 53h164v-510h-164l-10 52c-24 -35 -71 -62 -139 -62c-132 0 -222 112 -222 265s90 265 222 265zM295 361c-51 0 -85 -38 -85 -106s34 -106 85 -106c39 0 64 21 80 47v118c-16 26 -41 47 -80 47z" />
    <glyph glyph-name="b" unicode="b" horiz-adv-x="619" 
d="M244 760v-290c20 23 59 50 129 50c132 0 222 -112 222 -265s-90 -265 -222 -265c-68 0 -115 27 -140 62l-9 -52h-164v760h184zM324 361c-39 0 -64 -21 -80 -48v-117c16 -26 41 -47 80 -47c51 0 85 38 85 106s-34 106 -85 106z" />
    <glyph glyph-name="d" unicode="d" horiz-adv-x="619" 
d="M559 760v-760h-164l-10 52c-24 -35 -71 -62 -139 -62c-132 0 -222 112 -222 265s90 265 222 265c70 0 109 -27 129 -50v290h184zM295 361c-51 0 -85 -38 -85 -106s34 -106 85 -106c39 0 64 21 80 47v117c-16 27 -41 48 -80 48z" />
    <glyph glyph-name="c" unicode="c" horiz-adv-x="511" 
d="M294 520c97 0 168 -45 214 -121l-128 -94c-17 37 -43 57 -85 57c-55 0 -85 -49 -85 -107s30 -107 85 -107c41 0 69 21 87 58l126 -95c-46 -76 -117 -121 -214 -121c-154 0 -270 112 -270 265s116 265 270 265z" />
    <glyph glyph-name="e" unicode="e" horiz-adv-x="564" 
d="M291 520c166 0 242 -118 242 -257v-52h-323c2 -45 32 -72 88 -72c38 0 73 17 93 42l125 -100c-56 -62 -125 -91 -222 -91c-162 0 -270 111 -270 264s108 266 267 266zM283 390c-44 0 -72 -35 -73 -76h142c-1 40 -25 76 -69 76z" />
    <glyph glyph-name="l" unicode="l" horiz-adv-x="304" 
d="M244 760v-760h-184v760h184z" />
    <glyph glyph-name="f" unicode="f" horiz-adv-x="409" 
d="M324 760c53 0 95 -11 124 -29l-63 -148c-10 9 -29 18 -50 18c-33 0 -50 -20 -50 -58v-33h101v-154h-101v-356h-184v356h-86v154h86v23c0 133 85 227 223 227z" />
    <glyph glyph-name="g" unicode="g" horiz-adv-x="620" 
d="M247 520c68 0 115 -27 139 -63l10 53h164v-483c0 -166 -114 -267 -289 -267c-124 0 -201 46 -262 112l119 121c35 -39 75 -74 141 -74c67 0 105 47 107 104v37c-20 -23 -59 -50 -129 -50c-132 0 -222 108 -222 255s90 255 222 255zM296 361c-51 0 -85 -34 -85 -96
s34 -96 85 -96c39 0 64 21 80 48v97c-16 26 -41 47 -80 47z" />
    <glyph glyph-name="h" unicode="h" horiz-adv-x="606" 
d="M244 760v-287c25 28 67 47 121 47c126 0 191 -89 191 -231v-289h-184v279c0 41 -21 69 -58 69c-36 0 -60 -23 -70 -44v-304h-184v760h184z" />
    <glyph glyph-name="i" unicode="i" horiz-adv-x="304" 
d="M244 510v-510h-184v510h184zM152 772c60 0 103 -43 103 -103s-43 -103 -103 -103s-103 43 -103 103s43 103 103 103z" />
    <glyph glyph-name="j" unicode="j" horiz-adv-x="304" 
d="M244 510v-516c0 -134 -100 -234 -240 -234c-79 0 -146 27 -196 80l118 122c16 -19 42 -43 74 -43c37 0 60 22 60 61v530h184zM152 772c60 0 103 -43 103 -103s-43 -103 -103 -103s-103 43 -103 103s43 103 103 103z" />
    <glyph glyph-name="k" unicode="k" horiz-adv-x="606" 
d="M244 760v-464l134 214h220l-155 -200l162 -310h-207l-79 149l-115 -149h-144v760h184z" />
    <glyph glyph-name="s" unicode="s" horiz-adv-x="482" 
d="M271 520c72 0 143 -19 182 -54l-65 -126c-27 23 -68 43 -117 43c-33 0 -47 -10 -47 -27c0 -15 11 -24 81 -41c99 -24 150 -72 150 -148c0 -106 -88 -177 -236 -177c-77 0 -156 22 -198 60l67 126c31 -27 77 -49 132 -49c34 0 51 8 51 27c0 17 -9 29 -70 44
c-108 27 -161 66 -161 145c0 106 84 177 231 177z" />
    <glyph glyph-name="u" unicode="u" horiz-adv-x="605" 
d="M545 510v-510h-164l-9 51c-25 -36 -69 -61 -137 -61c-123 0 -185 89 -185 231v289h184v-279c0 -41 18 -69 56 -69c37 0 59 23 71 44v304h184z" />
    <glyph glyph-name="t" unicode="t" horiz-adv-x="443" 
d="M279 677v-167h135v-154h-135v-149c0 -32 22 -53 57 -53c27 0 46 7 60 14l44 -144c-29 -18 -69 -34 -122 -34c-138 0 -223 78 -223 215v151h-86v154h86v167h184z" />
    <glyph glyph-name="v" unicode="v" 
d="M595 510l-293 -520h-4l-293 520h206l89 -201l89 201h206z" />
    <glyph glyph-name="w" unicode="w" horiz-adv-x="782" 
d="M777 510l-258 -520h-4l-124 214l-125 -214h-4l-257 520h206l73 -201l105 201h4l104 -201l74 201h206z" />
    <glyph glyph-name="x" unicode="x" horiz-adv-x="557" 
d="M550 510l-148 -253l155 -257h-216l-66 125l-65 -125h-216l155 257l-148 253h213l61 -125l62 125h213z" />
    <glyph glyph-name="y" unicode="y" 
d="M595 510l-414 -740h-210l230 391l-196 349h206l88 -201l90 201h206z" />
    <glyph glyph-name="z" unicode="z" horiz-adv-x="498" 
d="M475 510v-4l-181 -352h179v-154h-452v4l181 352h-169v154h442z" />
    <glyph glyph-name="p" unicode="p" horiz-adv-x="619" 
d="M373 520c132 0 222 -112 222 -265s-90 -265 -222 -265c-70 0 -109 27 -129 50v-270h-184v740h164l9 -53c25 36 72 63 140 63zM324 361c-39 0 -64 -21 -80 -47v-117c16 -27 41 -48 80 -48c51 0 85 38 85 106s-34 106 -85 106z" />
    <glyph glyph-name="L" unicode="L" horiz-adv-x="548" 
d="M257 735v-568h286v-167h-476v735h190z" />
    <glyph glyph-name="N" unicode="N" horiz-adv-x="743" 
d="M676 735v-748h-4l-415 360v-347h-190v748h4l415 -360v347h190z" />
    <glyph glyph-name="O" unicode="O" horiz-adv-x="820" 
d="M410 748c218 0 383 -161 383 -382c0 -219 -165 -379 -383 -379c-219 0 -383 160 -383 379c0 221 164 382 383 382zM410 575c-112 0 -190 -86 -190 -209c0 -121 78 -206 190 -206s190 85 190 206c0 123 -78 209 -190 209z" />
    <glyph glyph-name="E" unicode="E" horiz-adv-x="603" 
d="M556 735v-173h-299v-110h257v-159h-257v-120h307v-173h-497v735h489z" />
    <glyph glyph-name="F" unicode="F" horiz-adv-x="567" 
d="M542 735v-173h-285v-121h232v-159h-232v-282h-190v735h475z" />
    <glyph glyph-name="D" unicode="D" horiz-adv-x="743" 
d="M309 735c254 0 407 -135 407 -367s-151 -368 -407 -368h-242v735h242zM303 561h-46v-388h46c147 0 220 72 220 194c0 123 -73 194 -220 194z" />
    <glyph glyph-name="C" unicode="C" horiz-adv-x="683" 
d="M410 748c120 0 197 -37 270 -113l-119 -138c-33 42 -82 78 -151 78c-117 0 -190 -86 -190 -207s73 -208 190 -208c69 0 118 36 151 78l118 -138c-75 -83 -161 -113 -269 -113c-224 0 -383 164 -383 381s159 380 383 380z" />
    <glyph glyph-name="H" unicode="H" horiz-adv-x="762" 
d="M695 735v-735h-190v290h-248v-290h-190v735h190v-272h248v272h190z" />
    <glyph glyph-name="B" unicode="B" horiz-adv-x="685" 
d="M369 735c142 0 236 -75 236 -203c0 -65 -29 -109 -59 -134c68 -30 117 -81 117 -178c0 -142 -114 -220 -246 -220h-350v735h302zM393 303h-136v-130h136c45 0 77 23 77 65s-32 65 -77 65zM343 562h-86v-116h86c40 0 69 21 69 58s-29 58 -69 58z" />
    <glyph glyph-name="A" unicode="A" horiz-adv-x="744" 
d="M374 748l368 -748h-213l-34 86h-246l-34 -86h-213l368 748h4zM372 400l-67 -172h134z" />
    <glyph glyph-name="G" unicode="G" horiz-adv-x="755" 
d="M410 748c120 0 197 -37 270 -113l-119 -138c-33 42 -82 78 -151 78c-117 0 -190 -86 -190 -207s77 -208 200 -208c34 0 63 11 88 25v85h-137v163h327v-341c-72 -71 -166 -105 -278 -105c-230 0 -393 164 -393 381s159 380 383 380z" />
    <glyph glyph-name="I" unicode="I" horiz-adv-x="324" 
d="M257 735v-735h-190v735h190z" />
    <glyph glyph-name="J" unicode="J" horiz-adv-x="589" 
d="M533 735v-508c0 -140 -107 -240 -255 -240c-135 0 -263 91 -263 276h184c0 -67 22 -103 72 -103c46 0 72 33 72 78v497h190z" />
    <glyph glyph-name="K" unicode="K" horiz-adv-x="736" 
d="M683 735l-222 -353l269 -382h-228l-148 213l-144 -213h-143v735h190v-353l202 353h224z" />
    <glyph glyph-name="M" unicode="M" horiz-adv-x="899" 
d="M832 748v-748h-190v236l-188 -249h-8l-189 250v-237h-190v748h4l379 -478l378 478h4z" />
    <glyph glyph-name="P" unicode="P" horiz-adv-x="674" 
d="M389 735c137 0 261 -91 261 -251s-124 -251 -261 -251h-132v-233h-190v735h322zM370 572h-113v-176h113c51 0 87 29 87 88c0 56 -36 88 -87 88z" />
    <glyph glyph-name="R" unicode="R" horiz-adv-x="689" 
d="M389 735c137 0 262 -90 262 -246c0 -100 -52 -173 -125 -212l162 -277h-221l-141 244h-69v-244h-190v735h322zM371 572h-114v-165h114c51 0 87 30 87 82s-36 83 -87 83z" />
    <glyph glyph-name="S" unicode="S" horiz-adv-x="615" 
d="M306 748c109 0 208 -29 270 -77l-98 -157c-42 34 -95 61 -173 61c-54 0 -80 -18 -80 -53c0 -25 18 -43 117 -60c199 -41 254 -117 254 -229c0 -148 -108 -246 -290 -246c-115 0 -222 35 -297 101l102 158c47 -52 129 -86 201 -86c65 0 94 19 94 55c0 26 -21 44 -120 62
c-198 42 -252 129 -252 235c0 134 105 236 272 236z" />
    <glyph glyph-name="T" unicode="T" horiz-adv-x="672" 
d="M655 735v-167h-224v-568h-190v568h-224v167h638z" />
    <glyph glyph-name="U" unicode="U" horiz-adv-x="698" 
d="M640 735v-467c0 -168 -101 -281 -291 -281s-291 113 -291 281v467h190v-454c0 -71 34 -121 101 -121s101 50 101 121v454h190z" />
    <glyph glyph-name="V" unicode="V" horiz-adv-x="724" 
d="M720 735l-356 -745h-4l-356 745h211l147 -364l147 364h211z" />
    <glyph glyph-name="W" unicode="W" horiz-adv-x="950" 
d="M946 735l-308 -745h-4l-159 345l-159 -345h-4l-308 745h211l117 -331l141 331h4l141 -331l117 331h211z" />
    <glyph glyph-name="X" unicode="X" horiz-adv-x="717" 
d="M698 735l-205 -363l215 -372h-218l-132 235l-131 -235h-218l215 372l-205 363h219l120 -224l121 224h219z" />
    <glyph glyph-name="Y" unicode="Y" horiz-adv-x="724" 
d="M722 735l-264 -442v-293h-190v290l-266 445h221l139 -254l139 254h221z" />
    <glyph glyph-name="Z" unicode="Z" horiz-adv-x="604" 
d="M572 735v-4l-272 -568h282v-163h-568v4l273 568h-259v163h544z" />
    <glyph glyph-name="n" unicode="n" horiz-adv-x="606" 
d="M365 520c126 0 191 -89 191 -231v-289h-184v279c0 41 -21 69 -58 69c-36 0 -60 -23 -70 -44v-304h-184v510h164l9 -51c23 36 69 61 132 61z" />
    <glyph glyph-name="o" unicode="o" horiz-adv-x="597" 
d="M298 520c158 0 275 -113 275 -266s-117 -264 -275 -264s-274 111 -274 264s116 266 274 266zM298 361c-51 0 -88 -46 -88 -107c0 -60 37 -105 88 -105s89 45 89 105c0 61 -38 107 -89 107z" />
    <glyph glyph-name="m" unicode="m" horiz-adv-x="906" 
d="M368 520c69 0 119 -30 149 -83c34 49 82 83 157 83c120 0 182 -89 182 -231v-289h-184v279c0 41 -17 69 -53 69c-35 0 -57 -23 -69 -44v-304h-184v279c0 41 -17 69 -53 69c-35 0 -57 -23 -69 -44v-304h-184v510h164l9 -51c24 35 68 61 135 61z" />
    <glyph glyph-name="Q" unicode="Q" horiz-adv-x="820" 
d="M410 748c218 0 383 -161 383 -382c0 -95 -31 -179 -84 -243l161 -185h-228l-72 81c-48 -20 -102 -32 -160 -32c-219 0 -383 160 -383 379c0 221 164 382 383 382zM410 575c-112 0 -190 -86 -190 -209c0 -121 78 -206 190 -206c11 0 23 1 34 3l-83 94l134 112l86 -99
c12 28 19 60 19 96c0 123 -78 209 -190 209z" />
    <glyph glyph-name="zero" unicode="0" 
d="M300 748c168 0 272 -148 272 -380c0 -233 -104 -381 -272 -381s-272 148 -272 381c0 232 104 380 272 380zM300 587c-62 0 -85 -88 -85 -219c0 -132 23 -220 85 -220s85 88 85 220c0 131 -23 219 -85 219z" />
    <glyph glyph-name="one" unicode="1" horiz-adv-x="415" 
d="M349 748v-748h-184v455l-90 -43l-73 171l343 165h4z" />
    <glyph glyph-name="two" unicode="2" horiz-adv-x="537" 
d="M252 748c157 0 257 -103 257 -242c0 -75 -32 -133 -76 -197l-101 -146h180v-163h-488v6l253 396c33 52 45 73 45 109c0 45 -28 74 -70 74c-47 0 -72 -34 -80 -99l-167 38c28 153 114 224 247 224z" />
    <glyph glyph-name="three" unicode="3" horiz-adv-x="524" 
d="M256 748c152 0 248 -103 248 -233c0 -68 -31 -115 -73 -144c48 -28 83 -77 83 -150c0 -136 -98 -234 -255 -234c-133 0 -224 71 -252 224l167 38c8 -65 35 -99 84 -99c42 0 71 30 71 76s-29 76 -71 76h-76v140h76c36 2 63 29 63 71c0 44 -29 72 -67 72
c-36 0 -64 -26 -71 -80l-160 67c32 111 116 176 233 176z" />
    <glyph glyph-name="five" unicode="5" horiz-adv-x="554" 
d="M492 735v-163h-248v-105c10 3 22 5 39 5c136 0 252 -68 252 -246c0 -142 -98 -239 -255 -239c-123 0 -219 51 -255 170l156 75c6 -58 43 -82 86 -82c47 0 83 33 83 85s-35 87 -86 87c-38 0 -64 -19 -75 -31l-129 56v388h432z" />
    <glyph glyph-name="six" unicode="6" horiz-adv-x="574" 
d="M490 735l-153 -250c120 -22 212 -119 212 -247c0 -147 -119 -251 -263 -251c-143 0 -261 104 -261 251c0 56 17 106 47 147l212 350h206zM286 329c-43 0 -74 -35 -74 -91s31 -90 74 -90c44 0 76 34 76 90s-32 91 -76 91z" />
    <glyph glyph-name="nine" unicode="9" horiz-adv-x="574" 
d="M288 748c143 0 261 -104 261 -251c0 -56 -18 -107 -47 -147l-212 -350h-206l152 249c-120 22 -211 120 -211 248c0 147 119 251 263 251zM288 587c-44 0 -76 -34 -76 -90s32 -91 76 -91c43 0 74 35 74 91s-31 90 -74 90z" />
    <glyph glyph-name="four" unicode="4" horiz-adv-x="595" 
d="M501 748v-534h70v-129h-70v-85h-184v85h-326v4l506 659h4zM336 349l-107 -140h107v140z" />
    <glyph glyph-name="seven" unicode="7" horiz-adv-x="555" 
d="M560 735v-6l-341 -729h-198l269 568h-268v167h538z" />
    <glyph glyph-name="eight" unicode="8" horiz-adv-x="574" 
d="M286 748c130 0 239 -90 239 -218c0 -59 -26 -108 -67 -143c55 -40 91 -98 91 -164c0 -141 -119 -236 -263 -236c-143 0 -261 95 -261 236c0 66 34 124 89 163c-42 35 -67 84 -67 144c0 128 108 218 239 218zM286 303c-43 0 -74 -34 -74 -81s31 -80 74 -80
c44 0 76 33 76 80s-32 81 -76 81zM286 595c-40 0 -69 -31 -69 -74s29 -73 69 -73c39 0 69 30 69 73s-30 74 -69 74z" />
    <glyph glyph-name="ampersand" unicode="&#x26;" horiz-adv-x="727" 
d="M297 748c136 0 223 -79 223 -186c0 -97 -73 -141 -129 -178l74 -82l57 79h208l-146 -211l153 -170h-232l-39 45c-52 -35 -114 -55 -192 -55c-133 0 -253 74 -253 209c0 96 49 143 134 196c-43 46 -81 97 -81 167c0 107 87 186 223 186zM286 148c27 0 51 8 71 21l-106 121
c-28 -19 -43 -42 -43 -76c0 -42 30 -66 78 -66zM245 554c0 -26 24 -47 51 -70c30 18 55 34 55 70c0 29 -22 47 -51 47c-30 0 -55 -18 -55 -47z" />
    <glyph glyph-name="germandbls" unicode="&#xdf;" horiz-adv-x="665" 
d="M332 748c160 0 258 -94 258 -223c0 -59 -26 -100 -56 -124c54 -22 104 -79 104 -179c0 -141 -98 -235 -262 -235c-37 0 -68 6 -93 16l29 161c16 -8 32 -14 57 -14c43 0 76 30 76 74c0 35 -21 60 -63 72c-17 5 -38 7 -62 7v138c19 0 36 6 49 15c18 12 30 32 30 55
c0 47 -36 75 -78 75c-43 0 -77 -28 -77 -88v-498h-184v487c0 153 126 261 272 261z" />
    <glyph glyph-name="section" unicode="&#xa7;" horiz-adv-x="480" 
d="M239 383c-31 0 -53 -26 -53 -60c0 -33 22 -58 53 -58c30 0 53 25 53 58c0 34 -23 60 -53 60zM263 748c79 0 132 -30 172 -75l-101 -110c-17 23 -37 38 -72 38c-39 0 -57 -21 -57 -50c0 -22 12 -36 32 -44c17 -7 33 -6 52 -10c97 -17 164 -85 164 -174
c0 -53 -24 -97 -63 -129c28 -22 49 -55 49 -106c0 -100 -84 -189 -228 -189c-74 0 -146 26 -193 89l109 110c17 -30 45 -52 85 -52c39 0 57 21 57 50c0 17 -8 30 -21 39c-18 11 -36 9 -57 14c-99 17 -166 84 -166 174c0 51 22 96 60 127c-28 23 -50 57 -50 109
c0 100 84 189 228 189z" />
    <glyph glyph-name="paragraph" unicode="&#xb6;" horiz-adv-x="798" 
d="M773 735v-140h-79v-705h-152v705h-92v-705h-152v413h-2c-149 0 -272 66 -272 211c0 148 116 221 274 221h475z" />
    <glyph glyph-name="at" unicode="@" horiz-adv-x="892" 
d="M445 656c252 0 423 -164 423 -404c0 -134 -73 -231 -192 -231c-72 0 -122 33 -140 65l-2 3c-27 -34 -77 -68 -132 -68c-109 0 -184 93 -184 219c0 127 75 220 184 220c55 0 95 -23 115 -52l8 44h136v-284c0 -23 7 -43 36 -43c41 0 63 49 63 127c0 180 -116 304 -315 304
c-186 0 -313 -132 -313 -316s123 -313 303 -313c46 0 89 8 128 24l26 -95c-47 -19 -99 -29 -154 -29c-239 0 -411 174 -411 413s176 416 421 416zM442 328c-42 0 -70 -31 -70 -88c0 -56 28 -87 70 -87c33 0 53 17 67 39v97c-14 22 -34 39 -67 39z" />
    <glyph glyph-name="endash" unicode="&#x2013;" horiz-adv-x="545" 
d="M510 342v-167h-475v167h475z" />
    <glyph glyph-name="emdash" unicode="&#x2014;" horiz-adv-x="790" 
d="M755 342v-167h-720v167h720z" />
    <glyph glyph-name="hyphen" unicode="-" horiz-adv-x="426" 
d="M391 342v-167h-356v167h356z" />
    <glyph glyph-name="period" unicode="." horiz-adv-x="284" 
d="M142 204c62 0 107 -45 107 -107s-45 -107 -107 -107s-107 45 -107 107s45 107 107 107z" />
    <glyph glyph-name="comma" unicode="," horiz-adv-x="230" 
d="M88 200c62 0 107 -46 107 -107c0 -28 -11 -50 -23 -68l-123 -189h-4v356c14 5 27 8 43 8z" />
    <glyph glyph-name="quoteright" unicode="&#x2019;" horiz-adv-x="230" 
d="M88 764c62 0 107 -46 107 -107c0 -28 -11 -50 -23 -68l-123 -189h-4v356c14 5 27 8 43 8z" />
    <glyph glyph-name="quoteleft" unicode="&#x2018;" horiz-adv-x="230" 
d="M185 821v-356c-14 -5 -27 -8 -43 -8c-62 0 -107 46 -107 107c0 28 11 50 23 68l123 189h4z" />
    <glyph glyph-name="quotesingle" unicode="'" horiz-adv-x="210" 
d="M50 758l165 -28l-79 -287h-66z" />
    <glyph glyph-name="dollar" unicode="$" horiz-adv-x="608" 
d="M390 869v-128c72 -12 135 -36 179 -70l-98 -157c-42 34 -95 61 -173 61c-54 0 -80 -18 -80 -53c0 -25 18 -43 117 -60c199 -41 254 -117 254 -229c0 -122 -73 -210 -199 -237v-125h-151v119c-92 10 -175 43 -237 98l102 158c47 -52 129 -86 201 -86c65 0 94 19 94 55
c0 26 -21 44 -120 62c-198 42 -252 129 -252 235c0 117 80 210 212 231v126h151z" />
    <glyph glyph-name="minus" unicode="&#x2212;" horiz-adv-x="532" 
d="M499 433v-167h-466v167h466z" />
    <glyph glyph-name="plus" unicode="+" horiz-adv-x="532" 
d="M349 582v-149h150v-167h-150v-150h-167v150h-149v167h149v149h167z" />
    <glyph glyph-name="multiply" unicode="&#xd7;" horiz-adv-x="519" 
d="M370 578l118 -118l-111 -111l111 -111l-118 -118l-111 111l-110 -110l-118 118l110 110l-110 110l118 118l110 -110z" />
    <glyph glyph-name="parenleft" unicode="(" horiz-adv-x="346" 
d="M190 720l141 -97c-65 -81 -120 -171 -120 -334s55 -253 120 -334l-141 -97c-73 94 -152 227 -152 431s79 337 152 431z" />
    <glyph glyph-name="parenright" unicode=")" horiz-adv-x="346" 
d="M156 720c73 -94 152 -227 152 -431s-79 -337 -152 -431l-141 97c65 81 120 171 120 334s-55 253 -120 334z" />
    <glyph glyph-name="asterisk" unicode="*" horiz-adv-x="447" 
d="M287 734l-9 -115l107 45l39 -120l-113 -27l74 -87l-101 -73l-60 88l-60 -88l-101 73l74 87l-113 27l39 120l107 -45l-9 115h126z" />
    <glyph glyph-name="slash" unicode="/" horiz-adv-x="559" 
d="M554 735l-363 -735h-186l364 735h185z" />
    <glyph glyph-name="percent" unicode="%" horiz-adv-x="921" 
d="M782 735l-468 -735h-173l468 735h173zM213 747c109 0 191 -81 191 -190s-82 -188 -191 -188c-111 0 -192 79 -192 188s81 190 192 190zM213 619c-33 0 -56 -26 -56 -62c0 -34 23 -60 56 -60c31 0 55 26 55 60c0 36 -24 62 -55 62zM709 365c109 0 191 -81 191 -190
s-82 -188 -191 -188c-111 0 -192 79 -192 188s81 190 192 190zM709 237c-33 0 -56 -26 -56 -62c0 -34 23 -60 56 -60c31 0 55 26 55 60c0 36 -24 62 -55 62z" />
    <glyph glyph-name="Euro" unicode="&#x20ac;" horiz-adv-x="670" 
d="M437 337v-114h-122c24 -47 63 -73 112 -73c55 0 94 31 121 73l112 -131c-60 -71 -137 -105 -233 -105c-151 0 -268 86 -313 236h-87v114h68c-1 10 -1 20 -1 31c0 12 0 24 1 36h-68v114h88c46 146 163 230 312 230c96 0 173 -34 233 -105l-112 -131c-27 42 -66 73 -121 73
c-47 0 -85 -24 -109 -67h119v-114h-149c-1 -12 -1 -24 -1 -36c0 -11 0 -21 1 -31h149z" />
    <glyph glyph-name="question" unicode="?" horiz-adv-x="551" 
d="M269 748c151 0 254 -98 254 -216c0 -180 -166 -151 -166 -281v-9h-184v35c0 173 158 160 158 252c0 36 -28 56 -64 56c-40 0 -67 -32 -70 -69l-181 29c27 128 114 203 253 203zM266 193c60 0 103 -43 103 -103s-43 -103 -103 -103s-103 43 -103 103s43 103 103 103z" />
    <glyph glyph-name="sterling" unicode="&#xa3;" horiz-adv-x="618" 
d="M328 748c140 0 212 -97 234 -178l-178 -48c-3 40 -26 67 -64 67c-40 0 -66 -25 -66 -66c0 -28 6 -55 14 -79h145v-141h-103c3 -14 5 -27 5 -41c0 -47 -10 -78 -29 -103h76c45 0 66 15 66 72h179c0 -147 -64 -231 -205 -231h-388v4c52 75 135 174 113 299h-107v141h58
c-5 20 -8 41 -8 67c0 140 102 237 258 237z" />
    <glyph glyph-name="cent" unicode="&#xa2;" horiz-adv-x="521" 
d="M369 644v-134c59 -18 106 -56 139 -111l-128 -94c-17 37 -43 57 -85 57c-55 0 -85 -49 -85 -107s30 -107 85 -107c41 0 69 21 87 58l126 -95c-33 -55 -80 -94 -139 -111v-151h-151v151c-115 30 -194 128 -194 255c0 126 79 224 194 255v134h151z" />
    <glyph glyph-name="braceleft" unicode="{" horiz-adv-x="346" 
d="M321 699v-143c-63 0 -92 -45 -70 -100l8 -20c31 -77 -11 -136 -51 -147c40 -11 82 -70 51 -147l-8 -20c-22 -55 7 -100 70 -100v-143c-209 0 -307 120 -239 277l8 18c26 58 -28 103 -75 113v4c47 10 101 55 75 113l-8 18c-68 157 30 277 239 277z" />
    <glyph glyph-name="braceright" unicode="}" horiz-adv-x="346" 
d="M25 699c209 0 307 -120 239 -277l-8 -18c-26 -58 28 -103 75 -113v-4c-47 -10 -101 -55 -75 -113l8 -18c68 -157 -30 -277 -239 -277v143c63 0 92 45 70 100l-8 20c-31 77 11 136 51 147c-40 11 -82 70 -51 147l8 20c22 55 -7 100 -70 100v143z" />
    <glyph glyph-name="bar" unicode="|" horiz-adv-x="263" 
d="M218 699v-820h-173v820h173z" />
    <glyph glyph-name="bracketleft" unicode="[" horiz-adv-x="352" 
d="M327 699v-143h-99v-534h99v-143h-272v820h272z" />
    <glyph glyph-name="fraction" unicode="&#x2044;" horiz-adv-x="259" 
d="M394 735l-363 -735h-166l364 735h165z" />
    <glyph glyph-name="florin" unicode="&#x192;" horiz-adv-x="453" 
d="M351 760c53 0 95 -11 124 -29l-63 -148c-10 9 -29 18 -50 18c-33 0 -46 -21 -50 -58l-4 -33h113l-17 -154h-113l-45 -407c-13 -113 -96 -189 -221 -189c-53 0 -95 11 -124 29l63 148c10 -9 29 -18 50 -18c33 0 46 21 50 58l42 379h-73l17 154h73l7 61
c13 113 96 189 221 189z" />
    <glyph glyph-name="yen" unicode="&#xa5;" horiz-adv-x="720" 
d="M720 735l-193 -323h95v-131h-166v-66h166v-131h-166v-84h-190v84h-166v131h166v66h-166v131h93l-193 323h221l139 -254l139 254h221z" />
    <glyph glyph-name="perthousand" unicode="&#x2030;" horiz-adv-x="1338" 
d="M782 735l-468 -735h-173l468 735h173zM213 747c109 0 191 -81 191 -190s-82 -188 -191 -188c-111 0 -192 79 -192 188s81 190 192 190zM213 619c-33 0 -56 -26 -56 -62c0 -34 23 -60 56 -60c31 0 55 26 55 60c0 36 -24 62 -55 62zM709 365c109 0 191 -81 191 -190
s-82 -188 -191 -188c-111 0 -192 79 -192 188s81 190 192 190zM709 237c-33 0 -56 -26 -56 -62c0 -34 23 -60 56 -60c31 0 55 26 55 60c0 36 -24 62 -55 62zM1126 365c109 0 191 -81 191 -190s-82 -188 -191 -188c-111 0 -192 79 -192 188s81 190 192 190zM1126 237
c-33 0 -56 -26 -56 -62c0 -34 23 -60 56 -60c31 0 55 26 55 60c0 36 -24 62 -55 62z" />
    <glyph glyph-name="germandbls.cap" horiz-adv-x="709" 
d="M353 748c149 0 235 -61 301 -142l-97 -178c60 -24 125 -76 125 -193c0 -145 -109 -248 -275 -248c-56 0 -90 6 -118 18l33 172c17 -10 34 -17 63 -17c51 0 91 40 91 94c0 79 -75 92 -164 92l-2 5l102 195c-13 13 -36 27 -72 27c-56 0 -90 -40 -90 -102v-471h-184v472
c0 158 120 276 287 276z" />
    <glyph glyph-name="bracketright" unicode="]" horiz-adv-x="352" 
d="M297 699v-820h-272v143h99v534h-99v143h272z" />
    <glyph glyph-name="OE" unicode="&#x152;" horiz-adv-x="1139" 
d="M1092 735v-173h-299v-110h257v-159h-257v-120h307v-173h-497v48c-54 -38 -119 -61 -193 -61c-219 0 -383 160 -383 379c0 221 164 382 383 382c74 0 139 -23 193 -62v49h489zM410 575c-112 0 -190 -86 -190 -209c0 -121 78 -207 190 -207s190 86 190 207
c0 123 -78 209 -190 209z" />
    <glyph glyph-name="exclam" unicode="!" horiz-adv-x="318" 
d="M250 735v-493h-184v493h184zM159 193c60 0 103 -43 103 -103s-43 -103 -103 -103s-103 43 -103 103s43 103 103 103z" />
    <glyph glyph-name="quotedblleft" unicode="&#x201c;" horiz-adv-x="447" 
d="M185 821v-356c-14 -5 -27 -8 -43 -8c-62 0 -107 46 -107 107c0 28 11 50 23 68l123 189h4zM402 821v-356c-14 -5 -27 -8 -43 -8c-62 0 -107 46 -107 107c0 28 11 50 23 68l123 189h4z" />
    <glyph glyph-name="numbersign" unicode="#" horiz-adv-x="707" 
d="M636 735l-30 -165h83v-145h-108l-21 -114h82v-147h-107l-29 -164h-183l28 164h-82l-28 -164h-185l30 164h-85v147h111l20 114h-84v145h108l30 165h183l-29 -165h82l29 165h185zM397 425h-83l-19 -114h82z" />
    <glyph glyph-name="daggerdbl" unicode="&#x2021;" horiz-adv-x="500" 
d="M340 735v-157h139v-163h-139v-95h137v-163h-137v-157h-180v157h-139v163h139v95h-137v163h137v157h180z" />
    <glyph glyph-name="dagger" unicode="&#x2020;" horiz-adv-x="498" 
d="M338 735v-157h139v-163h-139v-415h-180v415h-137v163h137v157h180z" />
    <glyph glyph-name="quotedblright" unicode="&#x201d;" horiz-adv-x="447" 
d="M88 764c62 0 107 -46 107 -107c0 -28 -11 -50 -23 -68l-123 -189h-4v356c14 5 27 8 43 8zM305 764c62 0 107 -46 107 -107c0 -28 -11 -50 -23 -68l-123 -189h-4v356c14 5 27 8 43 8z" />
    <glyph glyph-name="backslash" unicode="\" horiz-adv-x="559" 
d="M190 735l364 -735h-186l-363 735h185z" />
    <glyph glyph-name="brokenbar" unicode="&#xa6;" horiz-adv-x="263" 
d="M218 699v-308h-173v308h173zM218 187v-308h-173v308h173z" />
    <glyph glyph-name="quotedbl" unicode="&#x22;" horiz-adv-x="420" 
d="M50 758l165 -28l-79 -287h-66zM260 758l165 -28l-79 -287h-66z" />
    <glyph glyph-name="acute" unicode="&#xb4;" horiz-adv-x="363" 
d="M348 726l-185 -155h-148l131 155h202z" />
    <glyph glyph-name="grave" unicode="`" horiz-adv-x="363" 
d="M217 726l131 -155h-148l-185 155h202z" />
    <glyph glyph-name="dieresis" unicode="&#xa8;" horiz-adv-x="401" 
d="M97 737c48 0 82 -34 82 -82s-34 -82 -82 -82s-82 34 -82 82s34 82 82 82zM304 737c48 0 82 -34 82 -82s-34 -82 -82 -82s-82 34 -82 82s34 82 82 82z" />
    <glyph glyph-name="circumflex" unicode="&#x2c6;" horiz-adv-x="382" 
d="M191 784l176 -211h-130l-46 51l-46 -51h-130z" />
    <glyph glyph-name="tilde" unicode="&#x2dc;" horiz-adv-x="401" 
d="M145 746c64 0 91 -62 122 -62c22 0 29 19 29 56h90c0 -114 -61 -170 -130 -170s-79 62 -118 62c-27 0 -33 -18 -33 -56h-90c0 119 61 170 130 170z" />
    <glyph glyph-name="caron" unicode="&#x2c7;" horiz-adv-x="382" 
d="M367 771l-176 -211l-176 211h130l46 -51l46 51h130z" />
    <glyph glyph-name="periodcentered" unicode="&#xb7;" horiz-adv-x="264" 
d="M132 364c62 0 107 -45 107 -107s-45 -107 -107 -107s-107 45 -107 107s45 107 107 107z" />
    <glyph glyph-name="dotlessi" unicode="&#x131;" horiz-adv-x="304" 
d="M244 510v-510h-184v510h184z" />
    <glyph glyph-name="oe" unicode="&#x153;" horiz-adv-x="927" 
d="M654 520c166 0 242 -118 242 -257v-52h-323c2 -45 32 -72 88 -72c38 0 73 17 93 42l125 -100c-56 -62 -125 -91 -222 -91c-72 0 -134 21 -180 59c-47 -37 -109 -59 -179 -59c-158 0 -274 111 -274 264s116 266 274 266c70 0 132 -23 179 -61c46 38 106 61 177 61z
M298 361c-51 0 -88 -46 -88 -107c0 -60 37 -105 88 -105s89 45 89 105c0 61 -38 107 -89 107zM646 390c-44 0 -72 -35 -73 -76h142c-1 40 -25 76 -69 76z" />
    <glyph glyph-name="ae" unicode="&#xe6;" horiz-adv-x="950" 
d="M687 520c159 0 232 -118 232 -257v-51h-336c12 -42 43 -73 106 -73c38 0 76 17 96 44l117 -102c-54 -62 -119 -91 -212 -91c-63 0 -112 26 -135 61l-8 -51h-152l-10 52c-24 -35 -71 -62 -139 -62c-132 0 -222 112 -222 265s90 265 222 265c68 0 115 -27 139 -63l10 53
h154l9 -51c23 34 67 61 129 61zM295 361c-51 0 -85 -38 -85 -106s34 -106 85 -106c39 0 64 21 80 47v118c-16 26 -41 47 -80 47zM660 390c-42 0 -69 -31 -78 -76h156c-1 40 -31 76 -78 76z" />
    <glyph glyph-name="degree" unicode="&#xb0;" horiz-adv-x="380" 
d="M191 747c94 0 164 -70 164 -164s-70 -162 -164 -162c-96 0 -166 68 -166 162s70 164 166 164zM191 637c-29 0 -49 -23 -49 -54c0 -29 20 -52 49 -52c26 0 47 23 47 52c0 31 -21 54 -47 54z" />
    <glyph glyph-name="ring" unicode="&#x2da;" horiz-adv-x="293" 
d="M147 826c75 0 131 -56 131 -131s-56 -129 -131 -129c-76 0 -132 54 -132 129s56 131 132 131zM147 733c-20 0 -35 -16 -35 -38c0 -21 15 -36 35 -36c19 0 34 15 34 36c0 22 -15 38 -34 38z" />
    <glyph glyph-name="quotesinglbase" unicode="&#x201a;" horiz-adv-x="230" 
d="M88 185c62 0 107 -46 107 -107c0 -28 -11 -50 -23 -68l-123 -189h-4v356c14 5 27 8 43 8z" />
    <glyph glyph-name="quotedblbase" unicode="&#x201e;" horiz-adv-x="472" 
d="M88 185c62 0 107 -46 107 -107c0 -28 -11 -50 -23 -68l-123 -189h-4v356c14 5 27 8 43 8zM330 185c62 0 107 -46 107 -107c0 -28 -11 -50 -23 -68l-123 -189h-4v356c14 5 27 8 43 8z" />
    <glyph glyph-name="ellipsis" unicode="&#x2026;" horiz-adv-x="852" 
d="M142 204c62 0 107 -45 107 -107s-45 -107 -107 -107s-107 45 -107 107s45 107 107 107zM426 204c62 0 107 -45 107 -107s-45 -107 -107 -107s-107 45 -107 107s45 107 107 107zM710 204c62 0 107 -45 107 -107s-45 -107 -107 -107s-107 45 -107 107s45 107 107 107z" />
    <glyph glyph-name="divide" unicode="&#xf7;" horiz-adv-x="532" 
d="M265 676c59 0 102 -43 102 -102c0 -58 -43 -101 -102 -101c-58 0 -101 43 -101 101c0 59 43 102 101 102zM265 226c59 0 102 -43 102 -102c0 -58 -43 -101 -102 -101c-58 0 -101 43 -101 101c0 59 43 102 101 102zM499 433v-167h-466v167h466z" />
    <glyph glyph-name="equal" unicode="=" horiz-adv-x="532" 
d="M499 289v-167h-466v167h466zM499 573v-167h-466v167h466z" />
    <glyph glyph-name="less" unicode="&#x3c;" horiz-adv-x="409" 
d="M394 538l-158 -192l158 -192h-226l-153 190v4l153 190h226z" />
    <glyph glyph-name="greater" unicode="&#x3e;" horiz-adv-x="409" 
d="M241 538l153 -190v-4l-153 -190h-226l158 192l-158 192h226z" />
    <glyph glyph-name="breve" unicode="&#x2d8;" horiz-adv-x="380" 
d="M365 746c0 -105 -75 -181 -174 -181c-101 0 -176 76 -176 181h121c0 -39 23 -67 55 -67c30 0 53 28 53 67h121z" />
    <glyph glyph-name="macron" unicode="&#xaf;" horiz-adv-x="315" 
d="M300 709v-120h-285v120h285z" />
    <glyph glyph-name="thorn" unicode="&#xfe;" horiz-adv-x="617" 
d="M244 760v-290c26 29 70 50 129 50c132 0 222 -112 222 -265s-90 -265 -222 -265c-70 0 -109 27 -129 50v-270h-184v990h184zM324 361c-39 0 -64 -21 -80 -47v-117c16 -27 41 -48 80 -48c51 0 85 38 85 106s-34 106 -85 106z" />
    <glyph glyph-name="AE" unicode="&#xc6;" horiz-adv-x="905" 
d="M858 735v-173h-350l43 -110h265v-159h-199l49 -120h200v-173h-337l-34 86h-246l-34 -86h-213l332 735h524zM372 400l-67 -172h134z" />
    <glyph glyph-name="eth" unicode="&#xf0;" horiz-adv-x="597" 
d="M546 665v-131h-105l87 -156c27 -40 43 -87 43 -140c0 -143 -114 -248 -269 -248c-154 0 -268 105 -268 248c0 127 89 224 215 245l-28 51h-177v131h104l-53 95h220l53 -95h178zM302 339c-48 0 -84 -43 -84 -101c0 -57 36 -98 84 -98c49 0 86 41 86 98
c0 58 -37 101 -86 101z" />
    <glyph glyph-name="partialdiff" unicode="&#x2202;" horiz-adv-x="556" 
d="M262 748c244 0 270 -261 270 -406c0 -84 -13 -151 -35 -204c-43 -102 -123 -148 -218 -148c-145 0 -253 96 -253 241c0 147 103 242 240 242c37 0 69 -11 82 -22c0 83 -41 125 -101 125c-46 0 -80 -28 -101 -64l-122 115c51 72 125 121 238 121zM281 311
c-41 0 -69 -31 -69 -80s28 -79 69 -79s70 30 70 79s-29 80 -70 80z" />
    <glyph glyph-name="summation" unicode="&#x2211;" horiz-adv-x="610" 
d="M563 740v-186h-266l124 -169l-134 -199h288v-186h-540v124l171 257l-168 235v124h525z" />
    <glyph glyph-name="product" unicode="&#x220f;" horiz-adv-x="706" 
d="M671 740v-173h-85v-668h-172v668h-121v-668h-174v668h-84v173h636z" />
    <glyph glyph-name="pi" unicode="&#x3c0;" horiz-adv-x="783" 
d="M636 576l145 -84c-20 -79 -72 -159 -186 -159h-3l-16 -133c-3 -22 3 -33 18 -33c13 0 26 8 36 16l63 -132c-50 -39 -103 -61 -179 -61c-114 0 -122 82 -114 158l24 185h-56l-25 -195c-8 -66 -25 -106 -42 -138h-186c31 64 55 107 63 167l22 166h-7c-42 0 -72 -25 -92 -55
l-86 129c55 57 102 94 216 94h267c90 0 116 28 138 75z" />
    <glyph glyph-name="integral" unicode="&#x222b;" horiz-adv-x="434" 
d="M269 750c63 0 109 -11 140 -22l-32 -145c-24 8 -45 12 -64 12c-13 0 -23 -8 -23 -25v-581c0 -134 -46 -180 -145 -180c-63 0 -109 11 -140 22l32 145c24 -8 45 -12 64 -12c13 0 23 8 23 25v581c0 134 46 180 145 180z" />
    <glyph glyph-name="uni03A9" unicode="&#x3a9;" horiz-adv-x="858" 
d="M429 750c214 0 344 -146 344 -343c0 -103 -42 -165 -67 -204h117v-203h-351v193c50 55 91 113 91 205c0 95 -52 150 -134 150s-134 -55 -134 -150c0 -92 41 -150 91 -205v-193h-351v203h117c-25 39 -67 101 -67 204c0 197 130 343 344 343z" />
    <glyph glyph-name="lozenge" unicode="&#x25ca;" horiz-adv-x="569" 
d="M341 738l203 -402l-203 -401h-112l-204 401l204 402h112zM285 468l-68 -132l68 -133l68 133z" />
    <glyph glyph-name="uni2206" unicode="&#x2206;" horiz-adv-x="721" 
d="M361 646l325 -646h-651zM361 312l-84 -167h167z" />
    <glyph glyph-name="afii61289" unicode="&#x2113;" horiz-adv-x="584" 
d="M356 750c97 0 187 -57 187 -176c0 -143 -122 -264 -210 -343v-53c0 -24 12 -35 33 -35c36 0 53 26 90 76l105 -86c-58 -95 -139 -147 -239 -147c-103 0 -154 53 -154 114v3c-5 -5 -46 -43 -58 -53l-89 130c42 35 115 99 140 124v247c0 142 69 199 195 199zM355 611
c-17 0 -36 -14 -36 -43v-156c24 25 72 96 72 156c0 29 -17 43 -36 43z" />
    <glyph glyph-name="Omega" unicode="&#x2126;" horiz-adv-x="858" 
d="M429 750c214 0 344 -146 344 -343c0 -103 -42 -165 -67 -204h117v-203h-351v193c50 55 91 113 91 205c0 95 -52 150 -134 150s-134 -55 -134 -150c0 -92 41 -150 91 -205v-193h-351v203h117c-25 39 -67 101 -67 204c0 197 130 343 344 343z" />
    <glyph glyph-name="estimated" unicode="&#x212e;" horiz-adv-x="591" 
d="M308 498c-34 0 -66 -7 -83 -15c-31 -13 -35 -41 -35 -62v-113h225v111c0 36 -4 55 -35 67c-15 6 -42 12 -72 12zM308 533c139 0 248 -87 248 -260h-366v-176c0 -24 3 -49 38 -64c15 -7 46 -12 80 -12c90 0 165 47 213 124l30 -19c-55 -87 -140 -140 -243 -140
c-156 0 -273 107 -273 273c0 167 117 274 273 274z" />
    <glyph glyph-name="logicalnot" unicode="&#xac;" horiz-adv-x="640" 
d="M605 468v-330h-126v204h-444v126h570z" />
    <glyph glyph-name="radical" unicode="&#x221a;" horiz-adv-x="697" 
d="M527 698l155 -66l-312 -709l-168 310l-101 -62l-86 137l280 167l70 -148z" />
    <glyph glyph-name="infinity" unicode="&#x221e;" horiz-adv-x="782" 
d="M546 512c121 0 201 -94 201 -209c0 -116 -80 -210 -201 -210c-72 0 -123 36 -162 71l-10 9l-9 -8c-39 -34 -85 -58 -143 -58c-116 0 -187 86 -187 195c0 108 71 197 187 197c61 0 103 -27 142 -62l9 -7l6 6c44 44 92 76 167 76zM549 358c-28 0 -48 -18 -72 -44l-9 -12
l9 -11c25 -25 46 -44 72 -44c29 0 46 25 46 56c0 30 -17 55 -46 55zM219 350c-25 0 -39 -22 -39 -48c0 -25 14 -47 39 -47c19 0 41 10 59 36l7 10l-7 7c-21 27 -40 42 -59 42z" />
    <glyph glyph-name="currency" unicode="&#xa4;" horiz-adv-x="675" 
d="M544 580l116 -116l-115 -115c11 -27 17 -56 17 -87c0 -32 -6 -61 -18 -88l116 -115l-116 -116l-119 118c-27 -10 -56 -15 -88 -15s-61 5 -88 15l-118 -118l-116 116l115 115c-11 27 -17 56 -17 88c0 31 6 60 17 87l-115 115l116 116l116 -117c27 11 57 17 90 17
c32 0 62 -7 90 -17zM337 345c-42 0 -72 -36 -72 -83c0 -46 30 -81 72 -81s73 35 73 81c0 47 -31 83 -73 83z" />
    <glyph glyph-name="plusminus" unicode="&#xb1;" horiz-adv-x="532" 
d="M349 712v-149h150v-167h-150v-150h-167v150h-149v167h149v149h167zM499 200v-167h-466v167h466z" />
    <glyph glyph-name="mu" unicode="&#xb5;" horiz-adv-x="615" 
d="M555 510v-510h-164l-9 50c-23 -32 -63 -60 -119 -60c-7 0 -13 0 -19 1v-221h-184v740h184v-285c0 -38 20 -63 56 -63c37 0 59 23 71 44v304h184z" />
    <glyph glyph-name="lessequal" unicode="&#x2264;" horiz-adv-x="409" 
d="M394 638l-155 -162l155 -162h-229l-150 160v4l150 160h229zM394 266v-167h-379v167h379z" />
    <glyph glyph-name="greaterequal" unicode="&#x2265;" horiz-adv-x="409" 
d="M244 638l150 -160v-4l-150 -160h-229l155 162l-155 162h229zM394 266v-167h-379v167h379z" />
    <glyph glyph-name="notequal" unicode="&#x2260;" horiz-adv-x="532" 
d="M499 289v-167h-236l-32 -92h-153l32 92h-77v167h136l41 117h-177v167h236l47 132h153l-47 -132h77v-167h-136l-41 -117h177z" />
    <glyph glyph-name="asciitilde" unicode="~" horiz-adv-x="615" 
d="M209 473c102 0 141 -77 198 -77c46 0 75 30 90 65l103 -86c-39 -93 -112 -148 -194 -148c-108 0 -123 77 -197 77c-47 0 -76 -30 -91 -65l-103 86c39 93 112 148 194 148z" />
    <glyph glyph-name="approxequal" unicode="&#x2248;" horiz-adv-x="615" 
d="M209 329c102 0 141 -77 198 -77c46 0 75 30 90 65l103 -86c-39 -93 -112 -148 -194 -148c-108 0 -123 77 -197 77c-47 0 -76 -30 -91 -65l-103 86c39 93 112 148 194 148zM209 602c102 0 141 -77 198 -77c46 0 75 30 90 65l103 -86c-39 -93 -112 -148 -194 -148
c-108 0 -123 77 -197 77c-47 0 -76 -30 -91 -65l-103 86c39 93 112 148 194 148z" />
    <glyph glyph-name="asciicircum" unicode="^" horiz-adv-x="523" 
d="M261 760l247 -298h-160l-87 105l-86 -105h-160z" />
    <glyph glyph-name="guilsinglleft" unicode="&#x2039;" horiz-adv-x="429" 
d="M414 458l-188 -202l188 -202h-216l-183 200v4l183 200h216z" />
    <glyph glyph-name="guilsinglright" unicode="&#x203a;" horiz-adv-x="429" 
d="M231 458l183 -200v-4l-183 -200h-216l188 202l-188 202h216z" />
    <glyph glyph-name="guillemotleft" unicode="&#xab;" horiz-adv-x="577" 
d="M294 458l-108 -202l108 -202h-164l-115 200v4l115 200h164zM562 458l-108 -202l108 -202h-164l-115 200v4l115 200h164z" />
    <glyph glyph-name="guillemotright" unicode="&#xbb;" horiz-adv-x="577" 
d="M179 458l115 -200v-4l-115 -200h-164l108 202l-108 202h164zM447 458l115 -200v-4l-115 -200h-164l108 202l-108 202h164z" />
    <glyph glyph-name="underscore" unicode="_" horiz-adv-x="790" 
d="M755 0v-167h-720v167h720z" />
    <glyph glyph-name="hungarumlaut" unicode="&#x2dd;" horiz-adv-x="454" 
d="M263 726l-100 -155h-118l71 155h147zM469 726l-100 -155h-118l71 155h147z" />
    <glyph glyph-name="dotaccent" unicode="&#x2d9;" horiz-adv-x="236" 
d="M118 772c60 0 103 -43 103 -103s-43 -103 -103 -103s-103 43 -103 103s43 103 103 103z" />
    <glyph glyph-name="semicolon" unicode=";" horiz-adv-x="270" 
d="M103 190c62 0 107 -46 107 -107c0 -28 -11 -50 -23 -68l-123 -189h-4v356c14 5 27 8 43 8zM135 520c58 0 100 -42 100 -100s-42 -100 -100 -100s-100 42 -100 100s42 100 100 100z" />
    <glyph glyph-name="colon" unicode=":" horiz-adv-x="270" 
d="M135 190c58 0 100 -42 100 -100s-42 -100 -100 -100s-100 42 -100 100s42 100 100 100zM135 520c58 0 100 -42 100 -100s-42 -100 -100 -100s-100 42 -100 100s42 100 100 100z" />
    <glyph glyph-name="cedilla" unicode="&#xb8;" horiz-adv-x="251" 
d="M75 33l80 -7l-14 -66c59 -4 100 -44 100 -104c0 -78 -61 -115 -130 -115c-37 0 -78 12 -101 43l54 63c12 -13 28 -23 46 -23c21 0 35 13 35 33c0 22 -17 33 -48 33c-18 0 -38 -3 -49 -6l-3 4z" />
    <glyph glyph-name="ogonek" unicode="&#x2db;" horiz-adv-x="262" 
d="M113 79l53 -79c-24 -9 -38 -25 -38 -50c0 -28 23 -44 47 -44c17 0 27 6 35 11l37 -96c-20 -10 -42 -16 -77 -16c-81 0 -155 43 -155 143c0 71 49 114 98 131z" />
    <glyph glyph-name="uogonek" unicode="&#x173;" horiz-adv-x="605" 
d="M545 510v-510h-27c-24 -9 -38 -25 -38 -50c0 -28 23 -44 47 -44c17 0 27 6 35 11l37 -96c-20 -10 -42 -16 -77 -16c-81 0 -155 43 -155 143c0 22 5 42 13 58l-8 45c-25 -36 -69 -61 -137 -61c-123 0 -185 89 -185 231v289h184v-279c0 -41 18 -69 56 -69c37 0 59 23 71 44
v304h184z" />
    <glyph glyph-name="eng" unicode="&#x14b;" horiz-adv-x="606" 
d="M365 520c126 0 191 -89 191 -231v-295c0 -134 -104 -234 -244 -234v159c37 0 60 22 60 61v299c0 41 -21 69 -58 69c-36 0 -60 -23 -70 -44v-304h-184v510h164l9 -51c23 36 69 61 132 61z" />
    <glyph glyph-name="trademark" unicode="&#x2122;" horiz-adv-x="918" 
d="M385 735v-124h-115v-252h-130v252h-115v124h360zM883 742v-383h-130v91l-87 -98h-4l-87 98v-91h-130v383h2l217 -227l217 227h2z" />
    <glyph glyph-name="endash_guilsinglright" horiz-adv-x="673" 
d="M331 553l312 -280l-312 -280l-84 102l121 103h-339v148h341l-123 105z" />
    <glyph glyph-name="emdash_guilsinglright" horiz-adv-x="989" 
d="M647 553l313 -280l-313 -280l-84 102l121 103h-655v148h657l-123 105z" />
    <glyph glyph-name="guilsinglleft_endash" horiz-adv-x="672" 
d="M342 553l84 -102l-123 -105h340v-148h-338l121 -103l-84 -102l-313 280z" />
    <glyph glyph-name="guilsinglleft_emdash" horiz-adv-x="989" 
d="M342 553l84 -102l-123 -105h657v-148h-655l121 -103l-84 -102l-313 280z" />
    <glyph glyph-name="copyright" unicode="&#xa9;" horiz-adv-x="704" 
d="M368 642c55 0 89 -16 123 -52l-54 -66c-15 20 -38 32 -69 32c-54 0 -85 -32 -85 -86c0 -57 31 -88 85 -88c31 0 54 14 69 32l53 -66c-34 -37 -73 -52 -122 -52c-102 0 -177 72 -177 174c0 99 75 172 177 172zM352 790c184 0 322 -140 322 -327
c0 -188 -138 -326 -322 -326c-186 0 -322 138 -322 326c0 187 136 327 322 327zM352 706c-134 0 -230 -106 -230 -243c0 -138 96 -242 230 -242c133 0 230 104 230 242c0 137 -97 243 -230 243z" />
    <glyph glyph-name="registered" unicode="&#xae;" horiz-adv-x="704" 
d="M352 790c184 0 322 -140 322 -327c0 -188 -138 -326 -322 -326c-186 0 -322 138 -322 326c0 187 136 327 322 327zM352 706c-134 0 -230 -106 -230 -243c0 -138 96 -242 230 -242c133 0 230 104 230 242c0 137 -97 243 -230 243zM217 638h148c63 0 122 -42 122 -114
c0 -46 -24 -81 -57 -101l73 -124h-106l-62 107h-26v-107h-92v339zM355 556h-46v-68h46c23 0 40 10 40 34s-17 34 -40 34z" />
    <glyph glyph-name="bullet" unicode="&#x2022;" horiz-adv-x="295" 
d="M147 381c71 0 123 -52 123 -123c0 -70 -52 -122 -123 -122c-70 0 -122 52 -122 122c0 71 52 123 122 123z" />
    <glyph glyph-name="exclamdown" unicode="&#xa1;" horiz-adv-x="318" 
d="M68 -228v493h184v-493h-184zM159 314c-60 0 -103 43 -103 103s43 103 103 103s103 -43 103 -103s-43 -103 -103 -103z" />
    <glyph glyph-name="questiondown" unicode="&#xbf;" horiz-adv-x="551" 
d="M282 -241c-151 0 -254 98 -254 216c0 180 166 151 166 281v9h184v-35c0 -173 -158 -160 -158 -252c0 -36 28 -56 64 -56c40 0 67 32 70 69l181 -29c-27 -128 -114 -203 -253 -203zM285 314c-60 0 -103 43 -103 103s43 103 103 103s103 -43 103 -103s-43 -103 -103 -103z
" />
    <glyph glyph-name="grave.cap" horiz-adv-x="363" 
d="M227 895l121 -123h-168l-165 123h212z" />
    <glyph glyph-name="acute.cap" horiz-adv-x="363" 
d="M348 895l-165 -123h-168l121 123h212z" />
    <glyph glyph-name="circumflex.cap" horiz-adv-x="402" 
d="M201 934l186 -162h-135l-51 41l-51 -41h-135z" />
    <glyph glyph-name="caron.cap" horiz-adv-x="402" 
d="M387 921l-186 -162l-186 162h135l51 -41l51 41h135z" />
    <glyph glyph-name="at.cap" horiz-adv-x="892" 
d="M445 784c252 0 423 -164 423 -404c0 -134 -73 -231 -192 -231c-72 0 -122 33 -140 65l-2 3c-27 -34 -77 -68 -132 -68c-109 0 -184 93 -184 219c0 127 75 220 184 220c55 0 95 -23 115 -52l8 44h136v-284c0 -23 7 -43 36 -43c41 0 63 49 63 127c0 180 -116 304 -315 304
c-186 0 -313 -132 -313 -316s123 -313 303 -313c46 0 89 8 128 24l26 -95c-47 -19 -99 -29 -154 -29c-239 0 -411 174 -411 413s176 416 421 416zM442 456c-42 0 -70 -31 -70 -88c0 -56 28 -87 70 -87c33 0 53 17 67 39v97c-14 22 -34 39 -67 39z" />
    <glyph glyph-name="tilde.cap" horiz-adv-x="401" 
d="M145 933c64 0 91 -62 122 -62c22 0 29 19 29 56h90c0 -107 -61 -160 -130 -160s-79 62 -118 62c-27 0 -33 -18 -33 -56h-90c0 112 61 160 130 160z" />
    <glyph glyph-name="dieresis.cap" horiz-adv-x="401" 
d="M97 924c48 0 82 -34 82 -82s-34 -82 -82 -82s-82 34 -82 82s34 82 82 82zM304 924c48 0 82 -34 82 -82s-34 -82 -82 -82s-82 34 -82 82s34 82 82 82z" />
    <glyph glyph-name="macron.cap" horiz-adv-x="315" 
d="M300 902v-120h-285v120h285z" />
    <glyph glyph-name="breve.cap" horiz-adv-x="380" 
d="M365 941c0 -99 -75 -171 -174 -171c-101 0 -176 72 -176 171h121c0 -45 20 -77 55 -77c33 0 53 32 53 77h121z" />
    <glyph glyph-name="ring.cap" horiz-adv-x="293" 
d="M147 1028c75 0 131 -56 131 -131s-56 -129 -131 -129c-76 0 -132 54 -132 129s56 131 132 131zM147 935c-20 0 -35 -16 -35 -38c0 -21 15 -36 35 -36c19 0 34 15 34 36c0 22 -15 38 -34 38z" />
    <glyph glyph-name="hungarumlaut.cap" horiz-adv-x="454" 
d="M265 895l-100 -123h-118l71 123h147zM471 895l-100 -123h-118l71 123h147z" />
    <glyph glyph-name="dotaccent.cap" horiz-adv-x="217" 
d="M108 954c55 0 94 -39 94 -94c0 -54 -39 -93 -94 -93c-54 0 -93 39 -93 93c0 55 39 94 93 94z" />
    <glyph glyph-name="commaaccent" unicode="&#xf6c3;" horiz-adv-x="230" 
d="M88 -40c62 0 107 -46 107 -107c0 -28 -8 -51 -23 -68l-123 -139h-4v306c14 5 27 8 43 8z" />
    <glyph glyph-name="Thorn" unicode="&#xde;" horiz-adv-x="634" 
d="M257 735v-116h102c132 0 251 -83 251 -231s-119 -231 -251 -231h-102v-157h-190v735h190zM340 456h-83v-136h83c45 0 77 23 77 68c0 44 -32 68 -77 68z" />
    <glyph glyph-name="guilsinglleft.cap" horiz-adv-x="429" 
d="M414 576l-188 -222l188 -222h-216l-183 220v4l183 220h216z" />
    <glyph glyph-name="guilsinglright.cap" horiz-adv-x="429" 
d="M231 576l183 -220v-4l-183 -220h-216l188 222l-188 222h216z" />
    <glyph glyph-name="guillemotleft.cap" horiz-adv-x="597" 
d="M314 576l-128 -222l128 -222h-164l-135 220v4l135 220h164zM582 576l-128 -222l128 -222h-164l-135 220v4l135 220h164z" />
    <glyph glyph-name="guillemotright.cap" horiz-adv-x="597" 
d="M179 576l135 -220v-4l-135 -220h-164l128 222l-128 222h164zM447 576l135 -220v-4l-135 -220h-164l128 222l-128 222h164z" />
    <glyph glyph-name="endash.cap" horiz-adv-x="545" 
d="M510 440v-167h-475v167h475z" />
    <glyph glyph-name="parenleft.cap" horiz-adv-x="346" 
d="M190 798l141 -97c-65 -81 -120 -171 -120 -334s55 -253 120 -334l-141 -97c-73 94 -152 227 -152 431s79 337 152 431z" />
    <glyph glyph-name="parenright.cap" horiz-adv-x="346" 
d="M156 798c73 -94 152 -227 152 -431s-79 -337 -152 -431l-141 97c65 81 120 171 120 334s-55 253 -120 334z" />
    <glyph glyph-name="bracketleft.cap" horiz-adv-x="352" 
d="M327 777v-143h-99v-534h99v-143h-272v820h272z" />
    <glyph glyph-name="bracketright.cap" horiz-adv-x="352" 
d="M297 777v-820h-272v143h99v534h-99v143h272z" />
    <glyph glyph-name="braceleft.cap" horiz-adv-x="346" 
d="M321 777v-143c-63 0 -92 -45 -70 -100l8 -20c31 -77 -11 -136 -51 -147c40 -11 82 -70 51 -147l-8 -20c-22 -55 7 -100 70 -100v-143c-209 0 -307 120 -239 277l8 18c26 58 -28 103 -75 113v4c47 10 101 55 75 113l-8 18c-68 157 30 277 239 277z" />
    <glyph glyph-name="braceright.cap" horiz-adv-x="346" 
d="M25 777c209 0 307 -120 239 -277l-8 -18c-26 -58 28 -103 75 -113v-4c-47 -10 -101 -55 -75 -113l8 -18c68 -157 -30 -277 -239 -277v143c63 0 92 45 70 100l-8 20c-31 77 11 136 51 147c-40 11 -82 70 -51 147l8 20c22 55 -7 100 -70 100v143z" />
    <glyph glyph-name="emdash.cap" horiz-adv-x="790" 
d="M755 440v-167h-720v167h720z" />
    <glyph glyph-name="periodcentered.cap" horiz-adv-x="264" 
d="M132 462c62 0 107 -45 107 -107s-45 -107 -107 -107s-107 45 -107 107s45 107 107 107z" />
    <glyph glyph-name="hyphen.cap" horiz-adv-x="426" 
d="M391 440v-167h-356v167h356z" />
    <glyph glyph-name="exclamdown.cap" horiz-adv-x="318" 
d="M68 0v493h184v-493h-184zM159 542c-60 0 -103 43 -103 103s43 103 103 103s103 -43 103 -103s-43 -103 -103 -103z" />
    <glyph glyph-name="questiondown.cap" horiz-adv-x="551" 
d="M282 -13c-151 0 -254 98 -254 216c0 180 166 151 166 281v9h184v-35c0 -173 -158 -160 -158 -252c0 -36 28 -56 64 -56c40 0 67 32 70 69l181 -29c-27 -128 -114 -203 -253 -203zM285 542c-60 0 -103 43 -103 103s43 103 103 103s103 -43 103 -103s-43 -103 -103 -103z
" />
    <glyph glyph-name="Oslash" unicode="&#xd8;" horiz-adv-x="820" 
d="M410 748c43 0 84 -6 122 -18l47 85h162l-84 -152c84 -68 136 -173 136 -297c0 -219 -165 -379 -383 -379c-42 0 -82 6 -120 17l-46 -84h-162l83 149c-86 68 -138 173 -138 297c0 221 164 382 383 382zM410 575c-112 0 -190 -86 -190 -209c0 -51 14 -95 38 -130l186 336
c-11 2 -22 3 -34 3zM600 366c0 50 -13 95 -37 129l-185 -333c10 -1 21 -2 32 -2c112 0 190 85 190 206z" />
    <glyph glyph-name="oslash" unicode="&#xf8;" horiz-adv-x="597" 
d="M298 520c29 0 57 -4 82 -11l39 71h112l-62 -114c64 -48 104 -123 104 -212c0 -153 -117 -264 -275 -264c-29 0 -56 4 -82 11l-38 -71h-112l61 113c-64 47 -103 122 -103 211c0 153 116 266 274 266zM298 371c-57 0 -98 -50 -98 -117c0 -21 4 -40 11 -57l94 173
c-2 0 -5 1 -7 1zM397 254c0 21 -5 41 -12 57l-94 -172h7c57 0 99 49 99 115z" />
    <glyph glyph-name="oslashacute" unicode="&#x1ff;" horiz-adv-x="597" 
d="M298 520c29 0 57 -4 82 -11l39 71h112l-62 -114c64 -48 104 -123 104 -212c0 -153 -117 -264 -275 -264c-29 0 -56 4 -82 11l-38 -71h-112l61 113c-64 47 -103 122 -103 211c0 153 116 266 274 266zM527 726l-185 -155h-148l131 155h202zM298 371c-57 0 -98 -50 -98 -117
c0 -21 4 -40 11 -57l94 173c-2 0 -5 1 -7 1zM397 254c0 21 -5 41 -12 57l-94 -172h7c57 0 99 49 99 115z" />
    <glyph glyph-name="zero.dnom" horiz-adv-x="403" 
d="M202 426c101 0 166 -84 166 -216c0 -133 -65 -218 -166 -218c-102 0 -167 85 -167 218c0 132 65 216 167 216zM202 313c-28 0 -35 -41 -35 -103c0 -63 7 -104 35 -104c27 0 34 41 34 104c0 62 -7 103 -34 103z" />
    <glyph glyph-name="one.dnom" horiz-adv-x="298" 
d="M242 427v-427h-130v230l-44 -17l-51 122l223 92h2z" />
    <glyph glyph-name="two.dnom" horiz-adv-x="363" 
d="M168 427c100 0 162 -63 162 -145c0 -38 -19 -71 -42 -104l-45 -64h87v-114h-303v3l150 239c16 25 21 31 21 44c0 15 -11 26 -30 26c-22 0 -33 -17 -36 -49l-118 27c17 94 72 137 154 137z" />
    <glyph glyph-name="three.dnom" horiz-adv-x="355" 
d="M172 427c96 0 156 -64 156 -141c0 -34 -16 -60 -38 -78c23 -16 41 -41 41 -79c0 -78 -60 -137 -159 -137c-80 0 -140 34 -155 132l118 25c1 -30 15 -42 37 -42c17 0 28 11 28 28c0 18 -10 30 -26 30h-45v97h45c16 1 25 12 25 25c0 16 -13 25 -29 25c-14 0 -28 -8 -29 -33
l-113 47c19 69 73 101 144 101z" />
    <glyph glyph-name="four.dnom" horiz-adv-x="406" 
d="M346 428v-305h35v-89h-35v-34h-130v34h-206v1l334 393h2zM235 188l-67 -74h67v74z" />
    <glyph glyph-name="five.dnom" horiz-adv-x="376" 
d="M321 419v-114h-140v-30h10c82 0 156 -34 156 -144c0 -85 -61 -139 -159 -139c-73 0 -136 27 -157 101l110 53c0 -31 21 -39 38 -39c20 0 37 10 37 31c0 19 -16 32 -38 32c-20 0 -32 -9 -34 -14l-93 40v223h270z" />
    <glyph glyph-name="six.dnom" horiz-adv-x="390" 
d="M330 419l-88 -142c66 -17 115 -70 115 -139c0 -86 -74 -146 -163 -146c-88 0 -161 60 -161 146c0 30 9 57 25 80l125 201h147zM194 178c-20 0 -34 -13 -34 -40c0 -26 14 -38 34 -38c22 0 35 12 35 38c0 27 -13 40 -35 40z" />
    <glyph glyph-name="seven.dnom" horiz-adv-x="378" 
d="M365 419v-4l-198 -415h-140l147 302h-142v117h333z" />
    <glyph glyph-name="eight.dnom" horiz-adv-x="391" 
d="M195 427c82 0 150 -54 150 -131c0 -30 -13 -55 -34 -76c29 -25 47 -56 47 -89c0 -83 -74 -139 -163 -139c-88 0 -161 56 -161 139c0 33 17 64 46 88c-22 22 -35 47 -35 77c0 77 68 131 150 131zM195 166c-20 0 -34 -15 -34 -36s14 -34 34 -34c22 0 35 13 35 34
s-13 36 -35 36zM195 325c-21 0 -35 -16 -35 -36c0 -19 14 -32 35 -32s36 13 36 32c0 20 -15 36 -36 36z" />
    <glyph glyph-name="nine.dnom" horiz-adv-x="390" 
d="M196 427c88 0 161 -60 161 -146c0 -31 -9 -58 -25 -80l-125 -201h-147l88 141c-66 18 -115 71 -115 140c0 86 74 146 163 146zM196 319c-22 0 -36 -12 -36 -38c0 -27 14 -40 36 -40c20 0 33 13 33 40c0 26 -13 38 -33 38z" />
    <glyph glyph-name="zero.numr" horiz-adv-x="383" 
d="M202 740c101 0 166 -84 166 -216c0 -133 -65 -218 -166 -218c-102 0 -167 85 -167 218c0 132 65 216 167 216zM202 627c-28 0 -35 -41 -35 -103c0 -63 7 -104 35 -104c27 0 34 41 34 104c0 62 -7 103 -34 103z" />
    <glyph glyph-name="one.numr" horiz-adv-x="278" 
d="M242 741v-427h-130v230l-44 -17l-51 122l223 92h2z" />
    <glyph glyph-name="two.numr" horiz-adv-x="343" 
d="M168 741c100 0 162 -63 162 -145c0 -38 -19 -71 -42 -104l-45 -64h87v-114h-303v3l150 239c16 25 21 31 21 44c0 15 -11 26 -30 26c-22 0 -33 -17 -36 -49l-118 27c17 94 72 137 154 137z" />
    <glyph glyph-name="three.numr" horiz-adv-x="335" 
d="M172 741c96 0 156 -64 156 -141c0 -34 -16 -60 -38 -78c23 -16 41 -41 41 -79c0 -78 -60 -137 -159 -137c-80 0 -140 34 -155 132l118 25c1 -30 15 -42 37 -42c17 0 28 11 28 28c0 18 -10 30 -26 30h-45v97h45c16 1 25 12 25 25c0 16 -13 25 -29 25c-14 0 -28 -8 -29 -33
l-113 47c19 69 73 101 144 101z" />
    <glyph glyph-name="four.numr" horiz-adv-x="386" 
d="M346 742v-305h35v-89h-35v-34h-130v34h-206v1l334 393h2zM235 502l-67 -74h67v74z" />
    <glyph glyph-name="five.numr" horiz-adv-x="356" 
d="M321 733v-114h-140v-30h10c82 0 156 -34 156 -144c0 -85 -61 -139 -159 -139c-73 0 -136 27 -157 101l110 53c0 -31 21 -39 38 -39c20 0 37 10 37 31c0 19 -16 32 -38 32c-20 0 -32 -9 -34 -14l-93 40v223h270z" />
    <glyph glyph-name="six.numr" horiz-adv-x="370" 
d="M330 733l-88 -142c66 -17 115 -70 115 -139c0 -86 -74 -146 -163 -146c-88 0 -161 60 -161 146c0 30 9 57 25 80l125 201h147zM194 492c-20 0 -34 -13 -34 -40c0 -26 14 -38 34 -38c22 0 35 12 35 38c0 27 -13 40 -35 40z" />
    <glyph glyph-name="seven.numr" horiz-adv-x="358" 
d="M365 733v-4l-198 -415h-140l147 302h-142v117h333z" />
    <glyph glyph-name="eight.numr" horiz-adv-x="371" 
d="M195 741c82 0 150 -54 150 -131c0 -30 -13 -55 -34 -76c29 -25 47 -56 47 -89c0 -83 -74 -139 -163 -139c-88 0 -161 56 -161 139c0 33 17 64 46 88c-22 22 -35 47 -35 77c0 77 68 131 150 131zM195 480c-20 0 -34 -15 -34 -36s14 -34 34 -34c22 0 35 13 35 34
s-13 36 -35 36zM195 639c-21 0 -35 -16 -35 -36c0 -19 14 -32 35 -32s36 13 36 32c0 20 -15 36 -36 36z" />
    <glyph glyph-name="nine.numr" horiz-adv-x="370" 
d="M196 741c88 0 161 -60 161 -146c0 -31 -9 -58 -25 -80l-125 -201h-147l88 141c-66 18 -115 71 -115 140c0 86 74 146 163 146zM196 633c-22 0 -36 -12 -36 -38c0 -27 14 -40 36 -40c20 0 33 13 33 40c0 26 -13 38 -33 38z" />
    <glyph glyph-name="zero.sups" unicode="&#x2070;" horiz-adv-x="383" 
d="M202 820c101 0 166 -84 166 -216c0 -133 -65 -218 -166 -218c-102 0 -167 85 -167 218c0 132 65 216 167 216zM202 707c-28 0 -35 -41 -35 -103c0 -63 7 -104 35 -104c27 0 34 41 34 104c0 62 -7 103 -34 103z" />
    <glyph glyph-name="one.sups" unicode="&#xb9;" horiz-adv-x="278" 
d="M242 821v-427h-130v230l-44 -17l-51 122l223 92h2z" />
    <glyph glyph-name="two.sups" unicode="&#xb2;" horiz-adv-x="343" 
d="M168 821c100 0 162 -63 162 -145c0 -38 -19 -71 -42 -104l-45 -64h87v-114h-303v3l150 239c16 25 21 31 21 44c0 15 -11 26 -30 26c-22 0 -33 -17 -36 -49l-118 27c17 94 72 137 154 137z" />
    <glyph glyph-name="three.sups" unicode="&#xb3;" horiz-adv-x="335" 
d="M172 821c96 0 156 -64 156 -141c0 -34 -16 -60 -38 -78c23 -16 41 -41 41 -79c0 -78 -60 -137 -159 -137c-80 0 -140 34 -155 132l118 25c1 -30 15 -42 37 -42c17 0 28 11 28 28c0 18 -10 30 -26 30h-45v97h45c16 1 25 12 25 25c0 16 -13 25 -29 25c-14 0 -28 -8 -29 -33
l-113 47c19 69 73 101 144 101z" />
    <glyph glyph-name="four.sups" unicode="&#x2074;" horiz-adv-x="386" 
d="M346 822v-305h35v-89h-35v-34h-130v34h-206v1l334 393h2zM235 582l-67 -74h67v74z" />
    <glyph glyph-name="five.sups" unicode="&#x2075;" horiz-adv-x="356" 
d="M321 813v-114h-140v-30h10c82 0 156 -34 156 -144c0 -85 -61 -139 -159 -139c-73 0 -136 27 -157 101l110 53c0 -31 21 -39 38 -39c20 0 37 10 37 31c0 19 -16 32 -38 32c-20 0 -32 -9 -34 -14l-93 40v223h270z" />
    <glyph glyph-name="six.sups" unicode="&#x2076;" horiz-adv-x="370" 
d="M330 813l-88 -142c66 -17 115 -70 115 -139c0 -86 -74 -146 -163 -146c-88 0 -161 60 -161 146c0 30 9 57 25 80l125 201h147zM194 572c-20 0 -34 -13 -34 -40c0 -26 14 -38 34 -38c22 0 35 12 35 38c0 27 -13 40 -35 40z" />
    <glyph glyph-name="seven.sups" unicode="&#x2077;" horiz-adv-x="358" 
d="M365 813v-4l-198 -415h-140l147 302h-142v117h333z" />
    <glyph glyph-name="eight.sups" unicode="&#x2078;" horiz-adv-x="371" 
d="M195 821c82 0 150 -54 150 -131c0 -30 -13 -55 -34 -76c29 -25 47 -56 47 -89c0 -83 -74 -139 -163 -139c-88 0 -161 56 -161 139c0 33 17 64 46 88c-22 22 -35 47 -35 77c0 77 68 131 150 131zM195 560c-20 0 -34 -15 -34 -36s14 -34 34 -34c22 0 35 13 35 34
s-13 36 -35 36zM195 719c-21 0 -35 -16 -35 -36c0 -19 14 -32 35 -32s36 13 36 32c0 20 -15 36 -36 36z" />
    <glyph glyph-name="nine.sups" unicode="&#x2079;" horiz-adv-x="370" 
d="M196 821c88 0 161 -60 161 -146c0 -31 -9 -58 -25 -80l-125 -201h-147l88 141c-66 18 -115 71 -115 140c0 86 74 146 163 146zM196 713c-22 0 -36 -12 -36 -38c0 -27 14 -40 36 -40c20 0 33 13 33 40c0 26 -13 38 -33 38z" />
    <glyph glyph-name="zero.subs" horiz-adv-x="383" 
d="M202 326c101 0 166 -84 166 -216c0 -133 -65 -218 -166 -218c-102 0 -167 85 -167 218c0 132 65 216 167 216zM202 213c-28 0 -35 -41 -35 -103c0 -63 7 -104 35 -104c27 0 34 41 34 104c0 62 -7 103 -34 103z" />
    <glyph glyph-name="one.subs" horiz-adv-x="278" 
d="M242 327v-427h-130v230l-44 -17l-51 122l223 92h2z" />
    <glyph glyph-name="two.subs" horiz-adv-x="343" 
d="M168 327c100 0 162 -63 162 -145c0 -38 -19 -71 -42 -104l-45 -64h87v-114h-303v3l150 239c16 25 21 31 21 44c0 15 -11 26 -30 26c-22 0 -33 -17 -36 -49l-118 27c17 94 72 137 154 137z" />
    <glyph glyph-name="three.subs" horiz-adv-x="335" 
d="M172 327c96 0 156 -64 156 -141c0 -34 -16 -60 -38 -78c23 -16 41 -41 41 -79c0 -78 -60 -137 -159 -137c-80 0 -140 34 -155 132l118 25c1 -30 15 -42 37 -42c17 0 28 11 28 28c0 18 -10 30 -26 30h-45v97h45c16 1 25 12 25 25c0 16 -13 25 -29 25c-14 0 -28 -8 -29 -33
l-113 47c19 69 73 101 144 101z" />
    <glyph glyph-name="four.subs" horiz-adv-x="386" 
d="M346 328v-305h35v-89h-35v-34h-130v34h-206v1l334 393h2zM235 88l-67 -74h67v74z" />
    <glyph glyph-name="five.subs" horiz-adv-x="356" 
d="M321 319v-114h-140v-30h10c82 0 156 -34 156 -144c0 -85 -61 -139 -159 -139c-73 0 -136 27 -157 101l110 53c0 -31 21 -39 38 -39c20 0 37 10 37 31c0 19 -16 32 -38 32c-20 0 -32 -9 -34 -14l-93 40v223h270z" />
    <glyph glyph-name="six.subs" horiz-adv-x="370" 
d="M330 319l-88 -142c66 -17 115 -70 115 -139c0 -86 -74 -146 -163 -146c-88 0 -161 60 -161 146c0 30 9 57 25 80l125 201h147zM194 78c-20 0 -34 -13 -34 -40c0 -26 14 -38 34 -38c22 0 35 12 35 38c0 27 -13 40 -35 40z" />
    <glyph glyph-name="seven.subs" horiz-adv-x="358" 
d="M365 319v-4l-198 -415h-140l147 302h-142v117h333z" />
    <glyph glyph-name="eight.subs" horiz-adv-x="371" 
d="M195 327c82 0 150 -54 150 -131c0 -30 -13 -55 -34 -76c29 -25 47 -56 47 -89c0 -83 -74 -139 -163 -139c-88 0 -161 56 -161 139c0 33 17 64 46 88c-22 22 -35 47 -35 77c0 77 68 131 150 131zM195 66c-20 0 -34 -15 -34 -36s14 -34 34 -34c22 0 35 13 35 34
s-13 36 -35 36zM195 225c-21 0 -35 -16 -35 -36c0 -19 14 -32 35 -32s36 13 36 32c0 20 -15 36 -36 36z" />
    <glyph glyph-name="nine.subs" horiz-adv-x="370" 
d="M196 327c88 0 161 -60 161 -146c0 -31 -9 -58 -25 -80l-125 -201h-147l88 141c-66 18 -115 71 -115 140c0 86 74 146 163 146zM196 219c-22 0 -36 -12 -36 -38c0 -27 14 -40 36 -40c20 0 33 13 33 40c0 26 -13 38 -33 38z" />
    <glyph glyph-name="threequarters" unicode="&#xbe;" horiz-adv-x="860" 
d="M172 721c96 0 156 -64 156 -141c0 -34 -16 -60 -38 -78c23 -16 41 -41 41 -79c0 -78 -60 -137 -159 -137c-80 0 -140 34 -155 132l118 25c1 -30 15 -42 37 -42c17 0 28 11 28 28c0 18 -10 30 -26 30h-45v97h45c16 1 25 12 25 25c0 16 -13 25 -29 25c-14 0 -28 -8 -29 -33
l-113 47c19 69 73 101 144 101zM719 735l-363 -735h-166l364 735h165zM820 428v-305h35v-89h-35v-34h-130v34h-206v1l334 393h2zM709 188l-67 -74h67v74z" />
    <glyph glyph-name="onehalf" unicode="&#xbd;" horiz-adv-x="860" 
d="M242 721v-427h-130v230l-44 -17l-51 122l223 92h2zM662 735l-363 -735h-166l364 735h165zM685 427c100 0 162 -63 162 -145c0 -38 -19 -71 -42 -104l-45 -64h87v-114h-303v3l150 239c16 25 21 31 21 44c0 15 -11 26 -30 26c-22 0 -33 -17 -36 -49l-118 27
c17 94 72 137 154 137z" />
    <glyph glyph-name="onequarter" unicode="&#xbc;" horiz-adv-x="803" 
d="M242 721v-427h-130v230l-44 -17l-51 122l223 92h2zM662 735l-363 -735h-166l364 735h165zM763 428v-305h35v-89h-35v-34h-130v34h-206v1l334 393h2zM652 188l-67 -74h67v74z" />
    <glyph glyph-name="zero.lnum" 
d="M300 748c168 0 272 -148 272 -380c0 -233 -104 -381 -272 -381s-272 148 -272 381c0 232 104 380 272 380zM300 587c-62 0 -85 -88 -85 -219c0 -132 23 -220 85 -220s85 88 85 220c0 131 -23 219 -85 219z" />
    <glyph glyph-name="one.lnum" 
d="M411 748v-581h112v-167h-423v167h127v288l-128 -58l-73 171l381 180h4z" />
    <glyph glyph-name="two.lnum" 
d="M287 748c157 0 257 -103 257 -242c0 -75 -32 -133 -76 -197l-101 -146h180v-163h-488v6l253 396c33 52 45 73 45 109c0 45 -28 74 -70 74c-47 0 -72 -34 -80 -99l-167 38c28 153 114 224 247 224z" />
    <glyph glyph-name="three.lnum" 
d="M300 748c152 0 248 -103 248 -233c0 -68 -31 -115 -73 -144c48 -28 83 -77 83 -150c0 -136 -98 -234 -255 -234c-133 0 -224 71 -252 224l167 38c8 -65 35 -99 84 -99c42 0 71 30 71 76s-29 76 -71 76h-76v140h76c36 2 63 29 63 71c0 44 -29 72 -67 72
c-36 0 -64 -26 -71 -80l-160 67c32 111 116 176 233 176z" />
    <glyph glyph-name="four.lnum" 
d="M511 748v-534h70v-129h-70v-85h-184v85h-326v4l506 659h4zM346 349l-107 -140h107v140z" />
    <glyph glyph-name="five.lnum" 
d="M522 735v-163h-248v-105c10 3 22 5 39 5c136 0 252 -68 252 -246c0 -142 -98 -239 -255 -239c-123 0 -219 51 -255 170l156 75c6 -58 43 -82 86 -82c47 0 83 33 83 85s-35 87 -86 87c-38 0 -64 -19 -75 -31l-129 56v388h432z" />
    <glyph glyph-name="six.lnum" 
d="M502 735l-153 -250c120 -22 212 -119 212 -247c0 -147 -119 -251 -263 -251c-143 0 -261 104 -261 251c0 56 17 106 47 147l212 350h206zM298 329c-43 0 -74 -35 -74 -91s31 -90 74 -90c44 0 76 34 76 90s-32 91 -76 91z" />
    <glyph glyph-name="seven.lnum" 
d="M590 735v-6l-341 -729h-198l269 568h-268v167h538z" />
    <glyph glyph-name="eight.lnum" 
d="M299 748c130 0 239 -90 239 -218c0 -59 -26 -108 -67 -143c55 -40 91 -98 91 -164c0 -141 -119 -236 -263 -236c-143 0 -261 95 -261 236c0 66 34 124 89 163c-42 35 -67 84 -67 144c0 128 108 218 239 218zM299 303c-43 0 -74 -34 -74 -81s31 -80 74 -80
c44 0 76 33 76 80s-32 81 -76 81zM299 595c-40 0 -69 -31 -69 -74s29 -73 69 -73c39 0 69 30 69 73s-30 74 -69 74z" />
    <glyph glyph-name="nine.lnum" 
d="M301 748c143 0 261 -104 261 -251c0 -56 -18 -107 -47 -147l-212 -350h-206l152 249c-120 22 -211 120 -211 248c0 147 119 251 263 251zM301 587c-44 0 -76 -34 -76 -90s32 -91 76 -91c43 0 74 35 74 91s-31 90 -74 90z" />
    <glyph glyph-name="zero.tnum" horiz-adv-x="601" 
d="M301 570c158 0 272 -122 272 -290s-115 -290 -273 -290s-272 122 -272 290s115 290 273 290zM301 411c-51 0 -87 -51 -87 -131s35 -131 86 -131s87 51 87 131s-35 131 -86 131z" />
    <glyph glyph-name="one.tnum" horiz-adv-x="415" 
d="M349 570v-570h-184v277l-90 -43l-73 171l343 165h4z" />
    <glyph glyph-name="two.tnum" horiz-adv-x="537" 
d="M259 570c145 0 237 -103 237 -207c0 -93 -41 -129 -80 -171l-27 -29h118v-163h-456v6l177 206c55 63 81 92 81 137c0 33 -24 58 -60 58c-31 0 -50 -20 -61 -58l-154 74c40 100 117 147 225 147z" />
    <glyph glyph-name="three.tnum" horiz-adv-x="524" 
d="M256 570c152 0 248 -100 248 -226c0 -66 -31 -112 -73 -140c48 -27 83 -75 83 -146c0 -132 -98 -227 -255 -227c-133 0 -224 69 -252 218l167 37c8 -63 35 -96 84 -96c42 0 71 29 71 73c0 45 -29 74 -71 74h-76v136h76c36 2 63 28 63 69c0 42 -29 69 -67 69
c-36 0 -64 -25 -71 -77l-160 65c32 108 116 171 233 171z" />
    <glyph glyph-name="four.tnum" horiz-adv-x="595" 
d="M501 570v-518h70v-125h-70v-83h-184v83h-326v4l506 639h4zM336 183l-107 -136h107v136z" />
    <glyph glyph-name="five.tnum" horiz-adv-x="554" 
d="M492 560v-158h-248v-102c10 3 22 5 39 5c136 0 252 -66 252 -239c0 -138 -98 -232 -255 -232c-123 0 -219 50 -255 165l156 73c6 -56 43 -80 86 -80c47 0 83 32 83 83c0 50 -35 84 -86 84c-38 0 -64 -18 -75 -30l-129 54v377h432z" />
    <glyph glyph-name="six.tnum" horiz-adv-x="574" 
d="M490 713l-153 -243c120 -21 212 -116 212 -239c0 -143 -119 -244 -263 -244c-143 0 -261 101 -261 244c0 52 16 99 44 138l215 344h206zM286 319c-43 0 -74 -34 -74 -88c0 -55 31 -88 74 -88c44 0 76 33 76 88c0 54 -32 88 -76 88z" />
    <glyph glyph-name="seven.tnum" horiz-adv-x="555" 
d="M560 560v-6l-341 -707h-198l269 551h-268v162h538z" />
    <glyph glyph-name="eight.tnum" horiz-adv-x="574" 
d="M286 726c130 0 239 -88 239 -212c0 -57 -26 -105 -67 -139c55 -38 91 -95 91 -159c0 -136 -119 -229 -263 -229c-143 0 -261 93 -261 229c0 64 34 121 89 158c-42 34 -67 82 -67 140c0 124 108 212 239 212zM286 293c-43 0 -74 -33 -74 -79c0 -45 31 -77 74 -77
c44 0 76 32 76 77c0 46 -32 79 -76 79zM286 576c-40 0 -69 -30 -69 -72c0 -41 29 -71 69 -71c39 0 69 30 69 71c0 42 -30 72 -69 72z" />
    <glyph glyph-name="nine.tnum" horiz-adv-x="574" 
d="M288 570c143 0 261 -101 261 -244c0 -53 -17 -100 -44 -138l-215 -344h-206l152 242c-119 22 -211 116 -211 240c0 143 119 244 263 244zM288 414c-44 0 -76 -33 -76 -88c0 -54 32 -88 76 -88c43 0 74 34 74 88c0 55 -31 88 -74 88z" />
    <glyph glyph-name="a.sups" horiz-adv-x="447" 
d="M174 754c45 0 77 -17 93 -42l8 35h129v-359h-129l-8 34c-16 -24 -48 -41 -93 -41c-92 0 -154 79 -154 186c0 108 62 187 154 187zM214 628c-29 0 -47 -20 -47 -61c0 -40 18 -61 47 -61c22 0 36 13 45 28v67c-9 15 -23 27 -45 27z" />
    <glyph glyph-name="b.sups" horiz-adv-x="447" 
d="M188 920v-198c13 15 39 32 85 32c92 0 154 -79 154 -187c0 -107 -62 -186 -154 -186c-45 0 -77 17 -94 41l-7 -34h-129v532h145zM233 628c-22 0 -36 -12 -45 -28v-66c9 -15 23 -28 45 -28c29 0 47 21 47 61c0 41 -18 61 -47 61z" />
    <glyph glyph-name="c.sups" horiz-adv-x="376" 
d="M212 754c73 0 126 -33 160 -87l-106 -78c-13 25 -31 40 -53 40c-30 0 -46 -29 -46 -62c0 -32 16 -62 46 -62c22 0 40 16 52 41l106 -78c-34 -55 -86 -87 -159 -87c-108 0 -192 79 -192 186c0 108 85 187 192 187z" />
    <glyph glyph-name="d.sups" horiz-adv-x="447" 
d="M404 920v-532h-129l-8 34c-16 -24 -48 -41 -93 -41c-92 0 -154 79 -154 186c0 108 62 187 154 187c46 0 72 -17 85 -32v198h145zM214 628c-29 0 -47 -20 -47 -61c0 -40 18 -61 47 -61c22 0 36 13 45 28v66c-9 16 -23 28 -45 28z" />
    <glyph glyph-name="e.sups" horiz-adv-x="407" 
d="M211 754c119 0 171 -84 171 -181v-35h-219c1 -25 21 -40 52 -40c21 0 43 10 56 28l99 -81c-41 -44 -89 -64 -158 -64c-114 0 -192 78 -192 186c0 107 77 187 191 187zM204 655c-26 0 -41 -20 -41 -44h81c-1 23 -12 44 -40 44z" />
    <glyph glyph-name="f.sups" horiz-adv-x="304" 
d="M239 920c38 0 68 -7 89 -19l-49 -117c-6 5 -18 11 -32 11c-19 0 -29 -11 -29 -34v-14h65v-122h-65v-237h-145v237h-59v122h59v6c0 98 63 167 166 167z" />
    <glyph glyph-name="g.sups" horiz-adv-x="448" 
d="M175 754c44 0 77 -17 92 -42l9 35h129v-337c0 -118 -82 -190 -209 -190c-90 0 -145 33 -189 80l94 95c23 -25 49 -50 94 -50c41 0 63 30 64 61v22c-12 -14 -38 -31 -84 -31c-92 0 -154 76 -154 178c0 103 62 179 154 179zM215 628c-29 0 -47 -17 -47 -53s18 -53 47 -53
c21 0 36 13 44 28v51c-8 15 -23 27 -44 27z" />
    <glyph glyph-name="h.sups" horiz-adv-x="437" 
d="M188 920v-195c17 18 45 29 79 29c89 0 134 -63 134 -165v-201h-146v193c0 22 -10 37 -29 37c-21 0 -35 -14 -38 -25v-205h-145v532h145z" />
    <glyph glyph-name="i.sups" horiz-adv-x="231" 
d="M188 747v-359h-145v359h145zM116 937c46 0 79 -33 79 -80c0 -46 -33 -79 -79 -79c-47 0 -80 33 -80 79c0 47 33 80 80 80z" />
    <glyph glyph-name="j.sups" horiz-adv-x="241" 
d="M198 747v-353c0 -100 -74 -174 -200 -174v125c37 0 55 13 55 37v365h145zM125 937c47 0 80 -33 80 -80c0 -46 -33 -79 -80 -79c-46 0 -79 33 -79 79c0 47 33 80 79 80z" />
    <glyph glyph-name="k.sups" horiz-adv-x="445" 
d="M188 920v-299l78 126h174l-109 -137l110 -222h-163l-45 95l-77 -95h-113v532h145z" />
    <glyph glyph-name="l.sups" horiz-adv-x="231" 
d="M188 920v-532h-145v532h145z" />
    <glyph glyph-name="m.sups" horiz-adv-x="642" 
d="M270 754c47 0 81 -20 102 -55c24 33 56 55 106 55c85 0 128 -63 128 -165v-201h-145v193c0 22 -7 37 -27 37s-32 -14 -36 -24l-1 3v-209h-145v193c0 22 -7 37 -27 37s-32 -15 -37 -25v-205h-145v359h129l7 -34c16 24 45 41 91 41z" />
    <glyph glyph-name="n.sups" unicode="&#x207f;" horiz-adv-x="437" 
d="M267 754c89 0 134 -63 134 -165v-201h-146v193c0 22 -10 37 -29 37c-21 0 -35 -14 -38 -25v-205h-145v359h129l7 -33c15 25 46 40 88 40z" />
    <glyph glyph-name="o.sups" horiz-adv-x="431" 
d="M215 754c112 0 196 -80 196 -187c0 -108 -84 -186 -196 -186s-195 78 -195 186c0 107 83 187 195 187zM215 628c-28 0 -48 -26 -48 -61s20 -61 48 -61s49 26 49 61s-21 61 -49 61z" />
    <glyph glyph-name="p.sups" horiz-adv-x="447" 
d="M273 754c92 0 154 -79 154 -187c0 -107 -62 -186 -154 -186c-46 0 -72 17 -85 31v-185h-145v520h129l7 -35c17 25 49 42 94 42zM233 628c-22 0 -36 -12 -45 -27v-67c9 -15 23 -28 45 -28c29 0 47 21 47 61c0 41 -18 61 -47 61z" />
    <glyph glyph-name="q.sups" horiz-adv-x="447" 
d="M174 754c45 0 77 -17 93 -42l8 35h129v-520h-145v185c-13 -14 -39 -31 -85 -31c-92 0 -154 79 -154 186c0 108 62 187 154 187zM214 628c-29 0 -47 -20 -47 -61c0 -40 18 -61 47 -61c22 0 36 13 45 28v67c-9 15 -23 27 -45 27z" />
    <glyph glyph-name="r.sups" horiz-adv-x="295" 
d="M280 754v-144h-12c-39 0 -64 -17 -80 -33v-189h-145v359h128l9 -45c18 30 54 52 100 52z" />
    <glyph glyph-name="s.sups" horiz-adv-x="351" 
d="M200 754c51 0 103 -15 131 -40l-51 -94c-18 15 -47 31 -80 31c-19 0 -24 -7 -24 -16c0 -10 9 -17 50 -28c68 -18 103 -45 103 -98c0 -77 -64 -128 -172 -128c-54 0 -111 18 -140 44l51 94c21 -18 52 -35 90 -35c19 0 26 4 26 14c0 11 -6 18 -41 28
c-75 21 -113 43 -113 99c0 76 61 129 170 129z" />
    <glyph glyph-name="t.sups" horiz-adv-x="328" 
d="M214 863v-116h90v-122h-90v-85c0 -17 13 -30 34 -30c18 0 31 5 40 10l34 -114c-21 -13 -50 -25 -88 -25c-103 0 -165 58 -165 158v86h-58v122h58v116h145z" />
    <glyph glyph-name="u.sups" horiz-adv-x="437" 
d="M394 747v-359h-129l-7 33c-17 -25 -46 -40 -91 -40c-88 0 -131 63 -131 165v201h145v-193c0 -22 8 -37 30 -37c21 0 33 14 38 25v205h145z" />
    <glyph glyph-name="v.sups" horiz-adv-x="438" 
d="M432 747l-211 -366h-3l-212 366h163l50 -115l51 115h162z" />
    <glyph glyph-name="w.sups" horiz-adv-x="558" 
d="M552 747l-187 -366h-3l-83 126l-84 -126h-3l-186 366h163l41 -116l68 116h2l67 -116l42 116h163z" />
    <glyph glyph-name="x.sups" horiz-adv-x="409" 
d="M403 747l-101 -179l106 -180h-170l-36 76l-35 -76h-170l105 180l-100 179h168l32 -78l33 78h168z" />
    <glyph glyph-name="y.sups" horiz-adv-x="437" 
d="M432 747l-299 -520h-166l173 289l-135 231h163l50 -115l51 115h163z" />
    <glyph glyph-name="z.sups" horiz-adv-x="365" 
d="M345 747v-3l-112 -235h110v-121h-325v3l112 234h-104v122h319z" />
    <glyph glyph-name="ordfeminine" unicode="&#xaa;" horiz-adv-x="447" 
d="M174 754c45 0 77 -17 93 -42l8 35h129v-359h-129l-8 34c-16 -24 -48 -41 -93 -41c-92 0 -154 79 -154 186c0 108 62 187 154 187zM214 628c-29 0 -47 -20 -47 -61c0 -40 18 -61 47 -61c22 0 36 13 45 28v67c-9 15 -23 27 -45 27z" />
    <glyph glyph-name="ordmasculine" unicode="&#xba;" horiz-adv-x="431" 
d="M215 754c112 0 196 -80 196 -187c0 -108 -84 -186 -196 -186s-195 78 -195 186c0 107 83 187 195 187zM215 628c-28 0 -48 -26 -48 -61s20 -61 48 -61s49 26 49 61s-21 61 -49 61z" />
    <glyph glyph-name="Eng" unicode="&#x14a;" horiz-adv-x="743" 
d="M676 735v-748c-7 -133 -113 -227 -262 -227v176c46 0 72 33 72 78v134l-229 199v-347h-190v748h4l415 -360v347h190z" />
    <glyph glyph-name="Dcroat" unicode="&#x110;" horiz-adv-x="759" 
d="M325 735c254 0 407 -135 407 -367s-151 -368 -407 -368h-242v320h-80v120h80v295h242zM319 561h-46v-121h93v-120h-93v-147h46c147 0 220 72 220 194c0 123 -73 194 -220 194z" />
    <glyph glyph-name="Ccedilla" unicode="&#xc7;" horiz-adv-x="683" 
d="M410 748c120 0 197 -37 270 -113l-119 -138c-33 42 -82 78 -151 78c-117 0 -190 -86 -190 -207s73 -208 190 -208c69 0 118 36 151 78l118 -138c-75 -83 -161 -113 -269 -113l-5 -27c59 -4 100 -44 100 -104c0 -78 -61 -115 -130 -115c-37 0 -78 12 -101 43l54 63
c12 -13 28 -23 46 -23c21 0 35 13 35 33c0 22 -17 33 -48 33c-18 0 -38 -3 -49 -6l-3 4l22 106c-182 33 -304 183 -304 374c0 217 159 380 383 380z" />
    <glyph glyph-name="Aogonek" unicode="&#x104;" horiz-adv-x="744" 
d="M374 748l368 -748h-35c-24 -9 -38 -25 -38 -50c0 -28 23 -44 47 -44c17 0 27 6 35 11l37 -96c-20 -10 -42 -16 -77 -16c-81 0 -155 43 -155 143c0 20 3 37 10 52h-37l-34 86h-246l-34 -86h-213l368 748h4zM372 400l-67 -172h134z" />
    <glyph glyph-name="Aringacute" unicode="&#x1fa;" horiz-adv-x="744" 
d="M374 748l368 -748h-213l-34 86h-246l-34 -86h-213l368 748h4zM593 1114l-140 -117c31 -24 51 -61 51 -105c0 -75 -56 -129 -131 -129c-76 0 -132 54 -132 129c0 45 19 83 52 106l98 116h202zM372 400l-67 -172h134zM373 930c-20 0 -35 -16 -35 -38c0 -21 15 -36 35 -36
c19 0 34 15 34 36c0 22 -15 38 -34 38z" />
    <glyph glyph-name="Gcommaaccent" unicode="&#x122;" horiz-adv-x="755" 
d="M410 748c120 0 197 -37 270 -113l-119 -138c-33 42 -82 78 -151 78c-117 0 -190 -86 -190 -207s77 -208 200 -208c34 0 63 11 88 25v85h-137v163h327v-341c-72 -71 -166 -105 -278 -105c-230 0 -393 164 -393 381s159 380 383 380zM380 -40c62 0 107 -46 107 -107
c0 -28 -8 -51 -23 -68l-123 -139h-4v306c14 5 27 8 43 8z" />
    <glyph glyph-name="Iogonek" unicode="&#x12e;" horiz-adv-x="324" 
d="M257 735v-735h-48c-24 -9 -38 -25 -38 -50c0 -28 23 -44 47 -44c17 0 27 6 35 11l37 -96c-20 -10 -42 -16 -77 -16c-81 0 -155 43 -155 143c0 20 3 37 10 52h-1v735h190z" />
    <glyph glyph-name="Kcommaaccent" unicode="&#x136;" horiz-adv-x="736" 
d="M683 735l-222 -353l269 -382h-228l-148 213l-144 -213h-143v735h190v-353l202 353h224zM336 -40c62 0 107 -46 107 -107c0 -28 -8 -51 -23 -68l-123 -139h-4v306c14 5 27 8 43 8z" />
    <glyph glyph-name="Lcommaaccent" unicode="&#x13b;" horiz-adv-x="548" 
d="M257 735v-568h286v-167h-476v735h190zM269 -40c62 0 107 -46 107 -107c0 -28 -8 -51 -23 -68l-123 -139h-4v306c14 5 27 8 43 8z" />
    <glyph glyph-name="Ncommaaccent" unicode="&#x145;" horiz-adv-x="743" 
d="M676 735v-748h-4l-415 360v-347h-190v748h4l415 -360v347h190zM369 -40c62 0 107 -46 107 -107c0 -28 -8 -51 -23 -68l-123 -139h-4v306c14 5 27 8 43 8z" />
    <glyph glyph-name="Rcommaaccent" unicode="&#x156;" horiz-adv-x="689" 
d="M389 735c137 0 262 -90 262 -246c0 -100 -52 -173 -125 -212l162 -277h-221l-141 244h-69v-244h-190v735h322zM328 -40c62 0 107 -46 107 -107c0 -28 -8 -51 -23 -68l-123 -139h-4v306c14 5 27 8 43 8zM371 572h-114v-165h114c51 0 87 30 87 82s-36 83 -87 83z" />
    <glyph glyph-name="Scedilla" unicode="&#x15e;" horiz-adv-x="615" 
d="M306 748c109 0 208 -29 270 -77l-98 -157c-42 34 -95 61 -173 61c-54 0 -80 -18 -80 -53c0 -25 18 -43 117 -60c199 -41 254 -117 254 -229c0 -142 -99 -237 -267 -245l-6 -28c59 -4 100 -44 100 -104c0 -78 -61 -115 -130 -115c-37 0 -78 12 -101 43l54 63
c12 -13 28 -23 46 -23c21 0 35 13 35 33c0 22 -17 33 -48 33c-18 0 -38 -3 -49 -6l-3 4l21 102c-93 10 -177 43 -239 98l102 158c47 -52 129 -86 201 -86c65 0 94 19 94 55c0 26 -21 44 -120 62c-198 42 -252 129 -252 235c0 134 105 236 272 236z" />
    <glyph glyph-name="Scommaaccent" unicode="&#x218;" horiz-adv-x="615" 
d="M306 748c109 0 208 -29 270 -77l-98 -157c-42 34 -95 61 -173 61c-54 0 -80 -18 -80 -53c0 -25 18 -43 117 -60c199 -41 254 -117 254 -229c0 -148 -108 -246 -290 -246c-115 0 -222 35 -297 101l102 158c47 -52 129 -86 201 -86c65 0 94 19 94 55c0 26 -21 44 -120 62
c-198 42 -252 129 -252 235c0 134 105 236 272 236zM299 -40c62 0 107 -46 107 -107c0 -28 -8 -51 -23 -68l-123 -139h-4v306c14 5 27 8 43 8z" />
    <glyph glyph-name="Tcommaaccent" unicode="&#x162;" horiz-adv-x="672" 
d="M655 735v-167h-224v-568h-190v568h-224v167h638zM304 -40c62 0 107 -46 107 -107c0 -28 -8 -51 -23 -68l-123 -139h-4v306c14 5 27 8 43 8z" />
    <glyph glyph-name="Eth" unicode="&#xd0;" horiz-adv-x="759" 
d="M325 735c254 0 407 -135 407 -367s-151 -368 -407 -368h-242v320h-80v120h80v295h242zM319 561h-46v-121h93v-120h-93v-147h46c147 0 220 72 220 194c0 123 -73 194 -220 194z" />
    <glyph glyph-name="Oslashacute" unicode="&#x1fe;" horiz-adv-x="820" 
d="M410 748c43 0 84 -6 122 -18l47 85h162l-84 -152c84 -68 136 -173 136 -297c0 -219 -165 -379 -383 -379c-42 0 -82 6 -120 17l-46 -84h-162l83 149c-86 68 -138 173 -138 297c0 221 164 382 383 382zM410 575c-112 0 -190 -86 -190 -209c0 -51 14 -95 38 -130l186 336
c-11 2 -22 3 -34 3zM600 366c0 50 -13 95 -37 129l-185 -333c10 -1 21 -2 32 -2c112 0 190 85 190 206zM647 905l-165 -123h-168l121 123h212z" />
    <glyph glyph-name="Ldot" unicode="&#x13f;" horiz-adv-x="548" 
d="M257 735v-568h286v-167h-476v735h190zM437 488c62 0 107 -45 107 -107s-45 -107 -107 -107s-107 45 -107 107s45 107 107 107z" />
    <glyph glyph-name="Tbar" unicode="&#x166;" horiz-adv-x="672" 
d="M655 735v-167h-224v-168h132v-120h-132v-280h-190v280h-133v120h133v168h-224v167h638z" />
    <glyph glyph-name="Lslash" unicode="&#x141;" horiz-adv-x="582" 
d="M291 735v-284l75 26l46 -133l-121 -41v-136h286v-167h-476v239l-63 -21l-46 133l109 36v348h190z" />
    <glyph glyph-name="Hbar" unicode="&#x126;" horiz-adv-x="790" 
d="M709 735v-92h70v-120h-70v-523h-190v280h-248v-280h-190v523h-70v120h70v92h190v-92h248v92h190zM271 443h248v80h-248v-80z" />
    <glyph glyph-name="aringacute" unicode="&#x1fb;" horiz-adv-x="619" 
d="M246 520c68 0 115 -27 139 -63l10 53h164v-510h-164l-10 52c-24 -35 -71 -62 -139 -62c-132 0 -222 112 -222 265s90 265 222 265zM534 897l-152 -113c28 -24 45 -60 45 -101c0 -75 -56 -129 -131 -129c-76 0 -132 54 -132 129c0 44 19 82 51 106l107 108h212zM295 361
c-51 0 -85 -38 -85 -106s34 -106 85 -106c39 0 64 21 80 47v118c-16 26 -41 47 -80 47zM296 721c-20 0 -35 -16 -35 -38c0 -21 15 -36 35 -36c19 0 34 15 34 36c0 22 -15 38 -34 38z" />
    <glyph glyph-name="ldot" unicode="&#x140;" horiz-adv-x="553" 
d="M244 760v-760h-184v760h184zM421 364c62 0 107 -45 107 -107s-45 -107 -107 -107s-107 45 -107 107s45 107 107 107z" />
    <glyph glyph-name="aogonek" unicode="&#x105;" horiz-adv-x="619" 
d="M246 520c68 0 115 -27 139 -63l10 53h164v-510h-23c-24 -9 -38 -25 -38 -50c0 -28 23 -44 47 -44c17 0 27 6 35 11l37 -96c-20 -10 -42 -16 -77 -16c-81 0 -155 43 -155 143c0 20 3 37 10 52l-10 52c-24 -35 -71 -62 -139 -62c-132 0 -222 112 -222 265s90 265 222 265z
M295 361c-51 0 -85 -38 -85 -106s34 -106 85 -106c39 0 64 21 80 47v118c-16 26 -41 47 -80 47z" />
    <glyph glyph-name="Uogonek" unicode="&#x172;" horiz-adv-x="698" 
d="M640 735v-467c0 -127 -58 -222 -167 -261c-16 -9 -25 -24 -25 -44c0 -28 23 -44 47 -44c17 0 27 6 35 11l37 -96c-20 -10 -42 -16 -77 -16c-81 0 -155 43 -155 143c0 9 0 18 2 26c-182 5 -279 116 -279 281v467h190v-454c0 -71 34 -121 101 -121s101 50 101 121v454h190z
" />
    <glyph glyph-name="Eogonek" unicode="&#x118;" horiz-adv-x="603" 
d="M556 735v-173h-299v-110h257v-159h-257v-120h307v-173h-48c-24 -9 -38 -25 -38 -50c0 -28 23 -44 47 -44c17 0 27 6 35 11l37 -96c-20 -10 -42 -16 -77 -16c-81 0 -155 43 -155 143c0 20 3 37 10 52h-308v735h489z" />
    <glyph glyph-name="eogonek" unicode="&#x119;" horiz-adv-x="564" 
d="M291 520c166 0 242 -118 242 -257v-52h-323c2 -45 32 -72 88 -72c38 0 73 17 93 42l125 -100c-29 -32 -62 -56 -100 -71c-13 -9 -21 -22 -21 -41c0 -28 23 -44 47 -44c17 0 27 6 35 11l37 -96c-20 -10 -42 -16 -77 -16c-81 0 -155 43 -155 143c0 8 0 16 1 23
c-156 5 -259 114 -259 264c0 153 108 266 267 266zM283 390c-44 0 -72 -35 -73 -76h142c-1 40 -25 76 -69 76z" />
    <glyph glyph-name="aeacute" unicode="&#x1fd;" horiz-adv-x="950" 
d="M687 520c159 0 232 -118 232 -257v-51h-336c12 -42 43 -73 106 -73c38 0 76 17 96 44l117 -102c-54 -62 -119 -91 -212 -91c-63 0 -112 26 -135 61l-8 -51h-152l-10 52c-24 -35 -71 -62 -139 -62c-132 0 -222 112 -222 265s90 265 222 265c68 0 115 -27 139 -63l10 53
h154l9 -51c23 34 67 61 129 61zM295 361c-51 0 -85 -38 -85 -106s34 -106 85 -106c39 0 64 21 80 47v118c-16 26 -41 47 -80 47zM660 390c-42 0 -69 -31 -78 -76h156c-1 40 -31 76 -78 76zM717 726l-185 -155h-148l131 155h202z" />
    <glyph glyph-name="agrave" unicode="&#xe0;" horiz-adv-x="619" 
d="M246 520c68 0 115 -27 139 -63l10 53h164v-510h-164l-10 52c-24 -35 -71 -62 -139 -62c-132 0 -222 112 -222 265s90 265 222 265zM295 361c-51 0 -85 -38 -85 -106s34 -106 85 -106c39 0 64 21 80 47v118c-16 26 -41 47 -80 47zM246 726l131 -155h-148l-185 155h202z
" />
    <glyph glyph-name="aacute" unicode="&#xe1;" horiz-adv-x="619" 
d="M246 520c68 0 115 -27 139 -63l10 53h164v-510h-164l-10 52c-24 -35 -71 -62 -139 -62c-132 0 -222 112 -222 265s90 265 222 265zM295 361c-51 0 -85 -38 -85 -106s34 -106 85 -106c39 0 64 21 80 47v118c-16 26 -41 47 -80 47zM544 726l-185 -155h-148l131 155h202z
" />
    <glyph glyph-name="acircumflex" unicode="&#xe2;" horiz-adv-x="619" 
d="M246 520c68 0 115 -27 139 -63l10 53h164v-510h-164l-10 52c-24 -35 -71 -62 -139 -62c-132 0 -222 112 -222 265s90 265 222 265zM295 361c-51 0 -85 -38 -85 -106s34 -106 85 -106c39 0 64 21 80 47v118c-16 26 -41 47 -80 47zM298 784l176 -211h-130l-46 51l-46 -51
h-130z" />
    <glyph glyph-name="atilde" unicode="&#xe3;" horiz-adv-x="619" 
d="M246 520c68 0 115 -27 139 -63l10 53h164v-510h-164l-10 52c-24 -35 -71 -62 -139 -62c-132 0 -222 112 -222 265s90 265 222 265zM295 361c-51 0 -85 -38 -85 -106s34 -106 85 -106c39 0 64 21 80 47v118c-16 26 -41 47 -80 47zM243 746c64 0 91 -62 122 -62
c22 0 29 19 29 56h90c0 -114 -61 -170 -130 -170s-79 62 -118 62c-27 0 -33 -18 -33 -56h-90c0 119 61 170 130 170z" />
    <glyph glyph-name="adieresis" unicode="&#xe4;" horiz-adv-x="619" 
d="M246 520c68 0 115 -27 139 -63l10 53h164v-510h-164l-10 52c-24 -35 -71 -62 -139 -62c-132 0 -222 112 -222 265s90 265 222 265zM295 361c-51 0 -85 -38 -85 -106s34 -106 85 -106c39 0 64 21 80 47v118c-16 26 -41 47 -80 47zM195 737c48 0 82 -34 82 -82
s-34 -82 -82 -82s-82 34 -82 82s34 82 82 82zM402 737c48 0 82 -34 82 -82s-34 -82 -82 -82s-82 34 -82 82s34 82 82 82z" />
    <glyph glyph-name="amacron" unicode="&#x101;" horiz-adv-x="619" 
d="M246 520c68 0 115 -27 139 -63l10 53h164v-510h-164l-10 52c-24 -35 -71 -62 -139 -62c-132 0 -222 112 -222 265s90 265 222 265zM295 361c-51 0 -85 -38 -85 -106s34 -106 85 -106c39 0 64 21 80 47v118c-16 26 -41 47 -80 47zM441 709v-120h-285v120h285z" />
    <glyph glyph-name="abreve" unicode="&#x103;" horiz-adv-x="619" 
d="M246 520c68 0 115 -27 139 -63l10 53h164v-510h-164l-10 52c-24 -35 -71 -62 -139 -62c-132 0 -222 112 -222 265s90 265 222 265zM295 361c-51 0 -85 -38 -85 -106s34 -106 85 -106c39 0 64 21 80 47v118c-16 26 -41 47 -80 47zM473 746c0 -105 -75 -181 -174 -181
c-101 0 -176 76 -176 181h121c0 -39 23 -67 55 -67c30 0 53 28 53 67h121z" />
    <glyph glyph-name="aring" unicode="&#xe5;" horiz-adv-x="619" 
d="M246 520c68 0 115 -27 139 -63l10 53h164v-510h-164l-10 52c-24 -35 -71 -62 -139 -62c-132 0 -222 112 -222 265s90 265 222 265zM295 361c-51 0 -85 -38 -85 -106s34 -106 85 -106c39 0 64 21 80 47v118c-16 26 -41 47 -80 47zM299 826c75 0 131 -56 131 -131
s-56 -129 -131 -129c-76 0 -132 54 -132 129s56 131 132 131zM299 733c-20 0 -35 -16 -35 -38c0 -21 15 -36 35 -36c19 0 34 15 34 36c0 22 -15 38 -34 38z" />
    <glyph glyph-name="ccedilla" unicode="&#xe7;" horiz-adv-x="511" 
d="M294 520c97 0 168 -45 214 -121l-128 -94c-17 37 -43 57 -85 57c-55 0 -85 -49 -85 -107s30 -107 85 -107c41 0 69 21 87 58l126 -95c-44 -72 -110 -116 -200 -120l-6 -31c59 -4 100 -44 100 -104c0 -78 -61 -115 -130 -115c-37 0 -78 12 -101 43l54 63
c12 -13 28 -23 46 -23c21 0 35 13 35 33c0 22 -17 33 -48 33c-18 0 -38 -3 -49 -6l-3 4l22 109c-120 27 -204 127 -204 258c0 153 116 265 270 265z" />
    <glyph glyph-name="dcaron" unicode="&#x10f;" horiz-adv-x="829" 
d="M559 760v-760h-164l-10 52c-24 -35 -71 -62 -139 -62c-132 0 -222 112 -222 265s90 265 222 265c70 0 109 -27 129 -50v290h184zM295 361c-51 0 -85 -38 -85 -106s34 -106 85 -106c39 0 64 21 80 47v117c-16 27 -41 48 -80 48zM687 764c62 0 107 -46 107 -107
c0 -28 -11 -50 -23 -68l-123 -189h-4v356c14 5 27 8 43 8z" />
    <glyph glyph-name="lcaron" unicode="&#x13e;" horiz-adv-x="514" 
d="M244 760v-760h-184v760h184zM372 764c62 0 107 -46 107 -107c0 -28 -11 -50 -23 -68l-123 -189h-4v356c14 5 27 8 43 8z" />
    <glyph glyph-name="tcaron" unicode="&#x165;" horiz-adv-x="658" 
d="M279 677v-167h135v-154h-135v-149c0 -32 22 -53 57 -53c27 0 46 7 60 14l44 -144c-29 -18 -69 -34 -122 -34c-138 0 -223 78 -223 215v151h-86v154h86v167h184zM516 764c62 0 107 -46 107 -107c0 -28 -11 -50 -23 -68l-123 -189h-4v356c14 5 27 8 43 8z" />
    <glyph glyph-name="tbar" unicode="&#x167;" horiz-adv-x="443" 
d="M279 677v-167h135v-120h-135v-55h135v-120h-135v-8c0 -32 26 -53 72 -53c24 0 42 4 54 10l29 -148c-19 -12 -58 -26 -106 -26c-144 0 -233 78 -233 215v10h-86v120h86v55h-86v120h86v167h184z" />
    <glyph glyph-name="cacute" unicode="&#x107;" horiz-adv-x="511" 
d="M294 520c97 0 168 -45 214 -121l-128 -94c-17 37 -43 57 -85 57c-55 0 -85 -49 -85 -107s30 -107 85 -107c41 0 69 21 87 58l126 -95c-46 -76 -117 -121 -214 -121c-154 0 -270 112 -270 265s116 265 270 265zM536 726l-185 -155h-148l131 155h202z" />
    <glyph glyph-name="ccircumflex" unicode="&#x109;" horiz-adv-x="511" 
d="M294 520c97 0 168 -45 214 -121l-128 -94c-17 37 -43 57 -85 57c-55 0 -85 -49 -85 -107s30 -107 85 -107c41 0 69 21 87 58l126 -95c-46 -76 -117 -121 -214 -121c-154 0 -270 112 -270 265s116 265 270 265zM290 784l176 -211h-130l-46 51l-46 -51h-130z" />
    <glyph glyph-name="ccaron" unicode="&#x10d;" horiz-adv-x="511" 
d="M294 520c97 0 168 -45 214 -121l-128 -94c-17 37 -43 57 -85 57c-55 0 -85 -49 -85 -107s30 -107 85 -107c41 0 69 21 87 58l126 -95c-46 -76 -117 -121 -214 -121c-154 0 -270 112 -270 265s116 265 270 265zM463 771l-176 -211l-176 211h130l46 -51l46 51h130z" />
    <glyph glyph-name="cdotaccent" unicode="&#x10b;" horiz-adv-x="511" 
d="M294 520c97 0 168 -45 214 -121l-128 -94c-17 37 -43 57 -85 57c-55 0 -85 -49 -85 -107s30 -107 85 -107c41 0 69 21 87 58l126 -95c-46 -76 -117 -121 -214 -121c-154 0 -270 112 -270 265s116 265 270 265zM290 772c60 0 103 -43 103 -103s-43 -103 -103 -103
s-103 43 -103 103s43 103 103 103z" />
    <glyph glyph-name="dcroat" unicode="&#x111;" horiz-adv-x="625" 
d="M559 760v-66h71v-120h-71v-574h-164l-10 52c-24 -35 -71 -62 -139 -62c-132 0 -222 112 -222 265s90 265 222 265c70 0 109 -27 129 -50v104h-110v120h110v66h184zM295 361c-51 0 -85 -38 -85 -106s34 -106 85 -106c39 0 64 21 80 47v117c-16 27 -41 48 -80 48z" />
    <glyph glyph-name="egrave" unicode="&#xe8;" horiz-adv-x="564" 
d="M291 520c166 0 242 -118 242 -257v-52h-323c2 -45 32 -72 88 -72c38 0 73 17 93 42l125 -100c-56 -62 -125 -91 -222 -91c-162 0 -270 111 -270 264s108 266 267 266zM283 390c-44 0 -72 -35 -73 -76h142c-1 40 -25 76 -69 76zM235 726l131 -155h-148l-185 155h202z" />
    <glyph glyph-name="eacute" unicode="&#xe9;" horiz-adv-x="564" 
d="M291 520c166 0 242 -118 242 -257v-52h-323c2 -45 32 -72 88 -72c38 0 73 17 93 42l125 -100c-56 -62 -125 -91 -222 -91c-162 0 -270 111 -270 264s108 266 267 266zM283 390c-44 0 -72 -35 -73 -76h142c-1 40 -25 76 -69 76zM533 726l-185 -155h-148l131 155h202z" />
    <glyph glyph-name="ecircumflex" unicode="&#xea;" horiz-adv-x="564" 
d="M291 520c166 0 242 -118 242 -257v-52h-323c2 -45 32 -72 88 -72c38 0 73 17 93 42l125 -100c-56 -62 -125 -91 -222 -91c-162 0 -270 111 -270 264s108 266 267 266zM283 390c-44 0 -72 -35 -73 -76h142c-1 40 -25 76 -69 76zM287 784l176 -211h-130l-46 51l-46 -51
h-130z" />
    <glyph glyph-name="ecaron" unicode="&#x11b;" horiz-adv-x="564" 
d="M291 520c166 0 242 -118 242 -257v-52h-323c2 -45 32 -72 88 -72c38 0 73 17 93 42l125 -100c-56 -62 -125 -91 -222 -91c-162 0 -270 111 -270 264s108 266 267 266zM283 390c-44 0 -72 -35 -73 -76h142c-1 40 -25 76 -69 76zM463 771l-176 -211l-176 211h130l46 -51
l46 51h130z" />
    <glyph glyph-name="edieresis" unicode="&#xeb;" horiz-adv-x="564" 
d="M291 520c166 0 242 -118 242 -257v-52h-323c2 -45 32 -72 88 -72c38 0 73 17 93 42l125 -100c-56 -62 -125 -91 -222 -91c-162 0 -270 111 -270 264s108 266 267 266zM283 390c-44 0 -72 -35 -73 -76h142c-1 40 -25 76 -69 76zM184 737c48 0 82 -34 82 -82
s-34 -82 -82 -82s-82 34 -82 82s34 82 82 82zM391 737c48 0 82 -34 82 -82s-34 -82 -82 -82s-82 34 -82 82s34 82 82 82z" />
    <glyph glyph-name="emacron" unicode="&#x113;" horiz-adv-x="564" 
d="M291 520c166 0 242 -118 242 -257v-52h-323c2 -45 32 -72 88 -72c38 0 73 17 93 42l125 -100c-56 -62 -125 -91 -222 -91c-162 0 -270 111 -270 264s108 266 267 266zM283 390c-44 0 -72 -35 -73 -76h142c-1 40 -25 76 -69 76zM430 709v-120h-285v120h285z" />
    <glyph glyph-name="ebreve" unicode="&#x115;" horiz-adv-x="564" 
d="M291 520c166 0 242 -118 242 -257v-52h-323c2 -45 32 -72 88 -72c38 0 73 17 93 42l125 -100c-56 -62 -125 -91 -222 -91c-162 0 -270 111 -270 264s108 266 267 266zM283 390c-44 0 -72 -35 -73 -76h142c-1 40 -25 76 -69 76zM462 746c0 -105 -75 -181 -174 -181
c-101 0 -176 76 -176 181h121c0 -39 23 -67 55 -67c30 0 53 28 53 67h121z" />
    <glyph glyph-name="edotaccent" unicode="&#x117;" horiz-adv-x="564" 
d="M291 520c166 0 242 -118 242 -257v-52h-323c2 -45 32 -72 88 -72c38 0 73 17 93 42l125 -100c-56 -62 -125 -91 -222 -91c-162 0 -270 111 -270 264s108 266 267 266zM283 390c-44 0 -72 -35 -73 -76h142c-1 40 -25 76 -69 76zM287 772c60 0 103 -43 103 -103
s-43 -103 -103 -103s-103 43 -103 103s43 103 103 103z" />
    <glyph glyph-name="hbar" unicode="&#x127;" horiz-adv-x="611" 
d="M249 760v-66h111v-120h-111v-101c25 28 67 47 121 47c126 0 191 -89 191 -231v-289h-184v279c0 41 -21 69 -58 69c-36 0 -60 -23 -70 -44v-304h-184v574h-70v120h70v66h184z" />
    <glyph glyph-name="gcircumflex" unicode="&#x11d;" horiz-adv-x="620" 
d="M247 520c68 0 115 -27 139 -63l10 53h164v-483c0 -166 -114 -267 -289 -267c-124 0 -201 46 -262 112l119 121c35 -39 75 -74 141 -74c67 0 105 47 107 104v37c-20 -23 -59 -50 -129 -50c-132 0 -222 108 -222 255s90 255 222 255zM296 361c-51 0 -85 -34 -85 -96
s34 -96 85 -96c39 0 64 21 80 48v97c-16 26 -41 47 -80 47zM296 784l176 -211h-130l-46 51l-46 -51h-130z" />
    <glyph glyph-name="gbreve" unicode="&#x11f;" horiz-adv-x="620" 
d="M247 520c68 0 115 -27 139 -63l10 53h164v-483c0 -166 -114 -267 -289 -267c-124 0 -201 46 -262 112l119 121c35 -39 75 -74 141 -74c67 0 105 47 107 104v37c-20 -23 -59 -50 -129 -50c-132 0 -222 108 -222 255s90 255 222 255zM296 361c-51 0 -85 -34 -85 -96
s34 -96 85 -96c39 0 64 21 80 48v97c-16 26 -41 47 -80 47zM471 746c0 -105 -75 -181 -174 -181c-101 0 -176 76 -176 181h121c0 -39 23 -67 55 -67c30 0 53 28 53 67h121z" />
    <glyph glyph-name="gdotaccent" unicode="&#x121;" horiz-adv-x="620" 
d="M247 520c68 0 115 -27 139 -63l10 53h164v-483c0 -166 -114 -267 -289 -267c-124 0 -201 46 -262 112l119 121c35 -39 75 -74 141 -74c67 0 105 47 107 104v37c-20 -23 -59 -50 -129 -50c-132 0 -222 108 -222 255s90 255 222 255zM296 361c-51 0 -85 -34 -85 -96
s34 -96 85 -96c39 0 64 21 80 48v97c-16 26 -41 47 -80 47zM296 772c60 0 103 -43 103 -103s-43 -103 -103 -103s-103 43 -103 103s43 103 103 103z" />
    <glyph glyph-name="gcommaaccent" unicode="&#x123;" horiz-adv-x="620" 
d="M247 520c68 0 115 -27 139 -63l10 53h164v-483c0 -166 -114 -267 -289 -267c-124 0 -201 46 -262 112l119 121c35 -39 75 -74 141 -74c67 0 105 47 107 104v37c-20 -23 -59 -50 -129 -50c-132 0 -222 108 -222 255s90 255 222 255zM296 361c-51 0 -85 -34 -85 -96
s34 -96 85 -96c39 0 64 21 80 48v97c-16 26 -41 47 -80 47zM371 930v-356c-14 -5 -27 -8 -43 -8c-62 0 -107 46 -107 107c0 28 11 50 23 68l123 189h4z" />
    <glyph glyph-name="hcircumflex" unicode="&#x125;" horiz-adv-x="606" 
d="M244 760v-287c25 28 67 47 121 47c126 0 191 -89 191 -231v-289h-184v279c0 41 -21 69 -58 69c-36 0 -60 -23 -70 -44v-304h-184v760h184zM162 958l186 -162h-135l-51 41l-51 -41h-135z" />
    <glyph glyph-name="jcircumflex" unicode="&#x135;" horiz-adv-x="304" 
d="M244 510v-516c0 -134 -100 -234 -240 -234c-79 0 -146 27 -196 80l118 122c16 -19 42 -43 74 -43c37 0 60 22 60 61v530h184zM151 784l176 -211h-130l-46 51l-46 -51h-130z" />
    <glyph glyph-name="kcommaaccent" unicode="&#x137;" horiz-adv-x="606" 
d="M244 760v-464l134 214h220l-155 -200l162 -310h-207l-79 149l-115 -149h-144v760h184zM278 -40c62 0 107 -46 107 -107c0 -28 -8 -51 -23 -68l-123 -139h-4v306c14 5 27 8 43 8z" />
    <glyph glyph-name="lacute" unicode="&#x13a;" horiz-adv-x="304" 
d="M244 760v-760h-184v760h184zM398 919l-165 -123h-168l121 123h212z" />
    <glyph glyph-name="lcommaaccent" unicode="&#x13c;" horiz-adv-x="304" 
d="M244 760v-760h-184v760h184zM120 -40c62 0 107 -46 107 -107c0 -28 -8 -51 -23 -68l-123 -139h-4v306c14 5 27 8 43 8z" />
    <glyph glyph-name="lslash" unicode="&#x142;" horiz-adv-x="340" 
d="M262 760v-317l60 23l43 -112l-103 -40v-314h-184v244l-60 -23l-43 112l103 39v388h184z" />
    <glyph glyph-name="iogonek" unicode="&#x12f;" horiz-adv-x="304" 
d="M244 510v-510h-44c-24 -9 -38 -25 -38 -50c0 -28 23 -44 47 -44c17 0 27 6 35 11l37 -96c-20 -10 -42 -16 -77 -16c-81 0 -155 43 -155 143c0 21 4 39 11 54v508h184zM152 772c60 0 103 -43 103 -103s-43 -103 -103 -103s-103 43 -103 103s43 103 103 103z" />
    <glyph glyph-name="igrave" unicode="&#xec;" horiz-adv-x="304" 
d="M244 510v-510h-184v510h184zM100 726l131 -155h-148l-185 155h202z" />
    <glyph glyph-name="iacute" unicode="&#xed;" horiz-adv-x="304" 
d="M244 510v-510h-184v510h184zM398 726l-185 -155h-148l131 155h202z" />
    <glyph glyph-name="icircumflex" unicode="&#xee;" horiz-adv-x="304" 
d="M244 510v-510h-184v510h184zM152 784l176 -211h-130l-46 51l-46 -51h-130z" />
    <glyph glyph-name="itilde" unicode="&#x129;" horiz-adv-x="304" 
d="M244 510v-510h-184v510h184zM97 746c64 0 91 -62 122 -62c22 0 29 19 29 56h90c0 -114 -61 -170 -130 -170s-79 62 -118 62c-27 0 -33 -18 -33 -56h-90c0 119 61 170 130 170z" />
    <glyph glyph-name="idieresis" unicode="&#xef;" horiz-adv-x="304" 
d="M244 510v-510h-184v510h184zM49 737c48 0 82 -34 82 -82s-34 -82 -82 -82s-82 34 -82 82s34 82 82 82zM256 737c48 0 82 -34 82 -82s-34 -82 -82 -82s-82 34 -82 82s34 82 82 82z" />
    <glyph glyph-name="imacron" unicode="&#x12b;" horiz-adv-x="304" 
d="M244 510v-510h-184v510h184zM295 709v-120h-285v120h285z" />
    <glyph glyph-name="ibreve" unicode="&#x12d;" horiz-adv-x="304" 
d="M244 510v-510h-184v510h184zM327 746c0 -105 -75 -181 -174 -181c-101 0 -176 76 -176 181h121c0 -39 23 -67 55 -67c30 0 53 28 53 67h121z" />
    <glyph glyph-name="nacute" unicode="&#x144;" horiz-adv-x="606" 
d="M365 520c126 0 191 -89 191 -231v-289h-184v279c0 41 -21 69 -58 69c-36 0 -60 -23 -70 -44v-304h-184v510h164l9 -51c23 36 69 61 132 61zM554 726l-185 -155h-148l131 155h202z" />
    <glyph glyph-name="ncaron" unicode="&#x148;" horiz-adv-x="606" 
d="M365 520c126 0 191 -89 191 -231v-289h-184v279c0 41 -21 69 -58 69c-36 0 -60 -23 -70 -44v-304h-184v510h164l9 -51c23 36 69 61 132 61zM484 771l-176 -211l-176 211h130l46 -51l46 51h130z" />
    <glyph glyph-name="ntilde" unicode="&#xf1;" horiz-adv-x="606" 
d="M365 520c126 0 191 -89 191 -231v-289h-184v279c0 41 -21 69 -58 69c-36 0 -60 -23 -70 -44v-304h-184v510h164l9 -51c23 36 69 61 132 61zM253 746c64 0 91 -62 122 -62c22 0 29 19 29 56h90c0 -114 -61 -170 -130 -170s-79 62 -118 62c-27 0 -33 -18 -33 -56h-90
c0 119 61 170 130 170z" />
    <glyph glyph-name="ncommaaccent" unicode="&#x146;" horiz-adv-x="606" 
d="M365 520c126 0 191 -89 191 -231v-289h-184v279c0 41 -21 69 -58 69c-36 0 -60 -23 -70 -44v-304h-184v510h164l9 -51c23 36 69 61 132 61zM271 -40c62 0 107 -46 107 -107c0 -28 -8 -51 -23 -68l-123 -139h-4v306c14 5 27 8 43 8z" />
    <glyph glyph-name="ograve" unicode="&#xf2;" horiz-adv-x="597" 
d="M288 520c158 0 275 -113 275 -266s-117 -264 -275 -264s-274 111 -274 264s116 266 274 266zM288 361c-51 0 -88 -46 -88 -107c0 -60 37 -105 88 -105s89 45 89 105c0 61 -38 107 -89 107zM246 726l131 -155h-148l-185 155h202z" />
    <glyph glyph-name="oacute" unicode="&#xf3;" horiz-adv-x="597" 
d="M288 520c158 0 275 -113 275 -266s-117 -264 -275 -264s-274 111 -274 264s116 266 274 266zM288 361c-51 0 -88 -46 -88 -107c0 -60 37 -105 88 -105s89 45 89 105c0 61 -38 107 -89 107zM544 726l-185 -155h-148l131 155h202z" />
    <glyph glyph-name="ocircumflex" unicode="&#xf4;" horiz-adv-x="597" 
d="M288 520c158 0 275 -113 275 -266s-117 -264 -275 -264s-274 111 -274 264s116 266 274 266zM288 361c-51 0 -88 -46 -88 -107c0 -60 37 -105 88 -105s89 45 89 105c0 61 -38 107 -89 107zM298 784l176 -211h-130l-46 51l-46 -51h-130z" />
    <glyph glyph-name="otilde" unicode="&#xf5;" horiz-adv-x="597" 
d="M288 520c158 0 275 -113 275 -266s-117 -264 -275 -264s-274 111 -274 264s116 266 274 266zM288 361c-51 0 -88 -46 -88 -107c0 -60 37 -105 88 -105s89 45 89 105c0 61 -38 107 -89 107zM243 746c64 0 91 -62 122 -62c22 0 29 19 29 56h90c0 -114 -61 -170 -130 -170
s-79 62 -118 62c-27 0 -33 -18 -33 -56h-90c0 119 61 170 130 170z" />
    <glyph glyph-name="odieresis" unicode="&#xf6;" horiz-adv-x="597" 
d="M288 520c158 0 275 -113 275 -266s-117 -264 -275 -264s-274 111 -274 264s116 266 274 266zM288 361c-51 0 -88 -46 -88 -107c0 -60 37 -105 88 -105s89 45 89 105c0 61 -38 107 -89 107zM195 737c48 0 82 -34 82 -82s-34 -82 -82 -82s-82 34 -82 82s34 82 82 82z
M402 737c48 0 82 -34 82 -82s-34 -82 -82 -82s-82 34 -82 82s34 82 82 82z" />
    <glyph glyph-name="omacron" unicode="&#x14d;" horiz-adv-x="597" 
d="M288 520c158 0 275 -113 275 -266s-117 -264 -275 -264s-274 111 -274 264s116 266 274 266zM288 361c-51 0 -88 -46 -88 -107c0 -60 37 -105 88 -105s89 45 89 105c0 61 -38 107 -89 107zM441 709v-120h-285v120h285z" />
    <glyph glyph-name="obreve" unicode="&#x14f;" horiz-adv-x="597" 
d="M288 520c158 0 275 -113 275 -266s-117 -264 -275 -264s-274 111 -274 264s116 266 274 266zM288 361c-51 0 -88 -46 -88 -107c0 -60 37 -105 88 -105s89 45 89 105c0 61 -38 107 -89 107zM473 746c0 -105 -75 -181 -174 -181c-101 0 -176 76 -176 181h121
c0 -39 23 -67 55 -67c30 0 53 28 53 67h121z" />
    <glyph glyph-name="ohungarumlaut" unicode="&#x151;" horiz-adv-x="597" 
d="M288 520c158 0 275 -113 275 -266s-117 -264 -275 -264s-274 111 -274 264s116 266 274 266zM288 361c-51 0 -88 -46 -88 -107c0 -60 37 -105 88 -105s89 45 89 105c0 61 -38 107 -89 107zM353 726l-100 -155h-118l71 155h147zM559 726l-100 -155h-118l71 155h147z" />
    <glyph glyph-name="scedilla" unicode="&#x15f;" horiz-adv-x="482" 
d="M271 520c72 0 143 -19 182 -54l-65 -126c-27 23 -68 43 -117 43c-33 0 -47 -10 -47 -27c0 -15 11 -24 81 -41c99 -24 150 -72 150 -148c0 -95 -71 -162 -192 -175l-7 -32c59 -4 100 -44 100 -104c0 -78 -61 -115 -130 -115c-37 0 -78 12 -101 43l54 63
c12 -13 28 -23 46 -23c21 0 35 13 35 33c0 22 -17 33 -48 33c-18 0 -38 -3 -49 -6l-3 4l21 104c-64 6 -125 26 -160 58l67 126c31 -27 77 -49 132 -49c34 0 51 8 51 27c0 17 -9 29 -70 44c-108 27 -161 66 -161 145c0 106 84 177 231 177z" />
    <glyph glyph-name="scommaaccent" unicode="&#x219;" horiz-adv-x="482" 
d="M271 520c72 0 143 -19 182 -54l-65 -126c-27 23 -68 43 -117 43c-33 0 -47 -10 -47 -27c0 -15 11 -24 81 -41c99 -24 150 -72 150 -148c0 -106 -88 -177 -236 -177c-77 0 -156 22 -198 60l67 126c31 -27 77 -49 132 -49c34 0 51 8 51 27c0 17 -9 29 -70 44
c-108 27 -161 66 -161 145c0 106 84 177 231 177zM209 -40c62 0 107 -46 107 -107c0 -28 -8 -51 -23 -68l-123 -139h-4v306c14 5 27 8 43 8z" />
    <glyph glyph-name="racute" unicode="&#x155;" horiz-adv-x="393" 
d="M378 520v-182h-15c-57 0 -94 -25 -119 -54v-284h-184v510h163l11 -65c25 42 76 75 144 75zM492 726l-185 -155h-148l131 155h202z" />
    <glyph glyph-name="rcaron" unicode="&#x159;" horiz-adv-x="393" 
d="M378 520v-182h-15c-57 0 -94 -25 -119 -54v-284h-184v510h163l11 -65c25 42 76 75 144 75zM422 771l-176 -211l-176 211h130l46 -51l46 51h130z" />
    <glyph glyph-name="rcommaaccent" unicode="&#x157;" horiz-adv-x="393" 
d="M378 520v-182h-15c-57 0 -94 -25 -119 -54v-284h-184v510h163l11 -65c25 42 76 75 144 75zM164 -40c62 0 107 -46 107 -107c0 -28 -8 -51 -23 -68l-123 -139h-4v306c14 5 27 8 43 8z" />
    <glyph glyph-name="sacute" unicode="&#x15b;" horiz-adv-x="482" 
d="M271 520c72 0 143 -19 182 -54l-65 -126c-27 23 -68 43 -117 43c-33 0 -47 -10 -47 -27c0 -15 11 -24 81 -41c99 -24 150 -72 150 -148c0 -106 -88 -177 -236 -177c-77 0 -156 22 -198 60l67 126c31 -27 77 -49 132 -49c34 0 51 8 51 27c0 17 -9 29 -70 44
c-108 27 -161 66 -161 145c0 106 84 177 231 177zM502 726l-185 -155h-148l131 155h202z" />
    <glyph glyph-name="scircumflex" unicode="&#x15d;" horiz-adv-x="482" 
d="M271 520c72 0 143 -19 182 -54l-65 -126c-27 23 -68 43 -117 43c-33 0 -47 -10 -47 -27c0 -15 11 -24 81 -41c99 -24 150 -72 150 -148c0 -106 -88 -177 -236 -177c-77 0 -156 22 -198 60l67 126c31 -27 77 -49 132 -49c34 0 51 8 51 27c0 17 -9 29 -70 44
c-108 27 -161 66 -161 145c0 106 84 177 231 177zM256 784l176 -211h-130l-46 51l-46 -51h-130z" />
    <glyph glyph-name="scaron" unicode="&#x161;" horiz-adv-x="482" 
d="M271 520c72 0 143 -19 182 -54l-65 -126c-27 23 -68 43 -117 43c-33 0 -47 -10 -47 -27c0 -15 11 -24 81 -41c99 -24 150 -72 150 -148c0 -106 -88 -177 -236 -177c-77 0 -156 22 -198 60l67 126c31 -27 77 -49 132 -49c34 0 51 8 51 27c0 17 -9 29 -70 44
c-108 27 -161 66 -161 145c0 106 84 177 231 177zM432 771l-176 -211l-176 211h130l46 -51l46 51h130z" />
    <glyph glyph-name="tcommaaccent" unicode="&#x163;" horiz-adv-x="443" 
d="M279 677v-167h135v-154h-135v-149c0 -32 22 -53 57 -53c27 0 46 7 60 14l44 -144c-29 -18 -69 -34 -122 -34c-138 0 -223 78 -223 215v151h-86v154h86v167h184zM199 -40c62 0 107 -46 107 -107c0 -28 -8 -51 -23 -68l-123 -139h-4v306c14 5 27 8 43 8z" />
    <glyph glyph-name="ugrave" unicode="&#xf9;" horiz-adv-x="605" 
d="M545 510v-510h-164l-9 51c-25 -36 -69 -61 -137 -61c-123 0 -185 89 -185 231v289h184v-279c0 -41 18 -69 56 -69c37 0 59 23 71 44v304h184zM245 726l131 -155h-148l-185 155h202z" />
    <glyph glyph-name="uacute" unicode="&#xfa;" horiz-adv-x="605" 
d="M545 510v-510h-164l-9 51c-25 -36 -69 -61 -137 -61c-123 0 -185 89 -185 231v289h184v-279c0 -41 18 -69 56 -69c37 0 59 23 71 44v304h184zM543 726l-185 -155h-148l131 155h202z" />
    <glyph glyph-name="ucircumflex" unicode="&#xfb;" horiz-adv-x="605" 
d="M545 510v-510h-164l-9 51c-25 -36 -69 -61 -137 -61c-123 0 -185 89 -185 231v289h184v-279c0 -41 18 -69 56 -69c37 0 59 23 71 44v304h184zM297 784l176 -211h-130l-46 51l-46 -51h-130z" />
    <glyph glyph-name="utilde" unicode="&#x169;" horiz-adv-x="605" 
d="M545 510v-510h-164l-9 51c-25 -36 -69 -61 -137 -61c-123 0 -185 89 -185 231v289h184v-279c0 -41 18 -69 56 -69c37 0 59 23 71 44v304h184zM242 746c64 0 91 -62 122 -62c22 0 29 19 29 56h90c0 -114 -61 -170 -130 -170s-79 62 -118 62c-27 0 -33 -18 -33 -56h-90
c0 119 61 170 130 170z" />
    <glyph glyph-name="udieresis" unicode="&#xfc;" horiz-adv-x="605" 
d="M545 510v-510h-164l-9 51c-25 -36 -69 -61 -137 -61c-123 0 -185 89 -185 231v289h184v-279c0 -41 18 -69 56 -69c37 0 59 23 71 44v304h184zM194 737c48 0 82 -34 82 -82s-34 -82 -82 -82s-82 34 -82 82s34 82 82 82zM401 737c48 0 82 -34 82 -82s-34 -82 -82 -82
s-82 34 -82 82s34 82 82 82z" />
    <glyph glyph-name="umacron" unicode="&#x16b;" horiz-adv-x="605" 
d="M545 510v-510h-164l-9 51c-25 -36 -69 -61 -137 -61c-123 0 -185 89 -185 231v289h184v-279c0 -41 18 -69 56 -69c37 0 59 23 71 44v304h184zM440 709v-120h-285v120h285z" />
    <glyph glyph-name="ubreve" unicode="&#x16d;" horiz-adv-x="605" 
d="M545 510v-510h-164l-9 51c-25 -36 -69 -61 -137 -61c-123 0 -185 89 -185 231v289h184v-279c0 -41 18 -69 56 -69c37 0 59 23 71 44v304h184zM472 746c0 -105 -75 -181 -174 -181c-101 0 -176 76 -176 181h121c0 -39 23 -67 55 -67c30 0 53 28 53 67h121z" />
    <glyph glyph-name="uring" unicode="&#x16f;" horiz-adv-x="605" 
d="M545 510v-510h-164l-9 51c-25 -36 -69 -61 -137 -61c-123 0 -185 89 -185 231v289h184v-279c0 -41 18 -69 56 -69c37 0 59 23 71 44v304h184zM298 826c75 0 131 -56 131 -131s-56 -129 -131 -129c-76 0 -132 54 -132 129s56 131 132 131zM298 733c-20 0 -35 -16 -35 -38
c0 -21 15 -36 35 -36c19 0 34 15 34 36c0 22 -15 38 -34 38z" />
    <glyph glyph-name="uhungarumlaut" unicode="&#x171;" horiz-adv-x="605" 
d="M545 510v-510h-164l-9 51c-25 -36 -69 -61 -137 -61c-123 0 -185 89 -185 231v289h184v-279c0 -41 18 -69 56 -69c37 0 59 23 71 44v304h184zM352 726l-100 -155h-118l71 155h147zM558 726l-100 -155h-118l71 155h147z" />
    <glyph glyph-name="wgrave" unicode="&#x1e81;" horiz-adv-x="782" 
d="M777 510l-258 -520h-4l-124 214l-125 -214h-4l-257 520h206l73 -201l105 201h4l104 -201l74 201h206zM339 726l131 -155h-148l-185 155h202z" />
    <glyph glyph-name="wacute" unicode="&#x1e83;" horiz-adv-x="782" 
d="M777 510l-258 -520h-4l-124 214l-125 -214h-4l-257 520h206l73 -201l105 201h4l104 -201l74 201h206zM637 726l-185 -155h-148l131 155h202z" />
    <glyph glyph-name="wcircumflex" unicode="&#x175;" horiz-adv-x="782" 
d="M777 510l-258 -520h-4l-124 214l-125 -214h-4l-257 520h206l73 -201l105 201h4l104 -201l74 201h206zM391 784l176 -211h-130l-46 51l-46 -51h-130z" />
    <glyph glyph-name="wdieresis" unicode="&#x1e85;" horiz-adv-x="782" 
d="M777 510l-258 -520h-4l-124 214l-125 -214h-4l-257 520h206l73 -201l105 201h4l104 -201l74 201h206zM288 737c48 0 82 -34 82 -82s-34 -82 -82 -82s-82 34 -82 82s34 82 82 82zM495 737c48 0 82 -34 82 -82s-34 -82 -82 -82s-82 34 -82 82s34 82 82 82z" />
    <glyph glyph-name="ygrave" unicode="&#x1ef3;" 
d="M595 510l-414 -740h-210l230 391l-196 349h206l88 -201l90 201h206zM231 726l131 -155h-148l-185 155h202z" />
    <glyph glyph-name="yacute" unicode="&#xfd;" 
d="M595 510l-414 -740h-210l230 391l-196 349h206l88 -201l90 201h206zM529 726l-185 -155h-148l131 155h202z" />
    <glyph glyph-name="ycircumflex" unicode="&#x177;" 
d="M595 510l-414 -740h-210l230 391l-196 349h206l88 -201l90 201h206zM283 784l176 -211h-130l-46 51l-46 -51h-130z" />
    <glyph glyph-name="ydieresis" unicode="&#xff;" 
d="M595 510l-414 -740h-210l230 391l-196 349h206l88 -201l90 201h206zM180 737c48 0 82 -34 82 -82s-34 -82 -82 -82s-82 34 -82 82s34 82 82 82zM387 737c48 0 82 -34 82 -82s-34 -82 -82 -82s-82 34 -82 82s34 82 82 82z" />
    <glyph glyph-name="zacute" unicode="&#x17a;" horiz-adv-x="498" 
d="M475 510v-4l-181 -352h179v-154h-452v4l181 352h-169v154h442zM494 726l-185 -155h-148l131 155h202z" />
    <glyph glyph-name="zcaron" unicode="&#x17e;" horiz-adv-x="498" 
d="M475 510v-4l-181 -352h179v-154h-452v4l181 352h-169v154h442zM424 771l-176 -211l-176 211h130l46 -51l46 51h130z" />
    <glyph glyph-name="zdotaccent" unicode="&#x17c;" horiz-adv-x="498" 
d="M475 510v-4l-181 -352h179v-154h-452v4l181 352h-169v154h442zM248 772c60 0 103 -43 103 -103s-43 -103 -103 -103s-103 43 -103 103s43 103 103 103z" />
    <glyph glyph-name="AEacute" unicode="&#x1fc;" horiz-adv-x="905" 
d="M858 735v-173h-350l43 -110h265v-159h-199l49 -120h200v-173h-337l-34 86h-246l-34 -86h-213l332 735h524zM372 400l-67 -172h134zM761 895l-165 -123h-168l121 123h212z" />
    <glyph glyph-name="Lcaron" unicode="&#x13d;" horiz-adv-x="548" 
d="M257 735v-568h286v-167h-476v735h190zM457 764c62 0 107 -46 107 -107c0 -28 -11 -50 -23 -68l-123 -189h-4v356c14 5 27 8 43 8z" />
    <glyph glyph-name="Aacute" unicode="&#xc1;" horiz-adv-x="744" 
d="M374 748l368 -748h-213l-34 86h-246l-34 -86h-213l368 748h4zM372 400l-67 -172h134zM607 895l-165 -123h-168l121 123h212z" />
    <glyph glyph-name="Abreve" unicode="&#x102;" horiz-adv-x="744" 
d="M374 748l368 -748h-213l-34 86h-246l-34 -86h-213l368 748h4zM372 400l-67 -172h134zM547 941c0 -99 -75 -171 -174 -171c-101 0 -176 72 -176 171h121c0 -45 20 -77 55 -77c33 0 53 32 53 77h121z" />
    <glyph glyph-name="Acircumflex" unicode="&#xc2;" horiz-adv-x="744" 
d="M374 748l368 -748h-213l-34 86h-246l-34 -86h-213l368 748h4zM372 400l-67 -172h134zM372 934l186 -162h-135l-51 41l-51 -41h-135z" />
    <glyph glyph-name="Adieresis" unicode="&#xc4;" horiz-adv-x="744" 
d="M374 748l368 -748h-213l-34 86h-246l-34 -86h-213l368 748h4zM372 400l-67 -172h134zM269 924c48 0 82 -34 82 -82s-34 -82 -82 -82s-82 34 -82 82s34 82 82 82zM476 924c48 0 82 -34 82 -82s-34 -82 -82 -82s-82 34 -82 82s34 82 82 82z" />
    <glyph glyph-name="Agrave" unicode="&#xc0;" horiz-adv-x="744" 
d="M374 748l368 -748h-213l-34 86h-246l-34 -86h-213l368 748h4zM372 400l-67 -172h134zM332 895l121 -123h-168l-165 123h212z" />
    <glyph glyph-name="Amacron" unicode="&#x100;" horiz-adv-x="744" 
d="M374 748l368 -748h-213l-34 86h-246l-34 -86h-213l368 748h4zM372 400l-67 -172h134zM515 902v-120h-285v120h285z" />
    <glyph glyph-name="Aring" unicode="&#xc5;" horiz-adv-x="744" 
d="M374 748l368 -748h-213l-34 86h-246l-34 -86h-213l368 748h4zM372 400l-67 -172h134zM373 1028c75 0 131 -56 131 -131s-56 -129 -131 -129c-76 0 -132 54 -132 129s56 131 132 131zM373 935c-20 0 -35 -16 -35 -38c0 -21 15 -36 35 -36c19 0 34 15 34 36
c0 22 -15 38 -34 38z" />
    <glyph glyph-name="Atilde" unicode="&#xc3;" horiz-adv-x="744" 
d="M374 748l368 -748h-213l-34 86h-246l-34 -86h-213l368 748h4zM372 400l-67 -172h134zM317 933c64 0 91 -62 122 -62c22 0 29 19 29 56h90c0 -107 -61 -160 -130 -160s-79 62 -118 62c-27 0 -33 -18 -33 -56h-90c0 112 61 160 130 160z" />
    <glyph glyph-name="Cacute" unicode="&#x106;" horiz-adv-x="683" 
d="M410 748c120 0 197 -37 270 -113l-119 -138c-33 42 -82 78 -151 78c-117 0 -190 -86 -190 -207s73 -208 190 -208c69 0 118 36 151 78l118 -138c-75 -83 -161 -113 -269 -113c-224 0 -383 164 -383 381s159 380 383 380zM640 905l-165 -123h-168l121 123h212z" />
    <glyph glyph-name="Ccaron" unicode="&#x10c;" horiz-adv-x="683" 
d="M410 748c120 0 197 -37 270 -113l-119 -138c-33 42 -82 78 -151 78c-117 0 -190 -86 -190 -207s73 -208 190 -208c69 0 118 36 151 78l118 -138c-75 -83 -161 -113 -269 -113c-224 0 -383 164 -383 381s159 380 383 380zM591 931l-186 -162l-186 162h135l51 -41l51 41
h135z" />
    <glyph glyph-name="Ccircumflex" unicode="&#x108;" horiz-adv-x="683" 
d="M410 748c120 0 197 -37 270 -113l-119 -138c-33 42 -82 78 -151 78c-117 0 -190 -86 -190 -207s73 -208 190 -208c69 0 118 36 151 78l118 -138c-75 -83 -161 -113 -269 -113c-224 0 -383 164 -383 381s159 380 383 380zM405 944l186 -162h-135l-51 41l-51 -41h-135z" />
    <glyph glyph-name="Cdotaccent" unicode="&#x10a;" horiz-adv-x="683" 
d="M410 748c120 0 197 -37 270 -113l-119 -138c-33 42 -82 78 -151 78c-117 0 -190 -86 -190 -207s73 -208 190 -208c69 0 118 36 151 78l118 -138c-75 -83 -161 -113 -269 -113c-224 0 -383 164 -383 381s159 380 383 380zM405 964c55 0 94 -39 94 -94
c0 -54 -39 -93 -94 -93c-54 0 -93 39 -93 93c0 55 39 94 93 94z" />
    <glyph glyph-name="Dcaron" unicode="&#x10e;" horiz-adv-x="743" 
d="M309 735c254 0 407 -135 407 -367s-151 -368 -407 -368h-242v735h242zM303 561h-46v-388h46c147 0 220 72 220 194c0 123 -73 194 -220 194zM519 921l-186 -162l-186 162h135l51 -41l51 41h135z" />
    <glyph glyph-name="Eacute" unicode="&#xc9;" horiz-adv-x="603" 
d="M556 735v-173h-299v-110h257v-159h-257v-120h307v-173h-497v735h489zM560 895l-165 -123h-168l121 123h212z" />
    <glyph glyph-name="Ebreve" unicode="&#x114;" horiz-adv-x="603" 
d="M556 735v-173h-299v-110h257v-159h-257v-120h307v-173h-497v735h489zM500 941c0 -99 -75 -171 -174 -171c-101 0 -176 72 -176 171h121c0 -45 20 -77 55 -77c33 0 53 32 53 77h121z" />
    <glyph glyph-name="Ecaron" unicode="&#x11a;" horiz-adv-x="603" 
d="M556 735v-173h-299v-110h257v-159h-257v-120h307v-173h-497v735h489zM511 921l-186 -162l-186 162h135l51 -41l51 41h135z" />
    <glyph glyph-name="Ecircumflex" unicode="&#xca;" horiz-adv-x="603" 
d="M556 735v-173h-299v-110h257v-159h-257v-120h307v-173h-497v735h489zM325 934l186 -162h-135l-51 41l-51 -41h-135z" />
    <glyph glyph-name="Edieresis" unicode="&#xcb;" horiz-adv-x="603" 
d="M556 735v-173h-299v-110h257v-159h-257v-120h307v-173h-497v735h489zM222 924c48 0 82 -34 82 -82s-34 -82 -82 -82s-82 34 -82 82s34 82 82 82zM429 924c48 0 82 -34 82 -82s-34 -82 -82 -82s-82 34 -82 82s34 82 82 82z" />
    <glyph glyph-name="Edotaccent" unicode="&#x116;" horiz-adv-x="603" 
d="M556 735v-173h-299v-110h257v-159h-257v-120h307v-173h-497v735h489zM325 954c55 0 94 -39 94 -94c0 -54 -39 -93 -94 -93c-54 0 -93 39 -93 93c0 55 39 94 93 94z" />
    <glyph glyph-name="Egrave" unicode="&#xc8;" horiz-adv-x="603" 
d="M556 735v-173h-299v-110h257v-159h-257v-120h307v-173h-497v735h489zM285 895l121 -123h-168l-165 123h212z" />
    <glyph glyph-name="Emacron" unicode="&#x112;" horiz-adv-x="603" 
d="M556 735v-173h-299v-110h257v-159h-257v-120h307v-173h-497v735h489zM468 902v-120h-285v120h285z" />
    <glyph glyph-name="Gbreve" unicode="&#x11e;" horiz-adv-x="755" 
d="M410 748c120 0 197 -37 270 -113l-119 -138c-33 42 -82 78 -151 78c-117 0 -190 -86 -190 -207s77 -208 200 -208c34 0 63 11 88 25v85h-137v163h327v-341c-72 -71 -166 -105 -278 -105c-230 0 -393 164 -393 381s159 380 383 380zM574 951c0 -99 -75 -171 -174 -171
c-101 0 -176 72 -176 171h121c0 -45 20 -77 55 -77c33 0 53 32 53 77h121z" />
    <glyph glyph-name="Gcircumflex" unicode="&#x11c;" horiz-adv-x="755" 
d="M410 748c120 0 197 -37 270 -113l-119 -138c-33 42 -82 78 -151 78c-117 0 -190 -86 -190 -207s77 -208 200 -208c34 0 63 11 88 25v85h-137v163h327v-341c-72 -71 -166 -105 -278 -105c-230 0 -393 164 -393 381s159 380 383 380zM404 944l186 -162h-135l-51 41l-51 -41
h-135z" />
    <glyph glyph-name="Gdotaccent" unicode="&#x120;" horiz-adv-x="755" 
d="M410 748c120 0 197 -37 270 -113l-119 -138c-33 42 -82 78 -151 78c-117 0 -190 -86 -190 -207s77 -208 200 -208c34 0 63 11 88 25v85h-137v163h327v-341c-72 -71 -166 -105 -278 -105c-230 0 -393 164 -393 381s159 380 383 380zM404 964c55 0 94 -39 94 -94
c0 -54 -39 -93 -94 -93c-54 0 -93 39 -93 93c0 55 39 94 93 94z" />
    <glyph glyph-name="Hcircumflex" unicode="&#x124;" horiz-adv-x="762" 
d="M695 735v-735h-190v290h-248v-290h-190v735h190v-272h248v272h190zM381 934l186 -162h-135l-51 41l-51 -41h-135z" />
    <glyph glyph-name="Iacute" unicode="&#xcd;" horiz-adv-x="324" 
d="M257 735v-735h-190v735h190zM397 895l-165 -123h-168l121 123h212z" />
    <glyph glyph-name="Ibreve" unicode="&#x12c;" horiz-adv-x="324" 
d="M257 735v-735h-190v735h190zM337 941c0 -99 -75 -171 -174 -171c-101 0 -176 72 -176 171h121c0 -45 20 -77 55 -77c33 0 53 32 53 77h121z" />
    <glyph glyph-name="Idotaccent" unicode="&#x130;" horiz-adv-x="324" 
d="M257 735v-735h-190v735h190zM162 954c55 0 94 -39 94 -94c0 -54 -39 -93 -94 -93c-54 0 -93 39 -93 93c0 55 39 94 93 94z" />
    <glyph glyph-name="Icircumflex" unicode="&#xce;" horiz-adv-x="324" 
d="M257 735v-735h-190v735h190zM162 934l186 -162h-135l-51 41l-51 -41h-135z" />
    <glyph glyph-name="Idieresis" unicode="&#xcf;" horiz-adv-x="324" 
d="M257 735v-735h-190v735h190zM59 924c48 0 82 -34 82 -82s-34 -82 -82 -82s-82 34 -82 82s34 82 82 82zM266 924c48 0 82 -34 82 -82s-34 -82 -82 -82s-82 34 -82 82s34 82 82 82z" />
    <glyph glyph-name="Igrave" unicode="&#xcc;" horiz-adv-x="324" 
d="M257 735v-735h-190v735h190zM122 895l121 -123h-168l-165 123h212z" />
    <glyph glyph-name="Imacron" unicode="&#x12a;" horiz-adv-x="324" 
d="M257 735v-735h-190v735h190zM305 902v-120h-285v120h285z" />
    <glyph glyph-name="Itilde" unicode="&#x128;" horiz-adv-x="324" 
d="M257 735v-735h-190v735h190zM107 933c64 0 91 -62 122 -62c22 0 29 19 29 56h90c0 -107 -61 -160 -130 -160s-79 62 -118 62c-27 0 -33 -18 -33 -56h-90c0 112 61 160 130 160z" />
    <glyph glyph-name="Jcircumflex" unicode="&#x134;" horiz-adv-x="589" 
d="M533 735v-508c0 -140 -107 -240 -255 -240c-135 0 -263 91 -263 276h184c0 -67 22 -103 72 -103c46 0 72 33 72 78v497h190zM435 934l186 -162h-135l-51 41l-51 -41h-135z" />
    <glyph glyph-name="Lacute" unicode="&#x139;" horiz-adv-x="548" 
d="M257 735v-568h286v-167h-476v735h190zM402 895l-165 -123h-168l121 123h212z" />
    <glyph glyph-name="Nacute" unicode="&#x143;" horiz-adv-x="743" 
d="M676 735v-748h-4l-415 360v-347h-190v748h4l415 -360v347h190zM606 895l-165 -123h-168l121 123h212z" />
    <glyph glyph-name="Ncaron" unicode="&#x147;" horiz-adv-x="743" 
d="M676 735v-748h-4l-415 360v-347h-190v748h4l415 -360v347h190zM557 921l-186 -162l-186 162h135l51 -41l51 41h135z" />
    <glyph glyph-name="Ntilde" unicode="&#xd1;" horiz-adv-x="743" 
d="M676 735v-748h-4l-415 360v-347h-190v748h4l415 -360v347h190zM316 933c64 0 91 -62 122 -62c22 0 29 19 29 56h90c0 -107 -61 -160 -130 -160s-79 62 -118 62c-27 0 -33 -18 -33 -56h-90c0 112 61 160 130 160z" />
    <glyph glyph-name="Oacute" unicode="&#xd3;" horiz-adv-x="820" 
d="M410 748c218 0 383 -161 383 -382c0 -219 -165 -379 -383 -379c-219 0 -383 160 -383 379c0 221 164 382 383 382zM410 575c-112 0 -190 -86 -190 -209c0 -121 78 -206 190 -206s190 85 190 206c0 123 -78 209 -190 209zM645 905l-165 -123h-168l121 123h212z" />
    <glyph glyph-name="Obreve" unicode="&#x14e;" horiz-adv-x="820" 
d="M410 748c218 0 383 -161 383 -382c0 -219 -165 -379 -383 -379c-219 0 -383 160 -383 379c0 221 164 382 383 382zM410 575c-112 0 -190 -86 -190 -209c0 -121 78 -206 190 -206s190 85 190 206c0 123 -78 209 -190 209zM585 951c0 -99 -75 -171 -174 -171
c-101 0 -176 72 -176 171h121c0 -45 20 -77 55 -77c33 0 53 32 53 77h121z" />
    <glyph glyph-name="Ocircumflex" unicode="&#xd4;" horiz-adv-x="820" 
d="M410 748c218 0 383 -161 383 -382c0 -219 -165 -379 -383 -379c-219 0 -383 160 -383 379c0 221 164 382 383 382zM410 575c-112 0 -190 -86 -190 -209c0 -121 78 -206 190 -206s190 85 190 206c0 123 -78 209 -190 209zM410 944l186 -162h-135l-51 41l-51 -41h-135z" />
    <glyph glyph-name="Odieresis" unicode="&#xd6;" horiz-adv-x="820" 
d="M410 748c218 0 383 -161 383 -382c0 -219 -165 -379 -383 -379c-219 0 -383 160 -383 379c0 221 164 382 383 382zM410 575c-112 0 -190 -86 -190 -209c0 -121 78 -206 190 -206s190 85 190 206c0 123 -78 209 -190 209zM307 934c48 0 82 -34 82 -82s-34 -82 -82 -82
s-82 34 -82 82s34 82 82 82zM514 934c48 0 82 -34 82 -82s-34 -82 -82 -82s-82 34 -82 82s34 82 82 82z" />
    <glyph glyph-name="Ograve" unicode="&#xd2;" horiz-adv-x="820" 
d="M410 748c218 0 383 -161 383 -382c0 -219 -165 -379 -383 -379c-219 0 -383 160 -383 379c0 221 164 382 383 382zM410 575c-112 0 -190 -86 -190 -209c0 -121 78 -206 190 -206s190 85 190 206c0 123 -78 209 -190 209zM370 905l121 -123h-168l-165 123h212z" />
    <glyph glyph-name="Ohungarumlaut" unicode="&#x150;" horiz-adv-x="820" 
d="M410 748c218 0 383 -161 383 -382c0 -219 -165 -379 -383 -379c-219 0 -383 160 -383 379c0 221 164 382 383 382zM410 575c-112 0 -190 -86 -190 -209c0 -121 78 -206 190 -206s190 85 190 206c0 123 -78 209 -190 209zM463 905l-100 -123h-118l71 123h147zM669 905
l-100 -123h-118l71 123h147z" />
    <glyph glyph-name="Omacron" unicode="&#x14c;" horiz-adv-x="820" 
d="M410 748c218 0 383 -161 383 -382c0 -219 -165 -379 -383 -379c-219 0 -383 160 -383 379c0 221 164 382 383 382zM410 575c-112 0 -190 -86 -190 -209c0 -121 78 -206 190 -206s190 85 190 206c0 123 -78 209 -190 209zM553 912v-120h-285v120h285z" />
    <glyph glyph-name="Otilde" unicode="&#xd5;" horiz-adv-x="820" 
d="M410 748c218 0 383 -161 383 -382c0 -219 -165 -379 -383 -379c-219 0 -383 160 -383 379c0 221 164 382 383 382zM410 575c-112 0 -190 -86 -190 -209c0 -121 78 -206 190 -206s190 85 190 206c0 123 -78 209 -190 209zM355 943c64 0 91 -62 122 -62c22 0 29 19 29 56
h90c0 -107 -61 -160 -130 -160s-79 62 -118 62c-27 0 -33 -18 -33 -56h-90c0 112 61 160 130 160z" />
    <glyph glyph-name="Racute" unicode="&#x154;" horiz-adv-x="689" 
d="M389 735c137 0 262 -90 262 -246c0 -100 -52 -173 -125 -212l162 -277h-221l-141 244h-69v-244h-190v735h322zM371 572h-114v-165h114c51 0 87 30 87 82s-36 83 -87 83zM568 895l-165 -123h-168l121 123h212z" />
    <glyph glyph-name="Rcaron" unicode="&#x158;" horiz-adv-x="689" 
d="M389 735c137 0 262 -90 262 -246c0 -100 -52 -173 -125 -212l162 -277h-221l-141 244h-69v-244h-190v735h322zM371 572h-114v-165h114c51 0 87 30 87 82s-36 83 -87 83zM519 921l-186 -162l-186 162h135l51 -41l51 41h135z" />
    <glyph glyph-name="Sacute" unicode="&#x15a;" horiz-adv-x="615" 
d="M306 748c109 0 208 -29 270 -77l-98 -157c-42 34 -95 61 -173 61c-54 0 -80 -18 -80 -53c0 -25 18 -43 117 -60c199 -41 254 -117 254 -229c0 -148 -108 -246 -290 -246c-115 0 -222 35 -297 101l102 158c47 -52 129 -86 201 -86c65 0 94 19 94 55c0 26 -21 44 -120 62
c-198 42 -252 129 -252 235c0 134 105 236 272 236zM543 905l-165 -123h-168l121 123h212z" />
    <glyph glyph-name="Scaron" unicode="&#x160;" horiz-adv-x="615" 
d="M306 748c109 0 208 -29 270 -77l-98 -157c-42 34 -95 61 -173 61c-54 0 -80 -18 -80 -53c0 -25 18 -43 117 -60c199 -41 254 -117 254 -229c0 -148 -108 -246 -290 -246c-115 0 -222 35 -297 101l102 158c47 -52 129 -86 201 -86c65 0 94 19 94 55c0 26 -21 44 -120 62
c-198 42 -252 129 -252 235c0 134 105 236 272 236zM494 931l-186 -162l-186 162h135l51 -41l51 41h135z" />
    <glyph glyph-name="Scircumflex" unicode="&#x15c;" horiz-adv-x="615" 
d="M306 748c109 0 208 -29 270 -77l-98 -157c-42 34 -95 61 -173 61c-54 0 -80 -18 -80 -53c0 -25 18 -43 117 -60c199 -41 254 -117 254 -229c0 -148 -108 -246 -290 -246c-115 0 -222 35 -297 101l102 158c47 -52 129 -86 201 -86c65 0 94 19 94 55c0 26 -21 44 -120 62
c-198 42 -252 129 -252 235c0 134 105 236 272 236zM308 944l186 -162h-135l-51 41l-51 -41h-135z" />
    <glyph glyph-name="Tcaron" unicode="&#x164;" horiz-adv-x="672" 
d="M655 735v-167h-224v-568h-190v568h-224v167h638zM522 921l-186 -162l-186 162h135l51 -41l51 41h135z" />
    <glyph glyph-name="Uacute" unicode="&#xda;" horiz-adv-x="698" 
d="M640 735v-467c0 -168 -101 -281 -291 -281s-291 113 -291 281v467h190v-454c0 -71 34 -121 101 -121s101 50 101 121v454h190zM584 895l-165 -123h-168l121 123h212z" />
    <glyph glyph-name="Ubreve" unicode="&#x16c;" horiz-adv-x="698" 
d="M640 735v-467c0 -168 -101 -281 -291 -281s-291 113 -291 281v467h190v-454c0 -71 34 -121 101 -121s101 50 101 121v454h190zM524 941c0 -99 -75 -171 -174 -171c-101 0 -176 72 -176 171h121c0 -45 20 -77 55 -77c33 0 53 32 53 77h121z" />
    <glyph glyph-name="Ucircumflex" unicode="&#xdb;" horiz-adv-x="698" 
d="M640 735v-467c0 -168 -101 -281 -291 -281s-291 113 -291 281v467h190v-454c0 -71 34 -121 101 -121s101 50 101 121v454h190zM349 934l186 -162h-135l-51 41l-51 -41h-135z" />
    <glyph glyph-name="Udieresis" unicode="&#xdc;" horiz-adv-x="698" 
d="M640 735v-467c0 -168 -101 -281 -291 -281s-291 113 -291 281v467h190v-454c0 -71 34 -121 101 -121s101 50 101 121v454h190zM246 924c48 0 82 -34 82 -82s-34 -82 -82 -82s-82 34 -82 82s34 82 82 82zM453 924c48 0 82 -34 82 -82s-34 -82 -82 -82s-82 34 -82 82
s34 82 82 82z" />
    <glyph glyph-name="Ugrave" unicode="&#xd9;" horiz-adv-x="698" 
d="M640 735v-467c0 -168 -101 -281 -291 -281s-291 113 -291 281v467h190v-454c0 -71 34 -121 101 -121s101 50 101 121v454h190zM309 895l121 -123h-168l-165 123h212z" />
    <glyph glyph-name="Uhungarumlaut" unicode="&#x170;" horiz-adv-x="698" 
d="M640 735v-467c0 -168 -101 -281 -291 -281s-291 113 -291 281v467h190v-454c0 -71 34 -121 101 -121s101 50 101 121v454h190zM402 895l-100 -123h-118l71 123h147zM608 895l-100 -123h-118l71 123h147z" />
    <glyph glyph-name="Umacron" unicode="&#x16a;" horiz-adv-x="698" 
d="M640 735v-467c0 -168 -101 -281 -291 -281s-291 113 -291 281v467h190v-454c0 -71 34 -121 101 -121s101 50 101 121v454h190zM492 902v-120h-285v120h285z" />
    <glyph glyph-name="Uring" unicode="&#x16e;" horiz-adv-x="698" 
d="M640 735v-467c0 -168 -101 -281 -291 -281s-291 113 -291 281v467h190v-454c0 -71 34 -121 101 -121s101 50 101 121v454h190zM350 1028c75 0 131 -56 131 -131s-56 -129 -131 -129c-76 0 -132 54 -132 129s56 131 132 131zM350 935c-20 0 -35 -16 -35 -38
c0 -21 15 -36 35 -36c19 0 34 15 34 36c0 22 -15 38 -34 38z" />
    <glyph glyph-name="Utilde" unicode="&#x168;" horiz-adv-x="698" 
d="M640 735v-467c0 -168 -101 -281 -291 -281s-291 113 -291 281v467h190v-454c0 -71 34 -121 101 -121s101 50 101 121v454h190zM294 933c64 0 91 -62 122 -62c22 0 29 19 29 56h90c0 -107 -61 -160 -130 -160s-79 62 -118 62c-27 0 -33 -18 -33 -56h-90
c0 112 61 160 130 160z" />
    <glyph glyph-name="Wacute" unicode="&#x1e82;" horiz-adv-x="950" 
d="M946 735l-308 -745h-4l-159 345l-159 -345h-4l-308 745h211l117 -331l141 331h4l141 -331l117 331h211zM710 895l-165 -123h-168l121 123h212z" />
    <glyph glyph-name="Wcircumflex" unicode="&#x174;" horiz-adv-x="950" 
d="M946 735l-308 -745h-4l-159 345l-159 -345h-4l-308 745h211l117 -331l141 331h4l141 -331l117 331h211zM475 934l186 -162h-135l-51 41l-51 -41h-135z" />
    <glyph glyph-name="Wdieresis" unicode="&#x1e84;" horiz-adv-x="950" 
d="M946 735l-308 -745h-4l-159 345l-159 -345h-4l-308 745h211l117 -331l141 331h4l141 -331l117 331h211zM372 924c48 0 82 -34 82 -82s-34 -82 -82 -82s-82 34 -82 82s34 82 82 82zM579 924c48 0 82 -34 82 -82s-34 -82 -82 -82s-82 34 -82 82s34 82 82 82z" />
    <glyph glyph-name="Wgrave" unicode="&#x1e80;" horiz-adv-x="950" 
d="M946 735l-308 -745h-4l-159 345l-159 -345h-4l-308 745h211l117 -331l141 331h4l141 -331l117 331h211zM435 895l121 -123h-168l-165 123h212z" />
    <glyph glyph-name="Yacute" unicode="&#xdd;" horiz-adv-x="724" 
d="M722 735l-264 -442v-293h-190v290l-266 445h221l139 -254l139 254h221zM597 895l-165 -123h-168l121 123h212z" />
    <glyph glyph-name="Ycircumflex" unicode="&#x176;" horiz-adv-x="724" 
d="M722 735l-264 -442v-293h-190v290l-266 445h221l139 -254l139 254h221zM362 934l186 -162h-135l-51 41l-51 -41h-135z" />
    <glyph glyph-name="Ydieresis" unicode="&#x178;" horiz-adv-x="724" 
d="M722 735l-264 -442v-293h-190v290l-266 445h221l139 -254l139 254h221zM259 924c48 0 82 -34 82 -82s-34 -82 -82 -82s-82 34 -82 82s34 82 82 82zM466 924c48 0 82 -34 82 -82s-34 -82 -82 -82s-82 34 -82 82s34 82 82 82z" />
    <glyph glyph-name="Ygrave" unicode="&#x1ef2;" horiz-adv-x="724" 
d="M722 735l-264 -442v-293h-190v290l-266 445h221l139 -254l139 254h221zM322 895l121 -123h-168l-165 123h212z" />
    <glyph glyph-name="Zacute" unicode="&#x179;" horiz-adv-x="604" 
d="M572 735v-4l-272 -568h282v-163h-568v4l273 568h-259v163h544zM533 895l-165 -123h-168l121 123h212z" />
    <glyph glyph-name="Zcaron" unicode="&#x17d;" horiz-adv-x="604" 
d="M572 735v-4l-272 -568h282v-163h-568v4l273 568h-259v163h544zM484 921l-186 -162l-186 162h135l51 -41l51 41h135z" />
    <glyph glyph-name="Zdotaccent" unicode="&#x17b;" horiz-adv-x="604" 
d="M572 735v-4l-272 -568h282v-163h-568v4l273 568h-259v163h544zM298 954c55 0 94 -39 94 -94c0 -54 -39 -93 -94 -93c-54 0 -93 39 -93 93c0 55 39 94 93 94z" />
    <glyph glyph-name="G.smcp_I.smcp" horiz-adv-x="704" 
d="M352 790c184 0 322 -140 322 -327c0 -188 -138 -326 -322 -326c-186 0 -322 138 -322 326c0 187 136 327 322 327zM352 706c-134 0 -230 -106 -230 -243c0 -138 96 -242 230 -242c133 0 230 104 230 242c0 137 -97 243 -230 243z" />
    <glyph glyph-name="zero.slash" 
d="M300 748c168 0 272 -148 272 -380c0 -233 -104 -381 -272 -381s-272 148 -272 381c0 232 104 380 272 380zM300 597c-62 0 -85 -92 -85 -229c0 -18 0 -36 1 -52l136 247c-13 22 -30 34 -52 34zM385 368c0 15 -1 30 -1 45l-135 -244c13 -20 29 -31 51 -31
c62 0 85 92 85 230z" />
    </font>
</defs>
</svg>
