<?xml version="1.0" standalone="no"?>
<!DOCTYPE svg PUBLIC "-//W3C//DTD SVG 1.1//EN" "http://www.w3.org/Graphics/SVG/1.1/DTD/svg11.dtd" >
<svg xmlns="http://www.w3.org/2000/svg" xmlns:xlink="http://www.w3.org/1999/xlink" version="1.1">
<metadata>
Created by FontForge 20161116 at Mon Oct 21 17:44:18 2013
 By Jimmy Wärting
Copyright (c) 2013 by Nico Inosanto. All rights reserved.
</metadata>
<defs>
<font id="Radikal-BoldItalic" horiz-adv-x="592" >
  <font-face 
    font-family="Radikal"
    font-weight="700"
    font-style="italic"
    font-stretch="normal"
    units-per-em="1000"
    panose-1="0 0 0 0 0 0 0 0 0 0"
    ascent="750"
    descent="-250"
    x-height="507"
    cap-height="735"
    bbox="-251 -336 1275 1087"
    underline-thickness="50"
    underline-position="-100"
    unicode-range="U+0020-FB01"
  />
<missing-glyph horiz-adv-x="589" 
d="M137 700h471l-123 -700h-470zM501 635h-288l104 -228zM520 557l-173 -215l97 -219zM302 285l-177 -220h277zM177 562l-74 -424l169 213z" />
    <glyph glyph-name="fi" unicode="fi" horiz-adv-x="670" 
d="M394 760c41 0 69 -7 89 -18l-59 -123c-10 8 -23 13 -46 13c-40 0 -67 -28 -75 -73l-9 -52h114l-22 -124h-114l-68 -383h-147l68 383h-88l22 124h88l8 47c21 119 115 206 239 206zM642 507l-89 -507h-147l89 507h147zM610 753c47 0 74 -29 74 -73c0 -55 -48 -99 -100 -99
c-47 0 -75 28 -75 72c0 55 46 100 101 100z" />
    <glyph glyph-name="f_j" unicode="fj" horiz-adv-x="670" 
d="M394 760c41 0 69 -7 89 -18l-59 -123c-10 8 -23 13 -46 13c-40 0 -67 -28 -75 -73l-9 -52h114l-22 -124h-114l-68 -383h-147l68 383h-88l22 124h88l8 47c21 119 115 206 239 206zM642 507l-98 -554c-21 -111 -110 -193 -234 -193c-82 0 -136 28 -174 79l103 89
c15 -20 40 -40 75 -40c43 0 76 28 84 74l97 545h147zM610 753c47 0 74 -29 74 -73c0 -55 -48 -99 -100 -99c-47 0 -75 28 -75 72c0 55 46 100 101 100z" />
    <glyph glyph-name=".notdef" horiz-adv-x="589" 
d="M137 700h471l-123 -700h-470zM501 635h-288l104 -228zM520 557l-173 -215l97 -219zM302 285l-177 -220h277zM177 562l-74 -424l169 213z" />
    <glyph glyph-name=".null" horiz-adv-x="0" 
 />
    <glyph glyph-name="CR" horiz-adv-x="250" 
 />
    <glyph glyph-name="space" unicode=" " horiz-adv-x="227" 
 />
    <glyph glyph-name="q" unicode="q" horiz-adv-x="608" 
d="M299 517c66 0 115 -28 138 -66l17 56h132l-130 -737h-148l49 273c-33 -30 -81 -53 -148 -53c-120 0 -186 95 -186 218c0 158 103 309 276 309zM311 389c-83 0 -139 -80 -139 -165c0 -66 34 -106 87 -106c59 0 95 33 122 65l28 153c-17 29 -45 53 -98 53z" />
    <glyph glyph-name="r" unicode="r" horiz-adv-x="368" 
d="M395 517l-25 -146h-13c-59 0 -102 -28 -137 -65l-54 -306h-147l89 507h131l-2 -64c32 40 87 74 158 74z" />
    <glyph glyph-name="a" unicode="a" horiz-adv-x="608" 
d="M299 517c74 0 119 -33 137 -67l17 57h132l-89 -507h-132l4 54c-33 -36 -85 -64 -159 -64c-120 0 -186 95 -186 218c0 158 103 309 276 309zM311 389c-83 0 -139 -80 -139 -165c0 -66 34 -106 87 -106c59 0 95 33 122 65l28 153c-17 29 -45 53 -98 53z" />
    <glyph glyph-name="b" unicode="b" horiz-adv-x="608" 
d="M303 760l-53 -297c34 31 82 54 148 54c120 0 186 -96 186 -219c0 -157 -103 -308 -276 -308c-66 0 -115 27 -137 66l-18 -56h-131l133 760h148zM348 389c-58 0 -95 -33 -122 -66l-27 -152c16 -30 44 -53 97 -53c83 0 139 80 139 165c0 65 -34 106 -87 106z" />
    <glyph glyph-name="d" unicode="d" horiz-adv-x="608" 
d="M630 760l-134 -760h-132l4 54c-33 -36 -85 -64 -159 -64c-120 0 -186 95 -186 218c0 158 103 309 276 309c66 0 110 -27 131 -57l53 300h147zM311 389c-83 0 -139 -80 -139 -165c0 -66 34 -106 87 -106c59 0 95 33 122 65l28 153c-17 29 -45 53 -98 53z" />
    <glyph glyph-name="c" unicode="c" horiz-adv-x="510" 
d="M327 517c100 0 160 -51 191 -120l-111 -72c-18 40 -48 65 -93 65c-86 0 -142 -81 -142 -169c0 -61 30 -104 95 -104c50 0 87 28 115 67l95 -81c-56 -71 -130 -113 -227 -113c-144 0 -226 96 -226 220c0 172 134 307 303 307z" />
    <glyph glyph-name="e" unicode="e" horiz-adv-x="548" 
d="M316 517c158 0 227 -116 201 -258l-8 -46h-340c-3 -60 30 -103 96 -103c49 0 89 22 119 52l92 -85c-64 -61 -136 -87 -229 -87c-143 0 -224 92 -223 218c0 159 119 309 292 309zM307 406c-65 0 -109 -46 -121 -101h195c10 58 -10 101 -74 101z" />
    <glyph glyph-name="l" unicode="l" horiz-adv-x="282" 
d="M301 760l-135 -760h-147l134 760h148z" />
    <glyph glyph-name="f" unicode="f" horiz-adv-x="387" 
d="M386 760c53 0 90 -19 113 -41l-68 -111c-10 12 -26 24 -52 24c-41 0 -68 -28 -76 -73l-9 -52h114l-22 -124h-114l-68 -383h-147l68 383h-88l22 124h88l9 51c25 133 102 202 230 202z" />
    <glyph glyph-name="g" unicode="g" horiz-adv-x="609" 
d="M299 517c71 0 116 -31 135 -64l19 54h132l-88 -498c-28 -158 -144 -249 -303 -249c-124 0 -189 47 -238 115l104 89c29 -43 70 -76 139 -76c83 0 139 53 153 129l7 44c-26 -27 -74 -56 -148 -56c-120 0 -187 89 -187 213c0 148 104 299 275 299zM310 389
c-79 0 -137 -75 -137 -157c0 -63 35 -99 88 -99c58 0 95 33 122 66l25 136c-17 30 -45 54 -98 54z" />
    <glyph glyph-name="h" unicode="h" horiz-adv-x="596" 
d="M300 760l-53 -299c30 29 75 56 139 56c128 0 180 -101 156 -234l-51 -283h-147l50 284c10 56 -10 95 -59 95c-53 0 -88 -30 -113 -62l-56 -317h-147l134 760h147z" />
    <glyph glyph-name="i" unicode="i" horiz-adv-x="282" 
d="M255 507l-89 -507h-147l89 507h147zM223 753c47 0 74 -29 74 -73c0 -55 -48 -99 -100 -99c-47 0 -75 28 -75 72c0 55 46 100 101 100z" />
    <glyph glyph-name="j" unicode="j" horiz-adv-x="282" 
d="M255 507l-98 -554c-21 -111 -110 -193 -234 -193c-82 0 -136 28 -174 79l103 89c15 -20 40 -40 75 -40c43 0 76 28 84 74l97 545h147zM223 753c47 0 74 -29 74 -73c0 -55 -48 -99 -100 -99c-47 0 -75 28 -75 72c0 55 46 100 101 100z" />
    <glyph glyph-name="k" unicode="k" horiz-adv-x="578" 
d="M301 760l-91 -509l213 256h177l-195 -216l120 -291h-155l-72 174l-153 -174h-126l134 760h148z" />
    <glyph glyph-name="s" unicode="s" horiz-adv-x="471" 
d="M288 517c73 0 136 -23 169 -55l-69 -102c-24 24 -62 41 -113 41c-43 0 -72 -15 -72 -46c0 -23 18 -34 78 -49c101 -26 137 -65 137 -134c0 -111 -109 -182 -243 -182c-82 0 -147 26 -184 64l70 100c29 -29 71 -49 129 -49c34 0 80 13 80 53c0 21 -19 35 -75 49
c-97 25 -142 59 -142 129c0 106 99 181 235 181z" />
    <glyph glyph-name="u" unicode="u" 
d="M569 507l-89 -507h-132l3 55c-25 -28 -74 -65 -147 -65c-127 0 -177 101 -153 233l50 284h147l-50 -285c-10 -56 9 -94 57 -94c53 0 87 30 111 62l56 317h147z" />
    <glyph glyph-name="t" unicode="t" horiz-adv-x="424" 
d="M314 675l-30 -168h145l-23 -124h-145l-32 -189c-8 -47 14 -72 56 -72c29 0 51 6 68 15l17 -120c-25 -15 -70 -27 -120 -27c-111 0 -190 80 -167 208l31 185h-91l23 124h91l29 168h148z" />
    <glyph glyph-name="v" unicode="v" horiz-adv-x="575" 
d="M603 507l-368 -517h-4l-188 517h157l72 -246l159 246h172z" />
    <glyph glyph-name="w" unicode="w" horiz-adv-x="774" 
d="M803 507l-334 -517h-4l-88 251l-178 -251h-4l-152 517h158l51 -239l162 239h4l77 -239l137 239h171z" />
    <glyph glyph-name="x" unicode="x" horiz-adv-x="532" 
d="M561 507l-201 -262l119 -245h-170l-63 150l-115 -150h-175l208 272l-113 235h168l59 -148l110 148h173z" />
    <glyph glyph-name="y" unicode="y" horiz-adv-x="579" 
d="M610 507l-524 -737h-168l267 360l-135 377h156l71 -246l160 246h173z" />
    <glyph glyph-name="z" unicode="z" horiz-adv-x="479" 
d="M500 507v-4l-275 -379h206l-21 -124h-431v4l273 379h-194l22 124h420z" />
    <glyph glyph-name="p" unicode="p" horiz-adv-x="608" 
d="M398 517c120 0 187 -96 187 -219c0 -157 -104 -308 -277 -308c-66 0 -110 26 -131 56l-48 -276h-147l130 737h131l-3 -55c32 36 85 65 158 65zM348 389c-58 0 -95 -33 -122 -66l-27 -152c17 -30 45 -53 98 -53c83 0 139 80 139 165c0 65 -34 106 -88 106z" />
    <glyph glyph-name="L" unicode="L" horiz-adv-x="546" 
d="M306 735l-106 -601h313l-23 -134h-466l129 735h153z" />
    <glyph glyph-name="N" unicode="N" horiz-adv-x="737" 
d="M744 735l-132 -748h-4l-357 434l-74 -421h-153l132 748h4l359 -435l72 422h153z" />
    <glyph glyph-name="O" unicode="O" horiz-adv-x="814" 
d="M490 748c194 0 315 -137 315 -325c0 -235 -203 -436 -449 -436c-194 0 -315 137 -315 325c0 235 203 436 449 436zM466 609c-151 0 -271 -139 -271 -291c0 -118 71 -192 185 -192c151 0 270 139 270 291c0 118 -70 192 -184 192z" />
    <glyph glyph-name="E" unicode="E" 
d="M628 735l-24 -139h-322l-29 -159h280l-23 -129h-280l-29 -169h330l-24 -139h-483l129 735h475z" />
    <glyph glyph-name="F" unicode="F" horiz-adv-x="555" 
d="M613 735l-24 -139h-307l-31 -169h256l-24 -130h-255l-51 -297h-153l129 735h460z" />
    <glyph glyph-name="D" unicode="D" horiz-adv-x="738" 
d="M368 735c221 0 361 -123 361 -319c0 -253 -197 -416 -471 -416h-234l129 735h215zM358 595h-76l-81 -456h76c166 -2 297 103 297 277c0 115 -71 179 -216 179z" />
    <glyph glyph-name="C" unicode="C" horiz-adv-x="682" 
d="M474 748c123 0 196 -42 257 -115l-106 -102c-31 46 -85 78 -159 78c-160 0 -272 -116 -272 -295c-1 -120 76 -188 181 -188c74 0 137 27 191 79l82 -121c-82 -70 -175 -97 -282 -97c-197 0 -326 124 -326 319c0 240 193 442 434 442z" />
    <glyph glyph-name="H" unicode="H" horiz-adv-x="750" 
d="M756 735l-129 -735h-153l55 307h-298l-54 -307h-153l129 735h153l-51 -289h297l51 289h153z" />
    <glyph glyph-name="B" unicode="B" horiz-adv-x="676" 
d="M433 735c129 0 205 -81 205 -184c0 -81 -41 -137 -96 -168c54 -19 98 -63 98 -138c0 -168 -140 -245 -283 -245h-333l129 735h280zM388 315h-158l-30 -176h162c65 0 126 34 126 106c0 47 -36 70 -100 70zM393 596h-112l-29 -161h116c57 0 112 34 112 95
c0 43 -30 66 -87 66z" />
    <glyph glyph-name="A" unicode="A" horiz-adv-x="724" 
d="M445 748l223 -748h-161l-29 114h-278l-69 -114h-175l485 748h4zM399 450l-129 -217h180z" />
    <glyph glyph-name="G" unicode="G" horiz-adv-x="749" 
d="M475 748c123 0 195 -42 256 -115l-106 -102c-31 46 -86 78 -160 78c-157 0 -261 -109 -269 -280c-9 -124 67 -203 182 -203c53 0 99 12 139 35l22 121h-159l23 131h311l-57 -325c-83 -66 -174 -101 -289 -101c-209 0 -335 135 -327 335c9 232 197 426 434 426z" />
    <glyph glyph-name="I" unicode="I" horiz-adv-x="299" 
d="M306 735l-129 -735h-153l129 735h153z" />
    <glyph glyph-name="J" unicode="J" horiz-adv-x="568" 
d="M578 735l-90 -517c-27 -150 -130 -231 -271 -231c-120 0 -241 86 -211 260h146c-14 -78 19 -121 76 -121c59 0 98 36 109 102l89 507h152z" />
    <glyph glyph-name="K" unicode="K" horiz-adv-x="706" 
d="M727 735l-276 -353l199 -382h-182l-126 245l-194 -245h-124l129 735h153l-77 -423l317 423h181z" />
    <glyph glyph-name="M" unicode="M" horiz-adv-x="888" 
d="M897 748l-132 -748h-152l52 304l-269 -314h-7l-158 324l-54 -314h-153l132 748h4l266 -517l467 517h4z" />
    <glyph glyph-name="P" unicode="P" horiz-adv-x="650" 
d="M435 735c125 0 230 -81 231 -208c0 -165 -136 -278 -305 -278h-141l-43 -249h-153l129 735h282zM410 604h-127l-39 -223h125c79 0 141 48 141 134c0 56 -39 89 -100 89z" />
    <glyph glyph-name="R" unicode="R" horiz-adv-x="664" 
d="M426 735c134 0 238 -81 238 -207c0 -118 -73 -205 -174 -245l119 -283h-163l-108 259h-116l-45 -259h-153l129 735h273zM405 603h-122l-38 -212h122c73 0 142 43 142 127c-1 55 -40 85 -104 85z" />
    <glyph glyph-name="S" unicode="S" horiz-adv-x="602" 
d="M359 748c114 0 198 -37 251 -84l-95 -114c-38 36 -92 59 -163 59c-69 0 -127 -30 -127 -88c0 -40 31 -60 125 -80c158 -32 214 -99 214 -198c0 -175 -150 -256 -310 -256c-125 0 -213 41 -274 104l95 116c41 -52 118 -81 190 -81c85 0 143 35 143 91c0 41 -32 64 -124 83
c-164 35 -212 106 -212 197c0 144 120 251 287 251z" />
    <glyph glyph-name="T" unicode="T" horiz-adv-x="662" 
d="M722 735l-23 -134h-239l-106 -601h-152l106 601h-238l23 134h629z" />
    <glyph glyph-name="U" unicode="U" horiz-adv-x="694" 
d="M711 735l-83 -471c-30 -174 -135 -277 -319 -277c-171 0 -277 105 -244 290l80 458h152l-81 -461c-15 -89 17 -148 105 -148c86 0 141 60 156 148l82 461h152z" />
    <glyph glyph-name="V" unicode="V" horiz-adv-x="720" 
d="M786 735l-482 -746h-4l-221 746h160l108 -431l262 431h177z" />
    <glyph glyph-name="W" unicode="W" horiz-adv-x="962" 
d="M1029 735l-430 -746h-4l-100 407l-243 -407h-4l-168 746h157l76 -398l230 398h4l91 -396l213 396h178z" />
    <glyph glyph-name="X" unicode="X" horiz-adv-x="697" 
d="M750 735l-284 -363l165 -372h-175l-116 262l-207 -262h-175l294 373l-155 362h175l107 -251l195 251h176z" />
    <glyph glyph-name="Y" unicode="Y" horiz-adv-x="696" 
d="M761 735l-344 -434l-52 -301h-152l52 298l-192 437h168l118 -284l216 284h186z" />
    <glyph glyph-name="Z" unicode="Z" horiz-adv-x="594" 
d="M642 735v-4l-411 -598h316l-23 -133h-550v4l412 598h-292l23 133h525z" />
    <glyph glyph-name="n" unicode="n" horiz-adv-x="596" 
d="M386 517c128 0 179 -101 156 -234l-50 -283h-147l49 284c10 56 -10 95 -59 95c-53 0 -88 -30 -113 -62l-56 -317h-147l89 507h132l-3 -56c25 28 76 66 149 66z" />
    <glyph glyph-name="o" unicode="o" horiz-adv-x="587" 
d="M317 389c-77 0 -145 -76 -145 -165c0 -63 39 -106 98 -106c77 0 145 76 145 164c0 63 -38 107 -98 107zM339 517c138 0 226 -97 226 -226c0 -168 -144 -301 -317 -301c-138 0 -226 97 -226 226c0 168 144 301 317 301z" />
    <glyph glyph-name="m" unicode="m" horiz-adv-x="907" 
d="M383 517c75 0 122 -35 143 -91c34 39 98 91 173 91c128 0 177 -101 153 -234l-50 -283h-147l50 284c10 56 -8 95 -57 95c-50 0 -85 -29 -110 -60c-1 -12 -2 -24 -4 -36l-50 -283h-147l50 284c10 56 -7 95 -55 95c-52 0 -85 -30 -110 -62l-56 -317h-147l89 507h132l-3 -56
c25 28 74 66 146 66z" />
    <glyph glyph-name="Q" unicode="Q" horiz-adv-x="814" 
d="M478 748c194 0 315 -137 315 -325c0 -113 -47 -218 -123 -296l140 -202h-181l-79 112c-62 -32 -132 -50 -206 -50c-194 0 -315 137 -315 325c0 235 203 436 449 436zM454 609c-151 0 -271 -139 -271 -291c0 -118 71 -192 185 -192c37 0 72 8 104 23l-68 99l121 90l61 -89
c33 48 52 107 52 168c0 118 -70 192 -184 192z" />
    <glyph glyph-name="zero" unicode="0" horiz-adv-x="595" 
d="M351 618c-102 0 -167 -190 -167 -361c0 -87 26 -140 88 -140c103 0 168 190 168 360c0 88 -26 141 -89 141zM371 748c141 0 216 -109 216 -274c0 -296 -149 -487 -334 -487c-141 0 -216 108 -216 274c0 295 149 487 334 487z" />
    <glyph glyph-name="one" unicode="1" horiz-adv-x="397" 
d="M405 748l-131 -748h-147l89 505l-115 -58l-50 130l350 171h4z" />
    <glyph glyph-name="two" unicode="2" horiz-adv-x="534" 
d="M328 748c137 0 214 -81 214 -195c0 -96 -41 -163 -102 -228l-178 -194h214l-22 -131h-468l1 6l332 386c42 49 73 90 73 151c0 47 -30 73 -77 73c-60 0 -97 -37 -122 -109l-132 32c50 141 143 209 267 209z" />
    <glyph glyph-name="three" unicode="3" horiz-adv-x="524" 
d="M338 748c127 0 199 -86 199 -194c0 -80 -40 -144 -115 -186c45 -23 73 -76 73 -139c0 -149 -124 -242 -266 -242c-146 0 -213 69 -228 206l135 31c6 -67 32 -106 96 -106c62 0 118 50 118 121c0 49 -33 81 -87 81h-78l20 113h79c55 0 105 49 105 109c0 47 -30 75 -75 75
c-49 0 -86 -32 -110 -91l-125 56c50 104 143 166 259 166z" />
    <glyph glyph-name="five" unicode="5" horiz-adv-x="547" 
d="M559 735l-22 -131h-265l-27 -154c18 8 40 13 67 13c119 0 205 -71 205 -196c0 -160 -114 -280 -282 -280c-127 0 -199 60 -225 165l126 57c10 -55 45 -91 103 -91c70 0 130 62 130 135c0 53 -30 89 -88 89c-50 0 -86 -20 -108 -37l-93 43l67 387h412z" />
    <glyph glyph-name="six" unicode="6" horiz-adv-x="562" 
d="M550 735l-209 -254c116 -12 190 -99 190 -213c0 -157 -137 -281 -301 -281c-129 0 -214 91 -214 213c0 72 29 137 76 187l285 348h173zM293 352c-66 0 -126 -66 -126 -143c0 -54 34 -92 86 -92c66 0 126 66 126 142c0 55 -35 93 -86 93z" />
    <glyph glyph-name="nine" unicode="9" horiz-adv-x="562" 
d="M360 748c130 0 215 -91 215 -213c0 -74 -31 -140 -80 -190l-282 -345h-174l209 254c-115 11 -188 99 -188 213c0 157 137 281 300 281zM338 618c-67 0 -127 -66 -127 -142c0 -55 35 -93 86 -93c66 0 126 66 126 143c0 54 -34 92 -85 92z" />
    <glyph glyph-name="four" unicode="4" horiz-adv-x="579" 
d="M554 745l-93 -525h84l-20 -112h-83l-19 -108h-147l19 108h-329v4l584 633h4zM358 398l-164 -181h128z" />
    <glyph glyph-name="seven" unicode="7" horiz-adv-x="548" 
d="M623 735l-1 -6l-475 -729h-165l400 601h-303l24 134h520z" />
    <glyph glyph-name="eight" unicode="8" horiz-adv-x="562" 
d="M356 748c116 0 199 -72 198 -176c0 -77 -43 -141 -104 -183c38 -29 74 -78 74 -150c0 -138 -121 -252 -291 -252c-118 0 -222 65 -222 194c0 101 64 172 138 213c-30 27 -52 68 -52 123c0 133 126 231 259 231zM282 325c-63 0 -126 -52 -126 -123c0 -56 36 -97 90 -97
c65 0 128 53 128 127c0 53 -36 93 -92 93zM339 629c-56 0 -107 -46 -107 -106c0 -47 29 -81 75 -81c55 0 107 47 107 107c0 47 -28 80 -75 80z" />
    <glyph glyph-name="ampersand" unicode="&#x26;" horiz-adv-x="709" 
d="M375 748c115 0 182 -69 182 -157c0 -109 -81 -152 -169 -203l85 -118l90 96h180l-189 -207l115 -159h-177l-44 62c-60 -42 -129 -72 -210 -72c-124 0 -220 66 -220 187c0 120 77 176 182 234c-28 41 -51 84 -51 138c0 116 94 198 226 199zM253 117c48 0 86 22 121 51
l-106 151c-52 -29 -101 -62 -101 -126c0 -48 35 -76 86 -76zM286 562c0 -32 14 -56 36 -85c40 21 98 47 98 100c0 35 -22 52 -58 52c-46 0 -76 -29 -76 -67z" />
    <glyph glyph-name="germandbls" unicode="&#xdf;" horiz-adv-x="657" 
d="M394 748c137 0 212 -82 212 -189c0 -71 -37 -127 -101 -164c47 -22 96 -75 96 -155c0 -165 -126 -253 -276 -253c-49 0 -83 9 -111 25l47 124c16 -10 33 -17 65 -17c67 0 119 48 119 112c0 43 -22 70 -64 83c-21 6 -42 9 -70 9l19 111c24 0 43 6 62 16c31 15 56 44 59 80
c6 55 -31 87 -80 87c-56 0 -104 -34 -116 -107l-90 -510h-147l89 508c28 157 145 240 287 240z" />
    <glyph glyph-name="section" unicode="&#xa7;" horiz-adv-x="458" 
d="M250 399c-46 0 -87 -39 -87 -90c0 -36 22 -57 60 -57c45 0 86 38 86 89c0 35 -23 58 -59 58zM314 748c78 0 129 -33 161 -71l-89 -82c-16 19 -40 34 -77 34c-46 0 -85 -28 -85 -73c0 -25 12 -38 37 -48c19 -7 38 -7 59 -14c72 -19 119 -79 119 -149
c0 -68 -38 -116 -98 -154c24 -18 40 -48 40 -91c0 -112 -112 -198 -237 -198c-75 0 -135 29 -171 85l95 82c20 -29 45 -48 89 -48c42 0 89 25 89 75c0 21 -10 33 -30 43c-17 10 -36 9 -56 14c-80 17 -127 78 -127 152c0 67 39 118 97 152c-25 19 -42 53 -42 95
c0 110 105 196 226 196z" />
    <glyph glyph-name="paragraph" unicode="&#xb6;" horiz-adv-x="756" 
d="M805 735l-20 -113h-83l-129 -732h-123l129 732h-99l-129 -732h-122l73 414h-2c-139 0 -242 65 -236 193c6 161 145 238 313 238h428z" />
    <glyph glyph-name="at" unicode="@" horiz-adv-x="873" 
d="M496 647c219 0 351 -142 351 -331c1 -129 -59 -294 -217 -294c-66 0 -100 29 -111 62l-2 5c-31 -35 -74 -67 -145 -67c-104 0 -167 77 -167 177c0 131 85 260 229 260c63 0 101 -28 116 -56l15 48h110l-53 -296c-5 -25 2 -44 31 -44c71 0 101 99 101 202
c0 152 -95 247 -263 247c-207 0 -381 -171 -381 -382c0 -154 95 -255 247 -255c55 0 100 8 142 24l10 -82c-50 -19 -104 -29 -152 -29c-212 0 -340 145 -340 341c0 265 219 470 479 470zM447 353c-72 0 -117 -64 -117 -138c0 -54 29 -87 78 -87c43 0 72 22 95 51l24 129
c-14 24 -38 45 -80 45z" />
    <glyph glyph-name="endash" unicode="&#x2013;" horiz-adv-x="550" 
d="M522 326l-24 -135h-475l24 135h475z" />
    <glyph glyph-name="emdash" unicode="&#x2014;" horiz-adv-x="794" 
d="M766 326l-23 -135h-720l24 135h719z" />
    <glyph glyph-name="hyphen" unicode="-" horiz-adv-x="431" 
d="M400 326l-23 -135h-356l23 135h356z" />
    <glyph glyph-name="period" unicode="." horiz-adv-x="254" 
d="M113 171c50 0 79 -30 78 -77c-1 -58 -51 -104 -105 -104c-50 0 -79 30 -78 77c0 58 49 104 105 104z" />
    <glyph glyph-name="quoteright" unicode="&#x2019;" horiz-adv-x="211" 
d="M175 759c47 0 77 -31 77 -76c-1 -30 -16 -53 -30 -71l-136 -176h-4l57 317c12 4 23 6 36 6z" />
    <glyph glyph-name="quoteleft" unicode="&#x2018;" horiz-adv-x="211" 
d="M254 803l-56 -317c-13 -4 -24 -7 -37 -7c-47 0 -77 32 -77 76c1 30 16 53 30 71l136 177h4z" />
    <glyph glyph-name="quotesingle" unicode="'" horiz-adv-x="188" 
d="M118 755l129 -24l-112 -276h-55z" />
    <glyph glyph-name="quotedblright" unicode="&#x201d;" horiz-adv-x="411" 
d="M169 759c47 0 77 -31 77 -76c-1 -30 -16 -53 -30 -71l-136 -176h-4l57 317c12 4 23 6 36 6zM368 759c47 0 77 -31 77 -76c-1 -30 -16 -53 -30 -71l-136 -176h-4l57 317c12 4 23 6 36 6z" />
    <glyph glyph-name="quotedblleft" unicode="&#x201c;" horiz-adv-x="411" 
d="M257 803l-56 -317c-13 -4 -24 -7 -37 -7c-47 0 -77 32 -77 76c1 30 16 53 30 71l136 177h4zM458 803l-56 -317c-13 -4 -24 -7 -37 -7c-47 0 -77 32 -77 76c1 30 16 53 30 71l136 177h4z" />
    <glyph glyph-name="dollar" unicode="$" horiz-adv-x="596" 
d="M467 869l-23 -129c71 -13 127 -42 166 -76l-95 -114c-38 36 -92 59 -163 59c-69 0 -127 -30 -127 -88c0 -40 31 -60 125 -80c158 -32 214 -99 214 -198c0 -154 -115 -235 -252 -252l-20 -120h-122l21 120c-93 11 -161 48 -211 100l95 116c41 -52 118 -81 190 -81
c85 0 143 35 143 91c0 41 -32 64 -124 83c-164 35 -212 106 -212 197c0 133 103 235 251 249l22 123h122z" />
    <glyph glyph-name="minus" unicode="&#x2212;" horiz-adv-x="512" 
d="M500 417l-23 -134h-440l23 134h440z" />
    <glyph glyph-name="plus" unicode="+" horiz-adv-x="512" 
d="M369 570l-27 -153h154l-24 -134h-154l-27 -154h-134l28 154h-153l23 134h153l27 153h134z" />
    <glyph glyph-name="multiply" unicode="&#xd7;" horiz-adv-x="491" 
d="M407 559l86 -101l-136 -112l91 -111l-112 -95l-93 115l-131 -115l-87 100l135 114l-90 110l112 94l93 -111z" />
    <glyph glyph-name="parenleft" unicode="(" horiz-adv-x="322" 
d="M260 715l107 -85c-110 -111 -187 -226 -194 -413c-8 -124 24 -209 67 -273l-116 -72c-52 80 -98 192 -90 340c8 219 105 375 226 503z" />
    <glyph glyph-name="parenright" unicode=")" horiz-adv-x="322" 
d="M195 710c52 -80 98 -192 90 -339c-7 -220 -104 -376 -226 -503l-106 85c109 111 186 225 194 413c7 123 -25 208 -68 272z" />
    <glyph glyph-name="asterisk" unicode="*" horiz-adv-x="432" 
d="M346 734l-29 -123l123 45l15 -97l-126 -32l61 -94l-93 -60l-49 96l-83 -96l-72 60l93 94l-114 32l49 97l107 -45l16 123h102z" />
    <glyph glyph-name="slash" unicode="/" horiz-adv-x="522" 
d="M599 735l-483 -735h-157l484 735h156z" />
    <glyph glyph-name="percent" unicode="%" horiz-adv-x="900" 
d="M840 735l-602 -735h-140l601 735h141zM276 644c-48 0 -90 -44 -90 -99c0 -38 23 -68 65 -68c48 0 90 43 90 98c0 39 -24 69 -65 69zM291 747c101 0 162 -69 162 -161c0 -115 -88 -213 -217 -213c-100 0 -162 69 -162 161c0 115 88 213 217 213zM687 258
c-49 0 -90 -44 -90 -99c0 -39 24 -68 65 -68c48 0 89 43 89 98c0 39 -23 69 -64 69zM702 361c100 0 162 -69 162 -161c0 -114 -88 -213 -217 -213c-100 0 -162 69 -162 162c0 114 88 212 217 212z" />
    <glyph glyph-name="Euro" unicode="&#x20ac;" horiz-adv-x="665" 
d="M427 328l-16 -94h-162c14 -74 58 -116 127 -116c65 0 114 30 152 71l79 -114c-71 -62 -156 -88 -254 -88c-147 0 -242 95 -259 247h-86l17 94h68c2 18 4 36 8 55c1 10 4 19 6 29h-67l16 94h80c66 157 197 242 351 242c99 0 167 -36 211 -99l-107 -102
c-24 41 -62 69 -128 69c-67 0 -125 -40 -164 -110h160l-17 -94h-180c-4 -14 -7 -29 -10 -44c-3 -14 -4 -27 -6 -40h181z" />
    <glyph glyph-name="question" unicode="?" horiz-adv-x="525" 
d="M329 748c128 0 211 -84 211 -195c0 -179 -197 -184 -218 -299l-5 -28h-148l9 46c29 168 207 164 207 280c1 41 -28 65 -71 65c-53 0 -90 -36 -105 -86l-146 26c45 120 139 191 266 191zM230 159c47 0 75 -29 74 -74c0 -54 -49 -98 -100 -98c-47 0 -75 28 -74 73
c0 54 47 99 100 99z" />
    <glyph glyph-name="sterling" unicode="&#xa3;" horiz-adv-x="602" 
d="M385 748c128 0 194 -83 207 -166l-143 -38c-7 46 -30 76 -78 76c-67 0 -102 -53 -107 -123c-1 -24 0 -46 2 -68h159l-20 -114h-126c1 -16 1 -31 1 -42c-4 -62 -28 -106 -57 -145h110c56 0 86 22 98 89h143c-24 -139 -98 -217 -233 -217h-368v4c63 77 160 180 157 311h-97
l20 114h65c-3 20 -5 40 -4 65c7 141 115 254 271 254z" />
    <glyph glyph-name="braceleft" unicode="{" horiz-adv-x="341" 
d="M391 699l-20 -116c-66 0 -116 -49 -109 -122l1 -39c11 -75 -34 -126 -77 -140c39 -13 67 -66 29 -140l-16 -39c-34 -73 2 -108 67 -108l-20 -116c-181 0 -258 111 -175 266l15 38c32 61 -12 101 -63 112l1 4c56 12 114 53 102 113l-2 37c-28 156 86 250 267 250z" />
    <glyph glyph-name="braceright" unicode="}" horiz-adv-x="341" 
d="M100 699c181 0 258 -111 175 -266l-15 -38c-32 -61 11 -101 63 -112l-1 -4c-56 -12 -114 -53 -103 -113l3 -37c27 -156 -86 -250 -267 -250l20 116c66 0 115 49 109 122l-2 39c-10 75 34 126 78 140c-40 13 -68 66 -29 140l16 39c33 73 -2 108 -68 108z" />
    <glyph glyph-name="bar" unicode="|" horiz-adv-x="251" 
d="M268 699l-145 -820h-138l144 820h139z" />
    <glyph glyph-name="bracketleft" unicode="[" horiz-adv-x="333" 
d="M382 699l-20 -116h-115l-104 -588h114l-20 -116h-252l144 820h253z" />
    <glyph glyph-name="fraction" unicode="&#x2044;" horiz-adv-x="237" 
d="M446 735l-491 -735h-134l493 735h132z" />
    <glyph glyph-name="florin" unicode="&#x192;" horiz-adv-x="421" 
d="M398 757c53 0 98 -21 133 -52l-73 -107c-12 16 -34 29 -58 29c-37 0 -61 -29 -73 -72l-13 -48h113l-37 -124h-112l-130 -452c-27 -98 -98 -171 -208 -171c-53 0 -99 21 -134 52l73 107c12 -15 34 -29 58 -29c37 0 61 29 73 72l120 421h-75l37 124h74l23 80
c28 98 99 170 209 170z" />
    <glyph glyph-name="perthousand" unicode="&#x2030;" horiz-adv-x="1313" 
d="M840 735l-602 -735h-140l601 735h141zM276 644c-48 0 -90 -44 -90 -99c0 -38 23 -68 65 -68c48 0 90 43 90 98c0 39 -24 69 -65 69zM291 747c101 0 162 -69 162 -161c0 -115 -88 -213 -217 -213c-100 0 -162 69 -162 161c0 115 88 213 217 213zM687 258
c-49 0 -90 -44 -90 -99c0 -39 24 -68 65 -68c48 0 89 43 89 98c0 39 -23 69 -64 69zM702 361c100 0 162 -69 162 -161c0 -114 -88 -213 -217 -213c-100 0 -162 69 -162 162c0 114 88 212 217 212zM1097 258c-48 0 -89 -44 -89 -99c0 -39 23 -68 65 -68c47 0 89 43 89 98
c0 39 -23 69 -65 69zM1113 361c100 0 162 -69 162 -161c0 -114 -88 -213 -218 -213c-100 0 -161 69 -161 162c0 114 88 212 217 212z" />
    <glyph glyph-name="germandbls.cap" horiz-adv-x="687" 
d="M407 748c130 0 212 -61 273 -143l-139 -181c57 -20 112 -66 112 -163c0 -159 -133 -274 -297 -274c-57 0 -104 13 -130 30l50 130c21 -12 42 -21 76 -21c79 0 138 51 138 129c0 74 -76 104 -167 104l-1 5l160 213c-19 17 -45 30 -91 30c-70 0 -124 -47 -139 -127
l-84 -480h-148l88 497c29 164 150 251 299 251z" />
    <glyph glyph-name="bracketright" unicode="]" horiz-adv-x="336" 
d="M354 699l-145 -820h-254l20 116h116l104 588h-117l21 116h255z" />
    <glyph glyph-name="OE" unicode="&#x152;" horiz-adv-x="1148" 
d="M1187 735l-24 -139h-322l-29 -159h280l-23 -129h-280l-29 -169h330l-24 -139h-483l12 68c-68 -51 -151 -81 -239 -81c-194 0 -315 137 -315 325c0 235 203 436 449 436c87 0 159 -33 209 -88l13 75h475zM466 609c-151 0 -271 -139 -271 -291c0 -118 71 -192 185 -192
c151 0 270 139 270 291c0 118 -70 192 -184 192z" />
    <glyph glyph-name="cent" unicode="&#xa2;" horiz-adv-x="516" 
d="M420 642l-25 -135c60 -18 100 -59 123 -110l-111 -72c-18 40 -48 65 -93 65c-86 0 -142 -81 -142 -169c0 -61 30 -104 95 -104c50 0 87 28 115 67l95 -81c-45 -57 -102 -95 -172 -108l-25 -144h-122l26 147c-103 24 -160 108 -160 212c0 154 107 278 251 302l23 130h122z
" />
    <glyph glyph-name="yen" unicode="&#xa5;" horiz-adv-x="693" 
d="M761 735l-270 -339h108l-18 -106h-166l-12 -74h165l-18 -107h-166l-19 -109h-152l19 109h-165l18 107h166l12 74h-165l19 106h106l-150 339h168l118 -284l216 284h186z" />
    <glyph glyph-name="backslash" unicode="\" horiz-adv-x="522" 
d="M222 735l242 -735h-141l-242 735h141z" />
    <glyph glyph-name="exclam" unicode="!" horiz-adv-x="294" 
d="M296 735l-89 -509h-147l89 509h147zM120 159c47 0 75 -29 74 -74c-1 -54 -49 -98 -99 -98c-48 0 -76 28 -75 73c0 54 47 99 100 99z" />
    <glyph glyph-name="brokenbar" unicode="&#xa6;" horiz-adv-x="251" 
d="M268 699l-55 -308h-139l55 308h139zM178 187l-55 -308h-138l54 308h139z" />
    <glyph glyph-name="quotedbl" unicode="&#x22;" horiz-adv-x="376" 
d="M118 755l129 -24l-112 -276h-55zM305 755l129 -24l-112 -276h-55z" />
    <glyph glyph-name="ae" unicode="&#xe6;" horiz-adv-x="947" 
d="M703 406c-67 0 -120 -44 -135 -101h213c8 57 -14 101 -78 101zM731 517c149 0 210 -121 186 -258l-8 -45h-358c-2 -61 35 -104 111 -104c49 0 91 22 121 52l92 -85c-63 -61 -138 -87 -223 -87c-75 0 -123 28 -150 68l-15 -58h-123l4 54c-33 -36 -85 -64 -159 -64
c-120 0 -186 95 -186 218c0 158 103 309 276 309c74 0 119 -33 137 -67l17 57h124l-3 -55c32 34 83 65 157 65zM311 389c-83 0 -139 -80 -139 -165c0 -66 34 -106 87 -106c59 0 95 33 122 65l28 153c-17 29 -45 53 -98 53z" />
    <glyph glyph-name="acute" unicode="&#xb4;" horiz-adv-x="334" 
d="M389 718l-196 -145h-130l151 145h175z" />
    <glyph glyph-name="grave" unicode="`" horiz-adv-x="334" 
d="M238 718l118 -145h-122l-153 145h157z" />
    <glyph glyph-name="circumflex" unicode="&#x2c6;" horiz-adv-x="368" 
d="M268 766l133 -192h-106l-44 57l-64 -57h-119z" />
    <glyph glyph-name="caron" unicode="&#x2c7;" horiz-adv-x="368" 
d="M428 756l-200 -192l-133 192h105l44 -57l65 57h119z" />
    <glyph glyph-name="tilde" unicode="&#x2dc;" horiz-adv-x="387" 
d="M209 734c70 0 81 -70 116 -70c24 0 37 24 44 64h79c-15 -106 -80 -157 -143 -157c-75 0 -72 69 -114 69c-28 0 -40 -23 -46 -63h-80c14 106 81 157 144 157z" />
    <glyph glyph-name="dieresis" unicode="&#xa8;" horiz-adv-x="366" 
d="M161 719c37 0 59 -23 59 -59c0 -45 -39 -81 -81 -81c-38 0 -60 23 -60 59c0 45 37 81 82 81zM353 719c37 0 60 -23 60 -59c0 -45 -40 -81 -82 -81c-38 0 -60 23 -60 59c0 45 37 81 82 81z" />
    <glyph glyph-name="thorn" unicode="&#xfe;" horiz-adv-x="606" 
d="M304 760l-54 -302c33 32 85 59 152 59c117 0 183 -93 183 -216c0 -157 -104 -311 -274 -311c-70 0 -112 26 -133 58l-49 -278h-147l174 990h148zM343 389c-53 0 -88 -29 -115 -61l-28 -157c14 -29 44 -53 95 -53c85 0 141 80 141 165c0 65 -34 106 -93 106z" />
    <glyph glyph-name="partialdiff" unicode="&#x2202;" horiz-adv-x="557" 
d="M275 339c-67 0 -115 -56 -115 -124c0 -56 34 -94 89 -94c64 0 113 56 113 126c0 55 -34 92 -87 92zM323 748c178 0 221 -127 221 -259c0 -116 -17 -236 -71 -339c-54 -102 -145 -159 -249 -159c-126 0 -206 85 -206 204c0 157 123 275 273 275c61 0 92 -26 108 -45
c3 20 4 41 4 59c2 81 -34 126 -99 126c-54 0 -95 -33 -125 -71l-89 99c56 66 133 110 233 110z" />
    <glyph glyph-name="summation" unicode="&#x2211;" horiz-adv-x="610" 
d="M640 740l-26 -148h-325l116 -223l-187 -221h330l-27 -148h-539l18 99l234 288l-136 254l17 99h525z" />
    <glyph glyph-name="product" unicode="&#x220f;" horiz-adv-x="706" 
d="M754 740l-25 -138h-102l-125 -703h-137l125 703h-157l-124 -703h-139l125 703h-102l25 138h636z" />
    <glyph glyph-name="pi" unicode="&#x3c0;" horiz-adv-x="752" 
d="M680 576l104 -67c-36 -76 -94 -142 -205 -142h-7l-55 -185c-11 -35 -3 -49 18 -49c18 0 36 9 52 20l35 -115c-36 -27 -82 -46 -141 -46c-87 0 -137 66 -106 166l63 209h-81l-67 -217c-23 -75 -47 -115 -69 -150h-149c42 64 72 113 91 173l60 194h-14
c-50 0 -85 -26 -117 -60l-57 109c48 48 117 85 216 85h278c91 0 119 26 151 75z" />
    <glyph glyph-name="integral" unicode="&#x222b;" horiz-adv-x="434" 
d="M363 750c59 0 101 -12 126 -23l-47 -115c-20 8 -42 14 -66 14s-41 -15 -48 -50l-104 -591c-23 -129 -76 -176 -170 -176c-58 0 -100 12 -125 23l46 116c20 -9 42 -15 66 -15c25 0 44 16 50 52l105 591c22 128 74 174 167 174z" />
    <glyph glyph-name="uni03A9" unicode="&#x3a9;" horiz-adv-x="858" 
d="M509 750c189 0 292 -124 292 -286c0 -126 -56 -213 -142 -303h145l-28 -161h-345l27 153c94 68 173 161 173 284c0 96 -51 152 -147 152c-118 0 -207 -99 -207 -239c0 -85 37 -146 87 -197l-27 -153h-344l28 161h162c-32 39 -71 105 -71 198c0 219 174 391 397 391z" />
    <glyph glyph-name="lozenge" unicode="&#x25ca;" horiz-adv-x="569" 
d="M402 738l141 -402l-282 -401h-90l-142 401l283 402h90zM328 521l-149 -199l65 -173l148 200z" />
    <glyph glyph-name="uni2206" unicode="&#x2206;" horiz-adv-x="721" 
d="M425 646l212 -646h-650zM379 380l-180 -264h265z" />
    <glyph glyph-name="afii61289" unicode="&#x2113;" horiz-adv-x="584" 
d="M428 750c90 0 161 -55 145 -162c-19 -145 -171 -268 -278 -351l-11 -64c-6 -38 5 -61 38 -61c51 0 82 39 128 92l74 -68c-69 -89 -155 -149 -257 -149c-101 0 -138 59 -126 126l5 23c-16 -13 -64 -50 -83 -63l-52 104c45 33 123 91 157 120l48 265c22 131 93 188 212 188
zM407 639c-30 0 -56 -20 -64 -64l-34 -192c45 38 133 121 142 200c4 37 -17 56 -44 56z" />
    <glyph glyph-name="Omega" unicode="&#x2126;" horiz-adv-x="858" 
d="M509 750c189 0 292 -124 292 -286c0 -126 -56 -213 -142 -303h145l-28 -161h-345l27 153c94 68 173 161 173 284c0 96 -51 152 -147 152c-118 0 -207 -99 -207 -239c0 -85 37 -146 87 -197l-27 -153h-344l28 161h162c-32 39 -71 105 -71 198c0 219 174 391 397 391z" />
    <glyph glyph-name="estimated" unicode="&#x212e;" horiz-adv-x="591" 
d="M308 502c-41 0 -81 -11 -102 -25c-28 -13 -34 -39 -34 -60v-110h257v110c0 35 -4 53 -32 65c-21 12 -51 20 -89 20zM308 534c139 0 248 -89 248 -259h-384v-171c0 -24 5 -47 35 -62c22 -13 57 -23 101 -23c91 0 166 46 217 125l27 -17c-55 -86 -139 -140 -244 -140
c-155 0 -273 108 -273 273c0 166 118 274 273 274z" />
    <glyph glyph-name="logicalnot" unicode="&#xac;" horiz-adv-x="615" 
d="M607 453l-55 -307h-102l36 206h-441l18 101h544z" />
    <glyph glyph-name="radical" unicode="&#x221a;" horiz-adv-x="697" 
d="M624 697l113 -53l-432 -719l-113 320l-121 -66l-49 110l275 149l57 -191z" />
    <glyph glyph-name="infinity" unicode="&#x221e;" horiz-adv-x="768" 
d="M578 493c112 0 172 -86 157 -191c-16 -111 -108 -204 -224 -204c-74 0 -118 43 -151 80l-11 14l-15 -14c-46 -37 -96 -65 -155 -65c-106 0 -159 78 -144 177c15 102 96 189 206 189c62 0 99 -31 132 -70l11 -12l11 11c53 47 108 85 183 85zM560 370
c-38 0 -68 -27 -103 -60l-15 -16l10 -15c24 -29 46 -57 82 -57c41 0 74 36 78 80c4 37 -15 68 -52 68zM219 360c-36 0 -63 -33 -67 -70c-4 -32 11 -59 45 -59c27 0 56 17 84 48l14 16l-9 12c-20 32 -40 53 -67 53z" />
    <glyph glyph-name="plusminus" unicode="&#xb1;" horiz-adv-x="512" 
d="M392 688l-27 -153h154l-24 -133h-153l-28 -154h-134l28 154h-153l23 133h153l27 153h134zM458 190l-23 -134h-440l23 134h440z" />
    <glyph glyph-name="divide" unicode="&#xf7;" horiz-adv-x="512" 
d="M321 645c49 0 78 -36 70 -85c-9 -48 -51 -84 -100 -84s-78 36 -70 84c9 49 51 85 100 85zM246 224c49 0 79 -36 70 -85c-8 -49 -51 -85 -100 -85c-48 0 -78 36 -69 85c8 49 51 85 99 85zM500 417l-23 -134h-440l23 134h440z" />
    <glyph glyph-name="currency" unicode="&#xa4;" horiz-adv-x="665" 
d="M593 569l84 -102l-134 -113c8 -19 11 -40 11 -62c0 -53 -17 -100 -46 -138l94 -118l-103 -81l-96 120c-32 -15 -66 -22 -101 -22s-65 7 -89 23l-144 -121l-84 102l146 122c-6 17 -10 35 -10 55c0 52 17 99 46 137l-93 117l103 81l95 -118c30 14 65 23 102 23
c31 0 59 -8 82 -21zM357 364c-60 0 -112 -55 -112 -123c0 -47 28 -79 74 -79c60 0 113 55 113 123c0 47 -29 79 -75 79z" />
    <glyph glyph-name="mu" unicode="&#xb5;" horiz-adv-x="604" 
d="M580 507l-89 -507h-132l3 56c-32 -34 -80 -66 -144 -66c-22 0 -38 8 -47 22l-42 -242h-147l129 737h147l-51 -290c-9 -54 13 -89 62 -89c48 0 81 27 107 57l57 322h147z" />
    <glyph glyph-name="equal" unicode="=" horiz-adv-x="512" 
d="M473 283l-24 -134h-439l22 134h441zM519 548l-23 -135h-441l24 135h440z" />
    <glyph glyph-name="notequal" unicode="&#x2260;" horiz-adv-x="512" 
d="M473 283l-24 -134h-229l-50 -94h-124l50 94h-86l22 134h136l69 130h-182l24 135h230l68 126h124l-68 -126h86l-23 -135h-135l-69 -130h181z" />
    <glyph glyph-name="copyright" unicode="&#xa9;" horiz-adv-x="689" 
d="M405 642c58 0 93 -24 118 -55l-54 -53c-13 20 -36 32 -68 32c-64 0 -113 -53 -113 -120c0 -49 29 -74 72 -74c39 0 66 16 85 35l41 -63c-34 -31 -80 -48 -133 -48c-89 0 -146 64 -146 148c0 109 85 198 198 198zM425 785c162 0 262 -115 262 -269
c0 -199 -162 -372 -374 -372c-161 0 -262 115 -262 269c0 199 163 372 374 372zM413 711c-153 0 -282 -137 -282 -289c0 -127 73 -204 195 -204c153 0 281 136 281 289c0 127 -72 204 -194 204z" />
    <glyph glyph-name="registered" unicode="&#xae;" horiz-adv-x="689" 
d="M425 785c162 0 262 -115 262 -269c0 -199 -162 -372 -374 -372c-161 0 -262 115 -262 269c0 199 163 372 374 372zM413 711c-153 0 -282 -137 -282 -289c0 -127 73 -204 195 -204c153 0 281 136 281 289c0 127 -72 204 -194 204zM270 638h138c63 0 114 -40 104 -109
c-8 -48 -40 -84 -79 -103l54 -127h-87l-46 112h-43l-19 -112h-81zM388 565h-49l-14 -82h49c27 0 53 13 56 44c4 27 -14 38 -42 38z" />
    <glyph glyph-name="underscore" unicode="_" horiz-adv-x="794" 
d="M716 0l-24 -134h-720l24 134h720z" />
    <glyph glyph-name="macron" unicode="&#xaf;" horiz-adv-x="309" 
d="M357 690l-17 -98h-274l17 98h274z" />
    <glyph glyph-name="semicolon" unicode=";" horiz-adv-x="243" 
d="M81 161c47 0 77 -32 76 -77c0 -29 -14 -52 -29 -70l-135 -176h-3l55 316c12 5 23 7 36 7zM172 517c44 0 72 -29 71 -71c0 -57 -48 -100 -102 -100c-44 0 -72 29 -72 70c1 57 49 101 103 101z" />
    <glyph glyph-name="colon" unicode=":" horiz-adv-x="243" 
d="M108 161c46 0 74 -29 73 -73c-1 -55 -48 -98 -99 -98c-48 0 -75 28 -74 72c0 55 47 99 100 99zM172 517c46 0 73 -29 73 -74c-1 -54 -49 -97 -100 -97c-47 0 -75 28 -74 72c1 55 47 99 101 99z" />
    <glyph glyph-name="ellipsis" unicode="&#x2026;" horiz-adv-x="775" 
d="M113 171c50 0 79 -30 78 -77c-1 -58 -51 -104 -105 -104c-50 0 -79 30 -78 77c0 58 49 104 105 104zM374 171c50 0 79 -30 78 -77c-1 -58 -51 -104 -105 -104c-50 0 -80 30 -78 77c0 58 49 104 105 104zM635 171c49 0 79 -30 78 -77c-1 -58 -52 -104 -105 -104
c-51 0 -80 30 -79 77c1 58 50 104 106 104z" />
    <glyph glyph-name="hungarumlaut" unicode="&#x2dd;" horiz-adv-x="426" 
d="M310 721l-125 -150h-107l105 150h127zM500 721l-126 -150h-106l104 150h128z" />
    <glyph glyph-name="dotaccent" unicode="&#x2d9;" horiz-adv-x="207" 
d="M178 750c47 0 75 -28 75 -72c0 -55 -49 -100 -100 -100c-47 0 -75 28 -75 72c0 55 47 100 100 100z" />
    <glyph glyph-name="breve" unicode="&#x2d8;" horiz-adv-x="365" 
d="M431 737c-12 -101 -85 -168 -181 -168c-103 0 -166 75 -150 168h100c-7 -42 15 -73 54 -73c40 0 70 31 77 73h100z" />
    <glyph glyph-name="ring" unicode="&#x2da;" horiz-adv-x="279" 
d="M227 809c65 0 107 -46 107 -105c0 -81 -68 -136 -141 -136c-65 0 -107 47 -107 105c0 82 68 136 141 136zM215 732c-24 0 -49 -20 -49 -50c0 -22 14 -37 37 -37c24 0 49 20 49 50c0 23 -14 37 -37 37z" />
    <glyph glyph-name="ogonek" unicode="&#x2db;" horiz-adv-x="248" 
d="M110 67l31 -67c-30 -11 -53 -32 -53 -66c0 -29 18 -44 45 -44c17 0 30 5 39 11l17 -80c-13 -7 -34 -14 -65 -14c-77 0 -130 42 -130 119c0 68 49 116 116 141z" />
    <glyph glyph-name="cedilla" unicode="&#xb8;" horiz-adv-x="248" 
d="M51 26l69 -6l-25 -68c45 -7 80 -38 80 -90c0 -73 -57 -118 -129 -118c-46 0 -82 19 -101 45l52 51c10 -14 26 -24 50 -24c27 0 44 16 44 40c0 22 -12 32 -39 34c-19 0 -36 -3 -49 -7l-3 4z" />
    <glyph glyph-name="eng" unicode="&#x14b;" horiz-adv-x="596" 
d="M388 517c127 0 178 -98 154 -232l-55 -313c-22 -121 -132 -212 -258 -212l23 128c44 0 77 28 85 73l58 323c9 56 -14 95 -65 95c-48 0 -82 -28 -107 -59l-56 -320h-148l90 507h131l-3 -58c26 28 78 68 151 68z" />
    <glyph glyph-name="trademark" unicode="&#x2122;" horiz-adv-x="887" 
d="M438 735l-18 -101h-121l-49 -275h-105l49 275h-121l17 101h348zM918 742l-68 -383h-105l22 125l-124 -130h-4l-81 133l-22 -128h-105l68 383h2l156 -248l259 248h2z" />
    <glyph glyph-name="numbersign" unicode="#" horiz-adv-x="707" 
d="M702 735l-65 -180h105l-21 -118h-124l-51 -141h103l-21 -119h-123l-62 -177h-147l62 177h-119l-61 -177h-148l63 177h-105l21 119h126l50 141h-105l21 118h124l64 180h146l-64 -180h120l63 180h148zM450 437h-120l-49 -141h119z" />
    <glyph glyph-name="periodcentered" unicode="&#xb7;" horiz-adv-x="233" 
d="M127 346c52 0 83 -38 75 -89c-10 -52 -54 -89 -106 -89c-51 0 -82 37 -73 89c8 51 53 89 104 89z" />
    <glyph glyph-name="asciitilde" unicode="~" horiz-adv-x="603" 
d="M229 459c104 0 119 -81 190 -81c47 0 82 35 105 74l80 -74c-50 -85 -130 -136 -210 -136c-108 0 -118 82 -189 82c-48 0 -82 -36 -105 -74l-79 74c49 85 129 135 208 135z" />
    <glyph glyph-name="approxequal" unicode="&#x2248;" horiz-adv-x="603" 
d="M213 328c104 0 119 -82 190 -82c47 0 82 36 104 75l80 -75c-50 -85 -129 -135 -209 -135c-108 0 -118 82 -189 82c-48 0 -82 -36 -105 -75l-80 74c50 85 130 136 209 136zM256 578c104 0 119 -81 190 -81c47 0 82 35 105 74l80 -74c-50 -85 -130 -136 -210 -136
c-108 0 -118 82 -189 82c-48 0 -82 -36 -105 -74l-79 74c49 85 129 135 208 135z" />
    <glyph glyph-name="asciicircum" unicode="^" horiz-adv-x="527" 
d="M350 760l194 -298h-122l-92 141l-141 -141h-137z" />
    <glyph glyph-name="less" unicode="&#x3c;" horiz-adv-x="385" 
d="M414 538l-208 -199l137 -185h-175l-141 196l1 4l197 184h189z" />
    <glyph glyph-name="greater" unicode="&#x3e;" horiz-adv-x="385" 
d="M239 538l140 -196l-1 -4l-196 -184h-190l208 199l-137 185h176z" />
    <glyph glyph-name="lessequal" unicode="&#x2264;" horiz-adv-x="385" 
d="M362 241l-23 -133h-350l23 133h350zM433 621l-204 -170l135 -159h-175l-142 166l1 4l188 159h197z" />
    <glyph glyph-name="greaterequal" unicode="&#x2265;" horiz-adv-x="385" 
d="M258 621l142 -166l-1 -4l-189 -159h-196l204 170l-136 159h176zM362 241l-23 -133h-350l23 133h350z" />
    <glyph glyph-name="degree" unicode="&#xb0;" horiz-adv-x="364" 
d="M263 747c88 0 141 -64 128 -149c-12 -90 -89 -157 -180 -157c-89 0 -143 62 -130 147c13 90 90 159 182 159zM248 657c-36 0 -67 -29 -72 -68c-3 -33 16 -58 49 -58c35 0 66 29 70 67c5 34 -16 59 -47 59z" />
    <glyph glyph-name="endash_guilsinglright" horiz-adv-x="668" 
d="M392 547l254 -272l-351 -273l-57 90l163 122h-366l21 120h391l-132 135z" />
    <glyph glyph-name="emdash_guilsinglright" horiz-adv-x="988" 
d="M711 547l255 -272l-351 -273l-57 90l163 122h-686l21 120h711l-132 135z" />
    <glyph glyph-name="guilsinglleft_endash" horiz-adv-x="668" 
d="M377 545l57 -89l-163 -122h366l-21 -120h-391l132 -136l-76 -77l-255 272z" />
    <glyph glyph-name="guilsinglleft_emdash" horiz-adv-x="988" 
d="M378 545l57 -89l-163 -122h686l-21 -120h-710l131 -136l-76 -77l-255 272z" />
    <glyph glyph-name="guilsinglleft" unicode="&#x2039;" horiz-adv-x="394" 
d="M413 458l-235 -207l159 -197h-166l-162 206l1 4l219 194h184z" />
    <glyph glyph-name="guilsinglright" unicode="&#x203a;" horiz-adv-x="394" 
d="M210 458l162 -206l-1 -4l-219 -194h-183l234 207l-159 197h166z" />
    <glyph glyph-name="dagger" unicode="&#x2020;" horiz-adv-x="495" 
d="M400 735l-29 -166h152l-23 -131h-152l-77 -438h-145l77 438h-150l23 131h151l28 166h145z" />
    <glyph glyph-name="daggerdbl" unicode="&#x2021;" horiz-adv-x="497" 
d="M401 735l-28 -166h152l-24 -131h-152l-25 -141h151l-24 -131h-150l-29 -166h-144l29 166h-152l23 131h152l25 141h-150l23 131h150l29 166h144z" />
    <glyph glyph-name="quotesinglbase" unicode="&#x201a;" horiz-adv-x="211" 
d="M75 157c47 0 77 -31 77 -75c-1 -31 -16 -54 -30 -72l-136 -176h-4l57 316c12 4 23 7 36 7z" />
    <glyph glyph-name="quotedblbase" unicode="&#x201e;" horiz-adv-x="430" 
d="M75 157c47 0 77 -31 77 -75c-1 -31 -16 -54 -30 -72l-136 -176h-4l57 316c12 4 23 7 36 7zM294 157c47 0 77 -31 77 -75c-1 -31 -16 -54 -30 -72l-136 -176h-4l57 316c12 4 23 7 36 7z" />
    <glyph glyph-name="comma" unicode="," horiz-adv-x="211" 
d="M74 169c47 0 77 -32 76 -76c0 -30 -15 -53 -29 -71l-136 -177h-4l56 317c13 4 24 7 37 7z" />
    <glyph glyph-name="bullet" unicode="&#x2022;" horiz-adv-x="295" 
d="M166 376c67 0 108 -48 98 -114c-10 -71 -70 -121 -140 -121c-65 0 -106 48 -97 113c10 71 70 122 139 122z" />
    <glyph glyph-name="guillemotleft" unicode="&#xab;" horiz-adv-x="539" 
d="M305 458l-161 -206l88 -198h-130l-94 208l1 4l154 192h142zM556 458l-161 -206l87 -198h-129l-94 208l1 4l154 192h142z" />
    <glyph glyph-name="guillemotright" unicode="&#xbb;" horiz-adv-x="539" 
d="M425 458l94 -208l-1 -4l-154 -192h-142l161 206l-87 198h129zM174 458l94 -208v-4l-156 -192h-141l161 206l-87 198h129z" />
    <glyph glyph-name="at.cap" horiz-adv-x="873" 
d="M513 773c219 0 351 -142 351 -331c1 -129 -59 -294 -217 -294c-66 0 -100 29 -111 62l-2 5c-31 -35 -74 -67 -145 -67c-104 0 -167 77 -167 177c0 131 85 260 229 260c63 0 101 -28 116 -56l15 48h110l-53 -296c-5 -25 2 -44 31 -44c71 0 101 99 101 202
c0 152 -95 247 -263 247c-207 0 -381 -171 -381 -382c0 -154 95 -255 247 -255c55 0 100 8 142 24l10 -82c-50 -19 -104 -29 -152 -29c-212 0 -340 145 -340 341c0 265 219 470 479 470zM464 479c-72 0 -117 -64 -117 -138c0 -54 29 -87 78 -87c43 0 72 22 95 51l24 129
c-14 24 -38 45 -80 45z" />
    <glyph glyph-name="commaaccent" unicode="&#xf6c3;" horiz-adv-x="199" 
d="M40 -45c47 0 77 -31 76 -74c0 -29 -12 -56 -30 -72l-127 -138h-4l49 278c12 4 23 6 36 6z" />
    <glyph glyph-name="Thorn" unicode="&#xde;" horiz-adv-x="605" 
d="M306 735l-22 -123h104c115 0 214 -75 214 -195c0 -147 -135 -246 -284 -246h-112l-29 -171h-153l129 735h153zM358 481h-97l-31 -179h96c58 0 120 35 120 104c0 48 -37 75 -88 75z" />
    <glyph glyph-name="grave.cap" horiz-adv-x="334" 
d="M279 892l114 -120h-136l-143 120h165z" />
    <glyph glyph-name="acute.cap" horiz-adv-x="334" 
d="M433 892l-175 -120h-148l138 120h185z" />
    <glyph glyph-name="circumflex.cap" horiz-adv-x="384" 
d="M302 926l147 -154h-109l-51 49l-67 -49h-122z" />
    <glyph glyph-name="caron.cap" horiz-adv-x="384" 
d="M485 915l-202 -154l-147 154h108l51 -49l67 49h123z" />
    <glyph glyph-name="tilde.cap" horiz-adv-x="387" 
d="M242 923c68 0 79 -70 115 -70c27 0 38 25 45 64h78c-17 -96 -78 -149 -142 -149c-72 0 -70 70 -112 70c-31 0 -41 -24 -48 -64h-78c17 100 78 149 142 149z" />
    <glyph glyph-name="dieresis.cap" horiz-adv-x="366" 
d="M196 906c38 0 60 -23 60 -59c0 -45 -39 -81 -81 -81c-38 0 -61 23 -61 59c0 45 38 81 82 81zM389 906c37 0 59 -23 59 -59c0 -45 -39 -81 -81 -81c-38 0 -61 23 -61 59c0 45 38 81 83 81z" />
    <glyph glyph-name="macron.cap" horiz-adv-x="309" 
d="M389 883l-17 -98h-274l17 98h274z" />
    <glyph glyph-name="breve.cap" horiz-adv-x="365" 
d="M458 931c-14 -106 -95 -160 -185 -160c-100 0 -157 69 -146 160h100c-8 -47 12 -80 53 -80c40 0 70 33 78 80h100z" />
    <glyph glyph-name="ring.cap" horiz-adv-x="279" 
d="M255 1010c64 0 107 -46 107 -105c0 -82 -68 -136 -142 -136c-64 0 -106 46 -106 105c0 82 67 136 141 136zM243 933c-24 0 -49 -20 -49 -50c0 -22 14 -37 37 -37c24 0 49 20 49 50c0 22 -15 37 -37 37z" />
    <glyph glyph-name="hungarumlaut.cap" horiz-adv-x="426" 
d="M371 894l-122 -121h-108l101 121h129zM562 894l-122 -121h-108l101 121h129z" />
    <glyph glyph-name="dotaccent.cap" horiz-adv-x="192" 
d="M203 926c42 0 68 -26 68 -66c0 -51 -45 -91 -92 -91c-43 0 -68 25 -68 65c0 51 43 92 92 92z" />
    <glyph glyph-name="AE" unicode="&#xc6;" horiz-adv-x="890" 
d="M926 735l-24 -139h-376l36 -159h269l-22 -129h-217l41 -169h196l-24 -139h-306l-26 116h-279l-68 -116h-169l454 735h515zM395 465l-135 -234h188z" />
    <glyph glyph-name="exclamdown" unicode="&#xa1;" horiz-adv-x="294" 
d="M-17 -232l89 509h147l-89 -509h-147zM159 344c-47 0 -75 29 -74 74c1 54 49 98 99 98c48 0 76 -28 75 -73c0 -54 -47 -99 -100 -99z" />
    <glyph glyph-name="questiondown" unicode="&#xbf;" horiz-adv-x="525" 
d="M192 -245c-128 0 -211 84 -211 195c0 179 197 184 218 299l5 28h148l-9 -46c-29 -168 -207 -164 -207 -280c-1 -41 28 -65 71 -65c53 0 90 36 105 86l146 -26c-45 -120 -139 -191 -266 -191zM291 344c-47 0 -75 29 -74 74c0 54 49 98 100 98c47 0 75 -28 74 -73
c0 -54 -47 -99 -100 -99z" />
    <glyph glyph-name="parenleft.cap" horiz-adv-x="322" 
d="M272 788l106 -85c-109 -111 -186 -225 -193 -413c-8 -123 24 -208 67 -272l-116 -72c-52 80 -98 192 -90 339c8 220 104 376 226 503z" />
    <glyph glyph-name="parenright.cap" horiz-adv-x="322" 
d="M209 788c52 -80 97 -192 90 -339c-8 -220 -104 -376 -226 -503l-106 85c109 111 186 225 193 413c7 123 -25 208 -67 272z" />
    <glyph glyph-name="bracketleft.cap" horiz-adv-x="333" 
d="M390 777l-20 -116h-114l-105 -588h114l-20 -116h-252l144 820h253z" />
    <glyph glyph-name="bracketright.cap" horiz-adv-x="336" 
d="M363 777l-145 -820h-255l20 116h116l104 588h-116l20 116h256z" />
    <glyph glyph-name="braceleft.cap" horiz-adv-x="341" 
d="M400 777l-21 -116c-66 0 -115 -49 -109 -122l2 -39c10 -75 -34 -126 -78 -140c40 -13 68 -66 29 -140l-16 -39c-33 -73 2 -108 68 -108l-20 -116c-182 0 -258 111 -176 266l15 38c32 61 -11 101 -63 112l1 4c56 12 115 53 103 113l-2 37c-28 156 85 250 267 250z" />
    <glyph glyph-name="braceright.cap" horiz-adv-x="341" 
d="M108 777c182 0 258 -111 175 -266l-15 -38c-32 -61 12 -101 63 -112l-1 -4c-56 -12 -114 -53 -102 -113l2 -37c28 -156 -85 -250 -267 -250l21 116c65 0 115 49 108 122l-1 39c-11 75 34 126 77 140c-39 13 -67 66 -29 140l16 39c34 73 -1 108 -67 108z" />
    <glyph glyph-name="guilsinglleft.cap" horiz-adv-x="394" 
d="M437 576l-242 -229l151 -215h-161l-158 228l1 4l223 212h186z" />
    <glyph glyph-name="guilsinglright.cap" horiz-adv-x="394" 
d="M234 576l158 -228l-1 -4l-223 -212h-186l242 229l-151 215h161z" />
    <glyph glyph-name="guillemotleft.cap" horiz-adv-x="554" 
d="M340 576l-179 -224l98 -220h-130l-101 228l1 4l168 212h143zM593 576l-179 -224l99 -220h-130l-102 228l1 4l168 212h143z" />
    <glyph glyph-name="guillemotright.cap" horiz-adv-x="554" 
d="M451 576l101 -228l-1 -4l-167 -212h-143l179 224l-99 220h130zM198 576l101 -228l-1 -4l-168 -212h-143l179 224l-98 220h130z" />
    <glyph glyph-name="exclamdown.cap" horiz-adv-x="294" 
d="M28 0l89 509h147l-89 -509h-147zM204 576c-47 0 -75 29 -74 74c1 54 49 98 99 98c48 0 76 -28 75 -73c0 -54 -47 -99 -100 -99z" />
    <glyph glyph-name="questiondown.cap" horiz-adv-x="525" 
d="M228 -13c-128 0 -211 84 -211 195c0 179 197 184 218 299l5 28h148l-9 -46c-29 -168 -207 -164 -207 -280c-1 -41 28 -65 71 -65c53 0 90 36 105 86l146 -26c-45 -120 -139 -191 -266 -191zM327 576c-47 0 -75 29 -74 74c0 54 49 98 100 98c47 0 75 -28 74 -73
c0 -54 -47 -99 -100 -99z" />
    <glyph glyph-name="endash.cap" horiz-adv-x="550" 
d="M534 424l-24 -135h-475l24 135h475z" />
    <glyph glyph-name="periodcentered.cap" horiz-adv-x="233" 
d="M145 444c52 0 83 -38 75 -89c-10 -52 -54 -89 -106 -89c-51 0 -82 37 -73 89c8 51 53 89 104 89z" />
    <glyph glyph-name="emdash.cap" horiz-adv-x="794" 
d="M781 424l-23 -135h-720l24 135h719z" />
    <glyph glyph-name="hyphen.cap" horiz-adv-x="431" 
d="M415 424l-24 -135h-356l24 135h356z" />
    <glyph glyph-name="oe" unicode="&#x153;" horiz-adv-x="936" 
d="M704 517c158 0 227 -116 201 -258l-8 -46h-340c-3 -60 30 -103 96 -103c49 0 89 22 119 52l92 -85c-64 -61 -136 -87 -229 -87c-80 0 -140 28 -178 75c-56 -47 -129 -75 -209 -75c-138 0 -226 97 -226 226c0 168 144 301 317 301c74 0 134 -28 174 -75
c49 46 115 75 191 75zM317 389c-77 0 -145 -76 -145 -165c0 -63 39 -106 98 -106c77 0 145 76 145 164c0 63 -38 107 -98 107zM695 406c-65 0 -109 -46 -121 -101h195c10 58 -10 101 -74 101z" />
    <glyph glyph-name="zero.dnom" horiz-adv-x="397" 
d="M221 426c87 0 136 -66 136 -160c0 -161 -89 -274 -201 -274c-87 0 -137 66 -137 161c0 159 87 273 202 273zM208 334c-44 0 -82 -80 -82 -178c0 -44 13 -71 43 -71c45 0 82 79 82 177c0 45 -13 72 -43 72z" />
    <glyph glyph-name="one.dnom" horiz-adv-x="284" 
d="M261 427l-79 -427h-106l50 264l-58 -27l-32 93l223 97h2z" />
    <glyph glyph-name="two.dnom" horiz-adv-x="359" 
d="M200 427c86 0 136 -48 136 -114c0 -50 -26 -86 -63 -129l-83 -91h108l-16 -93h-289v3l194 228c22 25 41 44 41 69c0 19 -15 33 -37 33c-30 0 -51 -17 -62 -56l-95 21c26 82 81 129 166 129z" />
    <glyph glyph-name="three.dnom" horiz-adv-x="353" 
d="M207 427c79 0 125 -48 125 -113c0 -47 -24 -85 -62 -106c23 -13 37 -33 37 -68c0 -85 -80 -148 -171 -148c-84 0 -132 35 -134 122l96 21c-1 -34 15 -49 45 -49c33 0 58 24 58 54c0 20 -15 35 -40 35h-45l14 80h47c26 0 49 21 49 46c0 21 -15 32 -36 32
c-23 0 -43 -13 -54 -42l-90 40c27 59 86 96 161 96z" />
    <glyph glyph-name="four.dnom" horiz-adv-x="393" 
d="M360 426l-56 -303h44l-14 -76h-43l-10 -47h-106l10 47h-207v2l379 377h3zM226 206l-91 -88h74z" />
    <glyph glyph-name="five.dnom" horiz-adv-x="369" 
d="M343 419l-17 -93h-151l-12 -61c7 3 15 4 27 4c72 0 128 -41 128 -116c0 -92 -77 -161 -179 -161c-75 0 -124 32 -133 99l91 41c3 -32 23 -46 53 -46c34 0 61 26 61 56c0 25 -18 41 -46 41c-25 0 -43 -10 -51 -18l-69 32l41 222h257z" />
    <glyph glyph-name="six.dnom" horiz-adv-x="380" 
d="M347 419l-121 -145c61 -12 100 -60 100 -120c0 -90 -85 -161 -185 -161c-79 0 -132 53 -132 124c0 45 20 84 53 113l159 189h126zM178 191c-35 0 -64 -30 -64 -66c0 -26 17 -43 43 -43c35 0 64 30 64 65c0 26 -17 44 -43 44z" />
    <glyph glyph-name="seven.dnom" horiz-adv-x="371" 
d="M391 419v-4l-279 -415h-118l220 322h-161l16 97h322z" />
    <glyph glyph-name="eight.dnom" horiz-adv-x="381" 
d="M223 427c72 0 124 -42 124 -102c0 -43 -27 -79 -64 -104c26 -16 45 -45 45 -85c0 -86 -86 -144 -178 -144c-74 0 -138 37 -138 112c0 58 38 97 80 119c-18 17 -30 38 -30 70c0 75 80 134 161 134zM178 180c-35 0 -66 -27 -66 -60c0 -27 18 -47 48 -47c38 0 67 27 67 61
c0 27 -21 46 -49 46zM212 346c-30 0 -57 -22 -57 -51c0 -22 15 -39 40 -39c31 0 57 24 57 52c0 22 -15 38 -40 38z" />
    <glyph glyph-name="nine.dnom" horiz-adv-x="380" 
d="M227 426c80 0 133 -53 133 -124c0 -45 -21 -85 -54 -114l-158 -188h-127l121 144c-61 12 -99 60 -99 121c0 90 85 161 184 161zM212 337c-35 0 -64 -30 -64 -65c0 -26 17 -44 43 -44c35 0 64 30 64 66c0 26 -17 43 -43 43z" />
    <glyph glyph-name="zero.numr" horiz-adv-x="382" 
d="M273 740c87 0 136 -66 136 -160c0 -161 -89 -274 -201 -274c-87 0 -137 66 -137 161c0 159 87 273 202 273zM260 648c-44 0 -82 -80 -82 -178c0 -44 13 -71 43 -71c45 0 82 79 82 177c0 45 -13 72 -43 72z" />
    <glyph glyph-name="one.numr" horiz-adv-x="269" 
d="M305 741l-79 -427h-106l50 264l-58 -27l-32 93l223 97h2z" />
    <glyph glyph-name="two.numr" horiz-adv-x="344" 
d="M248 741c86 0 136 -48 136 -114c0 -50 -26 -86 -63 -129l-83 -91h108l-16 -93h-289v3l194 228c22 25 41 44 41 69c0 19 -15 33 -37 33c-30 0 -51 -17 -62 -56l-95 21c26 82 81 129 166 129z" />
    <glyph glyph-name="three.numr" horiz-adv-x="337" 
d="M257 741c79 0 125 -48 125 -113c0 -47 -24 -85 -62 -106c23 -13 37 -33 37 -68c0 -85 -80 -148 -171 -148c-84 0 -132 35 -134 122l96 21c-1 -34 15 -49 45 -49c33 0 58 24 58 54c0 20 -15 35 -40 35h-45l14 80h47c26 0 49 21 49 46c0 21 -15 32 -36 32
c-23 0 -43 -13 -54 -42l-90 40c27 59 86 96 161 96z" />
    <glyph glyph-name="four.numr" horiz-adv-x="377" 
d="M400 740l-56 -303h44l-14 -76h-43l-10 -47h-106l10 47h-207v2l379 377h3zM266 520l-91 -88h74z" />
    <glyph glyph-name="five.numr" horiz-adv-x="354" 
d="M393 733l-17 -93h-151l-12 -61c7 3 15 4 27 4c72 0 128 -41 128 -116c0 -92 -77 -161 -179 -161c-75 0 -124 32 -133 99l91 41c3 -32 23 -46 53 -46c34 0 61 26 61 56c0 25 -18 41 -46 41c-25 0 -43 -10 -51 -18l-69 32l41 222h257z" />
    <glyph glyph-name="six.numr" horiz-adv-x="365" 
d="M394 733l-121 -145c61 -12 100 -60 100 -120c0 -90 -85 -161 -185 -161c-79 0 -132 53 -132 124c0 45 20 84 53 113l159 189h126zM225 505c-35 0 -64 -30 -64 -66c0 -26 17 -43 43 -43c35 0 64 30 64 65c0 26 -17 44 -43 44z" />
    <glyph glyph-name="seven.numr" horiz-adv-x="355" 
d="M437 733v-4l-279 -415h-118l220 322h-161l16 97h322z" />
    <glyph glyph-name="eight.numr" horiz-adv-x="365" 
d="M270 741c72 0 124 -42 124 -102c0 -43 -27 -79 -64 -104c26 -16 45 -45 45 -85c0 -86 -86 -144 -178 -144c-74 0 -138 37 -138 112c0 58 38 97 80 119c-18 17 -30 38 -30 70c0 75 80 134 161 134zM225 494c-35 0 -66 -27 -66 -60c0 -27 18 -47 48 -47c38 0 67 27 67 61
c0 27 -21 46 -49 46zM259 660c-30 0 -57 -22 -57 -51c0 -22 15 -39 40 -39c31 0 57 24 57 52c0 22 -15 38 -40 38z" />
    <glyph glyph-name="nine.numr" horiz-adv-x="365" 
d="M270 740c80 0 133 -53 133 -124c0 -45 -21 -85 -54 -114l-158 -188h-127l121 144c-61 12 -99 60 -99 121c0 90 85 161 184 161zM255 651c-35 0 -64 -30 -64 -65c0 -26 17 -44 43 -44c35 0 64 30 64 66c0 26 -17 43 -43 43z" />
    <glyph glyph-name="zero.sups" unicode="&#x2070;" horiz-adv-x="382" 
d="M287 820c87 0 136 -66 136 -160c0 -161 -89 -274 -201 -274c-87 0 -137 66 -137 161c0 159 87 273 202 273zM274 728c-44 0 -82 -80 -82 -178c0 -44 13 -71 43 -71c45 0 82 79 82 177c0 45 -13 72 -43 72z" />
    <glyph glyph-name="one.sups" unicode="&#xb9;" horiz-adv-x="269" 
d="M325 821l-79 -427h-106l50 264l-58 -27l-32 93l223 97h2z" />
    <glyph glyph-name="two.sups" unicode="&#xb2;" horiz-adv-x="344" 
d="M264 821c86 0 136 -48 136 -114c0 -50 -26 -86 -63 -129l-83 -91h108l-16 -93h-289v3l194 228c22 25 41 44 41 69c0 19 -15 33 -37 33c-30 0 -51 -17 -62 -56l-95 21c26 82 81 129 166 129z" />
    <glyph glyph-name="three.sups" unicode="&#xb3;" horiz-adv-x="337" 
d="M271 821c79 0 125 -48 125 -113c0 -47 -24 -85 -62 -106c23 -13 37 -33 37 -68c0 -85 -80 -148 -171 -148c-84 0 -132 35 -134 122l96 21c-1 -34 15 -49 45 -49c33 0 58 24 58 54c0 20 -15 35 -40 35h-45l14 80h47c26 0 49 21 49 46c0 21 -15 32 -36 32
c-23 0 -43 -13 -54 -42l-90 40c27 59 86 96 161 96z" />
    <glyph glyph-name="four.sups" unicode="&#x2074;" horiz-adv-x="377" 
d="M421 820l-56 -303h44l-14 -76h-43l-10 -47h-106l10 47h-207v2l379 377h3zM287 600l-91 -88h74z" />
    <glyph glyph-name="five.sups" unicode="&#x2075;" horiz-adv-x="354" 
d="M408 813l-17 -93h-151l-12 -61c7 3 15 4 27 4c72 0 128 -41 128 -116c0 -92 -77 -161 -179 -161c-75 0 -124 32 -133 99l91 41c3 -32 23 -46 53 -46c34 0 61 26 61 56c0 25 -18 41 -46 41c-25 0 -43 -10 -51 -18l-69 32l41 222h257z" />
    <glyph glyph-name="six.sups" unicode="&#x2076;" horiz-adv-x="365" 
d="M413 813l-121 -145c61 -12 100 -60 100 -120c0 -90 -85 -161 -185 -161c-79 0 -132 53 -132 124c0 45 20 84 53 113l159 189h126zM244 585c-35 0 -64 -30 -64 -66c0 -26 17 -43 43 -43c35 0 64 30 64 65c0 26 -17 44 -43 44z" />
    <glyph glyph-name="seven.sups" unicode="&#x2077;" horiz-adv-x="355" 
d="M456 813v-4l-279 -415h-118l220 322h-161l16 97h322z" />
    <glyph glyph-name="eight.sups" unicode="&#x2078;" horiz-adv-x="365" 
d="M285 821c72 0 124 -42 124 -102c0 -43 -27 -79 -64 -104c26 -16 45 -45 45 -85c0 -86 -86 -144 -178 -144c-74 0 -138 37 -138 112c0 58 38 97 80 119c-18 17 -30 38 -30 70c0 75 80 134 161 134zM240 574c-35 0 -66 -27 -66 -60c0 -27 18 -47 48 -47c38 0 67 27 67 61
c0 27 -21 46 -49 46zM274 740c-30 0 -57 -22 -57 -51c0 -22 15 -39 40 -39c31 0 57 24 57 52c0 22 -15 38 -40 38z" />
    <glyph glyph-name="nine.sups" unicode="&#x2079;" horiz-adv-x="365" 
d="M292 820c80 0 133 -53 133 -124c0 -45 -21 -85 -54 -114l-158 -188h-127l121 144c-61 12 -99 60 -99 121c0 90 85 161 184 161zM277 731c-35 0 -64 -30 -64 -65c0 -26 17 -44 43 -44c35 0 64 30 64 66c0 26 -17 43 -43 43z" />
    <glyph glyph-name="zero.subs" horiz-adv-x="382" 
d="M207 326c87 0 136 -66 136 -160c0 -161 -89 -274 -201 -274c-87 0 -137 66 -137 161c0 159 87 273 202 273zM194 234c-44 0 -82 -80 -82 -178c0 -44 13 -71 43 -71c45 0 82 79 82 177c0 45 -13 72 -43 72z" />
    <glyph glyph-name="one.subs" horiz-adv-x="269" 
d="M253 327l-79 -427h-106l50 264l-58 -27l-32 93l223 97h2z" />
    <glyph glyph-name="two.subs" horiz-adv-x="344" 
d="M184 327c86 0 136 -48 136 -114c0 -50 -26 -86 -63 -129l-83 -91h108l-16 -93h-289v3l194 228c22 25 41 44 41 69c0 19 -15 33 -37 33c-30 0 -51 -17 -62 -56l-95 21c26 82 81 129 166 129z" />
    <glyph glyph-name="three.subs" horiz-adv-x="337" 
d="M191 327c79 0 125 -48 125 -113c0 -47 -24 -85 -62 -106c23 -13 37 -33 37 -68c0 -85 -80 -148 -171 -148c-84 0 -132 35 -134 122l96 21c-1 -34 15 -49 45 -49c33 0 58 24 58 54c0 20 -15 35 -40 35h-45l14 80h47c26 0 49 21 49 46c0 21 -15 32 -36 32
c-23 0 -43 -13 -54 -42l-90 40c27 59 86 96 161 96z" />
    <glyph glyph-name="four.subs" horiz-adv-x="377" 
d="M341 326l-56 -303h44l-14 -76h-43l-10 -47h-106l10 47h-207v2l379 377h3zM207 106l-91 -88h74z" />
    <glyph glyph-name="five.subs" horiz-adv-x="354" 
d="M329 319l-17 -93h-151l-12 -61c7 3 15 4 27 4c72 0 128 -41 128 -116c0 -92 -77 -161 -179 -161c-75 0 -124 32 -133 99l91 41c3 -32 23 -46 53 -46c34 0 61 26 61 56c0 25 -18 41 -46 41c-25 0 -43 -10 -51 -18l-69 32l41 222h257z" />
    <glyph glyph-name="six.subs" horiz-adv-x="365" 
d="M333 319l-121 -145c61 -12 100 -60 100 -120c0 -90 -85 -161 -185 -161c-79 0 -132 53 -132 124c0 45 20 84 53 113l159 189h126zM164 91c-35 0 -64 -30 -64 -66c0 -26 17 -43 43 -43c35 0 64 30 64 65c0 26 -17 44 -43 44z" />
    <glyph glyph-name="seven.subs" horiz-adv-x="355" 
d="M373 319v-4l-279 -415h-118l220 322h-161l16 97h322z" />
    <glyph glyph-name="eight.subs" horiz-adv-x="365" 
d="M207 327c72 0 124 -42 124 -102c0 -43 -27 -79 -64 -104c26 -16 45 -45 45 -85c0 -86 -86 -144 -178 -144c-74 0 -138 37 -138 112c0 58 38 97 80 119c-18 17 -30 38 -30 70c0 75 80 134 161 134zM162 80c-35 0 -66 -27 -66 -60c0 -27 18 -47 48 -47c38 0 67 27 67 61
c0 27 -21 46 -49 46zM196 246c-30 0 -57 -22 -57 -51c0 -22 15 -39 40 -39c31 0 57 24 57 52c0 22 -15 38 -40 38z" />
    <glyph glyph-name="nine.subs" horiz-adv-x="365" 
d="M207 326c80 0 133 -53 133 -124c0 -45 -21 -85 -54 -114l-158 -188h-127l121 144c-61 12 -99 60 -99 121c0 90 85 161 184 161zM192 237c-35 0 -64 -30 -64 -65c0 -26 17 -44 43 -44c35 0 64 30 64 66c0 26 -17 43 -43 43z" />
    <glyph glyph-name="onehalf" unicode="&#xbd;" horiz-adv-x="864" 
d="M725 735l-491 -735h-134l493 735h132zM297 721l-79 -427h-106l50 264l-58 -27l-32 93l223 97h2zM723 427c86 0 136 -48 136 -114c0 -50 -26 -86 -63 -129l-83 -91h108l-16 -93h-289v3l194 228c22 25 41 44 41 69c0 19 -15 33 -37 33c-30 0 -51 -17 -62 -56l-95 21
c26 82 81 129 166 129z" />
    <glyph glyph-name="onequarter" unicode="&#xbc;" horiz-adv-x="783" 
d="M725 735l-491 -735h-134l493 735h132zM298 721l-79 -427h-106l50 264l-58 -27l-32 93l223 97h2zM769 426l-56 -303h44l-14 -76h-43l-10 -47h-106l10 47h-207v2l379 377h3zM635 206l-91 -88h74z" />
    <glyph glyph-name="threequarters" unicode="&#xbe;" horiz-adv-x="853" 
d="M796 735l-491 -735h-134l493 735h132zM839 426l-56 -303h44l-14 -76h-43l-10 -47h-106l10 47h-207v2l379 377h3zM705 206l-91 -88h74zM249 721c79 0 125 -48 125 -113c0 -47 -24 -85 -62 -106c23 -13 37 -33 37 -68c0 -85 -80 -148 -171 -148c-84 0 -132 35 -134 122
l96 21c-1 -34 15 -49 45 -49c33 0 58 24 58 54c0 20 -15 35 -40 35h-45l14 80h47c26 0 49 21 49 46c0 21 -15 32 -36 32c-23 0 -43 -13 -54 -42l-90 40c27 59 86 96 161 96z" />
    <glyph glyph-name="zero.lnum" horiz-adv-x="600" 
d="M352 618c-102 0 -167 -190 -167 -361c0 -87 26 -140 89 -140c102 0 167 190 167 360c0 88 -26 141 -89 141zM372 748c141 0 216 -109 216 -274c0 -296 -149 -487 -334 -487c-141 0 -216 108 -216 274c0 295 149 487 334 487z" />
    <glyph glyph-name="one.lnum" horiz-adv-x="600" 
d="M507 748l-108 -614h123l-23 -134h-405l23 134h134l67 372l-151 -76l-52 130l388 188h4z" />
    <glyph glyph-name="two.lnum" horiz-adv-x="600" 
d="M367 748c146 0 226 -97 202 -232c-14 -82 -58 -141 -120 -210l-159 -174h217l-23 -132h-467l1 6l320 376c51 60 73 88 82 138c11 60 -22 96 -76 96c-58 0 -97 -36 -122 -109l-128 31c52 141 144 210 273 210z" />
    <glyph glyph-name="three.lnum" horiz-adv-x="600" 
d="M380 748c127 0 199 -86 199 -194c0 -80 -40 -144 -115 -186c45 -23 74 -76 74 -139c0 -149 -125 -242 -266 -242c-147 0 -214 69 -229 206l135 31c6 -67 32 -106 96 -106c62 0 118 50 118 121c0 49 -33 81 -87 81h-78l21 113h78c56 0 105 49 105 109c0 47 -30 75 -75 75
c-49 0 -86 -32 -110 -91l-125 56c51 104 143 166 259 166z" />
    <glyph glyph-name="four.lnum" horiz-adv-x="600" 
d="M570 745l-93 -525h84l-20 -112h-83l-19 -108h-147l19 108h-329v4l583 633h5zM374 398l-165 -181h129z" />
    <glyph glyph-name="five.lnum" horiz-adv-x="600" 
d="M583 735l-23 -131h-264l-28 -154c18 8 40 13 67 13c120 0 206 -71 206 -196c0 -160 -114 -280 -282 -280c-128 0 -200 60 -225 165l126 57c9 -55 44 -91 103 -91c70 0 130 62 130 135c0 53 -31 89 -88 89c-50 0 -87 -20 -109 -37l-93 43l68 387h412z" />
    <glyph glyph-name="six.lnum" horiz-adv-x="600" 
d="M560 735l-205 -254c123 -11 208 -108 189 -238c-20 -144 -152 -256 -297 -256c-136 0 -230 99 -211 238c8 56 33 108 69 150l289 360h166zM310 352c-62 0 -117 -54 -125 -127c-7 -66 28 -108 83 -108c63 0 118 53 126 126c8 66 -28 109 -84 109z" />
    <glyph glyph-name="seven.lnum" horiz-adv-x="600" 
d="M655 735l-1 -6l-475 -729h-165l399 601h-302l24 134h520z" />
    <glyph glyph-name="eight.lnum" horiz-adv-x="600" 
d="M375 748c117 0 200 -72 198 -177c0 -76 -43 -141 -104 -183c40 -29 74 -77 74 -149c0 -138 -124 -252 -291 -252c-118 0 -222 65 -222 194c0 101 64 171 139 213c-31 27 -53 68 -53 123c0 133 127 231 259 231zM301 324c-63 0 -125 -53 -125 -123c0 -54 35 -94 89 -94
c65 0 128 53 128 124c0 53 -36 93 -92 93zM358 628c-55 0 -106 -46 -106 -106c0 -47 29 -81 75 -81c55 0 107 47 107 107c0 47 -29 80 -76 80z" />
    <glyph glyph-name="nine.lnum" horiz-adv-x="600" 
d="M379 748c136 0 231 -99 211 -238c-8 -57 -33 -108 -69 -150l-289 -360h-166l205 254c-124 11 -208 108 -189 238c20 144 152 256 297 256zM358 618c-63 0 -119 -53 -126 -126c-8 -66 28 -109 84 -109c62 0 117 54 124 127c8 66 -27 108 -82 108z" />
    <glyph glyph-name="zero.tnum" horiz-adv-x="596" 
d="M359 570c149 0 239 -115 217 -275c-23 -174 -159 -305 -320 -305c-149 0 -238 115 -216 275c22 174 158 305 319 305zM337 442c-74 0 -137 -74 -148 -177c-11 -89 25 -147 89 -147c74 0 138 74 149 177c11 89 -26 147 -90 147z" />
    <glyph glyph-name="one.tnum" horiz-adv-x="397" 
d="M385 570l-101 -570h-147l59 332l-120 -67l-37 137l342 168h4z" />
    <glyph glyph-name="two.tnum" horiz-adv-x="534" 
d="M299 570c127 0 200 -85 200 -180c0 -91 -46 -141 -117 -201l-68 -58h155l-23 -131h-444l1 6l243 224c59 53 101 89 101 144c0 40 -27 65 -69 65c-43 0 -72 -23 -95 -66l-114 60c46 78 118 137 230 137z" />
    <glyph glyph-name="three.tnum" horiz-adv-x="524" 
d="M315 570c127 0 199 -84 199 -188c0 -79 -40 -141 -115 -181c45 -23 73 -74 73 -135c0 -144 -124 -235 -265 -235c-147 0 -214 67 -229 200l134 31c7 -65 33 -103 97 -103c62 0 117 47 117 117c0 48 -32 78 -86 78h-78l20 111h79c56 0 105 47 105 105c0 45 -30 72 -75 72
c-49 0 -86 -31 -109 -88l-126 55c51 100 143 161 259 161z" />
    <glyph glyph-name="four.tnum" horiz-adv-x="579" 
d="M533 570l-92 -509h84l-20 -109h-83l-18 -105h-148l19 105h-329l1 4l582 614h4zM340 234l-166 -177h130z" />
    <glyph glyph-name="five.tnum" horiz-adv-x="547" 
d="M528 560l-22 -127h-265l-27 -149c17 7 38 13 65 13c120 0 207 -68 207 -191c0 -156 -114 -272 -282 -272c-127 0 -199 58 -225 160l126 55c9 -53 45 -88 103 -88c70 0 130 60 130 131c0 53 -31 87 -90 87c-48 0 -85 -20 -107 -37l-93 42l68 376h412z" />
    <glyph glyph-name="six.tnum" horiz-adv-x="562" 
d="M538 713l-208 -247c119 -8 196 -94 196 -206c0 -153 -137 -273 -299 -273c-130 0 -215 88 -215 206c0 73 32 140 83 189l277 331h166zM289 341c-66 0 -126 -64 -126 -138c0 -54 35 -90 86 -90c65 0 126 64 126 138c0 53 -35 90 -86 90z" />
    <glyph glyph-name="seven.tnum" horiz-adv-x="548" 
d="M601 560l-1 -6l-477 -707h-159l397 582h-303l23 131h520z" />
    <glyph glyph-name="eight.tnum" horiz-adv-x="562" 
d="M360 726c117 0 199 -70 198 -171c0 -75 -43 -138 -103 -178c39 -28 74 -75 74 -145c0 -130 -124 -245 -292 -245c-117 0 -221 64 -221 189c0 97 63 167 137 206c-30 26 -51 66 -51 120c0 128 126 224 258 224zM287 314c-64 0 -126 -51 -126 -118c0 -53 35 -92 90 -92
c65 0 127 51 127 120c0 52 -36 90 -91 90zM343 609c-55 0 -106 -45 -106 -103c0 -45 28 -78 75 -78c55 0 107 45 107 104c0 45 -29 77 -76 77z" />
    <glyph glyph-name="nine.tnum" horiz-adv-x="562" 
d="M338 570c130 0 215 -88 215 -206c0 -71 -30 -136 -78 -184l-283 -336h-166l208 246c-119 9 -195 95 -195 207c0 153 137 273 299 273zM316 444c-66 0 -126 -64 -126 -138c0 -53 35 -90 87 -90c65 0 125 64 125 138c0 54 -35 90 -86 90z" />
    <glyph glyph-name="a.sups" horiz-adv-x="440" 
d="M276 649c-45 0 -85 -40 -85 -102c0 -42 22 -65 55 -65s56 20 72 40l17 98c-11 15 -27 29 -59 29zM262 751c51 0 81 -19 95 -44l12 37h105l-62 -356h-105v37c-21 -24 -58 -44 -105 -44c-81 0 -130 67 -130 150c0 114 77 220 190 220z" />
    <glyph glyph-name="b.sups" horiz-adv-x="440" 
d="M280 920l-37 -204c22 20 56 35 98 35c80 0 129 -66 129 -150c0 -114 -76 -220 -190 -220c-51 0 -81 19 -95 44l-12 -37h-104l93 532h118zM296 650c-33 0 -56 -19 -72 -40l-17 -98c12 -15 28 -29 59 -29c45 0 86 40 86 103c0 41 -22 64 -56 64z" />
    <glyph glyph-name="c.sups" horiz-adv-x="373" 
d="M292 751c71 0 115 -33 139 -85l-91 -58c-12 26 -34 42 -64 42c-50 0 -85 -49 -85 -103c0 -37 19 -65 59 -65c34 0 58 21 75 44l82 -70c-40 -52 -99 -75 -162 -75c-106 0 -173 68 -173 160c0 114 96 210 220 210z" />
    <glyph glyph-name="d.sups" horiz-adv-x="440" 
d="M505 920l-94 -532h-105l1 37c-22 -24 -58 -44 -105 -44c-81 0 -130 67 -130 150c0 114 77 220 190 220c46 0 73 -15 89 -35l36 204h118zM276 649c-45 0 -85 -40 -85 -102c0 -42 22 -65 55 -65s56 20 72 40l17 98c-11 15 -27 29 -59 29z" />
    <glyph glyph-name="e.sups" horiz-adv-x="401" 
d="M283 751c122 0 159 -92 144 -180l-5 -32h-238c-2 -38 19 -63 64 -63c30 0 59 14 78 35l73 -70c-41 -38 -98 -60 -161 -60c-105 0 -165 68 -165 156c0 119 89 214 210 214zM272 670c-38 0 -68 -26 -75 -64h125c4 36 -10 64 -50 64z" />
    <glyph glyph-name="f.sups" horiz-adv-x="290" 
d="M334 920c39 0 70 -11 87 -26l-55 -89c-7 6 -18 14 -35 14c-25 0 -41 -17 -47 -46l-5 -29h76l-18 -98h-75l-45 -258h-117l45 258h-62l18 98h61l6 30c14 88 67 146 166 146z" />
    <glyph glyph-name="g.sups" horiz-adv-x="441" 
d="M278 649c-46 0 -84 -36 -84 -96c0 -39 21 -58 55 -58c32 0 56 18 72 39l15 86c-10 16 -28 29 -58 29zM264 751c51 0 81 -19 93 -44l13 37h105l-63 -356c-18 -109 -104 -168 -215 -168c-85 0 -140 34 -173 81l82 71c20 -28 48 -51 95 -51c51 0 87 36 96 81l5 26
c-19 -18 -53 -35 -99 -35c-82 0 -128 65 -128 147c0 113 79 211 189 211z" />
    <glyph glyph-name="h.sups" horiz-adv-x="431" 
d="M278 920l-35 -203c21 20 55 34 92 34c88 0 126 -64 109 -160l-36 -203h-118l35 197c6 35 -8 56 -36 56c-31 0 -52 -19 -66 -37l-38 -216h-116l92 532h117z" />
    <glyph glyph-name="i.sups" horiz-adv-x="216" 
d="M248 744l-63 -356h-116l62 356h117zM220 923c36 0 58 -23 58 -58c-1 -42 -39 -76 -79 -76c-37 0 -58 22 -57 56c0 43 36 78 78 78z" />
    <glyph glyph-name="j.sups" horiz-adv-x="223" 
d="M255 744l-65 -368c-18 -108 -85 -156 -204 -156l15 101c37 0 64 17 71 47l66 376h117zM228 923c36 0 58 -23 57 -58c-1 -42 -38 -76 -78 -76c-37 0 -58 22 -57 56c0 43 36 78 78 78z" />
    <glyph glyph-name="k.sups" horiz-adv-x="425" 
d="M278 920l-58 -331l129 155h144l-134 -143l78 -213h-131l-43 111l-103 -111h-91l92 532h117z" />
    <glyph glyph-name="l.sups" horiz-adv-x="216" 
d="M278 920l-93 -532h-116l92 532h117z" />
    <glyph glyph-name="m.sups" horiz-adv-x="644" 
d="M551 751c88 0 123 -73 108 -162l-36 -201h-118l35 197c6 35 -7 56 -35 56c-25 0 -47 -14 -62 -30c0 -3 -1 -6 -1 -8l-38 -215h-117l35 197c6 35 -4 56 -34 56c-28 0 -49 -19 -64 -36l-38 -217h-117l63 356h102v-37c20 23 53 44 98 44c55 0 85 -30 98 -59
c25 29 69 59 121 59z" />
    <glyph glyph-name="n.sups" unicode="&#x207f;" horiz-adv-x="431" 
d="M333 751c90 0 127 -74 112 -160l-36 -203h-118l35 197c6 35 -8 56 -35 56c-30 0 -50 -17 -66 -35l-39 -218h-117l63 356h105l-1 -35c20 22 54 42 97 42z" />
    <glyph glyph-name="o.sups" horiz-adv-x="425" 
d="M279 649c-47 0 -88 -46 -88 -101c0 -38 23 -66 59 -66c47 0 87 47 87 102c0 39 -22 65 -58 65zM297 751c97 0 160 -68 160 -159c0 -117 -102 -211 -226 -211c-97 0 -160 68 -160 159c0 118 102 211 226 211z" />
    <glyph glyph-name="p.sups" horiz-adv-x="440" 
d="M341 751c80 0 129 -66 129 -150c0 -114 -76 -220 -190 -220c-45 0 -73 15 -89 36l-34 -190h-116l91 517h104l-1 -37c21 24 58 44 106 44zM296 650c-33 0 -56 -19 -72 -40l-17 -98c12 -15 28 -29 59 -29c45 0 86 40 86 103c0 41 -22 64 -56 64z" />
    <glyph glyph-name="q.sups" horiz-adv-x="440" 
d="M262 751c51 0 81 -18 95 -43l13 36h105l-92 -517h-117l34 190c-23 -20 -57 -36 -99 -36c-80 0 -129 67 -129 150c0 114 76 220 190 220zM276 649c-45 0 -86 -40 -86 -102c0 -42 22 -65 56 -65c32 0 56 20 72 40l16 98c-11 15 -27 29 -58 29z" />
    <glyph glyph-name="r.sups" horiz-adv-x="277" 
d="M346 751l-21 -116h-10c-41 0 -71 -22 -93 -45l-36 -202h-117l63 356h104l-1 -46c22 29 63 53 111 53z" />
    <glyph glyph-name="s.sups" horiz-adv-x="344" 
d="M259 751c59 0 106 -18 131 -42l-54 -76c-17 16 -44 29 -80 29c-27 0 -42 -10 -42 -26c0 -15 12 -22 50 -33c69 -19 95 -50 95 -97c0 -74 -71 -125 -169 -125c-63 0 -113 22 -139 48l54 76c20 -19 50 -35 89 -35c30 0 46 8 46 27c0 15 -13 23 -49 34c-63 17 -96 46 -96 95
c0 84 77 125 164 125z" />
    <glyph glyph-name="t.sups" horiz-adv-x="313" 
d="M288 861l-20 -117h98l-18 -98h-97l-20 -115c-6 -29 8 -46 34 -46c21 0 37 5 47 11l12 -95c-19 -11 -42 -20 -83 -20c-82 0 -145 54 -127 152l20 113h-62l17 98h62l21 117h116z" />
    <glyph glyph-name="u.sups" horiz-adv-x="429" 
d="M463 744l-63 -356h-105l1 35c-21 -25 -56 -42 -104 -42c-84 0 -120 63 -103 160l36 203h117l-35 -199c-6 -33 6 -54 35 -54c31 0 51 18 66 36l38 217h117z" />
    <glyph glyph-name="v.sups" horiz-adv-x="420" 
d="M494 744l-265 -363h-3l-136 363h126l44 -152l99 152h135z" />
    <glyph glyph-name="w.sups" horiz-adv-x="554" 
d="M627 744l-241 -363h-2l-62 158l-118 -158h-3l-111 363h125l31 -147l106 147h3l51 -147l85 147h136z" />
    <glyph glyph-name="x.sups" horiz-adv-x="391" 
d="M463 744l-141 -179l83 -177h-132l-42 95l-65 -95h-142l146 186l-79 170h132l36 -93l63 93h141z" />
    <glyph glyph-name="y.sups" horiz-adv-x="423" 
d="M507 744l-374 -517h-133l198 265l-95 252h126l44 -152l98 152h136z" />
    <glyph glyph-name="z.sups" horiz-adv-x="352" 
d="M415 744v-3l-182 -255h135l-17 -98h-309v3l181 254h-128l18 99h302z" />
    <glyph glyph-name="ordfeminine" unicode="&#xaa;" horiz-adv-x="440" 
d="M268 751c51 0 81 -19 94 -44l13 37h105l-63 -356h-105l1 37c-21 -24 -58 -44 -106 -44c-88 0 -138 75 -128 170c11 115 92 200 189 200zM282 649c-45 0 -80 -36 -84 -94c-4 -46 18 -73 54 -73c33 0 56 20 72 40l16 95c-10 17 -27 32 -58 32z" />
    <glyph glyph-name="ordmasculine" unicode="&#xba;" horiz-adv-x="425" 
d="M294 751c109 0 176 -79 157 -185c-18 -107 -113 -185 -222 -185s-176 78 -157 185c19 106 113 185 222 185zM276 649c-41 0 -77 -35 -86 -83c-8 -48 16 -84 57 -84s77 36 86 84s-16 83 -57 83z" />
    <glyph glyph-name="Dcroat" unicode="&#x110;" horiz-adv-x="755" 
d="M384 735c221 0 361 -123 361 -319c0 -253 -197 -416 -471 -416h-234l58 330h-83l16 98h84l54 307h215zM374 595h-76l-30 -167h100l-17 -98h-100l-34 -191h76c166 -2 297 103 297 277c0 115 -71 179 -216 179z" />
    <glyph glyph-name="Eth" unicode="&#xd0;" horiz-adv-x="755" 
d="M384 735c221 0 361 -123 361 -319c0 -253 -197 -416 -471 -416h-234l58 330h-83l16 98h84l54 307h215zM374 595h-76l-30 -167h100l-17 -98h-100l-34 -191h76c166 -2 297 103 297 277c0 115 -71 179 -216 179z" />
    <glyph glyph-name="Eng" unicode="&#x14a;" horiz-adv-x="737" 
d="M744 735l-132 -748h-1c-27 -136 -142 -227 -286 -227l25 142c59 0 101 40 112 102l23 132l-234 285l-74 -421h-153l132 748h4l357 -433l35 193l39 227h153z" />
    <glyph glyph-name="Aringacute" unicode="&#x1fa;" horiz-adv-x="724" 
d="M445 748l223 -748h-161l-29 114h-278l-69 -114h-175l485 748h4zM699 1087l-149 -103c22 -19 35 -47 35 -79c0 -82 -68 -136 -142 -136c-64 0 -106 46 -106 105c0 50 26 90 63 113l114 100h185zM399 450l-129 -217h180zM466 933c-24 0 -49 -20 -49 -50
c0 -22 14 -37 37 -37c24 0 49 20 49 50c0 22 -15 37 -37 37z" />
    <glyph glyph-name="Oslash" unicode="&#xd8;" horiz-adv-x="814" 
d="M490 748c44 0 85 -8 121 -21l64 88h140l-107 -147c62 -58 97 -144 97 -245c0 -235 -203 -436 -449 -436c-47 0 -89 9 -127 23l-65 -90h-139l109 150c-60 58 -93 143 -93 242c0 235 203 436 449 436zM650 417c0 49 -13 91 -35 123l-296 -406c19 -5 39 -8 61 -8
c151 0 270 139 270 291zM466 609c-151 0 -271 -139 -271 -291c0 -47 11 -88 32 -119l293 403c-17 4 -35 7 -54 7z" />
    <glyph glyph-name="Oslashacute" unicode="&#x1fe;" horiz-adv-x="814" 
d="M490 748c44 0 85 -8 121 -21l64 88h140l-107 -147c62 -58 97 -144 97 -245c0 -235 -203 -436 -449 -436c-47 0 -89 9 -127 23l-65 -90h-139l109 150c-60 58 -93 143 -93 242c0 235 203 436 449 436zM650 417c0 49 -13 91 -35 123l-296 -406c19 -5 39 -8 61 -8
c151 0 270 139 270 291zM466 609c-151 0 -271 -139 -271 -291c0 -47 11 -88 32 -119l293 403c-17 4 -35 7 -54 7zM723 902l-175 -120h-148l138 120h185z" />
    <glyph glyph-name="Ldot" unicode="&#x13f;" horiz-adv-x="546" 
d="M306 735l-106 -601h313l-23 -134h-466l129 735h153zM464 450c52 0 83 -38 75 -89c-10 -52 -54 -89 -106 -89c-51 0 -82 37 -73 89c8 51 53 89 104 89z" />
    <glyph glyph-name="Tbar" unicode="&#x166;" horiz-adv-x="662" 
d="M722 735l-23 -134h-239l-37 -206h141l-18 -98h-140l-52 -297h-152l52 297h-139l17 98h139l37 206h-238l23 134h629z" />
    <glyph glyph-name="Lslash" unicode="&#x141;" horiz-adv-x="577" 
d="M336 735l-56 -313l99 37l21 -107l-141 -53l-29 -165h313l-23 -134h-466l42 238l-69 -25l-19 107l109 41l66 374h153z" />
    <glyph glyph-name="Hbar" unicode="&#x126;" horiz-adv-x="776" 
d="M769 735l-19 -109h75l-17 -98h-76l-92 -528h-152l52 299h-298l-52 -299h-153l92 528h-74l17 98h75l19 109h153l-20 -109h298l20 109h152zM265 431h298l17 97h-298z" />
    <glyph glyph-name="hbar" unicode="&#x127;" horiz-adv-x="606" 
d="M309 760l-15 -84h111l-17 -98h-112l-20 -117c30 29 75 56 139 56c128 0 180 -101 156 -234l-51 -283h-147l50 284c10 56 -10 95 -59 95c-53 0 -88 -30 -113 -62l-56 -317h-147l102 578h-80l16 98h81l15 84h147z" />
    <glyph glyph-name="tbar" unicode="&#x167;" horiz-adv-x="424" 
d="M317 675l-29 -168h145l-18 -98h-145l-14 -78h146l-17 -98h-146l-6 -39c-9 -50 19 -72 62 -72c28 0 49 6 68 16l6 -122c-27 -16 -63 -26 -116 -26c-110 0 -190 80 -167 208l6 35h-90l17 98h90l14 78h-91l18 98h91l29 168h147z" />
    <glyph glyph-name="tcommaaccent" unicode="&#x163;" horiz-adv-x="424" 
d="M314 675l-30 -168h145l-23 -124h-145l-32 -189c-8 -47 14 -72 56 -72c29 0 51 6 68 15l17 -120c-25 -15 -70 -27 -120 -27c-111 0 -190 80 -167 208l31 185h-91l23 124h91l29 168h148zM169 -49c47 0 77 -31 76 -74c0 -29 -12 -56 -30 -72l-127 -138h-4l49 278
c12 4 23 6 36 6z" />
    <glyph glyph-name="tcaron" unicode="&#x165;" horiz-adv-x="614" 
d="M314 675l-30 -168h145l-23 -124h-145l-32 -189c-8 -47 14 -72 56 -72c29 0 51 6 68 15l17 -120c-25 -15 -70 -27 -120 -27c-111 0 -190 80 -167 208l31 185h-91l23 124h91l29 168h148zM572 759c47 0 77 -31 77 -76c-1 -30 -16 -53 -30 -71l-136 -176h-4l57 317
c12 4 23 6 36 6z" />
    <glyph glyph-name="oslash" unicode="&#xf8;" horiz-adv-x="588" 
d="M339 517c31 0 59 -5 85 -14l53 74h98l-82 -114c46 -41 72 -102 72 -172c0 -168 -144 -301 -317 -301c-31 0 -60 5 -85 14l-53 -74h-98l82 114c-46 41 -72 102 -72 172c0 168 144 301 317 301zM425 284c0 24 -6 45 -16 62l-168 -233c9 -2 17 -3 27 -3c82 0 157 80 157 174
zM318 396c-82 0 -156 -79 -156 -173c0 -24 5 -46 15 -63l167 233c-8 2 -17 3 -26 3z" />
    <glyph glyph-name="oslashacute" unicode="&#x1ff;" horiz-adv-x="588" 
d="M339 517c31 0 59 -5 85 -14l53 74h98l-82 -114c46 -41 72 -102 72 -172c0 -168 -144 -301 -317 -301c-31 0 -60 5 -85 14l-53 -74h-98l82 114c-46 41 -72 102 -72 172c0 168 144 301 317 301zM585 718l-196 -145h-130l151 145h175zM425 284c0 24 -6 45 -16 62l-168 -233
c9 -2 17 -3 27 -3c82 0 157 80 157 174zM318 396c-82 0 -156 -79 -156 -173c0 -24 5 -46 15 -63l167 233c-8 2 -17 3 -26 3z" />
    <glyph glyph-name="aringacute" unicode="&#x1fb;" horiz-adv-x="608" 
d="M299 517c74 0 119 -33 137 -67l17 57h132l-89 -507h-132l4 54c-33 -36 -85 -64 -159 -64c-120 0 -186 95 -186 218c0 158 103 309 276 309zM606 886l-152 -104c23 -19 36 -48 36 -81c0 -81 -68 -136 -141 -136c-65 0 -107 47 -107 105c0 47 22 84 55 108l124 108h185z
M311 389c-83 0 -139 -80 -139 -165c0 -66 34 -106 87 -106c59 0 95 33 122 65l28 153c-17 29 -45 53 -98 53zM371 729c-24 0 -49 -20 -49 -50c0 -22 14 -37 37 -37c24 0 49 20 49 50c0 23 -14 37 -37 37z" />
    <glyph glyph-name="ldot" unicode="&#x140;" horiz-adv-x="504" 
d="M301 760l-135 -760h-147l134 760h148zM404 346c52 0 83 -38 75 -89c-10 -52 -54 -89 -106 -89c-51 0 -82 37 -73 89c8 51 53 89 104 89z" />
    <glyph glyph-name="dcaron" unicode="&#x10f;" horiz-adv-x="796" 
d="M630 760l-134 -760h-132l4 54c-33 -36 -85 -64 -159 -64c-120 0 -186 95 -186 218c0 158 103 309 276 309c66 0 110 -27 131 -57l53 300h147zM311 389c-83 0 -139 -80 -139 -165c0 -66 34 -106 87 -106c59 0 95 33 122 65l28 153c-17 29 -45 53 -98 53zM742 759
c47 0 77 -31 77 -76c-1 -30 -16 -53 -30 -71l-136 -176h-4l57 317c12 4 23 6 36 6z" />
    <glyph glyph-name="dcroat" unicode="&#x111;" horiz-adv-x="617" 
d="M630 760l-15 -84h74l-17 -98h-74l-102 -578h-132l4 54c-33 -36 -85 -64 -159 -64c-120 0 -186 95 -186 218c0 158 103 309 276 309c66 0 110 -27 131 -57l21 118h-118l17 98h118l15 84h147zM311 389c-83 0 -139 -80 -139 -165c0 -66 34 -106 87 -106c59 0 95 33 122 65
l28 153c-17 29 -45 53 -98 53z" />
    <glyph glyph-name="hcircumflex" unicode="&#x125;" horiz-adv-x="596" 
d="M300 760l-53 -299c30 29 75 56 139 56c128 0 180 -101 156 -234l-51 -283h-147l50 284c10 56 -10 95 -59 95c-53 0 -88 -30 -113 -62l-56 -317h-147l134 760h147zM260 942l147 -154h-109l-51 49l-67 -49h-122z" />
    <glyph glyph-name="lcaron" unicode="&#x13e;" horiz-adv-x="470" 
d="M301 760l-135 -760h-147l134 760h148zM424 759c47 0 77 -31 77 -76c-1 -30 -16 -53 -30 -71l-136 -176h-4l57 317c12 4 23 6 36 6z" />
    <glyph glyph-name="eth" unicode="&#xf0;" 
d="M588 657l-19 -107h-121l77 -165c19 -32 29 -70 29 -111c0 -158 -140 -284 -310 -284c-135 0 -221 91 -221 213c0 154 133 277 297 284l-30 63h-186l19 107h116l-49 103h159l48 -103h191zM312 367c-78 0 -141 -73 -141 -155c0 -59 36 -101 94 -101c77 0 141 72 141 155
c0 59 -36 101 -94 101z" />
    <glyph glyph-name="lslash" unicode="&#x142;" horiz-adv-x="312" 
d="M298 760l-59 -334l77 31l19 -91l-115 -46l-57 -320h-147l45 256l-64 -25l-20 91l103 41l70 397h148z" />
    <glyph glyph-name="Lcaron" unicode="&#x13d;" horiz-adv-x="546" 
d="M306 735l-106 -601h313l-23 -134h-466l129 735h153zM505 759c47 0 77 -31 77 -76c-1 -30 -16 -53 -30 -71l-136 -176h-4l57 317c12 4 23 6 36 6z" />
    <glyph glyph-name="G.smcp_I.smcp" horiz-adv-x="689" 
d="M400 785c162 0 262 -115 262 -269c0 -199 -162 -372 -374 -372c-161 0 -262 115 -262 269c0 199 163 372 374 372zM388 711c-153 0 -282 -137 -282 -289c0 -127 73 -204 195 -204c153 0 281 136 281 289c0 127 -72 204 -194 204z" />
    <glyph glyph-name="zero.slash" horiz-adv-x="595" 
d="M374 748c141 0 216 -109 216 -274c0 -277 -139 -487 -334 -487c-141 0 -216 108 -216 274c0 277 139 487 334 487zM359 626c-115 0 -171 -209 -172 -365l236 325c-14 25 -35 40 -64 40zM271 109c113 0 170 205 172 361l-235 -323c14 -24 34 -38 63 -38z" />
    <glyph glyph-name="Eogonek" unicode="&#x118;" 
d="M628 735l-24 -139h-322l-29 -159h280l-23 -129h-280l-29 -169h330l-24 -139h-40c-30 -11 -53 -32 -53 -66c0 -29 18 -44 45 -44c17 0 30 5 39 11l17 -80c-13 -7 -34 -14 -65 -14c-77 0 -130 42 -130 119c0 28 8 53 23 74h-319l129 735h475z" />
    <glyph glyph-name="Iogonek" unicode="&#x12e;" horiz-adv-x="299" 
d="M306 735l-129 -735h-47c-30 -11 -53 -32 -53 -66c0 -29 18 -44 45 -44c17 0 30 5 39 11l17 -80c-13 -7 -34 -14 -65 -14c-77 0 -130 42 -130 119c0 41 17 74 45 99l125 710h153z" />
    <glyph glyph-name="eogonek" unicode="&#x119;" horiz-adv-x="548" 
d="M316 517c158 0 227 -116 201 -258l-8 -46h-340c-3 -60 30 -103 96 -103c49 0 89 22 119 52l92 -85c-33 -31 -68 -54 -106 -68c-20 -11 -33 -30 -33 -56c0 -29 18 -44 45 -44c17 0 30 5 39 11l17 -80c-13 -7 -34 -14 -65 -14c-77 0 -130 42 -130 119c0 16 2 31 7 45h-3
c-143 0 -224 92 -223 218c0 159 119 309 292 309zM307 406c-65 0 -109 -46 -121 -101h195c10 58 -10 101 -74 101z" />
    <glyph glyph-name="dotlessi" unicode="&#x131;" horiz-adv-x="282" 
d="M255 507l-89 -507h-147l89 507h147z" />
    <glyph glyph-name="jcircumflex" unicode="&#x135;" horiz-adv-x="282" 
d="M255 507l-98 -554c-21 -111 -110 -193 -234 -193c-82 0 -136 28 -174 79l103 89c15 -20 40 -40 75 -40c43 0 76 28 84 74l97 545h147zM227 766l133 -192h-106l-44 57l-64 -57h-119z" />
    <glyph glyph-name="kcommaaccent" unicode="&#x137;" horiz-adv-x="578" 
d="M301 760l-91 -509l213 256h177l-195 -216l120 -291h-155l-72 174l-153 -174h-126l134 760h148zM223 -45c47 0 77 -31 76 -74c0 -29 -12 -56 -30 -72l-127 -138h-4l49 278c12 4 23 6 36 6z" />
    <glyph glyph-name="lcommaaccent" unicode="&#x13c;" horiz-adv-x="282" 
d="M301 760l-135 -760h-147l134 760h148zM57 -45c47 0 77 -31 76 -74c0 -29 -12 -56 -30 -72l-127 -138h-4l49 278c12 4 23 6 36 6z" />
    <glyph glyph-name="uogonek" unicode="&#x173;" 
d="M569 507l-89 -507h-21c-30 -11 -53 -32 -53 -66c0 -29 18 -44 45 -44c17 0 30 5 39 11l17 -80c-13 -7 -34 -14 -65 -14c-77 0 -130 42 -130 119c0 36 14 67 37 91l2 38c-25 -28 -74 -65 -147 -65c-127 0 -177 101 -153 233l50 284h147l-50 -285c-10 -56 9 -94 57 -94
c53 0 87 30 111 62l56 317h147z" />
    <glyph glyph-name="aogonek" unicode="&#x105;" horiz-adv-x="608" 
d="M299 517c74 0 119 -33 137 -67l17 57h132l-83 -470l18 -37c-30 -11 -53 -32 -53 -66c0 -29 18 -44 45 -44c17 0 30 5 39 11l17 -80c-13 -7 -34 -14 -65 -14c-77 0 -130 42 -130 119c0 28 8 53 23 74h-32l4 54c-33 -36 -85 -64 -159 -64c-120 0 -186 95 -186 218
c0 158 103 309 276 309zM311 389c-83 0 -139 -80 -139 -165c0 -66 34 -106 87 -106c59 0 95 33 122 65l28 153c-17 29 -45 53 -98 53z" />
    <glyph glyph-name="Aogonek" unicode="&#x104;" horiz-adv-x="724" 
d="M654 67l31 -67c-30 -11 -53 -32 -53 -66c0 -29 18 -44 45 -44c17 0 30 5 39 11l17 -80c-13 -7 -34 -14 -65 -14c-77 0 -130 42 -130 119c0 28 8 53 23 74h-63l-29 114h-278l-69 -114h-175l485 748h4l204 -687zM390 450l-129 -217h180z" />
    <glyph glyph-name="Ccedilla" unicode="&#xc7;" horiz-adv-x="682" 
d="M474 748c123 0 196 -42 257 -115l-106 -102c-31 46 -85 78 -159 78c-160 0 -272 -116 -272 -295c-1 -120 76 -188 181 -188c74 0 137 27 191 79l82 -121c-82 -70 -175 -97 -282 -97h-9l-13 -35c45 -7 80 -38 80 -90c0 -73 -57 -118 -129 -118c-46 0 -82 19 -101 45l52 51
c10 -14 26 -24 50 -24c27 0 44 16 44 40c0 22 -12 32 -39 34c-19 0 -36 -3 -49 -7l-3 4l39 107c-153 29 -248 144 -248 312c0 240 193 442 434 442z" />
    <glyph glyph-name="Gcommaaccent" unicode="&#x122;" horiz-adv-x="749" 
d="M475 748c123 0 195 -42 256 -115l-106 -102c-31 46 -86 78 -160 78c-157 0 -261 -109 -269 -280c-9 -124 67 -203 182 -203c53 0 99 12 139 35l22 121h-159l23 131h311l-57 -325c-83 -66 -174 -101 -289 -101c-209 0 -335 135 -327 335c9 232 197 426 434 426zM316 -52
c47 0 77 -31 76 -74c0 -29 -12 -56 -30 -72l-127 -138h-4l49 278c12 4 23 6 36 6z" />
    <glyph glyph-name="Kcommaaccent" unicode="&#x136;" horiz-adv-x="706" 
d="M727 735l-276 -353l199 -382h-182l-126 245l-194 -245h-124l129 735h153l-77 -423l317 423h181zM278 -45c47 0 77 -31 76 -74c0 -29 -12 -56 -30 -72l-127 -138h-4l49 278c12 4 23 6 36 6z" />
    <glyph glyph-name="Lcommaaccent" unicode="&#x13b;" horiz-adv-x="546" 
d="M306 735l-106 -601h313l-23 -134h-466l129 735h153zM232 -45c47 0 77 -31 76 -74c0 -29 -12 -56 -30 -72l-127 -138h-4l49 278c12 4 23 6 36 6z" />
    <glyph glyph-name="Ncommaaccent" unicode="&#x145;" horiz-adv-x="737" 
d="M744 735l-132 -748h-4l-357 434l-74 -421h-153l132 748h4l359 -435l72 422h153zM309 -45c47 0 77 -31 76 -74c0 -29 -12 -56 -30 -72l-127 -138h-4l49 278c12 4 23 6 36 6z" />
    <glyph glyph-name="Rcommaaccent" unicode="&#x156;" horiz-adv-x="664" 
d="M426 735c134 0 238 -81 238 -207c0 -118 -73 -205 -174 -245l119 -283h-163l-108 259h-116l-45 -259h-153l129 735h273zM405 603h-122l-38 -212h122c73 0 142 43 142 127c-1 55 -40 85 -104 85zM277 -45c47 0 77 -31 76 -74c0 -29 -12 -56 -30 -72l-127 -138h-4l49 278
c12 4 23 6 36 6z" />
    <glyph glyph-name="Scedilla" unicode="&#x15e;" horiz-adv-x="602" 
d="M359 748c114 0 198 -37 251 -84l-95 -114c-38 36 -92 59 -163 59c-69 0 -127 -30 -127 -88c0 -40 31 -60 125 -80c158 -32 214 -99 214 -198c0 -168 -138 -249 -290 -255l-13 -36c45 -7 80 -38 80 -90c0 -73 -57 -118 -129 -118c-46 0 -82 19 -101 45l52 51
c10 -14 26 -24 50 -24c27 0 44 16 44 40c0 22 -12 32 -39 34c-19 0 -36 -3 -49 -7l-3 4l37 102c-99 10 -171 48 -223 102l95 116c41 -52 118 -81 190 -81c85 0 143 35 143 91c0 41 -32 64 -124 83c-164 35 -212 106 -212 197c0 144 120 251 287 251z" />
    <glyph glyph-name="Scommaaccent" unicode="&#x218;" horiz-adv-x="602" 
d="M359 748c114 0 198 -37 251 -84l-95 -114c-38 36 -92 59 -163 59c-69 0 -127 -30 -127 -88c0 -40 31 -60 125 -80c158 -32 214 -99 214 -198c0 -175 -150 -256 -310 -256c-125 0 -213 41 -274 104l95 116c41 -52 118 -81 190 -81c85 0 143 35 143 91c0 41 -32 64 -124 83
c-164 35 -212 106 -212 197c0 144 120 251 287 251zM214 -52c47 0 77 -31 76 -74c0 -29 -12 -56 -30 -72l-127 -138h-4l49 278c12 4 23 6 36 6z" />
    <glyph glyph-name="Tcommaaccent" unicode="&#x162;" horiz-adv-x="662" 
d="M722 735l-23 -134h-239l-106 -601h-152l106 601h-238l23 134h629zM241 -45c47 0 77 -31 76 -74c0 -29 -12 -56 -30 -72l-127 -138h-4l49 278c12 4 23 6 36 6z" />
    <glyph glyph-name="Uogonek" unicode="&#x172;" horiz-adv-x="694" 
d="M711 735l-83 -471c-22 -125 -82 -213 -182 -253c-18 -12 -30 -30 -30 -55c0 -29 18 -44 45 -44c17 0 30 5 39 11l17 -80c-13 -7 -34 -14 -65 -14c-77 0 -130 42 -130 119c0 14 2 27 6 40c-7 -1 -13 -1 -19 -1c-171 0 -277 105 -244 290l80 458h152l-81 -461
c-15 -89 17 -148 105 -148c86 0 141 60 156 148l82 461h152z" />
    <glyph glyph-name="ccedilla" unicode="&#xe7;" horiz-adv-x="510" 
d="M327 517c100 0 160 -51 191 -120l-111 -72c-18 40 -48 65 -93 65c-86 0 -142 -81 -142 -169c0 -61 30 -104 95 -104c50 0 87 28 115 67l95 -81c-53 -68 -123 -108 -213 -112l-13 -37c45 -7 80 -38 80 -90c0 -73 -57 -118 -129 -118c-46 0 -82 19 -101 45l52 51
c10 -14 26 -24 50 -24c27 0 44 16 44 40c0 22 -12 32 -39 34c-19 0 -36 -3 -49 -7l-3 4l39 107c-110 21 -171 107 -171 214c0 172 134 307 303 307z" />
    <glyph glyph-name="iogonek" unicode="&#x12f;" horiz-adv-x="282" 
d="M255 507l-89 -507h-45c-30 -11 -53 -32 -53 -66c0 -29 18 -44 45 -44c17 0 30 5 39 11l17 -80c-13 -7 -34 -14 -65 -14c-77 0 -130 42 -130 119c0 43 20 77 50 103l84 478h147zM223 753c47 0 74 -29 74 -73c0 -55 -48 -99 -100 -99c-47 0 -75 28 -75 72
c0 55 46 100 101 100z" />
    <glyph glyph-name="ncommaaccent" unicode="&#x146;" horiz-adv-x="596" 
d="M386 517c128 0 179 -101 156 -234l-50 -283h-147l49 284c10 56 -10 95 -59 95c-53 0 -88 -30 -113 -62l-56 -317h-147l89 507h132l-3 -56c25 28 76 66 149 66zM222 -45c47 0 77 -31 76 -74c0 -29 -12 -56 -30 -72l-127 -138h-4l49 278c12 4 23 6 36 6z" />
    <glyph glyph-name="rcommaaccent" unicode="&#x157;" horiz-adv-x="368" 
d="M395 517l-25 -146h-13c-59 0 -102 -28 -137 -65l-54 -306h-147l89 507h131l-2 -64c32 40 87 74 158 74zM52 -45c47 0 77 -31 76 -74c0 -29 -12 -56 -30 -72l-127 -138h-4l49 278c12 4 23 6 36 6z" />
    <glyph glyph-name="scedilla" unicode="&#x15f;" horiz-adv-x="471" 
d="M288 517c73 0 136 -23 169 -55l-69 -102c-24 24 -62 41 -113 41c-43 0 -72 -15 -72 -46c0 -23 18 -34 78 -49c101 -26 137 -65 137 -134c0 -103 -93 -171 -213 -181l-13 -37c45 -7 80 -38 80 -90c0 -73 -57 -118 -129 -118c-46 0 -82 19 -101 45l52 51
c10 -14 26 -24 50 -24c27 0 44 16 44 40c0 22 -12 32 -39 34c-19 0 -36 -3 -49 -7l-3 4l38 103c-63 7 -114 30 -144 62l70 100c29 -29 71 -49 129 -49c34 0 80 13 80 53c0 21 -19 35 -75 49c-97 25 -142 59 -142 129c0 106 99 181 235 181z" />
    <glyph glyph-name="scommaaccent" unicode="&#x219;" horiz-adv-x="471" 
d="M288 517c73 0 136 -23 169 -55l-69 -102c-24 24 -62 41 -113 41c-43 0 -72 -15 -72 -46c0 -23 18 -34 78 -49c101 -26 137 -65 137 -134c0 -111 -109 -182 -243 -182c-82 0 -147 26 -184 64l70 100c29 -29 71 -49 129 -49c34 0 80 13 80 53c0 21 -19 35 -75 49
c-97 25 -142 59 -142 129c0 106 99 181 235 181zM152 -52c47 0 77 -31 76 -74c0 -29 -12 -56 -30 -72l-127 -138h-4l49 278c12 4 23 6 36 6z" />
    <glyph glyph-name="lacute" unicode="&#x13a;" horiz-adv-x="282" 
d="M301 760l-135 -760h-147l134 760h148zM488 917l-175 -120h-148l138 120h185z" />
    <glyph glyph-name="gcommaaccent" unicode="&#x123;" horiz-adv-x="609" 
d="M299 517c71 0 116 -31 135 -64l19 54h132l-88 -498c-28 -158 -144 -249 -303 -249c-124 0 -189 47 -238 115l104 89c29 -43 70 -76 139 -76c83 0 139 53 153 129l7 44c-26 -27 -74 -56 -148 -56c-120 0 -187 89 -187 213c0 148 104 299 275 299zM310 389
c-79 0 -137 -75 -137 -157c0 -63 35 -99 88 -99c58 0 95 33 122 66l25 136c-17 30 -45 54 -98 54zM452 887l-56 -317c-13 -4 -24 -7 -37 -7c-47 0 -77 32 -77 76c1 30 16 53 30 71l136 177h4z" />
    <glyph glyph-name="aacute" unicode="&#xe1;" horiz-adv-x="608" 
d="M299 517c74 0 119 -33 137 -67l17 57h132l-89 -507h-132l4 54c-33 -36 -85 -64 -159 -64c-120 0 -186 95 -186 218c0 158 103 309 276 309zM311 389c-83 0 -139 -80 -139 -165c0 -66 34 -106 87 -106c59 0 95 33 122 65l28 153c-17 29 -45 53 -98 53zM603 718l-196 -145
h-130l151 145h175z" />
    <glyph glyph-name="abreve" unicode="&#x103;" horiz-adv-x="608" 
d="M299 517c74 0 119 -33 137 -67l17 57h132l-89 -507h-132l4 54c-33 -36 -85 -64 -159 -64c-120 0 -186 95 -186 218c0 158 103 309 276 309zM311 389c-83 0 -139 -80 -139 -165c0 -66 34 -106 87 -106c59 0 95 33 122 65l28 153c-17 29 -45 53 -98 53zM544 737
c-12 -101 -85 -168 -181 -168c-103 0 -166 75 -150 168h100c-7 -42 15 -73 54 -73c40 0 70 31 77 73h100z" />
    <glyph glyph-name="acircumflex" unicode="&#xe2;" horiz-adv-x="608" 
d="M299 517c74 0 119 -33 137 -67l17 57h132l-89 -507h-132l4 54c-33 -36 -85 -64 -159 -64c-120 0 -186 95 -186 218c0 158 103 309 276 309zM311 389c-83 0 -139 -80 -139 -165c0 -66 34 -106 87 -106c59 0 95 33 122 65l28 153c-17 29 -45 53 -98 53zM382 766l133 -192
h-106l-44 57l-64 -57h-119z" />
    <glyph glyph-name="adieresis" unicode="&#xe4;" horiz-adv-x="608" 
d="M299 517c74 0 119 -33 137 -67l17 57h132l-89 -507h-132l4 54c-33 -36 -85 -64 -159 -64c-120 0 -186 95 -186 218c0 158 103 309 276 309zM311 389c-83 0 -139 -80 -139 -165c0 -66 34 -106 87 -106c59 0 95 33 122 65l28 153c-17 29 -45 53 -98 53zM279 719
c37 0 59 -23 59 -59c0 -45 -39 -81 -81 -81c-38 0 -60 23 -60 59c0 45 37 81 82 81zM471 719c37 0 60 -23 60 -59c0 -45 -40 -81 -82 -81c-38 0 -60 23 -60 59c0 45 37 81 82 81z" />
    <glyph glyph-name="aeacute" unicode="&#x1fd;" horiz-adv-x="947" 
d="M703 406c-67 0 -120 -44 -135 -101h213c8 57 -14 101 -78 101zM731 517c149 0 210 -121 186 -258l-8 -45h-358c-2 -61 35 -104 111 -104c49 0 91 22 121 52l92 -85c-63 -61 -138 -87 -223 -87c-75 0 -123 28 -150 68l-15 -58h-123l4 54c-33 -36 -85 -64 -159 -64
c-120 0 -186 95 -186 218c0 158 103 309 276 309c74 0 119 -33 137 -67l17 57h124l-3 -55c32 34 83 65 157 65zM311 389c-83 0 -139 -80 -139 -165c0 -66 34 -106 87 -106c59 0 95 33 122 65l28 153c-17 29 -45 53 -98 53zM784 718l-196 -145h-130l151 145h175z" />
    <glyph glyph-name="agrave" unicode="&#xe0;" horiz-adv-x="608" 
d="M299 517c74 0 119 -33 137 -67l17 57h132l-89 -507h-132l4 54c-33 -36 -85 -64 -159 -64c-120 0 -186 95 -186 218c0 158 103 309 276 309zM311 389c-83 0 -139 -80 -139 -165c0 -66 34 -106 87 -106c59 0 95 33 122 65l28 153c-17 29 -45 53 -98 53zM306 718l118 -145
h-122l-153 145h157z" />
    <glyph glyph-name="amacron" unicode="&#x101;" horiz-adv-x="608" 
d="M299 517c74 0 119 -33 137 -67l17 57h132l-89 -507h-132l4 54c-33 -36 -85 -64 -159 -64c-120 0 -186 95 -186 218c0 158 103 309 276 309zM311 389c-83 0 -139 -80 -139 -165c0 -66 34 -106 87 -106c59 0 95 33 122 65l28 153c-17 29 -45 53 -98 53zM502 690l-17 -98
h-274l17 98h274z" />
    <glyph glyph-name="aring" unicode="&#xe5;" horiz-adv-x="608" 
d="M299 517c74 0 119 -33 137 -67l17 57h132l-89 -507h-132l4 54c-33 -36 -85 -64 -159 -64c-120 0 -186 95 -186 218c0 158 103 309 276 309zM311 389c-83 0 -139 -80 -139 -165c0 -66 34 -106 87 -106c59 0 95 33 122 65l28 153c-17 29 -45 53 -98 53zM387 809
c65 0 107 -46 107 -105c0 -81 -68 -136 -141 -136c-65 0 -107 47 -107 105c0 82 68 136 141 136zM375 732c-24 0 -49 -20 -49 -50c0 -22 14 -37 37 -37c24 0 49 20 49 50c0 23 -14 37 -37 37z" />
    <glyph glyph-name="atilde" unicode="&#xe3;" horiz-adv-x="608" 
d="M299 517c74 0 119 -33 137 -67l17 57h132l-89 -507h-132l4 54c-33 -36 -85 -64 -159 -64c-120 0 -186 95 -186 218c0 158 103 309 276 309zM311 389c-83 0 -139 -80 -139 -165c0 -66 34 -106 87 -106c59 0 95 33 122 65l28 153c-17 29 -45 53 -98 53zM318 734
c70 0 81 -70 116 -70c24 0 37 24 44 64h79c-15 -106 -80 -157 -143 -157c-75 0 -72 69 -114 69c-28 0 -40 -23 -46 -63h-80c14 106 81 157 144 157z" />
    <glyph glyph-name="cacute" unicode="&#x107;" horiz-adv-x="510" 
d="M327 517c100 0 160 -51 191 -120l-111 -72c-18 40 -48 65 -93 65c-86 0 -142 -81 -142 -169c0 -61 30 -104 95 -104c50 0 87 28 115 67l95 -81c-56 -71 -130 -113 -227 -113c-144 0 -226 96 -226 220c0 172 134 307 303 307zM602 718l-196 -145h-130l151 145h175z" />
    <glyph glyph-name="ccaron" unicode="&#x10d;" horiz-adv-x="510" 
d="M327 517c100 0 160 -51 191 -120l-111 -72c-18 40 -48 65 -93 65c-86 0 -142 -81 -142 -169c0 -61 30 -104 95 -104c50 0 87 28 115 67l95 -81c-56 -71 -130 -113 -227 -113c-144 0 -226 96 -226 220c0 172 134 307 303 307zM551 756l-200 -192l-133 192h105l44 -57
l65 57h119z" />
    <glyph glyph-name="ccircumflex" unicode="&#x109;" horiz-adv-x="510" 
d="M327 517c100 0 160 -51 191 -120l-111 -72c-18 40 -48 65 -93 65c-86 0 -142 -81 -142 -169c0 -61 30 -104 95 -104c50 0 87 28 115 67l95 -81c-56 -71 -130 -113 -227 -113c-144 0 -226 96 -226 220c0 172 134 307 303 307zM381 766l133 -192h-106l-44 57l-64 -57h-119z
" />
    <glyph glyph-name="cdotaccent" unicode="&#x10b;" horiz-adv-x="510" 
d="M327 517c100 0 160 -51 191 -120l-111 -72c-18 40 -48 65 -93 65c-86 0 -142 -81 -142 -169c0 -61 30 -104 95 -104c50 0 87 28 115 67l95 -81c-56 -71 -130 -113 -227 -113c-144 0 -226 96 -226 220c0 172 134 307 303 307zM377 750c47 0 75 -28 75 -72
c0 -55 -49 -100 -100 -100c-47 0 -75 28 -75 72c0 55 47 100 100 100z" />
    <glyph glyph-name="eacute" unicode="&#xe9;" horiz-adv-x="548" 
d="M316 517c158 0 227 -116 201 -258l-8 -46h-340c-3 -60 30 -103 96 -103c49 0 89 22 119 52l92 -85c-64 -61 -136 -87 -229 -87c-143 0 -224 92 -223 218c0 159 119 309 292 309zM307 406c-65 0 -109 -46 -121 -101h195c10 58 -10 101 -74 101zM594 718l-196 -145h-130
l151 145h175z" />
    <glyph glyph-name="ebreve" unicode="&#x115;" horiz-adv-x="548" 
d="M316 517c158 0 227 -116 201 -258l-8 -46h-340c-3 -60 30 -103 96 -103c49 0 89 22 119 52l92 -85c-64 -61 -136 -87 -229 -87c-143 0 -224 92 -223 218c0 159 119 309 292 309zM307 406c-65 0 -109 -46 -121 -101h195c10 58 -10 101 -74 101zM535 737
c-12 -101 -85 -168 -181 -168c-103 0 -166 75 -150 168h100c-7 -42 15 -73 54 -73c40 0 70 31 77 73h100z" />
    <glyph glyph-name="ecaron" unicode="&#x11b;" horiz-adv-x="548" 
d="M316 517c158 0 227 -116 201 -258l-8 -46h-340c-3 -60 30 -103 96 -103c49 0 89 22 119 52l92 -85c-64 -61 -136 -87 -229 -87c-143 0 -224 92 -223 218c0 159 119 309 292 309zM307 406c-65 0 -109 -46 -121 -101h195c10 58 -10 101 -74 101zM543 756l-200 -192
l-133 192h105l44 -57l65 57h119z" />
    <glyph glyph-name="ecircumflex" unicode="&#xea;" horiz-adv-x="548" 
d="M316 517c158 0 227 -116 201 -258l-8 -46h-340c-3 -60 30 -103 96 -103c49 0 89 22 119 52l92 -85c-64 -61 -136 -87 -229 -87c-143 0 -224 92 -223 218c0 159 119 309 292 309zM307 406c-65 0 -109 -46 -121 -101h195c10 58 -10 101 -74 101zM373 766l133 -192h-106
l-44 57l-64 -57h-119z" />
    <glyph glyph-name="edieresis" unicode="&#xeb;" horiz-adv-x="548" 
d="M316 517c158 0 227 -116 201 -258l-8 -46h-340c-3 -60 30 -103 96 -103c49 0 89 22 119 52l92 -85c-64 -61 -136 -87 -229 -87c-143 0 -224 92 -223 218c0 159 119 309 292 309zM307 406c-65 0 -109 -46 -121 -101h195c10 58 -10 101 -74 101zM270 719
c37 0 59 -23 59 -59c0 -45 -39 -81 -81 -81c-38 0 -60 23 -60 59c0 45 37 81 82 81zM462 719c37 0 60 -23 60 -59c0 -45 -40 -81 -82 -81c-38 0 -60 23 -60 59c0 45 37 81 82 81z" />
    <glyph glyph-name="edotaccent" unicode="&#x117;" horiz-adv-x="548" 
d="M316 517c158 0 227 -116 201 -258l-8 -46h-340c-3 -60 30 -103 96 -103c49 0 89 22 119 52l92 -85c-64 -61 -136 -87 -229 -87c-143 0 -224 92 -223 218c0 159 119 309 292 309zM307 406c-65 0 -109 -46 -121 -101h195c10 58 -10 101 -74 101zM369 750
c47 0 75 -28 75 -72c0 -55 -49 -100 -100 -100c-47 0 -75 28 -75 72c0 55 47 100 100 100z" />
    <glyph glyph-name="egrave" unicode="&#xe8;" horiz-adv-x="548" 
d="M316 517c158 0 227 -116 201 -258l-8 -46h-340c-3 -60 30 -103 96 -103c49 0 89 22 119 52l92 -85c-64 -61 -136 -87 -229 -87c-143 0 -224 92 -223 218c0 159 119 309 292 309zM307 406c-65 0 -109 -46 -121 -101h195c10 58 -10 101 -74 101zM298 718l118 -145h-122
l-153 145h157z" />
    <glyph glyph-name="emacron" unicode="&#x113;" horiz-adv-x="548" 
d="M316 517c158 0 227 -116 201 -258l-8 -46h-340c-3 -60 30 -103 96 -103c49 0 89 22 119 52l92 -85c-64 -61 -136 -87 -229 -87c-143 0 -224 92 -223 218c0 159 119 309 292 309zM307 406c-65 0 -109 -46 -121 -101h195c10 58 -10 101 -74 101zM493 690l-17 -98h-274
l17 98h274z" />
    <glyph glyph-name="gbreve" unicode="&#x11f;" horiz-adv-x="609" 
d="M299 517c71 0 116 -31 135 -64l19 54h132l-88 -498c-28 -158 -144 -249 -303 -249c-124 0 -189 47 -238 115l104 89c29 -43 70 -76 139 -76c83 0 139 53 153 129l7 44c-26 -27 -74 -56 -148 -56c-120 0 -187 89 -187 213c0 148 104 299 275 299zM310 389
c-79 0 -137 -75 -137 -157c0 -63 35 -99 88 -99c58 0 95 33 122 66l25 136c-17 30 -45 54 -98 54zM548 737c-12 -101 -85 -168 -181 -168c-103 0 -166 75 -150 168h100c-7 -42 15 -73 54 -73c40 0 70 31 77 73h100z" />
    <glyph glyph-name="gcircumflex" unicode="&#x11d;" horiz-adv-x="609" 
d="M299 517c71 0 116 -31 135 -64l19 54h132l-88 -498c-28 -158 -144 -249 -303 -249c-124 0 -189 47 -238 115l104 89c29 -43 70 -76 139 -76c83 0 139 53 153 129l7 44c-26 -27 -74 -56 -148 -56c-120 0 -187 89 -187 213c0 148 104 299 275 299zM310 389
c-79 0 -137 -75 -137 -157c0 -63 35 -99 88 -99c58 0 95 33 122 66l25 136c-17 30 -45 54 -98 54zM386 766l133 -192h-106l-44 57l-64 -57h-119z" />
    <glyph glyph-name="gdotaccent" unicode="&#x121;" horiz-adv-x="609" 
d="M299 517c71 0 116 -31 135 -64l19 54h132l-88 -498c-28 -158 -144 -249 -303 -249c-124 0 -189 47 -238 115l104 89c29 -43 70 -76 139 -76c83 0 139 53 153 129l7 44c-26 -27 -74 -56 -148 -56c-120 0 -187 89 -187 213c0 148 104 299 275 299zM310 389
c-79 0 -137 -75 -137 -157c0 -63 35 -99 88 -99c58 0 95 33 122 66l25 136c-17 30 -45 54 -98 54zM382 750c47 0 75 -28 75 -72c0 -55 -49 -100 -100 -100c-47 0 -75 28 -75 72c0 55 47 100 100 100z" />
    <glyph glyph-name="iacute" unicode="&#xed;" horiz-adv-x="282" 
d="M447 718l-196 -145h-130l151 145h175zM255 507l-89 -507h-147l89 507h147z" />
    <glyph glyph-name="ibreve" unicode="&#x12d;" horiz-adv-x="282" 
d="M390 737c-12 -101 -85 -168 -181 -168c-103 0 -166 75 -150 168h100c-7 -42 15 -73 54 -73c40 0 70 31 77 73h100zM255 507l-89 -507h-147l89 507h147z" />
    <glyph glyph-name="icircumflex" unicode="&#xee;" horiz-adv-x="282" 
d="M255 507l-89 -507h-147l89 507h147zM228 766l133 -192h-106l-44 57l-64 -57h-119z" />
    <glyph glyph-name="idieresis" unicode="&#xef;" horiz-adv-x="282" 
d="M124 719c37 0 59 -23 59 -59c0 -45 -39 -81 -81 -81c-38 0 -60 23 -60 59c0 45 37 81 82 81zM316 719c37 0 60 -23 60 -59c0 -45 -40 -81 -82 -81c-38 0 -60 23 -60 59c0 45 37 81 82 81zM255 507l-89 -507h-147l89 507h147z" />
    <glyph glyph-name="igrave" unicode="&#xec;" horiz-adv-x="282" 
d="M152 718l118 -145h-122l-153 145h157zM255 507l-89 -507h-147l89 507h147z" />
    <glyph glyph-name="imacron" unicode="&#x12b;" horiz-adv-x="282" 
d="M347 690l-17 -98h-274l17 98h274zM255 507l-89 -507h-147l89 507h147z" />
    <glyph glyph-name="itilde" unicode="&#x129;" horiz-adv-x="282" 
d="M163 734c70 0 81 -70 116 -70c24 0 37 24 44 64h79c-15 -106 -80 -157 -143 -157c-75 0 -72 69 -114 69c-28 0 -40 -23 -46 -63h-80c14 106 81 157 144 157zM255 507l-89 -507h-147l89 507h147z" />
    <glyph glyph-name="nacute" unicode="&#x144;" horiz-adv-x="596" 
d="M386 517c128 0 179 -101 156 -234l-50 -283h-147l49 284c10 56 -10 95 -59 95c-53 0 -88 -30 -113 -62l-56 -317h-147l89 507h132l-3 -56c25 28 76 66 149 66zM610 718l-196 -145h-130l151 145h175z" />
    <glyph glyph-name="ncaron" unicode="&#x148;" horiz-adv-x="596" 
d="M386 517c128 0 179 -101 156 -234l-50 -283h-147l49 284c10 56 -10 95 -59 95c-53 0 -88 -30 -113 -62l-56 -317h-147l89 507h132l-3 -56c25 28 76 66 149 66zM559 756l-200 -192l-133 192h105l44 -57l65 57h119z" />
    <glyph glyph-name="ntilde" unicode="&#xf1;" horiz-adv-x="596" 
d="M386 517c128 0 179 -101 156 -234l-50 -283h-147l49 284c10 56 -10 95 -59 95c-53 0 -88 -30 -113 -62l-56 -317h-147l89 507h132l-3 -56c25 28 76 66 149 66zM322 734c70 0 81 -70 116 -70c24 0 37 24 44 64h79c-15 -106 -80 -157 -143 -157c-75 0 -72 69 -114 69
c-28 0 -40 -23 -46 -63h-80c14 106 81 157 144 157z" />
    <glyph glyph-name="oacute" unicode="&#xf3;" horiz-adv-x="587" 
d="M317 389c-77 0 -145 -76 -145 -165c0 -63 39 -106 98 -106c77 0 145 76 145 164c0 63 -38 107 -98 107zM339 517c138 0 226 -97 226 -226c0 -168 -144 -301 -317 -301c-138 0 -226 97 -226 226c0 168 144 301 317 301zM612 718l-196 -145h-130l151 145h175z" />
    <glyph glyph-name="obreve" unicode="&#x14f;" horiz-adv-x="587" 
d="M317 389c-77 0 -145 -76 -145 -165c0 -63 39 -106 98 -106c77 0 145 76 145 164c0 63 -38 107 -98 107zM339 517c138 0 226 -97 226 -226c0 -168 -144 -301 -317 -301c-138 0 -226 97 -226 226c0 168 144 301 317 301zM553 737c-12 -101 -85 -168 -181 -168
c-103 0 -166 75 -150 168h100c-7 -42 15 -73 54 -73c40 0 70 31 77 73h100z" />
    <glyph glyph-name="ocircumflex" unicode="&#xf4;" horiz-adv-x="587" 
d="M317 389c-77 0 -145 -76 -145 -165c0 -63 39 -106 98 -106c77 0 145 76 145 164c0 63 -38 107 -98 107zM339 517c138 0 226 -97 226 -226c0 -168 -144 -301 -317 -301c-138 0 -226 97 -226 226c0 168 144 301 317 301zM391 766l133 -192h-106l-44 57l-64 -57h-119z" />
    <glyph glyph-name="odieresis" unicode="&#xf6;" horiz-adv-x="587" 
d="M317 389c-77 0 -145 -76 -145 -165c0 -63 39 -106 98 -106c77 0 145 76 145 164c0 63 -38 107 -98 107zM339 517c138 0 226 -97 226 -226c0 -168 -144 -301 -317 -301c-138 0 -226 97 -226 226c0 168 144 301 317 301zM288 719c37 0 59 -23 59 -59c0 -45 -39 -81 -81 -81
c-38 0 -60 23 -60 59c0 45 37 81 82 81zM480 719c37 0 60 -23 60 -59c0 -45 -40 -81 -82 -81c-38 0 -60 23 -60 59c0 45 37 81 82 81z" />
    <glyph glyph-name="ograve" unicode="&#xf2;" horiz-adv-x="587" 
d="M317 389c-77 0 -145 -76 -145 -165c0 -63 39 -106 98 -106c77 0 145 76 145 164c0 63 -38 107 -98 107zM339 517c138 0 226 -97 226 -226c0 -168 -144 -301 -317 -301c-138 0 -226 97 -226 226c0 168 144 301 317 301zM315 718l118 -145h-122l-153 145h157z" />
    <glyph glyph-name="ohungarumlaut" unicode="&#x151;" horiz-adv-x="587" 
d="M317 389c-77 0 -145 -76 -145 -165c0 -63 39 -106 98 -106c77 0 145 76 145 164c0 63 -38 107 -98 107zM339 517c138 0 226 -97 226 -226c0 -168 -144 -301 -317 -301c-138 0 -226 97 -226 226c0 168 144 301 317 301zM434 721l-125 -150h-107l105 150h127zM624 721
l-126 -150h-106l104 150h128z" />
    <glyph glyph-name="omacron" unicode="&#x14d;" horiz-adv-x="587" 
d="M317 389c-77 0 -145 -76 -145 -165c0 -63 39 -106 98 -106c77 0 145 76 145 164c0 63 -38 107 -98 107zM339 517c138 0 226 -97 226 -226c0 -168 -144 -301 -317 -301c-138 0 -226 97 -226 226c0 168 144 301 317 301zM511 690l-17 -98h-274l17 98h274z" />
    <glyph glyph-name="otilde" unicode="&#xf5;" horiz-adv-x="587" 
d="M317 389c-77 0 -145 -76 -145 -165c0 -63 39 -106 98 -106c77 0 145 76 145 164c0 63 -38 107 -98 107zM339 517c138 0 226 -97 226 -226c0 -168 -144 -301 -317 -301c-138 0 -226 97 -226 226c0 168 144 301 317 301zM327 734c70 0 81 -70 116 -70c24 0 37 24 44 64h79
c-15 -106 -80 -157 -143 -157c-75 0 -72 69 -114 69c-28 0 -40 -23 -46 -63h-80c14 106 81 157 144 157z" />
    <glyph glyph-name="racute" unicode="&#x155;" horiz-adv-x="368" 
d="M395 517l-25 -146h-13c-59 0 -102 -28 -137 -65l-54 -306h-147l89 507h131l-2 -64c32 40 87 74 158 74zM539 718l-196 -145h-130l151 145h175z" />
    <glyph glyph-name="rcaron" unicode="&#x159;" horiz-adv-x="368" 
d="M395 517l-25 -146h-13c-59 0 -102 -28 -137 -65l-54 -306h-147l89 507h131l-2 -64c32 40 87 74 158 74zM479 756l-200 -192l-133 192h105l44 -57l65 57h119z" />
    <glyph glyph-name="sacute" unicode="&#x15b;" horiz-adv-x="471" 
d="M288 517c73 0 136 -23 169 -55l-69 -102c-24 24 -62 41 -113 41c-43 0 -72 -15 -72 -46c0 -23 18 -34 78 -49c101 -26 137 -65 137 -134c0 -111 -109 -182 -243 -182c-82 0 -147 26 -184 64l70 100c29 -29 71 -49 129 -49c34 0 80 13 80 53c0 21 -19 35 -75 49
c-97 25 -142 59 -142 129c0 106 99 181 235 181zM548 718l-196 -145h-130l151 145h175z" />
    <glyph glyph-name="scaron" unicode="&#x161;" horiz-adv-x="471" 
d="M288 517c73 0 136 -23 169 -55l-69 -102c-24 24 -62 41 -113 41c-43 0 -72 -15 -72 -46c0 -23 18 -34 78 -49c101 -26 137 -65 137 -134c0 -111 -109 -182 -243 -182c-82 0 -147 26 -184 64l70 100c29 -29 71 -49 129 -49c34 0 80 13 80 53c0 21 -19 35 -75 49
c-97 25 -142 59 -142 129c0 106 99 181 235 181zM497 756l-200 -192l-133 192h105l44 -57l65 57h119z" />
    <glyph glyph-name="scircumflex" unicode="&#x15d;" horiz-adv-x="471" 
d="M288 517c73 0 136 -23 169 -55l-69 -102c-24 24 -62 41 -113 41c-43 0 -72 -15 -72 -46c0 -23 18 -34 78 -49c101 -26 137 -65 137 -134c0 -111 -109 -182 -243 -182c-82 0 -147 26 -184 64l70 100c29 -29 71 -49 129 -49c34 0 80 13 80 53c0 21 -19 35 -75 49
c-97 25 -142 59 -142 129c0 106 99 181 235 181zM328 766l133 -192h-106l-44 57l-64 -57h-119z" />
    <glyph glyph-name="uacute" unicode="&#xfa;" 
d="M569 507l-89 -507h-132l3 55c-25 -28 -74 -65 -147 -65c-127 0 -177 101 -153 233l50 284h147l-50 -285c-10 -56 9 -94 57 -94c53 0 87 30 111 62l56 317h147zM598 718l-196 -145h-130l151 145h175z" />
    <glyph glyph-name="ubreve" unicode="&#x16d;" 
d="M569 507l-89 -507h-132l3 55c-25 -28 -74 -65 -147 -65c-127 0 -177 101 -153 233l50 284h147l-50 -285c-10 -56 9 -94 57 -94c53 0 87 30 111 62l56 317h147zM539 737c-12 -101 -85 -168 -181 -168c-103 0 -166 75 -150 168h100c-7 -42 15 -73 54 -73c40 0 70 31 77 73
h100z" />
    <glyph glyph-name="ucircumflex" unicode="&#xfb;" 
d="M569 507l-89 -507h-132l3 55c-25 -28 -74 -65 -147 -65c-127 0 -177 101 -153 233l50 284h147l-50 -285c-10 -56 9 -94 57 -94c53 0 87 30 111 62l56 317h147zM377 766l133 -192h-106l-44 57l-64 -57h-119z" />
    <glyph glyph-name="udieresis" unicode="&#xfc;" 
d="M569 507l-89 -507h-132l3 55c-25 -28 -74 -65 -147 -65c-127 0 -177 101 -153 233l50 284h147l-50 -285c-10 -56 9 -94 57 -94c53 0 87 30 111 62l56 317h147zM273 719c37 0 59 -23 59 -59c0 -45 -39 -81 -81 -81c-38 0 -60 23 -60 59c0 45 37 81 82 81zM465 719
c37 0 60 -23 60 -59c0 -45 -40 -81 -82 -81c-38 0 -60 23 -60 59c0 45 37 81 82 81z" />
    <glyph glyph-name="ugrave" unicode="&#xf9;" 
d="M569 507l-89 -507h-132l3 55c-25 -28 -74 -65 -147 -65c-127 0 -177 101 -153 233l50 284h147l-50 -285c-10 -56 9 -94 57 -94c53 0 87 30 111 62l56 317h147zM301 718l118 -145h-122l-153 145h157z" />
    <glyph glyph-name="uhungarumlaut" unicode="&#x171;" 
d="M569 507l-89 -507h-132l3 55c-25 -28 -74 -65 -147 -65c-127 0 -177 101 -153 233l50 284h147l-50 -285c-10 -56 9 -94 57 -94c53 0 87 30 111 62l56 317h147zM420 721l-125 -150h-107l105 150h127zM610 721l-126 -150h-106l104 150h128z" />
    <glyph glyph-name="umacron" unicode="&#x16b;" 
d="M569 507l-89 -507h-132l3 55c-25 -28 -74 -65 -147 -65c-127 0 -177 101 -153 233l50 284h147l-50 -285c-10 -56 9 -94 57 -94c53 0 87 30 111 62l56 317h147zM496 690l-17 -98h-274l17 98h274z" />
    <glyph glyph-name="uring" unicode="&#x16f;" 
d="M569 507l-89 -507h-132l3 55c-25 -28 -74 -65 -147 -65c-127 0 -177 101 -153 233l50 284h147l-50 -285c-10 -56 9 -94 57 -94c53 0 87 30 111 62l56 317h147zM382 809c65 0 107 -46 107 -105c0 -81 -68 -136 -141 -136c-65 0 -107 47 -107 105c0 82 68 136 141 136z
M370 732c-24 0 -49 -20 -49 -50c0 -22 14 -37 37 -37c24 0 49 20 49 50c0 23 -14 37 -37 37z" />
    <glyph glyph-name="utilde" unicode="&#x169;" 
d="M569 507l-89 -507h-132l3 55c-25 -28 -74 -65 -147 -65c-127 0 -177 101 -153 233l50 284h147l-50 -285c-10 -56 9 -94 57 -94c53 0 87 30 111 62l56 317h147zM313 734c70 0 81 -70 116 -70c24 0 37 24 44 64h79c-15 -106 -80 -157 -143 -157c-75 0 -72 69 -114 69
c-28 0 -40 -23 -46 -63h-80c14 106 81 157 144 157z" />
    <glyph glyph-name="wacute" unicode="&#x1e83;" horiz-adv-x="774" 
d="M803 507l-334 -517h-4l-88 251l-178 -251h-4l-152 517h158l51 -239l162 239h4l77 -239l137 239h171zM680 718l-196 -145h-130l151 145h175z" />
    <glyph glyph-name="wcircumflex" unicode="&#x175;" horiz-adv-x="774" 
d="M803 507l-334 -517h-4l-88 251l-178 -251h-4l-152 517h158l51 -239l162 239h4l77 -239l137 239h171zM459 766l133 -192h-106l-44 57l-64 -57h-119z" />
    <glyph glyph-name="wdieresis" unicode="&#x1e85;" horiz-adv-x="774" 
d="M803 507l-334 -517h-4l-88 251l-178 -251h-4l-152 517h158l51 -239l162 239h4l77 -239l137 239h171zM356 719c37 0 59 -23 59 -59c0 -45 -39 -81 -81 -81c-38 0 -60 23 -60 59c0 45 37 81 82 81zM548 719c37 0 60 -23 60 -59c0 -45 -40 -81 -82 -81c-38 0 -60 23 -60 59
c0 45 37 81 82 81z" />
    <glyph glyph-name="wgrave" unicode="&#x1e81;" horiz-adv-x="774" 
d="M803 507l-334 -517h-4l-88 251l-178 -251h-4l-152 517h158l51 -239l162 239h4l77 -239l137 239h171zM384 718l118 -145h-122l-153 145h157z" />
    <glyph glyph-name="yacute" unicode="&#xfd;" horiz-adv-x="579" 
d="M610 507l-524 -737h-168l267 360l-135 377h156l71 -246l160 246h173zM584 718l-196 -145h-130l151 145h175z" />
    <glyph glyph-name="ycircumflex" unicode="&#x177;" horiz-adv-x="579" 
d="M610 507l-524 -737h-168l267 360l-135 377h156l71 -246l160 246h173zM364 766l133 -192h-106l-44 57l-64 -57h-119z" />
    <glyph glyph-name="ydieresis" unicode="&#xff;" horiz-adv-x="579" 
d="M610 507l-524 -737h-168l267 360l-135 377h156l71 -246l160 246h173zM260 719c37 0 59 -23 59 -59c0 -45 -39 -81 -81 -81c-38 0 -60 23 -60 59c0 45 37 81 82 81zM452 719c37 0 60 -23 60 -59c0 -45 -40 -81 -82 -81c-38 0 -60 23 -60 59c0 45 37 81 82 81z" />
    <glyph glyph-name="ygrave" unicode="&#x1ef3;" horiz-adv-x="579" 
d="M610 507l-524 -737h-168l267 360l-135 377h156l71 -246l160 246h173zM288 718l118 -145h-122l-153 145h157z" />
    <glyph glyph-name="zacute" unicode="&#x17a;" horiz-adv-x="479" 
d="M500 507v-4l-275 -379h206l-21 -124h-431v4l273 379h-194l22 124h420zM556 718l-196 -145h-130l151 145h175z" />
    <glyph glyph-name="zcaron" unicode="&#x17e;" horiz-adv-x="479" 
d="M500 507v-4l-275 -379h206l-21 -124h-431v4l273 379h-194l22 124h420zM504 756l-200 -192l-133 192h105l44 -57l65 57h119z" />
    <glyph glyph-name="zdotaccent" unicode="&#x17c;" horiz-adv-x="479" 
d="M500 507v-4l-275 -379h206l-21 -124h-431v4l273 379h-194l22 124h420zM331 750c47 0 75 -28 75 -72c0 -55 -49 -100 -100 -100c-47 0 -75 28 -75 72c0 55 47 100 100 100z" />
    <glyph glyph-name="Aacute" unicode="&#xc1;" horiz-adv-x="724" 
d="M445 748l223 -748h-161l-29 114h-278l-69 -114h-175l485 748h4zM399 450l-129 -217h180zM700 892l-175 -120h-148l138 120h185z" />
    <glyph glyph-name="Abreve" unicode="&#x102;" horiz-adv-x="724" 
d="M445 748l223 -748h-161l-29 114h-278l-69 -114h-175l485 748h4zM399 450l-129 -217h180zM637 931c-14 -106 -95 -160 -185 -160c-100 0 -157 69 -146 160h100c-8 -47 12 -80 53 -80c40 0 70 33 78 80h100z" />
    <glyph glyph-name="Acircumflex" unicode="&#xc2;" horiz-adv-x="724" 
d="M445 748l223 -748h-161l-29 114h-278l-69 -114h-175l485 748h4zM399 450l-129 -217h180zM472 926l147 -154h-109l-51 49l-67 -49h-122z" />
    <glyph glyph-name="Adieresis" unicode="&#xc4;" horiz-adv-x="724" 
d="M445 748l223 -748h-161l-29 114h-278l-69 -114h-175l485 748h4zM399 450l-129 -217h180zM372 906c38 0 60 -23 60 -59c0 -45 -39 -81 -81 -81c-38 0 -61 23 -61 59c0 45 38 81 82 81zM565 906c37 0 59 -23 59 -59c0 -45 -39 -81 -81 -81c-38 0 -61 23 -61 59
c0 45 38 81 83 81z" />
    <glyph glyph-name="AEacute" unicode="&#x1fc;" horiz-adv-x="890" 
d="M926 735l-24 -139h-376l36 -159h269l-22 -129h-217l41 -169h196l-24 -139h-306l-26 116h-279l-68 -116h-169l454 735h515zM395 465l-135 -234h188zM856 892l-175 -120h-148l138 120h185z" />
    <glyph glyph-name="Agrave" unicode="&#xc0;" horiz-adv-x="724" 
d="M445 748l223 -748h-161l-29 114h-278l-69 -114h-175l485 748h4zM399 450l-129 -217h180zM409 892l114 -120h-136l-143 120h165z" />
    <glyph glyph-name="Amacron" unicode="&#x100;" horiz-adv-x="724" 
d="M445 748l223 -748h-161l-29 114h-278l-69 -114h-175l485 748h4zM399 450l-129 -217h180zM598 883l-17 -98h-274l17 98h274z" />
    <glyph glyph-name="Aring" unicode="&#xc5;" horiz-adv-x="724" 
d="M445 748l223 -748h-161l-29 114h-278l-69 -114h-175l485 748h4zM399 450l-129 -217h180zM482 1010c64 0 107 -46 107 -105c0 -82 -68 -136 -142 -136c-64 0 -106 46 -106 105c0 82 67 136 141 136zM470 933c-24 0 -49 -20 -49 -50c0 -22 14 -37 37 -37c24 0 49 20 49 50
c0 22 -15 37 -37 37z" />
    <glyph glyph-name="Atilde" unicode="&#xc3;" horiz-adv-x="724" 
d="M445 748l223 -748h-161l-29 114h-278l-69 -114h-175l485 748h4zM399 450l-129 -217h180zM412 923c68 0 79 -70 115 -70c27 0 38 25 45 64h78c-17 -96 -78 -149 -142 -149c-72 0 -70 70 -112 70c-31 0 -41 -24 -48 -64h-78c17 100 78 149 142 149z" />
    <glyph glyph-name="Cacute" unicode="&#x106;" horiz-adv-x="682" 
d="M474 748c123 0 196 -42 257 -115l-106 -102c-31 46 -85 78 -159 78c-160 0 -272 -116 -272 -295c-1 -120 76 -188 181 -188c74 0 137 27 191 79l82 -121c-82 -70 -175 -97 -282 -97c-197 0 -326 124 -326 319c0 240 193 442 434 442zM737 902l-175 -120h-148l138 120h185
z" />
    <glyph glyph-name="Ccaron" unicode="&#x10c;" horiz-adv-x="682" 
d="M474 748c123 0 196 -42 257 -115l-106 -102c-31 46 -85 78 -159 78c-160 0 -272 -116 -272 -295c-1 -120 76 -188 181 -188c74 0 137 27 191 79l82 -121c-82 -70 -175 -97 -282 -97c-197 0 -326 124 -326 319c0 240 193 442 434 442zM684 925l-202 -154l-147 154h108
l51 -49l67 49h123z" />
    <glyph glyph-name="Ccircumflex" unicode="&#x108;" horiz-adv-x="682" 
d="M474 748c123 0 196 -42 257 -115l-106 -102c-31 46 -85 78 -159 78c-160 0 -272 -116 -272 -295c-1 -120 76 -188 181 -188c74 0 137 27 191 79l82 -121c-82 -70 -175 -97 -282 -97c-197 0 -326 124 -326 319c0 240 193 442 434 442zM509 936l147 -154h-109l-51 49
l-67 -49h-122z" />
    <glyph glyph-name="Cdotaccent" unicode="&#x10a;" horiz-adv-x="682" 
d="M474 748c123 0 196 -42 257 -115l-106 -102c-31 46 -85 78 -159 78c-160 0 -272 -116 -272 -295c-1 -120 76 -188 181 -188c74 0 137 27 191 79l82 -121c-82 -70 -175 -97 -282 -97c-197 0 -326 124 -326 319c0 240 193 442 434 442zM508 936c42 0 68 -26 68 -66
c0 -51 -45 -91 -92 -91c-43 0 -68 25 -68 65c0 51 43 92 92 92z" />
    <glyph glyph-name="Dcaron" unicode="&#x10e;" horiz-adv-x="738" 
d="M368 735c221 0 361 -123 361 -319c0 -253 -197 -416 -471 -416h-234l129 735h215zM358 595h-76l-81 -456h76c166 -2 297 103 297 277c0 115 -71 179 -216 179zM593 915l-202 -154l-147 154h108l51 -49l67 49h123z" />
    <glyph glyph-name="Eacute" unicode="&#xc9;" 
d="M628 735l-24 -139h-322l-29 -159h280l-23 -129h-280l-29 -169h330l-24 -139h-483l129 735h475zM658 892l-175 -120h-148l138 120h185z" />
    <glyph glyph-name="Ebreve" unicode="&#x114;" 
d="M628 735l-24 -139h-322l-29 -159h280l-23 -129h-280l-29 -169h330l-24 -139h-483l129 735h475zM594 931c-14 -106 -95 -160 -185 -160c-100 0 -157 69 -146 160h100c-8 -47 12 -80 53 -80c40 0 70 33 78 80h100z" />
    <glyph glyph-name="Ecaron" unicode="&#x11a;" 
d="M628 735l-24 -139h-322l-29 -159h280l-23 -129h-280l-29 -169h330l-24 -139h-483l129 735h475zM606 915l-202 -154l-147 154h108l51 -49l67 49h123z" />
    <glyph glyph-name="Ecircumflex" unicode="&#xca;" 
d="M628 735l-24 -139h-322l-29 -159h280l-23 -129h-280l-29 -169h330l-24 -139h-483l129 735h475zM430 926l147 -154h-109l-51 49l-67 -49h-122z" />
    <glyph glyph-name="Edieresis" unicode="&#xcb;" 
d="M628 735l-24 -139h-322l-29 -159h280l-23 -129h-280l-29 -169h330l-24 -139h-483l129 735h475zM331 913c38 0 60 -23 60 -59c0 -45 -39 -81 -81 -81c-38 0 -61 23 -61 59c0 45 38 81 82 81zM524 913c37 0 59 -23 59 -59c0 -45 -39 -81 -81 -81c-38 0 -61 23 -61 59
c0 45 38 81 83 81z" />
    <glyph glyph-name="Edotaccent" unicode="&#x116;" 
d="M628 735l-24 -139h-322l-29 -159h280l-23 -129h-280l-29 -169h330l-24 -139h-483l129 735h475zM429 926c42 0 68 -26 68 -66c0 -51 -45 -91 -92 -91c-43 0 -68 25 -68 65c0 51 43 92 92 92z" />
    <glyph glyph-name="Egrave" unicode="&#xc8;" 
d="M628 735l-24 -139h-322l-29 -159h280l-23 -129h-280l-29 -169h330l-24 -139h-483l129 735h475zM367 892l114 -120h-136l-143 120h165z" />
    <glyph glyph-name="Emacron" unicode="&#x112;" 
d="M628 735l-24 -139h-322l-29 -159h280l-23 -129h-280l-29 -169h330l-24 -139h-483l129 735h475zM557 883l-17 -98h-274l17 98h274z" />
    <glyph glyph-name="Gbreve" unicode="&#x11e;" horiz-adv-x="749" 
d="M475 748c123 0 195 -42 256 -115l-106 -102c-31 46 -86 78 -160 78c-157 0 -261 -109 -269 -280c-9 -124 67 -203 182 -203c53 0 99 12 139 35l22 121h-159l23 131h311l-57 -325c-83 -66 -174 -101 -289 -101c-209 0 -335 135 -327 335c9 232 197 426 434 426zM673 941
c-14 -106 -95 -160 -185 -160c-100 0 -157 69 -146 160h100c-8 -47 12 -80 53 -80c40 0 70 33 78 80h100z" />
    <glyph glyph-name="Gcircumflex" unicode="&#x11c;" horiz-adv-x="749" 
d="M475 748c123 0 195 -42 256 -115l-106 -102c-31 46 -86 78 -160 78c-157 0 -261 -109 -269 -280c-9 -124 67 -203 182 -203c53 0 99 12 139 35l22 121h-159l23 131h311l-57 -325c-83 -66 -174 -101 -289 -101c-209 0 -335 135 -327 335c9 232 197 426 434 426zM508 936
l147 -154h-109l-51 49l-67 -49h-122z" />
    <glyph glyph-name="Gdotaccent" unicode="&#x120;" horiz-adv-x="749" 
d="M475 748c123 0 195 -42 256 -115l-106 -102c-31 46 -86 78 -160 78c-157 0 -261 -109 -269 -280c-9 -124 67 -203 182 -203c53 0 99 12 139 35l22 121h-159l23 131h311l-57 -325c-83 -66 -174 -101 -289 -101c-209 0 -335 135 -327 335c9 232 197 426 434 426zM507 936
c42 0 68 -26 68 -66c0 -51 -45 -91 -92 -91c-43 0 -68 25 -68 65c0 51 43 92 92 92z" />
    <glyph glyph-name="Hcircumflex" unicode="&#x124;" horiz-adv-x="750" 
d="M756 735l-129 -735h-153l55 307h-298l-54 -307h-153l129 735h153l-51 -289h297l51 289h153zM488 926l147 -154h-109l-51 49l-67 -49h-122z" />
    <glyph glyph-name="Iacute" unicode="&#xcd;" horiz-adv-x="299" 
d="M306 735l-129 -735h-153l129 735h153zM490 892l-175 -120h-148l138 120h185z" />
    <glyph glyph-name="Ibreve" unicode="&#x12c;" horiz-adv-x="299" 
d="M306 735l-129 -735h-153l129 735h153zM428 931c-14 -106 -95 -160 -185 -160c-100 0 -157 69 -146 160h100c-8 -47 12 -80 53 -80c40 0 70 33 78 80h100z" />
    <glyph glyph-name="Idotaccent" unicode="&#x130;" horiz-adv-x="299" 
d="M306 735l-129 -735h-153l129 735h153zM261 926c42 0 68 -26 68 -66c0 -51 -45 -91 -92 -91c-43 0 -68 25 -68 65c0 51 43 92 92 92z" />
    <glyph glyph-name="Icircumflex" unicode="&#xce;" horiz-adv-x="299" 
d="M306 735l-129 -735h-153l129 735h153zM263 926l147 -154h-109l-51 49l-67 -49h-122z" />
    <glyph glyph-name="Idieresis" unicode="&#xcf;" horiz-adv-x="299" 
d="M306 735l-129 -735h-153l129 735h153zM162 906c38 0 60 -23 60 -59c0 -45 -39 -81 -81 -81c-38 0 -61 23 -61 59c0 45 38 81 82 81zM355 906c37 0 59 -23 59 -59c0 -45 -39 -81 -81 -81c-38 0 -61 23 -61 59c0 45 38 81 83 81z" />
    <glyph glyph-name="Igrave" unicode="&#xcc;" horiz-adv-x="299" 
d="M306 735l-129 -735h-153l129 735h153zM200 892l114 -120h-136l-143 120h165z" />
    <glyph glyph-name="Imacron" unicode="&#x12a;" horiz-adv-x="299" 
d="M306 735l-129 -735h-153l129 735h153zM389 883l-17 -98h-274l17 98h274z" />
    <glyph glyph-name="Itilde" unicode="&#x128;" horiz-adv-x="299" 
d="M306 735l-129 -735h-153l129 735h153zM204 923c68 0 79 -70 115 -70c27 0 38 25 45 64h78c-17 -96 -78 -149 -142 -149c-72 0 -70 70 -112 70c-31 0 -41 -24 -48 -64h-78c17 100 78 149 142 149z" />
    <glyph glyph-name="Jcircumflex" unicode="&#x134;" horiz-adv-x="568" 
d="M578 735l-90 -517c-27 -150 -130 -231 -271 -231c-120 0 -241 86 -211 260h146c-14 -78 19 -121 76 -121c59 0 98 36 109 102l89 507h152zM537 926l147 -154h-109l-51 49l-67 -49h-122z" />
    <glyph glyph-name="Lacute" unicode="&#x139;" horiz-adv-x="546" 
d="M306 735l-106 -601h313l-23 -134h-466l129 735h153zM490 892l-175 -120h-148l138 120h185z" />
    <glyph glyph-name="Nacute" unicode="&#x143;" horiz-adv-x="737" 
d="M744 735l-132 -748h-4l-357 434l-74 -421h-153l132 748h4l359 -435l72 422h153zM700 892l-175 -120h-148l138 120h185z" />
    <glyph glyph-name="Ncaron" unicode="&#x147;" horiz-adv-x="737" 
d="M744 735l-132 -748h-4l-357 434l-74 -421h-153l132 748h4l359 -435l72 422h153zM648 915l-202 -154l-147 154h108l51 -49l67 49h123z" />
    <glyph glyph-name="Ntilde" unicode="&#xd1;" horiz-adv-x="737" 
d="M744 735l-132 -748h-4l-357 434l-74 -421h-153l132 748h4l359 -435l72 422h153zM413 923c68 0 79 -70 115 -70c27 0 38 25 45 64h78c-17 -96 -78 -149 -142 -149c-72 0 -70 70 -112 70c-31 0 -41 -24 -48 -64h-78c17 100 78 149 142 149z" />
    <glyph glyph-name="Oacute" unicode="&#xd3;" horiz-adv-x="814" 
d="M490 748c194 0 315 -137 315 -325c0 -235 -203 -436 -449 -436c-194 0 -315 137 -315 325c0 235 203 436 449 436zM466 609c-151 0 -271 -139 -271 -291c0 -118 71 -192 185 -192c151 0 270 139 270 291c0 118 -70 192 -184 192zM749 902l-175 -120h-148l138 120h185z
" />
    <glyph glyph-name="Obreve" unicode="&#x14e;" horiz-adv-x="814" 
d="M490 748c194 0 315 -137 315 -325c0 -235 -203 -436 -449 -436c-194 0 -315 137 -315 325c0 235 203 436 449 436zM466 609c-151 0 -271 -139 -271 -291c0 -118 71 -192 185 -192c151 0 270 139 270 291c0 118 -70 192 -184 192zM686 941c-14 -106 -95 -160 -185 -160
c-100 0 -157 69 -146 160h100c-8 -47 12 -80 53 -80c40 0 70 33 78 80h100z" />
    <glyph glyph-name="Ocircumflex" unicode="&#xd4;" horiz-adv-x="814" 
d="M490 748c194 0 315 -137 315 -325c0 -235 -203 -436 -449 -436c-194 0 -315 137 -315 325c0 235 203 436 449 436zM466 609c-151 0 -271 -139 -271 -291c0 -118 71 -192 185 -192c151 0 270 139 270 291c0 118 -70 192 -184 192zM522 936l147 -154h-109l-51 49l-67 -49
h-122z" />
    <glyph glyph-name="Odieresis" unicode="&#xd6;" horiz-adv-x="814" 
d="M490 748c194 0 315 -137 315 -325c0 -235 -203 -436 -449 -436c-194 0 -315 137 -315 325c0 235 203 436 449 436zM466 609c-151 0 -271 -139 -271 -291c0 -118 71 -192 185 -192c151 0 270 139 270 291c0 118 -70 192 -184 192zM421 916c38 0 60 -23 60 -59
c0 -45 -39 -81 -81 -81c-38 0 -61 23 -61 59c0 45 38 81 82 81zM614 916c37 0 59 -23 59 -59c0 -45 -39 -81 -81 -81c-38 0 -61 23 -61 59c0 45 38 81 83 81z" />
    <glyph glyph-name="Ograve" unicode="&#xd2;" horiz-adv-x="814" 
d="M490 748c194 0 315 -137 315 -325c0 -235 -203 -436 -449 -436c-194 0 -315 137 -315 325c0 235 203 436 449 436zM466 609c-151 0 -271 -139 -271 -291c0 -118 71 -192 185 -192c151 0 270 139 270 291c0 118 -70 192 -184 192zM458 902l114 -120h-136l-143 120h165z
" />
    <glyph glyph-name="Ohungarumlaut" unicode="&#x150;" horiz-adv-x="814" 
d="M490 748c194 0 315 -137 315 -325c0 -235 -203 -436 -449 -436c-194 0 -315 137 -315 325c0 235 203 436 449 436zM466 609c-151 0 -271 -139 -271 -291c0 -118 71 -192 185 -192c151 0 270 139 270 291c0 118 -70 192 -184 192zM568 904l-122 -121h-108l101 121h129z
M759 904l-122 -121h-108l101 121h129z" />
    <glyph glyph-name="Omacron" unicode="&#x14c;" horiz-adv-x="814" 
d="M490 748c194 0 315 -137 315 -325c0 -235 -203 -436 -449 -436c-194 0 -315 137 -315 325c0 235 203 436 449 436zM466 609c-151 0 -271 -139 -271 -291c0 -118 71 -192 185 -192c151 0 270 139 270 291c0 118 -70 192 -184 192zM648 893l-17 -98h-274l17 98h274z" />
    <glyph glyph-name="Otilde" unicode="&#xd5;" horiz-adv-x="814" 
d="M490 748c194 0 315 -137 315 -325c0 -235 -203 -436 -449 -436c-194 0 -315 137 -315 325c0 235 203 436 449 436zM466 609c-151 0 -271 -139 -271 -291c0 -118 71 -192 185 -192c151 0 270 139 270 291c0 118 -70 192 -184 192zM462 933c68 0 79 -70 115 -70
c27 0 38 25 45 64h78c-17 -96 -78 -149 -142 -149c-72 0 -70 70 -112 70c-31 0 -41 -24 -48 -64h-78c17 100 78 149 142 149z" />
    <glyph glyph-name="Racute" unicode="&#x154;" horiz-adv-x="664" 
d="M426 735c134 0 238 -81 238 -207c0 -118 -73 -205 -174 -245l119 -283h-163l-108 259h-116l-45 -259h-153l129 735h273zM405 603h-122l-38 -212h122c73 0 142 43 142 127c-1 55 -40 85 -104 85zM652 892l-175 -120h-148l138 120h185z" />
    <glyph glyph-name="Rcaron" unicode="&#x158;" horiz-adv-x="664" 
d="M426 735c134 0 238 -81 238 -207c0 -118 -73 -205 -174 -245l119 -283h-163l-108 259h-116l-45 -259h-153l129 735h273zM405 603h-122l-38 -212h122c73 0 142 43 142 127c-1 55 -40 85 -104 85zM600 915l-202 -154l-147 154h108l51 -49l67 49h123z" />
    <glyph glyph-name="Sacute" unicode="&#x15a;" horiz-adv-x="602" 
d="M359 748c114 0 198 -37 251 -84l-95 -114c-38 36 -92 59 -163 59c-69 0 -127 -30 -127 -88c0 -40 31 -60 125 -80c158 -32 214 -99 214 -198c0 -175 -150 -256 -310 -256c-125 0 -213 41 -274 104l95 116c41 -52 118 -81 190 -81c85 0 143 35 143 91c0 41 -32 64 -124 83
c-164 35 -212 106 -212 197c0 144 120 251 287 251zM632 902l-175 -120h-148l138 120h185z" />
    <glyph glyph-name="Scaron" unicode="&#x160;" horiz-adv-x="602" 
d="M359 748c114 0 198 -37 251 -84l-95 -114c-38 36 -92 59 -163 59c-69 0 -127 -30 -127 -88c0 -40 31 -60 125 -80c158 -32 214 -99 214 -198c0 -175 -150 -256 -310 -256c-125 0 -213 41 -274 104l95 116c41 -52 118 -81 190 -81c85 0 143 35 143 91c0 41 -32 64 -124 83
c-164 35 -212 106 -212 197c0 144 120 251 287 251zM580 925l-202 -154l-147 154h108l51 -49l67 49h123z" />
    <glyph glyph-name="Scircumflex" unicode="&#x15c;" horiz-adv-x="602" 
d="M359 748c114 0 198 -37 251 -84l-95 -114c-38 36 -92 59 -163 59c-69 0 -127 -30 -127 -88c0 -40 31 -60 125 -80c158 -32 214 -99 214 -198c0 -175 -150 -256 -310 -256c-125 0 -213 41 -274 104l95 116c41 -52 118 -81 190 -81c85 0 143 35 143 91c0 41 -32 64 -124 83
c-164 35 -212 106 -212 197c0 144 120 251 287 251zM404 936l147 -154h-109l-51 49l-67 -49h-122z" />
    <glyph glyph-name="Tcaron" unicode="&#x164;" horiz-adv-x="662" 
d="M722 735l-23 -134h-239l-106 -601h-152l106 601h-238l23 134h629zM614 915l-202 -154l-147 154h108l51 -49l67 49h123z" />
    <glyph glyph-name="Uacute" unicode="&#xda;" horiz-adv-x="694" 
d="M711 735l-83 -471c-30 -174 -135 -277 -319 -277c-171 0 -277 105 -244 290l80 458h152l-81 -461c-15 -89 17 -148 105 -148c86 0 141 60 156 148l82 461h152zM684 892l-175 -120h-148l138 120h185z" />
    <glyph glyph-name="Ubreve" unicode="&#x16c;" horiz-adv-x="694" 
d="M711 735l-83 -471c-30 -174 -135 -277 -319 -277c-171 0 -277 105 -244 290l80 458h152l-81 -461c-15 -89 17 -148 105 -148c86 0 141 60 156 148l82 461h152zM621 931c-14 -106 -95 -160 -185 -160c-100 0 -157 69 -146 160h100c-8 -47 12 -80 53 -80c40 0 70 33 78 80
h100z" />
    <glyph glyph-name="Ucircumflex" unicode="&#xdb;" horiz-adv-x="694" 
d="M711 735l-83 -471c-30 -174 -135 -277 -319 -277c-171 0 -277 105 -244 290l80 458h152l-81 -461c-15 -89 17 -148 105 -148c86 0 141 60 156 148l82 461h152zM456 926l147 -154h-109l-51 49l-67 -49h-122z" />
    <glyph glyph-name="Udieresis" unicode="&#xdc;" horiz-adv-x="694" 
d="M711 735l-83 -471c-30 -174 -135 -277 -319 -277c-171 0 -277 105 -244 290l80 458h152l-81 -461c-15 -89 17 -148 105 -148c86 0 141 60 156 148l82 461h152zM355 906c38 0 60 -23 60 -59c0 -45 -39 -81 -81 -81c-38 0 -61 23 -61 59c0 45 38 81 82 81zM548 906
c37 0 59 -23 59 -59c0 -45 -39 -81 -81 -81c-38 0 -61 23 -61 59c0 45 38 81 83 81z" />
    <glyph glyph-name="Ugrave" unicode="&#xd9;" horiz-adv-x="694" 
d="M711 735l-83 -471c-30 -174 -135 -277 -319 -277c-171 0 -277 105 -244 290l80 458h152l-81 -461c-15 -89 17 -148 105 -148c86 0 141 60 156 148l82 461h152zM393 892l114 -120h-136l-143 120h165z" />
    <glyph glyph-name="Uhungarumlaut" unicode="&#x170;" horiz-adv-x="694" 
d="M711 735l-83 -471c-30 -174 -135 -277 -319 -277c-171 0 -277 105 -244 290l80 458h152l-81 -461c-15 -89 17 -148 105 -148c86 0 141 60 156 148l82 461h152zM503 894l-122 -121h-108l101 121h129zM694 894l-122 -121h-108l101 121h129z" />
    <glyph glyph-name="Umacron" unicode="&#x16a;" horiz-adv-x="694" 
d="M711 735l-83 -471c-30 -174 -135 -277 -319 -277c-171 0 -277 105 -244 290l80 458h152l-81 -461c-15 -89 17 -148 105 -148c86 0 141 60 156 148l82 461h152zM583 883l-17 -98h-274l17 98h274z" />
    <glyph glyph-name="Uring" unicode="&#x16e;" horiz-adv-x="694" 
d="M711 735l-83 -471c-30 -174 -135 -277 -319 -277c-171 0 -277 105 -244 290l80 458h152l-81 -461c-15 -89 17 -148 105 -148c86 0 141 60 156 148l82 461h152zM466 1010c64 0 107 -46 107 -105c0 -82 -68 -136 -142 -136c-64 0 -106 46 -106 105c0 82 67 136 141 136z
M454 933c-24 0 -49 -20 -49 -50c0 -22 14 -37 37 -37c24 0 49 20 49 50c0 22 -15 37 -37 37z" />
    <glyph glyph-name="Utilde" unicode="&#x168;" horiz-adv-x="694" 
d="M711 735l-83 -471c-30 -174 -135 -277 -319 -277c-171 0 -277 105 -244 290l80 458h152l-81 -461c-15 -89 17 -148 105 -148c86 0 141 60 156 148l82 461h152zM397 923c68 0 79 -70 115 -70c27 0 38 25 45 64h78c-17 -96 -78 -149 -142 -149c-72 0 -70 70 -112 70
c-31 0 -41 -24 -48 -64h-78c17 100 78 149 142 149z" />
    <glyph glyph-name="Wacute" unicode="&#x1e82;" horiz-adv-x="962" 
d="M1029 735l-430 -746h-4l-100 407l-243 -407h-4l-168 746h157l76 -398l230 398h4l91 -396l213 396h178zM811 892l-175 -120h-148l138 120h185z" />
    <glyph glyph-name="Wcircumflex" unicode="&#x174;" horiz-adv-x="962" 
d="M1029 735l-430 -746h-4l-100 407l-243 -407h-4l-168 746h157l76 -398l230 398h4l91 -396l213 396h178zM584 926l147 -154h-109l-51 49l-67 -49h-122z" />
    <glyph glyph-name="Wdieresis" unicode="&#x1e84;" horiz-adv-x="962" 
d="M1029 735l-430 -746h-4l-100 407l-243 -407h-4l-168 746h157l76 -398l230 398h4l91 -396l213 396h178zM483 906c38 0 60 -23 60 -59c0 -45 -39 -81 -81 -81c-38 0 -61 23 -61 59c0 45 38 81 82 81zM676 906c37 0 59 -23 59 -59c0 -45 -39 -81 -81 -81
c-38 0 -61 23 -61 59c0 45 38 81 83 81z" />
    <glyph glyph-name="Wgrave" unicode="&#x1e80;" horiz-adv-x="962" 
d="M1029 735l-430 -746h-4l-100 407l-243 -407h-4l-168 746h157l76 -398l230 398h4l91 -396l213 396h178zM520 892l114 -120h-136l-143 120h165z" />
    <glyph glyph-name="Yacute" unicode="&#xdd;" horiz-adv-x="696" 
d="M761 735l-344 -434l-52 -301h-152l52 298l-192 437h168l118 -284l216 284h186zM672 892l-175 -120h-148l138 120h185z" />
    <glyph glyph-name="Ycircumflex" unicode="&#x176;" horiz-adv-x="696" 
d="M761 735l-344 -434l-52 -301h-152l52 298l-192 437h168l118 -284l216 284h186zM444 926l147 -154h-109l-51 49l-67 -49h-122z" />
    <glyph glyph-name="Ydieresis" unicode="&#x178;" horiz-adv-x="696" 
d="M761 735l-344 -434l-52 -301h-152l52 298l-192 437h168l118 -284l216 284h186zM343 906c38 0 60 -23 60 -59c0 -45 -39 -81 -81 -81c-38 0 -61 23 -61 59c0 45 38 81 82 81zM536 906c37 0 59 -23 59 -59c0 -45 -39 -81 -81 -81c-38 0 -61 23 -61 59c0 45 38 81 83 81z
" />
    <glyph glyph-name="Ygrave" unicode="&#x1ef2;" horiz-adv-x="696" 
d="M761 735l-344 -434l-52 -301h-152l52 298l-192 437h168l118 -284l216 284h186zM381 892l114 -120h-136l-143 120h165z" />
    <glyph glyph-name="Zacute" unicode="&#x179;" horiz-adv-x="594" 
d="M642 735v-4l-411 -598h316l-23 -133h-550v4l412 598h-292l23 133h525zM643 892l-175 -120h-148l138 120h185z" />
    <glyph glyph-name="Zcaron" unicode="&#x17d;" horiz-adv-x="594" 
d="M642 735v-4l-411 -598h316l-23 -133h-550v4l412 598h-292l23 133h525zM591 915l-202 -154l-147 154h108l51 -49l67 49h123z" />
    <glyph glyph-name="Zdotaccent" unicode="&#x17b;" horiz-adv-x="594" 
d="M642 735v-4l-411 -598h316l-23 -133h-550v4l412 598h-292l23 133h525zM414 926c42 0 68 -26 68 -66c0 -51 -45 -91 -92 -91c-43 0 -68 25 -68 65c0 51 43 92 92 92z" />
    </font>
</defs>
</svg>
